<?xml version="1.0" encoding="UTF-8" standalone="no"?>
<svg
   xmlns:dc="http://purl.org/dc/elements/1.1/"
   xmlns:cc="http://creativecommons.org/ns#"
   xmlns:rdf="http://www.w3.org/1999/02/22-rdf-syntax-ns#"
   xmlns:svg="http://www.w3.org/2000/svg"
   xmlns="http://www.w3.org/2000/svg"
   id="svg4136"
   version="1.1"
   viewBox="0 0 208 52"
   height="52pt"
   width="208pt">
  <metadata
     id="metadata4159">
    <rdf:RDF>
      <cc:Work
         rdf:about="">
        <dc:format>image/svg+xml</dc:format>
        <dc:type
           rdf:resource="http://purl.org/dc/dcmitype/StillImage" />
        <dc:title></dc:title>
      </cc:Work>
    </rdf:RDF>
  </metadata>
  <defs
     id="defs4157" />
  <g
     transform="translate(-14.986367,1.8350653)"
     id="iPhone7">
    <path
       style="opacity:1;fill:#000000"
       id="path4139"
       d="m 23.45,5.65 c 3.59,-2.49 7.51,3.28 3.74,5.54 -3.47,2.5 -7.47,-3.34 -3.74,-5.54 z" />
    <path
       style="opacity:1;fill:#000000"
       id="path4141"
       d="m 34.81,5.28 c 6.16,0.23 12.4,-0.54 18.49,0.47 9.41,2.26 11.53,16.09 4.31,21.91 -4.66,3.99 -11.17,2.71 -16.79,2.9 0,4.38 -0.01,8.75 -0.01,13.12 -1.98,0 -3.95,0.02 -5.93,0.07 C 34.73,30.92 34.85,18.1 34.81,5.28 m 6.01,4.98 c -0.01,5.08 -0.01,10.15 0,15.23 3.63,-0.1 7.44,0.47 10.93,-0.81 5.57,-2.3 5.33,-11.97 -0.49,-13.82 -3.39,-0.98 -6.97,-0.53 -10.44,-0.6 z" />
    <path
       style="opacity:1;fill:#000000"
       id="path4143"
       d="m 65.94,5.27 c 1.92,0.02 3.83,0.02 5.75,0 -0.03,5 0.07,10 -0.08,14.99 3.83,-7.09 16.38,-6.39 18.3,1.82 1.13,7.13 0.25,14.42 0.53,21.61 -1.96,-0.02 -3.92,-0.02 -5.88,0 -0.18,-6.32 0.37,-12.67 -0.26,-18.97 -1.13,-6.09 -11.09,-5.42 -12.18,0.4 -0.82,6.14 -0.16,12.39 -0.37,18.57 -1.94,-0.01 -3.87,-0.01 -5.81,0 -0.01,-12.8 0,-25.61 0,-38.42 z" />
    <path
       style="opacity:1;fill:#000000"
       id="path4145"
       d="m 189.81,5.28 c 8.73,-0.01 17.47,0.01 26.2,-0.01 -0.05,2.27 0.34,4.7 -0.79,6.79 -5.29,10.53 -10.61,21.06 -15.85,31.62 -2.13,-0.01 -4.26,0 -6.38,0.02 5.69,-11.16 11.43,-22.29 17.13,-33.44 -6.77,-0.02 -13.54,0 -20.31,-0.01 0.01,-1.66 0.01,-3.31 0,-4.97 z" />
    <path
       style="opacity:1;fill:#000000"
       id="path4147"
       d="m 155.18,21.25 c 4.04,-7.29 15.86,-7.95 20.78,-1.28 2.46,3.18 2.67,7.35 2.74,11.21 -6.64,0.02 -13.28,-0.01 -19.92,0.02 0.41,2.26 0.69,4.84 2.62,6.38 3.5,2.99 9.49,2.07 11.64,-2.12 1.83,0 3.65,0 5.48,0.01 -2.44,10.36 -18.68,11.53 -23.53,2.53 -2.67,-5.12 -2.62,-11.69 0.19,-16.75 m 3.63,5.85 c 4.71,0.04 9.43,0.03 14.14,0 -0.33,-3.62 -2.99,-7.3 -6.98,-7.01 -3.96,-0.18 -6.59,3.44 -7.16,7.01 z" />
    <path
       style="opacity:1;fill:#000000"
       id="path4149"
       d="m 22.44,43.69 c 0,-9.31 -0.01,-18.63 0,-27.95 1.94,0.02 3.87,0.02 5.81,0.01 0,9.31 0,18.63 0,27.95 -1.94,-0.02 -3.88,-0.02 -5.81,-0.01 z" />
    <path
       style="opacity:1;fill:#000000"
       id="path4151"
       d="m 102.31,16.33 c 5.48,-2.07 12.66,-0.89 16.08,4.21 3.33,5.09 3.38,12.09 0.59,17.43 -4.5,8.23 -18.41,8.11 -22.73,-0.23 -3.69,-7.11 -2.17,-18.24 6.06,-21.41 m 3.03,4.21 c -5.67,2.2 -5.92,9.97 -3.88,14.82 1.99,4.95 9.98,5.17 12.25,0.36 1.81,-3.8 1.81,-8.56 -0.16,-12.3 -1.55,-2.86 -5.24,-3.84 -8.21,-2.88 z" />
    <path
       style="opacity:1;fill:#000000"
       id="path4153"
       d="m 124.94,15.75 c 1.86,0.01 3.72,0.01 5.59,-0.01 -0.04,1.53 -0.08,3.06 -0.12,4.59 2.77,-4.83 9.28,-6.26 14.09,-3.76 3.03,1.6 4.51,5.11 4.51,8.42 0.16,6.23 0,12.47 0.05,18.7 -1.94,-0.01 -3.88,-0.01 -5.81,0 -0.14,-6.22 0.26,-12.47 -0.18,-18.68 -0.44,-5.06 -7.69,-6 -10.6,-2.53 -1.83,2.04 -1.68,4.94 -1.74,7.49 0.03,4.58 0.03,9.15 0.02,13.72 -1.94,-0.01 -3.87,-0.01 -5.81,0 -0.01,-9.31 -0.01,-18.63 0,-27.94 z" />
  </g>
</svg>
