<?xml version="1.0" encoding="UTF-8" standalone="no"?>
<!-- Created with Inkscape (http://www.inkscape.org/) -->

<svg
   xmlns:dc="http://purl.org/dc/elements/1.1/"
   xmlns:cc="http://creativecommons.org/ns#"
   xmlns:rdf="http://www.w3.org/1999/02/22-rdf-syntax-ns#"
   xmlns:svg="http://www.w3.org/2000/svg"
   xmlns="http://www.w3.org/2000/svg"
   xmlns:xlink="http://www.w3.org/1999/xlink"
   xmlns:sodipodi="http://sodipodi.sourceforge.net/DTD/sodipodi-0.dtd"
   xmlns:inkscape="http://www.inkscape.org/namespaces/inkscape"
   width="212.6022mm"
   height="25.134235mm"
   viewBox="0 0 212.6022 25.134235"
   version="1.1"
   id="svg8"
   inkscape:version="0.92.5 (2060ec1f9f, 2020-04-08)"
   sodipodi:docname="Dynablocks_2003.svg">
  <defs
     id="defs2">
    <clipPath
       clipPathUnits="userSpaceOnUse"
       id="clipPath916">
      <use
         x="0"
         y="0"
         xlink:href="#g912"
         id="use918"
         width="100%"
         height="100%" />
    </clipPath>
  </defs>
  <sodipodi:namedview
     id="base"
     pagecolor="#ffffff"
     bordercolor="#666666"
     borderopacity="1.0"
     inkscape:pageopacity="0.0"
     inkscape:pageshadow="2"
     inkscape:zoom="1"
     inkscape:cx="402.45872"
     inkscape:cy="107.72264"
     inkscape:document-units="mm"
     inkscape:current-layer="g912"
     showgrid="false"
     inkscape:window-width="1920"
     inkscape:window-height="1001"
     inkscape:window-x="-9"
     inkscape:window-y="-9"
     inkscape:window-maximized="1" />
  <metadata
     id="metadata5">
    <rdf:RDF>
      <cc:Work
         rdf:about="">
        <dc:format>image/svg+xml</dc:format>
        <dc:type
           rdf:resource="http://purl.org/dc/dcmitype/StillImage" />
        <dc:title></dc:title>
      </cc:Work>
    </rdf:RDF>
  </metadata>
  <g
     inkscape:label="Layer 1"
     inkscape:groupmode="layer"
     id="layer1"
     transform="translate(-0.23150987,-153.0785)">
    <g
       id="g897"
       transform="translate(-3.7041667,30.1625)">
      <g
         id="g914"
         clip-path="url(#clipPath916)">
        <g
           inkscape:label="Clip"
           id="g912">
          <g
             id="g990">
            <g
               id="text839"
               style="font-style:normal;font-variant:normal;font-weight:normal;font-stretch:normal;font-size:27.47244644px;line-height:1.25;font-family:'Arial Black';-inkscape-font-specification:'Arial Black, ';letter-spacing:0px;word-spacing:0px;opacity:0.95999995;fill:#ed0150;fill-opacity:1;stroke:none;stroke-width:0.42925698"
               transform="scale(1.0124394,0.98771343)"
               aria-label="DynaBlocks">
              <path
                 id="path943"
                 style="fill:#ed0150;fill-opacity:1;stroke-width:0.42925698"
                 d="m 3.8873206,124.445 h 9.0278104 q 2.669442,0 4.305984,0.72437 1.649957,0.72437 2.723099,2.07922 1.073143,1.35484 1.556057,3.15235 0.482914,1.79752 0.482914,3.80966 0,3.15235 -0.724371,4.89621 -0.710957,1.73044 -1.985314,2.9109 -1.274356,1.16704 -2.736513,1.55606 -1.998728,0.53657 -3.621856,0.53657 H 3.8873206 Z m 6.0766691,4.45354 v 10.74484 h 1.4889853 q 1.904828,0 2.709684,-0.41584 0.804857,-0.42926 1.260943,-1.47557 0.456085,-1.05973 0.456085,-3.42064 0,-3.12553 -1.019485,-4.27916 -1.019485,-1.15363 -3.380399,-1.15363 z" />
              <path
                 id="path945"
                 style="fill:#5c9905;fill-opacity:1"
                 d="m 23.217298,129.86437 h 5.76814 l 2.937728,9.4839 2.723099,-9.4839 h 5.379126 l -5.647412,15.22521 q -0.965828,2.60237 -1.971899,3.51454 -1.421914,1.28777 -4.332813,1.28777 -1.180456,0 -3.648684,-0.32194 l -0.429257,-3.80966 q 1.180457,0.3756 2.629199,0.3756 0.965828,0 1.556057,-0.44267 0.603642,-0.44267 1.019485,-1.58288 z" />
              <path
                 id="path947"
                 style="fill:#3d4acc;fill-opacity:1"
                 d="m 41.594865,129.86437 h 5.084012 v 2.32067 q 1.140214,-1.42191 2.307256,-2.02556 1.167042,-0.61705 2.843828,-0.61705 2.267013,0 3.54137,1.35484 1.287771,1.34143 1.287771,4.15843 v 9.05464 h -5.486441 v -7.83394 q 0,-1.34143 -0.496329,-1.89142 -0.496328,-0.5634 -1.395085,-0.5634 -0.992657,0 -1.609713,0.7512 -0.617057,0.7512 -0.617057,2.69627 v 6.84129 h -5.459612 z" />
              <path
                 id="path949"
                 style="fill:#ff7e2a;fill-opacity:1"
                 d="m 64.922297,134.47888 -5.218155,-0.54998 q 0.295114,-1.36826 0.8451,-2.14629 0.5634,-0.79144 1.609714,-1.36825 0.751199,-0.41585 2.065799,-0.64389 1.314599,-0.22804 2.843827,-0.22804 2.454814,0 3.943799,0.2817 1.488985,0.26828 2.481642,1.14021 0.697542,0.60364 1.099971,1.71703 0.402428,1.09997 0.402428,2.10604 v 6.2913 q 0,1.00607 0.120728,1.58288 0.134143,0.5634 0.5634,1.44875 h -5.124255 q -0.308528,-0.54999 -0.402428,-0.83169 -0.0939,-0.29511 -0.1878,-0.91217 -1.073143,1.0329 -2.132871,1.47557 -1.448742,0.59023 -3.366984,0.59023 -2.548714,0 -3.876727,-1.18046 -1.3146,-1.18045 -1.3146,-2.9109 0,-1.62312 0.952414,-2.66944 0.952414,-1.04631 3.514542,-1.55605 3.07187,-0.61706 3.984041,-0.85852 0.912171,-0.25487 1.931656,-0.6573 0,-1.00607 -0.415842,-1.4085 -0.415843,-0.40243 -1.462157,-0.40243 -1.341428,0 -2.012142,0.42926 -0.523157,0.33536 -0.8451,1.26094 z m 4.735241,2.87066 q -1.126799,0.40243 -2.347499,0.71096 -1.663371,0.44267 -2.106042,0.87192 -0.456085,0.44268 -0.456085,1.00608 0,0.64388 0.442671,1.05972 0.456085,0.40243 1.328014,0.40243 0.912171,0 1.690199,-0.44267 0.791443,-0.44267 1.113385,-1.07314 0.335357,-0.64389 0.335357,-1.66337 z" />
              <path
                 id="path951"
                 style="fill:#c1cf09;fill-opacity:1"
                 d="m 78.671934,124.445 h 11.37531 q 2.843827,0 4.359641,1.4085 1.529228,1.4085 1.529228,3.48771 0,1.74386 -1.086557,2.99139 -0.724371,0.83168 -2.119456,1.3146 2.119456,0.50974 3.112113,1.75727 1.006071,1.23411 1.006071,3.11211 0,1.52923 -0.710957,2.74993 -0.710957,1.2207 -1.945071,1.93166 -0.764614,0.44267 -2.307256,0.64388 -2.052385,0.26829 -2.723099,0.26829 H 78.671934 Z m 6.130326,7.71321 h 2.642613 q 1.421914,0 1.971899,-0.48291 0.5634,-0.49633 0.5634,-1.42192 0,-0.85851 -0.5634,-1.34142 -0.549985,-0.48292 -1.931656,-0.48292 H 84.80226 Z m 0,7.72663 h 3.098699 q 1.569471,0 2.213356,-0.54999 0.643886,-0.5634 0.643886,-1.5024 0,-0.87193 -0.643886,-1.39508 -0.630471,-0.53657 -2.226771,-0.53657 H 84.80226 Z" />
              <path
                 id="path953"
                 style="fill:#38ce8c;fill-opacity:1"
                 d="m 99.839671,124.445 h 5.473029 v 19.66534 h -5.473029 z" />
              <path
                 id="path955"
                 style="fill:#a248a2;fill-opacity:1"
                 d="m 108.15653,137.0276 q 0,-3.25967 2.19994,-5.36572 2.19994,-2.11945 5.94252,-2.11945 4.27916,0 6.46569,2.48164 1.75727,1.99873 1.75727,4.92304 0,3.2865 -2.18653,5.39254 -2.17311,2.09263 -6.02301,2.09263 -3.43406,0 -5.55351,-1.74386 -2.60237,-2.1597 -2.60237,-5.66082 z m 5.47302,-0.0134 q 0,1.90483 0.76462,2.817 0.77803,0.91217 1.94507,0.91217 1.18045,0 1.93165,-0.89875 0.76462,-0.89876 0.76462,-2.88408 0,-1.85117 -0.76462,-2.74992 -0.76461,-0.91217 -1.89141,-0.91217 -1.19387,0 -1.9719,0.92558 -0.77803,0.91217 -0.77803,2.79017 z" />
              <path
                 id="path957"
                 style="fill:#99d8e6;fill-opacity:0.96862745"
                 d="m 137.80208,138.54341 5.19133,0.59023 q -0.42926,1.62313 -1.4085,2.817 -0.97924,1.18045 -2.50847,1.83775 -1.51582,0.6573 -3.86331,0.6573 -2.26702,0 -3.78283,-0.41584 -1.5024,-0.42926 -2.58896,-1.36826 -1.08655,-0.95241 -1.70361,-2.22677 -0.61706,-1.27435 -0.61706,-3.3804 0,-2.19994 0.7512,-3.66209 0.54999,-1.07315 1.5024,-1.91825 0.95241,-0.85851 1.95849,-1.27435 1.5963,-0.6573 4.09135,-0.6573 3.48771,0 5.31206,1.24753 1.83775,1.24752 2.57554,3.64868 l -5.13767,0.68413 q -0.24146,-0.91217 -0.88534,-1.36826 -0.63047,-0.4695 -1.70362,-0.4695 -1.35484,0 -2.19994,0.97924 -0.83168,0.96583 -0.83168,2.93773 0,1.75727 0.83168,2.66944 0.83169,0.91217 2.11946,0.91217 1.07314,0 1.79751,-0.54998 0.73779,-0.54999 1.09997,-1.6902 z" />
              <path
                 id="path959"
                 style="fill:#ed0150;fill-opacity:1;stroke-width:0.42925698"
                 d="m 145.52871,124.445 h 5.58034 v 10.1412 l 4.07794,-4.72183 h 6.72056 l -5.11084,4.99011 5.40595,9.25586 h -6.15715 l -2.88407,-5.71449 -2.05239,2.01214 v 3.70235 h -5.58034 z" />
              <path
                 id="path961"
                 style="fill:#5c9905;fill-opacity:1"
                 d="m 162.91362,140.16654 5.41937,-0.50974 q 0.33536,0.96582 0.939,1.38167 0.60364,0.41584 1.60971,0.41584 1.09997,0 1.70362,-0.4695 0.4695,-0.34877 0.4695,-0.87193 0,-0.59023 -0.61706,-0.91217 -0.44267,-0.22804 -2.3475,-0.5634 -2.84383,-0.49633 -3.95721,-0.91217 -1.09997,-0.42926 -1.86459,-1.43533 -0.7512,-1.00607 -0.7512,-2.29384 0,-1.4085 0.81827,-2.42799 0.81828,-1.01948 2.2536,-1.51581 1.43533,-0.50974 3.8499,-0.50974 2.54872,0 3.756,0.38901 1.2207,0.38902 2.02556,1.20729 0.81827,0.81827 1.35484,2.21335 l -5.17791,0.50975 q -0.20122,-0.68413 -0.67072,-1.00608 -0.64388,-0.42925 -1.55605,-0.42925 -0.92559,0 -1.35485,0.33536 -0.41584,0.32194 -0.41584,0.79144 0,0.52315 0.53657,0.79144 0.53657,0.26829 2.33409,0.48291 2.7231,0.30853 4.05111,0.85852 1.32801,0.54998 2.02556,1.56947 0.71095,1.01948 0.71095,2.24018 0,1.23412 -0.7512,2.40116 -0.73778,1.16704 -2.3475,1.86459 -1.5963,0.68412 -4.35964,0.68412 -3.90355,0 -5.56692,-1.11338 -1.64996,-1.11339 -2.11946,-3.16577 z" />
            </g>
            <circle
               r="2.4568453"
               cy="140.51785"
               cx="184.45239"
               id="path878"
               style="opacity:0.95999995;fill:#000000;fill-opacity:1;stroke:#000000;stroke-width:0.75200003;stroke-linecap:round;stroke-linejoin:round;stroke-miterlimit:4;stroke-dasharray:none;stroke-opacity:1;paint-order:stroke fill markers" />
            <g
               id="text882"
               style="font-style:normal;font-variant:normal;font-weight:normal;font-stretch:normal;font-size:13.30152035px;line-height:1.25;font-family:sans-serif;-inkscape-font-specification:'sans-serif, Normal';font-variant-ligatures:normal;font-variant-caps:normal;font-variant-numeric:normal;font-feature-settings:normal;text-align:start;letter-spacing:0px;word-spacing:0px;writing-mode:lr-tb;text-anchor:start;fill:#000000;fill-opacity:1;stroke:none;stroke-width:0.12810451"
               transform="scale(0.98436082,1.0158876)"
               aria-label="Beta">
              <path
                 id="path964"
                 style="font-style:normal;font-variant:normal;font-weight:normal;font-stretch:normal;font-family:Arial;-inkscape-font-specification:Arial;fill:#d0a2cf;fill-opacity:1;stroke-width:0.12810451"
                 d="m 194.14151,140.31883 v -9.5215 h 3.57219 q 1.09114,0 1.74712,0.29227 0.66248,0.28578 1.03269,0.8898 0.3767,0.59753 0.3767,1.25352 0,0.61051 -0.33124,1.14959 -0.33123,0.53907 -1.00021,0.87031 0.86382,0.2533 1.32496,0.86382 0.46763,0.61052 0.46763,1.44187 0,0.66897 -0.28577,1.24701 -0.27928,0.57155 -0.69496,0.88331 -0.41567,0.31175 -1.04567,0.47413 -0.62351,0.15587 -1.5328,0.15587 z m 1.26001,-5.52065 h 2.05888 q 0.83784,0 1.20155,-0.11041 0.48062,-0.14289 0.72094,-0.47413 0.2468,-0.33124 0.2468,-0.83134 0,-0.47413 -0.22732,-0.83135 -0.22732,-0.36371 -0.64949,-0.49361 -0.42217,-0.13639 -1.44836,-0.13639 h -1.903 z m 0,4.39704 h 2.37063 q 0.61052,0 0.85733,-0.0455 0.43516,-0.0779 0.72743,-0.25979 0.29227,-0.18186 0.48062,-0.52609 0.18835,-0.35072 0.18835,-0.80536 0,-0.53258 -0.27279,-0.92228 -0.27278,-0.39618 -0.7599,-0.55206 -0.48062,-0.16237 -1.3899,-0.16237 h -2.20177 z" />
              <path
                 id="path966"
                 style="font-style:normal;font-variant:normal;font-weight:normal;font-stretch:normal;font-family:Arial;-inkscape-font-specification:Arial;fill:#d0a2cf;fill-opacity:1;stroke-width:0.12810451"
                 d="m 207.65087,138.09758 1.20805,0.14938 q -0.28578,1.05867 -1.05867,1.64321 -0.77289,0.58454 -1.97444,0.58454 -1.51331,0 -2.40311,-0.92877 -0.8833,-0.93526 -0.8833,-2.61744 0,-1.74063 0.89629,-2.70187 0.8963,-0.96124 2.32517,-0.96124 1.38341,0 2.26022,0.94176 0.87681,0.94176 0.87681,2.64991 0,0.10392 -0.006,0.31175 h -5.14394 q 0.065,1.13661 0.64299,1.74063 0.57804,0.60403 1.44186,0.60403 0.643,0 1.09764,-0.33774 0.45464,-0.33773 0.72093,-1.07815 z m -3.83847,-1.89001 h 3.85146 q -0.0779,-0.87031 -0.44165,-1.30547 -0.55856,-0.67547 -1.44836,-0.67547 -0.80537,0 -1.35743,0.53908 -0.54557,0.53907 -0.60402,1.44186 z" />
              <path
                 id="path968"
                 style="font-style:normal;font-variant:normal;font-weight:normal;font-stretch:normal;font-family:Arial;-inkscape-font-specification:Arial;fill:#d0a2cf;fill-opacity:1;stroke-width:0.12810451"
                 d="m 212.88575,139.27316 0.16886,1.03268 q -0.49361,0.10392 -0.8833,0.10392 -0.6365,0 -0.98722,-0.20134 -0.35073,-0.20134 -0.49361,-0.52609 -0.14289,-0.33124 -0.14289,-1.38341 v -3.96837 h -0.85732 v -0.90928 h 0.85732 v -1.70816 l 1.16258,-0.70144 v 2.4096 h 1.17558 v 0.90928 h -1.17558 v 4.03332 q 0,0.50011 0.0585,0.643 0.065,0.14288 0.20134,0.22732 0.14289,0.0844 0.40268,0.0844 0.19485,0 0.5131,-0.0455 z" />
              <path
                 id="path970"
                 style="font-style:normal;font-variant:normal;font-weight:normal;font-stretch:normal;font-family:Arial;-inkscape-font-specification:Arial;fill:#d0a2cf;fill-opacity:1;stroke-width:0.12810451"
                 d="m 218.52331,139.468 q -0.64949,0.55207 -1.25352,0.77939 -0.59753,0.22732 -1.28598,0.22732 -1.13661,0 -1.74713,-0.55207 -0.61052,-0.55856 -0.61052,-1.42237 0,-0.50661 0.22732,-0.92228 0.23382,-0.42217 0.60403,-0.67547 0.3767,-0.2533 0.84433,-0.38319 0.34423,-0.0909 1.03918,-0.17537 1.41589,-0.16886 2.08486,-0.40268 0.006,-0.24031 0.006,-0.30526 0,-0.71444 -0.33124,-1.00671 -0.44815,-0.39618 -1.33145,-0.39618 -0.82485,0 -1.22104,0.29227 -0.38969,0.28577 -0.57805,1.01969 l -1.1431,-0.15587 q 0.15588,-0.73393 0.5131,-1.18207 0.35722,-0.45464 1.03269,-0.69495 0.67546,-0.24681 1.56526,-0.24681 0.88331,0 1.43537,0.20784 0.55207,0.20783 0.81186,0.52608 0.2598,0.31176 0.36372,0.79238 0.0584,0.29876 0.0584,1.07815 v 1.55877 q 0,1.63022 0.0714,2.06537 0.0779,0.42866 0.29877,0.82485 h -1.22104 q -0.18186,-0.36371 -0.23381,-0.85083 z m -0.0974,-2.61094 q -0.6365,0.2598 -1.90949,0.44165 -0.72094,0.10392 -1.0197,0.23382 -0.29876,0.1299 -0.46114,0.3832 -0.16237,0.2468 -0.16237,0.55206 0,0.46763 0.35072,0.77939 0.35722,0.31175 1.03919,0.31175 0.67546,0 1.20155,-0.29227 0.52608,-0.29876 0.77289,-0.81186 0.18835,-0.39619 0.18835,-1.16908 z" />
            </g>
          </g>
        </g>
      </g>
    </g>
  </g>
</svg>
