<?xml version="1.0" encoding="UTF-8" standalone="no"?>
<!-- Created with Inkscape (http://www.inkscape.org/) -->

<svg
   xmlns:dc="http://purl.org/dc/elements/1.1/"
   xmlns:cc="http://creativecommons.org/ns#"
   xmlns:rdf="http://www.w3.org/1999/02/22-rdf-syntax-ns#"
   xmlns:svg="http://www.w3.org/2000/svg"
   xmlns="http://www.w3.org/2000/svg"
   xmlns:sodipodi="http://sodipodi.sourceforge.net/DTD/sodipodi-0.dtd"
   xmlns:inkscape="http://www.inkscape.org/namespaces/inkscape"
   width="284.30676mm"
   height="43.592484mm"
   viewBox="0 0 284.30676 43.592484"
   version="1.1"
   id="svg939"
   inkscape:version="0.92.5 (2060ec1f9f, 2020-04-08)"
   sodipodi:docname="GoBlocks_2002.svg">
  <defs
     id="defs933" />
  <sodipodi:namedview
     id="base"
     pagecolor="#ffffff"
     bordercolor="#666666"
     borderopacity="1.0"
     inkscape:pageopacity="0.0"
     inkscape:pageshadow="2"
     inkscape:zoom="0.74039625"
     inkscape:cx="937.54088"
     inkscape:cy="36.16225"
     inkscape:document-units="mm"
     inkscape:current-layer="layer1"
     showgrid="false"
     inkscape:window-width="1920"
     inkscape:window-height="1001"
     inkscape:window-x="-9"
     inkscape:window-y="-9"
     inkscape:window-maximized="1" />
  <metadata
     id="metadata936">
    <rdf:RDF>
      <cc:Work
         rdf:about="">
        <dc:format>image/svg+xml</dc:format>
        <dc:type
           rdf:resource="http://purl.org/dc/dcmitype/StillImage" />
        <dc:title></dc:title>
      </cc:Work>
    </rdf:RDF>
  </metadata>
  <g
     inkscape:label="Layer 1"
     inkscape:groupmode="layer"
     id="layer1"
     transform="translate(20.608243,-92.255463)">
    <g
       id="g1565">
      <g
         transform="matrix(3.5301302,0,0,3.3907147,-199.11974,-539.98015)"
         id="text1508"
         style="font-style:normal;font-variant:normal;font-weight:normal;font-stretch:normal;font-size:16.93333244px;line-height:1.25;font-family:Calibri;-inkscape-font-specification:Calibri;letter-spacing:0px;word-spacing:0px;fill:#000000;fill-opacity:1;stroke:none;stroke-width:0.26458332"
         aria-label="GoBlocks">
        <path
           inkscape:connector-curvature="0"
           id="path1518"
           style="font-style:normal;font-variant:normal;font-weight:bold;font-stretch:normal;font-size:14.11111069px;font-family:Arial;-inkscape-font-specification:'Arial Bold';fill:#037f21;fill-opacity:1;stroke-width:0.2506367"
           d="m 55.100066,194.25642 v -1.70188 h 3.944722 v 4.02387 q -0.575015,0.62012 -1.669397,1.09554 -1.088199,0.46853 -2.207313,0.46853 -1.422078,0 -2.479362,-0.66145 -1.057285,-0.66835 -1.589018,-1.9017 -0.531734,-1.24023 -0.531734,-2.69406 0,-1.57785 0.593563,-2.80431 0.593564,-1.22645 1.737409,-1.88102 0.871796,-0.50298 2.170215,-0.50298 1.687945,0 2.633936,0.79237 0.952175,0.78548 1.224224,2.1773 l -1.817787,0.37896 q -0.191671,-0.74414 -0.723404,-1.17133 -0.525552,-0.43409 -1.316969,-0.43409 -1.199492,0 -1.910531,0.8475 -0.704857,0.84749 -0.704857,2.51492 0,1.79834 0.717222,2.70095 0.717223,0.89573 1.879617,0.89573 0.575014,0 1.150029,-0.24805 0.581197,-0.25494 0.995455,-0.61323 v -1.28157 z" />
        <path
           inkscape:connector-curvature="0"
           id="path1520"
           style="font-style:normal;font-variant:normal;font-weight:bold;font-stretch:normal;font-size:14.11111069px;font-family:Arial;-inkscape-font-specification:'Arial Bold';fill:#037f21;fill-opacity:1;stroke-width:0.2506367"
           d="m 60.312292,194.20819 q 0,-0.96463 0.426623,-1.86725 0.426624,-0.90261 1.205675,-1.37803 0.785235,-0.47543 1.749775,-0.47543 1.49009,0 2.442265,1.08176 0.952174,1.07487 0.952174,2.72163 0,1.66053 -0.96454,2.75607 -0.958357,1.08865 -2.417533,1.08865 -0.90271,0 -1.725042,-0.45475 -0.81615,-0.45475 -1.242774,-1.3298 -0.426623,-0.88195 -0.426623,-2.14285 z m 1.780689,0.10335 q 0,1.08865 0.463721,1.66742 0.463722,0.57878 1.143846,0.57878 0.680125,0 1.137663,-0.57878 0.463721,-0.57877 0.463721,-1.6812 0,-1.07487 -0.463721,-1.65365 -0.457538,-0.57877 -1.137663,-0.57877 -0.680124,0 -1.143846,0.57877 -0.463721,0.57878 -0.463721,1.66743 z" />
        <path
           inkscape:connector-curvature="0"
           id="path1522"
           style="font-style:normal;font-variant:normal;font-weight:bold;font-stretch:normal;font-family:Calibri;-inkscape-font-specification:'Calibri Bold';fill:#081e64;fill-opacity:1"
           d="m 76.511829,194.76216 q 0,0.57051 -0.157096,1.03353 -0.157097,0.46302 -0.438216,0.81855 -0.272852,0.35553 -0.661459,0.61185 -0.380338,0.25631 -0.843359,0.42168 -0.463021,0.16536 -0.992187,0.24805 -0.520899,0.0744 -1.165821,0.0744 h -2.84427 q -0.272852,0 -0.463021,-0.1571 -0.181901,-0.16536 -0.181901,-0.52916 v -9.32656 q 0,-0.36381 0.181901,-0.5209 0.190169,-0.16537 0.463021,-0.16537 h 2.687174 q 0.983919,0 1.661914,0.16537 0.686263,0.16536 1.149284,0.50436 0.471289,0.33073 0.719336,0.84336 0.248047,0.51263 0.248047,1.20716 0,0.38861 -0.09922,0.73587 -0.09922,0.339 -0.289388,0.62012 -0.190169,0.28112 -0.471289,0.49609 -0.272852,0.21498 -0.628386,0.34727 0.454753,0.0827 0.835091,0.28939 0.388607,0.2067 0.669727,0.53743 0.289388,0.32246 0.454753,0.76068 0.165364,0.43821 0.165364,0.98392 z m -2.811198,-4.50619 q 0,-0.32246 -0.09922,-0.57877 -0.09922,-0.25632 -0.297657,-0.42168 -0.198437,-0.17364 -0.504362,-0.26459 -0.297656,-0.0909 -0.802018,-0.0909 H 70.8977 v 2.77813 h 1.215429 q 0.47129,0 0.752409,-0.10749 0.28112,-0.11575 0.463021,-0.30592 0.190169,-0.19844 0.28112,-0.45476 0.09095,-0.26458 0.09095,-0.55397 z m 0.553972,4.5806 q 0,-0.37207 -0.124024,-0.66146 -0.124023,-0.29765 -0.363802,-0.49609 -0.239778,-0.19844 -0.611849,-0.30593 -0.37207,-0.10748 -0.967382,-0.10748 h -1.289844 v 3.04271 h 1.570963 q 0.454753,0 0.760677,-0.091 0.314193,-0.0992 0.537435,-0.28112 0.231511,-0.19017 0.355534,-0.46302 0.132292,-0.28112 0.132292,-0.63666 z" />
        <path
           inkscape:connector-curvature="0"
           id="path1524"
           style="font-style:normal;font-variant:normal;font-weight:bold;font-stretch:normal;font-family:Calibri;-inkscape-font-specification:'Calibri Bold';fill:#081e64;fill-opacity:1"
           d="m 80.215995,197.68911 q 0,0.0827 -0.04961,0.14883 -0.04961,0.0579 -0.173633,0.0992 -0.115755,0.0413 -0.314193,0.0579 -0.198437,0.0248 -0.504362,0.0248 -0.305924,0 -0.504362,-0.0248 -0.198437,-0.0165 -0.32246,-0.0579 -0.115756,-0.0413 -0.165365,-0.0992 -0.04961,-0.0661 -0.04961,-0.14883 v -10.87272 q 0,-0.0827 0.04961,-0.14883 0.04961,-0.0661 0.165365,-0.10749 0.124023,-0.0496 0.32246,-0.0744 0.198438,-0.0248 0.504362,-0.0248 0.305925,0 0.504362,0.0248 0.198438,0.0248 0.314193,0.0744 0.124023,0.0413 0.173633,0.10749 0.04961,0.0661 0.04961,0.14883 z" />
        <path
           inkscape:connector-curvature="0"
           id="path1526"
           style="font-style:normal;font-variant:normal;font-weight:bold;font-stretch:normal;font-family:Calibri;-inkscape-font-specification:'Calibri Bold';fill:#081e64;fill-opacity:1"
           d="m 89.757533,193.92707 q 0,0.94257 -0.248047,1.71979 -0.248047,0.77721 -0.752409,1.33945 -0.504362,0.56224 -1.265039,0.86816 -0.760677,0.30593 -1.777669,0.30593 -0.98392,0 -1.711524,-0.27285 -0.727604,-0.27285 -1.207161,-0.79375 -0.479557,-0.5209 -0.711068,-1.28158 -0.23151,-0.76067 -0.23151,-1.73633 0,-0.94257 0.248047,-1.71979 0.256315,-0.78548 0.760677,-1.33945 0.504362,-0.56224 1.256771,-0.86816 0.760677,-0.30593 1.777669,-0.30593 0.992187,0 1.719791,0.27285 0.727604,0.26459 1.198893,0.78548 0.479558,0.5209 0.711068,1.28158 0.231511,0.76068 0.231511,1.7446 z m -2.141472,0.0827 q 0,-0.5457 -0.09095,-1.00046 -0.08268,-0.46302 -0.289388,-0.80202 -0.206706,-0.33899 -0.553972,-0.52916 -0.338997,-0.19017 -0.859895,-0.19017 -0.463021,0 -0.810287,0.17363 -0.347265,0.16537 -0.570508,0.4961 -0.223242,0.32246 -0.338997,0.78548 -0.107487,0.45475 -0.107487,1.04179 0,0.54571 0.09095,1.00873 0.09095,0.45475 0.289388,0.79375 0.206705,0.339 0.553971,0.52916 0.347266,0.18191 0.859896,0.18191 0.471289,0 0.818554,-0.16537 0.347266,-0.17363 0.570508,-0.49609 0.223242,-0.32246 0.330729,-0.77722 0.107487,-0.46302 0.107488,-1.05006 z" />
        <path
           inkscape:connector-curvature="0"
           id="path1528"
           style="font-style:normal;font-variant:normal;font-weight:bold;font-stretch:normal;font-family:Calibri;-inkscape-font-specification:'Calibri Bold';fill:#081e64;fill-opacity:1"
           d="m 96.975695,196.51502 q 0,0.21498 -0.01654,0.3638 -0.0083,0.14056 -0.03307,0.23978 -0.01654,0.0992 -0.04961,0.16537 -0.02481,0.0579 -0.124024,0.15709 -0.09922,0.091 -0.338997,0.23151 -0.239779,0.1323 -0.545703,0.23978 -0.305925,0.10749 -0.669727,0.17364 -0.355534,0.0661 -0.735872,0.0661 -0.851628,0 -1.513086,-0.26458 -0.65319,-0.26459 -1.099674,-0.77722 -0.446485,-0.52089 -0.677995,-1.26503 -0.223242,-0.74415 -0.223242,-1.70326 0,-1.10794 0.272851,-1.90996 0.28112,-0.81029 0.777214,-1.33945 0.496093,-0.52917 1.174088,-0.78549 0.677995,-0.25631 1.488281,-0.25631 0.33073,0 0.644922,0.0579 0.322461,0.0579 0.595313,0.15709 0.281119,0.0992 0.496093,0.22325 0.223243,0.12402 0.314193,0.21497 0.09095,0.0909 0.124024,0.1571 0.04134,0.0579 0.05788,0.15709 0.02481,0.0992 0.03307,0.24805 0.01654,0.14056 0.01654,0.34726 0,0.47956 -0.08268,0.678 -0.08268,0.19017 -0.214974,0.19017 -0.14056,0 -0.297656,-0.11576 -0.157096,-0.11575 -0.37207,-0.25631 -0.214974,-0.14056 -0.51263,-0.25632 -0.297657,-0.11575 -0.711068,-0.11575 -0.810286,0 -1.240234,0.62838 -0.429948,0.62012 -0.429948,1.82728 0,0.59531 0.107487,1.05007 0.107487,0.45475 0.314192,0.76067 0.214974,0.30593 0.529167,0.46302 0.322461,0.14883 0.744141,0.14883 0.429948,0 0.735872,-0.12402 0.314193,-0.13229 0.545703,-0.28939 0.23151,-0.15709 0.388607,-0.28112 0.157096,-0.13229 0.264583,-0.13229 0.07441,0 0.124024,0.0413 0.04961,0.0413 0.07441,0.1571 0.03307,0.10748 0.04961,0.28112 0.01654,0.17363 0.01654,0.44648 z" />
        <path
           inkscape:connector-curvature="0"
           id="path1530"
           style="font-style:normal;font-variant:normal;font-weight:bold;font-stretch:normal;font-family:Calibri;-inkscape-font-specification:'Calibri Bold';fill:#081e64;fill-opacity:1"
           d="m 105.32661,197.69738 q 0,0.0827 -0.0496,0.14883 -0.0413,0.0579 -0.16537,0.0992 -0.11575,0.0331 -0.32246,0.0496 -0.20671,0.0248 -0.53743,0.0248 -0.339,0 -0.55398,-0.0165 -0.2067,-0.0165 -0.34726,-0.0496 -0.13229,-0.0413 -0.20671,-0.10748 -0.0744,-0.0662 -0.13229,-0.17364 l -2.45566,-3.88606 v 3.9026 q 0,0.0827 -0.0496,0.14883 -0.0496,0.0579 -0.17364,0.0992 -0.11575,0.0413 -0.31419,0.0579 -0.198435,0.0248 -0.50436,0.0248 -0.305924,0 -0.504362,-0.0248 -0.198437,-0.0165 -0.322461,-0.0579 -0.115755,-0.0413 -0.165364,-0.0992 -0.04961,-0.0661 -0.04961,-0.14883 v -10.87272 q 0,-0.0827 0.04961,-0.14883 0.04961,-0.0661 0.165364,-0.10749 0.124024,-0.0496 0.322461,-0.0744 0.198438,-0.0248 0.504362,-0.0248 0.305925,0 0.50436,0.0248 0.19844,0.0248 0.31419,0.0744 0.12403,0.0413 0.17364,0.10749 0.0496,0.0661 0.0496,0.14883 v 6.47402 l 2.18281,-2.93522 q 0.0661,-0.0992 0.14883,-0.17363 0.0827,-0.0744 0.21497,-0.11576 0.14056,-0.0413 0.339,-0.0579 0.2067,-0.0248 0.5209,-0.0248 0.30592,0 0.51263,0.0248 0.21497,0.0165 0.33899,0.0579 0.1323,0.0413 0.18191,0.10749 0.0496,0.0579 0.0496,0.14883 0,0.12402 -0.0662,0.26458 -0.0579,0.14056 -0.1819,0.29766 l -2.15801,2.44739 2.49701,3.86127 q 0.0992,0.16536 0.14056,0.28938 0.0496,0.11576 0.0496,0.21498 z" />
        <path
           inkscape:connector-curvature="0"
           id="path1532"
           style="font-style:normal;font-variant:normal;font-weight:bold;font-stretch:normal;font-family:Calibri;-inkscape-font-specification:'Calibri Bold';fill:#081e64;fill-opacity:1"
           d="m 111.66834,195.60552 q 0,0.62838 -0.23978,1.10794 -0.23151,0.47956 -0.66146,0.80202 -0.42995,0.32246 -1.01699,0.47955 -0.58705,0.16537 -1.27331,0.16537 -0.41341,0 -0.79375,-0.0662 -0.37207,-0.0579 -0.66972,-0.14882 -0.29766,-0.0992 -0.4961,-0.19844 -0.19844,-0.0992 -0.28939,-0.1819 -0.091,-0.0909 -0.14056,-0.27285 -0.0496,-0.19017 -0.0496,-0.55398 0,-0.23977 0.0165,-0.38033 0.0165,-0.14883 0.0496,-0.23151 0.0331,-0.091 0.0827,-0.11576 0.0496,-0.0331 0.12403,-0.0331 0.091,0 0.26458,0.10748 0.1819,0.0992 0.44648,0.22325 0.26459,0.12402 0.61185,0.23151 0.35554,0.10748 0.80202,0.10748 0.28112,0 0.49609,-0.0579 0.22325,-0.0579 0.38034,-0.16537 0.16537,-0.10749 0.24805,-0.27285 0.0827,-0.16536 0.0827,-0.38034 0,-0.24805 -0.15709,-0.42168 -0.14883,-0.1819 -0.40515,-0.31419 -0.24804,-0.13229 -0.57051,-0.24805 -0.31419,-0.11575 -0.65319,-0.25631 -0.33072,-0.14056 -0.65319,-0.32246 -0.31419,-0.18191 -0.5705,-0.44649 -0.24805,-0.26458 -0.40515,-0.63665 -0.14882,-0.37207 -0.14882,-0.89297 0,-0.52917 0.2067,-0.96738 0.20671,-0.44649 0.59531,-0.76068 0.38861,-0.31419 0.94258,-0.48783 0.56224,-0.17363 1.25677,-0.17363 0.34727,0 0.66973,0.0496 0.33073,0.0496 0.59531,0.12402 0.26458,0.0744 0.44649,0.16537 0.1819,0.0827 0.25631,0.14883 0.0827,0.0579 0.11576,0.12402 0.0331,0.0579 0.0496,0.14883 0.0165,0.0827 0.0248,0.21497 0.0165,0.12403 0.0165,0.31419 0,0.22325 -0.0165,0.36381 -0.008,0.14056 -0.0413,0.22324 -0.0248,0.0827 -0.0744,0.11575 -0.0496,0.0248 -0.11575,0.0248 -0.0744,0 -0.23151,-0.0827 -0.1571,-0.0909 -0.39688,-0.19017 -0.23151,-0.0992 -0.5457,-0.1819 -0.30592,-0.0909 -0.7028,-0.0909 -0.28112,0 -0.48782,0.0579 -0.20671,0.0579 -0.339,0.16537 -0.13229,0.10749 -0.19844,0.25631 -0.0661,0.14056 -0.0661,0.30593 0,0.25631 0.15709,0.42995 0.1571,0.17363 0.41341,0.30592 0.25632,0.13229 0.57878,0.24805 0.33073,0.11575 0.66146,0.25631 0.33899,0.13229 0.66146,0.31419 0.33073,0.18191 0.58704,0.44649 0.25632,0.26458 0.41341,0.63665 0.1571,0.3638 0.1571,0.86817 z" />
      </g>
      <g
         transform="matrix(1.7062465,0,0,1.6512007,-175.27874,-175.40076)"
         id="text1537"
         style="font-style:normal;font-variant:normal;font-weight:bold;font-stretch:normal;font-size:16.93333244px;line-height:1.25;font-family:Calibri;-inkscape-font-specification:'Calibri Bold';letter-spacing:0px;word-spacing:0px;fill:#004d6d;fill-opacity:1;stroke:none;stroke-width:0.26458332"
         aria-label="alpha">
        <path
           inkscape:connector-curvature="0"
           id="path1539"
           style="font-style:normal;font-variant:normal;font-weight:bold;font-stretch:normal;font-family:Calibri;-inkscape-font-specification:'Calibri Bold';fill:#004d6d;fill-opacity:1;stroke-width:0.26458332"
           d="m 226.55183,185.24071 q 0,0.11575 -0.0827,0.1819 -0.0827,0.0662 -0.26458,0.091 -0.17364,0.0331 -0.5209,0.0331 -0.37207,0 -0.54571,-0.0331 -0.16536,-0.0248 -0.23977,-0.091 -0.0661,-0.0661 -0.0661,-0.1819 v -0.58704 q -0.45475,0.48782 -1.0418,0.76067 -0.57877,0.27285 -1.28984,0.27285 -0.58704,0 -1.08314,-0.15709 -0.48782,-0.14883 -0.85163,-0.44649 -0.35553,-0.30592 -0.55397,-0.75241 -0.19843,-0.44648 -0.19843,-1.04179 0,-0.64492 0.24804,-1.11621 0.25632,-0.47956 0.75241,-0.78549 0.50436,-0.31419 1.2485,-0.46302 0.74414,-0.14882 1.72806,-0.14882 h 0.71934 v -0.44649 q 0,-0.34726 -0.0744,-0.60358 -0.0661,-0.26458 -0.23152,-0.43822 -0.15709,-0.17363 -0.42994,-0.25631 -0.26459,-0.0827 -0.66146,-0.0827 -0.5209,0 -0.93431,0.11575 -0.40514,0.11576 -0.71934,0.25632 -0.31419,0.14056 -0.52916,0.25631 -0.20671,0.11576 -0.339,0.11576 -0.0909,0 -0.16537,-0.0579 -0.0661,-0.0579 -0.11575,-0.16536 -0.0413,-0.10749 -0.0662,-0.26459 -0.0248,-0.15709 -0.0248,-0.34726 0,-0.25632 0.0413,-0.40515 0.0413,-0.14882 0.1571,-0.26458 0.11575,-0.12402 0.40514,-0.26458 0.28939,-0.14883 0.67799,-0.27285 0.38861,-0.12403 0.84336,-0.19844 0.46302,-0.0827 0.95085,-0.0827 0.86816,0 1.48001,0.17363 0.62012,0.16536 1.01699,0.5209 0.39688,0.34726 0.57878,0.90123 0.1819,0.55398 0.1819,1.31465 z m -2.04225,-3.15846 h -0.79375 q -0.50436,0 -0.8599,0.0744 -0.35553,0.0744 -0.57877,0.22324 -0.22324,0.14883 -0.33073,0.3638 -0.0992,0.20671 -0.0992,0.47956 0,0.46302 0.28939,0.72761 0.29765,0.26458 0.81855,0.26458 0.43822,0 0.80202,-0.22324 0.37207,-0.22325 0.75241,-0.65319 z" />
        <path
           inkscape:connector-curvature="0"
           id="path1541"
           style="font-style:normal;font-variant:normal;font-weight:bold;font-stretch:normal;font-family:Calibri;-inkscape-font-specification:'Calibri Bold';fill:#004d6d;fill-opacity:1;stroke-width:0.26458332"
           d="m 230.71902,185.2159 q 0,0.0827 -0.0496,0.14883 -0.0496,0.0579 -0.17363,0.0992 -0.11576,0.0413 -0.3142,0.0579 -0.19843,0.0248 -0.50436,0.0248 -0.30592,0 -0.50436,-0.0248 -0.19844,-0.0165 -0.32246,-0.0579 -0.11576,-0.0413 -0.16536,-0.0992 -0.0496,-0.0661 -0.0496,-0.14883 v -10.87272 q 0,-0.0827 0.0496,-0.14882 0.0496,-0.0661 0.16536,-0.10749 0.12402,-0.0496 0.32246,-0.0744 0.19844,-0.0248 0.50436,-0.0248 0.30593,0 0.50436,0.0248 0.19844,0.0248 0.3142,0.0744 0.12402,0.0413 0.17363,0.10749 0.0496,0.0661 0.0496,0.14882 z" />
        <path
           inkscape:connector-curvature="0"
           id="path1543"
           style="font-style:normal;font-variant:normal;font-weight:bold;font-stretch:normal;font-family:Calibri;-inkscape-font-specification:'Calibri Bold';fill:#004d6d;fill-opacity:1;stroke-width:0.26458332"
           d="m 240.22748,181.42079 q 0,0.98392 -0.21497,1.77767 -0.20671,0.78548 -0.61185,1.33945 -0.40514,0.55397 -1.00872,0.85163 -0.60358,0.29765 -1.3808,0.29765 -0.32246,0 -0.59531,-0.0661 -0.26458,-0.0579 -0.5209,-0.1819 -0.24805,-0.13229 -0.49609,-0.32246 -0.24805,-0.19017 -0.51263,-0.44649 v 3.47266 q 0,0.0827 -0.0496,0.14883 -0.0496,0.0661 -0.17364,0.10748 -0.11575,0.0496 -0.31419,0.0744 -0.19844,0.0248 -0.50436,0.0248 -0.30592,0 -0.50436,-0.0248 -0.19844,-0.0248 -0.32246,-0.0744 -0.11576,-0.0413 -0.16537,-0.10748 -0.0496,-0.0661 -0.0496,-0.14883 v -10.30222 q 0,-0.0827 0.0413,-0.14056 0.0413,-0.0661 0.14056,-0.10748 0.10749,-0.0413 0.27286,-0.0579 0.17363,-0.0248 0.42994,-0.0248 0.24805,0 0.41342,0.0248 0.17363,0.0165 0.27285,0.0579 0.10748,0.0413 0.14882,0.10748 0.0413,0.0579 0.0413,0.14056 v 0.86817 q 0.32246,-0.33073 0.62838,-0.57878 0.31419,-0.25631 0.63666,-0.42168 0.32246,-0.17363 0.66145,-0.25631 0.34727,-0.0827 0.73588,-0.0827 0.81028,0 1.38079,0.32246 0.57051,0.31419 0.92604,0.86816 0.3638,0.55397 0.52917,1.28984 0.16536,0.73588 0.16536,1.57097 z m -2.16627,0.14883 q 0,-0.47129 -0.0744,-0.90124 -0.0661,-0.43822 -0.23978,-0.77721 -0.16536,-0.339 -0.44648,-0.53744 -0.27285,-0.20671 -0.68626,-0.20671 -0.20671,0 -0.41341,0.0661 -0.19844,0.0579 -0.41342,0.19844 -0.2067,0.14056 -0.42994,0.3638 -0.22325,0.22324 -0.47129,0.55397 v 2.43086 q 0.43821,0.55397 0.83509,0.8599 0.39687,0.29765 0.82682,0.29765 0.40514,0 0.68626,-0.2067 0.28939,-0.20671 0.47129,-0.53744 0.1819,-0.339 0.26459,-0.76067 0.0909,-0.42168 0.0909,-0.84336 z" />
        <path
           inkscape:connector-curvature="0"
           id="path1545"
           style="font-style:normal;font-variant:normal;font-weight:bold;font-stretch:normal;font-family:Calibri;-inkscape-font-specification:'Calibri Bold';fill:#004d6d;fill-opacity:1;stroke-width:0.26458332"
           d="m 248.9422,185.2159 q 0,0.0827 -0.0496,0.14883 -0.0496,0.0579 -0.16537,0.0992 -0.11575,0.0413 -0.32246,0.0579 -0.19844,0.0248 -0.49609,0.0248 -0.30593,0 -0.51263,-0.0248 -0.19844,-0.0165 -0.3142,-0.0579 -0.11575,-0.0413 -0.16536,-0.0992 -0.0496,-0.0661 -0.0496,-0.14883 v -4.20852 q 0,-0.53744 -0.0827,-0.84336 -0.0744,-0.30593 -0.22324,-0.5209 -0.14883,-0.22324 -0.38861,-0.339 -0.23151,-0.12402 -0.5457,-0.12402 -0.39688,0 -0.80202,0.28939 -0.40515,0.28938 -0.84336,0.84336 v 4.90305 q 0,0.0827 -0.0496,0.14883 -0.0496,0.0579 -0.17363,0.0992 -0.11576,0.0413 -0.3142,0.0579 -0.19843,0.0248 -0.50436,0.0248 -0.30592,0 -0.50436,-0.0248 -0.19844,-0.0165 -0.32246,-0.0579 -0.11576,-0.0413 -0.16537,-0.0992 -0.0496,-0.0661 -0.0496,-0.14883 v -10.87272 q 0,-0.0827 0.0496,-0.14882 0.0496,-0.0661 0.16537,-0.10749 0.12402,-0.0496 0.32246,-0.0744 0.19844,-0.0248 0.50436,-0.0248 0.30593,0 0.50436,0.0248 0.19844,0.0248 0.3142,0.0744 0.12402,0.0413 0.17363,0.10749 0.0496,0.0661 0.0496,0.14882 v 4.07624 q 0.53743,-0.52917 1.0914,-0.78548 0.56224,-0.26458 1.16582,-0.26458 0.75241,0 1.26504,0.24804 0.5209,0.24805 0.83509,0.678 0.32247,0.42995 0.46303,1.00872 0.14056,0.57051 0.14056,1.38906 z" />
        <path
           inkscape:connector-curvature="0"
           id="path1547"
           style="font-style:normal;font-variant:normal;font-weight:bold;font-stretch:normal;font-family:Calibri;-inkscape-font-specification:'Calibri Bold';fill:#004d6d;fill-opacity:1;stroke-width:0.26458332"
           d="m 257.27657,185.24071 q 0,0.11575 -0.0827,0.1819 -0.0827,0.0662 -0.26458,0.091 -0.17364,0.0331 -0.5209,0.0331 -0.37207,0 -0.54571,-0.0331 -0.16536,-0.0248 -0.23977,-0.091 -0.0661,-0.0661 -0.0661,-0.1819 v -0.58704 q -0.45475,0.48782 -1.0418,0.76067 -0.57877,0.27285 -1.28984,0.27285 -0.58705,0 -1.08314,-0.15709 -0.48782,-0.14883 -0.85163,-0.44649 -0.35553,-0.30592 -0.55397,-0.75241 -0.19844,-0.44648 -0.19844,-1.04179 0,-0.64492 0.24805,-1.11621 0.25632,-0.47956 0.75241,-0.78549 0.50436,-0.31419 1.2485,-0.46302 0.74414,-0.14882 1.72806,-0.14882 h 0.71934 v -0.44649 q 0,-0.34726 -0.0744,-0.60358 -0.0661,-0.26458 -0.23151,-0.43822 -0.15709,-0.17363 -0.42994,-0.25631 -0.26459,-0.0827 -0.66146,-0.0827 -0.5209,0 -0.93431,0.11575 -0.40515,0.11576 -0.71934,0.25632 -0.31419,0.14056 -0.52916,0.25631 -0.20671,0.11576 -0.339,0.11576 -0.0909,0 -0.16537,-0.0579 -0.0661,-0.0579 -0.11575,-0.16536 -0.0413,-0.10749 -0.0662,-0.26459 -0.0248,-0.15709 -0.0248,-0.34726 0,-0.25632 0.0413,-0.40515 0.0413,-0.14882 0.1571,-0.26458 0.11575,-0.12402 0.40514,-0.26458 0.28939,-0.14883 0.67799,-0.27285 0.38861,-0.12403 0.84336,-0.19844 0.46302,-0.0827 0.95085,-0.0827 0.86816,0 1.48001,0.17363 0.62012,0.16536 1.01699,0.5209 0.39688,0.34726 0.57878,0.90123 0.1819,0.55398 0.1819,1.31465 z m -2.04225,-3.15846 h -0.79375 q -0.50436,0 -0.8599,0.0744 -0.35553,0.0744 -0.57877,0.22324 -0.22325,0.14883 -0.33073,0.3638 -0.0992,0.20671 -0.0992,0.47956 0,0.46302 0.28939,0.72761 0.29765,0.26458 0.81855,0.26458 0.43822,0 0.80202,-0.22324 0.37207,-0.22325 0.75241,-0.65319 z" />
      </g>
    </g>
  </g>
</svg>
