<?xml version="1.0" encoding="utf-8"?>
<!-- Generator: Adobe Illustrator 23.0.1, SVG Export Plug-In . SVG Version: 6.00 Build 0)  -->
<!DOCTYPE svg PUBLIC "-//W3C//DTD SVG 1.1//EN" "http://www.w3.org/Graphics/SVG/1.1/DTD/svg11.dtd" [
	<!ENTITY ns_extend "http://ns.adobe.com/Extensibility/1.0/">
	<!ENTITY ns_ai "http://ns.adobe.com/AdobeIllustrator/10.0/">
	<!ENTITY ns_graphs "http://ns.adobe.com/Graphs/1.0/">
	<!ENTITY ns_vars "http://ns.adobe.com/Variables/1.0/">
	<!ENTITY ns_imrep "http://ns.adobe.com/ImageReplacement/1.0/">
	<!ENTITY ns_sfw "http://ns.adobe.com/SaveForWeb/1.0/">
	<!ENTITY ns_custom "http://ns.adobe.com/GenericCustomNamespace/1.0/">
	<!ENTITY ns_adobe_xpath "http://ns.adobe.com/XPath/1.0/">
]>
<svg version="1.1"
	 id="Layer_2" xmlns:x="&ns_extend;" xmlns:i="&ns_ai;" xmlns:graph="&ns_graphs;" xmlns:cc="http://creativecommons.org/ns#" xmlns:dc="http://purl.org/dc/elements/1.1/" xmlns:rdf="http://www.w3.org/1999/02/22-rdf-syntax-ns#" xmlns:svg="http://www.w3.org/2000/svg"
	 xmlns="http://www.w3.org/2000/svg" xmlns:xlink="http://www.w3.org/1999/xlink" x="0px" y="0px" viewBox="0 0 8137.4 1903.7"
	 style="enable-background:new 0 0 8137.4 1903.7;" xml:space="preserve">
<style type="text/css">
	.st0{fill-rule:evenodd;clip-rule:evenodd;fill:url(#SVGID_1_);}
	.st1{fill-rule:evenodd;clip-rule:evenodd;fill:url(#SVGID_2_);}
	.st2{fill-rule:evenodd;clip-rule:evenodd;fill:url(#SVGID_3_);}
	.st3{fill-rule:evenodd;clip-rule:evenodd;fill:url(#SVGID_4_);}
	.st4{opacity:0.2;fill-rule:evenodd;clip-rule:evenodd;enable-background:new    ;}
	.st5{opacity:0.12;fill-rule:evenodd;clip-rule:evenodd;enable-background:new    ;}
	.st6{opacity:0.25;fill-rule:evenodd;clip-rule:evenodd;fill:#FFFFFF;enable-background:new    ;}
	.st7{fill-rule:evenodd;clip-rule:evenodd;fill:#808285;}
</style>
<metadata>
	<sfw  xmlns="&ns_sfw;">
		<slices></slices>
		<sliceSourceBounds  bottomLeftOrigin="true" height="1903.7" width="8137.4" x="54.6" y="343.3"></sliceSourceBounds>
	</sfw>
</metadata>
<g>
	
		<linearGradient id="SVGID_1_" gradientUnits="userSpaceOnUse" x1="2891.0461" y1="1504.5298" x2="2784.3533" y2="1449.4558" gradientTransform="matrix(11.64 0 0 -22.55 -32777 34043.1641)">
		<stop  offset="0" style="stop-color:#00A0FF"/>
		<stop  offset="6.569999e-03" style="stop-color:#00A1FF"/>
		<stop  offset="0.2601" style="stop-color:#00BEFF"/>
		<stop  offset="0.5122" style="stop-color:#00D2FF"/>
		<stop  offset="0.7604" style="stop-color:#00DFFF"/>
		<stop  offset="1" style="stop-color:#00E3FF"/>
	</linearGradient>
	<path class="st0" d="M33.7,29.2C12.3,52.2,0,87.6,0,133.6v1636.2c0,46,12.3,81.4,34.5,103.6l5.8,4.9l916.8-916.8v-20.6L39.5,24.3
		C39.5,24.3,33.7,29.2,33.7,29.2z"/>
	
		<linearGradient id="SVGID_2_" gradientUnits="userSpaceOnUse" x1="2935.2341" y1="1422.7743" x2="2739.4341" y2="1422.7743" gradientTransform="matrix(9.145 0 0 -7.7 -25077.3027 11907.1055)">
		<stop  offset="0" style="stop-color:#FFE000"/>
		<stop  offset="0.4087" style="stop-color:#FFBD00"/>
		<stop  offset="0.7754" style="stop-color:#FFA500"/>
		<stop  offset="1" style="stop-color:#FF9C00"/>
	</linearGradient>
	<path class="st1" d="M1262.1,1268.3L956.3,962.4v-21.4l305.9-305.9l6.6,4.1l361.8,205.6c103.6,58.4,103.6,154.6,0,213.8
		l-361.8,205.6C1268.7,1264.2,1262.1,1268.3,1262.1,1268.3z"/>
	
		<linearGradient id="SVGID_3_" gradientUnits="userSpaceOnUse" x1="2948.7686" y1="1431.3312" x2="2836.6423" y2="1285.8666" gradientTransform="matrix(15.02 0 0 -11.5775 -43191.6836 17692.9375)">
		<stop  offset="0" style="stop-color:#FF3A44"/>
		<stop  offset="1" style="stop-color:#C31162"/>
	</linearGradient>
	<path class="st2" d="M1268.7,1264.2L956.3,951.7L33.7,1874.3c33.7,36.2,90.4,40.3,153.8,4.9L1268.7,1264.2"/>
	
		<linearGradient id="SVGID_4_" gradientUnits="userSpaceOnUse" x1="2862.3928" y1="1571.7466" x2="2912.4612" y2="1506.7556" gradientTransform="matrix(15.02 0 0 -11.5715 -43191.6836 17672.3906)">
		<stop  offset="0" style="stop-color:#32A071"/>
		<stop  offset="6.850000e-02" style="stop-color:#2DA771"/>
		<stop  offset="0.4762" style="stop-color:#15CF74"/>
		<stop  offset="0.8009" style="stop-color:#06E775"/>
		<stop  offset="1" style="stop-color:#00F076"/>
	</linearGradient>
	<path class="st3" d="M1268.7,639.3L187.5,25.1C124.2-11.1,67.4-6.2,33.7,30l922.5,921.7L1268.7,639.3z"/>
	<path class="st4" d="M1262.1,1257.6L188.3,1867.7c-60,34.5-113.5,32.1-148,0.8l-5.8,5.8l5.8,4.9c34.5,31.2,88,33.7,148-0.8
		l1081.2-614.2C1269.5,1264.2,1262.1,1257.6,1262.1,1257.6z"/>
	<path class="st5" d="M1630.5,1047.9l-369.2,209.7l6.6,6.6l361.8-205.6c51.8-29.6,77.3-68.2,77.3-106.9
		C1703.7,987.1,1677.4,1020.8,1630.5,1047.9z"/>
	<path class="st6" d="M187.5,35.8l1443,819.8c46.9,26.3,73.2,60.8,77.3,96.2c0-38.6-25.5-77.3-77.3-106.9L187.5,25.1
		C83.9-34.1,0,15.2,0,133.6v10.7C0,25.9,83.9-22.6,187.5,35.8z"/>
</g>
<g>
	<path class="st7" d="M2060,899.8c0-262.1,220.3-475.5,482.4-475.5c144.9,0,248,56.9,325.8,131l-91.6,91.6
		c-55.6-52.2-131-92.7-234.3-92.7c-191.4,0-341,154.1-341,345.5c0,191.4,149.6,345.7,340.9,345.7c124.1,0,194.7-49.8,240-95.2
		c37.1-37.1,61.4-90.4,70.8-163.5h-310.6V857.1h437.2c4.6,23.2,7,51,7,81.1c0,97.3-26.7,218-112.6,303.9
		c-83.6,87-190.2,133.4-331.7,133.4c-262.2,0-482.5-213.2-482.5-475.5L2060,899.8z M3340,763c-169.3,0-307.5,128.8-307.5,306.1
		c0,176.4,138.1,306.1,307.5,306.1s307.3-129.9,307.3-306.2C3647.3,891.7,3509.3,762.9,3340,763L3340,763z M3340,1254.8
		c-92.7,0-172.8-76.5-172.8-185.6c0-110.2,80-185.6,172.8-185.6c92.7,0,172.7,75.3,172.7,185.6
		C3512.7,1178.2,3432.8,1254.8,3340,1254.8z M4010.5,763c-169.3,0-307.3,128.8-307.3,306.1c0,176.4,138,306.1,307.3,306.1
		s307.3-129.9,307.3-306.2C4317.8,891.7,4179.9,762.9,4010.5,763L4010.5,763z M4010.5,1254.8c-92.7,0-172.8-76.5-172.8-185.6
		c0-110.2,80-185.6,172.8-185.6c92.7,0,172.8,75.3,172.8,185.6C4183.3,1178.2,4103.2,1254.8,4010.5,1254.8z M4833.4,781.6v49.8h-4.6
		c-30.1-36.1-88.1-68.5-161.1-68.5c-153.1,0-293.6,134.6-293.6,307.5c0,171.5,140.4,305,293.6,305c73,0,131-32.4,161.1-69.5h4.6v44
		c0,117.1-62.6,179.8-163.5,179.8c-82.4,0-133.4-59.2-154.3-108.9l-117.2,48.7c33.6,81.1,123,180.9,271.4,180.9
		c157.6,0,291-92.9,291-319V781.5L4833.4,781.6L4833.4,781.6z M4679.2,1254.8c-92.7,0-170.6-77.8-170.6-184.4
		c0-107.8,77.8-186.7,170.6-186.7c91.6,0,163.5,78.8,163.5,186.7C4842.8,1177,4770.9,1254.8,4679.2,1254.8z M5053.7,456.8h134.6v900
		h-134.6V456.8z M5557.2,1254.8c-68.4,0-117.2-31.4-148.3-92.7l409.4-169.5l-14.1-34.8C5778.8,889.5,5701,763,5542.1,763
		c-157.7,0-288.8,124.1-288.8,306.2c0,171.5,129.9,306.1,303.9,306.1c140.4,0,221.6-85.7,255.2-135.7l-104.4-69.5
		C5673.1,1221.2,5625.5,1254.9,5557.2,1254.8L5557.2,1254.8z M5546.7,881.3c53.3,0,98.5,26.7,113.6,64.9l-273.8,113.7
		C5383.1,941.6,5478.2,881.3,5546.7,881.3L5546.7,881.3z"/>
	<path class="st7" d="M6408.9,456.8h-321.8v900h134.3v-340.9h187.6c148.9,0,295.3-107.8,295.3-279.6
		c0-171.5-146.3-279.4-295.1-279.4L6408.9,456.8z M6412.4,890.6h-191V582h191c100.4,0,157.6,83.3,157.6,154.3
		C6570,806.1,6512.8,890.6,6412.4,890.6z M6912.6,1356.8v-900h-134.3v900H6912.6z M7515.9,1355.2v-345
		c0-159.8-119.4-248.9-273.5-248.9c-97.1,0-197.8,42.9-239.5,137.8l119.2,49.7c25.5-49.7,72.9-66,122.8-66
		c69.4,0,140,41.7,141.1,115.9v9.3c-24.3-13.9-76.3-34.8-140.1-34.8c-128.5,0-259.3,70.6-259.3,202.6c0,120.5,105.4,198,223.5,198
		c90.4,0,140.1-40.5,171.3-87.9h4.6v69.5h129.8L7515.9,1355.2L7515.9,1355.2z M7226.4,1254.6c-44,0-105.4-22-105.4-76.3
		c0-69.5,76.5-96.3,142.5-96.3c59.1,0,86.8,12.7,122.8,30.1C7376,1192.9,7307.7,1253.6,7226.4,1254.6L7226.4,1254.6z M7988.2,781
		l-154,390.1h-4.6L7669.8,781h-144.7l239.6,545.4L7628,1629.7h140.1L8137.4,781L7988.2,781z"/>
</g>
</svg>
