<?xml version="1.0" encoding="UTF-8" standalone="no"?>
<svg xmlns="http://www.w3.org/2000/svg" height="59px" width="313px" version="1.1" xmlns:xlink="http://www.w3.org/1999/xlink" viewBox="0 0 313 59">
  <path fill="#231F20" d="m259.22 15.883c0-6.3517 5.15-11.503 11.5-11.503h27c6.35 0 11.5 5.1555 11.5 11.503v27.994c0 6.352-5.15 11.503-11.5 11.503h-27c-6.35 0-11.5-5.155-11.5-11.503v-27.994zm-3 0v27.994c0 8.004 6.49 14.503 14.5 14.503h27c8.01 0 14.5-6.495 14.5-14.503v-27.994c0-8.0039-6.49-14.503-14.5-14.503h-27c-8.01 0-14.5 6.4945-14.5 14.503zm-251.18 40.997v-38.4h-3.84v38.4h3.84zm-2-46.08c1.92 0 3.12-1.52 3.12-3.28 0-1.84-1.28-3.36-3.04-3.36s-3.12 1.6-3.12 3.36 1.2 3.28 2.96 3.28h0.08zm9.68 46.08h3.84v-23.04c1.92 0.56 4.08 0.64 6.56 0.64 6.64 0 12.4-2.08 15.84-6 2.48-2.72 3.76-6.16 3.76-10.8 0-4.48-1.52-8.08-4.16-10.56-2.96-2.88-7.84-4.56-14.24-4.56-4.56 0-8.48 0.48-11.6 1.04v53.28zm3.84-50.48c1.44-0.32 4.08-0.64 7.6-0.64 8.56 0 14.72 3.84 14.72 12.32 0 8.56-5.76 13.2-15.44 13.2-2.64 0-5.04-0.16-6.88-0.8v-24.08zm30.48 50.48h3.84v-23.44c0-1.6 0.08-2.64 0.48-3.84 1.68-4.72 6.16-8.64 11.6-8.64 7.84 0 10.56 6.32 10.56 13.2v22.72h3.84v-23.12c0-14.32-9.76-16.16-13.36-16.16-2.88 0-5.52 0.88-7.76 2.24s-4.08 3.36-5.2 5.52h-0.16v-25.36h-3.84v56.88zm52.16 0.88c8.48 0 18.32-6.16 18.32-20.4 0-11.76-7.2-19.76-17.84-19.76-9.52 0-18.16 7.28-18.16 20.4 0 12 7.68 19.76 17.6 19.76h0.08zm0.08-3.2c-7.84 0-13.92-7.2-13.92-16.8 0-8.24 4.4-16.96 14.24-16.96 10.16 0 14.08 9.68 14.08 16.72 0 9.84-6.32 17.04-14.32 17.04h-0.08zm22.8 2.32h3.84v-23.84c0-1.2 0.24-2.48 0.48-3.36 1.52-5.04 6.16-8.88 11.52-8.88 7.92 0 10.64 6.32 10.64 13.36v22.72h3.84v-23.04c0-14.4-9.76-16.24-13.44-16.24-6.24 0-11.12 3.44-13.2 7.76h-0.16l-0.24-6.88h-3.6c0.24 3.04 0.32 5.68 0.32 9.2v29.2zm66.56-19.6c0.16-0.72 0.16-1.28 0.16-2.32 0-5.52-2.4-17.36-14.96-17.36-9.92 0-17.28 8-17.28 20.8 0 11.28 6.88 19.28 17.92 19.28 6.72 0 10.64-1.68 12.08-2.48l-0.96-2.96c-2.16 1.04-5.04 2.16-10.64 2.16-7.92 0-14.64-4.88-14.64-17.12h28.32zm-28.08-3.04c0.72-5.92 4.32-13.44 12.8-13.44 9.28 0 11.52 8.08 11.44 13.44h-24.24zm72.36-30.24c-1.36 0-3.28 0.16-5.2 0.64-5.6 1.04-10.8 3.76-14.56 7.68-4.8 5.04-8.48 13.12-8.48 23.6 0 14.24 7.52 21.84 16.88 21.84 10.56 0 16.24-9.04 16.24-18.08 0-9.68-6-16.72-15.52-16.72-6.32 0-11.04 3.44-13.44 7.28h-0.16c1.04-10.24 7.44-19.84 18.64-22.16 2.16-0.48 4.08-0.56 5.6-0.56v-3.52zm-11.12 50.56c-8.56 0-13.28-7.28-13.28-17.76 0-1.12 0.4-2.16 0.88-3.04 2.4-4.56 7.04-7.52 11.92-7.52 7.2 0 12.48 4.64 12.48 13.76 0 8.8-4.88 14.56-11.92 14.56h-0.08zm53.02-9.43c1.75 1.3 5.15 2.25 8.05 2.25 7.2 0 10.7-4.35 10.7-9.25 0-5-2.95-7.55-8.5-9.8-4.85-1.9-7-3.8-7-7.5 0-2.65 1.85-6.15 7.3-6.15 2.9 0 5.05 0.95 5.95 1.6l0.9-2.05c-1.15-0.75-3.55-1.55-6.7-1.55-5.75 0-9.8 3.6-9.8 8.55 0 4.55 3.25 7.35 8.65 9.3 4.9 1.85 6.85 4.1 6.85 7.85 0 4.15-3.1 7-8.15 7-2.8 0-5.45-0.9-7.35-2.2l-0.9 1.95z"/>
</svg>
