<?xml version="1.0" encoding="UTF-8" standalone="no"?>
<!-- Created with Inkscape (http://www.inkscape.org/) -->

<svg
   xmlns:dc="http://purl.org/dc/elements/1.1/"
   xmlns:cc="http://creativecommons.org/ns#"
   xmlns:rdf="http://www.w3.org/1999/02/22-rdf-syntax-ns#"
   xmlns:svg="http://www.w3.org/2000/svg"
   xmlns="http://www.w3.org/2000/svg"
   xmlns:sodipodi="http://sodipodi.sourceforge.net/DTD/sodipodi-0.dtd"
   xmlns:inkscape="http://www.inkscape.org/namespaces/inkscape"
   width="1000"
   height="192.04108"
   id="svg3342"
   version="1.1"
   inkscape:version="0.48.5 r10040"
   sodipodi:docname="New document 1">
  <defs
     id="defs3344" />
  <sodipodi:namedview
     id="base"
     pagecolor="#ffffff"
     bordercolor="#666666"
     borderopacity="1.0"
     inkscape:pageopacity="0.0"
     inkscape:pageshadow="2"
     inkscape:zoom="0.39878337"
     inkscape:cx="843.51289"
     inkscape:cy="-91.557715"
     inkscape:document-units="px"
     inkscape:current-layer="layer1"
     showgrid="false"
     fit-margin-left="0.5"
     fit-margin-bottom="0.5"
     fit-margin-top="0.5"
     fit-margin-right="0.5"
     inkscape:window-width="1026"
     inkscape:window-height="1022"
     inkscape:window-x="894"
     inkscape:window-y="1"
     inkscape:window-maximized="0" />
  <metadata
     id="metadata3347">
    <rdf:RDF>
      <cc:Work
         rdf:about="">
        <dc:format>image/svg+xml</dc:format>
        <dc:type
           rdf:resource="http://purl.org/dc/dcmitype/StillImage" />
        <dc:title></dc:title>
      </cc:Work>
    </rdf:RDF>
  </metadata>
  <g
     inkscape:label="Layer 1"
     inkscape:groupmode="layer"
     id="layer1"
     transform="translate(-256.12737,-322.76569)">
    <path
       inkscape:connector-curvature="0"
       d="m 258.42697,512.24977 0,-136.27421 32.0117,0 0,136.27421 z m 15.94165,-154.14416 c -4.88538,2.1e-4 -9.06381,-1.69256 -12.53465,-5.07811 -3.47087,-3.3853 -5.2066,-7.47774 -5.2066,-12.27758 0,-4.88513 1.73573,-9.02045 5.2066,-12.40604 3.47084,-3.3853 7.64927,-5.07799 12.53465,-5.07819 4.97095,2e-4 9.19222,1.69289 12.66305,5.07819 3.4715,3.38559 5.2066,7.52091 5.2066,12.40604 0,4.79984 -1.7351,8.89228 -5.2066,12.27758 -3.47083,3.38555 -7.6921,5.07832 -12.66305,5.07811 z"
       style="font-size:40px;font-style:normal;font-variant:normal;font-weight:600;font-stretch:normal;line-height:125%;letter-spacing:0px;word-spacing:0px;fill:#000000;fill-opacity:1;stroke:none;font-family:SF Pro Display;-inkscape-font-specification:SF Pro Display Semi-Bold"
       id="path5241" />
    <path
       d="m 317.70191,326.73685 72.12293,0 c 18.5121,2.1e-4 33.55395,5.72114 45.12435,17.16284 11.57035,11.44203 17.35553,26.4193 17.35553,44.9319 0,18.42715 -5.93525,33.38301 -17.80512,44.8677 -11.87054,11.48478 -27.23361,17.22713 -46.08926,17.22705 l -37.53953,0 0,61.32343 -33.1689,0 z m 33.1689,27.12629 0,70.32259 30.08307,0 c 11.91333,1.6e-4 21.16934,-3.08533 27.76878,-9.25635 6.5994,-6.17077 9.89912,-14.87003 9.89978,-26.09779 -6.6e-4,-11.1418 -3.27867,-19.75532 -9.83529,-25.84064 -6.55665,-6.08511 -15.79162,-9.12765 -27.7049,-9.12781 z"
       style="font-size:40px;font-style:normal;font-variant:normal;font-weight:600;font-stretch:normal;line-height:125%;letter-spacing:0px;word-spacing:0px;fill:#000000;fill-opacity:1;stroke:none;font-family:SF Pro Display;-inkscape-font-specification:SF Pro Display Semi-Bold"
       id="path5243"
       inkscape:connector-curvature="0" />
    <path
       d="m 473.08046,512.24977 0,-185.51292 31.62599,0 0,73.02244 0.64504,0 c 8.05674,-17.0556 22.41277,-25.58346 43.06802,-25.58358 14.91287,1.2e-4 26.59054,4.56403 35.03299,13.69172 8.44179,9.12789 12.66306,21.534 12.66306,37.21826 l 0,87.16408 -32.01175,0 0,-80.60747 c 0,-9.6848 -2.37818,-17.18413 -7.13519,-22.49809 -4.75639,-5.31376 -11.72046,-7.97066 -20.89094,-7.97079 -9.59894,1.3e-4 -17.16267,3.04274 -22.69116,9.12781 -5.52782,6.08528 -8.29172,14.18459 -8.29172,24.29799 l 0,77.65055 z"
       style="font-size:40px;font-style:normal;font-variant:normal;font-weight:600;font-stretch:normal;line-height:125%;letter-spacing:0px;word-spacing:0px;fill:#000000;fill-opacity:1;stroke:none;font-family:SF Pro Display;-inkscape-font-specification:SF Pro Display Semi-Bold"
       id="path5245"
       inkscape:connector-curvature="0" />
    <path
       d="m 727.91301,495.53693 c -11.82775,12.51319 -27.89781,18.76983 -48.21013,18.76983 -20.31299,0 -36.383,-6.27801 -48.21009,-18.83415 -11.82774,-12.55603 -17.74129,-29.67599 -17.74129,-51.35995 0,-21.59809 5.95634,-38.6966 17.86962,-51.29565 11.91332,-12.59881 27.94059,-18.89828 48.08176,-18.8984 20.22679,1.2e-4 36.2751,6.27813 48.14559,18.83407 11.87054,12.55618 17.80583,29.67619 17.80583,51.35998 0,21.76966 -5.91355,38.91104 -17.74129,51.42427 z m -72.82926,-18.44852 c 5.87076,7.84225 14.0769,11.76338 24.61913,11.76334 10.54157,4e-5 18.74837,-3.92109 24.61912,-11.76334 5.87076,-7.84213 8.80647,-18.83407 8.80647,-32.97575 0,-14.05589 -2.95675,-25.04784 -8.8703,-32.97579 -5.9142,-7.92779 -14.0993,-11.89174 -24.55529,-11.89187 -10.45665,1.3e-4 -18.64109,3.96408 -24.55529,11.89187 -5.91355,7.92795 -8.8703,18.9199 -8.8703,32.97579 0,14.14168 2.93505,25.13362 8.80646,32.97575 z"
       style="font-size:40px;font-style:normal;font-variant:normal;font-weight:600;font-stretch:normal;line-height:125%;letter-spacing:0px;word-spacing:0px;fill:#000000;fill-opacity:1;stroke:none;font-family:SF Pro Display;-inkscape-font-specification:SF Pro Display Semi-Bold"
       id="path5247"
       inkscape:connector-curvature="0" />
    <path
       d="m 765.27284,512.24977 0,-136.27421 30.72619,0 0,23.78373 0.64505,0 c 8.05673,-17.0556 22.32652,-25.58346 42.81062,-25.58358 14.91287,1.2e-4 26.50497,4.47833 34.77564,13.43453 8.27068,8.95657 12.40632,21.36261 12.40632,37.21835 l 0,87.42118 -32.0117,0 0,-80.99319 c 0,-20.05534 -9.12769,-30.08303 -27.38306,-30.08316 -9.25667,1.3e-4 -16.56301,3.02129 -21.91973,9.06349 -5.35667,6.04248 -8.03498,14.03468 -8.03498,23.97659 l 0,78.03627 z"
       style="font-size:40px;font-style:normal;font-variant:normal;font-weight:600;font-stretch:normal;line-height:125%;letter-spacing:0px;word-spacing:0px;fill:#000000;fill-opacity:1;stroke:none;font-family:SF Pro Display;-inkscape-font-specification:SF Pro Display Semi-Bold"
       id="path5249"
       inkscape:connector-curvature="0" />
    <path
       d="m 968.27828,398.7308 c -8.91375,8e-5 -16.3702,2.95695 -22.36928,8.87062 -5.99978,5.91396 -9.2995,13.62755 -9.89916,23.14096 l 63.63707,0 c -0.34247,-9.59911 -3.38529,-17.33416 -9.12768,-23.2052 -5.74239,-5.8708 -13.15605,-8.8063 -22.24095,-8.80638 z m 31.49762,72.76525 29.9548,0 c -1.9715,12.77038 -8.5281,23.09809 -19.6699,30.98317 -11.14191,7.885 -24.68368,11.82754 -40.62533,11.82754 -20.31237,0 -36.31855,-6.23518 -48.01727,-18.70558 -11.69938,-12.47032 -17.54839,-29.46176 -17.54839,-50.97431 0,-21.51235 5.82797,-38.67514 17.4839,-51.48847 11.65593,-12.81309 27.25469,-19.21967 46.7962,-19.21979 19.19796,1.2e-4 34.47549,6.08535 45.83189,18.25553 11.3558,12.17056 17.0337,28.58346 17.0344,49.23875 l 0,10.41337 -95.26371,0 0,1.92842 c 0,10.71343 3.14965,19.34844 9.44957,25.90501 6.29926,6.55662 14.59098,9.83488 24.87648,9.83488 7.28464,0 13.62734,-1.6284 19.0268,-4.88534 5.39946,-3.25676 8.95588,-7.62789 10.67056,-13.11318 z"
       style="font-size:40px;font-style:normal;font-variant:normal;font-weight:600;font-stretch:normal;line-height:125%;letter-spacing:0px;word-spacing:0px;fill:#000000;fill-opacity:1;stroke:none;font-family:SF Pro Display;-inkscape-font-specification:SF Pro Display Semi-Bold"
       id="path5251"
       inkscape:connector-curvature="0" />
    <path
       d="m 1091.3272,512.24977 60.4235,-92.9493 0,-0.89992 -59.9094,-91.6637 39.2114,0 42.939,69.67981 1.0282,0 43.4537,-69.67981 37.1538,0 -61.8375,92.43509 0,0.89988 60.8093,92.17795 -38.1826,0 -43.7104,-68.13711 -1.0288,0 -44.2246,68.13711 z"
       style="font-size:40px;font-style:normal;font-variant:normal;font-weight:600;font-stretch:normal;line-height:125%;letter-spacing:0px;word-spacing:0px;fill:#000000;fill-opacity:1;stroke:none;font-family:SF Pro Display;-inkscape-font-specification:SF Pro Display Semi-Bold"
       id="path5253"
       inkscape:connector-curvature="0" />
  </g>
</svg>
