<svg width="1372" height="276" viewBox="0 0 1029 207" xmlns="http://www.w3.org/2000/svg"><g fill="#111"><path d="M52.24 49.13c4.3-.34 8.73 2.06 10.63 5.97 2.29 4.96.44 11.69-4.72 14.04-6.26 3.46-15.1-.89-15.64-8.14-.96-5.86 3.94-11.44 9.73-11.87zM596.05 50.87c11.7-3.1 24.52-2.52 35.68 2.3 8.4 3.65 15.7 10.83 17.6 20.02.76 5.37.78 11.14-1.72 16.09-3.5 7.85-11.21 12.98-19.32 15.12 7.84 1.5 15.51 5.32 20.41 11.79 5.36 6.91 7.16 16.37 4.86 24.79-2.08 8.01-7.89 14.68-15.04 18.65-11.02 6.21-24.17 7.51-36.56 6.12-10.69-1.34-21.62-5.51-28.67-13.98-6.96-8.24-8.39-20.49-3.94-30.25 4.23-9.34 13.67-15.48 23.63-17.08-6.43-1.83-12.76-5.07-16.73-10.62-6.51-8.49-6.59-21.19-.34-29.83 4.72-6.77 12.32-10.98 20.14-13.12m.2 18.37c-3.53 2.87-4.95 7.38-5.49 11.74.54 3.86 1.51 7.87 4.37 10.71 7.97 8.13 22.7 8.13 30.79.17 5.52-5.66 5.74-15.34.44-21.23-7.57-8.15-21.75-8.54-30.11-1.39m8.33 44.5c-5.31 1.02-10.51 3.63-13.73 8.09-3.56 4.64-4.42 11.18-2.14 16.58 2.06 5.2 6.75 8.99 11.95 10.82 8.14 2.81 17.67 2.18 24.99-2.56 4.93-3.08 8.3-8.78 8.03-14.66.23-5.62-2.79-11.11-7.39-14.26-6.24-4.35-14.35-5.52-21.71-4.01zM82.15 51.24c14.65.07 29.3.02 43.95.03 8.93.06 18.1 2.69 24.96 8.59 13.86 11.64 16.16 33.49 7.59 48.9-6.05 10.99-18.43 17.35-30.73 17.88-8.53.17-17.07.11-25.6.01-.93 4.38-.36 8.87-.5 13.31.14 7.96-.38 15.95.43 23.89-6.68.31-13.38.08-20.07.15-.01-12.99.02-25.98-.01-38.97-.3-5.02-.06-10.02-.03-15.04.05-4 .11-7.99-.07-11.99.29-15.58-.02-31.17.08-46.76m19.67 29.79c.19 9.84-.43 19.71.39 29.52 7-.15 14.01.22 21.01-.19 6.61-.4 13.47-3.27 17.02-9.12 5.89-10 3.84-25.74-7.47-30.97-9.58-4.25-20.38-1.88-30.51-2.61-.8 4.42-.33 8.91-.44 13.37zM177.61 51.26c6.35.02 12.69.03 19.03-.01-.02 14.99-.18 29.99.09 44.97 3.16-6.42 8.31-12.16 15.3-14.38 10.25-3.35 22.71-2.3 30.99 5.09 6.78 5.98 9.12 15.36 9.23 24.08-.03 17.67-.01 35.33-.01 52.99h-19.48c-.01-16.99.03-33.98-.01-50.97.04-6.05-3.05-12.48-8.81-14.94-7.22-3.03-16.5-1.87-21.98 3.98-3.94 4.25-5.15 10.22-5.24 15.85 0 15.36 0 30.72.01 46.08h-19.09c-.02-37.58.04-75.16-.03-112.74zM704.47 51.25c14.86.06 29.71 0 44.57.02 10.84.08 21.96 4.38 28.88 12.95 9.51 11.92 10.67 29.46 4.06 43.01-5.59 11.52-18.03 18.57-30.59 19.33-8.96.38-17.93.07-26.9.16V164h-19.98c-.03-37.58.05-75.17-.04-112.75m20.01 59.29c5.17-.02 10.35-.02 15.53 0 6.9.15 14.49-.75 19.75-5.68 6.17-5.69 6.99-14.99 5.27-22.77-1.85-7.35-8.53-12.76-15.93-13.79-8.16-1.06-16.41-.38-24.61-.58-.01 14.27.01 28.54-.01 42.82zM800.47 51.26c6.39.02 12.78.04 19.17-.02-.1 37.59-.02 75.17-.04 112.75-6.37.02-12.73.01-19.09.01-.03-37.58.05-75.16-.04-112.74zM296.47 80.69c11.54-2.08 24.25-.18 33.76 7 7.42 5.56 11.94 14.29 13.75 23.25 1.78 10.04 1.54 20.61-1.97 30.26-3.12 8.85-9.82 16.48-18.43 20.33-8.74 3.94-18.76 4.55-28.11 2.81-9.92-1.87-19.21-7.81-24.2-16.7-6.04-10.08-6.81-22.3-5.56-33.72 1.14-7.41 3.75-14.74 8.56-20.58 5.42-6.88 13.63-11.22 22.2-12.65m4.05 15.14c-6.27 1.28-11.26 6.31-13.41 12.22-2.97 8.32-3.27 17.55-1 26.08 1.25 4.39 3.39 8.79 7.06 11.67 7.4 5.91 19.35 5.26 25.8-1.79 3.87-4.37 5.57-10.2 6.31-15.88.77-8.39.07-17.41-4.58-24.67-4.12-6.61-12.76-9.48-20.18-7.63zM389.23 83.13c8.18-3.88 17.94-4.06 26.4-.95 5.98 2.19 10.84 7.02 13.42 12.81 2.34 4.98 2.88 10.57 3.18 16 .01 17.67 0 35.34.01 53.01h-19.48c-.02-17 .04-34-.02-50.99.03-5.8-2.53-12.13-8-14.75-7.07-3.18-16.45-2.26-21.82 3.67-3.84 3.97-5.07 9.7-5.21 15.05.02 15.67 0 31.34.02 47.02h-19.22V81c6.24.12 12.51-.27 18.74.25-.66 4.96-.4 9.97-.39 14.96 3.1-5.16 6.76-10.41 12.37-13.08zM459.16 88.14c13.06-10.39 32.87-10.97 46.83-2.03 9.05 5.91 14.16 16.39 15.52 26.89.48 4.74.27 9.51.31 14.27-19.22-.03-38.44-.02-57.66-.01-.19 6.5 1.7 13.45 6.76 17.84 5.28 4.95 13.12 5.73 19.95 4.43 5.4-1.21 10.48-4.79 12.32-10.18 6.08-.16 12.17-.05 18.25-.07-1.44 6.81-4.93 13.24-10.47 17.57-10.01 7.84-23.64 9.83-35.9 7.49-8.87-1.62-17.14-6.55-22.36-13.95-5.83-8.18-7.94-18.46-7.54-28.36-.32-12.51 4.11-25.78 13.99-33.89m11.75 11.8c-4.11 3.7-6.24 9.15-6.66 14.59 13.05-.02 26.1.04 39.15-.03-.71-4.59-1.62-9.43-4.83-13.01-6.63-8.08-20.11-8.62-27.66-1.55zM931.56 89.54c6.58-6.72 16.26-9.1 25.37-9.55 9.02-.19 18.59 1.57 25.87 7.23 5.63 4.27 9.03 11.2 9.06 18.27-5.96-.04-11.92-.01-17.87-.02-.38-3.58-2.33-6.93-5.45-8.77-5.45-3.06-12.28-3.21-18.07-1.04-3.34 1.36-6.58 4.43-6.26 8.34-.27 4.01 3.37 6.74 6.76 7.99 11.3 4.13 24.13 3.99 34.53 10.56 5.62 3.38 8.59 10.03 8.24 16.47.49 8.31-4.6 16.07-11.54 20.29-8.39 5.12-18.56 6.45-28.22 5.77-8.54-.64-17.33-3.39-23.5-9.57-4.32-4.2-6.58-10.08-7.3-15.98h18.97c.86 3.14 2.16 6.44 5.02 8.29 5.31 3.59 12.22 3.73 18.32 2.56 4.51-.89 9.45-4.27 9.13-9.4.25-3.68-2.98-6.2-6.07-7.39-11.82-4.42-25.72-4.03-35.91-12.31-9.49-7.62-9.43-23.3-1.08-31.74zM43.51 81h19.22c-.01 27.67-.01 55.33 0 83H43.51V81zM836.51 81h19.22c-.01 16.66-.01 33.32-.01 49.98.11 5.7 1.86 12.13 7.06 15.26 7.44 4.26 18.17 3.15 23.72-3.72 3.02-3.75 4.37-8.64 4.27-13.42-.01-16.04-.01-32.07-.01-48.1h19.48c-.01 27.67-.01 55.33 0 83h-18.73c-.05-5.07.15-10.14-.19-15.19-2.86 6.75-8.25 12.73-15.46 14.81-10.03 3.03-22.01 1.69-30.06-5.42-6.52-5.73-9.21-14.65-9.29-23.11V81z"/></g></svg>