<?xml version="1.0" encoding="UTF-8" standalone="no"?>
<!-- Created with Inkscape (http://www.inkscape.org/) -->

<svg
   xmlns:dc="http://purl.org/dc/elements/1.1/"
   xmlns:cc="http://creativecommons.org/ns#"
   xmlns:rdf="http://www.w3.org/1999/02/22-rdf-syntax-ns#"
   xmlns:svg="http://www.w3.org/2000/svg"
   xmlns="http://www.w3.org/2000/svg"
   xmlns:sodipodi="http://sodipodi.sourceforge.net/DTD/sodipodi-0.dtd"
   xmlns:inkscape="http://www.inkscape.org/namespaces/inkscape"
   width="999.99969"
   height="193.49968"
   id="svg3342"
   version="1.1"
   inkscape:version="0.48.5 r10040"
   sodipodi:docname="A.svg">
  <defs
     id="defs3344" />
  <sodipodi:namedview
     id="base"
     pagecolor="#ffffff"
     bordercolor="#666666"
     borderopacity="1.0"
     inkscape:pageopacity="0.0"
     inkscape:pageshadow="2"
     inkscape:zoom="0.5"
     inkscape:cx="739.3857"
     inkscape:cy="-83.736914"
     inkscape:document-units="px"
     inkscape:current-layer="flowRoot3436"
     showgrid="false"
     fit-margin-left="0.5"
     fit-margin-bottom="0.5"
     fit-margin-top="0.5"
     fit-margin-right="0.5"
     inkscape:window-width="1026"
     inkscape:window-height="1022"
     inkscape:window-x="894"
     inkscape:window-y="1"
     inkscape:window-maximized="0" />
  <metadata
     id="metadata3347">
    <rdf:RDF>
      <cc:Work
         rdf:about="">
        <dc:format>image/svg+xml</dc:format>
        <dc:type
           rdf:resource="http://purl.org/dc/dcmitype/StillImage" />
        <dc:title></dc:title>
      </cc:Work>
    </rdf:RDF>
  </metadata>
  <g
     inkscape:label="Layer 1"
     inkscape:groupmode="layer"
     id="layer1"
     transform="translate(-976.14538,-758.44261)">
    <g
       transform="matrix(4.2349339,0,0,4.2349339,-126.55296,1614.3164)"
       style="font-size:40px;font-style:normal;font-weight:normal;line-height:125%;letter-spacing:0px;word-spacing:0px;fill:#000000;fill-opacity:1;stroke:none;font-family:Sans"
       id="flowRoot3436" />
    <g
       transform="matrix(6.5580982,0,0,6.5580982,-1558.9393,-3044.682)"
       style="font-size:40px;font-style:normal;font-weight:normal;line-height:125%;letter-spacing:0px;word-spacing:0px;fill:#000000;fill-opacity:1;stroke:none;font-family:Sans"
       id="flowRoot3453">
      <path
         d="m 527.96875,609.34194 c -3.25522,0 -5.89844,-0.76172 -7.92969,-2.28516 -2.03125,-1.52343 -3.04687,-3.48958 -3.04687,-5.89844 0,-1.8229 0.58919,-3.39517 1.76758,-4.71679 1.17838,-1.3216 2.7246,-2.1647 4.63867,-2.5293 l 0,-0.0977 c -1.60157,-0.41665 -2.88412,-1.20115 -3.84766,-2.35351 -0.96354,-1.15233 -1.44531,-2.49022 -1.44531,-4.01367 0,-2.14842 0.92773,-3.9225 2.7832,-5.32227 1.85546,-1.39971 4.21549,-2.09958 7.08008,-2.09961 2.87759,3e-5 5.23761,0.6999 7.08008,2.09961 1.84242,1.39977 2.76365,3.18036 2.76367,5.3418 -2e-5,1.51043 -0.47854,2.83856 -1.43555,3.98437 -0.95705,1.14585 -2.23634,1.93361 -3.83789,2.36328 l 0,0.0977 c 1.92707,0.37762 3.4798,1.22723 4.65821,2.54883 1.17836,1.32162 1.76755,2.88738 1.76757,4.69726 -2e-5,2.40886 -1.02215,4.37501 -3.0664,5.89844 -2.04429,1.52344 -4.68752,2.28516 -7.92969,2.28516 z m -4.14063,-5.17578 c 1.08072,0.88542 2.46093,1.32812 4.14063,1.32812 1.67967,0 3.05988,-0.4427 4.14062,-1.32812 1.08072,-0.88542 1.62108,-2.01172 1.6211,-3.37891 -2e-5,-1.3802 -0.53713,-2.51301 -1.61133,-3.39844 -1.07423,-0.8854 -2.4577,-1.32811 -4.15039,-1.32812 -1.6797,10e-6 -3.05991,0.44597 -4.14063,1.33789 -1.08073,0.89194 -1.6211,2.02149 -1.62109,3.38867 -10e-6,1.36719 0.54036,2.49349 1.62109,3.37891 z m 4.14063,-11.95313 c 1.41926,2e-5 2.58462,-0.39386 3.49609,-1.18164 0.91145,-0.78774 1.36717,-1.78709 1.36719,-2.99805 -2e-5,-1.22393 -0.45574,-2.22979 -1.36719,-3.01757 -0.91147,-0.78774 -2.07683,-1.18162 -3.49609,-1.18165 -1.4323,3e-5 -2.60418,0.39391 -3.51563,1.18165 -0.91146,0.78778 -1.36719,1.79364 -1.36718,3.01757 -1e-5,1.21096 0.45572,2.21031 1.36718,2.99805 0.91145,0.78778 2.08333,1.18166 3.51563,1.18164 z"
         style="font-variant:normal;font-weight:600;font-stretch:normal;font-family:SF Pro Display;-inkscape-font-specification:SF Pro Display Semi-Bold"
         id="path3462"
         inkscape:connector-curvature="0" />
    </g>
    <g
       id="g5312"
       transform="matrix(6.657811,0,0,6.657811,-17656.019,-2202.9474)"
       style="font-size:40px;font-style:normal;font-weight:normal;line-height:125%;letter-spacing:0px;word-spacing:0px;fill:#000000;fill-opacity:1;stroke:none;font-family:Sans">
      <path
         d="m 2798.8889,473.40299 0,-20.57159 4.8324,0 0,20.57159 z m 2.4065,-23.2692 c -0.7375,3e-5 -1.3683,-0.2555 -1.8922,-0.76658 -0.524,-0.51103 -0.786,-1.12882 -0.786,-1.85339 0,-0.73744 0.262,-1.3617 0.786,-1.87278 0.5239,-0.51103 1.1547,-0.76656 1.8922,-0.76659 0.7504,3e-5 1.3876,0.25556 1.9116,0.76659 0.524,0.51108 0.7859,1.13534 0.7859,1.87278 0,0.72457 -0.2619,1.34236 -0.7859,1.85339 -0.524,0.51108 -1.1612,0.76661 -1.9116,0.76658 z"
         style="font-variant:normal;font-weight:600;font-stretch:normal;fill:#000000;font-family:SF Pro Display;-inkscape-font-specification:SF Pro Display Semi-Bold"
         id="path5314"
         inkscape:connector-curvature="0" />
      <path
         d="m 2807.8369,445.39845 10.8874,0 c 2.7946,3e-5 5.0653,0.86365 6.8119,2.59085 1.7466,1.72726 2.6199,3.9882 2.6199,6.78281 0,2.78171 -0.8959,5.03941 -2.6878,6.7731 -1.7919,1.73372 -4.1111,2.60057 -6.9575,2.60056 l -5.6669,0 0,9.25722 -5.007,0 z m 5.007,4.09491 0,10.61572 4.5413,0 c 1.7984,2e-5 3.1957,-0.46576 4.1919,-1.39732 0.9962,-0.93152 1.4943,-2.24474 1.4944,-3.93965 -1e-4,-1.68194 -0.4949,-2.98221 -1.4847,-3.90084 -0.9897,-0.91859 -2.3838,-1.37788 -4.1822,-1.37791 z"
         style="font-variant:normal;font-weight:600;font-stretch:normal;fill:#000000;font-family:SF Pro Display;-inkscape-font-specification:SF Pro Display Semi-Bold"
         id="path5316"
         inkscape:connector-curvature="0" />
      <path
         d="m 2831.2924,473.40299 0,-28.00454 4.7742,0 0,11.02327 0.097,0 c 1.2163,-2.57467 3.3834,-3.86201 6.5015,-3.86203 2.2512,2e-5 4.014,0.68898 5.2885,2.06687 1.2743,1.37792 1.9115,3.25072 1.9115,5.61837 l 0,13.15806 -4.8324,0 0,-12.16829 c 0,-1.46199 -0.359,-2.59408 -1.0771,-3.39626 -0.718,-0.80215 -1.7693,-1.20322 -3.1536,-1.20324 -1.449,2e-5 -2.5908,0.45932 -3.4254,1.37791 -0.8345,0.91861 -1.2517,2.14127 -1.2517,3.66796 l 0,11.72192 z"
         style="font-variant:normal;font-weight:600;font-stretch:normal;fill:#000000;font-family:SF Pro Display;-inkscape-font-specification:SF Pro Display Semi-Bold"
         id="path5318"
         inkscape:connector-curvature="0" />
      <path
         d="m 2869.7612,470.88006 c -1.7854,1.88896 -4.2113,2.83345 -7.2776,2.83345 -3.0664,0 -5.4923,-0.94772 -7.2777,-2.84316 -1.7855,-1.89542 -2.6782,-4.47981 -2.6782,-7.75316 0,-3.26039 0.8992,-5.84154 2.6976,-7.74346 1.7984,-1.90188 4.2178,-2.85283 7.2583,-2.85285 3.0533,2e-5 5.476,0.94773 7.2679,2.84314 1.7919,1.89546 2.6879,4.47984 2.6879,7.75317 0,3.28629 -0.8927,5.87391 -2.6782,7.76287 z m -10.9941,-2.78493 c 0.8863,1.18384 2.125,1.77576 3.7165,1.77575 1.5913,10e-6 2.8302,-0.59191 3.7164,-1.77575 0.8862,-1.18383 1.3294,-2.84315 1.3294,-4.97794 0,-2.12184 -0.4463,-3.78115 -1.339,-4.97794 -0.8928,-1.19676 -2.1284,-1.79514 -3.7068,-1.79516 -1.5785,2e-5 -2.814,0.5984 -3.7068,1.79516 -0.8927,1.19679 -1.3391,2.8561 -1.3391,4.97794 0,2.13479 0.4431,3.79411 1.3294,4.97794 z"
         style="font-variant:normal;font-weight:600;font-stretch:normal;fill:#000000;font-family:SF Pro Display;-inkscape-font-specification:SF Pro Display Semi-Bold"
         id="path5320"
         inkscape:connector-curvature="0" />
      <path
         d="m 2875.401,473.40299 0,-20.57159 4.6383,0 0,3.59032 0.097,0 c 1.2162,-2.57467 3.3703,-3.86201 6.4626,-3.86203 2.2512,2e-5 4.0011,0.67604 5.2496,2.02805 1.2485,1.35205 1.8728,3.22484 1.8728,5.61838 l 0,13.19687 -4.8324,0 0,-12.22652 c 0,-3.0275 -1.3779,-4.54125 -4.1336,-4.54127 -1.3974,2e-5 -2.5003,0.45608 -3.309,1.3682 -0.8086,0.91216 -1.2129,2.11863 -1.2129,3.61944 l 0,11.78015 z"
         style="font-variant:normal;font-weight:600;font-stretch:normal;fill:#000000;font-family:SF Pro Display;-inkscape-font-specification:SF Pro Display Semi-Bold"
         id="path5322"
         inkscape:connector-curvature="0" />
      <path
         d="m 2906.0461,456.26646 c -1.3456,1e-5 -2.4712,0.44638 -3.3768,1.33909 -0.9057,0.89275 -1.4038,2.05718 -1.4943,3.4933 l 9.6065,0 c -0.052,-1.44906 -0.5111,-2.61672 -1.3779,-3.503 -0.8669,-0.88624 -1.986,-1.32938 -3.3575,-1.32939 z m 4.7548,10.98445 4.5219,0 c -0.2976,1.92779 -1.2873,3.48683 -2.9693,4.67714 -1.6819,1.1903 -3.7262,1.78546 -6.1327,1.78546 -3.0663,0 -5.4825,-0.94125 -7.2485,-2.82375 -1.7661,-1.88249 -2.6491,-4.44747 -2.6491,-7.69494 0,-3.24745 0.8798,-5.83831 2.6393,-7.77257 1.7596,-1.93423 4.1143,-2.90135 7.0643,-2.90137 2.898,2e-5 5.2043,0.91863 6.9186,2.75581 1.7143,1.83724 2.5714,4.31488 2.5715,7.43295 l 0,1.57198 -14.3808,0 0,0.29111 c 0,1.61727 0.4755,2.92078 1.4265,3.91054 0.9509,0.98978 2.2026,1.48465 3.7553,1.48465 1.0997,0 2.0572,-0.24582 2.8722,-0.73747 0.8151,-0.49164 1.352,-1.15149 1.6108,-1.97954 z"
         style="font-variant:normal;font-weight:600;font-stretch:normal;fill:#000000;font-family:SF Pro Display;-inkscape-font-specification:SF Pro Display Semi-Bold"
         id="path5324"
         inkscape:connector-curvature="0" />
    </g>
  </g>
</svg>
