<?xml version="1.0" encoding="utf-8"?>
<!-- Generator: Adobe Illustrator 23.0.1, SVG Export Plug-In . SVG Version: 6.00 Build 0)  -->
<!DOCTYPE svg PUBLIC "-//W3C//DTD SVG 1.1//EN" "http://www.w3.org/Graphics/SVG/1.1/DTD/svg11.dtd" [
	<!ENTITY ns_extend "http://ns.adobe.com/Extensibility/1.0/">
	<!ENTITY ns_ai "http://ns.adobe.com/AdobeIllustrator/10.0/">
	<!ENTITY ns_graphs "http://ns.adobe.com/Graphs/1.0/">
	<!ENTITY ns_vars "http://ns.adobe.com/Variables/1.0/">
	<!ENTITY ns_imrep "http://ns.adobe.com/ImageReplacement/1.0/">
	<!ENTITY ns_sfw "http://ns.adobe.com/SaveForWeb/1.0/">
	<!ENTITY ns_custom "http://ns.adobe.com/GenericCustomNamespace/1.0/">
	<!ENTITY ns_adobe_xpath "http://ns.adobe.com/XPath/1.0/">
]>
<svg version="1.1" id="Layer_1" xmlns:x="&ns_extend;" xmlns:i="&ns_ai;" xmlns:graph="&ns_graphs;"
	 xmlns="http://www.w3.org/2000/svg" xmlns:xlink="http://www.w3.org/1999/xlink" x="0px" y="0px" viewBox="0 0 10524.8 1670.9"
	 style="enable-background:new 0 0 10524.8 1670.9;" xml:space="preserve">
<metadata>
	<sfw  xmlns="&ns_sfw;">
		<slices></slices>
		<sliceSourceBounds  bottomLeftOrigin="true" height="1670.9" width="10524.8" x="-5207.3" y="-825.9"></sliceSourceBounds>
	</sfw>
</metadata>
<g id="iPhone_X_S_1_">
	<path d="M0,158.5C0,80.2,63,19.1,140.4,19.1c78.3,0,141.3,61.1,141.3,139.4c0,76.4-63,138.4-141.3,138.4C63,296.9,0,234.9,0,158.5z
		 M19.1,469.8h242.5v1181.1H19.1V469.8z M1148.6,30.6c314.1,0,533.7,216.7,533.7,531.8c0,317-223.4,534.7-541.4,534.7H792.5v553.8
		H541.4V30.6H1148.6z M792.5,886.1h288.4c218.6,0,343.7-117.4,343.7-321.8s-125.1-320.8-342.8-320.8H792.5V886.1z M1854.2,30.6
		h240.6v639.7h5.7c70.7-141.3,192.9-214.8,374.3-214.8c259.7,0,414.4,172.8,414.4,440.2v754.3h-243.5V943.3
		c0-173.8-87.8-279.8-257.8-279.8c-179.5,0-289.3,123.2-289.3,311.3v675h-242.5V30.6L1854.2,30.6z M3062,1059.8
		c0-371.4,218.6-605.3,560.5-605.3c342.8,0,560.5,233.9,560.5,605.3c0,372.4-216.7,605.3-560.5,605.3S3062,1433.2,3062,1059.8z
		 M3935.7,1059.8c0-254.9-116.5-404.8-313.2-404.8c-196.7,0-313.2,151.8-313.2,404.8c0,255.9,116.5,404.8,313.2,404.8
		C3819.2,1465.6,3935.7,1316.7,3935.7,1059.8z M4356.8,469.8h231.1v200.5h5.7c70.7-141.3,190-214.8,371.4-214.8
		c260.7,0,409.6,167.1,409.6,438.3v757.2h-243.5V941.4c0-177.6-82.1-275.9-253-275.9c-173.8,0-279.8,123.2-279.8,305.5v680.8h-242.5
		C4355.8,1651.8,4356.8,469.8,4356.8,469.8z M6614.9,1304.3c-32.5,214.8-241.6,361.9-508.9,361.9c-343.7,0-556.6-230.1-556.6-599.6
		c0-370.5,214.8-611.1,547.1-611.1c326.5,0,531.8,224.4,531.8,582.4v83.1h-834.5v14.3c0,202.4,127,334.2,317.9,334.2
		c134.6,0,240.6-64,273.1-166.1C6384.8,1303.3,6614.9,1304.3,6614.9,1304.3z M5794.7,951h591c-5.7-180.5-121.3-299.8-289.3-299.8
		C5928.4,651.2,5807.1,772.4,5794.7,951z M7594.5,839.3v-7.6L7062.7,31.5h299.8l400.1,626.3h8.6L8175,31.5h284.5l-549,808.7v6.7
		l538.5,803.9H8155L7752,1033.1h-7.6l-408.7,617.8h-278.8C7056.9,1650.9,7594.5,839.3,7594.5,839.3z M10520,410.6
		c-12.4-243.5-164.2-391.5-405.8-405.8l-90.7-4.8h-668.4l-90.7,4.8c-237.7,10.5-390.5,157.5-405.8,405.8l-4.8,91.7v666.5l4.8,91.7
		c19.1,252.1,171.9,399.1,405.8,405.8l90.7,4.8h668.4l90.7-4.8c238.7-11.5,390.5-158.5,405.8-405.8l4.8-91.7V502.2L10520,410.6z
		 M10372,1254.6c-1,161.4-110.8,259.7-263.5,263.5l-85.9,4.8h-666.5l-85.9-4.8c-154.7-4.8-263.5-104.1-263.5-263.5l-4.8-85V501.3
		l4.8-85c0-159.5,108.8-258.8,263.5-263.5l85.9-4.8h666.5l85.9,4.8c154.7,4.8,263.5,104.1,263.5,263.5l4.8,85v668.4L10372,1254.6z"
		/>
	<path d="M9500.3,1024.5c11.5,79.2,87.8,126,194.8,126c103.1,0,174.7-50.6,174.7-122.2c0-62.1-43-99.3-153.7-122.2l-91.7-19.1
		c-170.9-35.3-251.1-115.5-251.1-240.6c0-150.9,131.8-252.1,317.9-252.1c189.1,0,314.1,103.1,317.9,255.9h-146.1
		c-6.7-80.2-74.5-128.9-172.8-128.9c-94.5,0-162.3,44.9-162.3,116.5c0,58.2,43,95.5,148.9,117.4l92.6,19.1
		c180.5,37.2,254.9,109.8,254.9,236.8c0,163.3-128.9,266.4-334.2,266.4c-197.6,0-328.5-96.4-336.1-253H9500.3L9500.3,1024.5z"/>
</g>
</svg>
