<?xml version="1.0" encoding="utf-8"?>
<!-- Generator: Adobe Illustrator 23.0.1, SVG Export Plug-In . SVG Version: 6.00 Build 0)  -->
<!DOCTYPE svg PUBLIC "-//W3C//DTD SVG 1.1//EN" "http://www.w3.org/Graphics/SVG/1.1/DTD/svg11.dtd" [
	<!ENTITY ns_extend "http://ns.adobe.com/Extensibility/1.0/">
	<!ENTITY ns_ai "http://ns.adobe.com/AdobeIllustrator/10.0/">
	<!ENTITY ns_graphs "http://ns.adobe.com/Graphs/1.0/">
	<!ENTITY ns_vars "http://ns.adobe.com/Variables/1.0/">
	<!ENTITY ns_imrep "http://ns.adobe.com/ImageReplacement/1.0/">
	<!ENTITY ns_sfw "http://ns.adobe.com/SaveForWeb/1.0/">
	<!ENTITY ns_custom "http://ns.adobe.com/GenericCustomNamespace/1.0/">
	<!ENTITY ns_adobe_xpath "http://ns.adobe.com/XPath/1.0/">
]>
<svg version="1.1" id="Layer_1" xmlns:x="&ns_extend;" xmlns:i="&ns_ai;" xmlns:graph="&ns_graphs;"
	 xmlns="http://www.w3.org/2000/svg" xmlns:xlink="http://www.w3.org/1999/xlink" x="0px" y="0px" viewBox="0 0 9613.6 1526.2"
	 style="enable-background:new 0 0 9613.6 1526.2;" xml:space="preserve">
<metadata>
	<sfw  xmlns="&ns_sfw;">
		<slices></slices>
		<sliceSourceBounds  bottomLeftOrigin="true" height="1526.2" width="9613.6" x="-4751.6" y="-753.6"></sliceSourceBounds>
	</sfw>
</metadata>
<g id="iPhone_X_R">
	<path d="M0,140.4C0,68.9,57.6,13.1,128.2,13.1c71.5,0,129.1,55.8,129.1,127.3c0,69.8-57.6,126.5-129.1,126.5
		C57.6,266.9,0,210.2,0,140.4z M17.4,424.7H239v1078.8H17.4V424.7z M1049.2,23.5c286.9,0,487.5,198,487.5,485.8
		c0,289.5-204.1,488.4-494.5,488.4H723.9v505.8H494.5V23.5H1049.2z M723.9,805h263.4c199.7,0,314-107.3,314-293.9
		S1187,218,988.1,218H723.9V805z M1693.7,23.5h219.8v584.3h5.2c64.5-129.1,176.2-196.2,341.9-196.2c237.2,0,378.5,157.9,378.5,402.1
		v689h-222.4V857.3c0-158.7-80.2-255.5-235.5-255.5c-164,0-264.3,112.5-264.3,284.3v616.6h-221.5V23.5L1693.7,23.5z M2796.9,963.7
		c0-339.3,199.7-552.9,511.9-552.9c313.1,0,511.9,213.7,511.9,552.9c0,340.1-198,552.9-511.9,552.9S2796.9,1304.7,2796.9,963.7z
		 M3594.9,963.7c0-232.9-106.4-369.8-286.1-369.8c-179.7,0-286.1,138.7-286.1,369.8c0,233.7,106.4,369.8,286.1,369.8
		C3488.5,1334.4,3594.9,1198.3,3594.9,963.7z M3979.6,424.7h211.1v183.1h5.2c64.5-129.1,173.6-196.2,339.3-196.2
		c238.1,0,374.1,152.6,374.1,400.3v691.6h-222.4v-648c0-162.2-75-252-231.1-252c-158.7,0-255.5,112.5-255.5,279.1v621.8h-221.5
		C3978.7,1504.4,3979.6,424.7,3979.6,424.7z M6042.2,1187c-29.7,196.2-220.7,330.5-464.8,330.5c-314,0-508.5-210.2-508.5-547.7
		c0-338.4,196.2-558.2,499.7-558.2c298.3,0,485.8,205,485.8,532v75.9h-762.2v13.1c0,184.9,116,305.2,290.4,305.2
		c123,0,219.8-58.4,249.4-151.8C5832,1186.1,6042.2,1187,6042.2,1187z M5293,864.3h539.9c-5.2-164.8-110.8-273.9-264.3-273.9
		S5304.3,701.2,5293,864.3z M6937,762.2v-7L6451.2,24.4H6725l365.4,572.1h7.8l368.9-572.1h259.9l-501.5,738.7v6.1l491.9,734.3
		h-268.6l-368-564.3h-7l-373.3,564.3H6446C6446,1503.6,6937,762.2,6937,762.2z M9609.2,375c-11.3-222.4-150-357.6-370.7-370.7
		L9155.7,0h-610.5l-82.9,4.4C8245.2,14,8105.6,148.3,8091.7,375l-4.4,83.7v608.8l4.4,83.7c17.4,230.2,157,364.6,370.7,370.7
		l82.9,4.4h610.5l82.9-4.4c218-10.5,356.7-144.8,370.7-370.7l4.4-83.7V458.7C9613.6,458.7,9609.2,375,9609.2,375z M9474,1146
		c-0.9,147.4-101.2,237.2-240.7,240.7l-78.5,4.4h-608.8l-78.5-4.4c-141.3-4.4-240.7-95.1-240.7-240.7l-4.4-77.6V457.9l4.4-77.6
		c0-145.6,99.4-236.3,240.7-240.7l78.5-4.4h608.8l78.5,4.4c141.3,4.4,240.7,95.1,240.7,240.7l4.4,77.6v610.5L9474,1146L9474,1146z"
		/>
	<path d="M9017,838.1c94.2-34,149.1-120.4,149.1-224.1c0-150-102-244.2-273-244.2h-314v784.9h141.3V859.1h152.6l155.2,295.7h161.3
		C9189.7,1154.7,9017,838.1,9017,838.1z M8879.2,751.8h-159.6V484h157c89,0,144.8,51.5,144.8,133.4
		C9021.4,702.1,8969.1,751.8,8879.2,751.8z"/>
</g>
</svg>
