<svg xmlns="http://www.w3.org/2000/svg" viewBox="0 0 556.1 52.4" enable-background="new 0 0 556.1 52.4"><path d="M0 4.4c0-2.5 2-4.4 4.4-4.4s4.4 1.9 4.4 4.4c0 2.4-1.9 4.4-4.4 4.4s-4.4-2-4.4-4.4zm.6 10.3h7.6v37h-7.6v-37zM35.9.9c9.8 0 16.7 6.8 16.7 16.7 0 9.9-7 16.7-16.9 16.7h-10.9v17.3h-7.9v-50.7h19zm-11.1 26.8h9c6.9 0 10.8-3.7 10.8-10.1s-4-10-10.8-10h-9.1v20.1zM58.9.9h7.5v19.9h.2c2-4.3 6.1-6.8 11.7-6.8 8.1 0 13 5.4 13 13.8v23.8h-7.6v-22.3c0-5.4-2.7-8.7-8.1-8.7-5.6 0-9.1 3.9-9.1 9.7v21.4h-7.6v-50.8zM96.9 33.2c0-11.9 7-19.2 17.5-19.2s17.6 7.3 17.6 19.2c0 11.9-7 19.2-17.5 19.2s-17.6-7.3-17.6-19.2zm27.3 0c0-8.2-3.9-12.9-9.8-12.9s-9.8 4.7-9.8 12.9 3.9 12.9 9.8 12.9c6 0 9.8-4.7 9.8-12.9zM137.8 14.7h7.2v6.2h.2c2-4.2 5.9-6.8 11.6-6.8 8.2 0 12.8 5.2 12.8 13.7v23.9h-7.6v-22.5c0-5.6-2.6-8.6-7.9-8.6-5.3 0-8.8 3.8-8.8 9.5v21.6h-7.6v-37zM208.8 40.8c-1.1 6.8-7.5 11.6-15.9 11.6-10.9 0-17.4-7.3-17.4-19 0-11.6 6.7-19.3 17.1-19.3 10.3 0 16.7 7.2 16.7 18.5v2.6h-26.1v.5c0 6.4 3.9 10.7 9.9 10.7 4.3 0 7.5-2.2 8.5-5.4h7.2zm-25.7-11h18.5c-.2-5.7-3.8-9.6-9.1-9.6s-9 4-9.4 9.6zM242.6 8.8h-.2l-13.3 9.1v-7.5l13.4-9.5h7.8v50.7h-7.7v-42.8zM275.5 8.8h-.2l-13.3 9.1v-7.5l13.4-9.5h7.8v50.7h-7.7v-42.8zM329.9.9c9.8 0 16.7 6.8 16.7 16.7 0 9.9-7 16.7-16.9 16.7h-10.9v17.3h-7.9v-50.7h19zm-11.1 26.8h9c6.9 0 10.8-3.7 10.8-10.1s-3.9-10.1-10.7-10.1h-9.1v20.2zM352.6 14.7h7.2v6.3h.2c1.2-4.3 4.5-6.9 8.9-6.9 1.1 0 2 .2 2.6.3v7.1c-.6-.2-1.9-.4-3.4-.4-4.9 0-7.9 3.3-7.9 8.5v22.1h-7.6v-37zM373 33.2c0-11.9 7-19.2 17.5-19.2s17.5 7.3 17.5 19.2c0 11.9-7 19.2-17.5 19.2s-17.5-7.3-17.5-19.2zm27.3 0c0-8.2-3.9-12.9-9.8-12.9s-9.8 4.7-9.8 12.9 3.9 12.9 9.8 12.9c6 0 9.8-4.7 9.8-12.9zM473.6 51.7v-37.4h-.2l-15.4 37.4h-5.8l-15.3-37.3h-.2v37.3h-7.2v-50.8h9.1l16.4 40.5h.3l16.4-40.4h9.1v50.7h-7.2zM486.8 41.2c0-6.5 5-10.4 13.7-10.9l10.1-.6v-2.8c0-4.1-2.8-6.6-7.4-6.6-4.4 0-7.1 2.1-7.8 5.4h-7.2c.4-6.7 6.1-11.6 15.3-11.6 9 0 14.7 4.7 14.7 12.2v25.5h-7.3v-6.1h-.2c-2.1 4.1-6.8 6.7-11.7 6.7-7.2-.1-12.2-4.6-12.2-11.2zm23.8-3.4v-2.9l-9.1.6c-4.5.3-7.1 2.3-7.1 5.5s2.7 5.3 6.8 5.3c5.3 0 9.4-3.7 9.4-8.5zM539.2 38.1l-8.2 13.6h-8.2l12.2-18.5-12-18.5h8.5l8.1 13.4h.1l8-13.4h8.4l-12.2 18.3 12 18.7h-8.4l-8.2-13.6h-.1z"/></svg>