<?xml version="1.0" encoding="UTF-8" ?>
<!DOCTYPE svg PUBLIC "-//W3C//DTD SVG 1.1//EN" "http://www.w3.org/Graphics/SVG/1.1/DTD/svg11.dtd">
<svg width="1022pt" height="194pt" viewBox="0 0 1022 194" version="1.1" xmlns="http://www.w3.org/2000/svg">
<g id="#111111ff">
<path fill="#111111" opacity="1.00" d=" M 52.46 39.63 C 59.44 37.06 67.59 43.62 66.34 51.04 C 65.70 59.05 55.02 63.21 48.97 58.04 C 42.46 53.35 44.42 41.47 52.46 39.63 Z" />
<path fill="#111111" opacity="1.00" d=" M 84.46 41.26 C 99.32 41.30 114.18 41.26 129.04 41.28 C 139.40 41.36 149.99 45.25 156.97 53.10 C 166.68 64.14 168.48 80.77 163.32 94.26 C 159.13 105.39 148.70 113.49 137.13 115.73 C 126.37 117.66 115.36 116.34 104.49 116.72 C 104.49 129.14 104.49 141.57 104.49 154.00 C 97.83 154.00 91.17 154.00 84.51 154.00 C 84.48 116.42 84.57 78.84 84.46 41.26 M 104.49 100.54 C 111.29 100.44 118.10 100.68 124.90 100.43 C 131.39 100.11 138.29 97.72 142.11 92.17 C 146.04 86.71 146.30 79.56 145.29 73.15 C 143.84 65.64 137.38 59.73 129.91 58.45 C 121.51 57.13 112.96 57.97 104.49 57.72 C 104.49 71.99 104.51 86.26 104.49 100.54 Z" />
<path fill="#111111" opacity="1.00" d=" M 180.24 41.24 C 186.58 41.31 192.91 41.27 199.25 41.26 C 199.42 56.26 198.81 71.30 199.58 86.27 C 202.48 78.43 209.72 72.49 217.90 70.91 C 226.12 69.08 235.22 70.03 242.44 74.53 C 250.59 79.72 254.48 89.63 254.59 99.00 C 254.61 117.33 254.58 135.66 254.60 153.99 C 248.20 154.00 241.80 154.01 235.40 153.99 C 235.41 137.34 235.39 120.69 235.41 104.04 C 235.39 98.08 233.00 91.44 227.40 88.58 C 220.22 84.97 210.51 85.92 204.78 91.79 C 200.88 95.77 199.28 101.50 199.38 106.96 C 199.32 122.64 199.37 138.32 199.36 154.00 C 192.99 154.00 186.63 154.01 180.27 153.99 C 180.26 116.41 180.33 78.82 180.24 41.24 Z" />
<path fill="#111111" opacity="1.00" d=" M 567.75 41.26 C 593.92 41.29 620.08 41.27 646.25 41.27 C 646.21 46.87 646.25 52.48 646.23 58.08 C 630.09 89.99 614.02 121.94 598.07 153.95 C 591.06 154.01 584.04 154.08 577.02 153.91 C 593.68 121.90 610.06 89.75 626.74 57.75 C 607.07 57.71 587.41 57.73 567.75 57.73 C 567.77 52.24 567.77 46.75 567.75 41.26 Z" />
<path fill="#111111" opacity="1.00" d=" M 696.15 41.24 C 710.78 41.32 725.40 41.26 740.03 41.27 C 748.77 41.32 757.75 43.82 764.58 49.46 C 779.59 61.61 781.61 85.57 771.12 101.24 C 764.47 111.03 752.68 116.35 741.05 116.69 C 732.84 116.73 724.63 116.82 716.44 116.62 C 715.39 119.31 715.92 122.22 715.81 125.03 C 715.95 134.69 715.75 144.34 715.82 154.00 C 709.27 154.00 702.72 154.00 696.18 154.00 C 696.02 138.00 696.50 121.98 695.93 106.00 C 696.20 99.02 696.39 91.98 695.94 85.00 C 696.48 70.42 695.95 55.83 696.15 41.24 M 716.11 62.00 C 715.58 71.30 715.74 80.68 716.02 90.00 C 715.67 93.48 715.83 96.98 715.82 100.47 C 722.84 100.49 729.87 100.70 736.89 100.39 C 743.61 100.04 750.63 97.19 754.25 91.23 C 758.33 84.08 758.55 74.74 754.60 67.48 C 751.50 61.90 745.28 58.73 739.10 58.09 C 731.53 57.32 723.93 57.99 716.35 57.62 C 715.85 59.06 715.60 60.52 716.11 62.00 Z" />
<path fill="#111111" opacity="1.00" d=" M 791.60 41.27 C 797.99 41.26 804.37 41.32 810.76 41.24 C 810.67 78.82 810.74 116.41 810.73 153.99 C 804.36 154.01 798.00 154.00 791.64 154.00 C 791.61 116.42 791.70 78.85 791.60 41.27 Z" />
<path fill="#111111" opacity="1.00" d=" M 299.48 70.60 C 311.89 68.52 325.82 70.99 335.21 79.84 C 342.24 86.25 345.94 95.55 347.11 104.84 C 348.58 117.28 346.92 130.89 339.12 141.10 C 333.51 148.78 324.45 153.38 315.16 154.71 C 304.37 156.23 292.67 154.72 283.60 148.33 C 275.58 142.82 270.64 133.74 268.73 124.34 C 266.43 111.86 267.41 98.18 274.07 87.12 C 279.47 78.10 289.15 72.13 299.48 70.60 M 303.54 85.73 C 297.95 86.72 293.13 90.64 290.66 95.70 C 286.83 103.43 286.78 112.39 287.82 120.77 C 288.98 126.98 291.68 133.37 297.20 136.89 C 304.72 141.65 315.78 140.58 321.69 133.70 C 326.65 128.05 327.74 120.27 328.17 113.04 C 327.88 105.50 326.79 97.34 321.63 91.45 C 317.31 86.31 309.99 84.33 303.54 85.73 Z" />
<path fill="#111111" opacity="1.00" d=" M 394.16 72.06 C 403.36 68.85 414.12 69.30 422.57 74.38 C 430.80 79.55 434.41 89.64 434.57 98.98 C 434.64 117.32 434.57 135.65 434.60 153.99 C 428.20 154.01 421.80 154.00 415.40 153.99 C 415.41 137.33 415.40 120.66 415.40 104.00 C 415.33 98.09 413.27 91.35 407.67 88.45 C 401.00 85.26 392.32 85.82 386.60 90.71 C 382.31 94.52 380.31 100.37 380.36 106.01 C 380.34 122.01 380.36 138.00 380.36 154.00 C 373.97 154.00 367.59 154.00 361.21 154.00 C 360.90 127.29 361.38 100.53 361.15 73.79 C 361.00 73.23 360.71 72.09 360.56 71.53 C 366.77 70.35 373.19 71.31 379.49 71.00 C 379.61 76.05 379.20 81.11 379.76 86.14 C 382.69 79.92 387.54 74.40 394.16 72.06 Z" />
<path fill="#111111" opacity="1.00" d=" M 457.89 81.97 C 468.94 69.33 488.46 66.89 503.46 73.26 C 513.52 77.55 520.70 87.12 523.14 97.66 C 524.95 104.05 524.59 110.72 524.60 117.27 C 505.28 117.26 485.96 117.19 466.64 117.31 C 466.52 125.50 470.07 134.51 477.96 138.03 C 487.50 142.47 501.88 140.12 505.93 129.29 C 511.93 129.25 517.94 129.30 523.94 129.25 C 522.72 137.05 518.02 144.15 511.42 148.45 C 502.26 154.60 490.67 156.23 479.89 154.73 C 470.84 153.41 461.95 149.08 456.36 141.68 C 451.20 135.26 448.80 127.12 447.87 119.05 C 446.74 106.12 449.06 91.99 457.89 81.97 M 473.14 90.35 C 469.32 94.04 467.24 99.26 467.07 104.53 C 479.98 104.53 492.90 104.52 505.82 104.54 C 505.67 98.55 503.30 92.33 498.34 88.71 C 490.98 83.27 479.68 83.83 473.14 90.35 Z" />
<path fill="#111111" opacity="1.00" d=" M 934.53 72.49 C 945.28 68.97 957.37 69.00 967.87 73.41 C 975.59 76.61 981.76 83.57 983.14 91.94 C 983.22 92.83 983.38 94.60 983.46 95.48 C 977.50 95.48 971.53 95.44 965.57 95.51 C 965.03 92.30 963.64 89.02 960.80 87.20 C 955.40 83.68 948.29 83.43 942.32 85.52 C 938.33 86.86 934.91 90.79 935.64 95.19 C 936.41 98.66 939.55 100.94 942.73 102.10 C 954.27 106.19 967.41 106.04 977.81 113.10 C 984.78 117.79 986.65 127.31 984.60 135.04 C 982.70 142.95 976.10 148.91 968.75 151.85 C 959.07 155.68 948.19 156.17 938.06 153.95 C 929.98 152.16 922.11 147.57 917.97 140.19 C 916.02 136.95 915.43 133.18 914.59 129.56 C 920.89 129.46 927.20 129.62 933.51 129.46 C 934.57 133.72 937.23 137.78 941.49 139.37 C 947.65 141.70 954.90 141.71 960.93 138.96 C 965.58 137.07 968.07 130.53 964.55 126.51 C 960.68 122.70 954.97 122.10 949.96 120.80 C 940.14 118.42 929.00 117.01 921.90 109.05 C 916.80 103.72 916.40 95.73 917.73 88.85 C 919.88 80.86 926.88 75.03 934.53 72.49 Z" />
<path fill="#111111" opacity="1.00" d=" M 46.18 71.00 C 52.57 71.00 58.96 71.00 65.36 71.00 C 65.36 98.67 65.36 126.33 65.36 154.00 C 58.96 154.00 52.57 154.00 46.18 154.00 C 46.24 126.33 46.07 98.67 46.18 71.00 Z" />
<path fill="#111111" opacity="1.00" d=" M 827.74 71.18 C 834.27 70.80 840.81 71.08 847.36 71.00 C 847.37 87.98 847.33 104.97 847.37 121.95 C 847.32 127.53 849.62 133.52 854.62 136.43 C 860.95 139.87 869.26 139.47 875.16 135.28 C 880.18 131.55 882.36 125.05 882.41 118.98 C 882.39 102.99 882.41 87.00 882.40 71.01 C 888.80 70.99 895.20 70.99 901.60 71.01 C 901.59 98.67 901.59 126.33 901.60 153.99 C 895.36 153.80 889.06 154.43 882.86 153.67 C 883.36 149.18 883.12 144.68 883.21 140.18 C 882.89 140.27 882.26 140.44 881.94 140.53 C 879.27 146.41 874.34 151.27 868.18 153.35 C 859.37 156.32 849.17 155.68 841.07 150.99 C 833.98 146.90 829.71 139.11 828.55 131.17 C 827.94 126.80 828.36 122.37 828.03 117.98 C 828.36 109.66 828.14 101.31 827.92 92.99 C 828.29 85.74 828.46 78.42 827.74 71.18 Z" />
</g>
</svg>
