<?xml version="1.0" encoding="utf-8"?>
<!-- Generator: Adobe Illustrator 16.0.3, SVG Export Plug-In . SVG Version: 6.00 Build 0)  -->
<!DOCTYPE svg PUBLIC "-//W3C//DTD SVG 1.1//EN" "http://www.w3.org/Graphics/SVG/1.1/DTD/svg11.dtd">
<svg version="1.1" id="Capa_1" xmlns="http://www.w3.org/2000/svg" xmlns:xlink="http://www.w3.org/1999/xlink" x="0px" y="0px"
	 width="566.93px" height="566.93px" viewBox="0 0 566.93 566.93" enable-background="new 0 0 566.93 566.93" xml:space="preserve">
<g>
	<path fill-rule="evenodd" clip-rule="evenodd" d="M283.465,0C440.02,0,566.93,126.91,566.93,283.465
		c0,156.554-126.91,283.465-283.465,283.465S0,440.019,0,283.465C0,126.91,126.91,0,283.465,0L283.465,0z"/>
	<path fill-rule="evenodd" clip-rule="evenodd" fill="#FFFFFF" d="M277.124,62.1c122.183-3.117,223.755,93.402,226.872,215.584
		c3.117,122.182-93.402,223.755-215.584,226.872C166.231,507.674,64.657,411.154,61.54,288.972
		C58.423,166.791,154.942,65.217,277.124,62.1L277.124,62.1z"/>
	<path fill="#FFFFFF" d="M47.112,145.857l9.705-14.39c1.923-2.852,3.476-4.898,4.662-6.133c1.179-1.246,2.516-2.159,4.016-2.756
		c1.501-0.597,3.115-0.837,4.869-0.727c1.747,0.106,3.405,0.686,4.955,1.729c1.685,1.137,2.931,2.638,3.727,4.49
		c0.793,1.865,1.017,3.807,0.675,5.834c2.113-1.756,4.346-2.714,6.672-2.857c2.336-0.14,4.544,0.494,6.623,1.896
		c1.636,1.103,2.975,2.555,4.009,4.362c1.027,1.803,1.564,3.68,1.602,5.618c0.035,1.938-0.491,3.947-1.58,6.03
		c-0.69,1.292-2.577,4.274-5.672,8.932l-8.266,12.252L47.112,145.857L47.112,145.857z M58.011,142.624l8.322,5.615l3.213-4.76
		c1.909-2.835,3.054-4.623,3.434-5.367c0.695-1.336,0.929-2.604,0.695-3.798c-0.231-1.191-0.931-2.176-2.098-2.965
		c-1.116-0.751-2.221-1.059-3.331-0.916c-1.115,0.15-2.149,0.781-3.105,1.894c-0.572,0.661-2.009,2.705-4.316,6.124L58.011,142.624
		L58.011,142.624z M72.324,152.28l9.622,6.49l4.535-6.721c1.771-2.624,2.822-4.328,3.146-5.136c0.538-1.209,0.644-2.417,0.347-3.606
		c-0.302-1.194-1.093-2.226-2.368-3.085c-1.083-0.729-2.174-1.079-3.282-1.066c-1.11,0.02-2.171,0.4-3.181,1.159
		c-1.012,0.757-2.633,2.795-4.861,6.1L72.324,152.28L72.324,152.28z M134.835,108.242l-26.131-34.679l7.001-5.276l26.134,34.679
		L134.835,108.242L134.835,108.242z M180.952,77.301l-17.517-39.344l8.008-3.564l14.539,32.656l19.915-8.865l2.977,6.687
		L180.952,77.301L180.952,77.301z M252.784,55.21l-3.004-42.962l8.745-0.612l2.493,35.66l21.744-1.521l0.511,7.303L252.784,55.21
		L252.784,55.21z M339.387,14.997l8.426,2.415l-6.482,22.604c-1.029,3.588-1.592,5.952-1.689,7.067
		c-0.133,1.815,0.338,3.434,1.395,4.849c1.064,1.432,2.773,2.478,5.125,3.154c2.389,0.686,4.338,0.717,5.834,0.083
		c1.492-0.622,2.566-1.621,3.217-2.97c0.662-1.356,1.457-3.682,2.406-6.986l6.619-23.09l8.426,2.415l-6.287,21.923
		c-1.439,5.016-2.676,8.49-3.725,10.43c-1.053,1.936-2.389,3.437-4.02,4.515c-1.633,1.069-3.602,1.731-5.885,1.992
		c-2.293,0.258-5.096-0.093-8.396-1.042c-3.986-1.142-6.879-2.464-8.674-3.977c-1.795-1.516-3.076-3.176-3.85-4.986
		c-0.773-1.808-1.119-3.582-1.033-5.303c0.129-2.547,0.869-6.153,2.211-10.831L339.387,14.997L339.387,14.997z M403.336,87.166
		l24.281-35.999l7.074,4.773l-1.482,33.975l16.215-24.039l6.758,4.559L431.9,106.434l-7.301-4.925l1.326-33.262l-15.834,23.476
		L403.336,87.166L403.336,87.166z M501.443,116.847l8.729,13.441c1.965,3.026,3.234,5.48,3.803,7.376
		c0.762,2.545,0.83,5.104,0.203,7.669c-0.609,2.564-1.822,5.004-3.631,7.308c-1.816,2.304-4.424,4.567-7.84,6.785
		c-2.992,1.943-5.822,3.25-8.479,3.911c-3.234,0.813-6.221,0.906-8.959,0.275c-2.072-0.461-4.158-1.557-6.26-3.274
		c-1.57-1.283-3.234-3.29-5.002-6.011l-8.98-13.83L501.443,116.847L501.443,116.847z M500.053,128.2l-24.113,15.659l3.564,5.488
		c1.33,2.051,2.404,3.466,3.234,4.225c1.07,0.995,2.213,1.663,3.439,1.99c1.223,0.324,2.814,0.194,4.768-0.361
		c1.945-0.568,4.344-1.761,7.158-3.589c2.814-1.827,4.803-3.48,5.99-4.952c1.188-1.481,1.912-2.942,2.174-4.377
		c0.266-1.45,0.096-2.953-0.5-4.52c-0.428-1.179-1.623-3.262-3.572-6.264L500.053,128.2L500.053,128.2z"/>
	<path fill="#FFFFFF" d="M84.046,401.571l8.728,13.441c1.965,3.026,3.235,5.48,3.802,7.377c0.761,2.545,0.831,5.104,0.204,7.668
		c-0.609,2.565-1.823,5.004-3.63,7.309c-1.818,2.304-4.424,4.566-7.841,6.784c-2.992,1.943-5.822,3.25-8.477,3.911
		c-3.235,0.813-6.223,0.906-8.961,0.275c-2.071-0.463-4.156-1.558-6.259-3.275c-1.57-1.282-3.235-3.289-5.001-6.011l-8.981-13.829
		L84.046,401.571L84.046,401.571z M82.656,412.925l-24.114,15.659l3.564,5.488c1.332,2.051,2.405,3.466,3.235,4.225
		c1.071,0.995,2.213,1.663,3.438,1.99c1.224,0.324,2.815,0.193,4.769-0.361c1.945-0.567,4.342-1.762,7.158-3.589
		c2.815-1.827,4.802-3.48,5.991-4.952c1.186-1.481,1.911-2.943,2.174-4.377c0.265-1.45,0.096-2.953-0.501-4.521
		c-0.428-1.179-1.624-3.262-3.572-6.264L82.656,412.925L82.656,412.925z M133.351,515.097l-7.625-5.746l2.913-10.162l-13.864-10.446
		l-8.796,5.726l-7.428-5.596l39.642-24.498l7.403,5.578L133.351,515.097L133.351,515.097z M130.794,491.66l4.918-16.473
		l-14.382,9.342L130.794,491.66L130.794,491.66z M175.501,536.512l14.849-40.804l8.02,2.918l6.782,33.326l9.919-27.246l7.659,2.788
		l-14.852,40.804l-8.275-3.012l-6.76-32.597l-9.686,26.61L175.501,536.512L175.501,536.512z M258.606,558.553l-0.759-43.414
		l13.119-0.229l8.391,29.479l7.266-29.753l13.154-0.23l0.758,43.417l-8.137,0.14l-0.598-34.176l-8.026,34.329l-8.438,0.146
		l-9.192-34.025l0.597,34.176L258.606,558.553L258.606,558.553z M387.936,537.885l-9.078,2.95l-6.654-8.212l-16.51,5.362
		l-0.354,10.491l-8.846,2.874l2.668-46.524l8.818-2.864L387.936,537.885L387.936,537.885z M367.273,526.539L356.6,513.063
		l-0.598,17.136L367.273,526.539L367.273,526.539z M429.992,517.074l-26.732-34.216l14.547-11.365
		c3.654-2.857,6.553-4.618,8.689-5.299c2.135-0.681,4.316-0.631,6.539,0.162c2.229,0.798,4.123,2.206,5.705,4.228
		c2.004,2.567,2.908,5.286,2.709,8.136c-0.205,2.84-1.639,5.664-4.307,8.445c2.184-0.298,4.164-0.305,5.951-0.021
		c1.789,0.285,4.537,1.11,8.266,2.484l9.398,3.409l-8.26,6.453l-10.816-3.545c-3.855-1.272-6.371-1.999-7.568-2.182
		c-1.193-0.184-2.254-0.112-3.193,0.197c-0.934,0.316-2.186,1.093-3.779,2.338l-1.393,1.091l11.158,14.281L429.992,517.074
		L429.992,517.074z M421.477,491.923l5.105-3.989c3.314-2.589,5.281-4.343,5.891-5.269c0.602-0.919,0.869-1.911,0.803-2.963
		c-0.072-1.046-0.498-2.086-1.301-3.112c-0.904-1.157-1.936-1.835-3.105-2.065c-1.164-0.231-2.383,0.002-3.654,0.688
		c-0.615,0.366-2.326,1.639-5.133,3.829l-5.383,4.206L421.477,491.923L421.477,491.923z M494.6,459.731l-35.129-25.522l5.152-7.091
		l15.598,11.334l-5.186-25.665l6.928-9.536l4.076,23.169l31.576,1.634l-6.668,9.177l-23.5-2.328l1.688,10.027l10.617,7.713
		L494.6,459.731L494.6,459.731z"/>
	<path fill-rule="evenodd" clip-rule="evenodd" fill="#E04741" d="M402.893,125.272c4.867-0.317,10.525,3.803,14.625,7.409
		c10.314,9.074,21.18,21.798,29.615,33.414c7.01,9.656,9.707,20.87,9.707,33.208v153.425v11.432c0,11.992-1.148,23.722-6.377,31.673
		c-9.58,14.576-24.414,30.455-30.301,35.5c-3.85,3.302-11.512,9.804-17.27,9.804c-15.729,0-28.594-12.867-28.594-28.595V153.867
		C374.299,138.139,386.914,126.316,402.893,125.272L402.893,125.272z M410.09,172.371c11.537,7.944,18.203,26.92,18.195,38.875
		l-0.102,155.561c-0.01,15.569-13.822,34.039-18.773,34.039c-4.178,0-3.283-10.838-3.283-22.417V187.974
		C406.127,176.392,405.961,169.529,410.09,172.371L410.09,172.371z M323.404,262.266h11.348h21.875v176.193
		c0,18.813-11.879,37.652-33.223,42.334c-10.629,2.331-21.264,3.795-31.895,3.876c-14.633,0.113-24.584-9.673-24.584-34.124v-320.5
		c0-18.981,7.062-48.954,31.895-47.313c8.584,0.565,16.748,1.884,24.584,3.36c6.99,1.317,33.223,3.144,33.223,44.618v80.536
		l-33.223-0.18v-82.764c0-11.852-4.789-11.859-10.334-12.38c-5.545-0.519-14.326-2.513-14.324,12.798l0.074,311.15
		c0.002,13.548,1.375,15.24,11.061,13.926s13.523-2.437,13.523-16.74V298.608h-13.893v-36.343H323.404L323.404,262.266z
		 M180.762,110.246c26.144-15.25,48.426-21.663,68.063-25.247v39.595c-9.823,1.39-19.649,3.878-29.47,8.884v125.729h29.47v42.663
		h-29.47v126.589c9.624,5.333,19.506,7.735,29.47,11.054v42.459c-23.668-4.296-46.409-12.459-68.063-25.124V110.246L180.762,110.246
		z M109.197,182.292c10.4-17.485,22.783-32.248,36.045-45.566v238.485c5.524,6.647,11.049,12.138,16.576,16.171v52.94
		c-19.383-14.861-37.156-33.813-52.621-59.53V182.292L109.197,182.292z"/>
</g>
</svg>
