<svg xmlns="http://www.w3.org/2000/svg" viewBox="0 0 2165.48292 506.54579"><defs><style>.a{fill:#ee303d;}</style></defs><path class="a" d="M1548.52166,506.53483a46.49015,46.49015,0,0,1-34.0816-15.37174c-4.39246-4.79074-4.18421-6.30771.884-10.35571,1.298-1.03674,2.693-1.95218,4.048-2.9169,10.3786-7.38913,10.38642-7.399,20.66962.15341,3.84656,2.82489,7.9566,4.93927,12.89172,4.46744,4.34339-.41532,7.59113-2.322,8.439-7.03629.77222-4.29379-1.35687-7.1044-4.91052-8.84079-2.9726-1.45242-6.17389-2.44156-9.28858-3.59692-6.87066-2.54871-13.723-5.16419-19.747-9.44345-17.92553-12.73355-17.69043-37.34091.43262-49.72153,17.0943-11.67779,44.72833-8.85727,58.99115,6.02066,4.97009,5.18457,4.89685,6.35288-.7937,10.98569-1.28833,1.049-2.676,1.97488-4.00623,2.97293-10.04492,7.53461-10.07519,7.57925-20.54827.14133-3.68226-2.615-7.48346-4.32212-12.08515-3.09937a6.1824,6.1824,0,0,0-4.75818,4.6012c-.74365,2.85895-.09814,5.42437,2.42084,7.00165a51.17416,51.17416,0,0,0,7.17047,3.42617c7.64655,3.25876,15.38068,6.276,22.56091,10.58087,22.58728,13.54221,17.20441,40.6973,1.44916,51.83307C1569.77185,504.336,1560.28472,506.72983,1548.52166,506.53483Z"/><path class="a" d="M1393.33453,396.72184c-30.408-.63269-55.615,23.10657-56.3086,53.03015-.71655,30.89789,23.123,56.07147,53.66187,56.66547,30.20728.58758,55.32812-23.485,55.83643-53.50653C1447.03887,422.52012,1423.20611,397.34324,1393.33453,396.72184Zm-1.36768,78.96979q-.21716-.00092-.43481-.0058a24.12425,24.12425,0,1,1,.09277-48.24842q.40833.00082.81641.01539c13.52051.32373,23.54809,10.84484,23.408,24.56011A23.78092,23.78092,0,0,1,1391.96685,475.69163Z"/><path class="a" d="M1231.63424,452.37369c0-13.63116-.05737-27.26272.01709-40.8934.06519-11.96933.13037-11.97055,12.51822-12.00522,2.99283-.00842,5.98642-.04541,8.97827.00659,9.436.16379,9.93088.55567,9.95407,10.39515q.09852,41.89086-.02514,83.78183c-.03345,9.562-.46363,9.83505-10.34909,9.97006-4.3219.05908-8.65189.14-12.96695-.04944-7.04108-.30914-7.93631-1.053-8.0325-8.318-.189-14.29361-.05542-28.59153-.05542-42.88758Z"/><path class="a" d="M1124.27032,403.95029c-7.23486-2.572-14.62329-4.44525-22.3877-4.43182-10.63891.01843-21.27905-.11994-31.91662.00061-9.10547.10339-9.59461.52209-9.70349,9.66754-.16626,13.95911-.04346,27.92163-.04346,41.88269h.03809c0,14.95825-.147,29.9187.06762,44.8739.09449,6.57929,1.08765,7.53034,7.64917,7.60785,12.29761.1452,24.627.39185,36.8927-.299a59.07367,59.07367,0,0,0,35.60364-13.84882C1163.41,470.09153,1164.40252,418.21732,1124.27032,403.95029Zm-2.12561,60.8855c-3.635,8.35291-19.70471,14.5553-28.56836,11.73493-3.27564-1.04224-3.54724-3.6222-3.57446-6.32471-.06372-6.30414-.02039-12.60968-.02039-18.91461l.05188.00006c0-6.30493.01587-12.60968-.00561-18.91461-.014-4.092,1.965-6.19117,6.07849-6.06287,9.4563.29449,19.14819.9729,24.80456,9.822C1126.66815,445.18247,1126.31964,455.24259,1122.14471,464.83579Z"/><path class="a" d="M984.78735,435.759c0,8.98273.28294,17.976-.05249,26.946-1.04428,27.92029-17.179,43.45874-45.08732,43.71222-1.99543.01807-3.99574-.00427-5.98739-.11951-24.95393-1.44415-38.77766-14.11822-40.9784-38.95413-1.79207-20.223-.5045-40.56411-.66331-60.85229-.04053-5.1676,2.59771-7.09036,7.45183-6.99848,4.98937.09446,9.98777-.16183,14.9725.01294,7.00618.24579,7.81132.958,7.90812,8.38779.18225,13.97119.03675,27.94641.082,41.91965a128.936,128.936,0,0,0,.36925,12.96081c1.13315,10.84192,5.9686,15.41944,15.802,15.41187,9.64331-.00733,14.55455-4.699,15.70588-15.56735a138.92223,138.92223,0,0,0,.328-13.95972c.06285-13.64044-.05214-27.28323.15746-40.92111.11218-7.29627.89024-7.94089,8.0662-8.197,4.98534-.17783,9.984.0448,14.97262-.07752,5.14269-.12607,7.10859,2.41336,7.04487,7.35141-.12427,9.64676-.0365,19.29611-.0365,28.94446Z"/><path class="a" d="M759.25739,464.53367c0-10.30591-.0819-20.61267.03711-30.91712.0531-4.59912-1.91633-6.69739-6.5301-6.646-5.98348.06665-11.96929-.0626-17.954-.12693-3.97024-.04284-6.21347-1.91165-6.27732-6.03518-.01037-.66465-.06262-1.32856-.07067-1.99308-.27416-22.62319-1.09482-19.20565,17.97767-19.32879,21.28033-.13742,42.56248-.07312,63.84354-.00122,10.21555.03454,10.65414.48169,10.6827,10.73514.05225,18.753,1.0217,16.58581-16.61467,16.66683-14.12829.06495-14.40185-1.48428-14.36449,13.96363.03955,16.28985-.0127,32.57992-.047,48.8699-.02942,13.93189-.04333,13.93445-14.45934,13.93652-2.66008.00037-5.32542.07056-7.97916-.06787-7.34624-.38287-8.00076-.89227-8.12051-8.13882-.17041-10.3031-.04321-20.61112-.04321-30.917Z"/><path class="a" d="M613.06068,506.48185c-9.23157-.21137-21.26787-4.997-30.85845-15.33414-4.45216-4.7988-4.27992-6.24512.7905-10.365a28.82065,28.82065,0,0,1,2.431-1.74689c3.88783-2.53772,7.49016-6.05874,11.75958-7.32724,5.28038-1.569,7.43389,4.62647,11.27619,6.945,4.11659,2.48416,8.24356,4.43121,13.12112,3.77573,4.013-.53919,6.72809-2.79462,7.47136-6.92084a7.32188,7.32188,0,0,0-4.07387-8.33127,84.75228,84.75228,0,0,0-9.18713-3.83148c-7.16167-2.711-14.38377-5.29855-20.69086-9.78748-17.86549-12.71524-17.58828-37.45233.53185-49.6694,17.0673-11.507,43.61213-9.0462,58.24493,5.39984,5.62729,5.55545,5.609,6.92926-.25036,11.6857-1.54891,1.25739-3.177,2.41751-4.77576,3.613-9.4054,7.033-9.42992,7.06375-19.00389-.10776-2.98662-2.23715-6.02207-4.15625-9.93639-4.046-3.64821.10288-6.543,1.45169-7.72561,5.11524-1.27378,3.94558,1.0101,6.36508,4.14076,8.02984a73.62648,73.62648,0,0,0,7.36149,3.077,164.42458,164.42458,0,0,1,19.891,9.25488c24.05418,13.548,18.25185,42.57989.81883,53.54117C636.22022,504.59293,627.332,506.6785,613.06068,506.48185Z"/><path class="a" d="M2074.21466.40325q36.48283,0,72.96533.0058c2.998.00128,6.01721-.13077,8.9895.1675,6.47815.6503,8.979,2.881,9.0708,9.54047q.4204,30.47271.1123,60.95312c-.07885,6.98491-2.8507,9.31346-9.925,9.8654-3.31385.25853-6.66.12973-9.99146.13217q-70.96619.0507-141.93249.06035a76.05816,76.05816,0,0,0-48.99549,17.06762c-40.74035,32.51146-39.72522,96.383,2.03784,127.59134a41.27494,41.27494,0,0,0,23.17,8.24439c14.55163.73616,24.226-7.89353,24.76526-22.59818.42675-11.64433.13549-23.31442.2124-34.97268a65.58552,65.58552,0,0,1,.40723-7.96912c.53759-4.157,3.00451-6.59207,7.24169-6.92236,2.65247-.20687,5.32386-.23194,7.98682-.23287q64.46943-.02133,128.939-.00866c2.332.00024,4.67639-.086,6.99353.11477,6.235.54027,8.24878,2.43131,8.9624,8.49024a60.08549,60.08549,0,0,1,.19946,6.98808q.01941,64.95539.01172,129.91095a58.5102,58.5102,0,0,1-.12988,5.99173c-.67969,6.58939-2.68762,8.84045-9.45239,9.17776-8.31128.41459-16.65284.27765-24.98133.287-11.32788.01294-22.66052.13339-33.98205-.15768-9.53565-.24518-11.65345-2.4794-11.78016-12.09-.21093-15.98706-.06738-31.97852-.27465-47.9657-.18628-14.37356-5.67786-19.84077-20.09839-20.04153q-18.488-.25757-36.98145-.03052c-15.564.184-22.73156,7.14188-22.97058,22.50409-.228,14.65326.00073,29.3129-.11255,43.9686-.08984,11.635-2.05468,13.84634-13.52356,12.68084-54.39868-5.528-96.64709-31.60751-124.41687-78.41406-31.05926-52.35113-31.85412-106.95755-1.87475-159.79912C1895.12213,29.5969,1942.5982,2.12054,2004.25018.54035c23.307-.59733,46.64209-.0969,69.96448-.0969Z"/><path class="a" d="M1485.24133,160.68q-.00513-70.46638.00073-140.93286c.00024-2.99838-.08618-6.00639.116-8.99317.5249-7.76666,2.58465-9.9537,10.45215-10.26741,7.98736-.31841,15.99273-.21779,23.99035-.21809q95.47458-.00384,190.94886.02593c1.99945.00037,4.00939-.12411,5.99639.03479,6.9505.55589,9.67017,2.94913,9.94678,9.89359.3711,9.31549.147,18.65385.22583,27.98191.21607,25.5614,15.87,41.66825,41.62659,42.59809,8.65381.31242,17.32794.00682,25.98981.16378,10.37323.18794,12.33831,2.03064,12.42132,12.33149.16895,20.98886.13843,41.97952.14136,62.96942q.011,73.9648-.03076,147.92949a86.688,86.688,0,0,1-.17139,8.98919c-.62183,5.92829-2.862,8.66263-8.82812,8.74524-20.654.28656-41.318.3327-61.96979-.01819-7.07721-.12021-8.96558-2.77218-9.41626-10.23977-.22022-3.65332-.12256-7.32724-.1228-10.99192-.00464-63.96948-.30909-127.94136.19873-191.90681.1394-17.54273-5.31678-28.39789-28.08619-27.905-37.97241.82176-75.97479.23657-113.96478.25134-2.66571.001-5.33655-.03191-7.99591.117-7.94073.44447-9.978,2.26448-10.37476,10.24416-.364,7.31486-.26074,14.6556-.27124,21.985q-.13659,95.4543-.24926,190.90859c-.02857,17.15842-.70923,17.82074-18.18775,17.88116-16.32867.05637-32.659.08921-48.98626-.08358-11.43256-.12107-13.34778-2.048-13.36487-13.56394Q1485.1668,234.64483,1485.24133,160.68Z"/><path class="a" d="M1443.948,201.05457q0,50.96944-.00317,101.93891c-.00049,2.66488.06616,5.33615-.08789,7.99359-.49268,8.50372-2.49726,10.981-10.729,11.08551q-29.48244.37491-58.97259-.03882c-8.36572-.11533-10.57514-2.54871-10.7663-10.96726-.25659-11.32141-.116-22.65185-.14453-33.97842-.009-3.6644.03247-7.32968-.02881-10.99326-.29-17.37918-6.272-23.62991-23.39758-23.84787-20.656-.26275-41.316-.225-61.97421-.3311-6.99689-.036-14.006.12082-20.98773-.23481-7.80057-.39736-10.08494-2.5752-10.17966-10.47019q-.35454-29.47758-.0332-58.96145c.10424-8.92258,2.30633-10.84125,11.6845-10.89934,24.9896-.15492,49.98038-.09093,74.97068-.158a102.42972,102.42972,0,0,0,12.97427-.439c10.04346-1.31409,16.40265-7.83769,16.72492-18.01906.45288-14.31088.42822-28.65064.1184-42.96737-.2207-10.1854-7.3067-18.10211-17.47174-18.34442-23.97226-.57158-48.09787-2.02906-71.91559.58556-39.6181,4.34913-70.5455,38.93909-71.17962,79.11617-.71485,45.29556-.2771,90.60943-.35425,135.91537-.00842,4.99662.09607,10.00543-.21045,14.98657-.46762,7.6005-2.31439,9.89524-9.53918,9.99506q-29.98146.41447-59.97156.0127c-7.95682-.1113-9.97083-2.33844-10.19772-10.40964-.32752-11.65143-.2179-23.31662-.2035-34.97586.04847-39.30918-.29077-78.6252.33435-117.92566.59287-37.28128,13.27662-70.51378,37.18238-99.09729C1190.517,22.64529,1230.33734,2.61334,1278.53771.57183c24.28159-1.02844,48.63984-.38034,72.96247-.25775,10.237.05157,11.91278,1.97744,12.10687,12.5984.1582,8.65884-.11841,17.32733.12134,25.98257.69775,25.18282,16.32135,40.93935,41.48742,41.84891,7.6551.27668,15.32551.10575,22.9889.16482,14.42956.11118,15.62408,1.12986,15.66046,15.20814.09057,34.979.02978,69.95843.02978,104.93764Z"/><path class="a" d="M1082.90525,121.52323q0,50.9699-.00342,101.93976c-.00048,2.6649.08216,5.33906-.10241,7.9931-.53221,7.65273-2.73334,10.04134-10.49509,10.3102-9.65306.33439-19.323.228-28.98556.24017a39.96019,39.96019,0,0,0-21.02387,5.42217c-11.971,7.213-18.82237,17.78228-19.4597,31.816-.46812,10.30872-.08618,20.653-.33385,30.97535-.22949,9.56439-2.27435,11.73367-11.96574,11.76577-25.32147.08384-50.67726.68161-75.95979-.364C837.64775,318.44,771.543,257.57017,761.575,181.47083a91.33839,91.33839,0,0,1-.8303-11.953c.01123-8.21474,1.74422-10.18564,9.847-10.37822,11.65631-.27716,23.32263-.14334,34.98468-.16512,7.66373-.01434,15.33016-.1196,22.99048.04332,9.37146.19918,10.92745,1.442,12.31816,10.772a83.66539,83.66539,0,0,0,13.35466,35.18275c15.71467,23.21387,37.94736,35.10913,65.57322,36.29233,19.95675.85466,39.97856.35452,59.96938.19453,14.77389-.11825,22.29666-7.47761,22.338-22.17018q.17725-62.96193-.104-125.92493c-.03181-10.54675-1.63689-12.14775-12.31654-12.17927-43.64974-.12906-87.3-.10367-130.94992-.16817-16.39312-.02423-17.396-1.05331-17.421-17.67789-.02453-16.32359-.06469-32.64785.05933-48.97072.09216-12.11835,1.83881-13.967,13.931-13.99614q74.9709-.18067,149.94245-.14c21.32512-.0147,42.6506-.10178,63.97537-.01312,11.39032.04735,13.5613,2.12914,13.59133,13.3683.096,35.97837.03576,71.95729.03576,107.936Z"/><path class="a" d="M563.05157.81821C474.32232.59678,395.58819,69.62778,396.09918,166.405c.50757,96.12867,78.63281,164.48725,167.64184,163.92212,90.16968-.57275,166.20532-71.50817,165.41284-166.10437C728.35125,68.431,649.757.72129,563.05157.81821Zm.04126,244.6947c-38.04321.02112-81.29175-32.38525-80.15027-80.29577.15344-44.54358,35.821-79.77539,80.48084-79.4978A79.573,79.573,0,0,1,642.43633,165.72C642.35845,209.661,606.62554,245.48887,563.09283,245.51291Z"/><path class="a" d="M.11541,161.031Q.11532,89.55921.14269,18.08748C.16992,1.38355,1.09582.44572,17.61907.43Q142.596.311,267.57275.35144c11.96612.00232,13.72241,1.86558,13.917,14.05789.13818,8.66159-.08838,17.33355.23181,25.98671.85681,23.15279,15.63935,38.56321,38.87692,40.167,9.62473.66433,19.32126.23475,28.98227.44191,10.43283.22364,11.89789,1.76881,12.31986,12.42065.066,1.66409.0719,3.33142.07239,4.99723q.02508,102.45888.02453,204.91784c-.00915,18.64637-.28967,18.86567-19.09884,18.92719q-21.99568.07173-43.99152-.06772c-17.18964-.12009-17.596-.52515-17.60254-17.30548q-.03827-97.96153-.0199-195.9231c-.00024-2.33239.05909-4.66692-.01867-6.99682-.43457-13.00675-7.638-20.33148-20.59821-20.71176-6.32587-.18563-12.67-.18386-18.99341.06-12.30792.47468-19.52038,7.73561-20.2149,20.18364-.2041,3.65551-.12354,7.32847-.1261,10.99344q-.03717,53.479-.06128,106.95784c-.00269,3.9982.10413,8.00641-.13391,11.99242-.43518,7.28746-2.5694,9.94392-9.58789,10.03351q-30.487.38919-60.98132-.04381c-7.0625-.1091-9.18262-2.82611-9.68287-10.02522-.20752-2.98612-.107-5.99517-.11041-8.99372q-.065-56.97756-.12884-113.9551a76.17457,76.17457,0,0,0-.29175-9.98025c-1.29437-9.64707-8.29553-16.4773-18.00769-17.04577a193.90967,193.90967,0,0,0-22.98157.01574c-10.95135.66238-17.81909,7.76606-18.32306,18.63842-.33917,7.31675-.19446,14.6576-.20074,21.98779q-.07791,90.9643-.13221,181.92851c-.002,2.6655.10151,5.34113-.09039,7.99445-.52264,7.2251-2.649,9.94516-9.70874,10.03656q-30.48615.3956-60.98077-.10629c-7.194-.1207-9.18994-2.65293-9.76038-9.96775-.25854-3.31439-.14447-6.66015-.145-9.99179Q.014,231.50324.01977,161.0309Z"/></svg>