<?xml version="1.0" encoding="UTF-8" ?>
<!DOCTYPE svg PUBLIC "-//W3C//DTD SVG 1.1//EN" "http://www.w3.org/Graphics/SVG/1.1/DTD/svg11.dtd">
<svg width="604pt" height="90pt" viewBox="0 0 604 90" version="1.1" xmlns="http://www.w3.org/2000/svg">
<g id="#ffffffff">
<path fill="#ffffff" opacity="1.00" d=" M 64.88 7.93 C 65.42 6.46 66.48 5.33 67.71 4.40 C 70.24 9.15 72.74 14.46 71.95 19.98 C 71.34 24.64 63.84 24.58 62.68 20.28 C 61.64 16.07 63.22 11.76 64.88 7.93 Z" />
<path fill="#ffffff" opacity="1.00" d=" M 8.76 26.98 C 8.56 22.89 11.20 17.63 15.92 17.92 C 22.60 17.87 29.29 17.84 35.97 17.93 C 42.75 18.32 48.02 22.97 53.60 26.21 C 53.93 23.11 53.24 19.42 55.86 17.11 C 59.33 20.93 61.60 26.05 66.23 28.68 C 69.11 30.15 71.66 27.46 73.94 26.05 C 76.77 30.26 77.79 35.32 78.73 40.21 C 79.93 46.49 80.46 52.86 80.76 59.23 C 77.59 57.89 74.63 56.11 71.68 54.35 C 69.13 45.34 61.91 38.54 53.92 34.15 C 47.60 30.83 39.76 30.16 33.21 33.20 C 26.34 36.11 21.73 43.55 22.45 51.01 C 22.67 59.37 28.24 67.02 35.95 70.11 C 50.10 76.11 65.92 74.19 80.74 72.38 C 81.57 76.61 77.98 80.65 73.99 81.31 C 54.67 81.38 35.36 81.29 16.04 81.35 C 11.99 81.86 8.59 77.92 8.80 74.03 C 8.73 58.35 8.82 42.67 8.76 26.98 Z" />
</g>
<g id="#dd4f3bff">
<path fill="#dd4f3b" opacity="1.00" d=" M 7.38 1.46 C 8.55 1.25 9.74 1.15 10.94 1.17 C 33.64 1.22 56.34 1.17 79.04 1.20 C 83.38 0.91 87.71 4.51 87.61 8.98 C 87.66 32.67 87.67 56.37 87.61 80.06 C 87.69 84.51 83.37 88.15 79.02 87.72 C 55.67 87.69 32.33 87.76 8.98 87.69 C 4.44 87.82 0.78 83.47 1.17 79.04 C 1.17 56.02 1.17 33.00 1.17 9.98 C 0.88 6.11 3.52 2.26 7.38 1.46 M 64.88 7.93 C 63.22 11.76 61.64 16.07 62.68 20.28 C 63.84 24.58 71.34 24.64 71.95 19.98 C 72.74 14.46 70.24 9.15 67.71 4.40 C 66.48 5.33 65.42 6.46 64.88 7.93 M 8.76 26.98 C 8.82 42.67 8.73 58.35 8.80 74.03 C 8.59 77.92 11.99 81.86 16.04 81.35 C 35.36 81.29 54.67 81.38 73.99 81.31 C 77.98 80.65 81.57 76.61 80.74 72.38 C 65.92 74.19 50.10 76.11 35.95 70.11 C 28.24 67.02 22.67 59.37 22.45 51.01 C 21.73 43.55 26.34 36.11 33.21 33.20 C 39.76 30.16 47.60 30.83 53.92 34.15 C 61.91 38.54 69.13 45.34 71.68 54.35 C 74.63 56.11 77.59 57.89 80.76 59.23 C 80.46 52.86 79.93 46.49 78.73 40.21 C 77.79 35.32 76.77 30.26 73.94 26.05 C 71.66 27.46 69.11 30.15 66.23 28.68 C 61.60 26.05 59.33 20.93 55.86 17.11 C 53.24 19.42 53.93 23.11 53.60 26.21 C 48.02 22.97 42.75 18.32 35.97 17.93 C 29.29 17.84 22.60 17.87 15.92 17.92 C 11.20 17.63 8.56 22.89 8.76 26.98 Z" />
</g>
<g id="#f6883eff">
<path fill="#f6883e" opacity="1.00" d=" M 205.61 13.63 C 213.71 5.32 225.65 1.87 237.02 1.97 C 246.80 1.69 257.02 3.21 265.42 8.52 C 272.24 12.76 277.42 19.44 280.04 27.01 C 283.48 36.92 283.26 47.67 281.76 57.92 C 289.24 56.95 296.69 55.81 304.18 54.92 C 304.58 59.55 304.49 65.30 308.93 68.11 C 312.18 69.51 316.86 69.07 318.85 65.78 C 320.87 62.58 320.92 58.64 321.01 54.99 C 320.99 37.66 320.99 20.33 321.01 3.00 C 329.94 3.04 338.87 2.91 347.81 3.07 C 347.67 18.37 347.81 33.68 347.74 48.98 C 347.52 55.81 347.40 62.73 345.61 69.36 C 343.25 78.41 335.23 85.20 326.42 87.64 C 317.13 90.17 307.15 89.55 297.94 87.04 C 288.22 84.17 281.58 75.14 279.72 65.44 C 276.39 72.67 271.33 79.28 264.31 83.25 C 254.02 89.34 241.51 89.82 229.92 88.59 C 219.72 87.53 209.50 83.06 203.20 74.73 C 195.35 65.10 193.47 52.05 194.48 40.00 C 195.20 30.33 198.61 20.55 205.61 13.63 M 233.50 22.71 C 227.99 24.08 223.68 28.67 222.26 34.10 C 220.37 41.20 220.34 48.81 221.99 55.95 C 223.17 61.55 227.27 66.50 232.84 68.10 C 239.63 69.89 248.20 68.66 252.39 62.45 C 256.00 56.71 256.23 49.60 256.23 43.02 C 255.98 36.97 254.79 30.23 249.93 26.10 C 245.51 22.16 239.09 21.50 233.50 22.71 Z" />
<path fill="#f6883e" opacity="1.00" d=" M 540.92 4.73 C 547.97 2.25 555.51 1.82 562.92 1.98 C 571.62 1.99 581.02 2.43 588.45 7.51 C 595.16 11.93 599.25 19.35 601.19 26.99 C 592.75 28.42 584.29 29.73 575.84 31.11 C 574.00 27.76 571.51 24.47 567.72 23.23 C 560.46 20.89 551.34 22.16 546.41 28.44 C 541.53 34.82 541.65 43.40 542.24 51.01 C 542.73 57.45 545.80 64.27 552.06 66.92 C 560.78 70.72 570.90 68.48 579.07 64.28 C 579.02 62.18 578.99 60.09 578.98 58.00 C 573.12 57.94 567.26 58.15 561.41 57.86 C 561.53 51.97 561.58 46.08 561.37 40.20 C 574.98 39.74 588.61 40.13 602.23 40.00 C 602.20 51.33 602.39 62.68 602.15 74.01 C 600.73 76.21 598.07 77.29 596.00 78.81 C 587.97 84.12 578.82 87.92 569.15 88.70 C 557.69 89.54 545.46 89.45 535.09 83.83 C 525.10 78.48 518.66 68.04 516.48 57.12 C 514.46 46.48 514.96 35.11 519.26 25.07 C 523.26 15.68 531.32 8.16 540.92 4.73 Z" />
<path fill="#f6883e" opacity="1.00" d=" M 97.22 3.04 C 108.89 2.94 120.55 3.04 132.21 2.99 C 136.71 19.75 140.78 36.64 145.34 53.39 C 150.09 36.75 154.09 19.87 158.39 3.10 C 170.08 2.87 181.78 3.07 193.48 3.00 C 193.49 31.33 193.57 59.67 193.44 88.01 C 186.14 87.99 178.84 88.00 171.55 88.01 C 171.42 67.29 171.56 46.56 171.48 25.84 C 169.66 30.08 169.06 34.70 167.75 39.10 C 163.66 55.35 159.30 71.53 155.41 87.83 C 148.72 88.15 142.01 88.04 135.32 87.89 C 130.26 66.81 124.39 45.93 119.44 24.83 C 118.75 29.20 119.04 33.62 119.00 38.02 C 118.99 54.68 119.02 71.34 118.99 88.00 C 111.73 87.97 104.46 88.08 97.20 87.93 C 97.30 59.63 97.25 31.34 97.22 3.04 Z" />
<path fill="#f6883e" opacity="1.00" d=" M 373.07 3.01 C 382.73 2.99 392.39 2.99 402.05 3.01 C 411.10 26.99 420.14 50.97 429.14 74.96 C 429.59 76.10 430.14 77.20 430.70 78.30 C 430.84 53.20 430.68 28.10 430.77 3.01 C 439.11 3.04 447.45 2.90 455.79 3.08 C 465.28 17.26 475.04 31.27 484.57 45.42 C 485.44 46.74 486.42 47.98 487.46 49.18 C 487.58 33.78 487.41 18.39 487.54 2.99 C 495.90 3.10 504.26 2.80 512.61 3.16 C 512.45 31.37 512.41 59.59 512.63 87.80 C 504.17 88.21 495.68 87.97 487.22 87.93 C 479.46 76.37 471.51 64.94 463.69 53.43 C 461.09 49.80 458.85 45.89 455.91 42.51 C 455.56 57.71 455.81 72.92 455.78 88.13 C 439.24 88.35 422.69 88.28 406.15 88.16 C 404.79 83.43 403.28 78.74 401.90 74.02 C 392.01 74.04 382.12 73.88 372.24 74.11 C 370.99 78.76 369.53 83.36 368.16 87.98 C 359.07 88.00 349.99 88.04 340.91 87.96 C 351.66 59.65 362.32 31.31 373.07 3.01 M 377.96 55.97 C 384.07 56.02 390.19 56.01 396.30 55.98 C 393.35 45.96 390.20 35.99 387.32 25.94 C 383.90 35.85 381.10 45.97 377.96 55.97 Z" />
</g>
</svg>
