<?xml version="1.0" encoding="UTF-8" standalone="no"?>
<svg
   xmlns:dc="http://purl.org/dc/elements/1.1/"
   xmlns:cc="http://creativecommons.org/ns#"
   xmlns:rdf="http://www.w3.org/1999/02/22-rdf-syntax-ns#"
   xmlns:svg="http://www.w3.org/2000/svg"
   xmlns="http://www.w3.org/2000/svg"
   xmlns:sodipodi="http://sodipodi.sourceforge.net/DTD/sodipodi-0.dtd"
   xmlns:inkscape="http://www.inkscape.org/namespaces/inkscape"
   version="1.1"
   id="Layer_1"
   x="0px"
   y="0px"
   width="1000"
   height="155.065"
   viewBox="0 0 1000 155.065"
   enable-background="new 0 0 371.914 57.671"
   xml:space="preserve"
   inkscape:version="0.91 r13725"
   sodipodi:docname="Mojang 2013.svg"><metadata
   id="metadata4745"><rdf:RDF><cc:Work
       rdf:about=""><dc:format>image/svg+xml</dc:format><dc:type
         rdf:resource="http://purl.org/dc/dcmitype/StillImage" /><dc:title></dc:title></cc:Work></rdf:RDF></metadata><defs
   id="defs4743" /><sodipodi:namedview
   pagecolor="#ffffff"
   bordercolor="#666666"
   borderopacity="1"
   objecttolerance="10"
   gridtolerance="10"
   guidetolerance="10"
   inkscape:pageopacity="0"
   inkscape:pageshadow="2"
   inkscape:window-width="1366"
   inkscape:window-height="705"
   id="namedview4741"
   showgrid="false"
   inkscape:zoom="0.8442812"
   inkscape:cx="484.49788"
   inkscape:cy="13.710438"
   inkscape:window-x="-8"
   inkscape:window-y="-8"
   inkscape:window-maximized="1"
   inkscape:current-layer="Layer_1" />
<g
   id="g4703"
   transform="matrix(2.6887792,0,0,2.6887792,0,4.1212426e-4)">
	<g
   id="g4705">
		<path
   d="m 57.355,0.316 -11.93,0 -28.906,0 C 7.396,0.316 0,7.713 0,16.834 l 0,35.281 0,5.556 0,0 6.366,0 34.47,0 c 9.124,0 16.519,-7.396 16.519,-16.518 l 0,-33.773 0,-7.064 0,0 z"
   id="path4707"
   inkscape:connector-curvature="0"
   style="fill:#db1f29" />
		<g
   id="g4709">
			<path
   d="m 13.772,48.104 c -4.892,0 -4.892,-4.892 -4.892,-4.892 0,0 0,-19.571 0,-24.466 0,-4.893 4.892,-4.893 4.892,-4.893 0,0 4.893,0 9.786,0 4.894,0 9.786,4.893 9.786,4.893 0,0 4.894,0 0,0 0,-14.251 4.501,5.285 9.786,0 3.46,-3.459 4.893,17.125 4.893,17.125 L 43.13,33.427 c 0,0 0,-4.894 -7.339,-9.786 -9.104,-6.071 -19.572,-2.071 -19.572,7.338 0,19.196 31.804,12.233 31.804,12.233 0,0 0,4.892 -4.893,4.892 -4.892,0 -29.358,0 -29.358,0 z"
   id="path4711"
   inkscape:connector-curvature="0"
   style="fill:#ffffff" />
			<path
   d="m 38.238,13.854 c 0,-1.35 1.095,-7.34 2.445,-7.34 1.352,0 2.446,5.99 2.446,7.34 0,1.353 -1.095,2.447 -2.446,2.447 -1.35,0 -2.445,-1.094 -2.445,-2.447 z"
   id="path4713"
   inkscape:connector-curvature="0"
   style="fill:#ffffff" />
		</g>
	</g>
	<g
   id="g4715">
		<g
   id="g4717">
			<polygon
   points="65.629,0.996 73.528,0.996 90.637,26.182 107.747,0.996 115.492,0.996 115.492,56.675 105.714,56.675 105.714,21.379 93.342,39.77 87.85,39.77 75.479,21.379 75.479,56.675 65.629,56.675 "
   id="polygon4719" />
		</g>
		<g
   id="g4721">
			<path
   d="m 149.727,57.671 c -7.744,0 -14.943,-3.021 -20.271,-8.507 -5.375,-5.545 -8.333,-12.763 -8.333,-20.325 0,-7.57 2.959,-14.788 8.333,-20.325 C 134.783,3.101 142.169,0 149.727,0 c 7.636,0 14.858,3.02 20.337,8.502 5.384,5.549 8.343,12.767 8.343,20.336 0,7.562 -2.958,14.781 -8.332,20.325 -5.412,5.489 -12.636,8.508 -20.348,8.508 z m 0,-47.666 c -4.919,0 -9.567,1.979 -13.088,5.574 -3.56,3.484 -5.512,8.188 -5.512,13.26 0,5.069 1.952,9.77 5.496,13.237 3.531,3.61 8.179,5.59 13.104,5.59 4.947,0 9.774,-2.031 13.242,-5.573 3.506,-3.51 5.433,-8.215 5.433,-13.254 0,-5.042 -1.927,-9.75 -5.426,-13.252 -3.48,-3.55 -8.307,-5.582 -13.249,-5.582 z"
   id="path4723"
   inkscape:connector-curvature="0" />
		</g>
		<g
   id="g4725">
			<path
   d="m 180.215,56.675 0,-9.396 1.062,0 c 16.254,0 19.52,-5.682 19.52,-14.848 l 0,-22.195 -20.582,0 0,-9.165 30.432,0 0,31.36 c 0,16.993 -8.783,24.243 -29.369,24.243 l -1.063,0 z"
   id="path4727"
   inkscape:connector-curvature="0" />
		</g>
		<g
   id="g4729">
			<path
   d="m 253.239,56.675 -5.128,-13.543 -20.26,0 -5.204,13.543 -10.633,0 22.34,-56.363 7.106,0 22.34,56.363 -10.561,0 z m -8.762,-22.931 -6.491,-17.066 -6.491,17.066 12.982,0 z"
   id="path4731"
   inkscape:connector-curvature="0" />
		</g>
		<g
   id="g4733">
			<polygon
   points="299.529,0.996 309.305,0.996 309.305,56.675 301.564,56.675 277.327,21.607 277.327,56.675 267.474,56.675 267.474,0.996 275.062,0.996 299.529,36.372 "
   id="polygon4735" />
		</g>
		<g
   id="g4737">
			<path
   d="m 343.234,57.671 c -7.744,0 -14.943,-3.021 -20.271,-8.506 -5.375,-5.546 -8.334,-12.764 -8.334,-20.326 0,-7.57 2.959,-14.788 8.332,-20.325 C 328.29,3.101 335.677,0 343.234,0 c 7.634,0 14.857,3.02 20.337,8.502 1.944,2.005 3.586,4.245 4.891,6.671 l 0.842,1.566 -11.782,0 -0.501,-0.563 c -0.175,-0.201 -0.351,-0.402 -0.539,-0.591 -3.479,-3.549 -8.305,-5.58 -13.247,-5.58 -4.919,0 -9.567,1.979 -13.089,5.574 -3.559,3.484 -5.511,8.188 -5.511,13.26 0,5.069 1.952,9.77 5.496,13.237 3.53,3.61 8.179,5.59 13.104,5.59 4.947,0 9.773,-2.031 13.24,-5.573 2.377,-2.379 4.036,-5.329 4.85,-8.598 l -20.991,0 0,-10.005 31.095,0 0.14,0.899 c 0.229,1.469 0.347,2.965 0.347,4.45 0,7.562 -2.959,14.78 -8.331,20.325 -5.415,5.488 -12.639,8.507 -20.351,8.507 z"
   id="path4739"
   inkscape:connector-curvature="0" />
		</g>
	</g>
</g>
</svg>