<?xml version="1.0" encoding="UTF-8" ?>
<!DOCTYPE svg PUBLIC "-//W3C//DTD SVG 1.1//EN" "http://www.w3.org/Graphics/SVG/1.1/DTD/svg11.dtd">
<svg width="112" height="112" viewBox="0 0 89 89" version="1.1" xmlns="http://www.w3.org/2000/svg">
<g id="#ffffffff">
<path fill="#ffffff" opacity="1.00" d=" M 64.88 7.93 C 65.42 6.46 66.48 5.33 67.71 4.40 C 70.24 9.15 72.74 14.46 71.95 19.98 C 71.34 24.64 63.84 24.58 62.68 20.28 C 61.64 16.07 63.22 11.76 64.88 7.93 Z" />
<path fill="#ffffff" opacity="1.00" d=" M 8.76 26.98 C 8.56 22.89 11.20 17.63 15.92 17.92 C 22.60 17.87 29.29 17.84 35.97 17.93 C 42.75 18.32 48.02 22.97 53.60 26.21 C 53.93 23.11 53.24 19.42 55.86 17.11 C 59.33 20.93 61.60 26.05 66.23 28.68 C 69.11 30.15 71.66 27.46 73.94 26.05 C 76.77 30.26 77.79 35.32 78.73 40.21 C 79.93 46.49 80.46 52.86 80.76 59.23 C 77.59 57.89 74.63 56.11 71.68 54.35 C 69.13 45.34 61.91 38.54 53.92 34.15 C 47.60 30.83 39.76 30.16 33.21 33.20 C 26.34 36.11 21.73 43.55 22.45 51.01 C 22.67 59.37 28.24 67.02 35.95 70.11 C 50.10 76.11 65.92 74.19 80.74 72.38 C 81.57 76.61 77.98 80.65 73.99 81.31 C 54.67 81.38 35.36 81.29 16.04 81.35 C 11.99 81.86 8.59 77.92 8.80 74.03 C 8.73 58.35 8.82 42.67 8.76 26.98 Z" />
</g>
<g id="#dd4f3bff">
<path fill="#dd4f3b" opacity="1.00" d=" M 7.38 1.46 C 8.55 1.25 9.74 1.15 10.94 1.17 C 33.64 1.22 56.34 1.17 79.04 1.20 C 83.38 0.91 87.71 4.51 87.61 8.98 C 87.66 32.67 87.67 56.37 87.61 80.06 C 87.69 84.51 83.37 88.15 79.02 87.72 C 55.67 87.69 32.33 87.76 8.98 87.69 C 4.44 87.82 0.78 83.47 1.17 79.04 C 1.17 56.02 1.17 33.00 1.17 9.98 C 0.88 6.11 3.52 2.26 7.38 1.46 M 64.88 7.93 C 63.22 11.76 61.64 16.07 62.68 20.28 C 63.84 24.58 71.34 24.64 71.95 19.98 C 72.74 14.46 70.24 9.15 67.71 4.40 C 66.48 5.33 65.42 6.46 64.88 7.93 M 8.76 26.98 C 8.82 42.67 8.73 58.35 8.80 74.03 C 8.59 77.92 11.99 81.86 16.04 81.35 C 35.36 81.29 54.67 81.38 73.99 81.31 C 77.98 80.65 81.57 76.61 80.74 72.38 C 65.92 74.19 50.10 76.11 35.95 70.11 C 28.24 67.02 22.67 59.37 22.45 51.01 C 21.73 43.55 26.34 36.11 33.21 33.20 C 39.76 30.16 47.60 30.83 53.92 34.15 C 61.91 38.54 69.13 45.34 71.68 54.35 C 74.63 56.11 77.59 57.89 80.76 59.23 C 80.46 52.86 79.93 46.49 78.73 40.21 C 77.79 35.32 76.77 30.26 73.94 26.05 C 71.66 27.46 69.11 30.15 66.23 28.68 C 61.60 26.05 59.33 20.93 55.86 17.11 C 53.24 19.42 53.93 23.11 53.60 26.21 C 48.02 22.97 42.75 18.32 35.97 17.93 C 29.29 17.84 22.60 17.87 15.92 17.92 C 11.20 17.63 8.56 22.89 8.76 26.98 Z" />
</g>
</svg>
