<?xml version="1.0" encoding="utf-8"?>
<!-- Generator: Adobe Illustrator 24.0.2, SVG Export Plug-In . SVG Version: 6.00 Build 0)  -->
<svg version="1.1" id="Слой_1" xmlns="http://www.w3.org/2000/svg" xmlns:xlink="http://www.w3.org/1999/xlink" x="0px" y="0px"
	 viewBox="0 0 2209.3 548.8" style="enable-background:new 0 0 2209.3 548.8;" xml:space="preserve">
<style type="text/css">
	.st0{fill:#F1313E;}
	.st1{fill:#FFFDFF;}
</style>
<rect class="st0" width="2209.3" height="548.8"/>
<path class="st1" d="M1570.4,527.1c-13-0.1-25.4-5.7-34.1-15.4c-4.4-4.8-4.2-6.3,0.9-10.4c1.3-1,2.7-2,4-2.9
	c10.4-7.4,10.4-7.4,20.7,0.2c3.8,2.8,8,4.9,12.9,4.5c4.3-0.4,7.6-2.3,8.4-7c0.8-4.3-1.4-7.1-4.9-8.8c-3-1.5-6.2-2.4-9.3-3.6
	c-6.9-2.5-13.7-5.2-19.7-9.4c-17.9-12.7-17.7-37.3,0.4-49.7c17.1-11.7,44.7-8.9,59,6c5,5.2,4.9,6.4-0.8,11c-1.3,1-2.7,2-4,3
	c-10,7.5-10.1,7.6-20.5,0.1c-3.7-2.6-7.5-4.3-12.1-3.1c-2.3,0.5-4.2,2.3-4.8,4.6c-0.7,2.9-0.1,5.4,2.4,7c2.3,1.3,4.7,2.5,7.2,3.4
	c7.6,3.3,15.4,6.3,22.6,10.6c22.6,13.5,17.2,40.7,1.4,51.8C1591.7,524.9,1582.2,527.3,1570.4,527.1z"/>
<path class="st1" d="M1415.2,417.3c-30.4-0.6-55.6,23.1-56.3,53c-0.7,30.9,23.1,56.1,53.7,56.7c30.2,0.6,55.3-23.5,55.8-53.5
	C1468.9,443.1,1445.1,417.9,1415.2,417.3z M1413.9,496.3c-0.1,0-0.3,0-0.4,0c-13.3,0-24.1-10.8-24.1-24.2
	c0-13.3,10.8-24.1,24.2-24.1c0.3,0,0.5,0,0.8,0c13.5,0.3,23.5,10.8,23.4,24.6C1437.7,485.7,1427,496.3,1413.9,496.3z"/>
<path class="st1" d="M1253.5,473c0-13.6-0.1-27.3,0-40.9c0.1-12,0.1-12,12.5-12c3,0,6,0,9,0c9.4,0.2,9.9,0.6,10,10.4
	c0.1,27.9,0.1,55.9,0,83.8c0,9.6-0.5,9.8-10.3,10c-4.3,0.1-8.7,0.1-13,0c-7-0.3-7.9-1.1-8-8.3C1253.4,501.5,1253.6,487.3,1253.5,473
	L1253.5,473z"/>
<path class="st1" d="M1146.2,424.5c-7.2-2.6-14.6-4.4-22.4-4.4c-10.6,0-21.3-0.1-31.9,0c-9.1,0.1-9.6,0.5-9.7,9.7
	c-0.2,14,0,27.9,0,41.9h0c0,15-0.1,29.9,0.1,44.9c0.1,6.6,1.1,7.5,7.6,7.6c12.3,0.1,24.6,0.4,36.9-0.3c13.1-0.5,25.6-5.4,35.6-13.8
	C1185.3,490.7,1186.3,438.8,1146.2,424.5z M1144,485.4c-3.6,8.4-19.7,14.6-28.6,11.7c-3.3-1-3.5-3.6-3.6-6.3c-0.1-6.3,0-12.6,0-18.9
	l0.1,0c0-6.3,0-12.6,0-18.9c0-4.1,2-6.2,6.1-6.1c9.5,0.3,19.1,1,24.8,9.8C1148.6,465.8,1148.2,475.8,1144,485.4z"/>
<path class="st1" d="M1006.7,456.3c0,9,0.3,18-0.1,26.9c-1,27.9-17.2,43.5-45.1,43.7c-2,0-4,0-6-0.1c-25-1.4-38.8-14.1-41-39
	c-1.8-20.2-0.5-40.6-0.7-60.9c0-5.2,2.6-7.1,7.5-7c5,0.1,10-0.2,15,0c7,0.2,7.8,1,7.9,8.4c0.2,14,0,27.9,0.1,41.9
	c-0.1,4.3,0,8.6,0.4,13c1.1,10.8,6,15.4,15.8,15.4c9.6,0,14.6-4.7,15.7-15.6c0.3-4.6,0.5-9.3,0.3-14c0.1-13.6-0.1-27.3,0.2-40.9
	c0.1-7.3,0.9-7.9,8.1-8.2c5-0.2,10,0,15-0.1c5.1-0.1,7.1,2.4,7,7.4C1006.7,437,1006.7,446.7,1006.7,456.3L1006.7,456.3z"/>
<path class="st1" d="M781.2,485.1c0-10.3-0.1-20.6,0-30.9c0.1-4.6-1.9-6.7-6.5-6.6c-6,0.1-12-0.1-18-0.1c-4,0-6.2-1.9-6.3-6
	c0-0.7-0.1-1.3-0.1-2c-0.3-22.6-1.1-19.2,18-19.3c21.3-0.1,42.6-0.1,63.8,0c10.2,0,10.7,0.5,10.7,10.7c0.1,18.8,1,16.6-16.6,16.7
	c-14.1,0.1-14.4-1.5-14.4,14c0,16.3,0,32.6,0,48.9c0,13.9,0,13.9-14.5,13.9c-2.7,0-5.3,0.1-8-0.1c-7.3-0.4-8-0.9-8.1-8.1
	C781.1,505.7,781.2,495.4,781.2,485.1L781.2,485.1z"/>
<path class="st1" d="M635,527.1c-9.2-0.2-21.3-5-30.9-15.3c-4.5-4.8-4.3-6.2,0.8-10.4c0.8-0.6,1.6-1.2,2.4-1.7
	c3.9-2.5,7.5-6.1,11.8-7.3c5.3-1.6,7.4,4.6,11.3,6.9c4.1,2.5,8.2,4.4,13.1,3.8c4-0.5,6.7-2.8,7.5-6.9c0.8-3.4-0.9-6.9-4.1-8.3
	c-3-1.5-6.1-2.7-9.2-3.8c-7.2-2.7-14.4-5.3-20.7-9.8c-17.9-12.7-17.6-37.5,0.5-49.7c17.1-11.5,43.6-9,58.2,5.4
	c5.6,5.6,5.6,6.9-0.3,11.7c-1.5,1.3-3.2,2.4-4.8,3.6c-9.4,7-9.4,7.1-19-0.1c-3-2.2-6-4.2-9.9-4c-3.6,0.1-6.5,1.5-7.7,5.1
	c-1.3,3.9,1,6.4,4.1,8c2.4,1.2,4.9,2.2,7.4,3.1c6.8,2.6,13.5,5.7,19.9,9.3c24.1,13.5,18.3,42.6,0.8,53.5
	C658.1,525.2,649.2,527.3,635,527.1z"/>
<path class="st1" d="M2096.1,21c24.3,0,48.6,0,73,0c3,0,6-0.1,9,0.2c6.5,0.7,9,2.9,9.1,9.5c0.3,20.3,0.3,40.6,0.1,61
	c-0.1,7-2.9,9.3-9.9,9.9c-3.3,0.3-6.7,0.1-10,0.1c-47.3,0-94.6,0.1-141.9,0.1c-17.8-0.2-35.2,5.8-49,17.1
	c-40.7,32.5-39.7,96.4,2,127.6c6.7,5,14.8,7.9,23.2,8.2c14.6,0.7,24.2-7.9,24.8-22.6c0.4-11.6,0.1-23.3,0.2-35c0-2.7,0.1-5.3,0.4-8
	c0.5-4.2,3-6.6,7.2-6.9c2.7-0.2,5.3-0.2,8-0.2c43,0,86,0,128.9,0c2.3,0,4.7-0.1,7,0.1c6.2,0.5,8.2,2.4,9,8.5c0.2,2.3,0.3,4.7,0.2,7
	c0,43.3,0,86.6,0,129.9c0.1,2,0,4-0.1,6c-0.7,6.6-2.7,8.8-9.5,9.2c-8.3,0.4-16.7,0.3-25,0.3c-11.3,0-22.7,0.1-34-0.2
	c-9.5-0.2-11.7-2.5-11.8-12.1c-0.2-16-0.1-32-0.3-48c-0.2-14.4-5.7-19.8-20.1-20c-12.3-0.2-24.7-0.2-37,0
	c-15.6,0.2-22.7,7.1-23,22.5c-0.2,14.7,0,29.3-0.1,44c-0.1,11.6-2.1,13.8-13.5,12.7c-54.4-5.5-96.6-31.6-124.4-78.4
	c-31.1-52.4-31.9-107-1.9-159.8c30.3-53.3,77.7-80.8,139.4-82.4C2049.5,20.5,2072.8,21,2096.1,21L2096.1,21z"/>
<path class="st1" d="M1507.1,181.3c0-47,0-94,0-140.9c0-3-0.1-6,0.1-9c0.5-7.8,2.6-10,10.5-10.3c8-0.3,16-0.2,24-0.2
	c63.6,0,127.3,0,190.9,0c2,0,4-0.1,6,0c7,0.6,9.7,2.9,9.9,9.9c0.4,9.3,0.1,18.7,0.2,28c0.2,25.6,15.9,41.7,41.6,42.6
	c8.7,0.3,17.3,0,26,0.2c10.4,0.2,12.3,2,12.4,12.3c0.2,21,0.1,42,0.1,63c0,49.3,0,98.6,0,147.9c0.1,3,0,6-0.2,9
	c-0.6,5.9-2.9,8.7-8.8,8.7c-20.7,0.3-41.3,0.3-62,0c-7.1-0.1-9-2.8-9.4-10.2c-0.2-3.7-0.1-7.3-0.1-11c0-64-0.3-127.9,0.2-191.9
	c0.1-17.5-5.3-28.4-28.1-27.9c-38,0.8-76,0.2-114,0.3c-2.7,0-5.3,0-8,0.1c-7.9,0.4-10,2.3-10.4,10.2c-0.4,7.3-0.3,14.7-0.3,22
	c-0.1,63.6-0.2,127.3-0.2,190.9c0,17.2-0.7,17.8-18.2,17.9c-16.3,0.1-32.7,0.1-49-0.1c-11.4-0.1-13.3-2-13.4-13.6
	C1507.1,279.9,1507.1,230.6,1507.1,181.3z"/>
<path class="st1" d="M1465.9,221.6c0,34,0,68,0,101.9c0,2.7,0.1,5.3-0.1,8c-0.5,8.5-2.5,11-10.7,11.1c-19.7,0.2-39.3,0.2-59,0
	c-8.4-0.1-10.6-2.5-10.8-11c-0.3-11.3-0.1-22.7-0.1-34c0-3.7,0-7.3,0-11c-0.3-17.4-6.3-23.6-23.4-23.8c-20.7-0.3-41.3-0.2-62-0.3
	c-7,0-14,0.1-21-0.2c-7.8-0.4-10.1-2.6-10.2-10.5c-0.2-19.7-0.2-39.3,0-59c0.1-8.9,2.3-10.8,11.7-10.9c25-0.2,50-0.1,75-0.2
	c4.3,0.1,8.7,0,13-0.4c10-1.3,16.4-7.8,16.7-18c0.5-14.3,0.4-28.7,0.1-43c-0.2-10.2-7.3-18.1-17.5-18.3c-24-0.6-48.1-2-71.9,0.6
	c-39.6,4.3-70.5,38.9-71.2,79.1c-0.7,45.3-0.3,90.6-0.4,135.9c0,5,0.1,10-0.2,15c-0.5,7.6-2.3,9.9-9.5,10c-20,0.3-40,0.3-60,0
	c-8-0.1-10-2.3-10.2-10.4c-0.3-11.7-0.2-23.3-0.2-35c0-39.3-0.3-78.6,0.3-117.9c0.6-37.3,13.3-70.5,37.2-99.1
	c30.9-37,70.7-57,118.9-59.1c24.3-1,48.6-0.4,73-0.3c10.2,0.1,11.9,2,12.1,12.6c0.2,8.7-0.1,17.3,0.1,26
	c0.7,25.2,16.3,40.9,41.5,41.8c7.7,0.3,15.3,0.1,23,0.2c14.4,0.1,15.6,1.1,15.7,15.2C1465.9,151.7,1465.8,186.7,1465.9,221.6
	L1465.9,221.6z"/>
<path class="st1" d="M1104.8,142.1c0,34,0,68,0,101.9c0,2.7,0.1,5.3-0.1,8c-0.5,7.7-2.7,10-10.5,10.3c-9.7,0.3-19.3,0.2-29,0.2
	c-7.4-0.2-14.7,1.7-21,5.4c-12,7.2-18.8,17.8-19.5,31.8c-0.5,10.3-0.1,20.7-0.3,31c-0.2,9.6-2.3,11.7-12,11.8
	c-25.3,0.1-50.7,0.7-76-0.4c-76.9-3.2-143-64.1-153-140.2c-0.5-4-0.8-8-0.8-12c0-8.2,1.7-10.2,9.8-10.4c11.7-0.3,23.3-0.1,35-0.2
	c7.7,0,15.3-0.1,23,0c9.4,0.2,10.9,1.4,12.3,10.8c1.7,12.6,6.3,24.6,13.4,35.2c15.7,23.2,37.9,35.1,65.6,36.3c20,0.9,40,0.4,60,0.2
	c14.8-0.1,22.3-7.5,22.3-22.2c0.1-42,0.1-83.9-0.1-125.9c0-10.5-1.6-12.1-12.3-12.2c-43.6-0.1-87.3-0.1-130.9-0.2
	c-16.4,0-17.4-1.1-17.4-17.7c0-16.3-0.1-32.6,0.1-49c0.1-12.1,1.8-14,13.9-14c50-0.1,100-0.2,149.9-0.1c21.3,0,42.7-0.1,64,0
	c11.4,0,13.6,2.1,13.6,13.4C1104.8,70.1,1104.8,106.1,1104.8,142.1L1104.8,142.1z"/>
<path class="st1" d="M582.4,21.4c-88.7-0.2-167.5,68.8-167,165.6c0.5,96.1,78.6,164.5,167.6,163.9c90.2-0.6,166.2-71.5,165.4-166.1
	C747.7,89,669.1,21.3,582.4,21.4z M582.4,266.1c-38,0-81.3-32.4-80.2-80.3c0.2-44.5,35.8-79.8,80.5-79.5c43.9,0.3,79.2,36.1,79,80
	C661.7,230.2,625.9,266.1,582.4,266.1z"/>
<path class="st1" d="M19.4,181.6c0-47.6,0-95.3,0-142.9c0-16.7,1-17.6,17.5-17.7c83.3-0.1,166.6-0.1,250-0.1
	c12,0,13.7,1.9,13.9,14.1c0.1,8.7-0.1,17.3,0.2,26c0.9,23.2,15.6,38.6,38.9,40.2c9.6,0.7,19.3,0.2,29,0.4
	c10.4,0.2,11.9,1.8,12.3,12.4c0.1,1.7,0.1,3.3,0.1,5c0,68.3,0,136.6,0,204.9c0,18.6-0.3,18.9-19.1,18.9c-14.7,0-29.3,0-44-0.1
	c-17.2-0.1-17.6-0.5-17.6-17.3c0-65.3,0-130.6,0-195.9c0-2.3,0.1-4.7,0-7c-0.4-13-7.6-20.3-20.6-20.7c-6.3-0.2-12.7-0.2-19,0.1
	c-12.3,0.5-19.5,7.7-20.2,20.2c-0.2,3.7-0.1,7.3-0.1,11c0,35.7,0,71.3-0.1,107c0,4,0.1,8-0.1,12c-0.4,7.3-2.6,9.9-9.6,10
	c-20.3,0.3-40.7,0.2-61,0c-7.1-0.1-9.2-2.8-9.7-10c-0.2-3-0.1-6-0.1-9c0-38-0.1-76-0.1-114c0.1-3.3,0-6.7-0.3-10
	c-1.3-9.6-8.3-16.5-18-17c-7.7-0.4-15.3-0.4-23,0c-11,0.7-17.8,7.8-18.3,18.6c-0.3,7.3-0.2,14.7-0.2,22
	c-0.1,60.6-0.1,121.3-0.1,181.9c0,2.7,0.1,5.3-0.1,8c-0.5,7.2-2.6,9.9-9.7,10c-20.3,0.3-40.7,0.2-61-0.1c-7.2-0.1-9.2-2.7-9.8-10
	c-0.3-3.3-0.1-6.7-0.1-10C19.3,275.6,19.3,228.6,19.4,181.6L19.4,181.6z"/>
</svg>
