<?xml version="1.0" encoding="UTF-8" standalone="no"?>
<svg
   xmlns:dc="http://purl.org/dc/elements/1.1/"
   xmlns:cc="http://creativecommons.org/ns#"
   xmlns:rdf="http://www.w3.org/1999/02/22-rdf-syntax-ns#"
   xmlns:svg="http://www.w3.org/2000/svg"
   xmlns="http://www.w3.org/2000/svg"
   xmlns:sodipodi="http://sodipodi.sourceforge.net/DTD/sodipodi-0.dtd"
   xmlns:inkscape="http://www.inkscape.org/namespaces/inkscape"
   version="1.1"
   width="565.82636"
   height="531.36394"
   viewBox="0,0,565.82636,531.36394"
   id="svg403"
   sodipodi:docname="Pocket PC 2001.svg"
   inkscape:version="0.92.4 (5da689c313, 2019-01-14)">
  <metadata
     id="metadata407">
    <rdf:RDF>
      <cc:Work
         rdf:about="">
        <dc:format>image/svg+xml</dc:format>
        <dc:type
           rdf:resource="http://purl.org/dc/dcmitype/StillImage" />
        <dc:title></dc:title>
      </cc:Work>
    </rdf:RDF>
  </metadata>
  <sodipodi:namedview
     pagecolor="#ffffff"
     bordercolor="#666666"
     borderopacity="1"
     objecttolerance="10"
     gridtolerance="10"
     guidetolerance="10"
     inkscape:pageopacity="0"
     inkscape:pageshadow="2"
     inkscape:window-width="640"
     inkscape:window-height="480"
     id="namedview405"
     showgrid="false"
     inkscape:zoom="0.44414003"
     inkscape:cx="282.91318"
     inkscape:cy="265.68198"
     inkscape:window-x="0"
     inkscape:window-y="0"
     inkscape:window-maximized="0"
     inkscape:current-layer="svg403" />
  <defs
     id="defs258">
    <linearGradient
       x1="294.15199"
       y1="29.21812"
       x2="290.36843"
       y2="28.13333"
       gradientUnits="userSpaceOnUse"
       id="color-1">
      <stop
         offset="0"
         stop-color="#8aa742"
         id="stop2" />
      <stop
         offset="0.1"
         stop-color="#8aa742"
         id="stop4" />
      <stop
         offset="0.25"
         stop-color="#b7ca33"
         id="stop6" />
      <stop
         offset="0.4045"
         stop-color="#b7ca33"
         id="stop8" />
      <stop
         offset="1"
         stop-color="#8aa742"
         id="stop10" />
    </linearGradient>
    <linearGradient
       x1="314.4896"
       y1="-42.63148"
       x2="310.85276"
       y2="-42.88576"
       gradientUnits="userSpaceOnUse"
       id="color-2">
      <stop
         offset="0"
         stop-color="#83b641"
         id="stop13" />
      <stop
         offset="0.2"
         stop-color="#b7ca33"
         id="stop15" />
      <stop
         offset="0.525"
         stop-color="#b7ca33"
         id="stop17" />
      <stop
         offset="1"
         stop-color="#8aa742"
         id="stop19" />
    </linearGradient>
    <linearGradient
       x1="474.13886"
       y1="-33.91309"
       x2="475.76481"
       y2="-31.2071"
       gradientUnits="userSpaceOnUse"
       id="color-3">
      <stop
         offset="0"
         stop-color="#83b641"
         id="stop22" />
      <stop
         offset="1"
         stop-color="#595e48"
         id="stop24" />
    </linearGradient>
    <linearGradient
       x1="478.32766"
       y1="-31.81994"
       x2="477.30223"
       y2="-30.59776"
       gradientUnits="userSpaceOnUse"
       id="color-4">
      <stop
         offset="0"
         stop-color="#8aa742"
         id="stop27" />
      <stop
         offset="1"
         stop-color="#595e48"
         id="stop29" />
    </linearGradient>
    <linearGradient
       x1="479.85703"
       y1="-30.82245"
       x2="479.85703"
       y2="-28.23289"
       gradientUnits="userSpaceOnUse"
       id="color-5">
      <stop
         offset="0"
         stop-color="#8aa742"
         id="stop32" />
      <stop
         offset="1"
         stop-color="#767e47"
         id="stop34" />
    </linearGradient>
    <linearGradient
       x1="435.27242"
       y1="110.3964"
       x2="431.72613"
       y2="110.14832"
       gradientUnits="userSpaceOnUse"
       id="color-6">
      <stop
         offset="0"
         stop-color="#767e47"
         id="stop37" />
      <stop
         offset="1"
         stop-color="#8aa742"
         id="stop39" />
    </linearGradient>
    <linearGradient
       x1="436.93817"
       y1="110.71343"
       x2="434.6475"
       y2="113.25737"
       gradientUnits="userSpaceOnUse"
       id="color-7">
      <stop
         offset="0"
         stop-color="#767e47"
         id="stop42" />
      <stop
         offset="1"
         stop-color="#595e48"
         id="stop44" />
    </linearGradient>
    <linearGradient
       x1="271.84725"
       y1="115.17995"
       x2="433.58457"
       y2="115.17995"
       gradientUnits="userSpaceOnUse"
       id="color-8">
      <stop
         offset="0"
         stop-color="#8aa742"
         id="stop47" />
      <stop
         offset="0.4"
         stop-color="#b7ca33"
         id="stop49" />
      <stop
         offset="1"
         stop-color="#8aa742"
         id="stop51" />
    </linearGradient>
    <linearGradient
       x1="270.86197"
       y1="102.79737"
       x2="268.30096"
       y2="99.95271"
       gradientUnits="userSpaceOnUse"
       id="color-9">
      <stop
         offset="0"
         stop-color="#767e47"
         id="stop54" />
      <stop
         offset="0.1"
         stop-color="#767e47"
         id="stop56" />
      <stop
         offset="0.65"
         stop-color="#83b641"
         id="stop58" />
      <stop
         offset="1"
         stop-color="#8aa742"
         id="stop60" />
    </linearGradient>
    <linearGradient
       x1="270.77723"
       y1="98.19441"
       x2="272.64146"
       y2="101.55729"
       gradientUnits="userSpaceOnUse"
       id="color-10">
      <stop
         offset="0"
         stop-color="#8aa742"
         id="stop63" />
      <stop
         offset="0.4045"
         stop-color="#83b641"
         id="stop65" />
      <stop
         offset="0.8"
         stop-color="#8aa742"
         id="stop67" />
      <stop
         offset="1"
         stop-color="#8aa742"
         id="stop69" />
    </linearGradient>
    <linearGradient
       x1="456.06619"
       y1="38.92645"
       x2="452.29675"
       y2="37.84563"
       gradientUnits="userSpaceOnUse"
       id="color-11">
      <stop
         offset="0"
         stop-color="#595e48"
         id="stop72" />
      <stop
         offset="1"
         stop-color="#83b641"
         id="stop74" />
    </linearGradient>
    <linearGradient
       x1="446.71764"
       y1="59.83417"
       x2="297.25401"
       y2="16.97614"
       gradientUnits="userSpaceOnUse"
       id="color-12">
      <stop
         offset="0"
         stop-color="#6fbc48"
         id="stop77" />
      <stop
         offset="0.3333"
         stop-color="#98c74f"
         id="stop79" />
      <stop
         offset="0.6666"
         stop-color="#80c046"
         id="stop81" />
      <stop
         offset="1"
         stop-color="#607d3a"
         id="stop83" />
    </linearGradient>
    <linearGradient
       x1="44.98605"
       y1="239.34201"
       x2="203.37464"
       y2="239.34201"
       gradientUnits="userSpaceOnUse"
       id="color-13">
      <stop
         offset="0"
         stop-color="#76a5d8"
         id="stop86" />
      <stop
         offset="0.45"
         stop-color="#dae3ec"
         id="stop88" />
      <stop
         offset="1"
         stop-color="#3f87c7"
         id="stop90" />
    </linearGradient>
    <clipPath
       id="clip-1">
      <path
         d="M203.35196,252.63459c-36.05424,-24.27263 -75.14256,-43.93878 -158.35084,-9.5425l40.36636,-141.0847c83.22082,-34.41643 123.54443,-16.10127 159.5685,8.30976z"
         id="clipPath94"
         fill="none" />
    </clipPath>
    <linearGradient
       x1="221.02838"
       y1="193.4653"
       x2="71.38989"
       y2="150.55698"
       gradientUnits="userSpaceOnUse"
       id="color-14">
      <stop
         offset="0"
         stop-color="#2e499e"
         id="stop95" />
      <stop
         offset="0.4"
         stop-color="#4496d1"
         id="stop97" />
      <stop
         offset="0.725"
         stop-color="#a5cded"
         id="stop99" />
      <stop
         offset="1"
         stop-color="#007fc4"
         id="stop101" />
    </linearGradient>
    <linearGradient
       x1="85.38915"
       y1="101.02471"
       x2="85.38915"
       y2="102.05166"
       gradientUnits="userSpaceOnUse"
       id="color-15">
      <stop
         offset="0"
         stop-color="#76a5d8"
         id="stop104" />
      <stop
         offset="1"
         stop-color="#2e499e"
         id="stop106" />
    </linearGradient>
    <clipPath
       id="clip-2">
      <path
         d="M133.65617,-66.10485l-0.45789,-0.1308c0.17611,-0.59879 0.5887,-0.81263 0.74969,-0.88056l0.06793,-0.02012c0.00249,0.00249 -0.15094,0.31701 -0.35978,1.03148z"
         id="clipPath111"
         fill="none"
         fill-rule="nonzero" />
    </clipPath>
    <clipPath
       id="clip-3">
      <path
         d="M133.65617,-66.10485l-0.45789,-0.1308c0.17611,-0.59879 0.5887,-0.81263 0.74969,-0.88056l0.06793,-0.02012c0.00249,0.00249 -0.15094,0.31701 -0.35978,1.03148z"
         id="clipPath114"
         fill="none"
         fill-rule="nonzero" />
    </clipPath>
    <clipPath
       id="clip-4">
      <path
         d="M133.65617,-66.10485l-0.45789,-0.1308c0.17611,-0.59879 0.5887,-0.81263 0.74969,-0.88056l0.06793,-0.02012c0.00249,0.00249 -0.15094,0.31701 -0.35978,1.03148z"
         id="clipPath117"
         fill="none"
         fill-rule="nonzero" />
    </clipPath>
    <clipPath
       id="clip-5">
      <path
         d="M133.65617,-66.10485l-0.45789,-0.1308c0.17611,-0.59879 0.5887,-0.81263 0.74969,-0.88056l0.06793,-0.02012c0.00249,0.00249 -0.15094,0.31701 -0.35978,1.03148z"
         id="clipPath120"
         fill="none"
         fill-rule="nonzero" />
    </clipPath>
    <clipPath
       id="clip-6">
      <path
         d="M133.65617,-66.10485l-0.45789,-0.1308c0.17611,-0.59879 0.5887,-0.81263 0.74969,-0.88056l0.06793,-0.02012c0.00249,0.00249 -0.15094,0.31701 -0.35978,1.03148z"
         id="clipPath123"
         fill="none"
         fill-rule="nonzero" />
    </clipPath>
    <clipPath
       id="clip-7">
      <path
         d="M133.65617,-66.10485l-0.45789,-0.1308c0.17611,-0.59879 0.5887,-0.81263 0.74969,-0.88056l0.06793,-0.02012c0.00249,0.00249 -0.15094,0.31701 -0.35978,1.03148z"
         id="clipPath126"
         fill="none"
         fill-rule="nonzero" />
    </clipPath>
    <clipPath
       id="clip-8">
      <path
         d="M133.65617,-66.10485l-0.45789,-0.1308c0.17611,-0.59879 0.5887,-0.81263 0.74969,-0.88056l0.06793,-0.02012c0.00249,0.00249 -0.15094,0.31701 -0.35978,1.03148z"
         id="clipPath129"
         fill="none"
         fill-rule="nonzero" />
    </clipPath>
    <clipPath
       id="clip-9">
      <path
         d="M133.65617,-66.10485l-0.45789,-0.1308c0.17611,-0.59879 0.5887,-0.81263 0.74969,-0.88056l0.06793,-0.02012c0.00249,0.00249 -0.15094,0.31701 -0.35978,1.03148z"
         id="clipPath132"
         fill="none"
         fill-rule="nonzero" />
    </clipPath>
    <clipPath
       id="clip-10">
      <path
         d="M133.65617,-66.10485l-0.45789,-0.1308c0.17611,-0.59879 0.5887,-0.81263 0.74969,-0.88056l0.06793,-0.02012c0.00249,0.00249 -0.15094,0.31701 -0.35978,1.03148z"
         id="clipPath135"
         fill="none"
         fill-rule="nonzero" />
    </clipPath>
    <clipPath
       id="clip-11">
      <path
         d="M133.65617,-66.10485l-0.45789,-0.1308c0.17611,-0.59879 0.5887,-0.81263 0.74969,-0.88056l0.06793,-0.02012c0.00249,0.00249 -0.15094,0.31701 -0.35978,1.03148z"
         id="clipPath138"
         fill="none"
         fill-rule="nonzero" />
    </clipPath>
    <clipPath
       id="clip-12">
      <path
         d="M133.65617,-66.10485l-0.45789,-0.1308c0.17611,-0.59879 0.5887,-0.81263 0.74969,-0.88056l0.06793,-0.02012c0.00249,0.00249 -0.15094,0.31701 -0.35978,1.03148z"
         id="clipPath141"
         fill="none"
         fill-rule="nonzero" />
    </clipPath>
    <clipPath
       id="clip-13">
      <path
         d="M133.65617,-66.10485l-0.45789,-0.1308c0.17611,-0.59879 0.5887,-0.81263 0.74969,-0.88056l0.06793,-0.02012c0.00249,0.00249 -0.15094,0.31701 -0.35978,1.03148z"
         id="clipPath144"
         fill="none"
         fill-rule="nonzero" />
    </clipPath>
    <clipPath
       id="clip-14">
      <path
         d="M133.65617,-66.10485l-0.45789,-0.1308c0.17611,-0.59879 0.5887,-0.81263 0.74969,-0.88056l0.06793,-0.02012c0.00249,0.00249 -0.15094,0.31701 -0.35978,1.03148z"
         id="clipPath147"
         fill="none"
         fill-rule="nonzero" />
    </clipPath>
    <clipPath
       id="clip-15">
      <path
         d="M133.65617,-66.10485l-0.45789,-0.1308c0.17611,-0.59879 0.5887,-0.81263 0.74969,-0.88056l0.06793,-0.02012c0.00249,0.00249 -0.15094,0.31701 -0.35978,1.03148z"
         id="clipPath150"
         fill="none"
         fill-rule="nonzero" />
    </clipPath>
    <clipPath
       id="clip-16">
      <path
         d="M133.65617,-66.10485l-0.45789,-0.1308c0.17611,-0.59879 0.5887,-0.81263 0.74969,-0.88056l0.06793,-0.02012c0.00249,0.00249 -0.15094,0.31701 -0.35978,1.03148z"
         id="clipPath153"
         fill="none"
         fill-rule="nonzero" />
    </clipPath>
    <clipPath
       id="clip-17">
      <path
         d="M133.65617,-66.10485l-0.45789,-0.1308c0.17611,-0.59879 0.5887,-0.81263 0.74969,-0.88056l0.06793,-0.02012c0.00249,0.00249 -0.15094,0.31701 -0.35978,1.03148z"
         id="clipPath156"
         fill="none"
         fill-rule="nonzero" />
    </clipPath>
    <linearGradient
       x1="92.59495"
       y1="71.18985"
       x2="251.78705"
       y2="71.18985"
       gradientUnits="userSpaceOnUse"
       id="color-16">
      <stop
         offset="0"
         stop-color="#faab4f"
         id="stop141" />
      <stop
         offset="0.25"
         stop-color="#faab4f"
         id="stop143" />
      <stop
         offset="0.475"
         stop-color="#fcc193"
         id="stop145" />
      <stop
         offset="0.525"
         stop-color="#fcc193"
         id="stop147" />
      <stop
         offset="0.75"
         stop-color="#f89c3e"
         id="stop149" />
      <stop
         offset="1"
         stop-color="#f89c3e"
         id="stop151" />
    </linearGradient>
    <linearGradient
       x1="268.89291"
       y1="26.34609"
       x2="119.11974"
       y2="-16.60076"
       gradientUnits="userSpaceOnUse"
       id="color-17">
      <stop
         offset="0"
         stop-color="#cd2b2b"
         id="stop154" />
      <stop
         offset="0.4"
         stop-color="#f2692a"
         id="stop156" />
      <stop
         offset="0.725"
         stop-color="#fcb544"
         id="stop158" />
      <stop
         offset="1"
         stop-color="#f37237"
         id="stop160" />
    </linearGradient>
    <linearGradient
       x1="390.89058"
       y1="277.80164"
       x2="390.04275"
       y2="280.96628"
       gradientUnits="userSpaceOnUse"
       id="color-18">
      <stop
         offset="0"
         stop-color="#d4a52e"
         id="stop163" />
      <stop
         offset="1"
         stop-color="#a87c3c"
         id="stop165" />
    </linearGradient>
    <linearGradient
       x1="430.76787"
       y1="139.14641"
       x2="430.76787"
       y2="141.7508"
       gradientUnits="userSpaceOnUse"
       id="color-19">
      <stop
         offset="0.0056"
         stop-color="#c19236"
         id="stop168" />
      <stop
         offset="1"
         stop-color="#d4a52e"
         id="stop170" />
    </linearGradient>
    <linearGradient
       x1="424.9832"
       y1="136.06809"
       x2="426.62178"
       y2="138.79525"
       gradientUnits="userSpaceOnUse"
       id="color-20">
      <stop
         offset="0.0056"
         stop-color="#ffcd02"
         id="stop173" />
      <stop
         offset="1"
         stop-color="#a87c3c"
         id="stop175" />
    </linearGradient>
    <linearGradient
       x1="429.25205"
       y1="138.159"
       x2="428.24906"
       y2="139.35422"
       gradientUnits="userSpaceOnUse"
       id="color-21">
      <stop
         offset="0.0056"
         stop-color="#ffcd02"
         id="stop178" />
      <stop
         offset="1"
         stop-color="#a87c3c"
         id="stop180" />
    </linearGradient>
    <linearGradient
       x1="387.58981"
       y1="276.35457"
       x2="384.03598"
       y2="276.10623"
       gradientUnits="userSpaceOnUse"
       id="color-22">
      <stop
         offset="0"
         stop-color="#c19236"
         id="stop183" />
      <stop
         offset="1"
         stop-color="#ffcd02"
         id="stop185" />
    </linearGradient>
    <linearGradient
       x1="246.21248"
       y1="195.17278"
       x2="242.49289"
       y2="194.10608"
       gradientUnits="userSpaceOnUse"
       id="color-23">
      <stop
         offset="0"
         stop-color="#d4a52e"
         id="stop188" />
      <stop
         offset="0.1"
         stop-color="#d4a52e"
         id="stop190" />
      <stop
         offset="0.2"
         stop-color="#ffc222"
         id="stop192" />
      <stop
         offset="0.35"
         stop-color="#ffc222"
         id="stop194" />
      <stop
         offset="1"
         stop-color="#d4a52e"
         id="stop196" />
    </linearGradient>
    <linearGradient
       x1="407.54559"
       y1="206.85246"
       x2="404.02188"
       y2="205.84212"
       gradientUnits="userSpaceOnUse"
       id="color-24">
      <stop
         offset="0"
         stop-color="#a87c3c"
         id="stop199" />
      <stop
         offset="1"
         stop-color="#ffd200"
         id="stop201" />
    </linearGradient>
    <linearGradient
       x1="389.0689"
       y1="275.9638"
       x2="387.29848"
       y2="279.9401"
       gradientUnits="userSpaceOnUse"
       id="color-25">
      <stop
         offset="0"
         stop-color="#c19236"
         id="stop204" />
      <stop
         offset="1"
         stop-color="#d4a52e"
         id="stop206" />
    </linearGradient>
    <linearGradient
       x1="224.23833"
       y1="280.68605"
       x2="385.89696"
       y2="280.68605"
       gradientUnits="userSpaceOnUse"
       id="color-26">
      <stop
         offset="0"
         stop-color="#d4a52e"
         id="stop209" />
      <stop
         offset="0.4"
         stop-color="#ffd200"
         id="stop211" />
      <stop
         offset="1"
         stop-color="#d4a52e"
         id="stop213" />
    </linearGradient>
    <linearGradient
       x1="223.11928"
       y1="268.70641"
       x2="220.51515"
       y2="265.81425"
       gradientUnits="userSpaceOnUse"
       id="color-27">
      <stop
         offset="0"
         stop-color="#d4a52e"
         id="stop216" />
      <stop
         offset="0.1"
         stop-color="#d4a52e"
         id="stop218" />
      <stop
         offset="0.7"
         stop-color="#ffd200"
         id="stop220" />
      <stop
         offset="1"
         stop-color="#d4a52e"
         id="stop222" />
    </linearGradient>
    <linearGradient
       x1="223.19548"
       y1="263.85162"
       x2="225.03811"
       y2="267.17581"
       gradientUnits="userSpaceOnUse"
       id="color-28">
      <stop
         offset="0"
         stop-color="#d4a52e"
         id="stop225" />
      <stop
         offset="0.4"
         stop-color="#ffc222"
         id="stop227" />
      <stop
         offset="0.8"
         stop-color="#ffcd02"
         id="stop229" />
      <stop
         offset="1"
         stop-color="#d4a52e"
         id="stop231" />
    </linearGradient>
    <clipPath
       id="clip-18">
      <path
         d="M266.23746,124.84854c36.00899,24.23492 75.02683,41.03053 157.89291,12.50111l-39.50595,137.30849c-72.90851,32.05659 -122.12048,12.80551 -159.00241,-9.48462z"
         id="clipPath252"
         fill="none" />
    </clipPath>
    <linearGradient
       x1="399.16035"
       y1="225.33798"
       x2="249.36128"
       y2="182.38383"
       gradientUnits="userSpaceOnUse"
       id="color-29">
      <stop
         offset="0"
         stop-color="#ffc907"
         id="stop236" />
      <stop
         offset="0.1667"
         stop-color="#ffd200"
         id="stop238" />
      <stop
         offset="0.3333"
         stop-color="#ffd952"
         id="stop240" />
      <stop
         offset="0.625"
         stop-color="#ffcd02"
         id="stop242" />
      <stop
         offset="1"
         stop-color="#b77a36"
         id="stop244" />
    </linearGradient>
    <clipPath
       id="clip-19">
      <path
         d="M266.23746,124.84854c36.00899,24.23492 75.02683,41.03053 157.89291,12.50111l-39.50595,137.30849c-72.90851,32.05659 -122.12048,12.80551 -159.00241,-9.48462z"
         id="clipPath266" />
    </clipPath>
    <linearGradient
       x1="266.38087"
       y1="124.05905"
       x2="262.68006"
       y2="123.80017"
       gradientUnits="userSpaceOnUse"
       id="color-30">
      <stop
         offset="0"
         stop-color="#ffc222"
         id="stop249" />
      <stop
         offset="0.2"
         stop-color="#ffc222"
         id="stop251" />
      <stop
         offset="0.525"
         stop-color="#ffd200"
         id="stop253" />
      <stop
         offset="1"
         stop-color="#d4a52e"
         id="stop255" />
    </linearGradient>
  </defs>
  <g
     transform="translate(42.91318,85.68197)"
     id="g401">
    <g
       data-paper-data="{&quot;isPaintingLayer&quot;:true}"
       fill="none"
       fill-rule="none"
       stroke="none"
       stroke-width="none"
       stroke-linecap="butt"
       stroke-linejoin="miter"
       stroke-miterlimit="10"
       stroke-dasharray=""
       stroke-dashoffset="0"
       font-family="none"
       font-weight="none"
       font-size="none"
       text-anchor="none"
       style="mix-blend-mode: normal"
       id="g399">
      <path
         d="M-28.44704,443.58299h-14.46614l12.93444,-77.4366h20.76326c6.73195,0 11.64854,0.15111 14.74981,0.45339c3.10122,0.26495 6.1269,1.26713 9.07684,3.00664c2.94999,1.73973 5.33259,4.25478 7.14796,7.54515c1.81537,3.25255 2.72308,6.90217 2.72308,10.94886c0,5.37047 -1.47505,10.13583 -4.42499,14.29604c-2.91212,4.12239 -6.33483,6.84541 -10.26812,8.16913c-3.89547,1.32372 -8.67972,1.98558 -14.35274,1.98558h-18.66422zM-17.38462,377.43567l-3.91441,23.71314h13.7287c4.84095,0 8.22589,-0.30261 10.15471,-0.90788c1.92883,-0.64331 3.63068,-2.00485 5.10568,-4.08457c1.475,-2.11792 2.2125,-4.67079 2.2125,-7.65855c0,-2.79872 -0.66186,-5.08685 -1.98558,-6.8644c-1.32372,-1.81531 -2.89324,-2.96882 -4.70861,-3.46047c-1.81537,-0.49181 -5.06786,-0.73772 -9.75753,-0.73772z"
         data-paper-data="{&quot;origPos&quot;:null}"
         id="path14"
         fill="#000000"
         fill-rule="nonzero"
         stroke-width="0.26459" />
      <path
         d="M28.73694,410.62279c0,-11.87551 3.32819,-22.61639 9.9845,-32.2227c6.65632,-9.64413 15.56295,-14.46619 26.71989,-14.46619c9.30376,0 16.62193,3.12015 21.95458,9.36046c5.37047,6.24031 8.05568,14.80657 8.05568,25.69872c0,12.17806 -3.38494,23.01352 -10.15471,32.50637c-6.76977,9.45503 -15.77092,14.18252 -27.00351,14.18252c-8.20695,0 -15.18476,-3.19579 -20.93342,-9.58737c-5.74866,-6.4294 -8.62302,-14.92002 -8.62302,-25.47181zM43.43005,413.0622c0,7.56403 1.49388,12.95338 4.48169,16.16811c2.98781,3.21473 6.61855,4.82206 10.89221,4.82206c7.48839,0 12.99114,-4.14132 16.50842,-12.42397c3.51728,-8.28259 5.27595,-16.86773 5.27595,-25.75548c0,-13.53955 -5.3327,-20.30932 -15.99795,-20.30932c-7.1102,0 -12.42386,4.27366 -15.94114,12.82093c-3.47946,8.5095 -5.21919,16.73539 -5.21919,24.67766z"
         data-paper-data="{&quot;origPos&quot;:null}"
         id="path16"
         fill="#000000"
         fill-rule="nonzero"
         stroke-width="0.26459" />
      <path
         d="M162.90369,422.3659c-6.6185,15.50619 -16.84885,23.25931 -30.691,23.25931c-8.39605,0 -15.24146,-3.02558 -20.53629,-9.07679c-5.25701,-6.08903 -7.88546,-14.35274 -7.88546,-24.79107c0,-13.04795 3.38489,-24.24266 10.15466,-33.58419c6.76977,-9.3794 15.46843,-14.06912 26.09585,-14.06912c8.28259,0 14.84444,2.40159 19.68539,7.20472c4.841,4.80313 7.60185,11.4595 8.28259,19.969l-12.59407,2.26925c-1.13463,-11.87551 -6.35376,-17.81326 -15.65752,-17.81326c-7.52621,0 -12.95338,4.46276 -16.28156,13.38827c-3.29037,8.92557 -4.93552,17.41619 -4.93552,25.47181c0,6.27813 1.38048,11.00567 4.14132,14.18252c2.79866,3.17696 6.35376,4.76542 10.66524,4.76542c3.97111,0 7.56397,-1.5317 10.7787,-4.59515c3.25255,-3.10127 5.72978,-6.86435 7.43169,-11.28929z"
         data-paper-data="{&quot;origPos&quot;:null}"
         id="path18"
         fill="#000000"
         fill-rule="nonzero"
         stroke-width="0.26459" />
      <path
         d="M231.66063,443.58299h-14.63635l-11.51625,-38.86019l-18.04018,19.74209l-3.23361,19.1181h-13.84215l12.9345,-77.4366h13.89885l-5.67302,33.75434c-0.11346,0.64331 -0.69962,3.36633 -1.75861,8.16913c1.36154,-2.11787 2.8176,-4.02776 4.36824,-5.72972l32.67653,-36.19375h14.86332l-25.35841,27.62755z"
         data-paper-data="{&quot;origPos&quot;:null}"
         id="path20"
         fill="#000000"
         fill-rule="nonzero"
         stroke-width="0.26459" />
      <path
         d="M292.41859,443.58299h-50.31963l12.9345,-77.4366h48.95809l-2.04228,12.14019h-35.05924l-3.34707,20.08251h29.04585l-1.92883,11.45944h-29.04585l-3.63074,21.61416h36.47748z"
         data-paper-data="{&quot;origPos&quot;:null}"
         id="path22"
         fill="#000000"
         fill-rule="nonzero"
         stroke-width="0.26459" />
      <path
         d="M360.55148,378.28657h-19.68533l-10.94891,65.29641h-14.23928l10.94891,-65.29641h-19.68533l2.04228,-12.14019h53.60994z"
         data-paper-data="{&quot;origPos&quot;:null}"
         id="path24"
         fill="#000000"
         fill-rule="nonzero"
         stroke-width="0.26459" />
      <path
         d="M401.56736,443.58299h-14.46614l12.93444,-77.4366h20.76326c6.73195,0 11.64854,0.15111 14.74981,0.45339c3.10127,0.26495 6.1269,1.26713 9.07684,3.00664c2.94994,1.73973 5.33259,4.25478 7.14796,7.54515c1.81537,3.25255 2.72308,6.90217 2.72308,10.94886c0,5.37047 -1.47505,10.13583 -4.42499,14.29604c-2.91218,4.12239 -6.33483,6.84541 -10.26812,8.16913c-3.89547,1.32372 -8.67972,1.98558 -14.35274,1.98558h-18.66422zM412.62973,377.43567l-3.91435,23.71314h13.7287c4.841,0 8.22589,-0.30261 10.15471,-0.90788c1.92883,-0.64331 3.63068,-2.00485 5.10568,-4.08457c1.475,-2.11792 2.2125,-4.67079 2.2125,-7.65855c0,-2.79872 -0.66186,-5.08685 -1.98558,-6.8644c-1.32372,-1.81531 -2.89324,-2.96882 -4.70861,-3.46047c-1.81537,-0.49181 -5.06792,-0.73772 -9.75759,-0.73772z"
         data-paper-data="{&quot;origPos&quot;:null}"
         id="path26"
         fill="#000000"
         fill-rule="nonzero"
         stroke-width="0.26459" />
      <path
         d="M517.80745,422.3659c-6.61855,15.50619 -16.84885,23.25931 -30.691,23.25931c-8.39605,0 -15.24151,-3.02558 -20.53634,-9.07679c-5.25701,-6.08903 -7.88546,-14.35274 -7.88546,-24.79107c0,-13.04795 3.38489,-24.24266 10.15466,-33.58419c6.76977,-9.3794 15.46843,-14.06912 26.09585,-14.06912c8.28259,0 14.84439,2.40159 19.68539,7.20472c4.841,4.80313 7.60185,11.4595 8.28264,19.969l-12.59412,2.26925c-1.13463,-11.87551 -6.35376,-17.81326 -15.65752,-17.81326c-7.52621,0 -12.95338,4.46276 -16.28156,13.38827c-3.29037,8.92557 -4.93552,17.41619 -4.93552,25.47181c0,6.27813 1.38048,11.00567 4.14132,14.18252c2.79866,3.17696 6.35376,4.76542 10.66524,4.76542c3.97111,0 7.56403,-1.5317 10.77876,-4.59515c3.25255,-3.10127 5.72978,-6.86435 7.43163,-11.28929z"
         data-paper-data="{&quot;origPos&quot;:null}"
         id="path28"
         fill="#000000"
         fill-rule="nonzero"
         stroke-width="0.26459" />
      <g
         data-paper-data="{&quot;origPos&quot;:null}"
         id="g1921"
         stroke-width="1">
        <g
           data-paper-data="{&quot;origPos&quot;:null}"
           id="g283"
           fill="#000000"
           fill-rule="nonzero"
           opacity="0.132">
          <path
             d="M173.66748,97.04235c6.88976,-0.16257 13.6596,0.16969 20.15625,1.03746c25.81332,3.3904 45.39652,14.55854 62.72751,26.12668v0.00509c0,0 0.03568,0.00509 0.04587,0.00509c0.39291,0.28488 0.62636,0.78658 0.62636,1.32222c0,0.13555 -0.02038,0.27111 -0.04076,0.38679l-1.39933,4.70594c0,0 -40.62561,137.06185 -40.70561,137.32633c-0.00509,-0.01528 -0.02038,-0.03566 -0.02038,-0.03566l-0.02549,0.14218c-0.14678,0.64425 -0.64632,0.99001 -1.01283,1.24093l-0.18651,0.12894v0c-0.53973,0.32564 -2.34546,1.3766 -2.34546,1.3766c-0.63966,0.28488 -1.30601,-0.02549 -1.53253,-0.14219v-0.02038l-0.06676,-0.04077c-7.21631,-4.57028 -16.84457,-10.42222 -27.34585,-15.07385c-7.48951,-3.24806 -14.77905,-5.63491 -22.27519,-7.30977c-8.30901,-1.83768 -16.65801,-2.76666 -25.54012,-2.82765c-10.62119,-0.05401 -21.83533,1.24095 -34.28896,3.96009c-12.78008,2.80726 -26.433,7.00463 -41.75179,12.85652c0,0 -0.07337,0.02547 -0.08663,0.02547c-0.26653,0.04077 -0.93285,0.05401 -1.59252,-0.38679c-0.04077,-0.04077 -0.08663,-0.06777 -0.08663,-0.06777l-2.73856,-2.06819c-0.46629,-0.40666 -0.87291,-1.17312 -0.64634,-1.91897l40.89886,-141.0151c0.11975,-0.38628 0.3664,-0.67807 0.71299,-0.82723l0.07337,-0.0153c10.26134,-4.19736 20.23621,-7.73702 29.61804,-10.50356c8.99534,-2.67166 17.75081,-4.72629 26.00656,-6.12316c7.86921,-1.32906 15.54535,-2.09523 22.82153,-2.27839z"
             data-paper-data="{&quot;origPos&quot;:null}"
             id="path6472" />
          <path
             d="M275.3547,138.81216c0.40005,0 0.81293,0.12229 1.47924,0.40666h-0.01528l0.03566,0.0153c10.62119,7.0589 19.73643,12.17161 28.6852,16.11814c11.07428,4.88899 22.15523,8.0964 33.87579,9.79165c13.30649,1.92574 27.29928,1.92574 42.76457,0c8.2024,-1.01713 16.90456,-2.61742 25.88655,-4.73983c9.31516,-2.22416 19.21673,-5.05854 29.47813,-8.48294c1.43255,-0.20996 2.0189,0.16969 2.23879,0.40666l0.00511,0.02549v0c0,0 3.35162,2.63113 3.35162,2.61742c0.00509,0.01528 0.71961,0.69842 0.71961,1.83081c0,0.18295 -0.00511,0.39342 -0.06015,0.59675v0.0153c0,0 0.0153,0.02038 0.0153,0.02547c-0.01528,0.04077 -39.99935,137.48191 -39.99935,137.49572c-0.33329,0.68486 -0.99945,1.09855 -1.27937,1.27482c0,0 -0.04587,0.03568 -0.06013,0.03568c-10.00814,4.21769 -19.923,7.75053 -29.50474,10.48318c-9.11525,2.61749 -18.1639,4.59071 -26.89944,5.87232c-8.2691,1.20701 -16.49809,1.83758 -24.44069,1.87836c-7.46949,0.02038 -14.91899,-0.50196 -22.14193,-1.51215c-6.73652,-0.9629 -13.45306,-2.40721 -19.98965,-4.27196c-6.03689,-1.70876 -12.08711,-3.84471 -18.00403,-6.37404c-10.10144,-4.2787 -20.11624,-9.75084 -30.62419,-16.69446c-0.21301,-0.11517 -2.09892,-1.26126 -1.39266,-3.3565l40.94548,-139.72667v-0.01528l0.00509,-0.04587l-0.00509,0.03568c0,0 0.04077,-0.08816 0.04077,-0.1218v0h0.00509c0.18651,-0.46781 0.85959,-1.15951 1.95896,-2.00713c0.53973,-0.42043 1.0128,-0.73913 1.19942,-0.86795l0.00509,-0.0204h0.02038c0,0 0.00509,-0.00509 0.00509,-0.02038c0.73297,-0.45406 1.21938,-0.63757 1.6925,-0.66453v0z"
             data-paper-data="{&quot;origPos&quot;:null}"
             id="path6479" />
          <path
             d="M322.13734,-31.35999c1.30601,-0.82724 1.87235,-0.86791 3.15838,-0.29149c7.51606,4.97715 17.57093,11.34442 28.78513,16.4504c11.28749,5.1467 22.46833,8.45577 34.14236,10.12386c6.50332,0.92901 13.2998,1.33581 20.18956,1.24093c7.31624,-0.10854 15.00552,-0.79335 22.86822,-2.05457c8.26233,-1.32227 17.00451,-3.31589 25.97324,-5.92644c9.3751,-2.73949 19.30998,-6.22488 29.53801,-10.38153l0.00509,-0.00509c0,0 0.0204,-0.02547 0.02549,-0.02547c0.34653,-0.21047 1.50589,-0.37965 2.63858,0.14931c0.53973,0.23034 1.31264,0.90185 1.87233,1.43081c1.01284,0.88151 2.05889,1.89864 2.05889,3.11237c0,0.23748 -0.04076,0.46781 -0.11975,0.72552c0,0 -41.77175,141.29996 -41.77175,141.33381c-0.35978,0.6713 -1.05279,1.13234 -1.37261,1.28833c0,0 -0.04587,0.0153 -0.04587,0.02549c-16.93789,7.55388 -34.10235,12.74122 -50.99361,15.37899c-11.38075,2.19022 -22.60164,3.26162 -33.31614,3.15313c-9.91487,-0.08816 -19.72314,-1.17989 -29.15826,-3.26162c-16.28499,-3.53966 -31.8635,-9.97469 -47.62869,-19.66457c-3.37823,-1.90536 -6.73652,-3.97355 -9.99488,-6.12311h-0.00509v0c-0.02547,-0.00509 -1.41925,-0.79335 -1.41925,-2.32588c0,-0.27111 0.04587,-0.58316 0.16002,-0.92224c0,0 41.07874,-140.02519 41.07874,-140.05215c0,0 0.14013,-0.45457 0.14013,-0.47495c0.00509,0 0.00511,-0.00509 0.00511,-0.00509l0.00509,-0.01528c0.2334,-0.54925 1.07282,-1.34944 2.47871,-2.38689c0,0 0.69291,-0.49482 0.69963,-0.49482z"
             data-paper-data="{&quot;origPos&quot;:null}"
             id="path6486" />
          <path
             d="M189.1795,-70.53993c13.11988,-2.81404 25.64679,-4.10242 37.2141,-3.85832c19.74317,0.40666 37.56727,5.12632 56.08431,14.85014l0.43315,0.22372c6.41663,3.3769 12.94668,7.34365 21.17572,12.83617c0.38628,0.26448 0.60643,0.71882 0.60643,1.25446c0,0.06778 0,0.12892 0,0.19007c-0.01528,0.08816 -0.0204,0.16969 -0.04077,0.23748l-0.67298,2.29873c0,0 -0.00509,0.06114 -0.00509,0.06777l-0.93288,3.12598l-13.91945,47.37118l-25.90658,88.15817v0v0v0c-0.15339,0.67135 -0.68635,1.04434 -1.02615,1.2884l-0.11975,0.08153v0v0c0,0 -2.58534,1.14588 -2.58534,1.15277c-0.68628,0.18295 -1.51255,-0.22371 -1.51923,-0.22371h0.01528l-0.04076,-0.02549l-0.03568,-0.02038h-0.01528h-0.00509l-0.12689,-0.06778h-0.03568l-0.14676,-0.06777c-10.50122,-6.55708 -19.44326,-11.30377 -28.0988,-14.93143c-10.8744,-4.54323 -21.48885,-7.40475 -32.4632,-8.72698c-25.72668,-3.10568 -54.41852,1.99352 -90.29332,16.00965c-0.00509,0.01528 -0.8462,0.38679 -1.20603,0.4138l-0.07339,0.02038v0.00509v0c0,0 -0.02038,0 -0.02038,0.01528v0h-0.04587c-0.12689,0.01528 -0.25327,0.0153 -0.75288,-0.19007c-0.0535,-0.03566 -0.14015,-0.09479 -0.21965,-0.15594l-0.07339,-0.04076l-2.4254,-1.87158l-0.27316,-0.20333l-0.00509,-0.0153c-0.04587,-0.02547 -0.12689,-0.06114 -0.18651,-0.10854c-0.32003,-0.23748 -0.60633,-1.04423 -0.60633,-1.69525c0,-0.17632 0.01528,-0.33226 0.06013,-0.47444l39.38629,-134.26132l2.12562,-7.2081c0.15339,-0.60347 0.61304,-0.77979 0.75961,-0.84085v0c16.35822,-6.66564 31.84358,-11.5885 46.0162,-14.61276z"
             data-paper-data="{&quot;origPos&quot;:null}"
             id="path6493" />
        </g>
        <g
           id="g1789">
          <g
             id="g49"
             fill="none"
             fill-rule="nonzero">
            <path
               d="M144.32831,249.15522"
               id="path47" />
          </g>
          <g
             id="g187">
            <g
               id="g174">
              <path
                 d="M473.22911,-32.5815c-83.01202,34.32587 -122.94063,15.09241 -158.90932,-9.11734c0.08307,-0.31698 0.23136,-0.93085 -0.01019,-1.51955c35.96868,24.2148 76.69732,43.70235 159.7043,9.38148c-0.55099,0.50552 -0.55097,0.75727 -0.78494,1.25542z"
                 id="path51"
                 fill="#83b641"
                 fill-rule="nonzero" />
              <path
                 d="M310.94357,-42.10892l-40.54243,140.83313l-3.12464,2.47306l0.00249,-0.32461l40.70091,-140.86336z"
                 id="polygon53"
                 fill="#8aa742"
                 fill-rule="evenodd" />
              <path
                 d="M273.45536,100.29664c-1.26295,-0.70698 -2.17368,-2.13091 -3.29572,-1.69061l40.64308,-140.65201c0.62391,-0.27926 2.19629,-0.8176 3.68062,0.35215z"
                 id="path66"
                 fill="url(#color-1)"
                 fill-rule="nonzero" />
              <path
                 d="M311.32598,-43.02213l-0.41738,1.00631l-2.96366,2.14095c0.25174,-0.96107 2.51078,-2.56362 3.20767,-3.04917c0.13096,-0.0907 0.17377,-0.09784 0.17377,-0.09784z"
                 id="path68"
                 fill="#8aa742"
                 fill-rule="evenodd" />
              <path
                 d="M314.34248,-41.79444c-1.53718,-0.94848 -2.9234,-0.48821 -3.55236,-0.21659c0.09784,-0.29965 0.36488,-0.91326 0.36488,-0.91326c1.33593,-0.84532 1.91704,-0.88559 3.16491,-0.28945c0.16104,0.46527 0.2288,0.91326 0.02038,1.41894z"
                 id="path79"
                 fill="url(#color-2)"
                 fill-rule="nonzero" />
              <path
                 d="M476.3085,-31.53492c0,0 -0.92834,-1.28054 -3.14981,-0.87051c0.19621,-0.52582 0.19619,-1.01891 0.85537,-1.43404c1.33593,-0.2013 1.98496,0.15085 2.26927,0.42501c0.15848,0.15594 0.2064,0.28437 0.2064,0.28437c0.17888,0.78494 -0.18092,1.59506 -0.18092,1.59506z"
                 id="path86"
                 fill="url(#color-3)"
                 fill-rule="evenodd" />
              <path
                 d="M476.28587,-33.41425l3.28313,2.63405c0.19621,0.88054 -0.22626,1.77368 -0.22626,1.77368l-3.29321,-2.64414c0,0 0.41278,-0.98114 0.23645,-1.76359z"
                 id="path93"
                 fill="url(#color-4)"
                 fill-rule="evenodd" />
              <path
                 d="M479.46837,-29.17256l-41.27458,141.51747l-3.11461,-2.74978l41.03806,-141.4319z"
                 id="polygon95"
                 fill="#595e48"
                 fill-rule="evenodd" />
              <path
                 d="M438.99886,113.36881c0.08816,-0.80757 -0.77237,-1.47428 -0.77237,-1.47428l41.1991,-141.1954c0,0 0.65408,0.5887 0.8302,1.01391z"
                 id="path97"
                 fill="#767e47"
                 fill-rule="evenodd" />
              <path
                 d="M480.24577,-28.23417c0,0 -0.14831,-0.40513 -0.85034,-0.99627c0.31952,-1.32834 0.10805,-1.59501 0.10805,-1.59501l0.06269,0.04076c0,0.00249 1.0315,0.94094 0.67925,2.54854z"
                 id="path104"
                 fill="url(#color-5)"
                 fill-rule="evenodd" />
              <path
                 d="M437.62272,114.68711c-22.18448,10.07336 -43.18157,15.27103 -62.67915,16.97174c-33.66923,3.82408 -60.89544,-3.49951 -83.14035,-14.42569c-8.64937,-3.96997 -16.48113,-8.46321 -23.40972,-13.13007l0.37507,-0.32461c7.02413,4.7272 14.67982,9.34626 23.03235,13.45464c22.60215,10.37774 50.807,17.22836 83.14035,14.42569c18.41579,-2.08311 38.75875,-7.51729 61.27279,-17.50254c0.63399,0.51073 1.40887,0.53085 1.40887,0.53085z"
                 id="path106"
                 fill="#595e48"
                 fill-rule="evenodd" />
              <path
                 d="M433.14207,112.06061c0,0 -1.58752,-1.42399 -1.29817,-3.5096c2.13342,-0.54594 3.49951,0.80508 3.49951,0.80508c0,0 -0.3924,1.91959 -2.20134,2.70453z"
                 id="path113"
                 fill="url(#color-6)"
                 fill-rule="nonzero" />
              <path
                 d="M435.34336,109.35864l2.98379,2.60388c0,0 -0.45813,1.63277 -2.26927,2.4278l-3.03159,-2.59632c1.81644,-0.79498 2.31707,-2.43535 2.31707,-2.43535z"
                 id="path120"
                 fill="url(#color-7)"
                 fill-rule="evenodd" />
              <path
                 d="M432.33695,108.50825c-0.28946,2.08815 1.24781,3.61275 1.24781,3.61275c-83.02712,34.32836 -125.80111,14.11376 -161.73706,-10.22935c0.63145,-0.46272 0.72956,-0.45812 1.13969,-1.92207c35.93096,24.34811 90.24245,41.40788 159.34956,8.53872z"
                 id="path129"
                 fill="url(#color-8)"
                 fill-rule="nonzero" />
              <path
                 d="M268.78594,103.92446l3.08694,-2.06298c35.9511,23.14559 78.4156,43.16394 161.3547,9.83685l3.00137,2.60639c-79.63324,35.13093 -130.57865,15.56536 -167.44301,-10.3803z"
                 id="path131"
                 fill="#767e47"
                 fill-rule="evenodd" />
              <path
                 d="M438.99886,113.36881c-0.41278,0.75727 -1.13464,1.18998 -1.37614,1.31575c-0.05096,0.03057 -0.08307,0.03057 -0.08307,0.03057c0,0 -0.56608,0.07797 -1.32085,-0.41278c1.62269,-0.88554 2.09315,-2.65417 2.09315,-2.65417c0,0 0.94343,0.78744 0.68684,1.72083z"
                 id="path133"
                 fill="#767e47"
                 fill-rule="evenodd" />
              <path
                 d="M268.89917,103.88415l-0.36997,0.30424c0,0 -2.02267,-1.09187 -1.24781,-3.31584c0.18091,2.18626 1.61764,3.0114 1.61764,3.0114z"
                 id="path135"
                 fill="#767e47"
                 fill-rule="evenodd" />
              <path
                 d="M267.27899,100.87275l2.97869,-2.35484c-0.17377,2.26927 1.78876,3.21276 1.78876,3.21276l-3.02903,2.32965c0,0 -1.90948,-0.91326 -1.73842,-3.18753z"
                 id="path146"
                 fill="url(#color-9)"
                 fill-rule="nonzero" />
              <path
                 d="M270.1923,98.51791c1.0189,-0.30933 1.93972,0.74723 3.18753,1.71578c-0.40514,1.46924 -0.76232,1.21766 -1.39377,1.68558c-0.73964,-0.44285 -1.98247,-1.53464 -1.79376,-3.40142z"
                 id="path157"
                 fill="url(#color-10)"
                 fill-rule="nonzero" />
              <path
                 d="M431.9445,108.82777l41.08836,-141.36148c2.22146,-0.41024 3.28318,0.84783 3.28318,0.84783l-40.97014,141.04447c-0.00249,0 -1.6428,-1.25792 -3.4014,-0.53082z"
                 id="path164"
                 fill="url(#color-11)"
                 fill-rule="nonzero" />
              <g
                 id="g172"
                 fill="none"
                 fill-rule="nonzero"
                 font-family="sans-serif"
                 font-weight="normal"
                 font-size="12"
                 text-anchor="start" />
            </g>
            <path
               d="M432.34704,108.9561c-79.64333,35.65424 -123.03119,15.63578 -158.9697,-8.71227l40.95255,-142.04826c35.97371,24.20975 75.88725,43.50358 158.89922,9.18271z"
               id="path185"
               fill="url(#color-12)"
               fill-rule="nonzero" />
          </g>
          <g
             id="g260">
            <g
               id="g251">
              <path
                 d="M47.93711,247.27844c0.27162,0.04077 0.77237,-0.19619 0.77237,-0.19619c0.57616,0.3924 1.03397,0.66921 1.03397,0.66921c0,0 -0.90066,0.21405 -1.80639,-0.47291z"
                 id="path189"
                 fill="#313c7e"
                 fill-rule="evenodd" />
              <path
                 d="M201.93053,254.54918c0,0 0.55099,0.51066 1.18493,0.3348l-2.48815,1.47428c-0.79498,0.35469 -1.61264,-0.20638 -1.61264,-0.20638z"
                 id="path191"
                 fill="#313c7e"
                 fill-rule="nonzero" />
              <path
                 d="M48.74219,247.09978c0,0 -0.48565,0.24666 -0.75977,0.2064l-2.7297,-2.08311l-0.06269,-0.0581c0.39495,0.1381 0.85034,0.06777 1.03399,0.03057z"
                 id="path193"
                 fill="#313c7e"
                 fill-rule="nonzero" />
              <path
                 d="M203.32679,252.51637c0.28437,0.2064 0.5837,0.43264 0.86546,1.00127c-0.15848,0.74718 -0.7824,1.12959 -1.13464,1.40631c-0.50808,0.11823 -1.2202,-0.36488 -1.2202,-0.36488c0.39749,-0.3348 1.07675,-0.81512 1.48938,-2.04286z"
                 id="path195"
                 fill="#2e499e"
                 fill-rule="nonzero" />
              <g
                 id="g201"
                 fill="#2e499e"
                 fill-rule="evenodd">
                <g
                   id="g199">
                  <path
                     d="M84.9801,102.05264v-0.04587h0.81511v0.04587z"
                     id="rect197" />
                </g>
              </g>
              <path
                 d="M45.03639,243.38644l-0.46272,-0.11822l40.41161,-141.36904l0.45508,0.12842z"
                 id="polygon203"
                 fill="#2e499e"
                 fill-rule="evenodd" />
              <path
                 d="M45.25272,245.223c-0.52331,-0.45304 -0.88555,-1.22772 -0.68181,-1.95478l0.48567,-0.18602c-0.20384,1.05162 0.56856,1.8089 1.13213,2.13342c0.00505,-0.00249 -0.4077,0.20384 -0.9359,0.00509z"
                 id="path205"
                 fill="#2e499e"
                 fill-rule="evenodd" />
              <path
                 d="M201.90536,254.64728c-36.05673,-24.26509 -73.42428,-42.79916 -155.66391,-9.38402c-0.56607,-0.3348 -1.42648,-1.13969 -1.22518,-2.20134c83.50512,-35.546 122.30164,-14.78042 158.35837,9.4922c-0.36742,1.28812 -1.07175,1.76863 -1.46924,2.09315z"
                 id="path214"
                 fill="url(#color-13)"
                 fill-rule="nonzero" />
              <path
                 d="M48.57866,246.99165c79.15779,-30.94713 114.63841,-14.09365 150.67751,9.10979c-21.58575,-13.89489 -43.80043,-25.01981 -74.45321,-25.20852c-20.51399,-0.11823 -44.75895,5.08952 -75.09975,16.8535c0,0.00249 -0.62645,-0.2339 -1.12455,-0.75472z"
                 id="path216"
                 fill="#313c7e"
                 fill-rule="evenodd" />
              <path
                 d="M201.94816,254.63719l-2.9158,1.5221c-36.03915,-23.20337 -72.51351,-39.24177 -150.28762,-9.062l-2.57117,-1.87682c82.23967,-33.42014 119.7204,-14.8559 155.77459,9.41672z"
                 id="path218"
                 fill="#2e499e"
                 fill-rule="evenodd" />
              <path
                 d="M203.30167,252.59439l41.57901,-142.31246c0.44539,0.30933 0.68176,0.55099 0.91322,0.81512l-41.61672,142.48857c-0.23391,-0.59873 -0.87551,-0.99124 -0.87551,-0.99124z"
                 id="path220"
                 fill="#313c7e"
                 fill-rule="evenodd" />
              <path
                 d="M244.863,110.34981c-36.02151,-24.41354 -76.64952,-42.08462 -159.5106,-8.26445c0.2064,-0.70698 0.37457,-1.04159 0.37457,-1.04159c83.22591,-34.41143 123.4161,-16.14152 159.43512,8.27456z"
                 id="path222"
                 fill="#3f87c7"
                 fill-rule="evenodd" />
              <g
                 id="g247"
                 fill-rule="nonzero">
                <g
                   clip-path="url(#clip-1)"
                   id="g245">
                  <g
                     id="g243">
                    <path
                       d="M203.36706,252.93903c-36.05424,-24.26509 -75.24821,-44.2231 -158.45649,-9.81677l40.74372,-142.31246c83.22591,-34.41143 123.20732,-14.93892 159.22634,9.47462z"
                       id="path239"
                       fill="url(#color-14)" />
                    <path
                       d="M203.36706,252.93903c-36.05424,-24.26509 -75.24821,-44.2231 -158.45649,-9.81677l40.74372,-142.31246c83.22591,-34.41143 123.20732,-14.93892 159.22634,9.47462z"
                       id="path241"
                       fill="none" />
                  </g>
                </g>
              </g>
              <path
                 d="M245.14981,109.30828l0.06778,0.04077c0.51322,0.36488 0.72204,1.07175 0.5761,1.74851l-0.03057,0.08814c-0.2288,-0.26143 -0.46781,-0.51068 -0.91071,-0.8201z"
                 id="path249"
                 fill="#313c7e"
                 fill-rule="evenodd" />
            </g>
            <path
               d="M85.43542,102.05264l-0.45558,-0.13352c0.17377,-0.59873 0.5837,-0.80503 0.74723,-0.87551l0.06778,-0.02038c0.00249,0 -0.15085,0.31442 -0.35978,1.02894z"
               id="path258"
               fill="url(#color-15)"
               fill-rule="evenodd" />
          </g>
          <g
             id="g348">
            <path
               d="M247.57762,87.7754c-33.80254,-22.26499 -74.00038,-39.30969 -151.05243,-7.81917l-2.88313,-2.03532c70.51596,-35.04288 117.99956,-18.15919 156.73819,8.7249z"
               id="path262"
               fill="#d75329"
               fill-rule="evenodd" />
            <path
               d="M251.73874,84.56019l40.93243,-141.32371c0.44285,0.30168 0.65918,0.59374 0.89314,0.85537l-40.95002,141.44444c-0.23391,-0.59374 -0.87549,-0.9761 -0.87549,-0.9761z"
               id="path264"
               fill="#ab4533"
               fill-rule="evenodd" />
            <path
               d="M96.55031,79.91091c13.11244,-5.37882 25.25633,-9.37141 36.5247,-12.11116c2.73219,-0.66167 5.15991,-1.26048 8.04304,-1.81645c2.65417,-0.52831 5.27568,-1.04402 7.8393,-1.42139c4.01778,-0.61387 7.91478,-1.11953 11.70864,-1.41139c3.24541,-0.25685 6.40277,-0.4454 9.4947,-0.47292c2.98878,-0.03566 5.90969,0.00505 8.76261,0.16869c2.54098,0.14574 5.02664,0.32971 7.47453,0.61887c2.06803,0.24155 4.09075,0.49583 6.09079,0.84028c4.22406,0.72455 8.30471,1.61515 12.24952,2.7347c15.93019,4.50587 30.07918,12.18664 43.08848,20.86118c-0.08561,0.04077 -0.39749,-0.0907 -0.53336,-0.16358c-0.12587,-0.06013 -0.18346,-0.06524 -0.29456,-0.14066c-17.5881,-11.15011 -36.48444,-20.84611 -59.80105,-23.70656c-23.86511,-2.93344 -51.67496,1.17489 -89.14309,16.04592c0,0 -0.873,0.36999 -1.20506,0.43012c-0.29965,0.04587 -0.2441,-0.18092 -0.29965,-0.45508z"
               id="path266"
               fill="#ab4533"
               fill-rule="evenodd" />
            <path
               d="M250.31481,86.62062c0,0 0.55597,0.38986 1.18493,0.24666l-2.58375,1.13967c-0.69689,0.20384 -1.52458,-0.22626 -1.52458,-0.22626z"
               id="path268"
               fill="#ab4533"
               fill-rule="nonzero" />
            <path
               d="M96.58558,79.93609c0,0 0.15848,0.26399 0.26397,0.43521c-0.25429,0.03566 -0.28435,0.10038 -0.91071,-0.17888c-0.08307,-0.03057 -0.20895,-0.13606 -0.31189,-0.18142l-2.6743,-2.1032l-0.24156,-0.19875c0.36488,-0.02547 0.64405,0.15085 0.82771,0.11568z"
               id="path270"
               fill="#ab4533"
               fill-rule="nonzero" />
            <path
               d="M251.76642,84.56519c0.28691,0.19111 0.62895,0.30424 0.86795,0.89812c-0.15848,0.75223 -0.79754,1.12964 -1.15476,1.40636c-0.63399,0.17888 -1.26045,-0.30933 -1.26045,-0.30933c0.40005,-0.31952 1.13458,-0.77237 1.54721,-1.99506z"
               id="path272"
               fill="#d75329"
               fill-rule="nonzero" />
            <path
               d="M292.9454,-57.68183l0.05095,0.03057c0.50552,0.36232 0.71703,1.07175 0.57108,1.74346l-0.02549,0.09072c-0.23645,-0.26397 -0.3873,-0.52582 -0.85037,-0.87551z"
               id="path274"
               fill="#d75329"
               fill-rule="evenodd" />
            <path
               d="M92.76654,77.78505c-0.3873,-0.30424 -0.77735,-1.49444 -0.57611,-2.21899l0.54345,-0.18854c-0.2013,1.04907 0.44794,2.2441 1.01136,2.56866c0.00249,0 -0.39495,0.22371 -0.97865,-0.16104z"
               id="path276"
               fill="#d75329"
               fill-rule="evenodd" />
            <g
               id="g316">
              <g
                 clip-path="url(#clip-2)"
                 id="g349">
                <path
                   d="M133.19828,-67.0734v-0.06064h0.81768v0.06064z"
                   id="rect284"
                   fill="#faaa4f"
                   fill-rule="evenodd" />
              </g>
              <g
                 clip-path="url(#clip-3)"
                 id="g352">
                <path
                   d="M133.19828,-67.00546v-0.06778h0.81768v0.06778z"
                   id="rect286"
                   fill="#f6a34c"
                   fill-rule="evenodd" />
              </g>
              <g
                 clip-path="url(#clip-4)"
                 id="g355">
                <path
                   d="M133.19828,-66.94507v-0.06064h0.81768v0.06064z"
                   id="rect288"
                   fill="#f39d48"
                   fill-rule="evenodd" />
              </g>
              <g
                 clip-path="url(#clip-5)"
                 id="g358">
                <path
                   d="M133.19828,-66.87464v-0.06778h0.81768v0.06778z"
                   id="rect290"
                   fill="#f09745"
                   fill-rule="evenodd" />
              </g>
              <g
                 clip-path="url(#clip-6)"
                 id="g361">
                <path
                   d="M133.19828,-66.81176v-0.06269h0.81768v0.06269z"
                   id="rect292"
                   fill="#ed9142"
                   fill-rule="evenodd" />
              </g>
              <g
                 clip-path="url(#clip-7)"
                 id="g364">
                <path
                   d="M133.19828,-66.75137v-0.06064h0.81768v0.06064z"
                   id="rect294"
                   fill="#eb8c3f"
                   fill-rule="evenodd" />
              </g>
              <g
                 clip-path="url(#clip-8)"
                 id="g367">
                <path
                   d="M133.19828,-66.68594v-0.06269h0.81768v0.06269z"
                   id="rect296"
                   fill="#e8863c"
                   fill-rule="evenodd" />
              </g>
              <g
                 clip-path="url(#clip-9)"
                 id="g370">
                <path
                   d="M133.19828,-66.6256v-0.06064h0.81768v0.06064z"
                   id="rect298"
                   fill="#e68139"
                   fill-rule="evenodd" />
              </g>
              <g
                 clip-path="url(#clip-10)"
                 id="g373">
                <path
                   d="M133.19828,-66.56017v-0.06269h0.81768v0.06269z"
                   id="rect300"
                   fill="#e57b37"
                   fill-rule="evenodd" />
              </g>
              <g
                 clip-path="url(#clip-11)"
                 id="g376">
                <path
                   d="M133.19828,-66.49729v-0.06267h0.81768v0.06267z"
                   id="rect302"
                   fill="#e27634"
                   fill-rule="evenodd" />
              </g>
              <g
                 clip-path="url(#clip-12)"
                 id="g379">
                <path
                   d="M133.19828,-66.43186v-0.06523h0.81768v0.06523z"
                   id="rect304"
                   fill="#e07132"
                   fill-rule="evenodd" />
              </g>
              <g
                 clip-path="url(#clip-13)"
                 id="g382">
                <path
                   d="M133.19828,-66.36647v-0.06269h0.81768v0.06269z"
                   id="rect306"
                   fill="#df6b30"
                   fill-rule="evenodd" />
              </g>
              <g
                 clip-path="url(#clip-14)"
                 id="g385">
                <path
                   d="M133.19828,-66.30608v-0.06013h0.81768v0.06013z"
                   id="rect308"
                   fill="#dc662e"
                   fill-rule="evenodd" />
              </g>
              <g
                 clip-path="url(#clip-15)"
                 id="g388">
                <path
                   d="M133.19828,-66.2356v-0.06778h0.81768v0.06778z"
                   id="rect310"
                   fill="#db602c"
                   fill-rule="evenodd" />
              </g>
              <g
                 clip-path="url(#clip-16)"
                 id="g391">
                <path
                   d="M133.19828,-66.17526v-0.06064h0.81768v0.06064z"
                   id="rect312"
                   fill="#d95a2a"
                   fill-rule="evenodd" />
              </g>
              <g
                 clip-path="url(#clip-17)"
                 id="g394">
                <path
                   d="M133.19828,-66.10734v-0.06778h0.81768v0.06778z"
                   id="rect314"
                   fill="#d75329"
                   fill-rule="evenodd" />
              </g>
            </g>
            <path
               d="M250.30477,86.63066c-22.17443,-14.49617 -42.93254,-26.4966 -75.80169,-27.44257c-24.03618,0.47546 -42.46206,3.53722 -80.79056,18.76049c-0.56607,-0.32207 -1.28308,-1.12455 -1.08433,-2.17871c33.18618,-14.13134 59.53189,-20.22719 81.39689,-20.01337c33.10821,0.32971 56.06001,14.18165 77.76153,28.78101c-0.36742,1.27805 -1.08181,1.76863 -1.48179,2.09315z"
               id="path331"
               fill="url(#color-16)"
               fill-rule="nonzero" />
            <path
               d="M133.21086,-66.26077l0.37967,0.12077l-40.86955,141.86212c-0.09326,-0.04077 -0.52829,-0.15594 -0.52829,-0.15594z"
               id="path333"
               fill="#d75329"
               fill-rule="evenodd" />
            <path
               d="M292.67873,-56.60004c-35.99634,-24.39091 -76.32495,-43.22433 -159.1282,-9.42928c0.21149,-0.70947 0.39749,-1.08682 0.39749,-1.08682c83.17052,-34.3837 123.04129,-14.93642 159.04518,9.46453z"
               id="path335"
               fill="#f89c3e"
               fill-rule="evenodd" />
            <path
               d="M251.79913,84.59036c-21.70652,-14.61694 -45.05078,-28.26024 -78.20425,-28.51183c-21.8751,-0.16867 -47.91382,6.04549 -80.96918,19.71396l40.96509,-141.94767c83.17052,-34.38875 123.11926,-14.92639 159.11311,9.46957z"
               id="path346"
               fill="url(#color-17)"
               fill-rule="nonzero" />
          </g>
          <g
             id="g493">
            <path
               d="M391.68128,279.56146c-0.40259,0.74724 -1.12959,1.18998 -1.37109,1.3158c-0.05301,0.03057 -0.08816,0.03058 -0.08816,0.03058c0,0 -0.69182,0.08814 -1.32079,-0.41279c1.62269,-0.88554 2.10325,-2.66427 2.10325,-2.66427c0,0 0.93588,0.79749 0.67675,1.73088z"
               id="path355"
               fill="url(#color-18)"
               fill-rule="evenodd" />
            <path
               d="M391.68128,279.56146c0.09835,-0.80508 -0.7673,-1.48433 -0.7673,-1.48433l39.41788,-137.39649c0,0 0.65911,0.57865 0.84023,1.01136z"
               id="path357"
               fill="#d4a52e"
               fill-rule="evenodd" />
            <path
               d="M431.14703,141.74978c0,0 -0.12842,-0.39238 -0.83525,-0.98368c0.32461,-1.33593 0.09784,-1.62274 0.09784,-1.62274l0.06267,0.04077c0.00249,0.00249 1.03905,0.956 0.67427,2.56615z"
               id="path364"
               fill="url(#color-19)"
               fill-rule="evenodd" />
            <path
               d="M427.2173,138.43898c0,0 -1.09187,-1.32585 -3.3108,-0.91322c0.11823,-0.50043 0.30424,-1.10945 1.01136,-1.39631c1.34093,-0.2064 1.98496,0.14831 2.26927,0.42247c0.16104,0.16613 0.2064,0.28435 0.2064,0.28435c0.17632,0.78744 -0.17632,1.60257 -0.17632,1.60257z"
               id="path371"
               fill="url(#color-20)"
               fill-rule="evenodd" />
            <path
               d="M427.18708,136.55211l3.28818,2.63405c0.19111,0.89312 -0.16104,1.77868 -0.16104,1.77868l-3.2731,-2.624c-0.00249,0 0.32207,-1.00384 0.14575,-1.78877z"
               id="path378"
               fill="url(#color-21)"
               fill-rule="evenodd" />
            <path
               d="M427.02605,138.13458l3.34606,2.67182l-39.37008,137.34869l-0.15593,0.37507l-3.45426,-2.97874z"
               id="polygon380"
               fill="#a87c3c"
               fill-rule="evenodd" />
            <path
               d="M385.44963,278.01674c0,0 -1.58243,-1.41639 -1.29817,-3.50954c2.13342,-0.5409 3.50956,0.80508 3.50956,0.80508c0,0 -0.3924,1.90948 -2.21143,2.70451z"
               id="path387"
               fill="url(#color-22)"
               fill-rule="nonzero" />
            <path
               d="M424.04231,137.66158c-83.46487,28.43132 -121.86889,11.43946 -157.87782,-12.79546c0.08561,-0.32461 0.30677,-0.85543 0.06267,-1.45416c36.00899,24.23492 75.8344,40.78398 158.68789,12.71749c-0.62645,0.43266 -0.70696,1.02141 -0.873,1.53213z"
               id="path389"
               fill="#ffcd02"
               fill-rule="nonzero" />
            <path
               d="M262.83356,124.47368l-40.30598,140.19916l-3.12968,2.47555l0.00509,-0.3348l40.46701,-140.18658z"
               id="polygon391"
               fill="#d4a52e"
               fill-rule="evenodd" />
            <path
               d="M225.95661,265.33951c-1.17489,-0.69689 -2.54349,-1.22774 -3.66553,-0.7774l40.41161,-140.03061c0.62896,-0.26397 2.12337,-0.67925 3.6555,0.3924z"
               id="path404"
               fill="url(#color-23)"
               fill-rule="nonzero" />
            <path
               d="M384.25211,274.79396l39.64431,-137.31854c0.07288,-0.02038 0.17123,-0.11823 0.23645,-0.12842c2.10823,-0.21659 3.08688,0.90317 3.08688,0.90317l-39.5361,137.10216c-0.00249,0.00249 -1.67305,-1.29561 -3.43159,-0.55853z"
               id="path411"
               fill="url(#color-24)"
               fill-rule="nonzero" />
            <path
               d="M390.31018,280.87721c-81.50252,34.83909 -133.7813,13.41438 -169.79023,-10.83059l0.3771,-0.31442c36.00899,24.23492 91.42245,44.41936 168.00154,10.61426c0.63399,0.50043 1.41141,0.53085 1.41141,0.53085z"
               id="path413"
               fill="#a87c3c"
               fill-rule="evenodd" />
            <path
               d="M387.65601,275.33489l3.35611,2.82026c0,0 -0.45304,1.63023 -2.26927,2.42776l-3.40895,-2.8303c1.81644,-0.79498 2.32211,-2.41772 2.32211,-2.41772z"
               id="path420"
               fill="url(#color-25)"
               fill-rule="evenodd" />
            <path
               d="M384.64457,274.46944c-0.28437,2.09315 1.25291,3.60764 1.25291,3.60764c-83.11517,34.37621 -125.68287,13.76913 -161.65914,-10.6142c0.63399,-0.46272 0.94343,-0.86541 1.34851,-2.31958c0.05301,0.03057 0.55597,-0.05095 0.60633,-0.02038c37.13603,22.86883 84.66744,40.94248 158.45144,9.34626z"
               id="path429"
               fill="url(#color-26)"
               fill-rule="nonzero" />
            <path
               d="M220.9124,269.87051l3.32587,-2.40762c33.00002,20.57942 79.25091,43.12368 161.29937,10.20163l3.39131,2.83029c-76.26206,33.77742 -132.00762,13.62068 -168.01662,-10.62434z"
               id="path431"
               fill="#c19236"
               fill-rule="evenodd" />
            <path
               d="M221.19415,269.97869l-0.3771,0.26397c0,0 -2.18876,-1.20755 -1.41141,-3.42908c0.17888,2.19125 1.78876,3.1649 1.78876,3.1649z"
               id="path433"
               fill="#d4a52e"
               fill-rule="evenodd" />
            <path
               d="M219.40544,266.8138l3.12465,-2.55608c-0.17123,2.28941 2.04533,3.13473 2.04533,3.13473l-3.43157,2.624c0.00249,0.00249 -1.91204,-0.9208 -1.73842,-3.20265z"
               id="path444"
               fill="url(#color-27)"
               fill-rule="nonzero" />
            <path
               d="M222.29862,264.34828c1.11955,-0.45304 2.16863,0.07796 3.34857,0.7673c-0.41024,1.46419 -0.65664,1.97493 -1.29063,2.43786c-0.73964,-0.44285 -2.24664,-1.34851 -2.05798,-3.20516z"
               id="path455"
               fill="url(#color-28)"
               fill-rule="nonzero" />
            <g
               id="g478"
               fill-rule="nonzero">
              <g
                 clip-path="url(#clip-18)"
                 id="g421">
                <path
                   d="M266.47641,123.97303c36.00899,24.24497 76.00799,43.55639 159.10808,9.2079l-40.96006,141.47467c-83.11517,34.37621 -123.03119,14.90874 -159.00241,-9.48462z"
                   id="path474"
                   fill="url(#color-29)" />
              </g>
              <g
                 clip-path="url(#clip-19)"
                 id="g424"
                 fill="none">
                <path
                   d="M266.47641,123.97303c36.00899,24.24497 76.00799,43.55639 159.10808,9.2079l-40.96006,141.47467c-83.11517,34.37621 -123.03119,14.90874 -159.00241,-9.48462z"
                   id="path476" />
              </g>
            </g>
            <path
               d="M263.22346,123.59063l-0.42756,1.00127l-2.96366,2.14351c0.19111,-0.89312 2.47557,-2.54598 3.18004,-3.03659c0.09326,-0.07032 0.21149,-0.10805 0.21149,-0.10805z"
               id="path480"
               fill="#ffcd02"
               fill-rule="evenodd" />
            <path
               d="M266.24246,124.85863c-1.65291,-0.96356 -3.00137,-0.38221 -3.63033,-0.10805c0.09784,-0.30424 0.43775,-1.07175 0.43775,-1.07175c1.33843,-0.85537 1.94724,-0.85538 3.19761,-0.25685c0.24155,0.59124 0.08308,1.06172 -0.00503,1.43653z"
               id="path491"
               fill="url(#color-30)"
               fill-rule="nonzero" />
          </g>
        </g>
        <g
           data-paper-data="{&quot;origPos&quot;:null}"
           id="g433"
           fill="#000000"
           fill-rule="nonzero">
          <path
             d="M414.81179,264.86405v-1.82902h11.64319v1.82902h-4.78259v14.87354h-2.08057v-14.87354z"
             id="polygon42" />
          <path
             d="M428.83244,263.03503h3.10707l5.00646,13.34639l4.93099,-13.34639h3.05422v16.70256h-2.02777v-14.57414l-5.4065,14.57414h-1.42899l-5.45684,-14.57414v14.57414h-1.77866z"
             id="polygon44" />
        </g>
      </g>
    </g>
  </g>
</svg>
