<?xml version="1.0" encoding="UTF-8" standalone="no"?>
<svg
   xmlns:dc="http://purl.org/dc/elements/1.1/"
   xmlns:cc="http://creativecommons.org/ns#"
   xmlns:rdf="http://www.w3.org/1999/02/22-rdf-syntax-ns#"
   xmlns:svg="http://www.w3.org/2000/svg"
   xmlns="http://www.w3.org/2000/svg"
   xmlns:sodipodi="http://sodipodi.sourceforge.net/DTD/sodipodi-0.dtd"
   xmlns:inkscape="http://www.inkscape.org/namespaces/inkscape"
   version="1.1"
   width="882.64483"
   height="147.50186"
   id="svg14"
   sodipodi:docname="Pocket PC 2000.svg"
   inkscape:version="0.92.4 (5da689c313, 2019-01-14)">
  <metadata
     id="metadata20">
    <rdf:RDF>
      <cc:Work
         rdf:about="">
        <dc:format>image/svg+xml</dc:format>
        <dc:type
           rdf:resource="http://purl.org/dc/dcmitype/StillImage" />
        <dc:title></dc:title>
      </cc:Work>
    </rdf:RDF>
  </metadata>
  <defs
     id="defs18" />
  <sodipodi:namedview
     pagecolor="#ffffff"
     bordercolor="#666666"
     borderopacity="1"
     objecttolerance="10"
     gridtolerance="10"
     guidetolerance="10"
     inkscape:pageopacity="0"
     inkscape:pageshadow="2"
     inkscape:window-width="640"
     inkscape:window-height="480"
     id="namedview16"
     showgrid="false"
     inkscape:zoom="0.32176022"
     inkscape:cx="441.32242"
     inkscape:cy="73.750931"
     inkscape:window-x="0"
     inkscape:window-y="0"
     inkscape:window-maximized="0"
     inkscape:current-layer="svg14" />
  <g
     transform="translate(201.32242,-106.24907)"
     id="g12">
    <g
       data-paper-data="{&quot;isPaintingLayer&quot;:true}"
       fill="#000000"
       fill-rule="nonzero"
       stroke="none"
       stroke-width="0.26459"
       stroke-linecap="butt"
       stroke-linejoin="miter"
       stroke-miterlimit="10"
       stroke-dasharray=""
       stroke-dashoffset="0"
       font-family="none"
       font-weight="none"
       font-size="none"
       text-anchor="none"
       style="mix-blend-mode: normal"
       id="g10">
      <path
         d="M-157.17579,199.42465v51.52176h-44.14663v-141.78877h60.55889c15.0964,0 26.55729,1.7312 34.38248,5.19369c7.89443,3.46249 14.12696,8.7601 18.69741,15.89283c4.6397,7.13264 6.95956,15.13087 6.95956,23.99493c0,13.50372 -4.70886,24.41052 -14.12687,32.72054c-9.41801,8.31002 -21.98683,12.46502 -37.70648,12.46502zM-157.79914,168.98942h14.54246c12.81125,0 19.21683,-4.70895 19.21683,-14.12696c0,-8.86401 -5.92085,-13.296 -17.7625,-13.296h-15.99674z"
         data-paper-data="{&quot;origPos&quot;:null}"
         id="path16" />
      <path
         d="M-28.74499,253.1278c-17.5202,0 -31.43942,-5.43612 -41.75763,-16.3083c-10.31823,-10.94145 -15.47735,-23.7527 -15.47735,-38.43363c0,-15.78891 5.36685,-28.94631 16.10054,-39.47226c10.80293,-10.52606 24.826,-15.78911 42.06919,-15.78911c17.38171,0 31.33546,5.19378 41.86148,15.58124c10.59522,10.38746 15.89283,23.40647 15.89283,39.05678c0,15.789 -5.36685,28.98115 -16.10059,39.57637c-10.66446,10.52597 -24.86055,15.78891 -42.5885,15.78891zM-28.12164,227.99013c6.44026,0 10.3529,-3.324 11.73787,-9.97187c1.45419,-6.71734 2.18135,-13.71157 2.18135,-20.98281c0,-9.90262 -1.00414,-17.03537 -3.01241,-21.39806c-2.00828,-4.36272 -5.60928,-6.54406 -10.80293,-6.54406c-4.77822,0 -8.27527,2.25059 -10.4913,6.75169c-2.21604,4.5013 -3.324,11.91103 -3.324,22.22926c0,12.11875 1.14265,20.15169 3.42794,24.09885c2.28528,3.87799 5.71309,5.817 10.28354,5.817z"
         data-paper-data="{&quot;origPos&quot;:null}"
         id="path18" />
      <path
         d="M98.12762,208.35774l35.31739,3.01255c-1.66204,12.32642 -6.85574,22.36764 -15.58115,30.12352c-8.65619,7.75605 -20.1863,11.63404 -34.59024,11.63404c-16.13514,0 -29.25807,-5.05529 -39.36854,-15.16576c-10.04122,-10.17963 -15.06176,-23.19862 -15.06176,-39.05678c0,-16.2045 4.98593,-29.53506 14.95793,-39.99167c10.04122,-10.52606 23.06024,-15.78911 39.05687,-15.78911c14.19618,0 25.76089,3.98188 34.69406,11.94559c8.93317,7.89443 14.05771,17.90101 15.37343,30.01978l-36.25219,3.01233c-1.52344,-11.14921 -5.74775,-16.7238 -12.67274,-16.7238c-4.43199,0 -7.68663,2.04288 -9.76415,6.12859c-2.00819,4.01657 -3.01241,11.0455 -3.01241,21.08672c0,8.65619 1.00423,15.06176 3.01241,19.21671c2.07752,4.15496 5.64384,6.2325 10.69904,6.2325c7.40971,0 11.80712,-5.22836 13.19204,-15.6852z"
         data-paper-data="{&quot;origPos&quot;:null}"
         id="path20" />
      <path
         d="M247.17288,145.30607l-31.88948,36.356l35.52504,69.28439h-42.79626l-19.84006,-42.27695l-11.32237,13.19204v29.08487h-38.84911v-141.78877h38.84911v57.23487c0,1.59269 -0.10383,7.96359 -0.31159,19.1128c2.49302,-3.53174 5.02062,-6.75183 7.58289,-9.66033l26.48795,-30.539z"
         data-paper-data="{&quot;origPos&quot;:null}"
         id="path22" />
      <path
         d="M312.9246,213.03222l38.64139,2.59683c-2.28528,10.38746 -8.13686,19.25152 -17.55487,26.59196c-9.34865,7.27122 -22.02141,10.90678 -38.01804,10.90678c-17.79719,0 -31.99337,-5.12445 -42.58858,-15.37343c-10.59522,-10.31823 -15.89283,-23.0948 -15.89283,-38.32972c0,-15.789 5.22836,-29.11967 15.68509,-39.99185c10.4567,-10.8722 24.41052,-16.3083 41.86148,-16.3083c16.89696,0 30.53908,5.12454 40.92654,15.37361c10.4567,10.24899 15.68509,24.20276 15.68509,41.86148c0,1.45422 -0.03489,3.46249 -0.10451,6.02467h-70.7386c0.1384,6.64789 1.31572,11.59927 3.53174,14.854c2.21604,3.18551 6.44026,4.77822 12.67274,4.77822c9.00253,0 14.30014,-4.32803 15.89283,-12.98424zM310.22386,185.60926c-0.06962,-7.13272 -1.52395,-11.91092 -4.36272,-14.33461c-2.77003,-2.49302 -6.2325,-3.73957 -10.38746,-3.73957c-9.83349,0 -14.75017,6.02476 -14.75017,18.07417z"
         data-paper-data="{&quot;origPos&quot;:null}"
         id="path24" />
      <path
         d="M421.20371,145.30607v26.90334h-21.08652v38.95306c0,5.33228 1.00414,8.51769 3.01233,9.55639c2.00819,0.97018 4.08571,1.4553 6.2325,1.4553c3.32389,0 7.27113,-0.58897 11.84167,-1.76687v29.50037c-8.17146,1.5928 -16.20439,2.3892 -24.09885,2.3892c-12.74201,0 -22.12544,-2.73543 -28.15018,-8.2062c-5.95543,-5.47068 -8.93308,-14.19609 -8.93308,-26.17628l0.10052,-12.36106v-33.34387h-15.78878v-26.90334h15.78878l0.62313,-34.38248l39.36854,-0.62313v35.00583z"
         data-paper-data="{&quot;origPos&quot;:null}"
         id="path26" />
      <path
         d="M477.78481,250.94645h-17.76241v-141.78877h50.2753c15.71967,0 27.31891,4.29347 34.79798,12.88028c7.47887,8.51769 11.21834,18.24738 11.21834,29.18883c0,12.18802 -4.08571,22.26382 -12.25717,30.22743c-8.10231,7.9637 -18.73217,11.94559 -31.88956,11.94559h-34.38248zM477.78481,178.64972h32.61663c8.37927,0 15.13109,-2.49302 20.25554,-7.47896c5.12454,-5.05529 7.68681,-11.70327 7.68681,-19.94398c0,-7.06348 -2.28528,-13.36522 -6.85583,-18.90515c-4.57046,-5.53993 -11.18377,-8.30993 -19.84006,-8.30993h-33.86308z"
         data-paper-data="{&quot;origPos&quot;:null}"
         id="path28" />
      <path
         d="M665.118,203.26798l16.20439,3.63565c-7.75583,31.23157 -25.27605,46.8473 -52.56058,46.8473c-17.9357,0 -32.02797,-7.23653 -42.27695,-21.70965c-10.17963,-14.47321 -15.26948,-32.2704 -15.26948,-53.39156c0,-21.81367 5.33228,-39.33385 15.99674,-52.56058c10.66437,-13.22673 24.96438,-19.84006 42.90008,-19.84006c26.59196,0 43.66199,15.20036 51.21022,45.60104l-16.7238,3.32389c-6.0939,-22.5754 -17.62403,-33.86308 -34.59015,-33.86308c-12.53427,0 -22.26393,5.26294 -29.18883,15.78891c-6.85574,10.45684 -10.28363,25.17232 -10.28363,44.14672c0,17.38171 3.53174,31.33551 10.59522,41.86148c7.06348,10.45661 16.41213,15.68498 28.04608,15.68498c18.07426,0 30.05445,-11.84167 35.94072,-35.52504z"
         data-paper-data="{&quot;origPos&quot;:null}"
         id="path30" />
    </g>
  </g>
</svg>
