<?xml version="1.0" encoding="utf-8"?>
<!-- Generator: Adobe Illustrator 24.0.2, SVG Export Plug-In . SVG Version: 6.00 Build 0)  -->
<svg version="1.1"
	 id="svg10" xmlns:cc="http://creativecommons.org/ns#" xmlns:dc="http://purl.org/dc/elements/1.1/" xmlns:inkscape="http://www.inkscape.org/namespaces/inkscape" xmlns:rdf="http://www.w3.org/1999/02/22-rdf-syntax-ns#" xmlns:sodipodi="http://sodipodi.sourceforge.net/DTD/sodipodi-0.dtd" xmlns:svg="http://www.w3.org/2000/svg"
	 xmlns="http://www.w3.org/2000/svg" xmlns:xlink="http://www.w3.org/1999/xlink" x="0px" y="0px" viewBox="0 0 632.7 158.2"
	 style="enable-background:new 0 0 632.7 158.2;" xml:space="preserve">
<style type="text/css">
	.st0{fill:url(#path20_1_);stroke:#AF030A;stroke-width:1.9;}
	.st1{fill:url(#path20-6_1_);stroke:#AF030A;stroke-width:1.9;}
	.st2{fill:#FFFFFF;stroke:#AF030A;stroke-width:1.9;}
</style>
<sodipodi:namedview  bordercolor="#666666" borderopacity="1" gridtolerance="10" guidetolerance="10" id="namedview12" inkscape:current-layer="svg10" inkscape:cx="250.35764" inkscape:cy="14.045226" inkscape:pageopacity="0" inkscape:pageshadow="2" inkscape:window-height="1001" inkscape:window-maximized="1" inkscape:window-width="1920" inkscape:window-x="-9" inkscape:window-y="-9" inkscape:zoom="1.7507592" objecttolerance="10" pagecolor="#ffffff" showgrid="false">
	</sodipodi:namedview>
<g id="g1666" transform="translate(-1.9796816,-1.4652262)">
	
		<linearGradient id="path20_1_" gradientUnits="userSpaceOnUse" x1="318.6068" y1="137.8523" x2="318.6068" y2="23.7557" gradientTransform="matrix(1 0 0 -1 -0.2509 164.8634)">
		<stop  offset="0" style="stop-color:#F51E00"/>
		<stop  offset="1" style="stop-color:#A70100"/>
	</linearGradient>
	<path id="path20" inkscape:connector-curvature="0" class="st0" d="M211.6,14L211.6,14c0-0.2,0-0.3,0-0.4l-0.3-3.4l-21-0.3
		c-21.9-0.3-56.7,1-59.8,2.3c-0.8,0.3-1.5,1.3-1.7,2.2v0c0,0.1-0.1,0.3-0.1,0.4c0,2.3,4.3,13.2,6.6,16.6c1.2,1.8,2.2,2.3,3.8,1.8
		c6.3-1.7,30.3-2.8,48.9-2.4l20.7,0.5l1.6-7.2C211.1,20.5,211.7,16.1,211.6,14z M198.6,20.9l-1.4,4.3l-11,0.2
		c-6,0.1-17.5,0.7-25.5,1.3c-8,0.6-15.5,1.3-16.8,1.6c-1.9,0.5-2.5-0.1-3.8-3.2c-1-2.4-1.4-4.3-1.3-5.8v0c0.2-2.1,1.4-3.4,3.9-3.9
		c6.2-1.3,54.7-1.5,56.1-0.1c0.3,0.3,0.5,0.7,0.6,1.2C199.6,17.5,199.3,18.8,198.6,20.9z M189.7,98.2L189.7,98.2
		c-0.4-4.6-5.1-19.9-7.2-22.7c-1.5-2-13.8-4.3-28.6-5.3l-10.2-0.7V82c0,0.9,0,1.8,0,2.6c0,0.8,0,1.6,0,2.4c0,0.4,0,0.7,0,1.1
		c0,0.3,0,0.7,0,1c0,0.3,0,0.5,0,0.8c0.1,4,0.3,7.4,0.7,10.3c0,0.4,0.1,0.8,0.2,1.1c0.1,0.5,0.2,0.9,0.2,1.4
		c0.1,0.4,0.1,0.8,0.2,1.2c0,0.2,0.1,0.4,0.1,0.7c0,0.2,0.1,0.4,0.2,0.6c0.1,0.3,0.2,0.6,0.3,1c0.1,0.4,0.2,0.7,0.3,1
		c0.1,0.2,0.1,0.4,0.2,0.5c0,0,0,0.1,0,0.1c0.1,0.2,0.1,0.4,0.2,0.6c0.3,0.7,0.6,1.4,0.9,2.1c0.9,1.9,2.2,3.3,2.8,3.1
		c0.6-0.2,9.5-3.2,19.8-6.6c10.3-3.4,19.1-6.8,19.7-7.4C189.7,99.3,189.8,98.8,189.7,98.2z M150.8,79.7c0-3.5,0.4-4,2.6-4.6
		c3.8-1,17.6,0.5,20.1,2.1c2.2,1.5,6.1,10.4,7.1,16.3c0.1,0.5,0.1,0.9,0.2,1.3c0,0,0,0,0,0c0.3,2.9-1.3,3.4-13.2,7.3
		c-5.9,1.9-10.9,3.5-11.2,3.5c-1.9,0-5.6-17-5.6-25.6C150.8,80,150.8,79.8,150.8,79.7z M189.7,98.2L189.7,98.2
		c-0.4-4.6-5.1-19.9-7.2-22.7c-1.5-2-13.8-4.3-28.6-5.3l-10.2-0.7V82c0,0.9,0,1.8,0,2.6c0,0.8,0,1.6,0,2.4c0,0.4,0,0.7,0,1.1
		c0,0.3,0,0.7,0,1c0,0.3,0,0.5,0,0.8c0.1,4,0.3,7.4,0.7,10.3c0,0.4,0.1,0.8,0.2,1.1c0.1,0.5,0.2,0.9,0.2,1.4
		c0.1,0.4,0.1,0.8,0.2,1.2c0,0.2,0.1,0.4,0.1,0.7c0,0.2,0.1,0.4,0.2,0.6c0.1,0.3,0.2,0.6,0.3,1c0.1,0.4,0.2,0.7,0.3,1
		c0.1,0.2,0.1,0.4,0.2,0.5c0,0,0,0.1,0,0.1c0.1,0.2,0.1,0.4,0.2,0.6c0.3,0.7,0.6,1.4,0.9,2.1c0.9,1.9,2.2,3.3,2.8,3.1
		c0.6-0.2,9.5-3.2,19.8-6.6c10.3-3.4,19.1-6.8,19.7-7.4C189.7,99.3,189.8,98.8,189.7,98.2z M150.8,79.7c0-3.5,0.4-4,2.6-4.6
		c3.8-1,17.6,0.5,20.1,2.1c2.2,1.5,6.1,10.4,7.1,16.3c0.1,0.5,0.1,0.9,0.2,1.3c0,0,0,0,0,0c0.3,2.9-1.3,3.4-13.2,7.3
		c-5.9,1.9-10.9,3.5-11.2,3.5c-1.9,0-5.6-17-5.6-25.6C150.8,80,150.8,79.8,150.8,79.7z M452.1,102.2L452.1,102.2
		c-0.1-2.9-1-7.8-2.8-16.7c-4.2-21.1-8.1-33.7-10.2-33.7c-3.8,0-30.6,12.5-36.4,16.9l-2.2,1.7l-0.3,0.2l2.4,6.8
		c4,11.5,12,29.5,14.6,32.9l2.5,3.2l6.2-1.9c5.2-1.6,21.2-4.9,24-4.9c0.5,0,1.3-0.9,1.9-2C452,104.3,452.1,103.5,452.1,102.2z
		 M443.5,102.3c-0.1,0.1-4.5,1.3-9.7,2.8c-5.3,1.5-10.1,2.7-10.7,2.7c-2,0-9.7-18.1-12.2-28.8c-0.6-2.5-0.8-3.9-0.7-5
		c0.1-0.8,0.4-1.4,0.8-2c1.9-2.3,19.8-10.5,21.4-9.9c1.7,0.7,6.9,17.3,9.4,30.1c0.8,4,1.4,7.5,1.7,9.1
		C443.4,102,443.5,102.3,443.5,102.3z M452.1,102.2L452.1,102.2c-0.1-2.9-1-7.8-2.8-16.7c-4.2-21.1-8.1-33.7-10.2-33.7
		c-3.8,0-30.6,12.5-36.4,16.9l-2.2,1.7l-0.3,0.2l2.4,6.8c4,11.5,12,29.5,14.6,32.9l2.5,3.2l6.2-1.9c5.2-1.6,21.2-4.9,24-4.9
		c0.5,0,1.3-0.9,1.9-2C452,104.3,452.1,103.5,452.1,102.2z M443.5,102.3c-0.1,0.1-4.5,1.3-9.7,2.8c-5.3,1.5-10.1,2.7-10.7,2.7
		c-2,0-9.7-18.1-12.2-28.8c-0.6-2.5-0.8-3.9-0.7-5c0.1-0.8,0.4-1.4,0.8-2c1.9-2.3,19.8-10.5,21.4-9.9c1.7,0.7,6.9,17.3,9.4,30.1
		c0.8,4,1.4,7.5,1.7,9.1C443.4,102,443.5,102.3,443.5,102.3z M292.9,53l-6.8-1.6c-7.8-1.8-17.7-3.4-24.4-3.8l-4.4-0.3h-0.1l0.3,6.5
		c0.4,7.8,2,20.8,2.8,22.1c0.7,1.1-0.5,1.2,12.1-1.2c19-3.6,18.9-3.5,19.9-14.7L292.9,53L292.9,53z M263.5,51.5l7.3,0.7
		c4.1,0.4,9,1,10.9,1.4c3.5,0.7,3.5,0.8,3.8,6.4c0,0.9,0.1,1.6,0.1,2.2v0.1c0.1,3.1-0.4,3.6-2.3,4.3c-5.3,2-17.6,3.8-18.3,2.7
		c-0.4-0.6-0.9-4.9-1.1-9.5L263.5,51.5L263.5,51.5z M280.1,91.7c-10.3,0-24.4,2.1-25,3.6c0,0.1-0.1,0.2-0.1,0.4
		c-0.2,3.6,2.5,24.8,3.4,26.2c0.3,0.5,1.9,0.7,3.5,0.3c1.6-0.3,7.2-0.9,12.4-1.3c7.4-0.5,9.5-1,9.9-2.3c0.7-2.3,2.5-19,2.5-23.3v-1
		l0-2.8H280.1z M261.8,101.1c0.1-3.5,2-3.6,10.2-3.7l7.2-0.1l0.3,4c0,0.3,0,0.6,0,0.9c0.1,2.2-0.3,5-0.8,6.8
		c-0.9,2.9-1.7,3.8-4.2,4.3c-4.9,1-10.7,0.7-11.4-0.5c-0.4-0.6-0.9-4-1.2-7.5C261.9,103.5,261.8,102.1,261.8,101.1z M292.9,53
		l-6.8-1.6c-7.8-1.8-17.7-3.4-24.4-3.8l-4.4-0.3h-0.1l0.3,6.5c0.4,7.8,2,20.8,2.8,22.1c0.7,1.1-0.5,1.2,12.1-1.2
		c19-3.6,18.9-3.5,19.9-14.7L292.9,53L292.9,53z M263.5,51.5l7.3,0.7c4.1,0.4,9,1,10.9,1.4c3.5,0.7,3.5,0.8,3.8,6.4
		c0,0.9,0.1,1.6,0.1,2.2v0.1c0.1,3.1-0.4,3.6-2.3,4.3c-5.3,2-17.6,3.8-18.3,2.7c-0.4-0.6-0.9-4.9-1.1-9.5L263.5,51.5L263.5,51.5z
		 M280.1,91.7c-10.3,0-24.4,2.1-25,3.6c0,0.1-0.1,0.2-0.1,0.4c-0.2,3.6,2.5,24.8,3.4,26.2c0.3,0.5,1.9,0.7,3.5,0.3
		c1.6-0.3,7.2-0.9,12.4-1.3c7.4-0.5,9.5-1,9.9-2.3c0.7-2.3,2.5-19,2.5-23.3v-1l0-2.8H280.1z M261.8,101.1c0.1-3.5,2-3.6,10.2-3.7
		l7.2-0.1l0.3,4c0,0.3,0,0.6,0,0.9c0.1,2.2-0.3,5-0.8,6.8c-0.9,2.9-1.7,3.8-4.2,4.3c-4.9,1-10.7,0.7-11.4-0.5
		c-0.4-0.6-0.9-4-1.2-7.5C261.9,103.5,261.8,102.1,261.8,101.1z M69.5,53.3c-4.9-1.1-19.6-2.5-26.1-2.5h-6.8l0.5,2.8
		c0.3,1.5,0.8,6.3,1.2,10.8c0.4,4.4,1.1,8.8,1.6,9.8c0.8,1.4,1.7,1.7,4.2,1.3c1.7-0.3,8.4-1.3,14.8-2.3l11.7-1.8l0.6-3.5
		c0.3-2,0.6-5.9,0.6-8.8v-0.6C71.7,54.3,71.4,53.7,69.5,53.3z M41.6,54.5l9.7,0.7c11.7,0.9,14.2,1.4,14.4,4.8V60c0,0.4,0,0.9,0,1.5
		c-0.3,3.6-0.5,3.8-5.3,5c-2.8,0.7-7.8,1.6-11.3,1.9c-5.7,0.6-6.3,0.5-6.3-1.3c0-1-0.3-4.3-0.7-7.3l-0.7-5.4L41.6,54.5z M69.5,53.3
		c-4.9-1.1-19.6-2.5-26.1-2.5h-6.8l0.5,2.8c0.3,1.5,0.8,6.3,1.2,10.8c0.4,4.4,1.1,8.8,1.6,9.8c0.8,1.4,1.7,1.7,4.2,1.3
		c1.7-0.3,8.4-1.3,14.8-2.3l11.7-1.8l0.6-3.5c0.3-2,0.6-5.9,0.6-8.8v-0.6C71.7,54.3,71.4,53.7,69.5,53.3z M41.6,54.5l9.7,0.7
		c11.7,0.9,14.2,1.4,14.4,4.8V60c0,0.4,0,0.9,0,1.5c-0.3,3.6-0.5,3.8-5.3,5c-2.8,0.7-7.8,1.6-11.3,1.9c-5.7,0.6-6.3,0.5-6.3-1.3
		c0-1-0.3-4.3-0.7-7.3l-0.7-5.4L41.6,54.5z M69.5,53.3c-4.9-1.1-19.6-2.5-26.1-2.5h-6.8l0.5,2.8c0.3,1.5,0.8,6.3,1.2,10.8
		c0.4,4.4,1.1,8.8,1.6,9.8c0.8,1.4,1.7,1.7,4.2,1.3c1.7-0.3,8.4-1.3,14.8-2.3l11.7-1.8l0.6-3.5c0.3-2,0.6-5.9,0.6-8.8v-0.6
		C71.7,54.3,71.4,53.7,69.5,53.3z M41.6,54.5l9.7,0.7c11.7,0.9,14.2,1.4,14.4,4.8V60c0,0.4,0,0.9,0,1.5c-0.3,3.6-0.5,3.8-5.3,5
		c-2.8,0.7-7.8,1.6-11.3,1.9c-5.7,0.6-6.3,0.5-6.3-1.3c0-1-0.3-4.3-0.7-7.3l-0.7-5.4L41.6,54.5z M189.7,98.2L189.7,98.2
		c-0.4-4.6-5.1-19.9-7.2-22.7c-1.5-2-13.8-4.3-28.6-5.3l-10.2-0.7V82c0,0.9,0,1.8,0,2.6c0,0.8,0,1.6,0,2.4c0,0.4,0,0.7,0,1.1
		c0,0.3,0,0.7,0,1c0,0.3,0,0.5,0,0.8c0.1,4,0.3,7.4,0.7,10.3c0,0.4,0.1,0.8,0.2,1.1c0.1,0.5,0.2,0.9,0.2,1.4
		c0.1,0.4,0.1,0.8,0.2,1.2c0,0.2,0.1,0.4,0.1,0.7c0,0.2,0.1,0.4,0.2,0.6c0.1,0.3,0.2,0.6,0.3,1c0.1,0.4,0.2,0.7,0.3,1
		c0.1,0.2,0.1,0.4,0.2,0.5c0,0,0,0.1,0,0.1c0.1,0.2,0.1,0.4,0.2,0.6c0.3,0.7,0.6,1.4,0.9,2.1c0.9,1.9,2.2,3.3,2.8,3.1
		c0.6-0.2,9.5-3.2,19.8-6.6c10.3-3.4,19.1-6.8,19.7-7.4C189.7,99.3,189.8,98.8,189.7,98.2z M150.8,79.7c0-3.5,0.4-4,2.6-4.6
		c3.8-1,17.6,0.5,20.1,2.1c2.2,1.5,6.1,10.4,7.1,16.3c0.1,0.5,0.1,0.9,0.2,1.3c0,0,0,0,0,0c0.3,2.9-1.3,3.4-13.2,7.3
		c-5.9,1.9-10.9,3.5-11.2,3.5c-1.9,0-5.6-17-5.6-25.6C150.8,80,150.8,79.8,150.8,79.7z M280.1,91.7c-10.3,0-24.4,2.1-25,3.6
		c0,0.1-0.1,0.2-0.1,0.4c-0.2,3.6,2.5,24.8,3.4,26.2c0.3,0.5,1.9,0.7,3.5,0.3c1.6-0.3,7.2-0.9,12.4-1.3c7.4-0.5,9.5-1,9.9-2.3
		c0.7-2.3,2.5-19,2.5-23.3v-1l0-2.8H280.1z M261.8,101.1c0.1-3.5,2-3.6,10.2-3.7l7.2-0.1l0.3,4c0,0.3,0,0.6,0,0.9
		c0.1,2.2-0.3,5-0.8,6.8c-0.9,2.9-1.7,3.8-4.2,4.3c-4.9,1-10.7,0.7-11.4-0.5c-0.4-0.6-0.9-4-1.2-7.5
		C261.9,103.5,261.8,102.1,261.8,101.1z M292.9,53l-6.8-1.6c-7.8-1.8-17.7-3.4-24.4-3.8l-4.4-0.3h-0.1l0.3,6.5
		c0.4,7.8,2,20.8,2.8,22.1c0.7,1.1-0.5,1.2,12.1-1.2c19-3.6,18.9-3.5,19.9-14.7L292.9,53L292.9,53z M263.5,51.5l7.3,0.7
		c4.1,0.4,9,1,10.9,1.4c3.5,0.7,3.5,0.8,3.8,6.4c0,0.9,0.1,1.6,0.1,2.2v0.1c0.1,3.1-0.4,3.6-2.3,4.3c-5.3,2-17.6,3.8-18.3,2.7
		c-0.4-0.6-0.9-4.9-1.1-9.5L263.5,51.5L263.5,51.5z M452.1,102.2L452.1,102.2c-0.1-2.9-1-7.8-2.8-16.7c-4.2-21.1-8.1-33.7-10.2-33.7
		c-3.8,0-30.6,12.5-36.4,16.9l-2.2,1.7l-0.3,0.2l2.4,6.8c4,11.5,12,29.5,14.6,32.9l2.5,3.2l6.2-1.9c5.2-1.6,21.2-4.9,24-4.9
		c0.5,0,1.3-0.9,1.9-2C452,104.3,452.1,103.5,452.1,102.2z M443.5,102.3c-0.1,0.1-4.5,1.3-9.7,2.8c-5.3,1.5-10.1,2.7-10.7,2.7
		c-2,0-9.7-18.1-12.2-28.8c-0.6-2.5-0.8-3.9-0.7-5c0.1-0.8,0.4-1.4,0.8-2c1.9-2.3,19.8-10.5,21.4-9.9c1.7,0.7,6.9,17.3,9.4,30.1
		c0.8,4,1.4,7.5,1.7,9.1C443.4,102,443.5,102.3,443.5,102.3z M69.5,53.3c-4.9-1.1-19.6-2.5-26.1-2.5h-6.8l0.5,2.8
		c0.3,1.5,0.8,6.3,1.2,10.8c0.4,4.4,1.1,8.8,1.6,9.8c0.8,1.4,1.7,1.7,4.2,1.3c1.7-0.3,8.4-1.3,14.8-2.3l11.7-1.8l0.6-3.5
		c0.3-2,0.6-5.9,0.6-8.8v-0.6C71.7,54.3,71.4,53.7,69.5,53.3z M41.6,54.5l9.7,0.7c11.7,0.9,14.2,1.4,14.4,4.8V60c0,0.4,0,0.9,0,1.5
		c-0.3,3.6-0.5,3.8-5.3,5c-2.8,0.7-7.8,1.6-11.3,1.9c-5.7,0.6-6.3,0.5-6.3-1.3c0-1-0.3-4.3-0.7-7.3l-0.7-5.4L41.6,54.5z M189.7,98.2
		L189.7,98.2c-0.4-4.6-5.1-19.9-7.2-22.7c-1.5-2-13.8-4.3-28.6-5.3l-10.2-0.7V82c0,0.9,0,1.8,0,2.6c0,0.8,0,1.6,0,2.4
		c0,0.4,0,0.7,0,1.1c0,0.3,0,0.7,0,1c0,0.3,0,0.5,0,0.8c0.1,4,0.3,7.4,0.7,10.3c0,0.4,0.1,0.8,0.2,1.1c0.1,0.5,0.2,0.9,0.2,1.4
		c0.1,0.4,0.1,0.8,0.2,1.2c0,0.2,0.1,0.4,0.1,0.7c0,0.2,0.1,0.4,0.2,0.6c0.1,0.3,0.2,0.6,0.3,1c0.1,0.4,0.2,0.7,0.3,1
		c0.1,0.2,0.1,0.4,0.2,0.5c0,0,0,0.1,0,0.1c0.1,0.2,0.1,0.4,0.2,0.6c0.3,0.7,0.6,1.4,0.9,2.1c0.9,1.9,2.2,3.3,2.8,3.1
		c0.6-0.2,9.5-3.2,19.8-6.6c10.3-3.4,19.1-6.8,19.7-7.4C189.7,99.3,189.8,98.8,189.7,98.2z M150.8,79.7c0-3.5,0.4-4,2.6-4.6
		c3.8-1,17.6,0.5,20.1,2.1c2.2,1.5,6.1,10.4,7.1,16.3c0.1,0.5,0.1,0.9,0.2,1.3c0,0,0,0,0,0c0.3,2.9-1.3,3.4-13.2,7.3
		c-5.9,1.9-10.9,3.5-11.2,3.5c-1.9,0-5.6-17-5.6-25.6C150.8,80,150.8,79.8,150.8,79.7z M292.9,53l-6.8-1.6
		c-7.8-1.8-17.7-3.4-24.4-3.8l-4.4-0.3h-0.1l0.3,6.5c0.4,7.8,2,20.8,2.8,22.1c0.7,1.1-0.5,1.2,12.1-1.2c19-3.6,18.9-3.5,19.9-14.7
		L292.9,53L292.9,53z M263.5,51.5l7.3,0.7c4.1,0.4,9,1,10.9,1.4c3.5,0.7,3.5,0.8,3.8,6.4c0,0.9,0.1,1.6,0.1,2.2v0.1
		c0.1,3.1-0.4,3.6-2.3,4.3c-5.3,2-17.6,3.8-18.3,2.7c-0.4-0.6-0.9-4.9-1.1-9.5L263.5,51.5L263.5,51.5z M280.1,91.7
		c-10.3,0-24.4,2.1-25,3.6c0,0.1-0.1,0.2-0.1,0.4c-0.2,3.6,2.5,24.8,3.4,26.2c0.3,0.5,1.9,0.7,3.5,0.3c1.6-0.3,7.2-0.9,12.4-1.3
		c7.4-0.5,9.5-1,9.9-2.3c0.7-2.3,2.5-19,2.5-23.3v-1l0-2.8H280.1z M261.8,101.1c0.1-3.5,2-3.6,10.2-3.7l7.2-0.1l0.3,4
		c0,0.3,0,0.6,0,0.9c0.1,2.2-0.3,5-0.8,6.8c-0.9,2.9-1.7,3.8-4.2,4.3c-4.9,1-10.7,0.7-11.4-0.5c-0.4-0.6-0.9-4-1.2-7.5
		C261.9,103.5,261.8,102.1,261.8,101.1z M452.1,102.2L452.1,102.2c-0.1-2.9-1-7.8-2.8-16.7c-4.2-21.1-8.1-33.7-10.2-33.7
		c-3.8,0-30.6,12.5-36.4,16.9l-2.2,1.7l-0.3,0.2l2.4,6.8c4,11.5,12,29.5,14.6,32.9l2.5,3.2l6.2-1.9c5.2-1.6,21.2-4.9,24-4.9
		c0.5,0,1.3-0.9,1.9-2C452,104.3,452.1,103.5,452.1,102.2z M443.5,102.3c-0.1,0.1-4.5,1.3-9.7,2.8c-5.3,1.5-10.1,2.7-10.7,2.7
		c-2,0-9.7-18.1-12.2-28.8c-0.6-2.5-0.8-3.9-0.7-5c0.1-0.8,0.4-1.4,0.8-2c1.9-2.3,19.8-10.5,21.4-9.9c1.7,0.7,6.9,17.3,9.4,30.1
		c0.8,4,1.4,7.5,1.7,9.1C443.4,102,443.5,102.3,443.5,102.3z M69.5,53.3c-4.9-1.1-19.6-2.5-26.1-2.5h-6.8l0.5,2.8
		c0.3,1.5,0.8,6.3,1.2,10.8c0.4,4.4,1.1,8.8,1.6,9.8c0.8,1.4,1.7,1.7,4.2,1.3c1.7-0.3,8.4-1.3,14.8-2.3l11.7-1.8l0.6-3.5
		c0.3-2,0.6-5.9,0.6-8.8v-0.6C71.7,54.3,71.4,53.7,69.5,53.3z M41.6,54.5l9.7,0.7c11.7,0.9,14.2,1.4,14.4,4.8V60c0,0.4,0,0.9,0,1.5
		c-0.3,3.6-0.5,3.8-5.3,5c-2.8,0.7-7.8,1.6-11.3,1.9c-5.7,0.6-6.3,0.5-6.3-1.3c0-1-0.3-4.3-0.7-7.3l-0.7-5.4L41.6,54.5z M189.7,98.2
		L189.7,98.2c-0.4-4.6-5.1-19.9-7.2-22.7c-1.5-2-13.8-4.3-28.6-5.3l-10.2-0.7V82c0,0.9,0,1.8,0,2.6c0,0.8,0,1.6,0,2.4
		c0,0.4,0,0.7,0,1.1c0,0.3,0,0.7,0,1c0,0.3,0,0.5,0,0.8c0.1,4,0.3,7.4,0.7,10.3c0,0.4,0.1,0.8,0.2,1.1c0.1,0.5,0.2,0.9,0.2,1.4
		c0.1,0.4,0.1,0.8,0.2,1.2c0,0.2,0.1,0.4,0.1,0.7c0,0.2,0.1,0.4,0.2,0.6c0.1,0.3,0.2,0.6,0.3,1c0.1,0.4,0.2,0.7,0.3,1
		c0.1,0.2,0.1,0.4,0.2,0.5c0,0,0,0.1,0,0.1c0.1,0.2,0.1,0.4,0.2,0.6c0.3,0.7,0.6,1.4,0.9,2.1c0.9,1.9,2.2,3.3,2.8,3.1
		c0.6-0.2,9.5-3.2,19.8-6.6c10.3-3.4,19.1-6.8,19.7-7.4C189.7,99.3,189.8,98.8,189.7,98.2z M150.8,79.7c0-3.5,0.4-4,2.6-4.6
		c3.8-1,17.6,0.5,20.1,2.1c2.2,1.5,6.1,10.4,7.1,16.3c0.1,0.5,0.1,0.9,0.2,1.3c0,0,0,0,0,0c0.3,2.9-1.3,3.4-13.2,7.3
		c-5.9,1.9-10.9,3.5-11.2,3.5c-1.9,0-5.6-17-5.6-25.6C150.8,80,150.8,79.8,150.8,79.7z M280.1,91.7c-10.3,0-24.4,2.1-25,3.6
		c0,0.1-0.1,0.2-0.1,0.4c-0.2,3.6,2.5,24.8,3.4,26.2c0.3,0.5,1.9,0.7,3.5,0.3c1.6-0.3,7.2-0.9,12.4-1.3c7.4-0.5,9.5-1,9.9-2.3
		c0.7-2.3,2.5-19,2.5-23.3v-1l0-2.8H280.1z M261.8,101.1c0.1-3.5,2-3.6,10.2-3.7l7.2-0.1l0.3,4c0,0.3,0,0.6,0,0.9
		c0.1,2.2-0.3,5-0.8,6.8c-0.9,2.9-1.7,3.8-4.2,4.3c-4.9,1-10.7,0.7-11.4-0.5c-0.4-0.6-0.9-4-1.2-7.5
		C261.9,103.5,261.8,102.1,261.8,101.1z M292.9,53l-6.8-1.6c-7.8-1.8-17.7-3.4-24.4-3.8l-4.4-0.3h-0.1l0.3,6.5
		c0.4,7.8,2,20.8,2.8,22.1c0.7,1.1-0.5,1.2,12.1-1.2c19-3.6,18.9-3.5,19.9-14.7L292.9,53L292.9,53z M263.5,51.5l7.3,0.7
		c4.1,0.4,9,1,10.9,1.4c3.5,0.7,3.5,0.8,3.8,6.4c0,0.9,0.1,1.6,0.1,2.2v0.1c0.1,3.1-0.4,3.6-2.3,4.3c-5.3,2-17.6,3.8-18.3,2.7
		c-0.4-0.6-0.9-4.9-1.1-9.5L263.5,51.5L263.5,51.5z M452.1,102.2L452.1,102.2c-0.1-2.9-1-7.8-2.8-16.7c-4.2-21.1-8.1-33.7-10.2-33.7
		c-3.8,0-30.6,12.5-36.4,16.9l-2.2,1.7l-0.3,0.2l2.4,6.8c4,11.5,12,29.5,14.6,32.9l2.5,3.2l6.2-1.9c5.2-1.6,21.2-4.9,24-4.9
		c0.5,0,1.3-0.9,1.9-2C452,104.3,452.1,103.5,452.1,102.2z M443.5,102.3c-0.1,0.1-4.5,1.3-9.7,2.8c-5.3,1.5-10.1,2.7-10.7,2.7
		c-2,0-9.7-18.1-12.2-28.8c-0.6-2.5-0.8-3.9-0.7-5c0.1-0.8,0.4-1.4,0.8-2c1.9-2.3,19.8-10.5,21.4-9.9c1.7,0.7,6.9,17.3,9.4,30.1
		c0.8,4,1.4,7.5,1.7,9.1C443.4,102,443.5,102.3,443.5,102.3z M69.5,53.3c-4.9-1.1-19.6-2.5-26.1-2.5h-6.8l0.5,2.8
		c0.3,1.5,0.8,6.3,1.2,10.8c0.4,4.4,1.1,8.8,1.6,9.8c0.8,1.4,1.7,1.7,4.2,1.3c1.7-0.3,8.4-1.3,14.8-2.3l11.7-1.8l0.6-3.5
		c0.3-2,0.6-5.9,0.6-8.8v-0.6C71.7,54.3,71.4,53.7,69.5,53.3z M41.6,54.5l9.7,0.7c11.7,0.9,14.2,1.4,14.4,4.8V60c0,0.4,0,0.9,0,1.5
		c-0.3,3.6-0.5,3.8-5.3,5c-2.8,0.7-7.8,1.6-11.3,1.9c-5.7,0.6-6.3,0.5-6.3-1.3c0-1-0.3-4.3-0.7-7.3l-0.7-5.4L41.6,54.5z M189.7,98.2
		L189.7,98.2c-0.4-4.6-5.1-19.9-7.2-22.7c-1.5-2-13.8-4.3-28.6-5.3l-10.2-0.7V82c0,0.9,0,1.8,0,2.6c0,0.8,0,1.6,0,2.4
		c0,0.4,0,0.7,0,1.1c0,0.3,0,0.7,0,1c0,0.3,0,0.5,0,0.8c0.1,4,0.3,7.4,0.7,10.3c0,0.4,0.1,0.8,0.2,1.1c0.1,0.5,0.2,0.9,0.2,1.4
		c0.1,0.4,0.1,0.8,0.2,1.2c0,0.2,0.1,0.4,0.1,0.7c0,0.2,0.1,0.4,0.2,0.6c0.1,0.3,0.2,0.6,0.3,1c0.1,0.4,0.2,0.7,0.3,1
		c0.1,0.2,0.1,0.4,0.2,0.5c0,0,0,0.1,0,0.1c0.1,0.2,0.1,0.4,0.2,0.6c0.3,0.7,0.6,1.4,0.9,2.1c0.9,1.9,2.2,3.3,2.8,3.1
		c0.6-0.2,9.5-3.2,19.8-6.6c10.3-3.4,19.1-6.8,19.7-7.4C189.7,99.3,189.8,98.8,189.7,98.2z M150.8,79.7c0-3.5,0.4-4,2.6-4.6
		c3.8-1,17.6,0.5,20.1,2.1c2.2,1.5,6.1,10.4,7.1,16.3c0.1,0.5,0.1,0.9,0.2,1.3c0,0,0,0,0,0c0.3,2.9-1.3,3.4-13.2,7.3
		c-5.9,1.9-10.9,3.5-11.2,3.5c-1.9,0-5.6-17-5.6-25.6C150.8,80,150.8,79.8,150.8,79.7z M292.9,53l-6.8-1.6
		c-7.8-1.8-17.7-3.4-24.4-3.8l-4.4-0.3h-0.1l0.3,6.5c0.4,7.8,2,20.8,2.8,22.1c0.7,1.1-0.5,1.2,12.1-1.2c19-3.6,18.9-3.5,19.9-14.7
		L292.9,53L292.9,53z M263.5,51.5l7.3,0.7c4.1,0.4,9,1,10.9,1.4c3.5,0.7,3.5,0.8,3.8,6.4c0,0.9,0.1,1.6,0.1,2.2v0.1
		c0.1,3.1-0.4,3.6-2.3,4.3c-5.3,2-17.6,3.8-18.3,2.7c-0.4-0.6-0.9-4.9-1.1-9.5L263.5,51.5L263.5,51.5z M280.1,91.7
		c-10.3,0-24.4,2.1-25,3.6c0,0.1-0.1,0.2-0.1,0.4c-0.2,3.6,2.5,24.8,3.4,26.2c0.3,0.5,1.9,0.7,3.5,0.3c1.6-0.3,7.2-0.9,12.4-1.3
		c7.4-0.5,9.5-1,9.9-2.3c0.7-2.3,2.5-19,2.5-23.3v-1l0-2.8H280.1z M261.8,101.1c0.1-3.5,2-3.6,10.2-3.7l7.2-0.1l0.3,4
		c0,0.3,0,0.6,0,0.9c0.1,2.2-0.3,5-0.8,6.8c-0.9,2.9-1.7,3.8-4.2,4.3c-4.9,1-10.7,0.7-11.4-0.5c-0.4-0.6-0.9-4-1.2-7.5
		C261.9,103.5,261.8,102.1,261.8,101.1z M452.1,102.2L452.1,102.2c-0.1-2.9-1-7.8-2.8-16.7c-4.2-21.1-8.1-33.7-10.2-33.7
		c-3.8,0-30.6,12.5-36.4,16.9l-2.2,1.7l-0.3,0.2l2.4,6.8c4,11.5,12,29.5,14.6,32.9l2.5,3.2l6.2-1.9c5.2-1.6,21.2-4.9,24-4.9
		c0.5,0,1.3-0.9,1.9-2C452,104.3,452.1,103.5,452.1,102.2z M443.5,102.3c-0.1,0.1-4.5,1.3-9.7,2.8c-5.3,1.5-10.1,2.7-10.7,2.7
		c-2,0-9.7-18.1-12.2-28.8c-0.6-2.5-0.8-3.9-0.7-5c0.1-0.8,0.4-1.4,0.8-2c1.9-2.3,19.8-10.5,21.4-9.9c1.7,0.7,6.9,17.3,9.4,30.1
		c0.8,4,1.4,7.5,1.7,9.1C443.4,102,443.5,102.3,443.5,102.3z M69.5,53.3c-4.9-1.1-19.6-2.5-26.1-2.5h-6.8l0.5,2.8
		c0.3,1.5,0.8,6.3,1.2,10.8c0.4,4.4,1.1,8.8,1.6,9.8c0.8,1.4,1.7,1.7,4.2,1.3c1.7-0.3,8.4-1.3,14.8-2.3l11.7-1.8l0.6-3.5
		c0.3-2,0.6-5.9,0.6-8.8v-0.6C71.7,54.3,71.4,53.7,69.5,53.3z M41.6,54.5l9.7,0.7c11.7,0.9,14.2,1.4,14.4,4.8V60c0,0.4,0,0.9,0,1.5
		c-0.3,3.6-0.5,3.8-5.3,5c-2.8,0.7-7.8,1.6-11.3,1.9c-5.7,0.6-6.3,0.5-6.3-1.3c0-1-0.3-4.3-0.7-7.3l-0.7-5.4L41.6,54.5z M189.7,98.2
		L189.7,98.2c-0.4-4.6-5.1-19.9-7.2-22.7c-1.5-2-13.8-4.3-28.6-5.3l-10.2-0.7V82c0,0.9,0,1.8,0,2.6c0,0.8,0,1.6,0,2.4
		c0,0.4,0,0.7,0,1.1c0,0.3,0,0.7,0,1c0,0.3,0,0.5,0,0.8c0.1,4,0.3,7.4,0.7,10.3c0,0.4,0.1,0.8,0.2,1.1c0.1,0.5,0.2,0.9,0.2,1.4
		c0.1,0.4,0.1,0.8,0.2,1.2c0,0.2,0.1,0.4,0.1,0.7c0,0.2,0.1,0.4,0.2,0.6c0.1,0.3,0.2,0.6,0.3,1c0.1,0.4,0.2,0.7,0.3,1
		c0.1,0.2,0.1,0.4,0.2,0.5c0,0,0,0.1,0,0.1c0.1,0.2,0.1,0.4,0.2,0.6c0.3,0.7,0.6,1.4,0.9,2.1c0.9,1.9,2.2,3.3,2.8,3.1
		c0.6-0.2,9.5-3.2,19.8-6.6c10.3-3.4,19.1-6.8,19.7-7.4C189.7,99.3,189.8,98.8,189.7,98.2z M150.8,79.7c0-3.5,0.4-4,2.6-4.6
		c3.8-1,17.6,0.5,20.1,2.1c2.2,1.5,6.1,10.4,7.1,16.3c0.1,0.5,0.1,0.9,0.2,1.3c0,0,0,0,0,0c0.3,2.9-1.3,3.4-13.2,7.3
		c-5.9,1.9-10.9,3.5-11.2,3.5c-1.9,0-5.6-17-5.6-25.6C150.8,80,150.8,79.8,150.8,79.7z M280.1,91.7c-10.3,0-24.4,2.1-25,3.6
		c0,0.1-0.1,0.2-0.1,0.4c-0.2,3.6,2.5,24.8,3.4,26.2c0.3,0.5,1.9,0.7,3.5,0.3c1.6-0.3,7.2-0.9,12.4-1.3c7.4-0.5,9.5-1,9.9-2.3
		c0.7-2.3,2.5-19,2.5-23.3v-1l0-2.8H280.1z M261.8,101.1c0.1-3.5,2-3.6,10.2-3.7l7.2-0.1l0.3,4c0,0.3,0,0.6,0,0.9
		c0.1,2.2-0.3,5-0.8,6.8c-0.9,2.9-1.7,3.8-4.2,4.3c-4.9,1-10.7,0.7-11.4-0.5c-0.4-0.6-0.9-4-1.2-7.5
		C261.9,103.5,261.8,102.1,261.8,101.1z M292.9,53l-6.8-1.6c-7.8-1.8-17.7-3.4-24.4-3.8l-4.4-0.3h-0.1l0.3,6.5
		c0.4,7.8,2,20.8,2.8,22.1c0.7,1.1-0.5,1.2,12.1-1.2c19-3.6,18.9-3.5,19.9-14.7L292.9,53L292.9,53z M263.5,51.5l7.3,0.7
		c4.1,0.4,9,1,10.9,1.4c3.5,0.7,3.5,0.8,3.8,6.4c0,0.9,0.1,1.6,0.1,2.2v0.1c0.1,3.1-0.4,3.6-2.3,4.3c-5.3,2-17.6,3.8-18.3,2.7
		c-0.4-0.6-0.9-4.9-1.1-9.5L263.5,51.5L263.5,51.5z M452.1,102.2L452.1,102.2c-0.1-2.9-1-7.8-2.8-16.7c-4.2-21.1-8.1-33.7-10.2-33.7
		c-3.8,0-30.6,12.5-36.4,16.9l-2.2,1.7l-0.3,0.2l2.4,6.8c4,11.5,12,29.5,14.6,32.9l2.5,3.2l6.2-1.9c5.2-1.6,21.2-4.9,24-4.9
		c0.5,0,1.3-0.9,1.9-2C452,104.3,452.1,103.5,452.1,102.2z M443.5,102.3c-0.1,0.1-4.5,1.3-9.7,2.8c-5.3,1.5-10.1,2.7-10.7,2.7
		c-2,0-9.7-18.1-12.2-28.8c-0.6-2.5-0.8-3.9-0.7-5c0.1-0.8,0.4-1.4,0.8-2c1.9-2.3,19.8-10.5,21.4-9.9c1.7,0.7,6.9,17.3,9.4,30.1
		c0.8,4,1.4,7.5,1.7,9.1C443.4,102,443.5,102.3,443.5,102.3z M69.5,53.3c-4.9-1.1-19.6-2.5-26.1-2.5h-6.8l0.5,2.8
		c0.3,1.5,0.8,6.3,1.2,10.8c0.4,4.4,1.1,8.8,1.6,9.8c0.8,1.4,1.7,1.7,4.2,1.3c1.7-0.3,8.4-1.3,14.8-2.3l11.7-1.8l0.6-3.5
		c0.3-2,0.6-5.9,0.6-8.8v-0.6C71.7,54.3,71.4,53.7,69.5,53.3z M41.6,54.5l9.7,0.7c11.7,0.9,14.2,1.4,14.4,4.8V60c0,0.4,0,0.9,0,1.5
		c-0.3,3.6-0.5,3.8-5.3,5c-2.8,0.7-7.8,1.6-11.3,1.9c-5.7,0.6-6.3,0.5-6.3-1.3c0-1-0.3-4.3-0.7-7.3l-0.7-5.4L41.6,54.5z M189.7,98.2
		L189.7,98.2c-0.4-4.6-5.1-19.9-7.2-22.7c-1.5-2-13.8-4.3-28.6-5.3l-10.2-0.7V82c0,0.9,0,1.8,0,2.6c0,0.8,0,1.6,0,2.4
		c0,0.4,0,0.7,0,1.1c0,0.3,0,0.7,0,1c0,0.3,0,0.5,0,0.8c0.1,4,0.3,7.4,0.7,10.3c0,0.4,0.1,0.8,0.2,1.1c0.1,0.5,0.2,0.9,0.2,1.4
		c0.1,0.4,0.1,0.8,0.2,1.2c0,0.2,0.1,0.4,0.1,0.7c0,0.2,0.1,0.4,0.2,0.6c0.1,0.3,0.2,0.6,0.3,1c0.1,0.4,0.2,0.7,0.3,1
		c0.1,0.2,0.1,0.4,0.2,0.5c0,0,0,0.1,0,0.1c0.1,0.2,0.1,0.4,0.2,0.6c0.3,0.7,0.6,1.4,0.9,2.1c0.9,1.9,2.2,3.3,2.8,3.1
		c0.6-0.2,9.5-3.2,19.8-6.6c10.3-3.4,19.1-6.8,19.7-7.4C189.7,99.3,189.8,98.8,189.7,98.2z M150.8,79.7c0-3.5,0.4-4,2.6-4.6
		c3.8-1,17.6,0.5,20.1,2.1c2.2,1.5,6.1,10.4,7.1,16.3c0.1,0.5,0.1,0.9,0.2,1.3c0,0,0,0,0,0c0.3,2.9-1.3,3.4-13.2,7.3
		c-5.9,1.9-10.9,3.5-11.2,3.5c-1.9,0-5.6-17-5.6-25.6C150.8,80,150.8,79.8,150.8,79.7z M292.9,53l-6.8-1.6
		c-7.8-1.8-17.7-3.4-24.4-3.8l-4.4-0.3h-0.1l0.3,6.5c0.4,7.8,2,20.8,2.8,22.1c0.7,1.1-0.5,1.2,12.1-1.2c19-3.6,18.9-3.5,19.9-14.7
		L292.9,53L292.9,53z M263.5,51.5l7.3,0.7c4.1,0.4,9,1,10.9,1.4c3.5,0.7,3.5,0.8,3.8,6.4c0,0.9,0.1,1.6,0.1,2.2v0.1
		c0.1,3.1-0.4,3.6-2.3,4.3c-5.3,2-17.6,3.8-18.3,2.7c-0.4-0.6-0.9-4.9-1.1-9.5L263.5,51.5L263.5,51.5z M255.1,95.4
		c0,0.1-0.1,0.2-0.1,0.4c-0.2,3.6,2.5,24.8,3.4,26.2c0.3,0.5,1.9,0.7,3.5,0.3c1.6-0.3,7.2-0.9,12.4-1.3c7.4-0.5,9.5-1,9.9-2.3
		c0.7-2.3,2.5-19,2.5-23.3v-1l0-2.8h-6.7C269.8,91.7,255.7,93.8,255.1,95.4z M261.8,101.1c0.1-3.5,2-3.6,10.2-3.7l7.2-0.1l0.3,4
		c0,0.3,0,0.6,0,0.9c0.1,2.2-0.3,5-0.8,6.8c-0.9,2.9-1.7,3.8-4.2,4.3c-4.9,1-10.7,0.7-11.4-0.5c-0.4-0.6-0.9-4-1.2-7.5
		C261.9,103.5,261.8,102.1,261.8,101.1z M452.1,102.2L452.1,102.2c-0.1-2.9-1-7.8-2.8-16.7c-4.2-21.1-8.1-33.7-10.2-33.7
		c-3.8,0-30.6,12.5-36.4,16.9l-2.2,1.7l-0.3,0.2l2.4,6.8c4,11.5,12,29.5,14.6,32.9l2.5,3.2l6.2-1.9c5.2-1.6,21.2-4.9,24-4.9
		c0.5,0,1.3-0.9,1.9-2C452,104.3,452.1,103.5,452.1,102.2z M443.5,102.3c-0.1,0.1-4.5,1.3-9.7,2.8c-5.3,1.5-10.1,2.7-10.7,2.7
		c-2,0-9.7-18.1-12.2-28.8c-0.6-2.5-0.8-3.9-0.7-5c0.1-0.8,0.4-1.4,0.8-2c1.9-2.3,19.8-10.5,21.4-9.9c1.7,0.7,6.9,17.3,9.4,30.1
		c0.8,4,1.4,7.5,1.7,9.1C443.4,102,443.5,102.3,443.5,102.3z M633.5,116.2c-2.3-2.3-22.2-11.4-48.1-21.8l-25.8-10.4l0.7-0.7l5-4.5
		c6.8-6.2,23-18.1,40.7-29.8c7-4.7,12.5-8.9,12.2-9.4c0-0.1-0.2-0.2-0.4-0.3c-4.9-2.9-50.3-15.6-56.2-15.6
		c-4.9,0-15.3,7.8-31.2,23.3l-11.7,11.4l-2.4-4.1c-1.3-2.3-2.9-5.8-3.6-7.9c-0.7-2.1-1.9-4.1-2.8-4.4c-0.9-0.3-7.6,0.9-15,2.7
		c-11.3,2.8-13.6,3.1-14.7,1.9c-0.7-0.8-3.8-5.7-6.8-11c-3.1-5.3-6.4-10.2-7.3-11c-1.4-1.1-7.5-1.5-30.3-1.8
		c-30.4-0.4-46.2,0.7-49,3.3c-0.9,0.8-3.7,5.7-6.1,10.8c-4.3,8.9-4.4,9.6-4.8,20.2c0,0.7,0,1.5,0,2.3v0.7c0,11.5,1.3,29.1,3.3,41.7
		l1.1,6.8l0.2,1h-12.7v-2.9c0-1.6,1.3-19.5,2.9-39.8c2.8-34.8,3.9-48.4,3.9-53.8c0-4-0.7-3.5-1.9-3.8c-2.4-0.6-31.8-4-45.6-5.3
		l-7.3-0.7v14.6c0,0.8,0,1.6,0,2.4c0,0.5,0,1,0,1.5c0,0.6,0,1.3,0,1.9c0,0.5,0,1.1,0,1.6c0,0.6,0,1.2,0,1.8c0,0.3,0,0.6,0,0.8
		c0,0.3,0,0.5,0,0.7c0,0.2,0,0.4,0,0.6c0,0.2,0,0.3,0,0.5c-0.1,3-0.2,4.9-0.4,4.9c-0.3,0-3.2-2-6.4-4.5c-7.6-5.8-9.6-6.5-18.9-6.5
		c-12.6,0-59.8,3.2-67.2,4.6l-2.5,0.5h0l0.3,20.2l0.3,19.2l0,1L220,57.3c-3.2-7.9-5.6-12.5-7.3-13.8c-3.8-2.8-23-4.2-50.5-3.5
		c-28.7,0.7-38.4,2.5-40,7.8c-0.4,1.1-1,1.8-1.3,1.4c-0.4-0.3-2.7-6.8-5.2-14.3l-4.5-13.7l-6,0.3c-11.7,0.5-87.6,9-98,11
		c-3.7,0.7-4,1-4.3,4.4c0,0,0,0.1,0,0.2c0,0,0,0.1,0,0.2C2.9,40,3.6,50.5,4.7,61.5c1.7,16.8,5.1,62.5,5.1,68c0,2.5,4.8,4.4,25.7,9.8
		c11.6,3,21.3,5.5,21.7,5.5c0.2,0,0.3-0.3,0.1-1c-0.4-2.2-2.6-8.6-8.3-25c-4.3-12.5-6.3-19.5-6.1-21.7c0.1-1,0.6-1,1.5-0.3
		c1.8,1.5,14.9,28.1,21.9,44.5c6.7,15.5,5.6,14.9,19.5,12.5c12.3-2.1,30.5-4.4,43.8-5.5c5.6-0.5,8.3-1.1,8.3-1.9
		c0-0.1-0.1-0.2-0.4-0.5c-2.2-2.4-14.6-12.8-29.3-24.7C91.8,108,77.5,96.4,76.3,95.5c-0.9-0.8-1.3-1.2-0.5-1.4
		c1-0.2,3.9-0.1,9.9,0.2c6.3,0.3,14.3,0.8,17.7,1.1l6.1,0.5l0.7,9.1l0.7,9.1l7.9,8.2c4.3,4.5,9.7,9.5,11.9,11l4,2.8l23.3-0.7
		c20.8-0.6,49.6-2.7,58.4-4.2l3.3-0.6v12.4l16.8-0.7c9.2-0.4,26.4-1.1,38.3-1.6c11.8-0.5,27.3-0.9,34.4-1l12.9,0l2.7-3.3l2.7-3.3
		l0.7,3.8c0.4,2.1,1.3,4,1.9,4.3c0.7,0.3,11.3-1.6,23.6-4c12.3-2.5,25-4.8,28.3-5.2l5.8-0.7l4.2,4.5l4.2,4.5l35.9-0.5l35.9-0.5
		l4.6-4.2c4.3-4,4.8-4.2,8.1-3.2c1.9,0.5,10.4,3,18.9,5.4c12.6,3.6,15.6,4.2,16.7,3.1c0.7-0.7,3.2-4.9,5.5-9.3
		c2.3-4.4,4.7-8.3,5.3-8.7c1.8-1.2,5.7,1.7,26.1,19.1c11,9.4,20.3,17,20.6,17.1c0.7,0,0.1,0.5,30.4-20.4
		c26.9-18.5,29.5-20.5,29.5-21.7C633.8,116.5,633.7,116.4,633.5,116.2z M547,84.2c-0.2,0.3-0.3,0.5-0.3,0.6c0,0.4,4.2,2.7,9.3,5
		c15.4,7.1,49.7,24.4,54.2,27.3c0.3,0.2,0.5,0.4,0.5,0.4c0,0.4-5.5,4.5-12.3,9.1c-6.7,4.6-14.9,10.5-18.1,13.1
		c-3.2,2.6-6.1,4.8-6.5,4.8c-0.4,0-5.1-3.6-10.6-8c-14.7-11.7-33.5-25-35.5-25c-2,0-4.8,3.6-11.1,14c-3.5,5.8-5,7.4-6.5,7.2
		c-3.8-0.5-31.6-8.3-35.5-9.8c-2.2-0.9-3.4-1.3-3-2.8c0.5-1.8,3.3-5.1,9.4-12.3c11.9-14.1,16.7-20.3,16.7-21.7
		c0-0.1-0.1-0.2-0.2-0.3c-1.1-1.4-7-6.5-14.1-12c-7.9-6.1-14.9-11.7-15.5-12.6c-0.4-0.4-0.5-0.8-0.2-1.2c0.6-0.8,2.6-1.6,7.2-3.3
		c12-4.3,20.8-7,25.9-7.7l4.4-0.6l3.2,5.3c1.8,2.9,4.9,7,7.1,9.1l3.9,3.8l6.4-6.7c7.4-7.7,19.8-18.3,28.5-24.4l6.1-4.2l10.4,2.6
		c13.9,3.5,22.3,6,24.1,7.2c0.2,0.1,0.3,0.2,0.3,0.3c0.3,0.5-4.1,4.4-9.7,8.6C570.8,61.4,549.7,80.1,547,84.2z M483.5,84.6
		c1,0.5,2.5,1.8,3.5,2.8c0.5,0.5,0.8,0.9,0.9,1.3c0.4,0.9-0.3,1.7-2.7,4l-3.5,3.4v-7.2c0-0.4,0-0.8,0-1.1
		C481.8,84.1,482.2,83.9,483.5,84.6z M381.6,59.2c0.1-4.5,0.8-7.1,3.1-12.6c5-12.1,5.3-12.2,31.4-13.9c20.8-1.3,43.2-0.1,47.4,2.6
		c2.4,1.6,7.6,10,8.3,13.1c0,0.2,0.1,0.4,0.1,0.5c0,1.7-2.5,2.8-13.7,6.3c-2.2,0.7-4.1,1.5-4.9,2c-0.2,0.1-0.4,0.3-0.4,0.4
		c0,0.8,9.4,10,17.3,16.7l4.8,4.1v25.3l-9,10.7c-4.1,4.9-7.6,9.3-8.7,10.9c-0.2,0.3-0.3,0.5-0.3,0.6c0,0.4,1.4,1,3,1.4
		c1.8,0.4,3,0.9,3.5,1.5c0.4,0.4,0.3,0.9-0.4,1.3c-0.5,0.3-12.8,1.2-27.3,2c-14.5,0.8-28.5,1.8-31,2c-3.6,0.4-5,0.1-6.4-1.2
		c-1.1-1.1-1.5-1.5-0.8-1.8c0.4-0.1,1.1-0.2,2.1-0.3c4.1-0.4,4.9-1.5,7.3-10.7c1.2-4.8,2.1-7.6,1.9-9.2c-0.3-2.5-3.1-2.3-10.8-2.3
		H387l-0.6-3.8c-2.1-12.8-4.7-36.8-4.8-43.2c0-0.6,0-1.1,0-1.6C381.6,59.8,381.6,59.5,381.6,59.2z M328.6,41.4l0.5-5.6
		c0.3-3.6,0.6-10.5,0.6-15.4v-1l0-7.9l7.8,0.7c4.3,0.4,12.2,1.2,17.6,1.8l9.8,1.2h0l-0.7,16.1c-0.9,21.5-3.4,67.3-4.2,76.3l-0.5,6.3
		l-0.1,1H397l-0.7,4.1c-0.8,5.3-1.2,5.9-4,5.9c-1.3,0-11,1.6-21.7,3.5c-10.7,1.9-22.6,4.1-26.6,4.9l-7.2,1.4l-0.6-2.4
		c-0.9-3.7-1.4-7-1.3-10.1c0-3.5,0.8-6.8,2.2-10.2c1.4-3.5,2.6-7.1,2.6-7.9c0-0.1,0-0.2-0.1-0.4c-0.4-1-1.8-2.7-3.6-4.2l-3.6-3.2
		l-0.4-10c-0.1-2.3-0.2-4-0.2-5.7c0-5,0.8-8,3.3-16.6c1.9-6.5,2.9-10,2.8-12.4c-0.1-2.7-1.8-4-5.3-6.4l-4.2-2.9L328.6,41.4z
		 M314.4,87.4l2.7-1.1c4.4-1.8,5.6-1.4,5.7,2.1c0,0,0,0.1,0,0.1c0,0.1,0,0.2,0,0.3c0,3.4-0.1,3.4-5.5,0.9l-4-1.9L314.4,87.4z
		 M229.8,134c0-2.7,0.9-5.3,2.6-7.9c2.2-3.2,3.1-5.9,3.1-10.2c0-0.1,0-0.1,0-0.2c-0.1-3-0.6-6.7-1.7-11.8c-1.2-6.1-1.8-9.6-1.9-17.2
		c0-0.5,0-0.9,0-1.4c0-0.3,0-0.6,0-0.8c0-0.6,0-1.3,0-1.9c0-1.9,0-4,0-6.5c0-0.9,0-1.8,0-2.8c0-0.3,0-0.7,0-1c0-1.2,0-2.4,0-3.7
		c0-0.4,0-0.8,0-1.2c0-0.5,0-0.9,0-1.4c0-0.5,0-1,0-1.5c0.2-15.7,0.7-28.9,1.1-29.3c1-1,27.8-3.9,48.5-5.4c12.5-0.9,16.7-0.9,18.5,0
		c3.1,1.6,13.9,10,21.9,17.1l6.5,5.7l0.2,0.2l-2,7.7c-1.1,4.3-2.7,8.9-3.5,10.3c-0.8,1.4-6,5.4-11.5,8.9c-4.4,2.8-8.1,5.5-9.2,6.7
		c-0.3,0.3-0.4,0.5-0.4,0.6c0.2,0.5,5.8,4,12.4,7.6c13.3,7.3,15.1,8.5,15.3,11.3c0,0.2,0,0.5,0,0.7c0,3.8-11.1,23.4-14.1,24.8
		c-1.4,0.7-15.7,2.1-32.4,3.3c-16.5,1.1-35.3,2.4-41.7,2.7l-11.8,0.6V134z M126.8,62.3c0.2-4.5,3.1-11.6,5.3-13
		c4-2.5,16.4-3.5,43.6-3.5c27,0,27.1,0,29.4,2.3c4,4,15.9,37.5,18.6,52.7c0.7,4,1.1,8.6,1.1,12.4c0,4-0.3,7.2-1.1,8.1
		c-2.7,3.2-18.4,5.1-53.6,6.5c-34.9,1.4-31.4,1.7-37.8-3.4c-3-2.5-7.1-6.4-9.1-8.7c-3.2-3.8-3.6-4.8-3.6-9.9v-0.4
		c0.1-8.3,1.7-15.9,4-17.7c1.1-0.9,3.3-2.8,4.9-4.1l3-2.5l-0.3-0.8l-2.2-6.9c-1.3-4.2-2.4-8.9-2.4-10.4
		C126.8,62.7,126.8,62.5,126.8,62.3z M64.4,90.4c-0.4,0.1-0.6,0.1-0.6,0.2c0,0.5,8.6,8.9,19.1,18.7c19.3,18,28.8,27.7,30.3,30.7
		c0.2,0.4,0.2,0.7,0.1,0.8c-0.3,0.5-2.9,0.9-5.8,1c-2.9,0-9.2,0.6-14.2,1.4c-4.9,0.8-10.9,1.7-13.1,2.1L76,146l-7-12.9
		c-3.9-7.1-10.1-19-13.9-26.6l-6.8-13.8H43c-3.8,0-5.4,0.4-5.9,1.5c0,0,0,0,0,0c-0.3,0.8,1.8,9.3,4.6,18.8c2.9,9.5,5.5,18,5.7,19
		c0,0,0,0.1,0,0.1c0.4,1.4-0.3,1.7-4,1.7c-4.1,0-14-1.4-17.9-2.6c-1.2-0.3-1.9-2.6-2.8-8.1c-1.5-10.5-6.8-62.4-7.7-75.5l-0.7-10.7
		l0.1,0l3.8-1c9-2.3,52.6-7.5,73.4-8.7c9.2-0.5,11.7-0.4,12.6,0.7c2.1,2.7,14.5,42.5,15.3,49c0,0.2,0,0.4,0,0.5
		c0,1.5-1.8,4.3-4.6,7.4l-4.6,5H87.1C76.1,89.7,66.8,90,64.4,90.4z M417.3,110.3l2.5,3.2l6.2-1.9c5.2-1.6,21.2-4.9,24-4.9
		c0.5,0,1.3-0.9,1.9-2c0.3-0.5,0.4-1.3,0.3-2.6v-0.1c-0.1-2.8-1-7.7-2.8-16.6c-4.2-21.1-8.1-33.7-10.2-33.7
		c-3.8,0-30.6,12.5-36.4,16.9l-2.2,1.7l-0.3,0.2l2.4,6.8C406.7,88.9,414.7,106.9,417.3,110.3z M443.5,102.3
		c-0.1,0.1-4.5,1.3-9.7,2.8c-5.3,1.5-10.1,2.7-10.7,2.7c-2,0-9.7-18.1-12.2-28.8c-0.6-2.5-0.8-3.9-0.7-5c0.1-0.8,0.4-1.4,0.8-2
		c1.9-2.3,19.8-10.5,21.4-9.9c1.7,0.7,6.9,17.3,9.4,30.1c0.8,4,1.4,7.5,1.7,9.1C443.4,102,443.5,102.3,443.5,102.3z M260.3,75.8
		c0.7,1.1-0.5,1.2,12.1-1.2c19-3.6,18.9-3.5,19.9-14.7l0.6-7l-0.1,0l-6.8-1.6c-7.8-1.8-17.7-3.4-24.4-3.8l-4.4-0.3h-0.1l0.3,6.5
		C257.9,61.6,259.6,74.6,260.3,75.8z M263.5,51.5l7.3,0.7c4.1,0.4,9,1,10.9,1.4c3.5,0.7,3.5,0.8,3.8,6.4c0,0.9,0.1,1.6,0.1,2.2v0.1
		c0.1,3.1-0.4,3.6-2.3,4.3c-5.3,2-17.6,3.8-18.3,2.7c-0.4-0.6-0.9-4.9-1.1-9.5L263.5,51.5L263.5,51.5z M261.9,122.4
		c1.6-0.3,7.2-0.9,12.4-1.3c7.4-0.5,9.5-1,9.9-2.3c0.7-2.3,2.5-19,2.5-23.3v-1l0-2.8h-6.7c-10.3,0-24.4,2.1-25,3.6
		c0,0.1-0.1,0.2-0.1,0.4c-0.2,3.6,2.5,24.8,3.4,26.2C258.7,122.5,260.3,122.7,261.9,122.4z M261.8,101.1c0.1-3.5,2-3.6,10.2-3.7
		l7.2-0.1l0.3,4c0,0.3,0,0.6,0,0.9c0.1,2.2-0.3,5-0.8,6.8c-0.9,2.9-1.7,3.8-4.2,4.3c-4.9,1-10.7,0.7-11.4-0.5
		c-0.4-0.6-0.9-4-1.2-7.5C261.9,103.5,261.8,102.1,261.8,101.1z M143.8,87c0,0.4,0,0.7,0,1.1c0,0.3,0,0.7,0,1c0,0.3,0,0.5,0,0.8
		c0.1,4,0.3,7.4,0.7,10.3c0,0.4,0.1,0.8,0.2,1.1c0.1,0.5,0.2,0.9,0.2,1.4c0.1,0.4,0.1,0.8,0.2,1.2c0,0.2,0.1,0.4,0.1,0.7
		c0,0.2,0.1,0.4,0.2,0.6c0.1,0.3,0.2,0.6,0.3,1c0.1,0.4,0.2,0.7,0.3,1c0.1,0.2,0.1,0.4,0.2,0.5c0,0,0,0.1,0,0.1
		c0.1,0.2,0.1,0.4,0.2,0.6c0.3,0.7,0.6,1.4,0.9,2.1c0.9,1.9,2.2,3.3,2.8,3.1c0.6-0.2,9.5-3.2,19.8-6.6c10.3-3.4,19.1-6.8,19.7-7.4
		c0.1-0.2,0.2-0.6,0.1-1.2v0c-0.4-4.6-5.1-19.9-7.2-22.7c-1.5-2-13.8-4.3-28.6-5.3l-10.2-0.7V82c0,0.9,0,1.8,0,2.6
		C143.8,85.4,143.8,86.3,143.8,87z M150.8,79.7c0-3.5,0.4-4,2.6-4.6c3.8-1,17.6,0.5,20.1,2.1c2.2,1.5,6.1,10.4,7.1,16.3
		c0.1,0.5,0.1,0.9,0.2,1.3c0,0,0,0,0,0c0.3,2.9-1.3,3.4-13.2,7.3c-5.9,1.9-10.9,3.5-11.2,3.5c-1.9,0-5.6-17-5.6-25.6
		C150.8,80,150.8,79.8,150.8,79.7z M69.5,53.3c-4.9-1.1-19.6-2.5-26.1-2.5h-6.8l0.5,2.8c0.3,1.5,0.8,6.3,1.2,10.8
		c0.4,4.4,1.1,8.8,1.6,9.8c0.8,1.4,1.7,1.7,4.2,1.3c1.7-0.3,8.4-1.3,14.8-2.3l11.7-1.8l0.6-3.5c0.3-2,0.6-5.9,0.6-8.8v-0.6
		C71.7,54.3,71.4,53.7,69.5,53.3z M41.6,54.5l9.7,0.7c11.7,0.9,14.2,1.4,14.4,4.8V60c0,0.4,0,0.9,0,1.5c-0.3,3.6-0.5,3.8-5.3,5
		c-2.8,0.7-7.8,1.6-11.3,1.9c-5.7,0.6-6.3,0.5-6.3-1.3c0-1-0.3-4.3-0.7-7.3l-0.7-5.4L41.6,54.5z M452.1,102.2L452.1,102.2
		c-0.1-2.9-1-7.8-2.8-16.7c-4.2-21.1-8.1-33.7-10.2-33.7c-3.8,0-30.6,12.5-36.4,16.9l-2.2,1.7l-0.3,0.2l2.4,6.8
		c4,11.5,12,29.5,14.6,32.9l2.5,3.2l6.2-1.9c5.2-1.6,21.2-4.9,24-4.9c0.5,0,1.3-0.9,1.9-2C452,104.3,452.1,103.5,452.1,102.2z
		 M443.5,102.3c-0.1,0.1-4.5,1.3-9.7,2.8c-5.3,1.5-10.1,2.7-10.7,2.7c-2,0-9.7-18.1-12.2-28.8c-0.6-2.5-0.8-3.9-0.7-5
		c0.1-0.8,0.4-1.4,0.8-2c1.9-2.3,19.8-10.5,21.4-9.9c1.7,0.7,6.9,17.3,9.4,30.1c0.8,4,1.4,7.5,1.7,9.1
		C443.4,102,443.5,102.3,443.5,102.3z M280.1,91.7c-10.3,0-24.4,2.1-25,3.6c0,0.1-0.1,0.2-0.1,0.4c-0.2,3.6,2.5,24.8,3.4,26.2
		c0.3,0.5,1.9,0.7,3.5,0.3c1.6-0.3,7.2-0.9,12.4-1.3c7.4-0.5,9.5-1,9.9-2.3c0.7-2.3,2.5-19,2.5-23.3v-1l0-2.8H280.1z M261.8,101.1
		c0.1-3.5,2-3.6,10.2-3.7l7.2-0.1l0.3,4c0,0.3,0,0.6,0,0.9c0.1,2.2-0.3,5-0.8,6.8c-0.9,2.9-1.7,3.8-4.2,4.3
		c-4.9,1-10.7,0.7-11.4-0.5c-0.4-0.6-0.9-4-1.2-7.5C261.9,103.5,261.8,102.1,261.8,101.1z M292.9,53l-6.8-1.6
		c-7.8-1.8-17.7-3.4-24.4-3.8l-4.4-0.3h-0.1l0.3,6.5c0.4,7.8,2,20.8,2.8,22.1c0.7,1.1-0.5,1.2,12.1-1.2c19-3.6,18.9-3.5,19.9-14.7
		L292.9,53L292.9,53z M263.5,51.5l7.3,0.7c4.1,0.4,9,1,10.9,1.4c3.5,0.7,3.5,0.8,3.8,6.4c0,0.9,0.1,1.6,0.1,2.2v0.1
		c0.1,3.1-0.4,3.6-2.3,4.3c-5.3,2-17.6,3.8-18.3,2.7c-0.4-0.6-0.9-4.9-1.1-9.5L263.5,51.5L263.5,51.5z M189.7,98.2L189.7,98.2
		c-0.4-4.6-5.1-19.9-7.2-22.7c-1.5-2-13.8-4.3-28.6-5.3l-10.2-0.7V82c0,0.9,0,1.8,0,2.6c0,0.8,0,1.6,0,2.4c0,0.4,0,0.7,0,1.1
		c0,0.3,0,0.7,0,1c0,0.3,0,0.5,0,0.8c0.1,4,0.3,7.4,0.7,10.3c0,0.4,0.1,0.8,0.2,1.1c0.1,0.5,0.2,0.9,0.2,1.4
		c0.1,0.4,0.1,0.8,0.2,1.2c0,0.2,0.1,0.4,0.1,0.7c0,0.2,0.1,0.4,0.2,0.6c0.1,0.3,0.2,0.6,0.3,1c0.1,0.4,0.2,0.7,0.3,1
		c0.1,0.2,0.1,0.4,0.2,0.5c0,0,0,0.1,0,0.1c0.1,0.2,0.1,0.4,0.2,0.6c0.3,0.7,0.6,1.4,0.9,2.1c0.9,1.9,2.2,3.3,2.8,3.1
		c0.6-0.2,9.5-3.2,19.8-6.6c10.3-3.4,19.1-6.8,19.7-7.4C189.7,99.3,189.8,98.8,189.7,98.2z M150.8,79.7c0-3.5,0.4-4,2.6-4.6
		c3.8-1,17.6,0.5,20.1,2.1c2.2,1.5,6.1,10.4,7.1,16.3c0.1,0.5,0.1,0.9,0.2,1.3c0,0,0,0,0,0c0.3,2.9-1.3,3.4-13.2,7.3
		c-5.9,1.9-10.9,3.5-11.2,3.5c-1.9,0-5.6-17-5.6-25.6C150.8,80,150.8,79.8,150.8,79.7z M69.5,53.3c-4.9-1.1-19.6-2.5-26.1-2.5h-6.8
		l0.5,2.8c0.3,1.5,0.8,6.3,1.2,10.8c0.4,4.4,1.1,8.8,1.6,9.8c0.8,1.4,1.7,1.7,4.2,1.3c1.7-0.3,8.4-1.3,14.8-2.3l11.7-1.8l0.6-3.5
		c0.3-2,0.6-5.9,0.6-8.8v-0.6C71.7,54.3,71.4,53.7,69.5,53.3z M41.6,54.5l9.7,0.7c11.7,0.9,14.2,1.4,14.4,4.8V60c0,0.4,0,0.9,0,1.5
		c-0.3,3.6-0.5,3.8-5.3,5c-2.8,0.7-7.8,1.6-11.3,1.9c-5.7,0.6-6.3,0.5-6.3-1.3c0-1-0.3-4.3-0.7-7.3l-0.7-5.4L41.6,54.5z
		 M452.1,102.2L452.1,102.2c-0.1-2.9-1-7.8-2.8-16.7c-4.2-21.1-8.1-33.7-10.2-33.7c-3.8,0-30.6,12.5-36.4,16.9l-2.2,1.7l-0.3,0.2
		l2.4,6.8c4,11.5,12,29.5,14.6,32.9l2.5,3.2l6.2-1.9c5.2-1.6,21.2-4.9,24-4.9c0.5,0,1.3-0.9,1.9-2
		C452,104.3,452.1,103.5,452.1,102.2z M443.5,102.3c-0.1,0.1-4.5,1.3-9.7,2.8c-5.3,1.5-10.1,2.7-10.7,2.7c-2,0-9.7-18.1-12.2-28.8
		c-0.6-2.5-0.8-3.9-0.7-5c0.1-0.8,0.4-1.4,0.8-2c1.9-2.3,19.8-10.5,21.4-9.9c1.7,0.7,6.9,17.3,9.4,30.1c0.8,4,1.4,7.5,1.7,9.1
		C443.4,102,443.5,102.3,443.5,102.3z M292.9,53l-6.8-1.6c-7.8-1.8-17.7-3.4-24.4-3.8l-4.4-0.3h-0.1l0.3,6.5
		c0.4,7.8,2,20.8,2.8,22.1c0.7,1.1-0.5,1.2,12.1-1.2c19-3.6,18.9-3.5,19.9-14.7L292.9,53L292.9,53z M263.5,51.5l7.3,0.7
		c4.1,0.4,9,1,10.9,1.4c3.5,0.7,3.5,0.8,3.8,6.4c0,0.9,0.1,1.6,0.1,2.2v0.1c0.1,3.1-0.4,3.6-2.3,4.3c-5.3,2-17.6,3.8-18.3,2.7
		c-0.4-0.6-0.9-4.9-1.1-9.5L263.5,51.5L263.5,51.5z M280.1,91.7c-10.3,0-24.4,2.1-25,3.6c0,0.1-0.1,0.2-0.1,0.4
		c-0.2,3.6,2.5,24.8,3.4,26.2c0.3,0.5,1.9,0.7,3.5,0.3c1.6-0.3,7.2-0.9,12.4-1.3c7.4-0.5,9.5-1,9.9-2.3c0.7-2.3,2.5-19,2.5-23.3v-1
		l0-2.8H280.1z M261.8,101.1c0.1-3.5,2-3.6,10.2-3.7l7.2-0.1l0.3,4c0,0.3,0,0.6,0,0.9c0.1,2.2-0.3,5-0.8,6.8
		c-0.9,2.9-1.7,3.8-4.2,4.3c-4.9,1-10.7,0.7-11.4-0.5c-0.4-0.6-0.9-4-1.2-7.5C261.9,103.5,261.8,102.1,261.8,101.1z M189.7,98.2
		L189.7,98.2c-0.4-4.6-5.1-19.9-7.2-22.7c-1.5-2-13.8-4.3-28.6-5.3l-10.2-0.7V82c0,0.9,0,1.8,0,2.6c0,0.8,0,1.6,0,2.4
		c0,0.4,0,0.7,0,1.1c0,0.3,0,0.7,0,1c0,0.3,0,0.5,0,0.8c0.1,4,0.3,7.4,0.7,10.3c0,0.4,0.1,0.8,0.2,1.1c0.1,0.5,0.2,0.9,0.2,1.4
		c0.1,0.4,0.1,0.8,0.2,1.2c0,0.2,0.1,0.4,0.1,0.7c0,0.2,0.1,0.4,0.2,0.6c0.1,0.3,0.2,0.6,0.3,1c0.1,0.4,0.2,0.7,0.3,1
		c0.1,0.2,0.1,0.4,0.2,0.5c0,0,0,0.1,0,0.1c0.1,0.2,0.1,0.4,0.2,0.6c0.3,0.7,0.6,1.4,0.9,2.1c0.9,1.9,2.2,3.3,2.8,3.1
		c0.6-0.2,9.5-3.2,19.8-6.6c10.3-3.4,19.1-6.8,19.7-7.4C189.7,99.3,189.8,98.8,189.7,98.2z M150.8,79.7c0-3.5,0.4-4,2.6-4.6
		c3.8-1,17.6,0.5,20.1,2.1c2.2,1.5,6.1,10.4,7.1,16.3c0.1,0.5,0.1,0.9,0.2,1.3c0,0,0,0,0,0c0.3,2.9-1.3,3.4-13.2,7.3
		c-5.9,1.9-10.9,3.5-11.2,3.5c-1.9,0-5.6-17-5.6-25.6C150.8,80,150.8,79.8,150.8,79.7z M69.5,53.3c-4.9-1.1-19.6-2.5-26.1-2.5h-6.8
		l0.5,2.8c0.3,1.5,0.8,6.3,1.2,10.8c0.4,4.4,1.1,8.8,1.6,9.8c0.8,1.4,1.7,1.7,4.2,1.3c1.7-0.3,8.4-1.3,14.8-2.3l11.7-1.8l0.6-3.5
		c0.3-2,0.6-5.9,0.6-8.8v-0.6C71.7,54.3,71.4,53.7,69.5,53.3z M41.6,54.5l9.7,0.7c11.7,0.9,14.2,1.4,14.4,4.8V60c0,0.4,0,0.9,0,1.5
		c-0.3,3.6-0.5,3.8-5.3,5c-2.8,0.7-7.8,1.6-11.3,1.9c-5.7,0.6-6.3,0.5-6.3-1.3c0-1-0.3-4.3-0.7-7.3l-0.7-5.4L41.6,54.5z
		 M452.1,102.2L452.1,102.2c-0.1-2.9-1-7.8-2.8-16.7c-4.2-21.1-8.1-33.7-10.2-33.7c-3.8,0-30.6,12.5-36.4,16.9l-2.2,1.7l-0.3,0.2
		l2.4,6.8c4,11.5,12,29.5,14.6,32.9l2.5,3.2l6.2-1.9c5.2-1.6,21.2-4.9,24-4.9c0.5,0,1.3-0.9,1.9-2
		C452,104.3,452.1,103.5,452.1,102.2z M443.5,102.3c-0.1,0.1-4.5,1.3-9.7,2.8c-5.3,1.5-10.1,2.7-10.7,2.7c-2,0-9.7-18.1-12.2-28.8
		c-0.6-2.5-0.8-3.9-0.7-5c0.1-0.8,0.4-1.4,0.8-2c1.9-2.3,19.8-10.5,21.4-9.9c1.7,0.7,6.9,17.3,9.4,30.1c0.8,4,1.4,7.5,1.7,9.1
		C443.4,102,443.5,102.3,443.5,102.3z M280.1,91.7c-10.3,0-24.4,2.1-25,3.6c0,0.1-0.1,0.2-0.1,0.4c-0.2,3.6,2.5,24.8,3.4,26.2
		c0.3,0.5,1.9,0.7,3.5,0.3c1.6-0.3,7.2-0.9,12.4-1.3c7.4-0.5,9.5-1,9.9-2.3c0.7-2.3,2.5-19,2.5-23.3v-1l0-2.8H280.1z M261.8,101.1
		c0.1-3.5,2-3.6,10.2-3.7l7.2-0.1l0.3,4c0,0.3,0,0.6,0,0.9c0.1,2.2-0.3,5-0.8,6.8c-0.9,2.9-1.7,3.8-4.2,4.3
		c-4.9,1-10.7,0.7-11.4-0.5c-0.4-0.6-0.9-4-1.2-7.5C261.9,103.5,261.8,102.1,261.8,101.1z M292.9,53l-6.8-1.6
		c-7.8-1.8-17.7-3.4-24.4-3.8l-4.4-0.3h-0.1l0.3,6.5c0.4,7.8,2,20.8,2.8,22.1c0.7,1.1-0.5,1.2,12.1-1.2c19-3.6,18.9-3.5,19.9-14.7
		L292.9,53L292.9,53z M263.5,51.5l7.3,0.7c4.1,0.4,9,1,10.9,1.4c3.5,0.7,3.5,0.8,3.8,6.4c0,0.9,0.1,1.6,0.1,2.2v0.1
		c0.1,3.1-0.4,3.6-2.3,4.3c-5.3,2-17.6,3.8-18.3,2.7c-0.4-0.6-0.9-4.9-1.1-9.5L263.5,51.5L263.5,51.5z M189.7,98.2L189.7,98.2
		c-0.4-4.6-5.1-19.9-7.2-22.7c-1.5-2-13.8-4.3-28.6-5.3l-10.2-0.7V82c0,0.9,0,1.8,0,2.6c0,0.8,0,1.6,0,2.4c0,0.4,0,0.7,0,1.1
		c0,0.3,0,0.7,0,1c0,0.3,0,0.5,0,0.8c0.1,4,0.3,7.4,0.7,10.3c0,0.4,0.1,0.8,0.2,1.1c0.1,0.5,0.2,0.9,0.2,1.4
		c0.1,0.4,0.1,0.8,0.2,1.2c0,0.2,0.1,0.4,0.1,0.7c0,0.2,0.1,0.4,0.2,0.6c0.1,0.3,0.2,0.6,0.3,1c0.1,0.4,0.2,0.7,0.3,1
		c0.1,0.2,0.1,0.4,0.2,0.5c0,0,0,0.1,0,0.1c0.1,0.2,0.1,0.4,0.2,0.6c0.3,0.7,0.6,1.4,0.9,2.1c0.9,1.9,2.2,3.3,2.8,3.1
		c0.6-0.2,9.5-3.2,19.8-6.6c10.3-3.4,19.1-6.8,19.7-7.4C189.7,99.3,189.8,98.8,189.7,98.2z M150.8,79.7c0-3.5,0.4-4,2.6-4.6
		c3.8-1,17.6,0.5,20.1,2.1c2.2,1.5,6.1,10.4,7.1,16.3c0.1,0.5,0.1,0.9,0.2,1.3c0,0,0,0,0,0c0.3,2.9-1.3,3.4-13.2,7.3
		c-5.9,1.9-10.9,3.5-11.2,3.5c-1.9,0-5.6-17-5.6-25.6C150.8,80,150.8,79.8,150.8,79.7z M69.5,53.3c-4.9-1.1-19.6-2.5-26.1-2.5h-6.8
		l0.5,2.8c0.3,1.5,0.8,6.3,1.2,10.8c0.4,4.4,1.1,8.8,1.6,9.8c0.8,1.4,1.7,1.7,4.2,1.3c1.7-0.3,8.4-1.3,14.8-2.3l11.7-1.8l0.6-3.5
		c0.3-2,0.6-5.9,0.6-8.8v-0.6C71.7,54.3,71.4,53.7,69.5,53.3z M41.6,54.5l9.7,0.7c11.7,0.9,14.2,1.4,14.4,4.8V60c0,0.4,0,0.9,0,1.5
		c-0.3,3.6-0.5,3.8-5.3,5c-2.8,0.7-7.8,1.6-11.3,1.9c-5.7,0.6-6.3,0.5-6.3-1.3c0-1-0.3-4.3-0.7-7.3l-0.7-5.4L41.6,54.5z
		 M452.1,102.2L452.1,102.2c-0.1-2.9-1-7.8-2.8-16.7c-4.2-21.1-8.1-33.7-10.2-33.7c-3.8,0-30.6,12.5-36.4,16.9l-2.2,1.7l-0.3,0.2
		l2.4,6.8c4,11.5,12,29.5,14.6,32.9l2.5,3.2l6.2-1.9c5.2-1.6,21.2-4.9,24-4.9c0.5,0,1.3-0.9,1.9-2
		C452,104.3,452.1,103.5,452.1,102.2z M443.5,102.3c-0.1,0.1-4.5,1.3-9.7,2.8c-5.3,1.5-10.1,2.7-10.7,2.7c-2,0-9.7-18.1-12.2-28.8
		c-0.6-2.5-0.8-3.9-0.7-5c0.1-0.8,0.4-1.4,0.8-2c1.9-2.3,19.8-10.5,21.4-9.9c1.7,0.7,6.9,17.3,9.4,30.1c0.8,4,1.4,7.5,1.7,9.1
		C443.4,102,443.5,102.3,443.5,102.3z M292.9,53l-6.8-1.6c-7.8-1.8-17.7-3.4-24.4-3.8l-4.4-0.3h-0.1l0.3,6.5
		c0.4,7.8,2,20.8,2.8,22.1c0.7,1.1-0.5,1.2,12.1-1.2c19-3.6,18.9-3.5,19.9-14.7L292.9,53L292.9,53z M263.5,51.5l7.3,0.7
		c4.1,0.4,9,1,10.9,1.4c3.5,0.7,3.5,0.8,3.8,6.4c0,0.9,0.1,1.6,0.1,2.2v0.1c0.1,3.1-0.4,3.6-2.3,4.3c-5.3,2-17.6,3.8-18.3,2.7
		c-0.4-0.6-0.9-4.9-1.1-9.5L263.5,51.5L263.5,51.5z M280.1,91.7c-10.3,0-24.4,2.1-25,3.6c0,0.1-0.1,0.2-0.1,0.4
		c-0.2,3.6,2.5,24.8,3.4,26.2c0.3,0.5,1.9,0.7,3.5,0.3c1.6-0.3,7.2-0.9,12.4-1.3c7.4-0.5,9.5-1,9.9-2.3c0.7-2.3,2.5-19,2.5-23.3v-1
		l0-2.8H280.1z M261.8,101.1c0.1-3.5,2-3.6,10.2-3.7l7.2-0.1l0.3,4c0,0.3,0,0.6,0,0.9c0.1,2.2-0.3,5-0.8,6.8
		c-0.9,2.9-1.7,3.8-4.2,4.3c-4.9,1-10.7,0.7-11.4-0.5c-0.4-0.6-0.9-4-1.2-7.5C261.9,103.5,261.8,102.1,261.8,101.1z M189.7,98.2
		L189.7,98.2c-0.4-4.6-5.1-19.9-7.2-22.7c-1.5-2-13.8-4.3-28.6-5.3l-10.2-0.7V82c0,0.9,0,1.8,0,2.6c0,0.8,0,1.6,0,2.4
		c0,0.4,0,0.7,0,1.1c0,0.3,0,0.7,0,1c0,0.3,0,0.5,0,0.8c0.1,4,0.3,7.4,0.7,10.3c0,0.4,0.1,0.8,0.2,1.1c0.1,0.5,0.2,0.9,0.2,1.4
		c0.1,0.4,0.1,0.8,0.2,1.2c0,0.2,0.1,0.4,0.1,0.7c0,0.2,0.1,0.4,0.2,0.6c0.1,0.3,0.2,0.6,0.3,1c0.1,0.4,0.2,0.7,0.3,1
		c0.1,0.2,0.1,0.4,0.2,0.5c0,0,0,0.1,0,0.1c0.1,0.2,0.1,0.4,0.2,0.6c0.3,0.7,0.6,1.4,0.9,2.1c0.9,1.9,2.2,3.3,2.8,3.1
		c0.6-0.2,9.5-3.2,19.8-6.6c10.3-3.4,19.1-6.8,19.7-7.4C189.7,99.3,189.8,98.8,189.7,98.2z M150.8,79.7c0-3.5,0.4-4,2.6-4.6
		c3.8-1,17.6,0.5,20.1,2.1c2.2,1.5,6.1,10.4,7.1,16.3c0.1,0.5,0.1,0.9,0.2,1.3c0,0,0,0,0,0c0.3,2.9-1.3,3.4-13.2,7.3
		c-5.9,1.9-10.9,3.5-11.2,3.5c-1.9,0-5.6-17-5.6-25.6C150.8,80,150.8,79.8,150.8,79.7z M69.5,53.3c-4.9-1.1-19.6-2.5-26.1-2.5h-6.8
		l0.5,2.8c0.3,1.5,0.8,6.3,1.2,10.8c0.4,4.4,1.1,8.8,1.6,9.8c0.8,1.4,1.7,1.7,4.2,1.3c1.7-0.3,8.4-1.3,14.8-2.3l11.7-1.8l0.6-3.5
		c0.3-2,0.6-5.9,0.6-8.8v-0.6C71.7,54.3,71.4,53.7,69.5,53.3z M41.6,54.5l9.7,0.7c11.7,0.9,14.2,1.4,14.4,4.8V60c0,0.4,0,0.9,0,1.5
		c-0.3,3.6-0.5,3.8-5.3,5c-2.8,0.7-7.8,1.6-11.3,1.9c-5.7,0.6-6.3,0.5-6.3-1.3c0-1-0.3-4.3-0.7-7.3l-0.7-5.4L41.6,54.5z
		 M452.1,102.2L452.1,102.2c-0.1-2.9-1-7.8-2.8-16.7c-4.2-21.1-8.1-33.7-10.2-33.7c-3.8,0-30.6,12.5-36.4,16.9l-2.2,1.7l-0.3,0.2
		l2.4,6.8c4,11.5,12,29.5,14.6,32.9l2.5,3.2l6.2-1.9c5.2-1.6,21.2-4.9,24-4.9c0.5,0,1.3-0.9,1.9-2
		C452,104.3,452.1,103.5,452.1,102.2z M443.5,102.3c-0.1,0.1-4.5,1.3-9.7,2.8c-5.3,1.5-10.1,2.7-10.7,2.7c-2,0-9.7-18.1-12.2-28.8
		c-0.6-2.5-0.8-3.9-0.7-5c0.1-0.8,0.4-1.4,0.8-2c1.9-2.3,19.8-10.5,21.4-9.9c1.7,0.7,6.9,17.3,9.4,30.1c0.8,4,1.4,7.5,1.7,9.1
		C443.4,102,443.5,102.3,443.5,102.3z M280.1,91.7c-10.3,0-24.4,2.1-25,3.6c0,0.1-0.1,0.2-0.1,0.4c-0.2,3.6,2.5,24.8,3.4,26.2
		c0.3,0.5,1.9,0.7,3.5,0.3c1.6-0.3,7.2-0.9,12.4-1.3c7.4-0.5,9.5-1,9.9-2.3c0.7-2.3,2.5-19,2.5-23.3v-1l0-2.8H280.1z M261.8,101.1
		c0.1-3.5,2-3.6,10.2-3.7l7.2-0.1l0.3,4c0,0.3,0,0.6,0,0.9c0.1,2.2-0.3,5-0.8,6.8c-0.9,2.9-1.7,3.8-4.2,4.3
		c-4.9,1-10.7,0.7-11.4-0.5c-0.4-0.6-0.9-4-1.2-7.5C261.9,103.5,261.8,102.1,261.8,101.1z M292.9,53l-6.8-1.6
		c-7.8-1.8-17.7-3.4-24.4-3.8l-4.4-0.3h-0.1l0.3,6.5c0.4,7.8,2,20.8,2.8,22.1c0.7,1.1-0.5,1.2,12.1-1.2c19-3.6,18.9-3.5,19.9-14.7
		L292.9,53L292.9,53z M263.5,51.5l7.3,0.7c4.1,0.4,9,1,10.9,1.4c3.5,0.7,3.5,0.8,3.8,6.4c0,0.9,0.1,1.6,0.1,2.2v0.1
		c0.1,3.1-0.4,3.6-2.3,4.3c-5.3,2-17.6,3.8-18.3,2.7c-0.4-0.6-0.9-4.9-1.1-9.5L263.5,51.5L263.5,51.5z M189.7,98.2L189.7,98.2
		c-0.4-4.6-5.1-19.9-7.2-22.7c-1.5-2-13.8-4.3-28.6-5.3l-10.2-0.7V82c0,0.9,0,1.8,0,2.6c0,0.8,0,1.6,0,2.4c0,0.4,0,0.7,0,1.1
		c0,0.3,0,0.7,0,1c0,0.3,0,0.5,0,0.8c0.1,4,0.3,7.4,0.7,10.3c0,0.4,0.1,0.8,0.2,1.1c0.1,0.5,0.2,0.9,0.2,1.4
		c0.1,0.4,0.1,0.8,0.2,1.2c0,0.2,0.1,0.4,0.1,0.7c0,0.2,0.1,0.4,0.2,0.6c0.1,0.3,0.2,0.6,0.3,1c0.1,0.4,0.2,0.7,0.3,1
		c0.1,0.2,0.1,0.4,0.2,0.5c0,0,0,0.1,0,0.1c0.1,0.2,0.1,0.4,0.2,0.6c0.3,0.7,0.6,1.4,0.9,2.1c0.9,1.9,2.2,3.3,2.8,3.1
		c0.6-0.2,9.5-3.2,19.8-6.6c10.3-3.4,19.1-6.8,19.7-7.4C189.7,99.3,189.8,98.8,189.7,98.2z M150.8,79.7c0-3.5,0.4-4,2.6-4.6
		c3.8-1,17.6,0.5,20.1,2.1c2.2,1.5,6.1,10.4,7.1,16.3c0.1,0.5,0.1,0.9,0.2,1.3c0,0,0,0,0,0c0.3,2.9-1.3,3.4-13.2,7.3
		c-5.9,1.9-10.9,3.5-11.2,3.5c-1.9,0-5.6-17-5.6-25.6C150.8,80,150.8,79.8,150.8,79.7z M69.5,53.3c-4.9-1.1-19.6-2.5-26.1-2.5h-6.8
		l0.5,2.8c0.3,1.5,0.8,6.3,1.2,10.8c0.4,4.4,1.1,8.8,1.6,9.8c0.8,1.4,1.7,1.7,4.2,1.3c1.7-0.3,8.4-1.3,14.8-2.3l11.7-1.8l0.6-3.5
		c0.3-2,0.6-5.9,0.6-8.8v-0.6C71.7,54.3,71.4,53.7,69.5,53.3z M41.6,54.5l9.7,0.7c11.7,0.9,14.2,1.4,14.4,4.8V60c0,0.4,0,0.9,0,1.5
		c-0.3,3.6-0.5,3.8-5.3,5c-2.8,0.7-7.8,1.6-11.3,1.9c-5.7,0.6-6.3,0.5-6.3-1.3c0-1-0.3-4.3-0.7-7.3l-0.7-5.4L41.6,54.5z
		 M452.1,102.2L452.1,102.2c-0.1-2.9-1-7.8-2.8-16.7c-4.2-21.1-8.1-33.7-10.2-33.7c-3.8,0-30.6,12.5-36.4,16.9l-2.2,1.7l-0.3,0.2
		l2.4,6.8c4,11.5,12,29.5,14.6,32.9l2.5,3.2l6.2-1.9c5.2-1.6,21.2-4.9,24-4.9c0.5,0,1.3-0.9,1.9-2
		C452,104.3,452.1,103.5,452.1,102.2z M443.5,102.3c-0.1,0.1-4.5,1.3-9.7,2.8c-5.3,1.5-10.1,2.7-10.7,2.7c-2,0-9.7-18.1-12.2-28.8
		c-0.6-2.5-0.8-3.9-0.7-5c0.1-0.8,0.4-1.4,0.8-2c1.9-2.3,19.8-10.5,21.4-9.9c1.7,0.7,6.9,17.3,9.4,30.1c0.8,4,1.4,7.5,1.7,9.1
		C443.4,102,443.5,102.3,443.5,102.3z M292.9,53l-6.8-1.6c-7.8-1.8-17.7-3.4-24.4-3.8l-4.4-0.3h-0.1l0.3,6.5
		c0.4,7.8,2,20.8,2.8,22.1c0.7,1.1-0.5,1.2,12.1-1.2c19-3.6,18.9-3.5,19.9-14.7L292.9,53L292.9,53z M263.5,51.5l7.3,0.7
		c4.1,0.4,9,1,10.9,1.4c3.5,0.7,3.5,0.8,3.8,6.4c0,0.9,0.1,1.6,0.1,2.2v0.1c0.1,3.1-0.4,3.6-2.3,4.3c-5.3,2-17.6,3.8-18.3,2.7
		c-0.4-0.6-0.9-4.9-1.1-9.5L263.5,51.5L263.5,51.5z M280.1,91.7c-10.3,0-24.4,2.1-25,3.6c0,0.1-0.1,0.2-0.1,0.4
		c-0.2,3.6,2.5,24.8,3.4,26.2c0.3,0.5,1.9,0.7,3.5,0.3c1.6-0.3,7.2-0.9,12.4-1.3c7.4-0.5,9.5-1,9.9-2.3c0.7-2.3,2.5-19,2.5-23.3v-1
		l0-2.8H280.1z M261.8,101.1c0.1-3.5,2-3.6,10.2-3.7l7.2-0.1l0.3,4c0,0.3,0,0.6,0,0.9c0.1,2.2-0.3,5-0.8,6.8
		c-0.9,2.9-1.7,3.8-4.2,4.3c-4.9,1-10.7,0.7-11.4-0.5c-0.4-0.6-0.9-4-1.2-7.5C261.9,103.5,261.8,102.1,261.8,101.1z M189.7,98.2
		L189.7,98.2c-0.4-4.6-5.1-19.9-7.2-22.7c-1.5-2-13.8-4.3-28.6-5.3l-10.2-0.7V82c0,0.9,0,1.8,0,2.6c0,0.8,0,1.6,0,2.4
		c0,0.4,0,0.7,0,1.1c0,0.3,0,0.7,0,1c0,0.3,0,0.5,0,0.8c0.1,4,0.3,7.4,0.7,10.3c0,0.4,0.1,0.8,0.2,1.1c0.1,0.5,0.2,0.9,0.2,1.4
		c0.1,0.4,0.1,0.8,0.2,1.2c0,0.2,0.1,0.4,0.1,0.7c0,0.2,0.1,0.4,0.2,0.6c0.1,0.3,0.2,0.6,0.3,1c0.1,0.4,0.2,0.7,0.3,1
		c0.1,0.2,0.1,0.4,0.2,0.5c0,0,0,0.1,0,0.1c0.1,0.2,0.1,0.4,0.2,0.6c0.3,0.7,0.6,1.4,0.9,2.1c0.9,1.9,2.2,3.3,2.8,3.1
		c0.6-0.2,9.5-3.2,19.8-6.6c10.3-3.4,19.1-6.8,19.7-7.4C189.7,99.3,189.8,98.8,189.7,98.2z M150.8,79.7c0-3.5,0.4-4,2.6-4.6
		c3.8-1,17.6,0.5,20.1,2.1c2.2,1.5,6.1,10.4,7.1,16.3c0.1,0.5,0.1,0.9,0.2,1.3c0,0,0,0,0,0c0.3,2.9-1.3,3.4-13.2,7.3
		c-5.9,1.9-10.9,3.5-11.2,3.5c-1.9,0-5.6-17-5.6-25.6C150.8,80,150.8,79.8,150.8,79.7z M69.5,53.3c-4.9-1.1-19.6-2.5-26.1-2.5h-6.8
		l0.5,2.8c0.3,1.5,0.8,6.3,1.2,10.8c0.4,4.4,1.1,8.8,1.6,9.8c0.8,1.4,1.7,1.7,4.2,1.3c1.7-0.3,8.4-1.3,14.8-2.3l11.7-1.8l0.6-3.5
		c0.3-2,0.6-5.9,0.6-8.8v-0.6C71.7,54.3,71.4,53.7,69.5,53.3z M41.6,54.5l9.7,0.7c11.7,0.9,14.2,1.4,14.4,4.8V60c0,0.4,0,0.9,0,1.5
		c-0.3,3.6-0.5,3.8-5.3,5c-2.8,0.7-7.8,1.6-11.3,1.9c-5.7,0.6-6.3,0.5-6.3-1.3c0-1-0.3-4.3-0.7-7.3l-0.7-5.4L41.6,54.5z"/>
	
		<linearGradient id="path20-6_1_" gradientUnits="userSpaceOnUse" x1="318.6051" y1="137.8529" x2="318.6051" y2="23.749" gradientTransform="matrix(1 0 0 -1 -0.2509 163.8855)">
		<stop  offset="0" style="stop-color:#F51E00"/>
		<stop  offset="1" style="stop-color:#A70100"/>
	</linearGradient>
	<path id="path20-6" inkscape:connector-curvature="0" class="st1" d="M211.6,12.6l-0.3-3.4l-21-0.3c-21.9-0.3-56.7,1-59.8,2.3
		c-1,0.4-1.8,1.6-1.8,2.6c0,0.1,0,0.3,0.1,0.5v0c0.5,3.1,4.4,12.9,6.5,16.1c1.2,1.8,2.2,2.3,3.8,1.8c6.3-1.7,30.3-2.8,48.9-2.4
		l20.7,0.5l1.6-7.2c0.7-3.2,1.2-7,1.3-9.3v0C211.6,13.4,211.6,13,211.6,12.6z M142.8,14.6c6.2-1.3,54.7-1.5,56.1-0.1
		c0.5,0.5,0.7,1.2,0.6,2.2c-0.1,0.8-0.4,1.8-0.8,3.3l-1.4,4.3l-11,0.2c-6,0.1-17.5,0.7-25.5,1.3c-8,0.6-15.5,1.3-16.8,1.6
		c-1.9,0.5-2.5-0.1-3.8-3.2c-0.8-1.9-1.2-3.5-1.3-4.8v0C138.7,16.7,139.9,15.2,142.8,14.6z M182.5,74.5c-1.5-2-13.8-4.3-28.6-5.3
		l-10.2-0.7V82c0,0.9,0,1.8,0,2.6c0,0.8,0,1.6,0,2.4c0,0.4,0,0.7,0,1.1c0,0.3,0,0.7,0,1c0.3,9.9,1.4,15.7,3.5,20.3
		c0.9,1.9,2.2,3.3,2.8,3.1c0.6-0.2,9.5-3.2,19.8-6.6c10.3-3.4,19.1-6.8,19.7-7.4c0-0.1,0.1-0.1,0.1-0.3v0
		C190.2,95.5,184.8,77.5,182.5,74.5z M180.7,94.9C180.7,94.9,180.7,94.9,180.7,94.9c-0.3,2.1-2.8,2.9-13.2,6.3
		c-5.9,1.9-10.9,3.5-11.2,3.5c-1.8,0-5.4-16.3-5.5-25.1c0-0.2,0-0.4,0-0.5c0-3.8,0.3-4.4,2.6-5c3.8-1,17.6,0.5,20.1,2.1
		c2.2,1.4,6.1,10.4,7.1,16.3C180.7,93.6,180.8,94.3,180.7,94.9z M182.5,74.5c-1.5-2-13.8-4.3-28.6-5.3l-10.2-0.7V82
		c0,0.9,0,1.8,0,2.6c0,0.8,0,1.6,0,2.4c0,0.4,0,0.7,0,1.1c0,0.3,0,0.7,0,1c0.3,9.9,1.4,15.7,3.5,20.3c0.9,1.9,2.2,3.3,2.8,3.1
		c0.6-0.2,9.5-3.2,19.8-6.6c10.3-3.4,19.1-6.8,19.7-7.4c0-0.1,0.1-0.1,0.1-0.3v0C190.2,95.5,184.8,77.5,182.5,74.5z M180.7,94.9
		C180.7,94.9,180.7,94.9,180.7,94.9c-0.3,2.1-2.8,2.9-13.2,6.3c-5.9,1.9-10.9,3.5-11.2,3.5c-1.8,0-5.4-16.3-5.5-25.1
		c0-0.2,0-0.4,0-0.5c0-3.8,0.3-4.4,2.6-5c3.8-1,17.6,0.5,20.1,2.1c2.2,1.4,6.1,10.4,7.1,16.3C180.7,93.6,180.8,94.3,180.7,94.9z
		 M449.3,84.5c-4.2-21.1-8.1-33.7-10.2-33.7c-3.8,0-30.6,12.5-36.4,16.9l-2.5,1.9l0.3,0.8l2.1,6.1c4,11.5,12,29.5,14.6,32.9l2.5,3.2
		l6.2-1.9c5.2-1.6,21.2-4.9,24-4.9c0.5,0,1.3-0.9,1.9-2c0.2-0.3,0.3-0.9,0.3-1.6v-0.1C452.2,99.5,451.4,94.5,449.3,84.5z
		 M410.9,71.1c1.9-2.3,19.8-10.5,21.4-9.9c1.7,0.7,6.9,17.3,9.4,30.2c1.1,5.4,1.8,10,1.7,10c0,0,0,0-0.1,0c-0.7,0.2-4.8,1.4-9.6,2.7
		c-5.3,1.5-10.1,2.7-10.7,2.7c-2,0-9.7-18.1-12.2-28.8c-0.4-1.8-0.7-3-0.7-4C410,72.6,410.2,71.9,410.9,71.1z M449.3,84.5
		c-4.2-21.1-8.1-33.7-10.2-33.7c-3.8,0-30.6,12.5-36.4,16.9l-2.5,1.9l0.3,0.8l2.1,6.1c4,11.5,12,29.5,14.6,32.9l2.5,3.2l6.2-1.9
		c5.2-1.6,21.2-4.9,24-4.9c0.5,0,1.3-0.9,1.9-2c0.2-0.3,0.3-0.9,0.3-1.6v-0.1C452.2,99.5,451.4,94.5,449.3,84.5z M410.9,71.1
		c1.9-2.3,19.8-10.5,21.4-9.9c1.7,0.7,6.9,17.3,9.4,30.2c1.1,5.4,1.8,10,1.7,10c0,0,0,0-0.1,0c-0.7,0.2-4.8,1.4-9.6,2.7
		c-5.3,1.5-10.1,2.7-10.7,2.7c-2,0-9.7-18.1-12.2-28.8c-0.4-1.8-0.7-3-0.7-4C410,72.6,410.2,71.9,410.9,71.1z M286.1,50.4
		c-7.8-1.9-17.7-3.4-24.4-3.8l-4.5-0.3l0.1,1l0.3,5.5c0.4,7.8,2,20.8,2.8,22.1c0.7,1.1-0.5,1.2,12.1-1.2c19-3.6,18.9-3.5,19.9-14.7
		l0.6-6l0.1-1L286.1,50.4z M285.7,62.3L285.7,62.3c-0.1,2.4-0.6,2.8-2.3,3.5c-5.3,2-17.6,3.8-18.3,2.7c-0.4-0.6-0.9-4.9-1.1-9.5
		l-0.4-7.4l0-1l7.4,0.7c4.1,0.4,9,1,10.9,1.4c3.5,0.7,3.5,0.8,3.8,6.4C285.6,60.4,285.7,61.5,285.7,62.3z M280.1,90.8
		c-10.3,0-24.4,2.1-25,3.6c-0.1,0.2-0.1,0.7-0.1,1.4c0.2,5.4,2.6,23.9,3.4,25.2c0.3,0.5,1.9,0.7,3.5,0.3c1.6-0.3,7.2-0.9,12.4-1.3
		c7.4-0.5,9.5-1,9.9-2.3c0.7-2.3,2.5-19,2.5-23.4l0-2.8v-1H280.1z M279.6,102.1c0,2-0.3,4.3-0.8,5.8c-0.9,2.9-1.7,3.7-4.2,4.3
		c-4.9,1-10.7,0.7-11.4-0.5c-0.4-0.6-0.9-4-1.2-7.5c-0.1-1.2-0.2-2.2-0.2-3.1c-0.1-4.5,1.3-4.6,10.2-4.7l7.2-0.1l0.3,4
		C279.6,100.8,279.7,101.4,279.6,102.1z M286.1,50.4c-7.8-1.9-17.7-3.4-24.4-3.8l-4.5-0.3l0.1,1l0.3,5.5c0.4,7.8,2,20.8,2.8,22.1
		c0.7,1.1-0.5,1.2,12.1-1.2c19-3.6,18.9-3.5,19.9-14.7l0.6-6l0.1-1L286.1,50.4z M285.7,62.3L285.7,62.3c-0.1,2.4-0.6,2.8-2.3,3.5
		c-5.3,2-17.6,3.8-18.3,2.7c-0.4-0.6-0.9-4.9-1.1-9.5l-0.4-7.4l0-1l7.4,0.7c4.1,0.4,9,1,10.9,1.4c3.5,0.7,3.5,0.8,3.8,6.4
		C285.6,60.4,285.7,61.5,285.7,62.3z M280.1,90.8c-10.3,0-24.4,2.1-25,3.6c-0.1,0.2-0.1,0.7-0.1,1.4c0.2,5.4,2.6,23.9,3.4,25.2
		c0.3,0.5,1.9,0.7,3.5,0.3c1.6-0.3,7.2-0.9,12.4-1.3c7.4-0.5,9.5-1,9.9-2.3c0.7-2.3,2.5-19,2.5-23.4l0-2.8v-1H280.1z M279.6,102.1
		c0,2-0.3,4.3-0.8,5.8c-0.9,2.9-1.7,3.7-4.2,4.3c-4.9,1-10.7,0.7-11.4-0.5c-0.4-0.6-0.9-4-1.2-7.5c-0.1-1.2-0.2-2.2-0.2-3.1
		c-0.1-4.5,1.3-4.6,10.2-4.7l7.2-0.1l0.3,4C279.6,100.8,279.7,101.4,279.6,102.1z M69.5,52.3c-4.9-1.1-19.6-2.5-26.1-2.5h-6.8l0.2,1
		l0.3,1.8c0.3,1.5,0.8,6.4,1.2,10.8c0.4,4.4,1.1,8.8,1.6,9.9c0.8,1.4,1.7,1.7,4.2,1.3c1.7-0.3,8.4-1.3,14.8-2.3l11.7-1.8l0.6-3.5
		c0.3-1.9,0.6-5.6,0.6-8.4V58C71.8,53.4,71.5,52.7,69.5,52.3z M65.6,59.9L65.6,59.9c0,0.3,0,0.4,0,0.6c-0.3,3.6-0.5,3.8-5.3,5
		c-2.8,0.7-7.8,1.6-11.3,1.9c-5.7,0.6-6.3,0.5-6.3-1.3c0-1-0.3-4.3-0.7-7.3l-0.5-4.4l-0.1-1l9.8,0.7C64,55.1,65.8,55.7,65.6,59.9z
		 M69.5,52.3c-4.9-1.1-19.6-2.5-26.1-2.5h-6.8l0.2,1l0.3,1.8c0.3,1.5,0.8,6.4,1.2,10.8c0.4,4.4,1.1,8.8,1.6,9.9
		c0.8,1.4,1.7,1.7,4.2,1.3c1.7-0.3,8.4-1.3,14.8-2.3l11.7-1.8l0.6-3.5c0.3-1.9,0.6-5.6,0.6-8.4V58C71.8,53.4,71.5,52.7,69.5,52.3z
		 M65.6,59.9L65.6,59.9c0,0.3,0,0.4,0,0.6c-0.3,3.6-0.5,3.8-5.3,5c-2.8,0.7-7.8,1.6-11.3,1.9c-5.7,0.6-6.3,0.5-6.3-1.3
		c0-1-0.3-4.3-0.7-7.3l-0.5-4.4l-0.1-1l9.8,0.7C64,55.1,65.8,55.7,65.6,59.9z M69.5,52.3c-4.9-1.1-19.6-2.5-26.1-2.5h-6.8l0.2,1
		l0.3,1.8c0.3,1.5,0.8,6.4,1.2,10.8c0.4,4.4,1.1,8.8,1.6,9.9c0.8,1.4,1.7,1.7,4.2,1.3c1.7-0.3,8.4-1.3,14.8-2.3l11.7-1.8l0.6-3.5
		c0.3-1.9,0.6-5.6,0.6-8.4V58C71.8,53.4,71.5,52.7,69.5,52.3z M65.6,59.9L65.6,59.9c0,0.3,0,0.4,0,0.6c-0.3,3.6-0.5,3.8-5.3,5
		c-2.8,0.7-7.8,1.6-11.3,1.9c-5.7,0.6-6.3,0.5-6.3-1.3c0-1-0.3-4.3-0.7-7.3l-0.5-4.4l-0.1-1l9.8,0.7C64,55.1,65.8,55.7,65.6,59.9z
		 M182.5,74.5c-1.5-2-13.8-4.3-28.6-5.3l-10.2-0.7V82c0,0.9,0,1.8,0,2.6c0,0.8,0,1.6,0,2.4c0,0.4,0,0.7,0,1.1c0,0.3,0,0.7,0,1
		c0.3,9.9,1.4,15.7,3.5,20.3c0.9,1.9,2.2,3.3,2.8,3.1c0.6-0.2,9.5-3.2,19.8-6.6c10.3-3.4,19.1-6.8,19.7-7.4c0-0.1,0.1-0.1,0.1-0.3v0
		C190.2,95.5,184.8,77.5,182.5,74.5z M180.7,94.9C180.7,94.9,180.7,94.9,180.7,94.9c-0.3,2.1-2.8,2.9-13.2,6.3
		c-5.9,1.9-10.9,3.5-11.2,3.5c-1.8,0-5.4-16.3-5.5-25.1c0-0.2,0-0.4,0-0.5c0-3.8,0.3-4.4,2.6-5c3.8-1,17.6,0.5,20.1,2.1
		c2.2,1.4,6.1,10.4,7.1,16.3C180.7,93.6,180.8,94.3,180.7,94.9z M280.1,90.8c-10.3,0-24.4,2.1-25,3.6c-0.1,0.2-0.1,0.7-0.1,1.4
		c0.2,5.4,2.6,23.9,3.4,25.2c0.3,0.5,1.9,0.7,3.5,0.3c1.6-0.3,7.2-0.9,12.4-1.3c7.4-0.5,9.5-1,9.9-2.3c0.7-2.3,2.5-19,2.5-23.4
		l0-2.8v-1H280.1z M279.6,102.1c0,2-0.3,4.3-0.8,5.8c-0.9,2.9-1.7,3.7-4.2,4.3c-4.9,1-10.7,0.7-11.4-0.5c-0.4-0.6-0.9-4-1.2-7.5
		c-0.1-1.2-0.2-2.2-0.2-3.1c-0.1-4.5,1.3-4.6,10.2-4.7l7.2-0.1l0.3,4C279.6,100.8,279.7,101.4,279.6,102.1z M286.1,50.4
		c-7.8-1.9-17.7-3.4-24.4-3.8l-4.5-0.3l0.1,1l0.3,5.5c0.4,7.8,2,20.8,2.8,22.1c0.7,1.1-0.5,1.2,12.1-1.2c19-3.6,18.9-3.5,19.9-14.7
		l0.6-6l0.1-1L286.1,50.4z M285.7,62.3L285.7,62.3c-0.1,2.4-0.6,2.8-2.3,3.5c-5.3,2-17.6,3.8-18.3,2.7c-0.4-0.6-0.9-4.9-1.1-9.5
		l-0.4-7.4l0-1l7.4,0.7c4.1,0.4,9,1,10.9,1.4c3.5,0.7,3.5,0.8,3.8,6.4C285.6,60.4,285.7,61.5,285.7,62.3z M449.3,84.5
		c-4.2-21.1-8.1-33.7-10.2-33.7c-3.8,0-30.6,12.5-36.4,16.9l-2.5,1.9l0.3,0.8l2.1,6.1c4,11.5,12,29.5,14.6,32.9l2.5,3.2l6.2-1.9
		c5.2-1.6,21.2-4.9,24-4.9c0.5,0,1.3-0.9,1.9-2c0.2-0.3,0.3-0.9,0.3-1.6v-0.1C452.2,99.5,451.4,94.5,449.3,84.5z M410.9,71.1
		c1.9-2.3,19.8-10.5,21.4-9.9c1.7,0.7,6.9,17.3,9.4,30.2c1.1,5.4,1.8,10,1.7,10c0,0,0,0-0.1,0c-0.7,0.2-4.8,1.4-9.6,2.7
		c-5.3,1.5-10.1,2.7-10.7,2.7c-2,0-9.7-18.1-12.2-28.8c-0.4-1.8-0.7-3-0.7-4C410,72.6,410.2,71.9,410.9,71.1z M286.1,50.4
		c-7.8-1.9-17.7-3.4-24.4-3.8l-4.5-0.3l0.1,1l0.3,5.5c0.4,7.8,2,20.8,2.8,22.1c0.7,1.1-0.5,1.2,12.1-1.2c19-3.6,18.9-3.5,19.9-14.7
		l0.6-6l0.1-1L286.1,50.4z M285.7,62.3L285.7,62.3c-0.1,2.4-0.6,2.8-2.3,3.5c-5.3,2-17.6,3.8-18.3,2.7c-0.4-0.6-0.9-4.9-1.1-9.5
		l-0.4-7.4l0-1l7.4,0.7c4.1,0.4,9,1,10.9,1.4c3.5,0.7,3.5,0.8,3.8,6.4C285.6,60.4,285.7,61.5,285.7,62.3z M280.1,90.8
		c-10.3,0-24.4,2.1-25,3.6c-0.1,0.2-0.1,0.7-0.1,1.4c0.2,5.4,2.6,23.9,3.4,25.2c0.3,0.5,1.9,0.7,3.5,0.3c1.6-0.3,7.2-0.9,12.4-1.3
		c7.4-0.5,9.5-1,9.9-2.3c0.7-2.3,2.5-19,2.5-23.4l0-2.8v-1H280.1z M279.6,102.1c0,2-0.3,4.3-0.8,5.8c-0.9,2.9-1.7,3.7-4.2,4.3
		c-4.9,1-10.7,0.7-11.4-0.5c-0.4-0.6-0.9-4-1.2-7.5c-0.1-1.2-0.2-2.2-0.2-3.1c-0.1-4.5,1.3-4.6,10.2-4.7l7.2-0.1l0.3,4
		C279.6,100.8,279.7,101.4,279.6,102.1z M182.5,74.5c-1.5-2-13.8-4.3-28.6-5.3l-10.2-0.7V82c0,0.9,0,1.8,0,2.6c0,0.8,0,1.6,0,2.4
		c0,0.4,0,0.7,0,1.1c0,0.3,0,0.7,0,1c0.3,9.9,1.4,15.7,3.5,20.3c0.9,1.9,2.2,3.3,2.8,3.1c0.6-0.2,9.5-3.2,19.8-6.6
		c10.3-3.4,19.1-6.8,19.7-7.4c0-0.1,0.1-0.1,0.1-0.3v0C190.2,95.5,184.8,77.5,182.5,74.5z M180.7,94.9
		C180.7,94.9,180.7,94.9,180.7,94.9c-0.3,2.1-2.8,2.9-13.2,6.3c-5.9,1.9-10.9,3.5-11.2,3.5c-1.8,0-5.4-16.3-5.5-25.1
		c0-0.2,0-0.4,0-0.5c0-3.8,0.3-4.4,2.6-5c3.8-1,17.6,0.5,20.1,2.1c2.2,1.4,6.1,10.4,7.1,16.3C180.7,93.6,180.8,94.3,180.7,94.9z
		 M69.5,52.3c-4.9-1.1-19.6-2.5-26.1-2.5h-6.8l0.2,1l0.3,1.8c0.3,1.5,0.8,6.4,1.2,10.8c0.4,4.4,1.1,8.8,1.6,9.9
		c0.8,1.4,1.7,1.7,4.2,1.3c1.7-0.3,8.4-1.3,14.8-2.3l11.7-1.8l0.6-3.5c0.3-1.9,0.6-5.6,0.6-8.4V58C71.8,53.4,71.5,52.7,69.5,52.3z
		 M65.6,59.9L65.6,59.9c0,0.3,0,0.4,0,0.6c-0.3,3.6-0.5,3.8-5.3,5c-2.8,0.7-7.8,1.6-11.3,1.9c-5.7,0.6-6.3,0.5-6.3-1.3
		c0-1-0.3-4.3-0.7-7.3l-0.5-4.4l-0.1-1l9.8,0.7C64,55.1,65.8,55.7,65.6,59.9z M449.3,84.5c-4.2-21.1-8.1-33.7-10.2-33.7
		c-3.8,0-30.6,12.5-36.4,16.9l-2.5,1.9l0.3,0.8l2.1,6.1c4,11.5,12,29.5,14.6,32.9l2.5,3.2l6.2-1.9c5.2-1.6,21.2-4.9,24-4.9
		c0.5,0,1.3-0.9,1.9-2c0.2-0.3,0.3-0.9,0.3-1.6v-0.1C452.2,99.5,451.4,94.5,449.3,84.5z M410.9,71.1c1.9-2.3,19.8-10.5,21.4-9.9
		c1.7,0.7,6.9,17.3,9.4,30.2c1.1,5.4,1.8,10,1.7,10c0,0,0,0-0.1,0c-0.7,0.2-4.8,1.4-9.6,2.7c-5.3,1.5-10.1,2.7-10.7,2.7
		c-2,0-9.7-18.1-12.2-28.8c-0.4-1.8-0.7-3-0.7-4C410,72.6,410.2,71.9,410.9,71.1z M69.5,52.3c-4.9-1.1-19.6-2.5-26.1-2.5h-6.8l0.2,1
		l0.3,1.8c0.3,1.5,0.8,6.4,1.2,10.8c0.4,4.4,1.1,8.8,1.6,9.9c0.8,1.4,1.7,1.7,4.2,1.3c1.7-0.3,8.4-1.3,14.8-2.3l11.7-1.8l0.6-3.5
		c0.3-1.9,0.6-5.6,0.6-8.4V58C71.8,53.4,71.5,52.7,69.5,52.3z M65.6,59.9L65.6,59.9c0,0.3,0,0.4,0,0.6c-0.3,3.6-0.5,3.8-5.3,5
		c-2.8,0.7-7.8,1.6-11.3,1.9c-5.7,0.6-6.3,0.5-6.3-1.3c0-1-0.3-4.3-0.7-7.3l-0.5-4.4l-0.1-1l9.8,0.7C64,55.1,65.8,55.7,65.6,59.9z
		 M182.5,74.5c-1.5-2-13.8-4.3-28.6-5.3l-10.2-0.7V82c0,0.9,0,1.8,0,2.6c0,0.8,0,1.6,0,2.4c0,0.4,0,0.7,0,1.1c0,0.3,0,0.7,0,1
		c0.3,9.9,1.4,15.7,3.5,20.3c0.9,1.9,2.2,3.3,2.8,3.1c0.6-0.2,9.5-3.2,19.8-6.6c10.3-3.4,19.1-6.8,19.7-7.4c0-0.1,0.1-0.1,0.1-0.3v0
		C190.2,95.5,184.8,77.5,182.5,74.5z M180.7,94.9C180.7,94.9,180.7,94.9,180.7,94.9c-0.3,2.1-2.8,2.9-13.2,6.3
		c-5.9,1.9-10.9,3.5-11.2,3.5c-1.8,0-5.4-16.3-5.5-25.1c0-0.2,0-0.4,0-0.5c0-3.8,0.3-4.4,2.6-5c3.8-1,17.6,0.5,20.1,2.1
		c2.2,1.4,6.1,10.4,7.1,16.3C180.7,93.6,180.8,94.3,180.7,94.9z M280.1,90.8c-10.3,0-24.4,2.1-25,3.6c-0.1,0.2-0.1,0.7-0.1,1.4
		c0.2,5.4,2.6,23.9,3.4,25.2c0.3,0.5,1.9,0.7,3.5,0.3c1.6-0.3,7.2-0.9,12.4-1.3c7.4-0.5,9.5-1,9.9-2.3c0.7-2.3,2.5-19,2.5-23.4
		l0-2.8v-1H280.1z M279.6,102.1c0,2-0.3,4.3-0.8,5.8c-0.9,2.9-1.7,3.7-4.2,4.3c-4.9,1-10.7,0.7-11.4-0.5c-0.4-0.6-0.9-4-1.2-7.5
		c-0.1-1.2-0.2-2.2-0.2-3.1c-0.1-4.5,1.3-4.6,10.2-4.7l7.2-0.1l0.3,4C279.6,100.8,279.7,101.4,279.6,102.1z M286.1,50.4
		c-7.8-1.9-17.7-3.4-24.4-3.8l-4.5-0.3l0.1,1l0.3,5.5c0.4,7.8,2,20.8,2.8,22.1c0.7,1.1-0.5,1.2,12.1-1.2c19-3.6,18.9-3.5,19.9-14.7
		l0.6-6l0.1-1L286.1,50.4z M285.7,62.3L285.7,62.3c-0.1,2.4-0.6,2.8-2.3,3.5c-5.3,2-17.6,3.8-18.3,2.7c-0.4-0.6-0.9-4.9-1.1-9.5
		l-0.4-7.4l0-1l7.4,0.7c4.1,0.4,9,1,10.9,1.4c3.5,0.7,3.5,0.8,3.8,6.4C285.6,60.4,285.7,61.5,285.7,62.3z M449.3,84.5
		c-4.2-21.1-8.1-33.7-10.2-33.7c-3.8,0-30.6,12.5-36.4,16.9l-2.5,1.9l0.3,0.8l2.1,6.1c4,11.5,12,29.5,14.6,32.9l2.5,3.2l6.2-1.9
		c5.2-1.6,21.2-4.9,24-4.9c0.5,0,1.3-0.9,1.9-2c0.2-0.3,0.3-0.9,0.3-1.6v-0.1C452.2,99.5,451.4,94.5,449.3,84.5z M410.9,71.1
		c1.9-2.3,19.8-10.5,21.4-9.9c1.7,0.7,6.9,17.3,9.4,30.2c1.1,5.4,1.8,10,1.7,10c0,0,0,0-0.1,0c-0.7,0.2-4.8,1.4-9.6,2.7
		c-5.3,1.5-10.1,2.7-10.7,2.7c-2,0-9.7-18.1-12.2-28.8c-0.4-1.8-0.7-3-0.7-4C410,72.6,410.2,71.9,410.9,71.1z M286.1,50.4
		c-7.8-1.9-17.7-3.4-24.4-3.8l-4.5-0.3l0.1,1l0.3,5.5c0.4,7.8,2,20.8,2.8,22.1c0.7,1.1-0.5,1.2,12.1-1.2c19-3.6,18.9-3.5,19.9-14.7
		l0.6-6l0.1-1L286.1,50.4z M285.7,62.3L285.7,62.3c-0.1,2.4-0.6,2.8-2.3,3.5c-5.3,2-17.6,3.8-18.3,2.7c-0.4-0.6-0.9-4.9-1.1-9.5
		l-0.4-7.4l0-1l7.4,0.7c4.1,0.4,9,1,10.9,1.4c3.5,0.7,3.5,0.8,3.8,6.4C285.6,60.4,285.7,61.5,285.7,62.3z M280.1,90.8
		c-10.3,0-24.4,2.1-25,3.6c-0.1,0.2-0.1,0.7-0.1,1.4c0.2,5.4,2.6,23.9,3.4,25.2c0.3,0.5,1.9,0.7,3.5,0.3c1.6-0.3,7.2-0.9,12.4-1.3
		c7.4-0.5,9.5-1,9.9-2.3c0.7-2.3,2.5-19,2.5-23.4l0-2.8v-1H280.1z M279.6,102.1c0,2-0.3,4.3-0.8,5.8c-0.9,2.9-1.7,3.7-4.2,4.3
		c-4.9,1-10.7,0.7-11.4-0.5c-0.4-0.6-0.9-4-1.2-7.5c-0.1-1.2-0.2-2.2-0.2-3.1c-0.1-4.5,1.3-4.6,10.2-4.7l7.2-0.1l0.3,4
		C279.6,100.8,279.7,101.4,279.6,102.1z M182.5,74.5c-1.5-2-13.8-4.3-28.6-5.3l-10.2-0.7V82c0,0.9,0,1.8,0,2.6c0,0.8,0,1.6,0,2.4
		c0,0.4,0,0.7,0,1.1c0,0.3,0,0.7,0,1c0.3,9.9,1.4,15.7,3.5,20.3c0.9,1.9,2.2,3.3,2.8,3.1c0.6-0.2,9.5-3.2,19.8-6.6
		c10.3-3.4,19.1-6.8,19.7-7.4c0-0.1,0.1-0.1,0.1-0.3v0C190.2,95.5,184.8,77.5,182.5,74.5z M180.7,94.9
		C180.7,94.9,180.7,94.9,180.7,94.9c-0.3,2.1-2.8,2.9-13.2,6.3c-5.9,1.9-10.9,3.5-11.2,3.5c-1.8,0-5.4-16.3-5.5-25.1
		c0-0.2,0-0.4,0-0.5c0-3.8,0.3-4.4,2.6-5c3.8-1,17.6,0.5,20.1,2.1c2.2,1.4,6.1,10.4,7.1,16.3C180.7,93.6,180.8,94.3,180.7,94.9z
		 M69.5,52.3c-4.9-1.1-19.6-2.5-26.1-2.5h-6.8l0.2,1l0.3,1.8c0.3,1.5,0.8,6.4,1.2,10.8c0.4,4.4,1.1,8.8,1.6,9.9
		c0.8,1.4,1.7,1.7,4.2,1.3c1.7-0.3,8.4-1.3,14.8-2.3l11.7-1.8l0.6-3.5c0.3-1.9,0.6-5.6,0.6-8.4V58C71.8,53.4,71.5,52.7,69.5,52.3z
		 M65.6,59.9L65.6,59.9c0,0.3,0,0.4,0,0.6c-0.3,3.6-0.5,3.8-5.3,5c-2.8,0.7-7.8,1.6-11.3,1.9c-5.7,0.6-6.3,0.5-6.3-1.3
		c0-1-0.3-4.3-0.7-7.3l-0.5-4.4l-0.1-1l9.8,0.7C64,55.1,65.8,55.7,65.6,59.9z M449.3,84.5c-4.2-21.1-8.1-33.7-10.2-33.7
		c-3.8,0-30.6,12.5-36.4,16.9l-2.5,1.9l0.3,0.8l2.1,6.1c4,11.5,12,29.5,14.6,32.9l2.5,3.2l6.2-1.9c5.2-1.6,21.2-4.9,24-4.9
		c0.5,0,1.3-0.9,1.9-2c0.2-0.3,0.3-0.9,0.3-1.6v-0.1C452.2,99.5,451.4,94.5,449.3,84.5z M410.9,71.1c1.9-2.3,19.8-10.5,21.4-9.9
		c1.7,0.7,6.9,17.3,9.4,30.2c1.1,5.4,1.8,10,1.7,10c0,0,0,0-0.1,0c-0.7,0.2-4.8,1.4-9.6,2.7c-5.3,1.5-10.1,2.7-10.7,2.7
		c-2,0-9.7-18.1-12.2-28.8c-0.4-1.8-0.7-3-0.7-4C410,72.6,410.2,71.9,410.9,71.1z M69.5,52.3c-4.9-1.1-19.6-2.5-26.1-2.5h-6.8l0.2,1
		l0.3,1.8c0.3,1.5,0.8,6.4,1.2,10.8c0.4,4.4,1.1,8.8,1.6,9.9c0.8,1.4,1.7,1.7,4.2,1.3c1.7-0.3,8.4-1.3,14.8-2.3l11.7-1.8l0.6-3.5
		c0.3-1.9,0.6-5.6,0.6-8.4V58C71.8,53.4,71.5,52.7,69.5,52.3z M65.6,59.9L65.6,59.9c0,0.3,0,0.4,0,0.6c-0.3,3.6-0.5,3.8-5.3,5
		c-2.8,0.7-7.8,1.6-11.3,1.9c-5.7,0.6-6.3,0.5-6.3-1.3c0-1-0.3-4.3-0.7-7.3l-0.5-4.4l-0.1-1l9.8,0.7C64,55.1,65.8,55.7,65.6,59.9z
		 M182.5,74.5c-1.5-2-13.8-4.3-28.6-5.3l-10.2-0.7V82c0,0.9,0,1.8,0,2.6c0,0.8,0,1.6,0,2.4c0,0.4,0,0.7,0,1.1c0,0.3,0,0.7,0,1
		c0.3,9.9,1.4,15.7,3.5,20.3c0.9,1.9,2.2,3.3,2.8,3.1c0.6-0.2,9.5-3.2,19.8-6.6c10.3-3.4,19.1-6.8,19.7-7.4c0-0.1,0.1-0.1,0.1-0.3v0
		C190.2,95.5,184.8,77.5,182.5,74.5z M180.7,94.9C180.7,94.9,180.7,94.9,180.7,94.9c-0.3,2.1-2.8,2.9-13.2,6.3
		c-5.9,1.9-10.9,3.5-11.2,3.5c-1.8,0-5.4-16.3-5.5-25.1c0-0.2,0-0.4,0-0.5c0-3.8,0.3-4.4,2.6-5c3.8-1,17.6,0.5,20.1,2.1
		c2.2,1.4,6.1,10.4,7.1,16.3C180.7,93.6,180.8,94.3,180.7,94.9z M280.1,90.8c-10.3,0-24.4,2.1-25,3.6c-0.1,0.2-0.1,0.7-0.1,1.4
		c0.2,5.4,2.6,23.9,3.4,25.2c0.3,0.5,1.9,0.7,3.5,0.3c1.6-0.3,7.2-0.9,12.4-1.3c7.4-0.5,9.5-1,9.9-2.3c0.7-2.3,2.5-19,2.5-23.4
		l0-2.8v-1H280.1z M279.6,102.1c0,2-0.3,4.3-0.8,5.8c-0.9,2.9-1.7,3.7-4.2,4.3c-4.9,1-10.7,0.7-11.4-0.5c-0.4-0.6-0.9-4-1.2-7.5
		c-0.1-1.2-0.2-2.2-0.2-3.1c-0.1-4.5,1.3-4.6,10.2-4.7l7.2-0.1l0.3,4C279.6,100.8,279.7,101.4,279.6,102.1z M286.1,50.4
		c-7.8-1.9-17.7-3.4-24.4-3.8l-4.5-0.3l0.1,1l0.3,5.5c0.4,7.8,2,20.8,2.8,22.1c0.7,1.1-0.5,1.2,12.1-1.2c19-3.6,18.9-3.5,19.9-14.7
		l0.6-6l0.1-1L286.1,50.4z M285.7,62.3L285.7,62.3c-0.1,2.4-0.6,2.8-2.3,3.5c-5.3,2-17.6,3.8-18.3,2.7c-0.4-0.6-0.9-4.9-1.1-9.5
		l-0.4-7.4l0-1l7.4,0.7c4.1,0.4,9,1,10.9,1.4c3.5,0.7,3.5,0.8,3.8,6.4C285.6,60.4,285.7,61.5,285.7,62.3z M449.3,84.5
		c-4.2-21.1-8.1-33.7-10.2-33.7c-3.8,0-30.6,12.5-36.4,16.9l-2.5,1.9l0.3,0.8l2.1,6.1c4,11.5,12,29.5,14.6,32.9l2.5,3.2l6.2-1.9
		c5.2-1.6,21.2-4.9,24-4.9c0.5,0,1.3-0.9,1.9-2c0.2-0.3,0.3-0.9,0.3-1.6v-0.1C452.2,99.5,451.4,94.5,449.3,84.5z M410.9,71.1
		c1.9-2.3,19.8-10.5,21.4-9.9c1.7,0.7,6.9,17.3,9.4,30.2c1.1,5.4,1.8,10,1.7,10c0,0,0,0-0.1,0c-0.7,0.2-4.8,1.4-9.6,2.7
		c-5.3,1.5-10.1,2.7-10.7,2.7c-2,0-9.7-18.1-12.2-28.8c-0.4-1.8-0.7-3-0.7-4C410,72.6,410.2,71.9,410.9,71.1z M286.1,50.4
		c-7.8-1.9-17.7-3.4-24.4-3.8l-4.5-0.3l0.1,1l0.3,5.5c0.4,7.8,2,20.8,2.8,22.1c0.7,1.1-0.5,1.2,12.1-1.2c19-3.6,18.9-3.5,19.9-14.7
		l0.6-6l0.1-1L286.1,50.4z M285.7,62.3L285.7,62.3c-0.1,2.4-0.6,2.8-2.3,3.5c-5.3,2-17.6,3.8-18.3,2.7c-0.4-0.6-0.9-4.9-1.1-9.5
		l-0.4-7.4l0-1l7.4,0.7c4.1,0.4,9,1,10.9,1.4c3.5,0.7,3.5,0.8,3.8,6.4C285.6,60.4,285.7,61.5,285.7,62.3z M255.1,94.4
		c-0.1,0.2-0.1,0.7-0.1,1.4c0.2,5.4,2.6,23.9,3.4,25.2c0.3,0.5,1.9,0.7,3.5,0.3c1.6-0.3,7.2-0.9,12.4-1.3c7.4-0.5,9.5-1,9.9-2.3
		c0.7-2.3,2.5-19,2.5-23.4l0-2.8v-1h-6.7C269.8,90.8,255.7,92.8,255.1,94.4z M279.6,102.1c0,2-0.3,4.3-0.8,5.8
		c-0.9,2.9-1.7,3.7-4.2,4.3c-4.9,1-10.7,0.7-11.4-0.5c-0.4-0.6-0.9-4-1.2-7.5c-0.1-1.2-0.2-2.2-0.2-3.1c-0.1-4.5,1.3-4.6,10.2-4.7
		l7.2-0.1l0.3,4C279.6,100.8,279.7,101.4,279.6,102.1z M182.5,74.5c-1.5-2-13.8-4.3-28.6-5.3l-10.2-0.7V82c0,0.9,0,1.8,0,2.6
		c0,0.8,0,1.6,0,2.4c0,0.4,0,0.7,0,1.1c0,0.3,0,0.7,0,1c0.3,9.9,1.4,15.7,3.5,20.3c0.9,1.9,2.2,3.3,2.8,3.1
		c0.6-0.2,9.5-3.2,19.8-6.6c10.3-3.4,19.1-6.8,19.7-7.4c0-0.1,0.1-0.1,0.1-0.3v0C190.2,95.5,184.8,77.5,182.5,74.5z M180.7,94.9
		C180.7,94.9,180.7,94.9,180.7,94.9c-0.3,2.1-2.8,2.9-13.2,6.3c-5.9,1.9-10.9,3.5-11.2,3.5c-1.8,0-5.4-16.3-5.5-25.1
		c0-0.2,0-0.4,0-0.5c0-3.8,0.3-4.4,2.6-5c3.8-1,17.6,0.5,20.1,2.1c2.2,1.4,6.1,10.4,7.1,16.3C180.7,93.6,180.8,94.3,180.7,94.9z
		 M69.5,52.3c-4.9-1.1-19.6-2.5-26.1-2.5h-6.8l0.2,1l0.3,1.8c0.3,1.5,0.8,6.4,1.2,10.8c0.4,4.4,1.1,8.8,1.6,9.9
		c0.8,1.4,1.7,1.7,4.2,1.3c1.7-0.3,8.4-1.3,14.8-2.3l11.7-1.8l0.6-3.5c0.3-1.9,0.6-5.6,0.6-8.4V58C71.8,53.4,71.5,52.7,69.5,52.3z
		 M65.6,59.9L65.6,59.9c0,0.3,0,0.4,0,0.6c-0.3,3.6-0.5,3.8-5.3,5c-2.8,0.7-7.8,1.6-11.3,1.9c-5.7,0.6-6.3,0.5-6.3-1.3
		c0-1-0.3-4.3-0.7-7.3l-0.5-4.4l-0.1-1l9.8,0.7C64,55.1,65.8,55.7,65.6,59.9z M449.3,84.5c-4.2-21.1-8.1-33.7-10.2-33.7
		c-3.8,0-30.6,12.5-36.4,16.9l-2.5,1.9l0.3,0.8l2.1,6.1c4,11.5,12,29.5,14.6,32.9l2.5,3.2l6.2-1.9c5.2-1.6,21.2-4.9,24-4.9
		c0.5,0,1.3-0.9,1.9-2c0.2-0.3,0.3-0.9,0.3-1.6v-0.1C452.2,99.5,451.4,94.5,449.3,84.5z M410.9,71.1c1.9-2.3,19.8-10.5,21.4-9.9
		c1.7,0.7,6.9,17.3,9.4,30.2c1.1,5.4,1.8,10,1.7,10c0,0,0,0-0.1,0c-0.7,0.2-4.8,1.4-9.6,2.7c-5.3,1.5-10.1,2.7-10.7,2.7
		c-2,0-9.7-18.1-12.2-28.8c-0.4-1.8-0.7-3-0.7-4C410,72.6,410.2,71.9,410.9,71.1z M585.4,93.5l-25.1-10.1l-0.7-0.3l5.7-5.2
		c6.8-6.2,23-18.1,40.7-29.8c5.7-3.8,10.4-7.3,11.8-8.7c0.3-0.3,0.5-0.6,0.4-0.7c-1.3-2.1-50.5-16-56.6-16
		c-4.9,0-15.3,7.8-31.2,23.3l-11.7,11.4l-2.4-4.1c-1.3-2.3-2.9-5.8-3.6-7.9c-0.7-2.1-1.9-4.1-2.8-4.4c-0.9-0.3-7.6,0.9-15,2.7
		c-11.3,2.8-13.6,3.1-14.7,1.9c-0.7-0.8-3.8-5.7-6.8-11c-3.1-5.3-6.4-10.2-7.3-11c-1.4-1.1-7.5-1.5-30.3-1.8
		c-30.4-0.3-46.2,0.7-49,3.3c-0.9,0.8-3.7,5.7-6.1,10.8c-4.3,8.9-4.4,9.6-4.8,20.2c0,1,0,2.1,0,3.3v0.7c0,11.5,1.4,28.5,3.3,40.8
		l1.2,7.8h-12.7v-2.9c0-1.6,1.3-19.5,2.9-39.8c2.6-32.8,3.8-46.8,3.9-52.8c0.1-5-0.7-4.5-1.9-4.8c-2.4-0.6-31.8-4-45.6-5.3l-7.3-0.7
		v15.6c0,0.8,0,1.6,0,2.4c0,0.5,0,1,0,1.5c0,0.6,0,1.3,0,1.9c0,0.5,0,1.1,0,1.6c0,0.6,0,1.2,0,1.8c0,0.3,0,0.6,0,0.8
		c0,0.3,0,0.5,0,0.7c0,0.2,0,0.4,0,0.6c0,0.2,0,0.3,0,0.5c-0.1,2.4-0.3,3.9-0.4,3.9c-0.3,0-3.2-2-6.4-4.5c-7.6-5.8-9.6-6.5-18.9-6.5
		c-12.6,0-59.8,3.2-67.2,4.6l-2.6,0.5l0,1l0.3,19.2l0.3,20.2l0,0L220,56.4c-3.2-7.9-5.6-12.5-7.3-13.8c-3.8-2.8-23-4.2-50.5-3.5
		c-28.7,0.7-38.4,2.6-40,7.8c-0.4,1.1-1,1.8-1.3,1.5c-0.4-0.4-2.7-6.8-5.2-14.3l-4.5-13.7l-6,0.3c-11.7,0.5-87.6,9-98,11
		c-3.7,0.7-4,1-4.3,4.4c0,0.3,0,0.6,0,1.1c0,0,0,0.1,0,0.2C3,41,3.7,50.6,4.7,60.5c1.7,16.8,5.1,62.5,5.1,68c0,2.5,4.8,4.4,25.7,9.8
		c11.6,3,21.3,5.5,21.7,5.5c0,0,0.1,0,0.1,0c0.5-0.4-1-5-8.3-26c-3.8-11-5.8-17.8-6.1-20.7c-0.2-1.8,0.4-2.2,1.5-1.3
		c1.8,1.5,14.9,28.1,21.9,44.5c6.7,15.5,5.6,14.9,19.5,12.5c12.3-2.1,30.5-4.4,43.8-5.5c4.4-0.4,7-0.8,7.9-1.4
		c0.2-0.2,0.4-0.3,0.4-0.5c0-0.7-13.3-12-29.7-25.1C91.8,107,77.5,95.5,76.3,94.5c-0.2-0.2-0.3-0.3-0.5-0.4
		c-1.4-1.3-0.2-1.3,9.9-0.8c6.3,0.3,14.3,0.8,17.7,1.1l6.1,0.5l0.7,9.1l0.7,9.1l7.9,8.2c4.3,4.5,9.7,9.5,11.9,11l4,2.8l23.3-0.7
		c20.8-0.6,49.6-2.7,58.4-4.2l3.3-0.6v12.4l16.8-0.7c9.2-0.4,26.4-1.1,38.3-1.6c11.8-0.5,27.3-0.9,34.4-0.9l12.9,0l2.7-3.3l2.7-3.3
		l0.7,3.8c0.4,2.1,1.3,4,1.9,4.3c0.7,0.3,11.3-1.5,23.6-4c12.3-2.5,25-4.8,28.3-5.2l5.8-0.7l4.2,4.5l4.2,4.5l35.9-0.5l35.9-0.5
		l4.6-4.2c4.3-4,4.8-4.1,8.1-3.2c1.9,0.5,10.4,3,18.9,5.4c12.6,3.6,15.6,4.2,16.7,3.1c0.7-0.7,3.2-4.9,5.5-9.3
		c2.3-4.4,4.7-8.3,5.3-8.7c1.8-1.2,5.7,1.7,26.1,19.1c11,9.4,20.3,17,20.6,17.1c0.7,0,0.1,0.5,30.4-20.4
		c23.1-15.9,28.3-19.6,29.3-21.1c0.2-0.3,0.2-0.4,0.2-0.6C633.8,114,613,104.5,585.4,93.5z M471.7,48.4c-0.5,1.5-3.5,2.7-13.7,5.9
		c-2.9,0.9-5.3,2-5.3,2.4c0,0.1,0.1,0.3,0.4,0.6c1.8,2.3,10,10.1,16.9,16.1l4.8,4.1v25.3l-9,10.7c-4.9,5.9-9,11.1-9,11.5
		c0,0.1,0.1,0.3,0.3,0.4c0.5,0.4,1.5,0.7,2.7,1c2.9,0.6,4.3,1.6,3.5,2.5c-0.1,0.1-0.2,0.2-0.4,0.3c-0.5,0.3-12.8,1.2-27.3,2.1
		c-14.5,0.8-28.5,1.7-31,2c-3.6,0.4-5,0.1-6.4-1.2c-0.3-0.3-0.6-0.6-0.8-0.8c-0.8-1-0.3-1.1,2.1-1.3c4.1-0.4,4.9-1.5,7.3-10.7
		c1-4,1.8-6.5,1.9-8.2c0.3-3.6-2.2-3.2-10.8-3.2H387l-0.6-3.8c-2.1-12.9-4.7-36.9-4.8-43.2c0-0.2,0-0.4,0-0.6c0-0.3,0-0.6,0-0.9
		c0-5.2,0.7-7.7,3.1-13.5c5-12.1,5.3-12.2,31.4-13.9c20.8-1.3,43.2-0.1,47.4,2.6c2.6,1.7,8.3,11.1,8.3,13.6
		C471.8,48.1,471.7,48.2,471.7,48.4z M488,88.7c-0.3,0.7-1.1,1.5-2.7,3l-3.5,3.4v-6.2c0-0.4,0-0.8,0-1.1c0-4.6,0.3-4.9,1.8-4.2
		c1,0.5,2.5,1.8,3.5,2.9C487.9,87.5,488.3,88,488,88.7z M113.2,139.8c0,0-0.1,0.1-0.1,0.1c-0.6,0.5-3,0.8-5.6,0.8
		c-2.9,0-9.2,0.6-14.2,1.4c-4.9,0.8-10.9,1.7-13.1,2.1L76,145l-7-12.9c-3.9-7.1-10.1-19-13.9-26.6l-6.8-13.8H43
		c-3.8,0-5.5,0.4-5.9,1.5c0,0.1,0,0.5,0,0.9c0.3,2.6,2.2,9.8,4.6,17.8c2.9,9.5,5.5,18,5.7,19c0.1,0.5,0.2,0.8,0,1.1
		c-0.3,0.6-1.4,0.7-4,0.7c-4.1,0-14-1.4-17.9-2.6c-1.2-0.3-1.9-2.6-2.8-8.1c-1.5-10.5-6.8-62.4-7.7-75.5l-0.6-9.7l-0.1-1l3.9-1
		c9-2.3,52.6-7.5,73.4-8.7c9.2-0.5,11.7-0.4,12.6,0.7c2.2,2.8,15.4,45.2,15.4,49.5c0,0.1,0,0.3,0,0.4c-0.3,1.6-2,4.1-4.6,6.9l-4.6,5
		H87.1c-12.9,0-23.4,0.4-23.4,0.9c0,0.1,0.2,0.3,0.6,0.8c2.1,2.4,9.6,9.6,18.4,17.9C104.7,128.7,114.1,138.5,113.2,139.8z
		 M223.8,120.2c-2.7,3.2-18.4,5.1-53.6,6.6c-34.9,1.4-31.4,1.7-37.8-3.5c-3-2.5-7.1-6.4-9.1-8.7c-3-3.5-3.5-4.7-3.6-8.9v-1
		c0-8.5,1.7-16.2,4-18.1c1.1-0.9,3.3-2.8,4.9-4.1l2.7-2.3l0.3-0.2l-2.4-7.7c-1.2-3.9-2.3-8.2-2.4-10c0-0.2,0-0.3,0-0.4
		c0-4.4,3-12.1,5.4-13.6c4-2.5,16.4-3.5,43.6-3.5c27,0,27.1,0,29.4,2.3c4,4,15.9,37.5,18.6,52.7c0.8,4.4,1.2,9.4,1.1,13.4
		C224.9,116.6,224.5,119.4,223.8,120.2z M329.7,105.9c-0.5,4.4-11.2,23.1-14.1,24.6c-1.4,0.7-15.7,2.1-32.4,3.3
		c-16.5,1.2-35.3,2.4-41.7,2.7l-11.8,0.6v-4c0-2.7,0.9-5.3,2.6-7.9c2-2.9,3-5.5,3.1-9.2c0-0.1,0-0.1,0-0.2c0.1-3.1-0.5-7.1-1.7-12.8
		c-1.2-5.8-1.7-9.3-1.9-16.2c0-0.5,0-0.9,0-1.4c0-0.3,0-0.6,0-0.8c0-0.6,0-1.3,0-1.9c0-1.9,0-4,0-6.5c0-0.9,0-1.8,0-2.8
		c0-0.3,0-0.7,0-1c0-1.2,0-2.4,0-3.7c0-0.4,0-0.8,0-1.2c0-0.5,0-0.9,0-1.4c0-0.8,0-1.6,0-2.4c0.2-15.7,0.7-28.9,1.1-29.3
		c1-0.9,27.8-3.9,48.5-5.4c12.5-0.9,16.7-0.9,18.5,0c3.1,1.6,13.9,10,21.9,17.1l6.7,5.8l-0.2,0.8l-1.8,6.9
		c-1.1,4.3-2.7,8.9-3.5,10.3c-0.8,1.4-6,5.4-11.5,8.9c-5.5,3.5-9.8,6.8-9.6,7.3c0,0.1,0.2,0.2,0.4,0.4c1.4,1.1,6.3,4.1,12.1,7.3
		c14.4,7.9,15.3,8.6,15.3,12C329.8,105.7,329.8,105.8,329.7,105.9z M322.8,88.4c0,0,0,0.1,0,0.1c0,2.7-0.5,2.6-5.5,0.3l-2.9-1.4
		l-1.1-0.5l3.8-1.6c4.5-1.9,5.7-1.4,5.7,2.5C322.8,88,322.8,88.2,322.8,88.4z M396.9,114.7l-0.5,3.2c-0.8,5.3-1.2,5.8-4,5.8
		c-1.3,0-11,1.6-21.7,3.5c-10.7,1.9-22.6,4.1-26.6,4.9l-7.2,1.4l-0.6-2.3c-0.8-3.3-1.3-6.3-1.3-9.1c-0.1-3.9,0.6-7.5,2.2-11.2
		c1.2-3,2.2-6,2.5-7.3c0.1-0.3,0.1-0.5,0.1-0.6c0-0.8-1.6-2.9-3.6-4.6l-3.6-3.1l-0.4-10c-0.1-1.8-0.1-3.3-0.2-4.7
		c0-5.6,0.6-8.4,3.3-17.6c1.7-5.6,2.6-9,2.8-11.4c0.2-3.5-1.4-4.7-5.3-7.4l-4.1-2.8l-0.1-0.1l0.6-6.5c0.3-3.6,0.6-10.5,0.6-15.4
		l0-7.9v-1l7.8,0.7c4.3,0.4,12.2,1.2,17.6,1.8l9.9,1.2l0,1l-0.6,15.1c-0.9,21.5-3.4,67.3-4.2,76.3l-0.6,7.3H397L396.9,114.7z
		 M610.3,117.3c-1.5,1.4-6.2,4.8-11.7,8.6c-6.7,4.6-14.9,10.5-18.1,13.1c-3.2,2.7-6.1,4.8-6.5,4.8c-0.4,0-5.1-3.6-10.6-8
		c-14.7-11.7-33.5-25-35.5-25c-2,0-4.8,3.6-11.1,14c-3.5,5.8-5,7.4-6.5,7.2c-3.8-0.6-31.6-8.3-35.5-9.9c-1.6-0.6-2.7-1.1-3-1.9
		c-0.6-1.5,1.9-4.5,9.4-13.3c10.6-12.5,15.5-18.8,16.5-21c0.1-0.3,0.2-0.5,0.2-0.7c0-0.7-6.4-6.2-14.3-12.3
		c-7.9-6.1-14.9-11.7-15.5-12.6c-0.1-0.1-0.1-0.2-0.2-0.2c-0.7-1.1,0.6-1.9,7.2-4.3c12-4.3,20.8-7,25.9-7.7l4.4-0.7l3.2,5.3
		c1.8,2.9,4.9,7,7.1,9.1l3.9,3.8l6.4-6.7c7.4-7.7,19.8-18.3,28.5-24.4l6.1-4.2l10.4,2.6c15.2,3.8,23.8,6.5,24.4,7.5
		c0.1,0.1-0.1,0.3-0.3,0.7c-1.1,1.4-4.8,4.5-9.4,8c-15.7,11.8-38.8,32.3-38.8,34.5c0,0.1,0.1,0.2,0.3,0.3c1,0.8,4.7,2.7,9,4.7
		c16.5,7.6,54.8,26.9,54.8,27.8C610.8,116.8,610.6,117,610.3,117.3z M439.2,50.8c-3.8,0-30.6,12.5-36.4,16.9l-2.5,1.9l0.3,0.8
		l2.1,6.1c4,11.5,12,29.5,14.6,32.9l2.5,3.2l6.2-1.9c5.2-1.6,21.2-4.9,24-4.9c0.5,0,1.3-0.9,1.9-2c0.2-0.3,0.3-0.9,0.3-1.6v-0.1
		c0.1-2.5-0.7-7.6-2.8-17.6C445.1,63.4,441.3,50.8,439.2,50.8z M410.9,71.1c1.9-2.3,19.8-10.5,21.4-9.9c1.7,0.7,6.9,17.3,9.4,30.2
		c1.1,5.4,1.8,10,1.7,10c0,0,0,0-0.1,0c-0.7,0.2-4.8,1.4-9.6,2.7c-5.3,1.5-10.1,2.7-10.7,2.7c-2,0-9.7-18.1-12.2-28.8
		c-0.4-1.8-0.7-3-0.7-4C410,72.6,410.2,71.9,410.9,71.1z M261.8,46.6l-4.5-0.3l0.1,1l0.3,5.5c0.4,7.8,2,20.8,2.8,22.1
		c0.7,1.1-0.5,1.2,12.1-1.2c19-3.6,18.9-3.5,19.9-14.7l0.6-6l0.1-1l-6.9-1.6C278.4,48.6,268.4,47,261.8,46.6z M285.7,62.3
		L285.7,62.3c-0.1,2.4-0.6,2.8-2.3,3.5c-5.3,2-17.6,3.8-18.3,2.7c-0.4-0.6-0.9-4.9-1.1-9.5l-0.4-7.4l0-1l7.4,0.7
		c4.1,0.4,9,1,10.9,1.4c3.5,0.7,3.5,0.8,3.8,6.4C285.6,60.4,285.7,61.5,285.7,62.3z M255.1,94.4c-0.1,0.2-0.1,0.7-0.1,1.4
		c0.2,5.4,2.6,23.9,3.4,25.2c0.3,0.5,1.9,0.7,3.5,0.3c1.6-0.3,7.2-0.9,12.4-1.3c7.4-0.5,9.5-1,9.9-2.3c0.7-2.3,2.5-19,2.5-23.4
		l0-2.8v-1h-6.7C269.8,90.8,255.7,92.8,255.1,94.4z M279.6,102.1c0,2-0.3,4.3-0.8,5.8c-0.9,2.9-1.7,3.7-4.2,4.3
		c-4.9,1-10.7,0.7-11.4-0.5c-0.4-0.6-0.9-4-1.2-7.5c-0.1-1.2-0.2-2.2-0.2-3.1c-0.1-4.5,1.3-4.6,10.2-4.7l7.2-0.1l0.3,4
		C279.6,100.8,279.7,101.4,279.6,102.1z M154,69.2l-10.2-0.7V82c0,0.9,0,1.8,0,2.6c0,0.8,0,1.6,0,2.4c0,0.4,0,0.7,0,1.1
		c0,0.3,0,0.7,0,1c0.3,9.9,1.4,15.7,3.5,20.3c0.9,1.9,2.2,3.3,2.8,3.1c0.6-0.2,9.5-3.2,19.8-6.6c10.3-3.4,19.1-6.8,19.7-7.4
		c0-0.1,0.1-0.1,0.1-0.3v0c0.5-2.7-4.9-20.6-7.2-23.7C181,72.5,168.8,70.2,154,69.2z M180.7,94.9C180.7,94.9,180.7,94.9,180.7,94.9
		c-0.3,2.1-2.8,2.9-13.2,6.3c-5.9,1.9-10.9,3.5-11.2,3.5c-1.8,0-5.4-16.3-5.5-25.1c0-0.2,0-0.4,0-0.5c0-3.8,0.3-4.4,2.6-5
		c3.8-1,17.6,0.5,20.1,2.1c2.2,1.4,6.1,10.4,7.1,16.3C180.7,93.6,180.8,94.3,180.7,94.9z M71.2,66.8c0.3-1.9,0.6-5.6,0.6-8.4V58
		c0-4.6-0.3-5.3-2.2-5.7c-4.9-1.1-19.6-2.5-26.1-2.5h-6.8l0.2,1l0.3,1.8c0.3,1.5,0.8,6.4,1.2,10.8c0.4,4.4,1.1,8.8,1.6,9.9
		c0.8,1.4,1.7,1.7,4.2,1.3c1.7-0.3,8.4-1.3,14.8-2.3l11.7-1.8L71.2,66.8z M65.6,59.9L65.6,59.9c0,0.3,0,0.4,0,0.6
		c-0.3,3.6-0.5,3.8-5.3,5c-2.8,0.7-7.8,1.6-11.3,1.9c-5.7,0.6-6.3,0.5-6.3-1.3c0-1-0.3-4.3-0.7-7.3l-0.5-4.4l-0.1-1l9.8,0.7
		C64,55.1,65.8,55.7,65.6,59.9z M449.3,84.5c-4.2-21.1-8.1-33.7-10.2-33.7c-3.8,0-30.6,12.5-36.4,16.9l-2.5,1.9l0.3,0.8l2.1,6.1
		c4,11.5,12,29.5,14.6,32.9l2.5,3.2l6.2-1.9c5.2-1.6,21.2-4.9,24-4.9c0.5,0,1.3-0.9,1.9-2c0.2-0.3,0.3-0.9,0.3-1.6v-0.1
		C452.2,99.5,451.4,94.5,449.3,84.5z M410.9,71.1c1.9-2.3,19.8-10.5,21.4-9.9c1.7,0.7,6.9,17.3,9.4,30.2c1.1,5.4,1.8,10,1.7,10
		c0,0,0,0-0.1,0c-0.7,0.2-4.8,1.4-9.6,2.7c-5.3,1.5-10.1,2.7-10.7,2.7c-2,0-9.7-18.1-12.2-28.8c-0.4-1.8-0.7-3-0.7-4
		C410,72.6,410.2,71.9,410.9,71.1z M69.5,52.3c-4.9-1.1-19.6-2.5-26.1-2.5h-6.8l0.2,1l0.3,1.8c0.3,1.5,0.8,6.4,1.2,10.8
		c0.4,4.4,1.1,8.8,1.6,9.9c0.8,1.4,1.7,1.7,4.2,1.3c1.7-0.3,8.4-1.3,14.8-2.3l11.7-1.8l0.6-3.5c0.3-1.9,0.6-5.6,0.6-8.4V58
		C71.8,53.4,71.5,52.7,69.5,52.3z M65.6,59.9L65.6,59.9c0,0.3,0,0.4,0,0.6c-0.3,3.6-0.5,3.8-5.3,5c-2.8,0.7-7.8,1.6-11.3,1.9
		c-5.7,0.6-6.3,0.5-6.3-1.3c0-1-0.3-4.3-0.7-7.3l-0.5-4.4l-0.1-1l9.8,0.7C64,55.1,65.8,55.7,65.6,59.9z M182.5,74.5
		c-1.5-2-13.8-4.3-28.6-5.3l-10.2-0.7V82c0,0.9,0,1.8,0,2.6c0,0.8,0,1.6,0,2.4c0,0.4,0,0.7,0,1.1c0,0.3,0,0.7,0,1
		c0.3,9.9,1.4,15.7,3.5,20.3c0.9,1.9,2.2,3.3,2.8,3.1c0.6-0.2,9.5-3.2,19.8-6.6c10.3-3.4,19.1-6.8,19.7-7.4c0-0.1,0.1-0.1,0.1-0.3v0
		C190.2,95.5,184.8,77.5,182.5,74.5z M180.7,94.9C180.7,94.9,180.7,94.9,180.7,94.9c-0.3,2.1-2.8,2.9-13.2,6.3
		c-5.9,1.9-10.9,3.5-11.2,3.5c-1.8,0-5.4-16.3-5.5-25.1c0-0.2,0-0.4,0-0.5c0-3.8,0.3-4.4,2.6-5c3.8-1,17.6,0.5,20.1,2.1
		c2.2,1.4,6.1,10.4,7.1,16.3C180.7,93.6,180.8,94.3,180.7,94.9z M280.1,90.8c-10.3,0-24.4,2.1-25,3.6c-0.1,0.2-0.1,0.7-0.1,1.4
		c0.2,5.4,2.6,23.9,3.4,25.2c0.3,0.5,1.9,0.7,3.5,0.3c1.6-0.3,7.2-0.9,12.4-1.3c7.4-0.5,9.5-1,9.9-2.3c0.7-2.3,2.5-19,2.5-23.4
		l0-2.8v-1H280.1z M279.6,102.1c0,2-0.3,4.3-0.8,5.8c-0.9,2.9-1.7,3.7-4.2,4.3c-4.9,1-10.7,0.7-11.4-0.5c-0.4-0.6-0.9-4-1.2-7.5
		c-0.1-1.2-0.2-2.2-0.2-3.1c-0.1-4.5,1.3-4.6,10.2-4.7l7.2-0.1l0.3,4C279.6,100.8,279.7,101.4,279.6,102.1z M286.1,50.4
		c-7.8-1.9-17.7-3.4-24.4-3.8l-4.5-0.3l0.1,1l0.3,5.5c0.4,7.8,2,20.8,2.8,22.1c0.7,1.1-0.5,1.2,12.1-1.2c19-3.6,18.9-3.5,19.9-14.7
		l0.6-6l0.1-1L286.1,50.4z M285.7,62.3L285.7,62.3c-0.1,2.4-0.6,2.8-2.3,3.5c-5.3,2-17.6,3.8-18.3,2.7c-0.4-0.6-0.9-4.9-1.1-9.5
		l-0.4-7.4l0-1l7.4,0.7c4.1,0.4,9,1,10.9,1.4c3.5,0.7,3.5,0.8,3.8,6.4C285.6,60.4,285.7,61.5,285.7,62.3z M449.3,84.5
		c-4.2-21.1-8.1-33.7-10.2-33.7c-3.8,0-30.6,12.5-36.4,16.9l-2.5,1.9l0.3,0.8l2.1,6.1c4,11.5,12,29.5,14.6,32.9l2.5,3.2l6.2-1.9
		c5.2-1.6,21.2-4.9,24-4.9c0.5,0,1.3-0.9,1.9-2c0.2-0.3,0.3-0.9,0.3-1.6v-0.1C452.2,99.5,451.4,94.5,449.3,84.5z M410.9,71.1
		c1.9-2.3,19.8-10.5,21.4-9.9c1.7,0.7,6.9,17.3,9.4,30.2c1.1,5.4,1.8,10,1.7,10c0,0,0,0-0.1,0c-0.7,0.2-4.8,1.4-9.6,2.7
		c-5.3,1.5-10.1,2.7-10.7,2.7c-2,0-9.7-18.1-12.2-28.8c-0.4-1.8-0.7-3-0.7-4C410,72.6,410.2,71.9,410.9,71.1z M286.1,50.4
		c-7.8-1.9-17.7-3.4-24.4-3.8l-4.5-0.3l0.1,1l0.3,5.5c0.4,7.8,2,20.8,2.8,22.1c0.7,1.1-0.5,1.2,12.1-1.2c19-3.6,18.9-3.5,19.9-14.7
		l0.6-6l0.1-1L286.1,50.4z M285.7,62.3L285.7,62.3c-0.1,2.4-0.6,2.8-2.3,3.5c-5.3,2-17.6,3.8-18.3,2.7c-0.4-0.6-0.9-4.9-1.1-9.5
		l-0.4-7.4l0-1l7.4,0.7c4.1,0.4,9,1,10.9,1.4c3.5,0.7,3.5,0.8,3.8,6.4C285.6,60.4,285.7,61.5,285.7,62.3z M280.1,90.8
		c-10.3,0-24.4,2.1-25,3.6c-0.1,0.2-0.1,0.7-0.1,1.4c0.2,5.4,2.6,23.9,3.4,25.2c0.3,0.5,1.9,0.7,3.5,0.3c1.6-0.3,7.2-0.9,12.4-1.3
		c7.4-0.5,9.5-1,9.9-2.3c0.7-2.3,2.5-19,2.5-23.4l0-2.8v-1H280.1z M279.6,102.1c0,2-0.3,4.3-0.8,5.8c-0.9,2.9-1.7,3.7-4.2,4.3
		c-4.9,1-10.7,0.7-11.4-0.5c-0.4-0.6-0.9-4-1.2-7.5c-0.1-1.2-0.2-2.2-0.2-3.1c-0.1-4.5,1.3-4.6,10.2-4.7l7.2-0.1l0.3,4
		C279.6,100.8,279.7,101.4,279.6,102.1z M182.5,74.5c-1.5-2-13.8-4.3-28.6-5.3l-10.2-0.7V82c0,0.9,0,1.8,0,2.6c0,0.8,0,1.6,0,2.4
		c0,0.4,0,0.7,0,1.1c0,0.3,0,0.7,0,1c0.3,9.9,1.4,15.7,3.5,20.3c0.9,1.9,2.2,3.3,2.8,3.1c0.6-0.2,9.5-3.2,19.8-6.6
		c10.3-3.4,19.1-6.8,19.7-7.4c0-0.1,0.1-0.1,0.1-0.3v0C190.2,95.5,184.8,77.5,182.5,74.5z M180.7,94.9
		C180.7,94.9,180.7,94.9,180.7,94.9c-0.3,2.1-2.8,2.9-13.2,6.3c-5.9,1.9-10.9,3.5-11.2,3.5c-1.8,0-5.4-16.3-5.5-25.1
		c0-0.2,0-0.4,0-0.5c0-3.8,0.3-4.4,2.6-5c3.8-1,17.6,0.5,20.1,2.1c2.2,1.4,6.1,10.4,7.1,16.3C180.7,93.6,180.8,94.3,180.7,94.9z
		 M69.5,52.3c-4.9-1.1-19.6-2.5-26.1-2.5h-6.8l0.2,1l0.3,1.8c0.3,1.5,0.8,6.4,1.2,10.8c0.4,4.4,1.1,8.8,1.6,9.9
		c0.8,1.4,1.7,1.7,4.2,1.3c1.7-0.3,8.4-1.3,14.8-2.3l11.7-1.8l0.6-3.5c0.3-1.9,0.6-5.6,0.6-8.4V58C71.8,53.4,71.5,52.7,69.5,52.3z
		 M65.6,59.9L65.6,59.9c0,0.3,0,0.4,0,0.6c-0.3,3.6-0.5,3.8-5.3,5c-2.8,0.7-7.8,1.6-11.3,1.9c-5.7,0.6-6.3,0.5-6.3-1.3
		c0-1-0.3-4.3-0.7-7.3l-0.5-4.4l-0.1-1l9.8,0.7C64,55.1,65.8,55.7,65.6,59.9z M449.3,84.5c-4.2-21.1-8.1-33.7-10.2-33.7
		c-3.8,0-30.6,12.5-36.4,16.9l-2.5,1.9l0.3,0.8l2.1,6.1c4,11.5,12,29.5,14.6,32.9l2.5,3.2l6.2-1.9c5.2-1.6,21.2-4.9,24-4.9
		c0.5,0,1.3-0.9,1.9-2c0.2-0.3,0.3-0.9,0.3-1.6v-0.1C452.2,99.5,451.4,94.5,449.3,84.5z M410.9,71.1c1.9-2.3,19.8-10.5,21.4-9.9
		c1.7,0.7,6.9,17.3,9.4,30.2c1.1,5.4,1.8,10,1.7,10c0,0,0,0-0.1,0c-0.7,0.2-4.8,1.4-9.6,2.7c-5.3,1.5-10.1,2.7-10.7,2.7
		c-2,0-9.7-18.1-12.2-28.8c-0.4-1.8-0.7-3-0.7-4C410,72.6,410.2,71.9,410.9,71.1z M69.5,52.3c-4.9-1.1-19.6-2.5-26.1-2.5h-6.8l0.2,1
		l0.3,1.8c0.3,1.5,0.8,6.4,1.2,10.8c0.4,4.4,1.1,8.8,1.6,9.9c0.8,1.4,1.7,1.7,4.2,1.3c1.7-0.3,8.4-1.3,14.8-2.3l11.7-1.8l0.6-3.5
		c0.3-1.9,0.6-5.6,0.6-8.4V58C71.8,53.4,71.5,52.7,69.5,52.3z M65.6,59.9L65.6,59.9c0,0.3,0,0.4,0,0.6c-0.3,3.6-0.5,3.8-5.3,5
		c-2.8,0.7-7.8,1.6-11.3,1.9c-5.7,0.6-6.3,0.5-6.3-1.3c0-1-0.3-4.3-0.7-7.3l-0.5-4.4l-0.1-1l9.8,0.7C64,55.1,65.8,55.7,65.6,59.9z
		 M182.5,74.5c-1.5-2-13.8-4.3-28.6-5.3l-10.2-0.7V82c0,0.9,0,1.8,0,2.6c0,0.8,0,1.6,0,2.4c0,0.4,0,0.7,0,1.1c0,0.3,0,0.7,0,1
		c0.3,9.9,1.4,15.7,3.5,20.3c0.9,1.9,2.2,3.3,2.8,3.1c0.6-0.2,9.5-3.2,19.8-6.6c10.3-3.4,19.1-6.8,19.7-7.4c0-0.1,0.1-0.1,0.1-0.3v0
		C190.2,95.5,184.8,77.5,182.5,74.5z M180.7,94.9C180.7,94.9,180.7,94.9,180.7,94.9c-0.3,2.1-2.8,2.9-13.2,6.3
		c-5.9,1.9-10.9,3.5-11.2,3.5c-1.8,0-5.4-16.3-5.5-25.1c0-0.2,0-0.4,0-0.5c0-3.8,0.3-4.4,2.6-5c3.8-1,17.6,0.5,20.1,2.1
		c2.2,1.4,6.1,10.4,7.1,16.3C180.7,93.6,180.8,94.3,180.7,94.9z M280.1,90.8c-10.3,0-24.4,2.1-25,3.6c-0.1,0.2-0.1,0.7-0.1,1.4
		c0.2,5.4,2.6,23.9,3.4,25.2c0.3,0.5,1.9,0.7,3.5,0.3c1.6-0.3,7.2-0.9,12.4-1.3c7.4-0.5,9.5-1,9.9-2.3c0.7-2.3,2.5-19,2.5-23.4
		l0-2.8v-1H280.1z M279.6,102.1c0,2-0.3,4.3-0.8,5.8c-0.9,2.9-1.7,3.7-4.2,4.3c-4.9,1-10.7,0.7-11.4-0.5c-0.4-0.6-0.9-4-1.2-7.5
		c-0.1-1.2-0.2-2.2-0.2-3.1c-0.1-4.5,1.3-4.6,10.2-4.7l7.2-0.1l0.3,4C279.6,100.8,279.7,101.4,279.6,102.1z M286.1,50.4
		c-7.8-1.9-17.7-3.4-24.4-3.8l-4.5-0.3l0.1,1l0.3,5.5c0.4,7.8,2,20.8,2.8,22.1c0.7,1.1-0.5,1.2,12.1-1.2c19-3.6,18.9-3.5,19.9-14.7
		l0.6-6l0.1-1L286.1,50.4z M285.7,62.3L285.7,62.3c-0.1,2.4-0.6,2.8-2.3,3.5c-5.3,2-17.6,3.8-18.3,2.7c-0.4-0.6-0.9-4.9-1.1-9.5
		l-0.4-7.4l0-1l7.4,0.7c4.1,0.4,9,1,10.9,1.4c3.5,0.7,3.5,0.8,3.8,6.4C285.6,60.4,285.7,61.5,285.7,62.3z M449.3,84.5
		c-4.2-21.1-8.1-33.7-10.2-33.7c-3.8,0-30.6,12.5-36.4,16.9l-2.5,1.9l0.3,0.8l2.1,6.1c4,11.5,12,29.5,14.6,32.9l2.5,3.2l6.2-1.9
		c5.2-1.6,21.2-4.9,24-4.9c0.5,0,1.3-0.9,1.9-2c0.2-0.3,0.3-0.9,0.3-1.6v-0.1C452.2,99.5,451.4,94.5,449.3,84.5z M410.9,71.1
		c1.9-2.3,19.8-10.5,21.4-9.9c1.7,0.7,6.9,17.3,9.4,30.2c1.1,5.4,1.8,10,1.7,10c0,0,0,0-0.1,0c-0.7,0.2-4.8,1.4-9.6,2.7
		c-5.3,1.5-10.1,2.7-10.7,2.7c-2,0-9.7-18.1-12.2-28.8c-0.4-1.8-0.7-3-0.7-4C410,72.6,410.2,71.9,410.9,71.1z M286.1,50.4
		c-7.8-1.9-17.7-3.4-24.4-3.8l-4.5-0.3l0.1,1l0.3,5.5c0.4,7.8,2,20.8,2.8,22.1c0.7,1.1-0.5,1.2,12.1-1.2c19-3.6,18.9-3.5,19.9-14.7
		l0.6-6l0.1-1L286.1,50.4z M285.7,62.3L285.7,62.3c-0.1,2.4-0.6,2.8-2.3,3.5c-5.3,2-17.6,3.8-18.3,2.7c-0.4-0.6-0.9-4.9-1.1-9.5
		l-0.4-7.4l0-1l7.4,0.7c4.1,0.4,9,1,10.9,1.4c3.5,0.7,3.5,0.8,3.8,6.4C285.6,60.4,285.7,61.5,285.7,62.3z M280.1,90.8
		c-10.3,0-24.4,2.1-25,3.6c-0.1,0.2-0.1,0.7-0.1,1.4c0.2,5.4,2.6,23.9,3.4,25.2c0.3,0.5,1.9,0.7,3.5,0.3c1.6-0.3,7.2-0.9,12.4-1.3
		c7.4-0.5,9.5-1,9.9-2.3c0.7-2.3,2.5-19,2.5-23.4l0-2.8v-1H280.1z M279.6,102.1c0,2-0.3,4.3-0.8,5.8c-0.9,2.9-1.7,3.7-4.2,4.3
		c-4.9,1-10.7,0.7-11.4-0.5c-0.4-0.6-0.9-4-1.2-7.5c-0.1-1.2-0.2-2.2-0.2-3.1c-0.1-4.5,1.3-4.6,10.2-4.7l7.2-0.1l0.3,4
		C279.6,100.8,279.7,101.4,279.6,102.1z M182.5,74.5c-1.5-2-13.8-4.3-28.6-5.3l-10.2-0.7V82c0,0.9,0,1.8,0,2.6c0,0.8,0,1.6,0,2.4
		c0,0.4,0,0.7,0,1.1c0,0.3,0,0.7,0,1c0.3,9.9,1.4,15.7,3.5,20.3c0.9,1.9,2.2,3.3,2.8,3.1c0.6-0.2,9.5-3.2,19.8-6.6
		c10.3-3.4,19.1-6.8,19.7-7.4c0-0.1,0.1-0.1,0.1-0.3v0C190.2,95.5,184.8,77.5,182.5,74.5z M180.7,94.9
		C180.7,94.9,180.7,94.9,180.7,94.9c-0.3,2.1-2.8,2.9-13.2,6.3c-5.9,1.9-10.9,3.5-11.2,3.5c-1.8,0-5.4-16.3-5.5-25.1
		c0-0.2,0-0.4,0-0.5c0-3.8,0.3-4.4,2.6-5c3.8-1,17.6,0.5,20.1,2.1c2.2,1.4,6.1,10.4,7.1,16.3C180.7,93.6,180.8,94.3,180.7,94.9z
		 M69.5,52.3c-4.9-1.1-19.6-2.5-26.1-2.5h-6.8l0.2,1l0.3,1.8c0.3,1.5,0.8,6.4,1.2,10.8c0.4,4.4,1.1,8.8,1.6,9.9
		c0.8,1.4,1.7,1.7,4.2,1.3c1.7-0.3,8.4-1.3,14.8-2.3l11.7-1.8l0.6-3.5c0.3-1.9,0.6-5.6,0.6-8.4V58C71.8,53.4,71.5,52.7,69.5,52.3z
		 M65.6,59.9L65.6,59.9c0,0.3,0,0.4,0,0.6c-0.3,3.6-0.5,3.8-5.3,5c-2.8,0.7-7.8,1.6-11.3,1.9c-5.7,0.6-6.3,0.5-6.3-1.3
		c0-1-0.3-4.3-0.7-7.3l-0.5-4.4l-0.1-1l9.8,0.7C64,55.1,65.8,55.7,65.6,59.9z M449.3,84.5c-4.2-21.1-8.1-33.7-10.2-33.7
		c-3.8,0-30.6,12.5-36.4,16.9l-2.5,1.9l0.3,0.8l2.1,6.1c4,11.5,12,29.5,14.6,32.9l2.5,3.2l6.2-1.9c5.2-1.6,21.2-4.9,24-4.9
		c0.5,0,1.3-0.9,1.9-2c0.2-0.3,0.3-0.9,0.3-1.6v-0.1C452.2,99.5,451.4,94.5,449.3,84.5z M410.9,71.1c1.9-2.3,19.8-10.5,21.4-9.9
		c1.7,0.7,6.9,17.3,9.4,30.2c1.1,5.4,1.8,10,1.7,10c0,0,0,0-0.1,0c-0.7,0.2-4.8,1.4-9.6,2.7c-5.3,1.5-10.1,2.7-10.7,2.7
		c-2,0-9.7-18.1-12.2-28.8c-0.4-1.8-0.7-3-0.7-4C410,72.6,410.2,71.9,410.9,71.1z M69.5,52.3c-4.9-1.1-19.6-2.5-26.1-2.5h-6.8l0.2,1
		l0.3,1.8c0.3,1.5,0.8,6.4,1.2,10.8c0.4,4.4,1.1,8.8,1.6,9.9c0.8,1.4,1.7,1.7,4.2,1.3c1.7-0.3,8.4-1.3,14.8-2.3l11.7-1.8l0.6-3.5
		c0.3-1.9,0.6-5.6,0.6-8.4V58C71.8,53.4,71.5,52.7,69.5,52.3z M65.6,59.9L65.6,59.9c0,0.3,0,0.4,0,0.6c-0.3,3.6-0.5,3.8-5.3,5
		c-2.8,0.7-7.8,1.6-11.3,1.9c-5.7,0.6-6.3,0.5-6.3-1.3c0-1-0.3-4.3-0.7-7.3l-0.5-4.4l-0.1-1l9.8,0.7C64,55.1,65.8,55.7,65.6,59.9z
		 M182.5,74.5c-1.5-2-13.8-4.3-28.6-5.3l-10.2-0.7V82c0,0.9,0,1.8,0,2.6c0,0.8,0,1.6,0,2.4c0,0.4,0,0.7,0,1.1c0,0.3,0,0.7,0,1
		c0.3,9.9,1.4,15.7,3.5,20.3c0.9,1.9,2.2,3.3,2.8,3.1c0.6-0.2,9.5-3.2,19.8-6.6c10.3-3.4,19.1-6.8,19.7-7.4c0-0.1,0.1-0.1,0.1-0.3v0
		C190.2,95.5,184.8,77.5,182.5,74.5z M180.7,94.9C180.7,94.9,180.7,94.9,180.7,94.9c-0.3,2.1-2.8,2.9-13.2,6.3
		c-5.9,1.9-10.9,3.5-11.2,3.5c-1.8,0-5.4-16.3-5.5-25.1c0-0.2,0-0.4,0-0.5c0-3.8,0.3-4.4,2.6-5c3.8-1,17.6,0.5,20.1,2.1
		c2.2,1.4,6.1,10.4,7.1,16.3C180.7,93.6,180.8,94.3,180.7,94.9z M280.1,90.8c-10.3,0-24.4,2.1-25,3.6c-0.1,0.2-0.1,0.7-0.1,1.4
		c0.2,5.4,2.6,23.9,3.4,25.2c0.3,0.5,1.9,0.7,3.5,0.3c1.6-0.3,7.2-0.9,12.4-1.3c7.4-0.5,9.5-1,9.9-2.3c0.7-2.3,2.5-19,2.5-23.4
		l0-2.8v-1H280.1z M279.6,102.1c0,2-0.3,4.3-0.8,5.8c-0.9,2.9-1.7,3.7-4.2,4.3c-4.9,1-10.7,0.7-11.4-0.5c-0.4-0.6-0.9-4-1.2-7.5
		c-0.1-1.2-0.2-2.2-0.2-3.1c-0.1-4.5,1.3-4.6,10.2-4.7l7.2-0.1l0.3,4C279.6,100.8,279.7,101.4,279.6,102.1z M286.1,50.4
		c-7.8-1.9-17.7-3.4-24.4-3.8l-4.5-0.3l0.1,1l0.3,5.5c0.4,7.8,2,20.8,2.8,22.1c0.7,1.1-0.5,1.2,12.1-1.2c19-3.6,18.9-3.5,19.9-14.7
		l0.6-6l0.1-1L286.1,50.4z M285.7,62.3L285.7,62.3c-0.1,2.4-0.6,2.8-2.3,3.5c-5.3,2-17.6,3.8-18.3,2.7c-0.4-0.6-0.9-4.9-1.1-9.5
		l-0.4-7.4l0-1l7.4,0.7c4.1,0.4,9,1,10.9,1.4c3.5,0.7,3.5,0.8,3.8,6.4C285.6,60.4,285.7,61.5,285.7,62.3z M449.3,84.5
		c-4.2-21.1-8.1-33.7-10.2-33.7c-3.8,0-30.6,12.5-36.4,16.9l-2.5,1.9l0.3,0.8l2.1,6.1c4,11.5,12,29.5,14.6,32.9l2.5,3.2l6.2-1.9
		c5.2-1.6,21.2-4.9,24-4.9c0.5,0,1.3-0.9,1.9-2c0.2-0.3,0.3-0.9,0.3-1.6v-0.1C452.2,99.5,451.4,94.5,449.3,84.5z M410.9,71.1
		c1.9-2.3,19.8-10.5,21.4-9.9c1.7,0.7,6.9,17.3,9.4,30.2c1.1,5.4,1.8,10,1.7,10c0,0,0,0-0.1,0c-0.7,0.2-4.8,1.4-9.6,2.7
		c-5.3,1.5-10.1,2.7-10.7,2.7c-2,0-9.7-18.1-12.2-28.8c-0.4-1.8-0.7-3-0.7-4C410,72.6,410.2,71.9,410.9,71.1z M286.1,50.4
		c-7.8-1.9-17.7-3.4-24.4-3.8l-4.5-0.3l0.1,1l0.3,5.5c0.4,7.8,2,20.8,2.8,22.1c0.7,1.1-0.5,1.2,12.1-1.2c19-3.6,18.9-3.5,19.9-14.7
		l0.6-6l0.1-1L286.1,50.4z M285.7,62.3L285.7,62.3c-0.1,2.4-0.6,2.8-2.3,3.5c-5.3,2-17.6,3.8-18.3,2.7c-0.4-0.6-0.9-4.9-1.1-9.5
		l-0.4-7.4l0-1l7.4,0.7c4.1,0.4,9,1,10.9,1.4c3.5,0.7,3.5,0.8,3.8,6.4C285.6,60.4,285.7,61.5,285.7,62.3z M280.1,90.8
		c-10.3,0-24.4,2.1-25,3.6c-0.1,0.2-0.1,0.7-0.1,1.4c0.2,5.4,2.6,23.9,3.4,25.2c0.3,0.5,1.9,0.7,3.5,0.3c1.6-0.3,7.2-0.9,12.4-1.3
		c7.4-0.5,9.5-1,9.9-2.3c0.7-2.3,2.5-19,2.5-23.4l0-2.8v-1H280.1z M279.6,102.1c0,2-0.3,4.3-0.8,5.8c-0.9,2.9-1.7,3.7-4.2,4.3
		c-4.9,1-10.7,0.7-11.4-0.5c-0.4-0.6-0.9-4-1.2-7.5c-0.1-1.2-0.2-2.2-0.2-3.1c-0.1-4.5,1.3-4.6,10.2-4.7l7.2-0.1l0.3,4
		C279.6,100.8,279.7,101.4,279.6,102.1z M182.5,74.5c-1.5-2-13.8-4.3-28.6-5.3l-10.2-0.7V82c0,0.9,0,1.8,0,2.6c0,0.8,0,1.6,0,2.4
		c0,0.4,0,0.7,0,1.1c0,0.3,0,0.7,0,1c0.3,9.9,1.4,15.7,3.5,20.3c0.9,1.9,2.2,3.3,2.8,3.1c0.6-0.2,9.5-3.2,19.8-6.6
		c10.3-3.4,19.1-6.8,19.7-7.4c0-0.1,0.1-0.1,0.1-0.3v0C190.2,95.5,184.8,77.5,182.5,74.5z M180.7,94.9
		C180.7,94.9,180.7,94.9,180.7,94.9c-0.3,2.1-2.8,2.9-13.2,6.3c-5.9,1.9-10.9,3.5-11.2,3.5c-1.8,0-5.4-16.3-5.5-25.1
		c0-0.2,0-0.4,0-0.5c0-3.8,0.3-4.4,2.6-5c3.8-1,17.6,0.5,20.1,2.1c2.2,1.4,6.1,10.4,7.1,16.3C180.7,93.6,180.8,94.3,180.7,94.9z
		 M69.5,52.3c-4.9-1.1-19.6-2.5-26.1-2.5h-6.8l0.2,1l0.3,1.8c0.3,1.5,0.8,6.4,1.2,10.8c0.4,4.4,1.1,8.8,1.6,9.9
		c0.8,1.4,1.7,1.7,4.2,1.3c1.7-0.3,8.4-1.3,14.8-2.3l11.7-1.8l0.6-3.5c0.3-1.9,0.6-5.6,0.6-8.4V58C71.8,53.4,71.5,52.7,69.5,52.3z
		 M65.6,59.9L65.6,59.9c0,0.3,0,0.4,0,0.6c-0.3,3.6-0.5,3.8-5.3,5c-2.8,0.7-7.8,1.6-11.3,1.9c-5.7,0.6-6.3,0.5-6.3-1.3
		c0-1-0.3-4.3-0.7-7.3l-0.5-4.4l-0.1-1l9.8,0.7C64,55.1,65.8,55.7,65.6,59.9z"/>
	<path class="st2" d="M610.3,117.3c-1.5,1.4-6.2,4.8-11.7,8.6c-6.7,4.6-14.9,10.5-18.1,13.1c-3.2,2.7-6.1,4.8-6.5,4.8
		c-0.4,0-5.1-3.6-10.6-8c-14.7-11.7-33.5-25-35.5-25c-2,0-4.8,3.6-11.1,14c-3.5,5.8-5,7.4-6.5,7.2c-3.8-0.6-31.6-8.3-35.5-9.9
		c-1.6-0.6-2.7-1.1-3-1.9c0.5-1.8,3.3-5.1,9.4-12.3c11.9-14.1,16.7-20.3,16.7-21.7c0-0.1-0.1-0.2-0.2-0.3c0.1-0.3,0.2-0.5,0.2-0.7
		c0-0.7-6.4-6.2-14.3-12.3c-7.9-6.1-14.9-11.7-15.5-12.6c-0.1-0.1-0.1-0.2-0.2-0.2c0.6-0.8,2.6-1.6,7.2-3.3c12-4.3,20.8-7,25.9-7.7
		l4.4-0.6l3.2,5.3c1.8,2.9,4.9,7,7.1,9.1l3.9,3.8l6.4-6.7c7.4-7.7,19.8-18.3,28.5-24.4l6.1-4.2l10.4,2.6c13.9,3.5,22.3,6,24.1,7.2
		c-1.1,1.4-4.8,4.5-9.4,8c-15.7,11.8-38.8,32.3-38.8,34.5c0,0.1,0.1,0.2,0.3,0.3c-0.2,0.3-0.3,0.5-0.3,0.6c0,0.4,4.2,2.7,9.3,5
		C571.4,97,605.7,114.3,610.3,117.3z"/>
	<path class="st2" d="M470,74.4c-7.8-6.8-17.3-15.9-17.3-16.7c0-0.1,0.1-0.2,0.4-0.4c-0.2-0.3-0.4-0.5-0.4-0.6
		c0-0.4,2.4-1.5,5.3-2.4c10.2-3.2,13.2-4.5,13.7-5.9c-0.6-3.1-5.8-11.5-8.3-13.1c-4.1-2.7-26.6-3.9-47.4-2.6
		c-26.1,1.7-26.4,1.8-31.4,13.9c-2.3,5.5-3,8-3.1,12.6c0,0.3,0,0.6,0,0.9c0,0.2,0,0.4,0,0.6c0.1,6.4,2.8,30.4,4.8,43.2l0.6,3.8h10.9
		c8.6,0,11-0.4,10.8,3.2c0.2,1.6-0.7,4.4-1.9,9.2c-2.3,9.2-3.1,10.3-7.3,10.7c-1,0.1-1.7,0.2-2.1,0.3c0.2,0.2,0.4,0.5,0.8,0.8
		c1.4,1.4,2.8,1.7,6.4,1.2c2.6-0.3,16.5-1.2,31-2c14.5-0.8,26.8-1.8,27.3-2.1c0.2-0.1,0.3-0.2,0.4-0.3c-0.5-0.6-1.7-1.1-3.5-1.5
		c-1.7-0.3-3-1-3-1.4c0-0.1,0.1-0.3,0.3-0.6c-0.2-0.1-0.3-0.3-0.3-0.4c0-0.4,4.1-5.6,9-11.5l9-10.7V78.5L470,74.4z M451.8,104.7
		c-0.6,1.1-1.4,2-1.9,2c-2.8,0-18.7,3.3-24,4.9l-6.2,1.9l-2.5-3.2c-2.6-3.4-10.6-21.5-14.6-32.9l-2.4-6.8l0.3-0.2l-0.3-0.8l2.5-1.9
		c5.7-4.4,32.6-16.9,36.4-16.9c2.1,0,5.9,12.7,10.2,33.7c2,10,2.8,15,2.8,17.6v0.1C452.1,103.5,452,104.3,451.8,104.7z"/>
	<path class="st2" d="M396.9,114.7l-0.5,3.2c-0.8,5.3-1.2,5.8-4,5.8c-1.3,0-11,1.6-21.7,3.5c-10.7,1.9-22.6,4.1-26.6,4.9l-7.2,1.4
		l-0.6-2.3c-0.8-3.3-1.3-6.3-1.3-9.1c0-3.5,0.8-6.8,2.2-10.2c1.4-3.5,2.6-7.1,2.6-7.9c0-0.1,0-0.2-0.1-0.4c0.1-0.3,0.1-0.5,0.1-0.6
		c0-0.8-1.6-2.9-3.6-4.6l-3.6-3.1l-0.4-10c-0.1-1.8-0.1-3.3-0.2-4.7c0-5,0.8-8,3.3-16.6c1.9-6.5,2.9-10,2.8-12.4
		c0.2-3.5-1.4-4.7-5.3-7.4l-4.1-2.8l0.5-5.6c0.3-3.6,0.6-10.5,0.6-15.4v-1l0-7.9l7.8,0.7c4.3,0.4,12.2,1.2,17.6,1.8l9.8,1.2
		l-0.6,15.1c-0.9,21.5-3.4,67.3-4.2,76.3l-0.6,7.3h0.1l-0.1,1H396.9z"/>
	<path class="st2" d="M314.4,94.6c-6.6-3.6-12.2-7.1-12.4-7.6c0-0.1,0.1-0.3,0.4-0.6c-0.2-0.2-0.3-0.3-0.4-0.4
		c-0.2-0.6,4.1-3.9,9.6-7.3c5.5-3.5,10.6-7.5,11.5-8.9c0.8-1.4,2.4-6.1,3.5-10.3l1.8-6.9l-6.5-5.7c-8-7.1-18.8-15.5-21.9-17.1
		c-1.8-0.9-6-0.9-18.5,0c-20.7,1.5-47.5,4.4-48.5,5.4c-0.4,0.4-0.9,13.6-1.1,29.3c0,0.5,0,1,0,1.5c0,0.5,0,1,0,1.4
		c0,0.4,0,0.8,0,1.2c0,1.3,0,2.5,0,3.7c0,0.3,0,0.7,0,1c0,1,0,1.9,0,2.8c0,2.5,0,4.6,0,6.5c0,0.7,0,1.3,0,1.9c0,0.3,0,0.6,0,0.8
		c0,0.5,0,1,0,1.4c0.2,6.9,0.7,10.4,1.9,16.2c1.2,5.7,1.7,9.7,1.7,12.8c0,0,0,0.1,0,0.2c0.1,4.3-0.9,7-3.1,10.2
		c-1.8,2.6-2.6,5.2-2.6,7.9v3l11.8-0.6c6.5-0.3,25.2-1.6,41.7-2.7c16.7-1.2,31.1-2.6,32.4-3.3c2.9-1.4,13.6-20.2,14.1-24.6
		C329.6,103.1,327.8,101.9,314.4,94.6z M286.8,91.7l0,2.8v1c0,4.4-1.8,21-2.5,23.3c-0.4,1.3-2.5,1.8-9.9,2.3
		c-5.2,0.4-10.8,0.9-12.4,1.3c-1.6,0.3-3.2,0.2-3.5-0.3c-0.9-1.5-3.6-22.7-3.4-26.2c0-0.7,0-1.2,0.1-1.4c0.6-1.6,14.8-3.6,25-3.6
		h6.7V91.7z M293,53l-0.6,7c-1,11.2-0.9,11.1-19.9,14.7c-12.6,2.4-11.4,2.3-12.1,1.2c-0.8-1.3-2.4-14.3-2.8-22.1l-0.3-6.5h0.1
		l-0.1-1l4.5,0.3c6.7,0.4,16.6,2,24.4,3.8L293,52V53L293,53z"/>
	<path class="st2" d="M199.4,16.7c-0.1,0.8-0.4,1.8-0.8,3.3l-1.4,4.3l-11,0.2c-6,0.1-17.5,0.7-25.5,1.3c-8,0.6-15.5,1.3-16.8,1.6
		c-1.9,0.5-2.5-0.1-3.8-3.2c-0.8-1.9-1.2-3.5-1.3-4.8v0c0.2-2.1,1.4-3.4,3.9-3.9c6.2-1.3,54.7-1.5,56.1-0.1
		C199.2,15.7,199.4,16.1,199.4,16.7z"/>
	<path class="st2" d="M223.8,100.7C221,85.5,209.2,52.1,205.2,48c-2.3-2.3-2.4-2.3-29.4-2.3c-27.2,0-39.7,1-43.6,3.5
		c-2.2,1.4-5.1,8.5-5.3,13c0.2,1.8,1.2,6.1,2.4,10l2.4,7.7l-0.3,0.2l0.3,0.8l-3,2.5c-1.6,1.4-3.8,3.2-4.9,4.1
		c-2.2,1.9-3.9,9.4-4,17.7v0.4c0.1,4.3,0.6,5.4,3.6,8.9c2,2.3,6.1,6.2,9.1,8.7c6.4,5.2,2.8,4.8,37.8,3.5c35.2-1.4,51-3.3,53.6-6.6
		c0.7-0.8,1.1-3.6,1.1-7.1C224.9,109.3,224.5,104.7,223.8,100.7z M189.6,99.4c-0.5,0.7-9.4,4-19.7,7.4c-10.3,3.4-19.2,6.4-19.8,6.6
		c-0.6,0.2-1.9-1.2-2.8-3.1c-2.4-5-3.4-11.5-3.6-23.3c0-0.8,0-1.6,0-2.4c0-0.9,0-1.7,0-2.6V68.5l10.2,0.7c14.8,1,27,3.3,28.6,5.3
		c2.3,3,7.6,20.9,7.2,23.7v0C189.8,98.8,189.7,99.3,189.6,99.4z"/>
	<path class="st2" d="M87.1,88.8h23.4l4.6-5c2.6-2.8,4.3-5.4,4.6-6.9c-0.8-6.5-13.2-46.3-15.3-49c-0.9-1.1-3.4-1.3-12.6-0.7
		c-20.8,1.2-64.5,6.4-73.4,8.7l-3.8,1l0.6,9.7c0.8,13.1,6.1,65,7.7,75.5c0.8,5.5,1.6,7.8,2.8,8.1c4,1.2,13.9,2.6,17.9,2.6
		c2.6,0,3.7-0.1,4-0.7c0,0,0,0,0-0.1c-0.3-1-2.9-9.5-5.7-19c-2.9-9.5-5-17.9-4.6-18.8c0,0,0,0,0,0c-0.1-0.5-0.1-0.8,0-0.9
		c0.4-1.1,2-1.5,5.9-1.5h5.3l6.8,13.8c3.8,7.6,10,19.5,13.9,26.6l7,12.9l4.1-0.7c2.3-0.4,8.2-1.3,13.1-2.1c5-0.8,11.3-1.4,14.2-1.4
		c2.6,0,5-0.4,5.6-0.8c-1.5-3-11-12.7-30.3-30.7c-10.5-9.8-19.1-18.2-19.1-18.7c0-0.1,0.2-0.1,0.6-0.2c-0.4-0.4-0.6-0.7-0.6-0.8
		C63.8,89.1,74.3,88.8,87.1,88.8z M58.9,73.1c-6.4,1-13.1,2-14.8,2.3c-2.4,0.4-3.4,0.1-4.2-1.3c-0.5-1-1.3-5.5-1.6-9.8
		c-0.4-4.4-0.9-9.2-1.2-10.8l-0.5-2.8h0.2l-0.2-1h6.8c6.5,0,21.2,1.4,26.1,2.5c2,0.5,2.3,1.1,2.2,5.7v1c0,2.9-0.3,6.8-0.6,8.8
		l-0.6,3.5L58.9,73.1z"/>
</g>
</svg>
