<?xml version="1.0" encoding="utf-8"?>
<!-- Generator: Adobe Illustrator 16.0.0, SVG Export Plug-In . SVG Version: 6.00 Build 0)  -->
<!DOCTYPE svg PUBLIC "-//W3C//DTD SVG 1.1//EN" "http://www.w3.org/Graphics/SVG/1.1/DTD/svg11.dtd">
<svg version="1.1" xmlns="http://www.w3.org/2000/svg" xmlns:xlink="http://www.w3.org/1999/xlink" x="0px" y="0px"
	 width="862.921px" height="152.677px" viewBox="0 0 862.921 152.677" enable-background="new 0 0 862.921 152.677"
	 xml:space="preserve">
<g id="Capa_1">
	<path fill="#DA0000" d="M861.537,11.119c0.865-1.16,1.384-2.594,1.384-4.152c0-3.843-3.115-6.958-6.958-6.958
		c0,0-38.251,0-45.251,0c-7.5,0-23,26.332-23,26.332s-14-26.332-21.001-26.332C732.545,0.01,371.378,0,345.712,0
		c-10.75,0-17,9.341-17,9.341s-6.125-9.332-17-9.332c-16,0-276,0-276,0c-12.5,0-23.667,7.502-25,20.333L0,132.343
		c0,20.334,16.714,20.334,16.714,20.334s16,0,43.333,0c27.54,0,27.173-22.668,27.665-26.002c0.513-3.477,2.025-19.582,2.025-19.582
		l56.391,45.568h153c5.917,0.016,14.583-9.32,14.583-9.32s7.5,9.336,15,9.336h430c13.563,0,23-24.336,23-24.336
		s10.625,24.336,22.999,24.336c0,0,27.001,0,38.001,0c0.143,0,0.275-0.013,0.414-0.018c0.113,0.004,0.223,0.018,0.336,0.018
		c5.661,0,10.25-4.59,10.25-10.25c0-2.299-1.044-4.266-2.043-6.122c-0.008-0.015-32.957-62.964-32.957-62.964l42.829-62.214
		L861.537,11.119z"/>
	<path opacity="0.5" d="M296.712,50.341h-94c-7.974,0-14.477,6.228-14.953,14.081l-0.047,0.044l-6,62.875c0,8.284,7.716,13,16,13h95
		c7.783,0,14.18-5.929,14.925-13.516l0.075-0.068l4-61.416C311.712,57.057,304.996,50.341,296.712,50.341z M279.463,112.81
		l-0.042,0.036c-0.406,4.142-3.898,6.378-8.146,6.378h-51.402c-4.521,0-8.188-2.666-8.188-7.188l2.82-32.866l0.026-0.023
		c0.26-4.288,3.81-7.687,8.162-7.687h50.857c4.522,0,8.188,3.666,8.188,8.188L279.463,112.81z"/>
	<path opacity="0.5" d="M304.712,14.341h-103c-6.075,0-11,4.925-11,11s4.925,11,11,11h103c6.075,0,11-4.925,11-11
		S310.787,14.341,304.712,14.341z"/>
	<path opacity="0.5" d="M839.462,20.841c0-3.59-2.91-6.5-6.5-6.5h-11c-2.132,0-3.019,1.031-4.204,2.617l-34.046,47.133
		L758.163,18.39c-1.377-2.417-1.971-4.049-4.951-4.049l-27.75-1c-4.419,0-8,2.582-8,7c0,1.463,0.399,2.83,1.085,4.01l27.665,49.99
		l-38.006,53.728c-0.784,1.237-1.244,2.7-1.244,4.272c0,4.418,3.581,8,8,8h26.75c2.718,0,5.115-1.357,6.561-3.43l35.439-50.57
		l29.03,50.245c1.036,2.216,3.278,3.755,5.886,3.755h9c3.59,0,5.5-2.91,5.5-6.5c0-1.148-0.3-2.225-0.822-3.16l-29.094-53.84
		l35.044-52.237C839.013,23.542,839.462,22.245,839.462,20.841z"/>
	<path opacity="0.5" d="M685.712,14.341h-94c-7.974,0-14.477,6.228-14.953,14.081l-0.047,0.044l-6,63.875c0,8.284,6.716,15,15,15h95
		c7.783,0,14.18-5.929,14.925-13.516l0.075-0.068l5-64.416C700.712,21.057,693.996,14.341,685.712,14.341z M668.464,77.81
		l-0.042,0.036c-0.406,4.142-3.897,7.378-8.146,7.378h-50.402c-4.521,0-8.188-3.666-8.188-8.188l2.82-32.867l0.026-0.023
		c0.26-4.287,3.81-7.687,8.162-7.687h49.856c4.522,0,8.188,3.666,8.188,8.188L668.464,77.81z"/>
	<path opacity="0.5" d="M682.212,119.341h-125.75c-8.667,0-7.75-3.125-7.75-6l9.75-86.5c0-6.352-5.148-11.5-11.5-11.5h-30.25
		c-6.875,0-12.58,4.958-13.764,11.492l-0.01,0.008l-11.115,98.665l-0.111,1.835c0,7.938,7.17,12.418,14.973,12.948l0.012,0.014
		h0.263c0.251,0.013,0.499,0.038,0.753,0.038c0.252,0,0.498-0.025,0.746-0.037l174.754,0.037c6.352,0,11.5-5.148,11.5-11.5
		S688.563,119.341,682.212,119.341z"/>
	<path opacity="0.5" d="M451.712,125.341c-5.173-1.99-10.226-4.018-15.225-6c-13.336,0-32.275,0-32.275,0
		c-6.352,0-10.5,3.148-10.5,9.5s5.148,11.5,11.5,11.5c0,0,21.375,0,46.125,0s22.563-14.75,22.563-14.75l0.001-0.012
		C466.423,128.376,457.914,127.822,451.712,125.341z"/>
	<path opacity="0.5" d="M473.868,13.375l-0.031-0.033c0,0-122.925,2-123.125,2c-8.266,0-15,6.475-15.456,14.627l-0.044,0.04
		l-9,96.833c0,8.561,7.939,13.5,16.5,13.5l24.659-0.033c7.931-0.334,14.307-6.613,14.792-14.504l1.87-21.749v-2l5.887-68.464
		c0-5.25,3.167-5.25,5.25-5.25c2.775,0,37.1,0,59.458,0c6.75,0,8.023,1.262,7.75,6.922c-0.261,5.406-1.667,7-3.667,8.167
		L402.894,69.08l0.001,0.013c-3.807,1.875-6.433,4.781-6.433,9.312c0,5.445,3.788,9.995,8.87,11.186l44.505,11.752
		c0,0,4.875,1.125,4.875,6c0,5.188-1.458,10-5.5,10c6.202,2.48,20.906-14.219,26.688-20c0-2.539-1.458-4.73-3.58-5.801
		l-36.608-11.199l39.145-13.327c1.988-0.695,3.5-2.402,3.909-4.507l3.324-38.737c0.075-0.466,0.123-0.942,0.123-1.429
		C482.212,17.592,478.531,13.711,473.868,13.375z"/>
	<path opacity="0.5" d="M42.337,15.341l-0.033,0.03c-0.198-0.007-0.393-0.03-0.592-0.03c-8.266,0-15,6.475-15.456,14.627
		l-0.044,0.04l-10,96.833c0,8.561,7.939,13.5,16.5,13.5l25.659-0.033c7.931-0.334,14.307-6.613,14.792-14.504
		c0,0,4.441-66.465,6.206-98.829C78.436,46.038,77.268,65,76.712,83.341c-0.003,0.078,4.208-48.75,4.208-48.75
		c0-5.25,3.167-5.25,5.25-5.25c2.775,0,39.1,0,61.458,0c6.75,0,6.023,4.34,5.75,10c-0.261,5.406-1.667,8-3.667,9.167L95.271,72.073
		c-4.316,2.043-7.309,6.425-7.309,11.518c0,4.223,2.061,7.955,5.223,10.275l56.396,42.701c1.801,1.547,4.046,2.759,6.464,2.759
		c4.126,0,7.52-3.124,7.952-7.135l0.048-0.038l0.444-9.643c0.637,0.411-0.982-19.777-0.982-19.777l-43.399-16.851l1.121-1.296
		l46.627-13.961c1.988-0.695,3.5-2.402,3.909-4.507l3.346-42.5C175.171,23.201,42.337,15.341,42.337,15.341z"/>
</g>
<g id="Capa_2">
	<linearGradient id="SVGID_1_" gradientUnits="userSpaceOnUse" x1="430.3364" y1="12.3413" x2="430.3364" y2="137.3418">
		<stop  offset="0" style="stop-color:#EFFFFF"/>
		<stop  offset="0.25" style="stop-color:#EFFFFF"/>
		<stop  offset="0.4" style="stop-color:#E0FFFF"/>
		<stop  offset="0.5" style="stop-color:#BBFFFF"/>
		<stop  offset="0.75" style="stop-color:#BBFFFF"/>
		<stop  offset="0.9" style="stop-color:#87DDFF"/>
	</linearGradient>
	<path fill="url(#SVGID_1_)" d="M317.712,23.341c0,6.075-4.925,11-11,11h-103c-6.075,0-11-4.925-11-11s4.925-11,11-11h103
		C312.787,12.341,317.712,17.266,317.712,23.341z M560.462,23.841c0-6.352-5.148-11.5-11.5-11.5h-30.25
		c-6.875,0-12.58,4.958-13.764,11.492l-0.01,0.008l-11.115,98.665l-0.111,1.835c0,7.938,7.17,12.418,14.973,12.948l0.012,0.014
		h0.263c0.251,0.013,0.499,0.038,0.753,0.038c0.252,0,0.498-0.025,0.746-0.037l174.754,0.037c6.352,0,11.5-5.148,11.5-11.5
		s-6.148-9.5-12.5-9.5h-125.75c-8.667,0-7.75-3.125-7.75-6 M175.212,21.341c0-4.75-3.681-8.63-8.344-8.967l-0.031-0.033h-122.5
		l-0.033,0.03c-0.198-0.007-0.393-0.03-0.592-0.03c-8.266,0-15,6.475-15.456,14.627l-0.044,0.04l-10,96.833
		c0,8.561,7.939,13.5,16.5,13.5l25.659-0.033c7.931-0.334,14.307-6.613,14.792-14.504l7.757-90.213c0-5.25,3.167-5.25,5.25-5.25
		c2.775,0,39.1,0,61.458,0c6.75,0,6.023,4.34,5.75,10c-0.261,5.406-1.667,8-3.667,9.167L97.271,70.073
		c-4.316,2.043-7.309,6.425-7.309,11.518c0,4.223,2.061,7.955,5.223,10.275l56.396,42.701c1.801,1.547,4.046,2.759,6.464,2.759
		c4.126,0,7.52-3.124,7.952-7.135l0.048-0.038l1.042-22.619c0-2.538-1.458-4.73-3.58-5.801l-43.795-17.393l48.145-14.715
		c1.988-0.695,3.5-2.402,3.909-4.507l3.346-42.5C175.171,22.201,175.212,21.776,175.212,21.341z M484.212,21.341
		c0-4.75-3.681-8.63-8.344-8.967l-0.031-0.033h-122.5l-0.033,0.03c-0.198-0.007-0.393-0.03-0.592-0.03
		c-8.266,0-15,6.475-15.456,14.627l-0.044,0.04l-9,96.833c0,8.561,7.939,13.5,16.5,13.5l24.659-0.033
		c7.931-0.334,14.307-6.613,14.792-14.504l7.757-90.213c0-5.25,3.167-5.25,5.25-5.25c2.775,0,37.1,0,59.458,0
		c6.75,0,8.023,1.262,7.75,6.922c-0.261,5.406-1.667,7-3.667,8.167L404.894,68.08l0.001,0.013c-3.807,1.875-6.433,4.781-6.433,9.312
		c0,5.445,3.788,9.995,8.87,11.186l44.505,11.752c0,0,4.875,1.125,4.875,6c0,5.188-1.458,10-5.5,10c-2.5,0-45,0-45,0
		c-6.352,0-10.5,3.148-10.5,9.5s5.148,11.5,11.5,11.5c0,0,21.375,0,46.125,0s22.563-14.75,22.563-14.75l2-26.25
		c0-2.539-1.458-4.73-3.58-5.801l-36.608-11.199l39.145-13.327c1.988-0.695,3.5-2.402,3.909-4.507l3.324-38.737
		C484.164,22.304,484.212,21.829,484.212,21.341z M785.712,84.341l28.03,49.245c1.036,2.216,3.278,3.755,5.886,3.755h8
		c3.59,0,6.5-2.91,6.5-6.5c0-1.148-0.3-2.225-0.822-3.16l-28.094-52.84l36.044-52.237c0.757-1.063,1.206-2.359,1.206-3.763
		c0-3.59-2.91-6.5-6.5-6.5h-11c-2.132,0-3.019,1.031-4.204,2.617l-34.046,47.133L761.163,16.39
		c-1.377-2.417-1.971-4.049-4.951-4.049h-28.75c-4.419,0-8,2.582-8,7c0,1.463,0.399,2.83,1.085,4.01l27.665,49.99l-37.006,51.728
		c-0.784,1.237-1.244,2.7-1.244,4.272c0,4.418,3.581,8,8,8h26.75c2.718,0,5.115-1.357,6.561-3.43L785.712,84.341z M313.712,62.341
		l-4,61.416l-0.075,0.068c-0.745,7.587-7.142,13.516-14.925,13.516h-95c-8.284,0-16-4.716-16-13l6-62.875l0.047-0.044
		c0.477-7.854,6.979-14.081,14.953-14.081h94C306.996,47.341,313.712,54.057,313.712,62.341z M283.739,77.647
		c0-4.522-3.666-8.188-8.188-8.188h-50.857c-4.352,0-7.902,3.399-8.162,7.687l-0.026,0.023l-2.82,32.867
		c0,4.522,3.666,7.188,8.188,7.188h51.402c4.249,0,7.74-2.236,8.146-6.378l0.042-0.036L283.739,77.647z M702.712,27.341l-5,64.416
		l-0.075,0.068c-0.745,7.587-7.142,13.516-14.925,13.516h-95c-8.284,0-15-6.716-15-15l6-63.875l0.047-0.044
		c0.477-7.854,6.979-14.081,14.953-14.081h94C695.996,12.341,702.712,19.057,702.712,27.341z M672.739,42.647
		c0-4.522-3.666-8.188-8.188-8.188h-49.856c-4.353,0-7.902,3.399-8.162,7.687l-0.026,0.023l-2.82,32.867
		c0,4.522,3.666,8.188,8.188,8.188h50.402c4.249,0,7.74-3.236,8.146-7.378l0.042-0.037L672.739,42.647z"/>
	<g>
		<path opacity="0.75" fill="#1E1EC6" d="M461.581,134.568"/>
		<path opacity="0.75" fill="#FFFFFF" d="M690.546,133.621l-176.088-0.038c-0.248,0.013-0.494,0.038-0.746,0.038
			c-0.254,0-0.502-0.025-0.753-0.039h-0.263l-0.012-0.014c-7.803-0.529-14.973-5.01-14.973-12.947l0.111-1.836l11.115-95.385
			l0.01-1.287c0.578-3.193,2.242-4.726,4.589-6.771c-3.908,1.929-6.787,5.625-7.589,10.05l-0.01-1.271l-11.115,97.665l-0.111,1.836
			c0,7.938,7.17,12.418,14.973,12.947l0.012,0.014h0.263c0.251,0.014,0.499,0.039,0.753,0.039c0.252,0,0.498-0.025,0.746-0.038
			l176.088,0.038"/>
		<path fill="#FFFFFF" d="M154.581,134.255L98.185,91.553c-3.162-2.32-5.223-4.844-5.223-9.066c0-8.251,3.1-8.722,4.212-10.61l0,0
			c-3.716,2.227-6.212,5.276-6.212,9.924c0,4.223,2.061,7.746,5.223,10.066l59.396,44.701"/>
		<path fill="#FFFFFF" d="M60.962,133.308l-22.25,0.033c-8.561,0-15.5-3.939-15.5-12.5l9-96l0.044-0.04
			c0.192-3.433,1.507-6.56,3.571-9.039c-3.205,2.67-5.323,6.601-5.571,11.039l-0.044,0.04l-11,96c0,8.561,7.939,13.5,16.5,13.5
			l24.25-0.033c11.75,0,12.479-9.134,13.75-13.553C71.783,125.606,68.061,133.308,60.962,133.308z"/>
		<path opacity="0.75" fill="#FFFFFF" d="M407.593,87.383c-3.821-2.184-5.881-5.536-5.881-9.886c0-4.531,2.626-8.438,6.433-10.312
			l1.936-1.03l-4.188,1.924l0.001,0.013c-3.807,1.875-6.433,4.781-6.433,9.312C399.462,82.58,402.889,85.942,407.593,87.383z"/>
		<path opacity="0.75" fill="#FFFFFF" d="M454.712,116.427c3.542-0.31,6.869-1.92,6.869-8.086c0-5-4.923-7.559-6-7.905
			c1.256,0.88,2.512,4.481,2.512,6.995C458.093,111.263,456.756,114.792,454.712,116.427z"/>
		<path opacity="0.75" fill="#FFFFFF" d="M456.337,133.341c-24.75,0-46.125,0-46.125,0c-6.352,0-10.5-1.666-10.5-6.826
			c0-4.248,0.862-8.056,3.991-9.454c-4.324,1.005-6.991,4.032-6.991,9.12c0,6.352,5.148,10.16,11.5,10.16c0,0,22.375,0,47.125,0
			c14.322,0,17.616-7.938,19.542-12.1C471.95,127.458,467.278,133.341,456.337,133.341z"/>
		<path opacity="0.75" fill="#FFFFFF" d="M370.462,133.308l-22.75,0.033c-8.561,0-16.5-4.939-16.5-13.5l9-96.833l0.044-0.04
			c0.124-2.224,0.729-3.314,1.691-5.19c-2.136,2.502-3.496,4.689-3.691,8.19l-0.044,0.04l-9,96.833c0,8.561,7.939,13.5,16.5,13.5
			l22.75-0.033c7.013-0.296,12.803-5.244,14.386-11.841C380.775,129.515,376.364,133.059,370.462,133.308z"/>
		<path opacity="0.75" fill="#FFFFFF" d="M297.712,133.341h-93c-8.284,0-14-4.716-14-13l6-60.875c0,0,1.313-5.842,3.021-8.12
			c-3.411,2.565-7.699,6.545-7.974,11.076l-0.047-1.956l-6,62.875c0,8.284,7.716,13,16,13h93"/>
		<path opacity="0.75" fill="#FFFFFF" d="M687.045,100.341h-95.333c-8.284,0-15-5.716-15-14l6-62.88l0.047-0.044
			c0.184-3.022,1.266-5.798,2.974-8.076c-3.411,2.565-5.698,6.545-5.974,11.076l-0.047,0.044l-6,62.88c0,8.284,6.716,14,15,14
			h95.333"/>
		<g opacity="0.75">
			<path fill="#FFFFFF" d="M748.245,70.594l1.55-2.253L722.13,19.175c-0.526-0.906-0.879-1.924-1.018-3.009
				c-0.417,0.874-0.65,1.876-0.65,2.999c0,1.463,0.399,2.83,1.085,4.01L748.245,70.594z"/>
			<path fill="#FFFFFF" d="M721.962,134.341c-4.419,0-8-3.369-8-7.788c0-0.542,0.072-1.064,0.177-1.575l-0.933,1.303
				c-0.784,1.237-1.244,2.699-1.244,4.272c0,4.419,3.581,5.788,8,5.788h23.375c2.718,0,4.267,0.071,5.712-2l0,0H721.962z"/>
		</g>
	</g>
</g>
</svg>
