<?xml version="1.0" encoding="utf-8"?>
<!-- Generator: Adobe Illustrator 24.0.2, SVG Export Plug-In . SVG Version: 6.00 Build 0)  -->
<svg version="1.1" id="Layer_1" xmlns="http://www.w3.org/2000/svg" xmlns:xlink="http://www.w3.org/1999/xlink" x="0px" y="0px"
	 viewBox="0 0 914 230" style="enable-background:new 0 0 914 230;" xml:space="preserve">
<style type="text/css">
	.st0{fill:#E2271E;}
	.st1{fill-rule:evenodd;clip-rule:evenodd;fill:#FEFDFD;}
	.st2{fill-rule:evenodd;clip-rule:evenodd;fill:#FEFCFC;}
	.st3{fill:none;}
	.st4{fill-rule:evenodd;clip-rule:evenodd;fill:#E2281F;}
	.st5{fill-rule:evenodd;clip-rule:evenodd;fill:#E22920;}
	.st6{fill-rule:evenodd;clip-rule:evenodd;fill:#E2271F;}
	.st7{fill-rule:evenodd;clip-rule:evenodd;fill:#E2271E;}
	.st8{fill-rule:evenodd;clip-rule:evenodd;fill:#FDF9F9;}
</style>
<g id="vX6rUq.tif">
	<g>
		<path class="st0" d="M3,67c0-6.7,0-13.3,0-20c2.6-3.3,6.1-4.5,10.2-5.2c11.6-1.9,23.2-4.8,34.8-6.3c33-4.2,66.1-7.8,99.1-11.7
			c4.5-0.5,7.2,1.2,8.9,5.3c3.2,7.8,6.8,15.5,10,23.4c2.5,6.1,4.6,12.4,7.2,19.3c0.8-2,1.4-3.2,1.7-4.4c1.4-7,6-9.5,12.7-10.4
			c35.7-4.7,71.5-7.4,107.6-5.3c7.1,0.4,11.5,2.8,13.9,9.6c2.8,7.6,6.2,15,9.7,23.4c1-15,2-29,2.8-42.9c0.3-4.9,2.6-7.1,7.3-7.7
			c31.7-4.4,63.5-7.2,95.6-6.5c3.3,0.1,7,1.3,9.6,3.1c8.4,5.9,16.4,12.3,24.2,18.3c0-11.7,0.1-23.6-0.1-35.5
			c-0.1-3.9,0.6-7.2,3.8-9.6c5,0,10,0,15,0c0.7,0.3,1.3,0.9,2,0.9c16.4,2,32.7,4,49.1,6c6.2,0.8,7.3,2.2,6.8,8.6
			c-1,14.1-2.4,28.2-3.3,42.3c-2.1,33.4-4.1,66.8-6.1,100.3c0,0.6,0.2,1.2,0.3,1.7c5.3,0,10.4,0,15.8,0c-5.4-27.1-5.9-54-6.2-81
			c0-2.6-0.1-5.5,0.9-7.9C541,63.4,546,52,550.9,40.6c1.8-4.1,5.1-5.8,9.4-6.4c34-4.6,68-4.6,102.2-1.2c10.9,1.1,17.9,6.1,22.6,15.3
			c2.9,5.7,5.4,11.7,8.1,17.4c10.5-3.4,21-6.9,31.5-10.4c4.1-1.4,7.2-0.3,10.1,3.2c5.8,6.9,11.9,13.4,19.2,21.4
			c1.7-2.5,2.6-4.6,4.2-6c16-14.5,32.1-29.1,48.4-43.3c2.3-2,6.5-3.4,9.4-3c23.9,4,46.8,11.5,68.3,22.9c1.7,0.9,3.7,2.7,4,4.3
			c0.2,1.1-2.1,3-3.6,4.1c-17.2,12.8-34.7,25.2-51.6,38.4c-8.4,6.6-15.8,14.5-24.1,22.3c2.3,1.3,3.8,2.3,5.4,3.1
			c29.3,16.2,60.2,28.8,91.7,40.2c2.5,0.9,4.8,2.6,7.1,4c0,0.3,0,0.7,0,1c-20.5,23.3-43.1,44.2-70,60c-1,0-2,0-3,0
			c-25.6-17.6-51.2-35.2-76.9-52.9c-0.4,0.5-1.3,1.4-1.8,2.4c-6.9,11.4-13.8,22.7-20.6,34.2c-3.1,5.3-4.6,6.1-10.5,4
			c-3-1-6-2-8.9-3.3c-12.9-6.1-25.7-12.3-38.7-18.5c-1,2.4-2.4,5.2-3.4,8.2c-2,5.8-5.9,8.2-12.1,8.1c-32.5-0.2-65-0.1-97.4,0
			c-4.1,0-7.4-1.1-10.2-4.2c-1-1.1-3.2-1.9-4.6-1.7c-10,1.6-20,3.6-30,5.3c-15.3,2.5-30.5,5-45.8,7.4c-5.7,0.9-7.9-0.9-8.8-6.7
			c-0.3-1.8-0.3-3.7-0.5-5.5c-0.5-3.9-1-7.8-1.7-13.2c-2.6,5-4.5,8.5-6.3,12c-2.2,4.4-5.6,6.8-10.7,6.6c-3.3-0.1-6.7,0.3-10,0.3
			c-39.1-0.1-78.3-0.2-117.4-0.4c-4.5,0-6.7-2.3-6.7-6.8c0-3.2,0-6.5,0-10.1c-5.6,5-10.5,9.7-15.9,13.8c-2.1,1.6-5.1,2.8-7.7,2.8
			c-29.1,0.2-58.3,0.3-87.4,0c-3.2,0-7.1-1.4-9.5-3.5c-14.1-12.4-27.8-25.3-41.7-37.9c-3.8-3.4-4.4-7.5-3.3-12.3
			c1.2-5.3,2.2-10.6,3.3-16.4c-14.8,0.8-29,1.6-44.1,2.4c1.6,1.5,2.5,2.3,3.3,3c24.5,22.3,49.1,44.5,73.6,66.9
			c1.5,1.4,2.1,3.7,3.2,5.6c-1.9,0.8-3.6,2.2-5.6,2.5c-26.1,3.9-52.4,5-78.7,5c-6.8,0-10.6-2.6-13.5-8.7
			c-11-23.3-22.5-46.3-33.8-69.5c-1.2-2.5-2.4-4.5-5.5-2.4c0.2,1.2,0.4,2.4,0.7,3.5c6.6,22.7,13.1,45.4,19.7,68c2,6.9,1.7,7.7-5.6,7
			c-14.9-1.4-29.8-3.1-44.7-4.7c-13.8-1.5-13-1.4-13.7-15.4C8,158.5,6,114.3,4,70C3.9,69,3.3,68,3,67z M789.3,123.2
			c23-25.9,48-48.5,76-68.8c-16.1-5.4-32.2-10-48.4-14.4c-1.4-0.4-3.6,0.4-4.8,1.4c-6.4,5.1-12.8,10.2-18.8,15.7
			c-13.5,12.6-26.8,25.4-40.9,38.8c-7.8-8.2-15.9-16.5-23.8-25c-2.2-2.4-3.9-3.4-7.2-2.2c-6.7,2.6-13.6,4.4-20.2,7
			C693,79,685,82.7,675.8,86.6c16.8,14.4,32.4,27.7,48.1,41.1c-13.5,16.2-26.8,32.4-40.4,48.7c15.2,11.3,31.2,19.7,48.3,25.6
			c9.9-15.3,19.6-30.3,29.5-45.4c1.5,1.1,2.2,1.6,2.9,2.1c24.4,17.1,48.9,34.1,73.2,51.3c3.4,2.4,5.6,2.2,8.6-0.4
			c6.1-5.1,12.6-9.8,18.7-15c8.4-7.2,16.5-14.8,25.3-22.8C854.6,158,821,143.4,789.3,123.2z M23.6,206c12.6,1.6,24.5,3,36.6,4.5
			c-6.1-25.3-12-49.7-18-74.7c6.5-0.3,11.9-0.3,17.1-0.9c3.7-0.4,5.6,1,7.4,4.2c12.9,23.1,26,46.1,38.9,69.2c1.7,3,3.5,4.3,7,4.1
			c8.5-0.4,17-0.2,25.5-0.5c9.2-0.4,18.4-1.1,27.6-1.7c0.2-0.4,0.4-0.9,0.5-1.3c-25.9-24.9-51.9-49.8-78.2-75c1.7-0.2,3-0.5,4.3-0.6
			c20.3-1.4,40.5-2.9,60.8-4.3c5.1-0.4,18.3-12.6,18.8-17.6c0.1-0.8-0.1-1.7-0.3-2.5c-5.4-23.9-13-47.1-23-69.5
			c-0.6-1.3-2.9-2.8-4.3-2.7c-10.5,0.6-21,1.1-31.4,2.6C82,43.7,50.9,48.5,19.8,52.9c-3.5,0.5-4.6,1.6-4.5,5.4
			c1.1,21.8,1.6,43.6,2.9,65.4C19.7,150.9,21.7,178.2,23.6,206z M329,196.7c0.9,0.2,1.2,0.4,1.5,0.4c38.8,0,77.6,0.1,116.4-0.1
			c1.6,0,4-1.8,4.7-3.3c6.7-14.6,13-29.4,19.6-44.1c1.4-3.1,0.5-4.7-2.2-6.4c-13.3-7.9-26.5-15.9-40-24.1c2.7-1.4,5.4-3,8.3-4.2
			c15-6,24.2-16.9,27.7-32.6c0.1-0.5,0.2-1,0.4-1.4c2.5-4.7,1.4-8.3-2.9-11.4c-11.9-8.8-23.5-17.9-35.4-26.8
			c-1.4-1.1-3.7-1.5-5.5-1.4c-20.5,0.9-40.9,1.8-61.3,3.2c-8.9,0.6-17.7,2.3-26.7,3.6c-0.3,7-0.8,13.5-1,20
			c-0.7,26.7-4.8,53.4,1.2,80.1c2,9,2.3,18.2-4,26.2c-0.5,0.7-0.7,1.9-0.7,2.8C329,183.5,329,190,329,196.7z M248.4,197.2
			c13.1-0.5,26.6-1,40.1-1.6c2.2-0.1,4.8-0.7,6.4-2c10.9-8.5,19.8-18.8,26.2-31.1c0.7-1.4,1.2-3.2,1.1-4.7
			c-2.8-31.4-10.4-61.6-24.2-90.1c-0.8-1.6-3.3-3.3-5.1-3.4c-33.9-2-67.6,0.1-101.2,3.9c-1.3,0.1-3.2,1-3.5,2
			c-3.6,12-11.4,23.3-5.4,36.8c2.4,5.4,0.7,10-3.3,14c-1.8,1.8-3.1,4-5,5.6c-4,3.3-5.5,7.7-6.4,12.5c-1,5.9-2.4,11.7-3.2,17.7
			c-0.2,1.8,0.4,4.4,1.7,5.6c11.4,10.4,23,20.7,34.8,30.8c1.6,1.4,4.1,2.2,6.3,2.3C221,196.1,234.5,196.6,248.4,197.2z M671.5,185.6
			c-4.9-4.8-5-6.8-1-12.4c2.9-4.2,7.3-8.3,8-12.9c2.5-16.1,3.8-32.3,5.3-48.5c0.2-1.9-1.1-4.4-2.5-5.9c-5.2-5.4-10.7-10.5-16-15.8
			c-4.7-4.7-4.2-8,1.7-11.3c3.2-1.8,6.6-3.1,9.7-5.1c1.1-0.7,2.3-3.1,1.9-4c-3.1-6.6-6.3-13.1-10.1-19.3c-1.1-1.7-4-2.9-6.3-3.2
			c-32.1-3.4-64.1-3.5-96.2-0.1c-1.5,0.2-3.7,0.7-4.3,1.7c-6.5,11-13.5,22.2-13.5,35.4c0,17.8,0.9,35.6,2,53.4
			c0.6,8.9,2.4,17.6,3.6,26.1c1.3,0.3,1.6,0.4,1.9,0.4c4.3,0,8.7,0,13,0.1c6.5,0.1,8.9,2.4,8.4,8.9c-0.6,7.9-1.7,15.7-2.5,23.8
			c1.8,0.1,3.7,0.2,5.5,0.2c25.8,0,51.6,0,77.4-0.1c10.7,0,10.7-0.1,13.9-10.4C671.4,186.3,671.4,185.9,671.5,185.6z M470.9,15.2
			c0,14.8-0.1,28.6,0.1,42.4c0.1,2.5,1.2,5.6,3,7.3c4.2,4.2,5.5,8.8,3.1,14.1c-5.3,12-5.4,24.5-4,37.1c0.5,4.6,0.4,9.3,1.1,13.9
			c0.2,1.7,1.4,3.7,2.8,4.7c8.6,5.9,9.2,7.4,6.2,17.3c-1.4,4.6-3,9.2-4.4,13.8c-0.5,1.7-1.3,3.6-1.2,5.3c1.1,10.9,2.3,21.8,3.6,33
			c6.7-1.1,12.9-2.1,19.1-3.1c20.4-3.3,40.7-6.6,61.1-10c1.3-0.2,3.4-1.1,3.5-1.9c1-5.1,1.4-10.3,2.2-16.1c-17.7,0-34.7,0-52.3,0
			c2.6-51.2,5.2-101.9,7.8-153.4C505.5,18.1,488.3,16.7,470.9,15.2z M697.6,120.6c-0.8,7-1.5,13.1-2.2,19.2c0.3,0.3,0.5,0.5,0.8,0.8
			c3.5-3.9,7-7.8,10.7-11.9C703.7,125.9,700.9,123.4,697.6,120.6z M462.5,126.5c-0.3-5.2-0.5-9.6-0.7-14.6
			c-4.3,2.6-8.1,4.8-12.5,7.4C453.9,121.8,457.9,124,462.5,126.5z"/>
		<path class="st1" d="M789.3,123.2c31.6,20.2,65.3,34.8,100.5,48.7c-8.8,8-16.9,15.5-25.3,22.8c-6,5.2-12.6,9.9-18.7,15
			c-3,2.5-5.2,2.8-8.6,0.4c-24.3-17.2-48.7-34.3-73.2-51.3c-0.7-0.5-1.3-1-2.9-2.1c-9.8,15.2-19.6,30.2-29.5,45.4
			c-17.1-5.8-33.2-14.2-48.3-25.6c13.6-16.4,26.9-32.5,40.4-48.8c-15.6-13.4-31.3-26.8-48.1-41.1c9.1-3.9,17.2-7.6,25.4-10.8
			c6.6-2.6,13.6-4.4,20.2-7c3.3-1.3,5-0.2,7.2,2.2c7.9,8.6,16,16.9,23.8,25c14.1-13.4,27.4-26.2,40.9-38.8
			c6-5.5,12.4-10.6,18.8-15.7c1.2-1,3.4-1.8,4.8-1.4c16.1,4.4,32.2,9,48.4,14.4C837.4,74.7,812.4,97.3,789.3,123.2z"/>
		<path class="st2" d="M23.6,206c-1.9-27.8-3.9-55.1-5.4-82.3c-1.2-21.8-1.8-43.6-2.9-65.4c-0.2-3.7,0.9-4.9,4.5-5.4
			c31.1-4.4,62.2-9.2,93.4-13.5c10.4-1.4,20.9-1.9,31.4-2.6c1.4-0.1,3.7,1.4,4.3,2.7c10,22.4,17.6,45.6,23,69.5
			c0.2,0.8,0.4,1.7,0.3,2.5c-0.5,5-13.7,17.2-18.8,17.6c-20.3,1.4-40.5,2.8-60.8,4.3c-1.3,0.1-2.6,0.4-4.3,0.6
			c26.3,25.2,52.2,50.1,78.1,75c-0.2,0.4-0.4,0.9-0.5,1.3c-9.2,0.6-18.4,1.3-27.6,1.7c-8.5,0.3-17,0.1-25.5,0.5
			c-3.5,0.2-5.3-1.1-7-4.1c-12.9-23.1-26-46.1-38.9-69.2c-1.8-3.2-3.7-4.6-7.4-4.2c-5.3,0.6-10.6,0.6-17.1,0.9
			c6,25,11.9,49.4,18,74.7C48,209,36.2,207.6,23.6,206z M103.2,107.5c0-12.3,0-24,0-36.5c-20-0.8-39.4-1.7-59.5-2.5
			c1.1,15.3,2.1,29.3,3.1,43.5C66.1,110.4,84.3,109,103.2,107.5z"/>
		<path class="st2" d="M329,196.7c0-6.7,0-13.2,0-19.6c0-1,0.1-2.1,0.7-2.8c6.3-8,6.1-17.3,4-26.2c-6-26.7-1.9-53.4-1.2-80.1
			c0.2-6.5,0.6-12.9,1-20c9-1.2,17.8-3,26.7-3.6c20.4-1.4,40.9-2.2,61.3-3.2c1.8-0.1,4.1,0.4,5.5,1.4c11.9,8.8,23.6,17.9,35.4,26.8
			c4.3,3.2,5.4,6.7,2.9,11.4c-0.2,0.4-0.3,0.9-0.4,1.4c-3.5,15.7-12.6,26.7-27.7,32.6c-2.9,1.1-5.6,2.8-8.3,4.2
			c13.5,8.2,26.7,16.2,40,24.1c2.8,1.6,3.6,3.2,2.2,6.4c-6.6,14.7-12.9,29.5-19.6,44.1c-0.7,1.5-3.1,3.3-4.7,3.3
			c-38.8,0.2-77.6,0.1-116.4,0.1C330.2,197,329.9,196.9,329,196.7z M413.5,124.5c-16.9,3.8-32.6,7.2-47.5,10.6c0,13.7,0,26.7,0,39.3
			c13.8,0,26.7,0,40.1,0C408.6,157.6,411,141.5,413.5,124.5z M365.4,108.4c0.7,0.5,0.9,0.6,1,0.6c16.2-3.4,32.4-6.8,48.6-10.3
			c0.7-0.2,1.7-1.2,1.8-2c1.2-7.8,2.2-15.7,3.3-24.2c-17.6-2.6-34.8-5.2-52.5-7.9C366.8,79.9,366.1,94.3,365.4,108.4z"/>
		<path class="st2" d="M248.4,197.2c-13.9-0.6-27.4-1.1-40.9-1.8c-2.2-0.1-4.7-0.9-6.3-2.3c-11.7-10.1-23.3-20.3-34.8-30.8
			c-1.3-1.1-1.9-3.8-1.7-5.6c0.8-5.9,2.2-11.8,3.2-17.7c0.9-4.9,2.4-9.2,6.4-12.5c1.9-1.6,3.2-3.8,5-5.6c4-4,5.7-8.6,3.3-14
			c-6-13.4,1.8-24.8,5.4-36.8c0.3-1,2.3-1.9,3.5-2c33.6-3.8,67.4-5.9,101.2-3.9c1.8,0.1,4.3,1.8,5.1,3.4
			c13.8,28.5,21.4,58.7,24.2,90.1c0.1,1.5-0.4,3.3-1.1,4.7c-6.5,12.3-15.4,22.5-26.2,31.1c-1.7,1.3-4.2,1.9-6.4,2
			C275,196.2,261.5,196.7,248.4,197.2z M275.1,165.7c0.7-23.8-0.3-46.6-5.8-69.1c-0.7-3-2.2-3.6-4.9-3.4c-15.4,0.7-30.9,1.4-46.4,2
			c-3.4,0.1-4.5,1.7-5,4.8c-2.2,13.9-4.8,27.8-6.8,41.8c-1.1,7.8-1.5,15.7-2.3,24C228,165.7,251.2,165.7,275.1,165.7z"/>
		<path class="st2" d="M671.5,185.6c-0.1,0.3-0.1,0.7-0.2,1c-3.2,10.3-3.2,10.4-13.9,10.4c-25.8,0.1-51.6,0.1-77.4,0.1
			c-1.8,0-3.6-0.2-5.5-0.2c0.9-8,1.9-15.9,2.5-23.8c0.5-6.5-1.9-8.8-8.4-8.9c-4.3-0.1-8.7,0-13-0.1c-0.3,0-0.6-0.1-1.9-0.4
			c-1.2-8.5-3-17.2-3.6-26.1c-1.1-17.8-2.1-35.6-2-53.4c0-13.2,7-24.4,13.5-35.4c0.6-1.1,2.8-1.6,4.3-1.7
			c32.1-3.4,64.1-3.3,96.2,0.1c2.2,0.2,5.2,1.5,6.3,3.2c3.8,6.2,7,12.7,10.1,19.3c0.4,0.9-0.8,3.3-1.9,4c-3,2-6.5,3.4-9.7,5.1
			c-6,3.3-6.5,6.6-1.7,11.3c5.3,5.3,10.9,10.3,16,15.8c1.4,1.5,2.7,4,2.5,5.9c-1.5,16.2-2.8,32.5-5.3,48.5c-0.7,4.6-5.1,8.7-8,12.9
			C666.5,178.8,666.6,180.8,671.5,185.6z M644.8,76.9c-0.8-0.2-1.3-0.5-1.7-0.5c-18.5,0-37,0-55.4-0.1c-3.4,0-3.5,2.1-3.8,4.6
			c-2.7,27.4-0.5,54.5,3.2,81.6c0.5,3.4,2.6,3.4,5,3.4c15.8,0,31.6-0.1,47.5,0.1c3.9,0,5.2-1.4,5.5-5.1c0.8-11.6,2.1-23.2,2.7-34.9
			C648.4,109.5,647.8,93,644.8,76.9z"/>
		<path class="st2" d="M470.9,15.2c17.4,1.5,34.6,2.9,51.6,4.4c-2.6,51.5-5.2,102.2-7.8,153.4c17.7,0,34.6,0,52.3,0
			c-0.7,5.8-1.2,11-2.2,16.1c-0.2,0.9-2.2,1.7-3.5,1.9c-20.3,3.4-40.7,6.7-61.1,10c-6.2,1-12.4,2-19.1,3.1
			c-1.2-11.2-2.5-22.1-3.6-33c-0.2-1.7,0.6-3.6,1.2-5.3c1.4-4.6,3.1-9.1,4.4-13.8c3-10,2.3-11.4-6.2-17.3c-1.4-0.9-2.5-3-2.8-4.7
			c-0.6-4.6-0.6-9.3-1.1-13.9c-1.3-12.7-1.3-25.1,4-37.1c2.3-5.3,1-9.8-3.1-14.1c-1.7-1.8-2.9-4.8-3-7.3
			C470.7,43.8,470.9,30,470.9,15.2z"/>
		<path class="st3" d="M697.6,120.6c3.3,2.8,6,5.3,9.2,8c-3.7,4.1-7.2,8-10.7,11.9c-0.3-0.3-0.5-0.5-0.8-0.8
			C696.1,133.7,696.8,127.6,697.6,120.6z"/>
		<path class="st3" d="M462.5,126.5c-4.6-2.5-8.6-4.7-13.2-7.2c4.3-2.6,8.1-4.8,12.5-7.4C462,116.9,462.2,121.3,462.5,126.5z"/>
		<path class="st4" d="M256.2,43c-18.7,1.6-37.5,3-56.2,4.8c-4.6,0.4-7.8-0.6-9.1-5.4c-1.9-7.2-4.2-14.3-5.9-21.6
			c-1.2-5.2,0.6-7.6,5.7-8.5c33.8-6,67.8-7.8,102-5c6.3,0.5,8.1,2.6,7.2,8.7c-1,7.4-2.5,14.7-3.9,22.1c-0.8,4.2-3.3,6.1-7.7,6
			c-10.6-0.2-21.3-0.1-32-0.1C256.2,43.7,256.2,43.3,256.2,43z M195.7,21.1c1.3,4.5,2.5,8.4,3.5,12.2c0.8,3.2,2.6,3.8,5.8,3.6
			c24.9-1.5,49.9-2.7,74.8-4c1.6-0.1,3.2,0,5,0c0.5-3,1-5.4,1.4-7.8c0.4-2.6,0.6-5.1,0.9-8C256.2,15,226.2,16.8,195.7,21.1z"/>
		<path class="st5" d="M103.2,107.5c-18.9,1.5-37.2,2.9-56.3,4.4c-1-14.2-2-28.2-3.1-43.5c20,0.8,39.5,1.7,59.5,2.5
			C103.2,83.5,103.2,95.2,103.2,107.5z M57.2,100.7c11.8-1,23.2-1.9,34.6-2.9c0-6.2,0-11.8,0-18.2c-12.3,0-24.4,0-36.6,0
			C55.9,86.4,56.5,93.3,57.2,100.7z"/>
		<path class="st5" d="M413.5,124.5c-2.5,17-4.9,33.1-7.5,49.9c-13.4,0-26.3,0-40.1,0c0-12.6,0-25.6,0-39.3
			C381,131.7,396.7,128.3,413.5,124.5z M375.2,164.7c6.6,0,12.8,0.1,18.9-0.1c1.1,0,3-1.3,3.2-2.2c1.4-7.9,2.4-15.9,3.6-24.3
			c-8.3,1.4-15.8,2.6-23.3,4.2c-1.3,0.3-3.1,2.4-3.1,3.7C374.4,152.2,374.9,158.3,375.2,164.7z"/>
		<path class="st5" d="M365.4,108.4c0.7-14,1.5-28.4,2.2-43.8c17.7,2.7,34.8,5.2,52.5,7.9c-1.1,8.5-2.1,16.4-3.3,24.2
			c-0.1,0.8-1.1,1.8-1.8,2c-16.2,3.5-32.4,6.9-48.6,10.3C366.2,109,366.1,108.8,365.4,108.4z M409.5,80.4c-11-1.7-21.7-3.3-33.1-5.1
			c-0.5,8-0.9,15.2-1.4,23c10.6-1.9,20.4-3.6,30.1-5.6c1.4-0.3,3-2.3,3.5-3.8C409.4,86.4,409.3,83.7,409.5,80.4z"/>
		<path class="st6" d="M275.1,165.7c-23.9,0-47.1,0-71.2,0c0.8-8.3,1.1-16.3,2.3-24c2-14,4.6-27.9,6.8-41.8c0.5-3,1.7-4.6,5-4.8
			c15.5-0.6,30.9-1.3,46.4-2c2.7-0.1,4.1,0.4,4.9,3.4C274.8,119.1,275.8,141.9,275.1,165.7z M264.9,155.1c-1.3-17.3-2.6-33.6-3.8-49
			c-12.9,0-24.4-0.1-35.9,0.1c-1.1,0-2.8,1.7-3.1,2.8c-1.2,5-2.1,10.1-2.8,15.2c-1.4,10.2-2.5,20.3-3.8,30.8
			C232.1,155.1,247.7,155.1,264.9,155.1z"/>
		<path class="st7" d="M644.8,76.9c3,16.2,3.6,32.6,2.8,49.1c-0.5,11.6-1.9,23.2-2.7,34.9c-0.3,3.7-1.6,5.1-5.5,5.1
			c-15.8-0.2-31.6-0.1-47.5-0.1c-2.4,0-4.5,0-5-3.4c-3.7-27.1-5.9-54.3-3.2-81.6c0.2-2.5,0.4-4.6,3.8-4.6c18.5,0.1,37,0.1,55.4,0.1
			C643.6,76.3,644,76.6,644.8,76.9z M635.6,87.7c-14,0-27.7,0-41.5,0c-2,21.8-0.2,42.9,2.1,63.9c0.1,1,1.7,2.7,2.6,2.7
			c11.6,0.2,23.2,0.1,35.2,0.1C637.4,132.3,637.8,110.3,635.6,87.7z"/>
		<path class="st8" d="M195.7,21.1c30.5-4.3,60.5-6.1,91.3-4.1c-0.3,2.8-0.5,5.4-0.9,8c-0.3,2.5-0.8,4.9-1.4,7.8c-1.7,0-3.4-0.1-5,0
			c-24.9,1.3-49.9,2.5-74.8,4c-3.2,0.2-5-0.4-5.8-3.6C198.2,29.5,197,25.7,195.7,21.1z"/>
		<path class="st3" d="M57.2,100.7c-0.7-7.4-1.3-14.3-2-21.1c12.2,0,24.3,0,36.6,0c0,6.5,0,12,0,18.2
			C80.4,98.8,69.1,99.7,57.2,100.7z"/>
		<path class="st3" d="M375.2,164.7c-0.3-6.4-0.8-12.5-0.7-18.7c0-1.3,1.8-3.5,3.1-3.7c7.5-1.6,15-2.8,23.3-4.2
			c-1.2,8.4-2.2,16.4-3.6,24.3c-0.2,0.9-2.1,2.1-3.2,2.2C387.9,164.8,381.8,164.7,375.2,164.7z"/>
		<path class="st3" d="M409.5,80.4c-0.3,3.3-0.1,6-0.9,8.4c-0.5,1.5-2.1,3.5-3.5,3.8c-9.7,2-19.5,3.7-30.1,5.6
			c0.5-7.8,0.9-14.9,1.4-23C387.8,77.1,398.6,78.7,409.5,80.4z"/>
		<path class="st3" d="M264.9,155.1c-17.2,0-32.8,0-49.2,0c1.3-10.5,2.4-20.7,3.8-30.8c0.7-5.1,1.6-10.2,2.8-15.2
			c0.3-1.2,2-2.8,3.1-2.8c11.5-0.2,23-0.1,35.9-0.1C262.3,121.5,263.6,137.8,264.9,155.1z"/>
	</g>
</g>
</svg>
