
<svg xmlns="http://www.w3.org/2000/svg" version="1.1" xmlns:xlink="http://www.w3.org/1999/xlink" preserveAspectRatio="none" x="0px" y="0px" width="1637px" height="395px" viewBox="0 0 1637 395">
<defs>
<g id="Symbol_10_0_Layer5_0_FILL">
<path fill="#FF0000" stroke="none" d="
M 46.65 -42.4
Q 41 -36.95 38.15 -26.5 36.85 9.6 42.65 26.7 46.35 33.55 54.15 39.1 76.05 37.35 104.65 38.25
L 121.8 17.55
Q 119.7 -5.95 114.65 -27.25 112.25 -35.75 105.15 -41.25 80.05 -44.25 46.65 -42.4
M 46.4 -35.25
Q 47.2 -37 48.9 -37.5 72.8 -39.05 102.3 -36.25
L 109.3 -28.5
Q 115.65 -7.2 118.3 16.85 107.45 28.3 99.3 34.75 71.95 32.95 54.4 35.1
L 47.3 25
Q 42.85 2.4 41.3 -23.5
L 46.4 -35.25
M 65.8 -20.15
Q 61.25 -19.35 59.55 -16.25
L 61.65 7.85
Q 68.85 15.05 75.55 15.35 84.55 13.15 89.3 8.1
L 87.15 -17.4
Q 84.4 -21.85 65.8 -20.15
M 63.9 -15
Q 64.6 -16.65 66.65 -16.4 81.1 -17 81.65 -15.75
L 82.65 8.35
Q 80.55 10.6 75.65 11.5 69.4 9.6 66.65 7.1 64.65 -4.4 63.9 -15 Z"/>

<path fill="#FFFFFF" stroke="none" d="
M 48.9 -37.5
Q 47.2 -37 46.4 -35.25
L 41.3 -23.5
Q 42.85 2.4 47.3 25
L 54.4 35.1
Q 71.95 32.95 99.3 34.75 107.45 28.3 118.3 16.85 115.65 -7.2 109.3 -28.5
L 102.3 -36.25
Q 72.8 -39.05 48.9 -37.5
M 59.55 -16.25
Q 61.25 -19.35 65.8 -20.15 84.4 -21.85 87.15 -17.4
L 89.3 8.1
Q 84.55 13.15 75.55 15.35 68.85 15.05 61.65 7.85
L 59.55 -16.25 Z"/>
</g>

<g id="Symbol_10_0_Layer4_0_FILL">
<path fill="#FF0000" stroke="none" d="
M 92.7 -23.4
Q 91.15 -21.85 92.05 -20.65 96.65 -17.5 101.65 -11.5 109.05 -3.25 116 0.6 106.1 11.9 96.8 27.85 96.35 28.5 96.8 30.1
L 139.55 40.75
Q 141.85 32.7 146.4 25.85 161 40.4 179.9 53.6
L 221.05 24.1
Q 222.25 22.15 219 19.8 215.7 17.4 166.3 -2.4 186 -17.6 210.9 -31.1 197 -39.75 184.6 -42.75 172.2 -45.75 170.55 -46.15 154.85 -33.45 142.4 -19.25
L 136.3 -30.5
Q 125.1 -30.55 92.7 -23.4
M 121.4 -0.4
L 100.15 -19.9
Q 117.4 -24.3 133.3 -25.15 135.95 -17.8 142.8 -13.25
L 144.3 -13.25
Q 154.1 -26.65 167.9 -39.5 187 -35.3 199.65 -29.9 178.45 -18 160.65 -1.15 170.25 5.45 184.8 10.45 196.95 16.4 209.15 22.7 194.5 31.3 179.8 43.85 163.8 32.55 146.05 18.2 141.1 25.6 136.5 34.7 124.95 31.45 102.9 26.45 112.15 11.95 121.4 1.35
L 121.4 -0.4 Z"/>

<path fill="#FFFFFF" stroke="none" d="
M 100.15 -19.9
L 121.4 -0.4 121.4 1.35
Q 112.15 11.95 102.9 26.45 124.95 31.45 136.5 34.7 141.1 25.6 146.05 18.2 163.8 32.55 179.8 43.85 194.5 31.3 209.15 22.7 196.95 16.4 184.8 10.45 170.25 5.45 160.65 -1.15 178.45 -18 199.65 -29.9 187 -35.3 167.9 -39.5 154.1 -26.65 144.3 -13.25
L 142.8 -13.25
Q 135.95 -17.8 133.3 -25.15 117.4 -24.3 100.15 -19.9 Z"/>
</g>

<g id="Symbol_10_0_Layer3_0_FILL">
<path fill="#FF0000" stroke="none" d="
M 0.4 -40.1
Q 0.85 -21.6 2.95 -2.55 4.5 26.2 8.15 37.35 40.1 31.2 53.9 32.7 56.9 31.15 57.9 29.6
L 60.15 18.95 58.8 17.45
Q 44.75 17.95 34.9 16.35 33.9 -8.3 34.9 -36.9 35 -38.65 32.7 -38.55 13.9 -38.55 0.4 -40.1
M 6.15 -35.4
Q 15.95 -33.9 29.55 -33.75 28.8 -4.85 30.55 20.7 43.65 20 53.05 20.7 53.7 27 51.15 29.1 35.15 29.65 11.3 32.55 8.6 19.55 8.2 5.35 5.1 -15.65 6.15 -35.4 Z"/>

<path fill="#FFFFFF" stroke="none" d="
M 29.55 -33.75
Q 15.95 -33.9 6.15 -35.4 5.1 -15.65 8.2 5.35 8.6 19.55 11.3 32.55 35.15 29.65 51.15 29.1 53.7 27 53.05 20.7 43.65 20 30.55 20.7 28.8 -4.85 29.55 -33.75 Z"/>
</g>

<g id="Symbol_10_0_Layer2_0_FILL">
<path fill="#FF0000" stroke="none" d="
M 1.85 -2.3
Q 3 -1.15 5.35 -2.2 7.7 -3.3 10.2 -6.15
L 11.8 -18.65
Q 10.75 -23.7 -10.7 -44.9 -56.4 -43.2 -66.2 -40.5 -68.75 -39.9 -69.15 -37.5 -67.35 -15.35 -69.35 -0.05 -71.35 15.25 -72.05 41.1 -70.8 43.35 -64.95 42.85 -50.9 39.95 2.7 39.45
L 12.2 15.35
Q 10.3 12.6 -7.05 1.5 -3.4 0.3 1.85 -2.3
M 5.55 -17.75
Q 5.55 -12.3 3.9 -9.3 -6.6 -5.5 -14.2 -1 -14.8 -0.25 -14.3 1.4 -3.3 9.45 4.2 17.2 0.95 24.95 -2.3 34.85 -36.85 35.5 -64.6 38.35
L -62.3 -35.55
Q -58.25 -38.05 -15.05 -40.55 -2.6 -29.6 5.55 -17.75
M -26.95 24.45
Q -19.85 16.6 -20.8 14.7 -26.9 6.85 -29.8 5.35 -36.2 4.25 -45.2 5.55 -46.95 5.95 -47.8 7.95 -46.8 15.5 -46.4 26.75
L -26.95 24.45
M -27.7 15.7
L -31.45 20.2
Q -39.65 22.35 -40.95 20.2
L -42.2 9.95
Q -36.85 9 -32.45 9.95 -30.15 11.05 -27.7 14.1
L -27.7 15.7
M -48.1 -22.25
Q -49.5 -20.6 -47.7 -8.3
L -36 -6.85
Q -33.15 -7.15 -29.9 -16.65 -32.3 -20.95 -37 -24.5 -42.15 -24.8 -48.1 -22.25
M -43.65 -10.8
L -44.45 -19
Q -43.75 -20.25 -42.05 -20.9
L -37.7 -20.9 -35.05 -17.15
Q -35.9 -13.7 -39.6 -10.3
L -43.65 -10.8 Z"/>

<path fill="#FFFFFF" stroke="none" d="
M 3.9 -9.3
Q 5.55 -12.3 5.55 -17.75 -2.6 -29.6 -15.05 -40.55 -58.25 -38.05 -62.3 -35.55
L -64.6 38.35
Q -36.85 35.5 -2.3 34.85 0.95 24.95 4.2 17.2 -3.3 9.45 -14.3 1.4 -14.8 -0.25 -14.2 -1 -6.6 -5.5 3.9 -9.3
M -47.7 -8.3
Q -49.5 -20.6 -48.1 -22.25 -42.15 -24.8 -37 -24.5 -32.3 -20.95 -29.9 -16.65 -33.15 -7.15 -36 -6.85
L -47.7 -8.3
M -20.8 14.7
Q -19.85 16.6 -26.95 24.45
L -46.4 26.75
Q -46.8 15.5 -47.8 7.95 -46.95 5.95 -45.2 5.55 -36.2 4.25 -29.8 5.35 -26.9 6.85 -20.8 14.7 Z"/>
</g>

<g id="Symbol_10_0_Layer1_0_FILL">
<path fill="#FF0000" stroke="none" d="
M -75.2 -31.8
Q -108.3 -37.65 -139.85 -30.45 -150.05 -4.55 -148.45 21.7
L -132.45 37.6
Q -88.55 38.25 -64.85 31.95 -60 28.6 -61.85 18.95 -70.1 -7.45 -75.2 -31.8
M -142.55 -0.55
Q -140.6 -8.05 -136.1 -24.5 -133.65 -27.85 -122.45 -28.9 -111.3 -30 -100.5 -29.5 -89.75 -29.05 -80.85 -26.4
L -67.7 16.55
Q -66.55 24.55 -68.85 26.1 -97.1 34.05 -131.7 31.45
L -142.95 20.35
Q -144.5 6.9 -142.55 -0.55
M -125.05 -10.9
Q -127.2 -10.05 -127.7 -8 -126.65 10.5 -123.55 18.85 -120.75 20.2 -118.8 18.85 -109.55 14.75 -93.2 11.25 -91.8 11 -92.2 9.35
L -98.3 -6.5
Q -99 -7.7 -101.2 -8.5 -110.85 -10.5 -125.05 -10.9
M -121.55 -6.65
L -104.95 -5.5 -101.05 7.75 -118.8 13.6
Q -121.3 8.55 -121.55 -6.65
M -136.9 -47.85
Q -134.8 -41.35 -132.1 -37.65 -99.3 -40.85 -79.95 -38.65
L -76.55 -51.3
Q -78.55 -55.75 -134.95 -51.8 -136.8 -51.15 -136.9 -47.85
M -128.1 -41
Q -131 -46.1 -130.7 -49.15 -105 -51.65 -85.8 -50.25 -85.75 -45.65 -88.05 -42.5 -106.95 -43.2 -128.1 -41 Z"/>

<path fill="#FFFFFF" stroke="none" d="
M -136.1 -24.5
Q -140.6 -8.05 -142.55 -0.55 -144.5 6.9 -142.95 20.35
L -131.7 31.45
Q -97.1 34.05 -68.85 26.1 -66.55 24.55 -67.7 16.55
L -80.85 -26.4
Q -89.75 -29.05 -100.5 -29.5 -111.3 -30 -122.45 -28.9 -133.65 -27.85 -136.1 -24.5
M -127.7 -8
Q -127.2 -10.05 -125.05 -10.9 -110.85 -10.5 -101.2 -8.5 -99 -7.7 -98.3 -6.5
L -92.2 9.35
Q -91.8 11 -93.2 11.25 -109.55 14.75 -118.8 18.85 -120.75 20.2 -123.55 18.85 -126.65 10.5 -127.7 -8
M -130.7 -49.15
Q -131 -46.1 -128.1 -41 -106.95 -43.2 -88.05 -42.5 -85.75 -45.65 -85.8 -50.25 -105 -51.65 -130.7 -49.15 Z"/>
</g>

<g id="Symbol_10_0_Layer0_0_FILL">
<path fill="#FF0000" stroke="none" d="
M -136.6 -2.75
L -148.95 -47.35
Q -153.3 -46.85 -221.95 -38 -218.9 -8.45 -217.75 36.1 -201.75 38.3 -187.7 42.5 -187.35 34.5 -197.8 10.5 -197.25 9.95 -196.55 10.55 -193 16.1 -176.95 51.75 -155.9 45.25 -133.7 43
L -174.45 6.25 -148.1 9.4 -136.6 -2.75
M -153.85 -41.3
Q -148 -25.75 -142.2 -4.8
L -149.35 3.1
Q -177.45 2.15 -182.85 4.1
L -146.6 39.1 -174.85 43.35 -194.95 5.6
Q -198.95 3.75 -202.95 5.6
L -195.2 35.1 -210.7 32.1 -216.2 -35.3
Q -176.65 -41.8 -153.85 -41.3
M -200.45 -6.5
L -177.2 -11.65
Q -175.5 -16.9 -176.2 -20.5 -181.95 -25.15 -201.45 -25.85 -203.4 -10.05 -200.45 -6.5
M -198.05 -20.95
Q -184.5 -20.15 -180.95 -18.05 -180.3 -16.5 -180.95 -15
L -197.95 -11.75
Q -199.35 -12.85 -198.05 -20.95 Z"/>

<path fill="#FFFFFF" stroke="none" d="
M -142.2 -4.8
Q -148 -25.75 -153.85 -41.3 -176.65 -41.8 -216.2 -35.3
L -210.7 32.1 -195.2 35.1 -202.95 5.6
Q -198.95 3.75 -194.95 5.6
L -174.85 43.35 -146.6 39.1 -182.85 4.1
Q -177.45 2.15 -149.35 3.1
L -142.2 -4.8
M -177.2 -11.65
L -200.45 -6.5
Q -203.4 -10.05 -201.45 -25.85 -181.95 -25.15 -176.2 -20.5 -175.5 -16.9 -177.2 -11.65 Z"/>
</g>
</defs>

<g transform="matrix( 3.6923370361328125, 0, 0, 3.6923370361328125, 819.5,198.1) ">
<g transform="matrix( 1, 0, 0, 1, 0,0) ">
<use xlink:href="#Symbol_10_0_Layer5_0_FILL"/>
</g>

<g transform="matrix( 1, 0, 0, 1, 0,0) ">
<use xlink:href="#Symbol_10_0_Layer4_0_FILL"/>
</g>

<g transform="matrix( 1, 0, 0, 1, 0,0) ">
<use xlink:href="#Symbol_10_0_Layer3_0_FILL"/>
</g>

<g transform="matrix( 1, 0, 0, 1, 0,0) ">
<use xlink:href="#Symbol_10_0_Layer2_0_FILL"/>
</g>

<g transform="matrix( 1, 0, 0, 1, 0,0) ">
<use xlink:href="#Symbol_10_0_Layer1_0_FILL"/>
</g>

<g transform="matrix( 1, 0, 0, 1, 0,0) ">
<use xlink:href="#Symbol_10_0_Layer0_0_FILL"/>
</g>
</g>
</svg>
