<?xml version="1.0" encoding="UTF-8" standalone="no"?>
<!-- Created with Inkscape (http://www.inkscape.org/) -->

<svg
   xmlns:dc="http://purl.org/dc/elements/1.1/"
   xmlns:cc="http://creativecommons.org/ns#"
   xmlns:rdf="http://www.w3.org/1999/02/22-rdf-syntax-ns#"
   xmlns:svg="http://www.w3.org/2000/svg"
   xmlns="http://www.w3.org/2000/svg"
   xmlns:sodipodi="http://sodipodi.sourceforge.net/DTD/sodipodi-0.dtd"
   xmlns:inkscape="http://www.inkscape.org/namespaces/inkscape"
   width="591.75616mm"
   height="202.31432mm"
   viewBox="0 0 591.75616 202.31432"
   version="1.1"
   id="svg8"
   inkscape:version="0.92.4 (5da689c313, 2019-01-14)"
   sodipodi:docname="name.svg">
  <defs
     id="defs2" />
  <sodipodi:namedview
     id="base"
     pagecolor="#ffffff"
     bordercolor="#666666"
     borderopacity="1.0"
     inkscape:pageopacity="0.0"
     inkscape:pageshadow="2"
     inkscape:zoom="0.49497475"
     inkscape:cx="1280.8146"
     inkscape:cy="404.85809"
     inkscape:document-units="mm"
     inkscape:current-layer="layer1"
     showgrid="false"
     inkscape:window-width="3840"
     inkscape:window-height="2115"
     inkscape:window-x="-13"
     inkscape:window-y="-13"
     inkscape:window-maximized="1" />
  <metadata
     id="metadata5">
    <rdf:RDF>
      <cc:Work
         rdf:about="">
        <dc:format>image/svg+xml</dc:format>
        <dc:type
           rdf:resource="http://purl.org/dc/dcmitype/StillImage" />
        <dc:title></dc:title>
      </cc:Work>
    </rdf:RDF>
  </metadata>
  <g
     inkscape:label="Layer 1"
     inkscape:groupmode="layer"
     id="layer1"
     transform="translate(191.02269,-45.812298)">
    <path
       style="fill:#c02c38;stroke-width:0.26458332;fill-opacity:1"
       d="m 124.865,248.0766 c -0.0724,-0.0724 -1.02158,-0.15658 -2.10939,-0.18714 -1.08778,-0.0306 -2.87076,-0.28556 -3.96216,-0.56667 -1.09141,-0.2811 -2.46063,-0.61316 -3.04271,-0.73792 -4.17201,-0.8942 -5.46502,-1.26665 -7.07631,-2.0383 -0.69051,-0.33068 -1.38652,-0.60124 -1.54668,-0.60124 -0.28315,0 -0.85471,-0.25877 -2.48951,-1.12714 -0.43657,-0.23189 -1.62719,-0.8593 -2.64584,-1.39425 -6.483143,-3.40467 -13.909353,-9.8902 -19.713183,-17.2161 -5.18458,-6.54428 -7.32723,-16.06147 -4.85637,-21.57087 2.85194,-6.35905 10.60209,-4.65421 8.43957,1.8565 -0.24693,0.74353 -0.5585,1.35187 -0.69233,1.35187 -0.13383,0 -0.24331,0.24595 -0.24331,0.54656 0,0.30061 -0.13563,0.79998 -0.30139,1.10971 -0.71953,1.34448 -0.20492,6.44283 0.85402,8.46045 0.13261,0.25269 0.24144,0.66941 0.24181,0.92604 0.003,2.41028 10.36883,13.58232 13.75764,14.82838 0.21828,0.0803 0.830743,0.48334 1.360993,0.89572 0.53028,0.41239 1.10212,0.74979 1.27082,0.74979 0.16867,0 0.74472,0.29766 1.28011,0.66146 0.53538,0.3638 1.16933,0.66146 1.40877,0.66146 0.23945,0 0.58357,0.17859 0.76473,0.39688 0.18116,0.21828 0.47104,0.39687 0.64415,0.39687 0.17315,0 0.80764,0.23813 1.41005,0.52917 0.60237,0.29104 1.34072,0.52916 1.64078,0.52916 0.30004,0 0.75227,0.10884 1.00497,0.24185 3.78656,1.99329 16.34342,2.36567 22.28755,0.66095 0.80036,-0.22954 1.75019,-0.48609 2.11071,-0.57012 0.3605,-0.084 1.22897,-0.49092 1.92987,-0.90419 0.70091,-0.41327 1.35843,-0.75395 1.46116,-0.75706 0.70348,-0.0213 5.81211,-3.83315 7.04649,-5.25775 0.30176,-0.34827 0.73674,-0.82452 0.96666,-1.05834 3.67062,-3.73314 5.07577,-16.23738 2.38273,-21.20359 -0.12094,-0.22306 -0.30871,-0.80989 -0.41727,-1.30407 -0.20336,-0.9259 -1.9856,-5.87788 -2.62232,-7.28621 -0.19737,-0.43656 -0.6849,-1.56765 -1.08338,-2.51354 -0.57867,-1.37353 -2.37723,-5.07851 -3.84858,-7.92787 -0.11547,-0.22358 -0.46072,-1.00181 -0.76727,-1.72942 -0.30654,-0.7276 -0.67273,-1.50151 -0.81372,-1.71979 -0.141,-0.21828 -1.19007,-2.24234 -2.33127,-4.49792 -1.14118,-2.25557 -2.86295,-5.64885 -3.82614,-7.54062 -1.47521,-2.89744 -6.30407,-12.81027 -7.08875,-14.55208 -2.74087,-6.08399 -6.54819,-16.97792 -7.76742,-22.225 -0.2367,-1.01865 -0.60849,-2.50693 -0.82622,-3.30729 -0.21772,-0.80037 -0.51347,-2.22912 -0.65722,-3.175 -0.14378,-0.94589 -0.31435,-1.95792 -0.37912,-2.24896 -3.49626,-15.71532 2.67404,-33.760282 13.77775,-40.292932 5.60009,-3.2947 15.76909,-1.32864 23.1643,4.47855 0.53028,0.4164 1.04151,0.75709 1.13607,0.75709 0.75065,0 8.69421,7.29803 11.2124,10.301252 1.05357,1.2565 3.22321,5.00138 3.22551,5.56734 0,0.2218 0.18799,0.76047 0.41577,1.19703 2.42747,4.65233 1.00171,17.50692 -2.15834,19.45995 -3.7892,2.34185 -8.20018,-4.92166 -5.71897,-9.41734 0.28856,-0.52286 1.16835,-5.2573 1.17113,-6.3023 0.0103,-3.83107 -2.31841,-7.53362 -6.94039,-11.03555 -0.65485,-0.49615 -1.42875,-1.11949 -1.7198,-1.3852 -0.29104,-0.2657 -1.09471,-0.79171 -1.78593,-1.168902 -0.69123,-0.37719 -1.25677,-0.76471 -1.25677,-0.86117 0,-0.0965 -0.62508,-0.44313 -1.38907,-0.7704 -0.76398,-0.32727 -1.68672,-0.75374 -2.05052,-0.94771 -3.15219,-1.68064 -9.84956,-1.73363 -12.21168,-0.0966 -0.38627,0.26769 -0.89228,0.48671 -1.12448,0.48671 -0.2322,0 -0.42217,0.17859 -0.42217,0.39688 0,0.21828 -0.17859,0.39687 -0.39688,0.39687 -0.21828,0 -0.39687,0.1115 -0.39687,0.24777 0,0.13628 -0.71104,0.98351 -1.58007,1.882742 -0.86905,0.89923 -2.02038,2.42484 -2.55857,3.39025 -1.75342,3.14544 -2.87211,5.44881 -2.90846,5.98861 -0.0196,0.29105 -0.27519,1.12448 -0.56801,1.85209 -0.95504,2.37322 -1.09685,3.12735 -1.26878,6.74687 -0.32004,6.73719 0.85762,15.39819 3.09396,22.75417 0.42029,1.38245 0.76385,2.7744 0.76351,3.09324 0,0.31883 0.0951,0.6389 0.21222,0.71126 0.11708,0.0724 0.48675,1.06165 0.8215,2.19843 0.33473,1.13677 0.7152,2.2736 0.84545,2.52629 0.13026,0.25269 0.23683,0.60205 0.23683,0.77636 0,0.30372 0.31885,1.06172 1.73636,4.12788 0.3547,0.76721 0.64489,1.50181 0.64489,1.63245 0,0.13064 0.84754,2.00324 1.88344,4.16133 1.0359,2.15809 2.33344,4.8763 2.88343,6.04047 1.32178,2.7978 8.93617,18.29932 10.72203,21.82812 0.77327,1.52797 1.82634,3.61156 2.34013,4.63021 1.4251,2.82534 3.27305,7.26718 3.69313,8.87694 0.20696,0.793 0.61722,1.85853 0.9117,2.36785 0.29449,0.50932 0.73385,1.64042 0.97634,2.51354 0.24249,0.87313 0.66337,2.36141 0.93525,3.30729 0.27189,0.94589 0.57322,2.19604 0.66964,2.77813 0.0964,0.58208 0.35435,1.59411 0.57322,2.24896 1.47301,4.4069 -0.11131,17.45499 -2.3131,19.04998 -0.10043,0.0728 -0.37711,0.51194 -0.61481,0.97594 -0.43534,0.84982 -5.61933,6.16781 -6.01239,6.16781 -0.11615,0 -0.60547,0.36064 -1.08741,0.80142 -0.48191,0.44078 -1.412,1.0573 -2.06685,1.37002 -0.65484,0.31274 -1.47592,0.7511 -1.82462,0.97416 -0.34869,0.22305 -0.87826,0.44282 -1.17678,0.48838 -0.29853,0.0456 -0.72761,0.24135 -0.95351,0.4351 -0.74512,0.63906 -5.31228,1.90889 -7.68675,2.13717 -0.80037,0.077 -2.40771,0.2002 -3.57188,0.27388 -1.16417,0.0737 -2.83432,0.20026 -3.71147,0.28127 -0.87712,0.081 -1.65399,0.0881 -1.72635,0.0157 z m -228.0034,-5.99625 c -4.68063,-1.87828 -6.6649,-14.06142 -5.08286,-31.20793 0.14098,-1.52797 0.31703,-3.79015 0.39122,-5.02708 0.0742,-1.23693 0.19952,-3.32052 0.27851,-4.63021 0.079,-1.30969 0.19736,-2.73844 0.26306,-3.175 0.0657,-0.43656 0.18328,-1.68672 0.2613,-2.77812 0.078,-1.09141 0.33379,-3.53219 0.56837,-5.42396 0.23459,-1.89177 0.41687,-3.73724 0.40508,-4.10104 -0.0118,-0.36381 0.15356,-1.53193 0.36745,-2.59583 0.2139,-1.06391 0.32459,-2.03843 0.246,-2.1656 -0.0786,-0.12718 -0.0189,-0.78438 0.13256,-1.46045 0.24078,-1.07441 0.438,-2.57619 0.90283,-6.875 0.23529,-2.17595 0.67738,-6.66874 0.80709,-8.20208 0.17107,-2.02233 0.35092,-3.57985 0.79438,-6.87917 0.19559,-1.45521 0.35413,-2.82442 0.35232,-3.04271 -0.006,-0.74816 0.59747,-7.54032 0.70548,-7.9375 0.0594,-0.21828 0.18001,-1.34937 0.2681,-2.51354 0.0881,-1.16416 0.32933,-3.48588 0.53609,-5.15937 0.20676,-1.67349 0.49874,-4.76912 0.64884,-6.87917 0.15009,-2.11005 0.340927,-4.78332 0.42407,-5.9406 0.08314,-1.15728 0.21109,-2.2011 0.284324,-2.31959 0.07323,-0.1185 0.238553,-1.13616 0.367374,-2.26148 0.542351,-4.7377 0.895524,-5.95494 2.01227,-6.93546 1.573506,-1.38156 3.639635,-0.95562 5.092351,1.04979 1.476729,2.03857 1.578972,3.39486 0.827968,10.98338 -0.129614,1.30969 -0.35692,3.86954 -0.505124,5.68855 -0.148201,1.81901 -0.333944,3.72401 -0.412755,4.23333 -0.07881,0.50932 -0.205409,1.81901 -0.281324,2.91042 -0.07591,1.0914 -0.255844,2.81781 -0.399843,3.83645 -0.144002,1.01865 -0.440608,3.75709 -0.659125,6.08542 -0.218519,2.32833 -0.520798,4.94771 -0.671735,5.82083 -0.150937,0.87313 -0.312817,2.00422 -0.35973,2.51354 -0.04692,0.50933 -0.158369,1.58089 -0.247674,2.38125 -0.191296,1.71443 -0.396518,4.706 -0.562663,8.20209 -0.215561,4.53592 -0.718637,9.65116 -0.98117,9.97643 -0.141671,0.17552 -0.192082,0.42512 -0.11203,0.55465 0.08005,0.12953 0.0263,0.87888 -0.119457,1.66523 -0.292057,1.57565 -0.608226,4.20714 -1.014195,8.44119 -0.146505,1.52797 -0.330893,3.37343 -0.409752,4.10104 -0.07886,0.7276 -0.261843,2.45401 -0.406633,3.83646 -0.144791,1.38244 -0.330258,3.10885 -0.41215,3.83645 -0.631036,5.60664 -0.801669,30.91694 -0.213354,31.64708 0.283151,0.3514 0.661238,3.80294 0.692369,6.32062 0.03437,2.77929 -2.270952,4.43267 -4.777832,3.42669 z m 149.992667,-2.02928 c -2.63423,-1.29759 -3.47748,-4.38035 -3.74763,-13.70052 -0.3402,-11.73733 -0.49349,-15.40781 -0.77346,-18.52084 -0.14397,-1.60073 -0.32009,-3.56526 -0.39139,-4.36562 -0.39177,-4.39805 -0.69314,-7.15644 -0.91058,-8.33438 -0.13431,-0.7276 -0.38472,-2.93026 -0.55647,-4.89479 -0.17174,-1.96453 -0.42963,-3.92906 -0.57307,-4.36562 -0.14345,-0.43656 -0.35377,-1.38906 -0.46739,-2.11667 -0.45833,-2.93529 -1.38713,-8.31501 -1.74856,-10.12783 -0.21117,-1.05916 -0.38394,-2.21955 -0.38394,-2.57863 0,-0.35909 -0.22466,-1.33797 -0.49925,-2.1753 -0.27458,-0.83732 -0.70611,-2.23678 -0.95896,-3.1099 -0.25284,-0.87313 -0.61232,-1.94469 -0.79884,-2.38125 -0.18653,-0.43657 -0.41211,-1.12118 -0.50129,-1.52136 -0.23669,-1.06203 -0.51494,-0.9316 -2.53997,1.19063 -2.24588,2.35366 -4.49127,5.70584 -4.49127,6.70507 0,0.16122 -0.34453,0.76873 -0.76561,1.35002 -0.42108,0.58129 -1.26268,2.47438 -1.87023,4.20689 -0.60754,1.7325 -1.25963,3.44765 -1.44907,3.81145 -0.18945,0.36381 -0.61077,1.73302 -0.93626,3.04271 -0.3255,1.30969 -0.6545,2.55985 -0.73112,2.77813 -0.0766,0.21828 -0.11451,0.84002 -0.0842,1.38165 0.0303,0.54162 -0.12031,1.85131 -0.33466,2.91041 -0.21436,1.05911 -0.57478,3.05674 -0.80094,4.43919 -0.22616,1.38244 -0.64809,3.88276 -0.93762,5.55625 -0.28953,1.67349 -0.59821,3.75708 -0.68596,4.6302 -0.0877,0.87313 -0.32976,2.54 -0.53779,3.70417 -0.73856,4.13285 -1.22835,12.17722 -1.19227,19.58195 0.0208,4.26548 -1.05477,6.10137 -3.75262,6.40546 -4.5218403,0.50967 -7.9431303,-6.32599 -6.5581403,-13.10298 0.6656,-3.25688 0.83149,-16.39253 0.25755,-20.39325 -0.15909,-1.1089 -0.34072,-2.61149 -0.40364,-3.3391 -0.0629,-0.7276 -0.24826,-2.06795 -0.41186,-2.97856 -0.1636,-0.9106 -0.23632,-1.88945 -0.16159,-2.17523 0.0747,-0.28577 -0.0355,-1.10409 -0.24488,-1.81849 -0.20942,-0.7144 -0.60744,-2.71211 -0.88448,-4.43935 -0.58652,-3.65677 -2.61613,-11.64983 -3.41901,-13.46489 -0.30465,-0.68871 -0.55391,-1.47519 -0.55391,-1.74773 0,-0.27255 -0.11906005,-0.49554 -0.26459005,-0.49554 -0.14552,0 -0.26458,-0.1744 -0.26458,-0.38756 0,-0.48092 -0.9682,-1.02655 -1.47588,-0.83174 -0.20690995,0.0794 -0.37619995,0.32669 -0.37619995,0.54954 0,0.22285 -0.11906,0.40518 -0.26459,0.40518 -0.14552,0 -0.26458,0.14995 -0.26458,0.33323 0,0.18328 -0.23166,0.4779 -0.51479,0.65472 -0.28313,0.17682 -0.85431,1.00914 -1.26928,1.84958 -0.41497,0.84045 -0.88069,1.76622 -1.03493,2.05726 -1.07311,2.02487 -1.32631,2.7251 -2.72671,7.54063 -0.31739,1.0914 -0.64645,2.16297 -0.73125,2.38125 -0.0848,0.21828 -0.16847,0.51593 -0.18594,0.66145 -0.0403,0.33613 -0.91067,4.19058 -1.23166,5.45466 -0.13361,0.52621 -0.24294,1.72499 -0.24294,2.66396 0,0.93897 -0.16657,2.29437 -0.3701497,3.01201 -0.20359,0.71763 -0.44426,3.0312 -0.53484,5.14125 -0.20141,4.69211 -1.13591,14.57112 -1.73945,18.38854 -0.13805,0.87313 -0.31394,2.42094 -0.39087,3.43958 -0.50206,6.64752 -6.64189,7.30773 -9.76406,1.04993 -1.18453,-2.37418 -1.40383,-7.03514 -0.4177,-8.87775 0.15947,-0.29796 0.40608,-1.1589 0.54803,-1.91321 0.49859,-2.64945 0.78067,-4.29187 0.91715,-5.34022 0.0758,-0.58208 0.2451,-1.47505 0.37627,-1.98437 0.65045,-2.5256 0.3435,-18.99885 -0.36959,-19.83561 -2.62647,-3.08197 -0.22089,-7.82217 3.4309,-6.76057 1.58722,0.46142 1.95035,0.33703 1.96026,-0.67148 0.002,-0.22685 0.17886,-0.64357 0.39251,-0.92604 0.21365,-0.28248 0.39225,-0.9502 0.39688,-1.48384 0.007,-0.85765 0.59223,-2.49984 1.30334,-3.65996 0.1338,-0.21828 0.45552,-1.15329 0.71494,-2.0778 0.25942,-0.92451 0.78147,-2.17466 1.16011,-2.77812 0.37864,-0.60346 0.90859,-1.69252 1.17766,-2.42012 0.26908,-0.72761 0.5918,-1.45448 0.71718,-1.61527 0.12537,-0.1608 0.5367797,-0.87517 0.9142397,-1.5875 2.95849,-5.58316 7.67259,-6.35714 12.57647,-2.06486 1.96864,1.72311 4.46322,4.90924 4.46322,5.70051 0,0.17556 0.15883,0.50717 0.35295,0.73691 0.37086,0.4389 2.0283003,4.49936 2.0283003,4.96901 0,0.23604 0.61327,1.91326 1.3349,3.65078 0.79392,1.9116 1.57552,4.76339 1.57552,5.74856 0,2.37505 0.85959,2.56096 1.33344,0.28839 0.39136,-1.87698 0.39926,-1.90472 0.59918,-2.10464 0.10122,-0.10122 0.18404,-0.43804 0.18404,-0.74849 0,-0.31044 0.0948,-0.67755 0.21058,-0.8158 0.25226,-0.30112 0.73571,-1.76687 0.98327,-2.98115 0.0984,-0.48275 0.34558,-1.19712 0.54925,-1.5875 0.20367,-0.39038 0.37104,-0.85611 0.37194,-1.03494 0.007,-1.42027 5.33613,-13.24917 7.00533,-15.54984 0.31673,-0.43657 0.64475,-0.97235 0.72892,-1.19063 2.2264,-5.77366 8.40885,-6.65047 13.32384,-1.88962 4.5048,4.36352 6.63846,8.88013 7.51714,15.91254 0.17273,1.38245 0.4763,3.04932 0.6746,3.70416 0.1983,0.65485 0.66991,3.57188 1.04802,6.4823 0.37812,2.91041 0.87165,6.06557 1.09675,7.01145 0.22511,0.94589 0.51221,2.73183 0.63799,3.96875 0.12579,1.23693 0.35912,3.26099 0.51848,4.49792 0.15939,1.23693 0.39981,3.43958 0.53433,4.89479 0.13451,1.45521 0.36864,3.36021 0.52033,4.23333 0.15166,0.87313 0.33115,2.89719 0.39886,4.49792 0.10998,2.60038 0.24823,4.08198 0.81473,8.73125 0.27191,2.23144 0.14237,18.50666 -0.15796,19.84676 -0.70834,3.1608 -2.56111,4.31502 -4.99891,3.11418 z m 228.704803,-2.34266 c -1.92018,-0.99867 -3.33049,-3.40086 -3.82791,-6.52016 -0.16904,-1.06001 -0.4151,-2.34584 -0.54684,-2.8574 -0.13171,-0.51155 -0.36261,-2.59514 -0.51311,-4.6302 -0.15049,-2.03505 -0.33088,-4.17635 -0.40087,-4.75844 -0.14988,-1.24662 -0.33636,-5.18353 -0.53266,-11.24479 -0.0778,-2.40109 -0.19846,-4.84187 -0.26826,-5.42396 -0.33896,-2.82739 -0.43767,-8.00821 -0.4795,-25.16445 -0.0298,-12.21402 -0.13653,-18.62407 -0.31012,-18.62408 -0.61928,-2e-5 -3.79836,0.77042 -4.89469,1.1862 -0.65484,0.24836 -1.54781,0.50789 -1.98437,0.57675 -0.7828,0.12346 -1.63359,0.42923 -2.62176,0.94226 -0.27778,0.14422 -1.29963,0.48241 -2.27073,0.75151 -1.95953,0.54302 -3.61394,1.33694 -6.08658,2.92084 -0.36444,0.23344 -1.01859,0.51077 -1.4537,0.61629 -0.43511,0.10552 -0.85183,0.27291 -0.92604,0.37199 -0.0742,0.0991 -0.78978,0.5165 -1.59015,0.92761 -0.80036,0.41112 -1.99099,1.0947 -2.64583,1.51907 -5.23597,3.39319 -9.39634,2.24437 -10.74841,-2.96797 -0.84466,-3.25619 0.74327,-5.6186 4.79528,-7.13417 0.29104,-0.10885 1.5412,-0.67211 2.77813,-1.25167 3.99058,-1.8698 5.67552,-2.6228 6.29377,-2.8127 0.3329,-0.10224 1.10681,-0.47268 1.71979,-0.82319 0.61302,-0.35051 1.37253,-0.63872 1.68784,-0.64047 0.31527,-0.002 0.61293,-0.0931 0.66145,-0.20289 0.11208,-0.25377 3.75174,-1.56277 6.17361,-2.22033 1.01864,-0.27656 2.0902,-0.61427 2.38125,-0.75044 0.97903,-0.45808 3.91877,-1.32745 4.48871,-1.32745 0.31064,0 0.67794,-0.0994 0.81618,-0.22085 0.34425,-0.30248 2.48484,-1.0518 3.29168,-1.15228 0.90231,-0.11236 0.99515,-0.9346 1.21918,-10.7977 0.27522,-12.1176 0.40454,-14.33322 0.93768,-16.06478 1.27701,-4.14749 6.76399,-1.81391 8.31998,3.53844 0.43278,1.48878 0.18024,9.13481 -0.36568,11.07113 -0.12308,0.43657 -0.24754,2.65538 -0.27654,4.93069 -0.0579,4.53802 0.004,4.71261 1.43587,4.06307 0.42373,-0.1922 1.96106,-0.60988 3.41627,-0.92816 1.45521,-0.31829 2.88396,-0.67739 3.175,-0.79799 0.80304,-0.33277 2.26015,-0.72072 3.43958,-0.91579 0.58209,-0.0963 1.59412,-0.33237 2.24896,-0.52465 0.65485,-0.19229 1.96453,-0.56117 2.91042,-0.81973 0.94588,-0.25856 1.85354,-0.57033 2.017,-0.69282 0.16343,-0.12249 0.46527,-0.1582 0.67074,-0.0794 0.58187,0.22329 1.50339,-0.822 1.69183,-1.91911 0.0938,-0.54627 0.32586,-1.64807 0.51562,-2.44844 0.18978,-0.80036 0.54533,-2.5863 0.7901,-3.96875 0.24479,-1.38245 0.54832,-2.87073 0.67455,-3.30729 0.12621,-0.43656 0.31054,-1.44859 0.4096,-2.24896 0.0991,-0.80036 0.26768,-1.57427 0.37468,-1.71979 0.107,-0.14552 0.20211,-0.62177 0.21135,-1.05833 0.0169,-0.7978 0.41055,-3.20951 0.88529,-5.42396 0.14042,-0.65484 0.31068,-1.60734 0.37841,-2.11667 0.40608,-3.05437 0.7216,-4.99186 0.92631,-5.68854 0.12827,-0.43656 0.29088,-1.32953 0.36134,-1.98437 0.60166,-5.59186 2.79548,-7.710422 5.86512,-5.66389 3.94806,2.63221 4.52771,8.90489 1.6582,17.94456 -0.27324,0.86078 -0.49681,1.89797 -0.49681,2.30486 0,0.73953 -0.91929,5.03789 -1.23775,5.78738 -0.0927,0.21828 -0.14419,0.54765 -0.1143,0.73193 0.0299,0.18428 -0.18946,1.69674 -0.48744,3.36101 -0.74935,4.18545 -0.75864,4.10915 0.50096,4.10915 0.57349,0 1.12271,-0.12944 1.22047,-0.28764 0.0978,-0.1582 0.38574,-0.23325 0.63993,-0.16678 0.59081,0.1545 4.37898,-0.60626 7.01876,-1.40955 1.53873,-0.46823 7.10043,-1.74725 7.80521,-1.79495 0.21828,-0.0148 1.4089,-0.27669 2.64583,-0.58202 1.23693,-0.30534 3.08239,-0.71981 4.10104,-0.92106 2.45428,-0.48487 6.9116,-1.42699 8.06979,-1.70566 1.9889,-0.47856 5.76498,-1.31328 7.27604,-1.60842 0.87313,-0.17054 3.07579,-0.64818 4.8948,-1.06143 1.81901,-0.41325 3.60494,-0.81053 3.96875,-0.88285 0.3638,-0.0723 1.79255,-0.38813 3.175,-0.7018 1.38244,-0.31368 3.64463,-0.78671 5.02708,-1.05118 1.38245,-0.26447 2.57307,-0.50526 2.64583,-0.53509 0.0728,-0.0298 0.23934,-0.0342 0.37021,-0.01 0.13086,0.0245 0.42852,-0.0389 0.66146,-0.14071 0.23294,-0.10186 0.66167,-0.22293 0.95271,-0.26905 0.67299,-0.10664 2.75595,-0.50518 4.63021,-0.88591 1.63663,-0.33246 3.9398,-0.7386 5.21864,-0.92026 0.46916,-0.0666 1.0732,-0.239 1.34228,-0.38301 0.26908,-0.14401 2.25804,-0.51017 4.41989,-0.81368 2.16186,-0.30351 4.07715,-0.67342 4.2562,-0.82202 2.01895,-1.67558 7.51141,0.79014 9.04967,4.06266 2.54421,5.41254 -1.49868,8.46625 -11.3221,8.55195 -3.74129,0.0326 -5.67418,0.18133 -8.20208,0.63098 -1.81901,0.32355 -3.60495,0.6286 -3.96875,0.67788 -0.36381,0.0493 -2.38787,0.46095 -4.49792,0.91483 -2.11005,0.45387 -4.90802,0.99494 -6.21771,1.20239 -1.30969,0.20744 -2.8575,0.48993 -3.43958,0.62774 -0.58209,0.13782 -3.61818,0.78342 -6.74688,1.43468 -3.1287,0.65125 -6.70057,1.42044 -7.9375,1.70931 -1.23692,0.28886 -2.96333,0.66787 -3.83646,0.84224 -2.78487,0.55613 -8.43811,1.84796 -9.2792,2.12039 -0.44688,0.14475 -1.05651,0.26318 -1.35472,0.26318 -0.29818,0 -1.83756,0.30674 -3.4208,0.68165 -1.58324,0.3749 -3.53345,0.79506 -4.33382,0.93368 -0.80036,0.13862 -1.99911,0.42958 -2.66388,0.64656 -0.66479,0.21699 -2.33166,0.62539 -3.70416,0.90756 -1.37253,0.28217 -3.20988,0.69692 -4.083,0.92168 -0.87313,0.22476 -2.40432,0.58317 -3.40267,0.79646 -0.99833,0.21329 -1.95083,0.495 -2.11667,0.62602 -0.16582,0.13103 -0.74126,0.31742 -1.27876,0.41421 -1.13035,0.20355 -1.35218,0.64628 -1.2473,2.4893 0.0781,1.37272 -0.24164,3.7389 -0.56091,4.15059 -0.11285,0.14552 -0.29089,1.09802 -0.39564,2.11667 -0.10474,1.01864 -0.27889,1.97114 -0.38697,2.11666 -0.21508,0.28957 -0.34158,1.59856 -0.92038,9.525 -0.21252,2.91042 -0.51298,6.24417 -0.66765,7.40834 -0.74182,5.58287 -0.75216,27.25873 -0.0172,35.85104 1.04251,12.18654 0.24519,15.63876 -3.52809,15.2762 -2.65144,-0.25477 -4.29805,-3.14302 -4.51599,-7.92139 -0.0551,-1.20749 -0.1688,-2.79075 -0.25273,-3.51836 -0.88503,-7.67122 -0.98721,-9.80328 -1.03356,-21.56552 -0.0267,-6.76563 0.0585,-13.61083 0.18928,-15.21156 0.2563,-3.13748 0.29347,-3.76865 0.52959,-8.99583 0.14988,-3.31811 1.07466,-13.17283 1.44007,-15.34583 0.50607,-3.00957 0.0757,-4.05414 -1.38229,-3.35547 -0.68196,0.32678 -6.91332,1.94716 -7.8373,2.03798 -0.3642,0.0358 -1.12289,0.25758 -1.68598,0.49285 -0.56306,0.23527 -1.33665,0.42849 -1.71905,0.42939 -0.38243,8e-4 -1.03632,0.17949 -1.45314,0.39688 -0.41683,0.21738 -0.93427,0.39524 -1.14991,0.39524 -1.23896,0 -3.19259,0.84828 -3.52078,1.52876 -0.51917,1.07638 -0.70747,35.38477 -0.24434,44.51764 0.1879,3.70588 0.37835,7.69047 0.42322,8.85464 0.10073,2.61367 0.50988,8.95338 0.86236,13.36146 1.06143,13.27469 1.0283,14.10729 -0.60092,15.10073 -1.00867,0.61506 -1.8927,0.64311 -2.94929,0.0936 z m -101.2185,-2.19963 c -4.98496,-1.59523 -9.46205,-7.75339 -10.60148,-14.58219 -0.13356,-0.80037 -0.30501,-1.8124 -0.38103,-2.24896 -0.62193,-3.572 -0.49725,-9.86655 0.29089,-14.68437 0.0833,-0.50933 0.39184,-2.39978 0.68561,-4.20101 0.29377,-1.80123 0.63077,-3.4681 0.74888,-3.70416 0.11811,-0.23607 0.65497,-1.85796 1.19306,-3.60421 1.01343,-3.28899 3.11517,-8.41883 3.74843,-9.14896 0.19923,-0.22974 0.36227,-0.56893 0.36227,-0.75376 0,-0.18483 0.19439,-0.77077 0.43195,-1.30208 0.23757,-0.53132 0.66281,-1.50181 0.94499,-2.15666 0.28218,-0.65484 0.62357,-1.39736 0.75867,-1.65005 0.13509,-0.25269 0.24564,-0.5915 0.24564,-0.75291 0,-0.16141 0.24622,-0.63928 0.54718,-1.06192 0.30094,-0.42265 0.48223,-0.76845 0.40288,-0.76845 -0.13181,0 1.33739,-2.91155 3.13748,-6.21771 2.28897,-4.20397 6.652,-4.29244 9.51794,-0.19299 1.48373,2.12235 1.08953,5.96487 -0.81235,7.91835 -0.67056,0.68875 -2.26883,3.13292 -2.99347,4.57777 -0.32843,0.65484 -0.69824,1.25413 -0.82182,1.33176 -0.33721,0.21182 -4.35287,7.96082 -5.68553,10.97136 -0.3865,0.87313 -1.00658,2.83766 -1.37795,4.36563 -0.37134,1.52796 -0.74964,2.83765 -0.84066,2.91041 -0.22196,0.17745 -1.34697,4.75493 -1.33305,5.42396 0.006,0.29104 -0.17825,1.95792 -0.4096,3.70417 -0.82008,6.19042 -0.13467,13.67979 1.42256,15.54427 0.86979,1.04139 6.65472,0.0433 6.65472,-1.14815 0,-0.1325 0.17685,-0.24092 0.39301,-0.24092 0.21614,0 0.90075,-0.50601 1.52136,-1.12447 1.28354,-1.27916 3.24125,-2.84376 3.56023,-2.84533 0.30038,-0.002 2.99207,-2.96574 2.99207,-3.29507 0,-0.0789 0.24365,-0.41135 0.54144,-0.73877 1.97575,-2.17229 3.09843,-3.77846 4.29985,-6.15156 0.66305,-1.30969 1.2877,-2.67891 1.38816,-3.04271 0.32901,-1.19159 1.37517,-3.31811 1.80983,-3.67885 0.23413,-0.19432 0.60132,-0.94461 0.81592,-1.66731 0.21463,-0.72271 0.61643,-1.69071 0.89289,-2.15111 0.27647,-0.46041 0.57254,-1.13476 0.65794,-1.49856 0.14505,-0.61805 1.12358,-2.48258 2.47978,-4.72506 0.32049,-0.52992 0.66633,-1.14208 0.76854,-1.36036 0.10221,-0.21828 0.58415,-0.89316 1.07095,-1.49974 0.48681,-0.60657 0.88712,-1.20188 0.88958,-1.32291 0.003,-0.12103 0.56788,-0.81537 1.25643,-1.54298 0.68858,-0.7276 1.61459,-1.75137 2.05782,-2.27505 11.97235,-14.14542 31.22788,-11.54681 39.28116,5.30115 4.4591,9.32875 4.47212,21.61729 0.0288,27.21468 -1.88007,2.36841 -4.20163,4.81727 -5.86261,6.1841 -2.47925,2.04019 -3.22866,2.58577 -3.78254,2.75371 -0.31464,0.0954 -0.92927,0.43922 -1.36583,0.76406 -0.43656,0.32483 -1.21047,0.73663 -1.71979,0.9151 -0.50932,0.17847 -1.28323,0.54994 -1.71979,0.82549 -6.31894,3.98842 -15.84756,4.07197 -22.29215,0.19547 -2.86594,-1.72389 -8.26723,-7.65407 -8.26723,-9.07673 0,-0.61021 -1.38263,-1.93117 -1.53691,-1.46835 -0.0664,0.19928 -0.45855,0.71579 -0.87138,1.14778 -0.41283,0.43199 -0.82179,1.0097 -0.90879,1.28379 -0.087,0.27409 -0.26921,0.49835 -0.40492,0.49835 -0.1357,0 -0.24675,0.10715 -0.24675,0.23812 0,0.13097 -0.38695,0.65742 -0.85989,1.16988 -0.47295,0.51247 -1.39568,1.55461 -2.05052,2.31587 -3.38725,3.93773 -9.3894,9.2407 -10.45906,9.2407 -0.0715,0 -0.63476,0.23037 -1.25164,0.51193 -2.6216,1.19659 -6.26954,1.43178 -8.94218,0.57652 z m 44.98716,-13.56161 c 1.66577,0.11801 7.69551,-1.09214 8.47405,-1.7007 0.21828,-0.17063 1.02566,-0.51491 1.79414,-0.76509 0.76851,-0.25017 1.73821,-0.74172 2.15487,-1.09233 0.41667,-0.3506 0.88075,-0.63746 1.0313,-0.63746 0.15052,0 0.71553,-0.41672 1.25558,-0.92604 0.54004,-0.50933 1.07947,-0.92604 1.19877,-0.92604 0.28435,0 1.94977,-1.74636 3.28097,-3.44043 0.58208,-0.74075 1.29645,-1.62051 1.5875,-1.95502 1.0963,-1.26002 1.71979,-2.27366 1.71979,-2.79592 0,-0.29694 0.10266,-0.53988 0.22815,-0.53988 0.23593,0 0.58221,-2.05543 0.73543,-4.36563 0.10441,-1.57368 -0.38007,-6.15894 -0.71898,-6.80462 -0.13123,-0.25004 -0.36494,-1.02395 -0.51937,-1.71979 -0.15444,-0.69585 -0.63204,-1.70467 -1.06135,-2.24184 -0.42929,-0.53717 -0.78055,-1.05017 -0.78055,-1.14 0,-1.22091 -3.90041,-3.76029 -6.1694,-4.0166 -0.60864,-0.0688 -1.34477,-0.22598 -1.63581,-0.34938 -0.93144,-0.39493 -2.00022,-0.47041 -2.99775,-0.21169 -0.53404,0.13851 -1.20912,0.24063 -1.50016,0.22693 -1.47273,-0.0693 -3.6199,0.64059 -5.2029,1.72016 -0.92194,0.62875 -2.20147,1.47063 -2.84335,1.87084 -2.04004,1.27194 -7.05781,6.50607 -7.8622,8.20117 -0.23304,0.49112 -0.57486,0.89295 -0.75959,0.89295 -0.18473,0 -0.41447,0.20836 -0.51054,0.46302 -0.31253,0.82839 -0.80224,1.65364 -0.98131,1.65364 -0.15661,0 -1.81335,2.98214 -1.83304,3.29948 -0.004,0.071 -0.23085,0.63759 -0.50321,1.25908 -0.80558,1.83823 -0.54819,4.88988 0.63087,7.47998 0.19873,0.43657 0.6123,1.34258 0.91903,2.01336 0.30674,0.67078 0.55769,1.30819 0.55769,1.41645 0,1.45346 4.13473,4.66349 6.20369,4.8163 0.44429,0.0328 1.22449,0.16608 1.73381,0.29616 0.50933,0.13007 1.0418,0.17267 1.18325,0.0947 0.14147,-0.078 0.67725,-0.11209 1.19062,-0.0757 z m -280.450955,10.62554 c -9.900354,-1.95618 -18.207271,-11.71705 -19.706292,-23.1555 -0.775472,-5.91732 -0.971719,-10.67646 -0.594611,-14.41979 0.496374,-4.92723 0.409504,-6.0798 -0.533604,-7.07974 -2.340043,-2.48104 -2.42471,-7.38094 -0.195408,-11.3088 0.495554,-0.87312 1.133877,-2.00987 1.418495,-2.52609 0.28462,-0.51623 1.360813,-1.79371 2.39154,-2.83885 1.030724,-1.04513 1.874046,-1.96539 1.874046,-2.04502 0,-0.31639 4.081338,-4.55887 6.321827,-6.57142 1.387436,-1.24628 3.465508,-2.19336 5.548858,-2.52887 0.863113,-0.139 1.789756,-0.37219 2.059202,-0.51821 8.187595,-4.43691 22.333961,-0.15905 29.949499,9.05673 1.18696,1.43638 2.15812,2.76591 2.15812,2.95452 0,0.1886 0.0893,0.38259 0.19843,0.4311 0.49919,0.22187 3.94254,6.55941 5.22309,9.6132 0.24409,0.58208 0.52955,1.23692 0.63436,1.4552 2.34231,4.878 3.07526,13.42779 1.63311,19.05 -0.7582,2.95579 -4.44385,10.47377 -5.86938,11.9723 -0.56422,0.59313 -1.02586,1.11857 -1.02586,1.16764 0,0.0491 -0.20836,0.31321 -0.46303,0.58697 -0.25466,0.27376 -0.70114,0.82105 -0.99218,1.2162 -0.64001,0.86895 -3.11375,3.68079 -3.32826,3.78315 -0.0843,0.0402 -1.08995,0.97406 -2.2348,2.0752 -2.06611,1.98722 -5.688966,4.59853 -6.379854,4.59853 -0.198117,0 -0.361027,0.0893 -0.362021,0.19844 -0.0011,0.10914 -0.44748,0.49503 -0.992188,0.85753 -0.544708,0.36251 -1.049912,0.72337 -1.122672,0.80192 -0.277963,0.30008 -3.873505,2.36079 -4.630208,2.65369 -2.425314,0.93881 -7.616315,1.18463 -10.980209,0.51997 z m 6.325669,-9.43009 c 2.397427,-0.8122 6.903498,-2.9675 6.903498,-3.30202 0,-0.13031 0.15784,-0.23693 0.350755,-0.23693 0.192913,0 0.630386,-0.29765 0.972162,-0.66146 0.341775,-0.3638 0.7327,-0.66145 0.868725,-0.66145 0.297026,0 1.139118,-0.71789 3.026031,-2.57969 0.774288,-0.76399 1.47556,-1.38906 1.55838,-1.38906 0.207317,0 1.141799,-1.14048 1.152644,-1.40673 0.0048,-0.11885 0.42449,-0.65464 0.932548,-1.19062 0.50806,-0.53599 0.92478,-1.05842 0.92604,-1.16094 10e-4,-0.10253 0.30826,-0.51925 0.68221,-0.92604 1.32235,-1.4385 1.43676,-1.57974 1.43676,-1.77383 0,-0.10783 0.55336,-1.05035 1.22969,-2.09447 1.44345,-2.22841 3.00364,-5.25676 3.00364,-5.83011 0,-0.22149 0.1087,-0.46988 0.24156,-0.55199 0.13286,-0.0821 0.32491,-0.65469 0.42679,-1.27239 0.10187,-0.6177 0.27448,-1.24215 0.38357,-1.38768 0.56493,-0.75361 0.71804,-5.76863 0.23425,-7.67291 -0.14788,-0.58209 -0.3713,-1.65365 -0.4965,-2.38125 -0.30535,-1.77464 -1.32624,-4.83297 -2.46199,-7.37555 -0.80285,-1.7973 -1.78208,-3.32956 -4.89018,-7.652 -2.270042,-3.15694 -5.822211,-4.42706 -11.982423,-4.28445 -2.417225,0.0559 -3.745852,0.96465 -2.249821,1.53873 0.545233,0.20922 0.759929,1.56869 0.437089,2.76763 -0.963564,3.57841 -4.531963,3.775 -7.353382,0.40513 -1.357797,-1.62174 -5.859389,0.0845 -5.886823,2.23124 -0.0024,0.1819 -0.163013,0.33073 -0.357087,0.33073 -0.371121,0 -1.243336,1.62097 -2.420239,4.49791 -0.386945,0.94589 -0.801968,1.95792 -0.922277,2.24896 -0.724286,1.75215 -1.331706,3.88251 -1.331706,4.6706 0,0.50166 -0.106868,1.02522 -0.237482,1.16346 -0.130617,0.13825 -0.300707,0.72761 -0.377979,1.30969 -0.07727,0.58208 -0.374062,2.30849 -0.65954,3.83646 -1.070422,5.72929 -1.219078,8.83692 -0.702431,14.68437 0.589676,6.67404 1.868847,10.96811 3.980275,13.36146 0.320947,0.3638 0.656143,0.89959 0.744876,1.19063 0.681276,2.23453 8.158663,3.13995 12.838367,1.55457 z M -186.18755,178.50698 c -3.45977,-1.27557 -5.68363,-5.09443 -4.52629,-7.77263 4.55395,-7.45888 11.16337,-12.90827 17.1427,-18.57439 0,-0.40211 4.75998,-5.84587 5.11158,-5.84587 0.0804,0 0.70044,-0.50601 1.37796,-1.12448 0.67751,-0.61846 1.90555,-1.48197 2.72896,-1.91891 0.82342,-0.43694 2.26452,-1.53827 3.20245,-2.4474 0.93793,-0.90913 1.89295,-1.65296 2.12226,-1.65296 0.22931,0 1.214,-0.7739 2.18821,-1.71979 0.9742,-0.94589 1.88526,-1.71979 2.02458,-1.71979 0.13931,0 0.59871,-0.32742 1.02089,-0.72761 1.12765,-1.0689 3.47491,-3.04906 4.15565,-3.50572 0.32539,-0.21829 1.17563,-0.84041 1.88943,-1.38251 0.7138,-0.54209 1.44665,-0.98858 1.62855,-0.99219 0.1819,-0.004 0.33073,-0.0978 0.33073,-0.20931 1.20024,-1.7931 5.10307,-5.26611 7.31567,-5.77153 0.43839,-0.0877 1.01244,-0.4462 1.27568,-0.79673 0.26323,-0.35052 0.65457,-0.63732 0.86963,-0.63732 0.21507,0 0.77472,-0.32742 1.24367,-0.7276 0.77334,-0.65994 2.65821,-1.90646 3.89716,-2.57732 0.26634,-0.14422 0.54263,-0.44613 0.61398,-0.67091 4.7817,-3.38845 9.23364,-5.59488 13.64912,-9.25333 0.8743,-0.72761 1.79742,-1.32292 2.05138,-1.32292 0.25395,0 0.93238,-0.48243 1.50761,-1.07206 4.07335,-1.9695 8.23413,-6.230502 12.6107,-7.403022 0.18779,-0.005 0.57255,-0.18322 0.85503,-0.39688 0.282474,-0.21365 0.695005,-0.38846 0.916736,-0.38846 0.221732,0 0.645459,-0.23701 0.941618,-0.52669 0.835538,-0.81727 4.665578,-3.40696 5.697847,-3.85262 0.509323,-0.21989 1.242068,-0.57465 1.628323,-0.78837 0.386254,-0.21371 0.825862,-0.38857 0.976907,-0.38857 0.334256,0 3.593698,-1.99359 4.612455,-2.82115 0.404466,-0.32855 1.163971,-0.67778 1.687791,-0.77604 0.58326,-0.10943 0.999381,-0.35834 1.073615,-0.64221 2.72847,-1.17835 6.825439,-4.34269 9.488342,-5.02101 0.439555,0 2.228401,-1.04665 2.228401,-1.30383 7.289398,-2.37203 12.243617,-6.86478 19.337221,-9.70697 0.642393,-0.2519 1.451936,-0.67549 1.798982,-0.94131 0.347046,-0.26582 0.846034,-0.48331 1.108863,-0.48331 0.262829,0 0.551455,-0.11906 0.641393,-0.26458 0.08994,-0.14552 0.424386,-0.26634 0.74322,-0.26849 0.318833,-0.002 0.838401,-0.15097 1.154594,-0.33073 1.98053,-1.12593 3.886911,-2.0184 4.069887,-1.90532 0.11739,0.0726 0.524732,-0.15659 0.905208,-0.509204 4.116964,-0.870158 8.486984,-3.975028 12.238544,-5.44287 0.83933,-0.3214 2.09072,-0.87187 2.78088,-1.22325 0.69016,-0.35139 1.52359,-0.63926 1.85208,-0.63971 5.30481,-2.540393 13.20771,-4.022717 18.0358397,-7.01104 4.63374,-1.139399 10.51689,-3.284036 14.79893,-4.10229 0.70469,-0.13134 1.4388003,-0.36955 1.6313603,-0.52935 0.40107,-0.33287 4.82965,-1.24508 6.2155,-1.2803 0.50932,-0.0129 1.81901,-0.19385 2.91042,-0.40203 1.0914,-0.20818 2.07888,-0.32087 2.1944,-0.25044 0.11551,0.0704 0.37909,-0.0122 0.58573,-0.18373 0.20664,-0.1715 1.5634,-0.37726 3.01504,-0.45725 10.34694,-0.57014 14.95566,7.06117 4.91886,8.14488 -5.76618,0.6226 -7.27568,0.90501 -11.90466,2.2272 -0.7276,0.20783 -2.39448,0.64201 -3.70417,0.96485 -1.30968,0.32284 -2.50031,0.67073 -2.64583,0.7731 -0.14552,0.10238 -0.74083,0.26768 -1.32292,0.36735 -0.58208,0.0997 -1.5345803,0.34197 -2.1166603,0.53846 -0.58209,0.19649 -2.66568,0.8512 -4.63021,1.45493 -1.96453,0.60372 -3.92906005,1.2213 -4.36563005,1.3724 -0.43656,0.1511 -1.53352995,0.50624 -2.43770995,0.7892 -0.90417,0.28296 -1.71487,0.62923 -1.80155,0.76947 -0.0867,0.14024 -0.35892,0.25572 -0.605,0.25662 -0.24607,7.9e-4 -0.75815,0.16377 -1.13795,0.36195 -0.3798,0.19819 -1.49598,0.62055 -2.4804,0.93858 -0.98442,0.31803 -2.2810197,0.80287 -2.8813297,1.07742 -0.60031,0.27455 -1.62725,0.63482 -2.2821,0.80059 -0.65484,0.16578 -1.78594,0.57704 -2.51354,0.913934 -0.7276,0.33688 -2.45401,1.05488 -3.83646,1.59557 -1.38245,0.54068 -2.87073,1.1391 -3.30729,1.32982 -0.43656,0.19072 -1.08488,0.43116 -1.4407,0.53432 -0.35582,0.10315 -1.20243,0.52933 -1.88135,0.94707 -0.67891,0.41775 -1.41966,0.75954 -1.6461,0.75954 -0.22644,0 -0.4514,0.095 -0.49991,0.21108 -0.0485,0.11609 -1.04069,0.55069 -2.20486,0.96576 -1.16416,0.41509 -2.89831,1.15353 -3.85365,1.64101 -0.95534,0.48747 -1.85572,0.88631 -2.00082,0.88631 -0.29013,0 -2.379333,0.9264 -3.009068,1.33429 -0.218281,0.14138 -0.694531,0.39717 -1.058334,0.56842 -0.363802,0.17126 -2.090208,0.98978 -3.836458,1.81896 -1.74625,0.82917 -3.889375,1.8265 -4.7625,2.21628 -0.873125,0.38978 -2.004219,0.91981 -2.513542,1.17783 -2.187726,1.10832 -3.717266,1.86604 -5.953125,2.94913 -1.309688,0.63444 -2.538582,1.30829 -2.730879,1.49744 -0.192293,0.18914 -0.470315,0.3439 -0.617823,0.3439 -0.388948,0 -9.956588,4.83253 -15.903535,8.03274 -0.984356,0.5297 -1.966622,0.9631 -2.182813,0.9631 -0.216191,0 -0.393076,0.11906 -0.393076,0.26458 0,0.14552 -0.156143,0.26458 -0.346985,0.26458 -0.190841,0 -0.580242,0.20836 -0.865335,0.46302 -0.285094,0.25467 -1.28981,0.854 -2.232703,1.33186 -2.490801,1.262332 -4.150934,2.198372 -5.947685,3.353512 -0.873125,0.56134 -2.123281,1.25862 -2.778125,1.54951 -0.654844,0.29089 -1.796756,0.98646 -2.537584,1.54571 -0.740828,0.55924 -1.434354,1.01681 -1.541169,1.01681 -0.106818,0 -1.00167,0.52234 -1.988566,1.16076 -0.986896,0.63842 -2.079312,1.24935 -2.427582,1.35763 -0.69607,0.21641 -2.16945,1.17802 -2.30892,1.50695 -0.0485,0.1144 -0.20358,0.20799 -0.34461,0.20799 -0.14103,0 -1.27405,0.68461 -2.51783,1.52136 -1.24378,0.83674 -2.77356,1.81901 -3.39952,2.18281 -0.62595,0.3638 -1.98983,1.25677 -3.03085,1.98437 -2.14168,1.49691 -2.4035,1.66615 -5.086,3.28761 -1.06544,0.64401 -2.35388,1.50431 -2.8632,1.91177 -1.82799,1.46238 -3.44863,2.60583 -3.69331,2.60583 -0.13703,0 -0.34436,0.14883 -0.46073,0.33073 -0.26212,0.40971 -3.40191,2.84427 -3.66819,2.84427 -0.1067,0 -0.84481,0.53578 -1.64024,1.19063 -0.79543,0.65484 -1.54414,1.19062 -1.6638,1.19062 -0.11966,0 -0.55246,0.30642 -0.96179,0.68093 -1.01911,0.93243 -4.24839,3.28782 -4.50766,3.28782 -0.1159,0 -0.53174,0.29766 -0.92408,0.66146 -0.39235,0.3638 -0.83762,0.66146 -0.98949,0.66146 -0.15187,0 -0.50247,0.20836 -0.77911,0.46302 -1.24899,1.14975 -3.33312,2.88471 -3.96403,3.2999 -1.58335,1.04198 -1.47887,0.96047 -3.89567,3.03906 -0.71204,0.61239 -1.55536,1.32676 -1.87406,1.5875 -1.61164,1.31851 -2.75085,2.3147 -4.31056,3.76935 -0.94325,0.87973 -1.82257,1.5995 -1.95403,1.5995 -0.13147,0 -0.50417,0.26789 -0.82823,0.59531 -0.32405,0.32743 -1.21999,1.1311 -1.99097,1.78594 -0.77097,0.65484 -1.59105,1.41565 -1.82239,1.69069 -0.23134,0.27504 -1.25406,1.28336 -2.2727,2.24072 -3.06159,2.87738 -7.85943,7.7558 -9.12813,9.28143 -0.65484,0.78746 -1.3523,1.55976 -1.54991,1.71622 -0.96654,0.7653 -3.48772,3.52089 -3.64015,3.9786 -0.0951,0.28551 -0.45449,0.74064 -0.7987,1.01139 -0.3442,0.27075 -0.62582,0.71757 -0.62582,0.99293 0,0.27536 -0.23694,0.62746 -0.52654,0.78244 -0.28959,0.15499 -0.50849,0.36754 -0.48644,0.47233 0.0549,0.26078 -0.50526,1.58641 -0.8381,1.98349 -0.14924,0.17804 -0.52859,0.6661 -0.84298,1.08456 -1.10107,1.4655 -3.33846,2.07336 -5.15985,1.40184 z"
       id="path56"
       inkscape:connector-curvature="0"
       sodipodi:nodetypes="cccccscccccsscccccscscscscccccccccccccccccccccscssccccccccscccssssccccccccccscsscccccccccccscccccccccccsccccscsccsscccsssccsscsccccscccscccsccscccccccscccsscccccsscccccccsccccscccccccssscssssccssccsccccccsccscccccssccscscscscssccscccscccccccccccccccccccccccccccsccccccccccccsccccccccccccccccccccscccccccscccscccccccssccsccccscssccccccccccccscccccccccccccccccccccccccccscccccccccccscccscccscscccccccccccssccscsccccccscccsccsccsscscssssssscccccccscsccssccccscccccccscscsccscccccsssccccsccccscccccsccccsccccscsscscsccccscscccccccccsscsccscccssccsccsscsscscccccccsccccscccscccsccccccsscccccccccccccccsscccccccccccsscccsccscccscccscccscssscccscssccscscccscscscscscccccsccscccccsccccs" />
  </g>
</svg>
