<svg id="ba4da4ed-056d-48a8-87a4-3be87933ba39" data-name="Capa 1" xmlns="http://www.w3.org/2000/svg" xmlns:xlink="http://www.w3.org/1999/xlink" width="2021.96" height="338.61" viewBox="0 0 2021.96 338.61">
  <defs>
    <linearGradient id="a8d4ea87-1a80-4d7e-81a4-891ca1206483" data-name="Degradado sin nombre 5" x1="5958.36" y1="10846.83" x2="6097.05" y2="10740.81" gradientTransform="matrix(1, 0, 0, -1, 1524, 17332.37)" gradientUnits="userSpaceOnUse">
      <stop offset="0" stop-color="#00b5fc"/>
      <stop offset="1" stop-color="#007fea"/>
    </linearGradient>
    <linearGradient id="ecef5398-2fdd-4c69-86cb-4e1659323b58" data-name="Degradado sin nombre 2" x1="6112.59" y1="10874.95" x2="6295.19" y2="10735.31" gradientTransform="matrix(1, 0, 0, -1, 1524, 17332.37)" gradientUnits="userSpaceOnUse">
      <stop offset="0" stop-color="#00e7fd"/>
      <stop offset="1" stop-color="#00c1f0"/>
    </linearGradient>
    <linearGradient id="a531424a-088a-4196-898b-a57ff7a8a2f9" data-name="Degradado sin nombre 3" x1="5950.44" y1="10716" x2="6103.48" y2="10598.99" gradientTransform="matrix(1, 0, 0, -1, 1524, 17332.37)" gradientUnits="userSpaceOnUse">
      <stop offset="0" stop-color="#016eed"/>
      <stop offset="1" stop-color="#0025c8"/>
    </linearGradient>
    <linearGradient id="a621b17b-1260-4ea8-bc40-d2a277061133" data-name="Degradado sin nombre 4" x1="6109.02" y1="10717.46" x2="6297.4" y2="10573.42" gradientTransform="matrix(1, 0, 0, -1, 1524, 17332.37)" gradientUnits="userSpaceOnUse">
      <stop offset="0" stop-color="#03d6fa"/>
      <stop offset="1" stop-color="#0084e7"/>
    </linearGradient>
  </defs>
  <g>
    <path d="M7614.86,6467.35v132.23a1.42,1.42,0,0,1-1.37,1.47h-137a1.43,1.43,0,0,1-1.47-1.37V6502a19.59,19.59,0,0,1,16.94-19.59l121.26-16.65a1.4,1.4,0,0,1,1.65,1.13A1.29,1.29,0,0,1,7614.86,6467.35Z" transform="translate(-7475 -6439.04)" style="fill: url(#a8d4ea87-1a80-4d7e-81a4-891ca1206483)"/>
    <path d="M7817,6458.64v140.74a1.42,1.42,0,0,1-1.37,1.47H7633.18a1.41,1.41,0,0,1-1.47-1.37V6464.32a1.47,1.47,0,0,1,1.27-1.47l161.6-23.6a19.59,19.59,0,0,1,22.23,16.54A20.78,20.78,0,0,1,7817,6458.64Z" transform="translate(-7475 -6439.04)" style="fill: url(#ecef5398-2fdd-4c69-86cb-4e1659323b58)"/>
    <path d="M7614.86,6617.16v132.22a1.42,1.42,0,0,1-1.4,1.44l-.26,0-121.26-16.9a19.59,19.59,0,0,1-16.94-19.59v-98.67h138.39a1.41,1.41,0,0,1,1.47,1.37A.75.75,0,0,1,7614.86,6617.16Z" transform="translate(-7475 -6439.04)" style="fill: url(#a531424a-088a-4196-898b-a57ff7a8a2f9)"/>
    <path d="M7817,6617.16v140.69a19.63,19.63,0,0,1-22.43,19.59L7633,6753.83a1.45,1.45,0,0,1-1.27-1.47v-135.2a1.41,1.41,0,0,1,1.37-1.47h182.46a1.41,1.41,0,0,1,1.47,1.37Z" transform="translate(-7475 -6439.04)" style="fill: url(#a621b17b-1260-4ea8-bc40-d2a277061133)"/>
    <path d="M8177,6498.75l-55.88,212h-27.18l-40.74-154.89a103.67,103.67,0,0,1-3.13-21.6h-.59a113.81,113.81,0,0,1-3.58,21.3l-41,155.19H7978l-58-212h25.56l42.07,162.48a115.31,115.31,0,0,1,3.33,21.3h.68a130,130,0,0,1,4.26-21.3l43.73-162.63h22.24l42,163.81a128.49,128.49,0,0,1,3.29,19.58h.58a119.09,119.09,0,0,1,3.73-20.42l40.4-163.22Z" transform="translate(-7475 -6439.04)" style="fill: #004bb3"/>
    <path d="M8214.9,6520.93a13.8,13.8,0,0,1-10.33-4.41,15.46,15.46,0,0,1-4.31-11.26,15.7,15.7,0,0,1,4.31-11.31,13.69,13.69,0,0,1,10.33-4.51,14.27,14.27,0,0,1,10.58,4.51,15.78,15.78,0,0,1,4.31,11.31,15.6,15.6,0,0,1-4.31,11.11A14.09,14.09,0,0,1,8214.9,6520.93Zm11,189.81h-22.63V6559.37h22.63Z" transform="translate(-7475 -6439.04)" style="fill: #004bb3"/>
    <path d="M8389,6710.74h-22.77V6624.4q0-48.18-32.86-48.18a34.62,34.62,0,0,0-28.06,13.66,53.23,53.23,0,0,0-11.12,34.28v86.58h-22.47V6559.37h22.62v25.12h.54q16-28.65,46.37-28.64a41.91,41.91,0,0,1,35.46,16q12.27,16.08,12.29,46.37Z" transform="translate(-7475 -6439.04)" style="fill: #004bb3"/>
    <path d="M8552.36,6710.74h-22.63V6685h-.58a54.85,54.85,0,0,1-91.14,9q-15.92-20.33-15.91-55.38,0-37.51,17.63-60.19a56.82,56.82,0,0,1,47.06-22.57,44.65,44.65,0,0,1,42.36,24.48h.58v-93.68h22.63Zm-22.63-68.56V6620a45,45,0,0,0-11.36-31.05,36.69,36.69,0,0,0-28.69-12.73,38.24,38.24,0,0,0-32.62,16.45q-11.8,16.31-11.85,45,0,26.15,11.36,41.33a36.34,36.34,0,0,0,30.61,15.13,37.55,37.55,0,0,0,30.7-14.69,57.11,57.11,0,0,0,11.8-37.07Z" transform="translate(-7475 -6439.04)" style="fill: #004bb3"/>
    <path d="M8657.16,6714.31a63.62,63.62,0,0,1-50-21.2q-18.76-21.26-18.71-56.27,0-38.15,19.59-59.59t52.59-21.4q31.59,0,49.32,20.81t17.72,57.83q0,36.24-19.1,58A64.69,64.69,0,0,1,8657.16,6714.31Zm1.66-138.09a41.63,41.63,0,0,0-34.28,15.91q-12.68,15.87-12.73,44.08c0,17.92,4.31,32.07,12.83,42.4a42.24,42.24,0,0,0,34.28,15.53,40.08,40.08,0,0,0,33.74-15.23q11.51-15.43,11.51-43.54c0-18.95-3.92-33.49-11.8-43.78a40.08,40.08,0,0,0-33.55-15.37Z" transform="translate(-7475 -6439.04)" style="fill: #004bb3"/>
    <path d="M8941.72,6559.37l-42.4,151.37h-23.46l-29.09-108.27a72.72,72.72,0,0,1-2.2-14.06H8844a71.26,71.26,0,0,1-2.94,13.71l-31.59,108.67h-22.62l-42.8-151.42h23.75l29.38,113.86a73.05,73.05,0,0,1,2,13.56h1.08a69.78,69.78,0,0,1,2.5-13.9l32.56-113.52H8856l29.38,114.15a87.61,87.61,0,0,1,2.1,13.57h1.08a68.6,68.6,0,0,1,2.35-13.57l28.7-114.15Z" transform="translate(-7475 -6439.04)" style="fill: #004bb3"/>
    <path d="M8959.35,6705.3v-26.05a64,64,0,0,0,40.7,14.69q29.82,0,29.82-21.3a19.27,19.27,0,0,0-2.54-10.23,26.45,26.45,0,0,0-6.91-7.5,52.44,52.44,0,0,0-10.19-5.82c-3.91-1.72-8.12-3.53-12.63-5.39a158.35,158.35,0,0,1-16.5-8.08,49.79,49.79,0,0,1-11.85-9.16,34,34,0,0,1-7.2-11.61,43.32,43.32,0,0,1-2.4-15.22,38.25,38.25,0,0,1,4.55-18.86,43,43,0,0,1,12.15-13.76,54.92,54.92,0,0,1,17.28-8.32,72.9,72.9,0,0,1,20.13-2.8,76.76,76.76,0,0,1,32.81,6.76v24.49a60.8,60.8,0,0,0-35.85-11,38.94,38.94,0,0,0-11.45,1.57,26.68,26.68,0,0,0-8.77,4.35,19.56,19.56,0,0,0-5.68,6.71,19.06,19.06,0,0,0-2,8.77,22.05,22.05,0,0,0,2,9.79,20.62,20.62,0,0,0,5.88,7.1,42.73,42.73,0,0,0,9.35,5.63c3.72,1.67,7.88,3.48,12.58,5.44a186.07,186.07,0,0,1,16.85,7.93,58.11,58.11,0,0,1,12.59,9.21,37.31,37.31,0,0,1,8.08,11.75,40.94,40.94,0,0,1,2.84,15.82,39.56,39.56,0,0,1-4.66,19.59,41.28,41.28,0,0,1-12.34,13.71,53.57,53.57,0,0,1-17.82,8.13,80.42,80.42,0,0,1-21.11,2.69A76.26,76.26,0,0,1,8959.35,6705.3Z" transform="translate(-7475 -6439.04)" style="fill: #004bb3"/>
    <path d="M9178.6,6710.74H9156V6527.59a53,53,0,0,1-7.69,6.32,116.78,116.78,0,0,1-11.31,7.19c-4.16,2.36-8.57,4.56-13.22,6.66a91.66,91.66,0,0,1-13.61,4.9v-24.48a127.08,127.08,0,0,0,15.81-6q8.31-3.81,16.41-8.42c5.38-3.09,10.48-6.37,15.28-9.79a132.94,132.94,0,0,0,12.39-9.8h8.57Z" transform="translate(-7475 -6439.04)" style="fill: #004bb3"/>
    <path d="M9332.61,6603.89a222.2,222.2,0,0,1-4.51,47.15,114.55,114.55,0,0,1-13,34.68,59.88,59.88,0,0,1-20.82,21.4,53.93,53.93,0,0,1-28.1,7.34,50.48,50.48,0,0,1-26.55-7.05,57.53,57.53,0,0,1-19.59-20.47,108.94,108.94,0,0,1-12.09-33,216.21,216.21,0,0,1-4.16-44.9,247.53,247.53,0,0,1,4.35-49,117.61,117.61,0,0,1,12.64-36,59.16,59.16,0,0,1,20.91-21.74,55.93,55.93,0,0,1,28.65-7.3Q9332.56,6495.22,9332.61,6603.89Zm-23.21,2.35q0-90.51-40.16-90.5-42.31,0-42.36,92.11,0,85.95,41.58,85.9T9309.4,6606.24Z" transform="translate(-7475 -6439.04)" style="fill: #004bb3"/>
    <path d="M9497,6710.74h-28.31l-45.54-81.14a77.23,77.23,0,0,1-4.56-10.48H9418c-.93,2.25-2.49,5.72-4.89,10.48l-46.92,81.14h-28.4l66.65-106.56-61.21-105.43h28.4l40.45,74.33q3.89,7.17,7,14.69h.54a163.62,163.62,0,0,1,7.74-15.37l42.06-73.95h26.64l-62.29,105.44Z" transform="translate(-7475 -6439.04)" style="fill: #004bb3"/>
  </g>
</svg>
