<?xml version="1.0" encoding="UTF-8" standalone="no"?>
<svg
   xmlns:dc="http://purl.org/dc/elements/1.1/"
   xmlns:cc="http://creativecommons.org/ns#"
   xmlns:rdf="http://www.w3.org/1999/02/22-rdf-syntax-ns#"
   xmlns:svg="http://www.w3.org/2000/svg"
   xmlns="http://www.w3.org/2000/svg"
   xmlns:sodipodi="http://sodipodi.sourceforge.net/DTD/sodipodi-0.dtd"
   xmlns:inkscape="http://www.inkscape.org/namespaces/inkscape"
   width="526.98859"
   height="87.599998"
   version="1.1"
   id="svg22"
   sodipodi:docname="Windows_8.1_logo.svg"
   style="fill:#0078d6"
   inkscape:version="0.92.3 (2405546, 2018-03-11)">
  <metadata
     id="metadata28">
    <rdf:RDF>
      <cc:Work
         rdf:about="">
        <dc:format>image/svg+xml</dc:format>
        <dc:type
           rdf:resource="http://purl.org/dc/dcmitype/StillImage" />
        <dc:title></dc:title>
      </cc:Work>
    </rdf:RDF>
  </metadata>
  <defs
     id="defs26" />
  <sodipodi:namedview
     pagecolor="#ffffff"
     bordercolor="#666666"
     borderopacity="1"
     objecttolerance="10"
     gridtolerance="10"
     guidetolerance="10"
     inkscape:pageopacity="0"
     inkscape:pageshadow="2"
     inkscape:window-width="1366"
     inkscape:window-height="705"
     id="namedview24"
     showgrid="false"
     inkscape:zoom="2.8284271"
     inkscape:cx="142.09427"
     inkscape:cy="55.223182"
     inkscape:window-x="-8"
     inkscape:window-y="-8"
     inkscape:window-maximized="1"
     inkscape:current-layer="svg22"
     fit-margin-top="0"
     fit-margin-left="0"
     fit-margin-right="0"
     fit-margin-bottom="0" />
  <g
     id="g835">
    <path
       inkscape:connector-curvature="0"
       style="fill:#00adef;fill-opacity:1"
       id="path2"
       d="m 0,12.49 35.7,-4.9 v 34.5 H 0 M 40,6.91 87.3,0 V 41.8 H 40 M 0,45.74 h 35.7 v 34.6 L 0,75.34 M 40,46.2 H 87.3 V 87.6 L 40,80.9" />
    <g
       transform="matrix(1.0519785,0,0,1.0519785,-5.9229547,-3.6941152)"
       id="text837"
       style="font-style:normal;font-variant:normal;font-weight:normal;font-stretch:normal;font-size:72.24679565px;line-height:1.25;font-family:'Segoe UI';-inkscape-font-specification:'Segoe UI';letter-spacing:0px;word-spacing:0px;fill:#00adef;fill-opacity:1;stroke:none;stroke-width:1.80616987"
       aria-label="Windows 8.1">
      <path
         inkscape:connector-curvature="0"
         id="path875"
         style="fill:#00adef;fill-opacity:1;stroke-width:1.80616987"
         d="m 179.63531,19.63649 -14.28709,50.586868 h -6.94952 l -10.40664,-36.97004 q -0.67026,-2.363542 -0.81137,-5.150406 h -0.14111 q -0.21166,2.61048 -0.91719,5.079853 l -10.4772,37.040593 h -6.87897 L 113.94999,19.63649 h 6.5262 l 10.75941,38.804432 q 0.67026,2.434096 0.84664,5.079853 h 0.17638 q 0.17639,-1.869668 1.09358,-5.079853 L 144.53493,19.63649 h 5.67956 l 10.72414,39.086646 q 0.56442,2.010775 0.84664,4.727085 h 0.1411 q 0.14111,-1.834391 0.95248,-4.868192 L 173.21494,19.63649 Z" />
      <path
         inkscape:connector-curvature="0"
         id="path877"
         style="fill:#00adef;fill-opacity:1;stroke-width:1.80616987"
         d="m 189.30114,24.928004 q -1.55218,0 -2.64576,-1.058303 -1.09358,-1.058302 -1.09358,-2.681033 0,-1.622731 1.09358,-2.681034 1.09358,-1.093579 2.64576,-1.093579 1.58745,0 2.68103,1.093579 1.12886,1.058303 1.12886,2.681034 0,1.552177 -1.12886,2.645756 -1.09358,1.09358 -2.68103,1.09358 z m 2.82214,45.295354 h -5.78539 V 34.09996 h 5.78539 z" />
      <path
         inkscape:connector-curvature="0"
         id="path879"
         style="fill:#00adef;fill-opacity:1;stroke-width:1.80616987"
         d="m 233.8204,70.223358 h -5.78539 V 49.621733 q 0,-11.500223 -8.39586,-11.500223 -4.33905,0 -7.19646,3.280739 -2.82214,3.245461 -2.82214,8.219484 v 20.601625 h -5.78539 V 34.09996 h 5.78539 v 5.997049 h 0.1411 q 4.09211,-6.843691 11.85299,-6.843691 5.9265,0 9.06613,3.845167 3.13963,3.809889 3.13963,11.041624 z" />
      <path
         inkscape:connector-curvature="0"
         id="path881"
         style="fill:#00adef;fill-opacity:1;stroke-width:1.80616987"
         d="m 275.58808,70.223358 h -5.78539 v -6.138155 h -0.14111 Q 265.64003,71.07 257.24417,71.07 q -6.80842,0 -10.90052,-4.832915 -4.05683,-4.868193 -4.05683,-13.228784 0,-8.960296 4.51543,-14.357639 4.51542,-5.397344 12.02937,-5.397344 7.4434,0 10.82996,5.855942 h 0.14111 V 16.743797 h 5.78539 z M 269.80269,53.89022 v -5.32679 q 0,-4.374318 -2.89269,-7.408119 -2.8927,-3.033801 -7.33757,-3.033801 -5.29151,0 -8.32531,3.880444 -3.0338,3.880443 -3.0338,10.724133 0,6.243986 2.89269,9.877492 2.92797,3.598229 7.83144,3.598229 4.83292,0 7.83144,-3.492399 3.0338,-3.492399 3.0338,-8.819189 z" />
      <path
         inkscape:connector-curvature="0"
         id="path883"
         style="fill:#00adef;fill-opacity:1;stroke-width:1.80616987"
         d="m 302.46897,71.07 q -8.00783,0 -12.80547,-5.044576 -4.76236,-5.079853 -4.76236,-13.440444 0,-9.101403 4.97402,-14.216532 4.97403,-5.11513 13.44045,-5.11513 8.07837,0 12.5938,4.974023 4.5507,4.974022 4.5507,13.793211 0,8.642805 -4.90347,13.863765 Q 310.68845,71.07 302.46897,71.07 Z m 0.42332,-32.94849 q -5.57373,0 -8.81919,3.80989 -3.24546,3.774613 -3.24546,10.44192 0,6.420369 3.28073,10.124429 3.28074,3.704059 8.78392,3.704059 5.609,0 8.60752,-3.633506 3.03381,-3.633506 3.03381,-10.336089 0,-6.773137 -3.03381,-10.44192 -2.99852,-3.668783 -8.60752,-3.668783 z" />
      <path
         inkscape:connector-curvature="0"
         id="path885"
         style="fill:#00adef;fill-opacity:1;stroke-width:1.80616987"
         d="m 375.20964,34.09996 -10.82997,36.123398 h -5.99705 l -7.44339,-25.857862 q -0.42332,-1.481624 -0.56443,-3.351292 h -0.14111 q -0.10583,1.269964 -0.74081,3.280739 l -8.07838,25.928415 h -5.78538 L 324.69332,34.09996 h 6.0676 l 7.47868,27.163102 q 0.35276,1.234687 0.49387,3.245462 h 0.28221 q 0.10583,-1.552178 0.63499,-3.316015 l 8.32531,-27.092549 h 5.29151 l 7.47868,27.233656 q 0.35276,1.30524 0.52915,3.245461 h 0.28221 q 0.0706,-1.375793 0.59971,-3.245461 L 369.4948,34.09996 Z" />
      <path
         inkscape:connector-curvature="0"
         id="path887"
         style="fill:#00adef;fill-opacity:1;stroke-width:1.80616987"
         d="m 379.72507,68.918118 v -6.208709 q 4.72709,3.492399 10.40665,3.492399 7.61977,0 7.61977,-5.079853 0,-1.446347 -0.67025,-2.434096 -0.63499,-1.023026 -1.76384,-1.799114 -1.09358,-0.776089 -2.61048,-1.375794 -1.48163,-0.634982 -3.21019,-1.30524 -2.39882,-0.952472 -4.23321,-1.904945 -1.79911,-0.987749 -3.0338,-2.187159 -1.19941,-1.234686 -1.83439,-2.786863 -0.5997,-1.552178 -0.5997,-3.633506 0,-2.539927 1.16413,-4.480148 1.16413,-1.975498 3.10435,-3.280738 1.94022,-1.340517 4.4096,-2.010775 2.50465,-0.670259 5.1504,-0.670259 4.69181,0 8.39587,1.622731 v 5.855941 q -3.98627,-2.61048 -9.17195,-2.61048 -1.62274,0 -2.92798,0.388045 -1.30524,0.352767 -2.25771,1.023026 -0.91719,0.670258 -1.44634,1.62273 -0.49388,0.917196 -0.49388,2.046052 0,1.411071 0.49388,2.363543 0.52915,0.952472 1.5169,1.693284 0.98774,0.740812 2.39882,1.340517 1.41107,0.599705 3.21018,1.30524 2.39882,0.917196 4.30376,1.904945 1.90495,0.952472 3.24547,2.187159 1.34051,1.199409 2.04605,2.786863 0.74081,1.587454 0.74081,3.774613 0,2.681034 -1.19941,4.656532 -1.16413,1.975498 -3.13963,3.280738 -1.9755,1.30524 -4.5507,1.940222 Q 392.21304,71.07 389.3909,71.07 q -5.57372,0 -9.66583,-2.151882 z" />
      <path
         inkscape:connector-curvature="0"
         id="path889"
         style="fill:#00adef;fill-opacity:1;stroke-width:1.80616987"
         d="m 429.60641,56.112656 q 0,-2.010775 0.63498,-4.02155 0.63498,-2.046052 1.79912,-3.80989 1.19941,-1.763838 2.92797,-3.210185 1.76384,-1.446347 3.98627,-2.292989 -3.28074,-1.834391 -5.22096,-4.691808 -1.94022,-2.892694 -1.94022,-6.385093 0,-2.786864 1.0583,-5.150406 1.09358,-2.363543 2.99853,-4.092104 1.90494,-1.728561 4.51542,-2.681033 2.61048,-0.98775 5.64428,-0.98775 3.06908,0 5.67956,0.98775 2.61048,0.987749 4.51543,2.71631 1.90494,1.728561 2.96324,4.092103 1.05831,2.363543 1.05831,5.11513 0,3.492399 -1.94023,6.385093 -1.94022,2.857417 -5.1504,4.691808 2.18716,0.846642 3.91572,2.292989 1.72856,1.446347 2.89269,3.210185 1.19941,1.763838 1.83439,3.80989 0.63498,2.010775 0.63498,4.02155 0,3.316015 -1.19941,6.067602 -1.19941,2.751587 -3.38656,4.727085 -2.15189,1.940222 -5.18569,3.033801 -2.99852,1.09358 -6.63203,1.09358 -3.59823,0 -6.59675,-1.09358 -2.99852,-1.093579 -5.18568,-3.033801 -2.18716,-1.975498 -3.42185,-4.727085 -1.19941,-2.751587 -1.19941,-6.067602 z m 6.27926,-0.493875 q 0,2.363543 0.70554,4.268488 0.74081,1.904945 2.04605,3.245461 1.34052,1.340517 3.21019,2.081329 1.90494,0.705535 4.19793,0.705535 2.22244,0 4.0921,-0.740812 1.86967,-0.740812 3.21019,-2.081328 1.37579,-1.340517 2.1166,-3.245462 0.77609,-1.904945 0.77609,-4.233211 0,-2.116605 -0.74081,-3.950996 -0.70554,-1.869668 -2.04605,-3.280739 -1.34052,-1.41107 -3.21019,-2.222435 -1.86966,-0.811366 -4.19793,-0.811366 -2.18716,0 -4.05683,0.776089 -1.83439,0.740812 -3.21018,2.116605 -1.34052,1.340517 -2.11661,3.245462 -0.77609,1.869668 -0.77609,4.12738 z m 1.79912,-23.459042 q 0,1.799114 0.63498,3.351292 0.67026,1.5169 1.79911,2.681033 1.16414,1.128856 2.68104,1.799115 1.5169,0.634981 3.24546,0.634981 1.72856,0 3.24546,-0.670258 1.55218,-0.670259 2.68103,-1.799115 1.12886,-1.164133 1.79912,-2.681033 0.67026,-1.552177 0.67026,-3.316015 0,-1.834392 -0.67026,-3.386569 -0.63498,-1.552177 -1.76384,-2.681033 -1.12886,-1.128856 -2.68103,-1.763838 -1.5169,-0.670258 -3.28074,-0.670258 -1.86967,0 -3.42185,0.670258 -1.5169,0.670258 -2.64575,1.834391 -1.09358,1.128856 -1.69329,2.681034 -0.5997,1.552177 -0.5997,3.316015 z" />
      <path
         inkscape:connector-curvature="0"
         id="path891"
         style="fill:#00adef;fill-opacity:1;stroke-width:1.80616987"
         d="m 473.24375,70.999447 q -1.62273,0 -2.78687,-1.164133 -1.12885,-1.164133 -1.12885,-2.786864 0,-1.622731 1.12885,-2.786864 1.16414,-1.199409 2.78687,-1.199409 1.658,0 2.82214,1.199409 1.16413,1.164133 1.16413,2.786864 0,1.622731 -1.16413,2.786864 -1.16414,1.164133 -2.82214,1.164133 z" />
      <path
         inkscape:connector-curvature="0"
         id="path893"
         style="fill:#00adef;fill-opacity:1;stroke-width:1.80616987"
         d="m 506.58027,70.223358 h -5.78539 v -43.7079 q -0.67025,0.670258 -1.97549,1.552177 -1.26997,0.846642 -2.8927,1.693284 -1.58745,0.846643 -3.38657,1.587454 -1.76383,0.740812 -3.45712,1.164133 v -5.855941 q 1.90495,-0.529151 4.02155,-1.41107 2.15188,-0.917196 4.19794,-2.010775 2.08132,-1.128857 3.91572,-2.328266 1.83439,-1.234687 3.1749,-2.39882 h 2.18716 z" />
    </g>
  </g>
</svg>
