<svg id="a62ae8af-aee8-4216-b5f9-625bee8cc9e4" data-name="Capa 1" xmlns="http://www.w3.org/2000/svg" width="220.86" height="256.94" viewBox="0 0 220.86 256.94">
  <g>
    <g id="e3030a22-9c5b-4121-a37d-3eb178b429e5" data-name="g3837">
      <g id="b2ff63e0-36a9-4b9c-af66-47b4e5f7c2a7" data-name="g3238">
        <path id="b1876f82-8e37-4774-8173-0038319b03ac" data-name="path3037-4" d="M7694.88,6672.9v146.37c31.31-18.18,64.55-16.39,99.28.45V6674.54c-34.43-16.4-67.38-15.51-99.28-1.64" transform="translate(-7580.26 -6662.37)" style="fill: #666;fill-rule: evenodd"/>
        <path id="ef9c5709-0038-48ef-aa5a-e01fcdafde8a" data-name="path3039-0" d="M7673.42,6683.18v18.48l18.48-9.68v-17.74l-18.48,8.94" transform="translate(-7580.26 -6662.37)" style="fill: #666;fill-rule: evenodd"/>
        <path id="bc405bf9-d282-4eb0-a9a2-a5a634e9d590" data-name="path3041-9" d="M7673.42,6704.35v18.48l18.48-9.69v-17.89l-18.48,9.1" transform="translate(-7580.26 -6662.37)" style="fill: #666;fill-rule: evenodd"/>
        <path id="b468cb86-2fea-49f2-9d9a-1d96b22c9147" data-name="path3043-4" d="M7673.42,6725.22v18.48l18.48-9.54v-17.89l-18.48,8.95" transform="translate(-7580.26 -6662.37)" style="fill: #666;fill-rule: evenodd"/>
        <path id="b064ba31-5c0a-4234-a14a-30bd1de070c4" data-name="path3045-8" d="M7673.42,6746.38v18.49l18.48-9.69v-17.74l-18.48,8.94" transform="translate(-7580.26 -6662.37)" style="fill: #666;fill-rule: evenodd"/>
        <path id="b377ee6c-aad1-44c5-8d3b-340d31175edf" data-name="path3047-8" d="M7673.42,6767.25v18.34l18.48-9.55v-17.88l-18.48,9.09" transform="translate(-7580.26 -6662.37)" style="fill: #666;fill-rule: evenodd"/>
        <path id="a1fff135-da24-472f-90f1-5bda5adc0f69" data-name="path3049-2" d="M7673.42,6788.71v18.49l18.48-9.54v-17.89l-18.48,8.94" transform="translate(-7580.26 -6662.37)" style="fill: #666;fill-rule: evenodd"/>
        <path id="e7170ff1-93cc-433f-87f8-d33925d36981" data-name="path3051-4" d="M7673.42,6809.88v18.49l18.48-9.69v-17.74l-18.48,8.94" transform="translate(-7580.26 -6662.37)" style="fill: #666;fill-rule: evenodd"/>
        <path id="ad0958a7-6964-433d-b8f5-8d1e4ca272d6" data-name="path3053-5" d="M7652.55,6689.59l17.14-8.65v16.7l-17.14,8.65v-16.7" transform="translate(-7580.26 -6662.37)" style="fill: #666;fill-rule: evenodd"/>
        <path id="b95e2b25-4b4e-40af-a6dc-d55cc8e31a39" data-name="path3055-5" d="M7652.55,6710.91l17.14-8.65V6719l-17.14,8.64v-16.69" transform="translate(-7580.26 -6662.37)" style="fill: #666;fill-rule: evenodd"/>
        <path id="b54cc184-f8ce-417a-b0dc-8f25fc9be6f7" data-name="path3057-1" d="M7652.55,6731.18l17.14-8.65v16.7l-17.14,8.64v-16.69" transform="translate(-7580.26 -6662.37)" style="fill: #666;fill-rule: evenodd"/>
        <path id="a10d1ea6-5bfb-4843-9a93-5fd393b156b4" data-name="path3059-7" d="M7652.55,6752.35l17.14-8.65v16.69l-17.14,8.8v-16.84" transform="translate(-7580.26 -6662.37)" style="fill: #666;fill-rule: evenodd"/>
        <path id="a76847fe-46b8-4fcc-8dc6-aa08a5763728" data-name="path3061-1" d="M7652.55,6773.66l17.14-8.64v16.69l-17.14,8.8v-16.85" transform="translate(-7580.26 -6662.37)" style="fill: #666;fill-rule: evenodd"/>
        <path id="fa57b6f4-6e7e-44f1-8a25-3440bacb9dd3" data-name="path3063-1" d="M7652.55,6794.08l17.14-8.65v16.7l-17.14,8.79v-16.84" transform="translate(-7580.26 -6662.37)" style="fill: #666;fill-rule: evenodd"/>
        <path id="adf416ac-9748-4e86-a2ff-5bf90c1161f9" data-name="path3065-5" d="M7652.55,6815.25l17.14-8.65v16.7l-17.14,8.64v-16.69" transform="translate(-7580.26 -6662.37)" style="fill: #666;fill-rule: evenodd"/>
        <path id="a803d230-d809-4751-8884-7eb05c2c1191" data-name="path3067-2" d="M7634.07,6688.85l14.61-6.86v14.61l-14.61,7v-14.75" transform="translate(-7580.26 -6662.37)" style="fill: #666;fill-rule: evenodd"/>
        <path id="e871f8cd-0744-4ccb-acf3-c9b0f7ded419" data-name="path3069-7" d="M7634.07,6710.31l14.61-7v14.75l-14.61,7v-14.76" transform="translate(-7580.26 -6662.37)" style="fill: #666;fill-rule: evenodd"/>
        <path id="bc1cd3c7-8227-4a9c-83e2-c7f6957b1cfb" data-name="path3071-6" d="M7634.07,6730.58l14.61-6.85v14.6l-14.61,7v-14.76" transform="translate(-7580.26 -6662.37)" style="fill: #666;fill-rule: evenodd"/>
        <path id="b50e57c1-60e5-479e-98fb-e9b12ada96dd" data-name="path3073-1" d="M7634.07,6751.75l14.61-6.86v14.61l-14.61,7v-14.76" transform="translate(-7580.26 -6662.37)" style="fill: #666;fill-rule: evenodd"/>
        <path id="bdd8a0c3-5252-4432-985e-eff8dfc65da9" data-name="path3075-4" d="M7634.07,6773.21l14.61-7V6781l-14.61,7v-14.76" transform="translate(-7580.26 -6662.37)" style="fill: #666;fill-rule: evenodd"/>
        <path id="b5d80beb-860b-491f-970c-cef3da69dc24" data-name="path3077-2" d="M7634.07,6793.49l14.61-7v14.76l-14.61,6.85v-14.6" transform="translate(-7580.26 -6662.37)" style="fill: #666;fill-rule: evenodd"/>
        <path id="af8e8df7-9670-4ba8-9907-a6ef1cf8c858" data-name="path3079-3" d="M7634.07,6814.5l14.61-6.85v14.6l-14.61,7V6814.5" transform="translate(-7580.26 -6662.37)" style="fill: #666;fill-rule: evenodd"/>
        <path id="b5007065-7538-4fc7-9341-a0654bc43b08" data-name="path3081-2" d="M7616.93,6700.17l11.92-5.36v-10.88l-11.92,5.66v10.58" transform="translate(-7580.26 -6662.37)" style="fill: #666;fill-rule: evenodd"/>
        <path id="ea824420-e47c-4d8d-9729-8cf39a29be56" data-name="path3083-2" d="M7616.93,6721.49l11.92-5.37v-10.88l-11.92,5.67v10.58" transform="translate(-7580.26 -6662.37)" style="fill: #666;fill-rule: evenodd"/>
        <path id="b85933fa-db72-4d3b-a0b8-1772c17939b1" data-name="path3085-1" d="M7616.93,6741.76l11.92-5.36v-11l-11.92,5.82v10.58" transform="translate(-7580.26 -6662.37)" style="fill: #666;fill-rule: evenodd"/>
        <path id="ba5e770c-80b9-4013-bd7b-af0a5f9c0c75" data-name="path3087-6" d="M7616.93,6762.93l11.92-5.37v-10.88l-11.92,5.67v10.58" transform="translate(-7580.26 -6662.37)" style="fill: #666;fill-rule: evenodd"/>
        <path id="befca957-4d55-4a62-8115-ed3adc2e657d" data-name="path3089-8" d="M7616.93,6784.39l11.92-5.51V6768l-11.92,5.66v10.73" transform="translate(-7580.26 -6662.37)" style="fill: #666;fill-rule: evenodd"/>
        <path id="a82e6c46-eff2-4440-99b8-56bca533c7cb" data-name="path3091-5" d="M7616.93,6804.81l11.92-5.51v-10.88l-11.92,5.66v10.73" transform="translate(-7580.26 -6662.37)" style="fill: #666;fill-rule: evenodd"/>
        <path id="a66a3da9-0b09-4b65-8261-4d1f4165ba98" data-name="path3093-7" d="M7616.93,6825.83l11.92-5.37v-10.88l-11.92,5.67v10.58" transform="translate(-7580.26 -6662.37)" style="fill: #666;fill-rule: evenodd"/>
        <path id="af2381f7-b720-4946-a9b6-11e6464141e4" data-name="path3095-6" d="M7600.83,6682.58l8.64-5.21v9.09l-8.64,4.92v-8.8" transform="translate(-7580.26 -6662.37)" style="fill: #666;fill-rule: evenodd"/>
        <path id="b6f25a23-9921-446b-aceb-d9c7156751cc" data-name="path3097-1" d="M7600.83,6703.9l8.64-5.22v9.24l-8.64,4.78v-8.8" transform="translate(-7580.26 -6662.37)" style="fill: #666;fill-rule: evenodd"/>
        <path id="aaf08844-a323-4f56-83b4-34ff96f429b7" data-name="path3099-8" d="M7600.83,6724.17l8.64-5.21v9.24l-8.64,4.92v-8.95" transform="translate(-7580.26 -6662.37)" style="fill: #666;fill-rule: evenodd"/>
        <path id="e138e925-4e16-41fe-9762-e2d1830d88e8" data-name="path3101-9" d="M7600.83,6745.34l8.64-5.22v9.24l-8.64,4.92v-8.94" transform="translate(-7580.26 -6662.37)" style="fill: #666;fill-rule: evenodd"/>
        <path id="a8f4c89f-3543-493b-9626-e8996a825775" data-name="path3103-2" d="M7600.83,6766.8l8.64-5.21v9.09l-8.64,4.92v-8.8" transform="translate(-7580.26 -6662.37)" style="fill: #666;fill-rule: evenodd"/>
        <path id="b2803662-3afc-46f1-9401-9485e38ad47f" data-name="path3105-7" d="M7600.83,6787.08l8.64-5.22v9.24l-8.64,4.92v-8.94" transform="translate(-7580.26 -6662.37)" style="fill: #666;fill-rule: evenodd"/>
        <path id="a3bc2263-3d2d-462a-a8a9-e2c139d0b8fc" data-name="path3107-9" d="M7600.83,6808.24l8.64-5.21v9.24l-8.64,4.77v-8.8" transform="translate(-7580.26 -6662.37)" style="fill: #666;fill-rule: evenodd"/>
        <path id="ec399016-a38a-4f38-8caa-78429f4ae00e" data-name="path3109-5" d="M7586.07,6677.67l6.71-3.43v6.56l-6.71,3v-6.11" transform="translate(-7580.26 -6662.37)" style="fill: #666;fill-rule: evenodd"/>
        <path id="bc3a6c33-db69-4c4f-8517-df5ae59a44e8" data-name="path3111-4" d="M7586.07,6698.83l6.71-3.28v6.56l-6.71,3v-6.26" transform="translate(-7580.26 -6662.37)" style="fill: #666;fill-rule: evenodd"/>
        <path id="e659fd49-9924-4cb1-90c9-333a9ba9ca7a" data-name="path3113-3" d="M7586.07,6719.1l6.71-3.12v6.55l-6.71,2.83v-6.26" transform="translate(-7580.26 -6662.37)" style="fill: #666;fill-rule: evenodd"/>
        <path id="f1611c98-0383-4300-b727-7037aa419656" data-name="path3115-1" d="M7586.07,6740.27l6.71-3.28v6.56l-6.71,3v-6.26" transform="translate(-7580.26 -6662.37)" style="fill: #666;fill-rule: evenodd"/>
        <path id="ad549f98-9975-46f2-b04c-f79e34c260ac" data-name="path3117-2" d="M7586.07,6761.74l6.71-3.28v6.41l-6.71,3v-6.11" transform="translate(-7580.26 -6662.37)" style="fill: #666;fill-rule: evenodd"/>
        <path id="e20780db-966f-4ec8-81ff-43c545ae8463" data-name="path3119-3" d="M7586.07,6782.16l6.71-3.28v6.41l-6.71,3v-6.11" transform="translate(-7580.26 -6662.37)" style="fill: #666;fill-rule: evenodd"/>
        <path id="b37bb4e9-99c5-4b1d-b221-2cb80d7db0b4" data-name="path3121-3" d="M7586.07,6803.32l6.71-3.42v6.55l-6.71,3v-6.12" transform="translate(-7580.26 -6662.37)" style="fill: #666;fill-rule: evenodd"/>
      </g>
      <g id="ec59cd73-0f4a-42aa-843b-517ad9510e18" data-name="g3283">
        <path id="a4816b67-0a89-4a25-8bc4-cfefc7eed7d7" data-name="path2979" d="M7791.28,6823.13h-.74v3.28h.44v-2.68l1.05,2.68h.59l.9-2.68v2.68h.59v-3.28h-.89l-.9,2.54-1-2.54" transform="translate(-7580.26 -6662.37)" style="fill-rule: evenodd"/>
        <path id="b6691405-7f66-40af-9d3d-beff5e552332" data-name="path2981" d="M7789.79,6823.13h-2.68v.45h1.19v2.83h.45v-2.83h1v-.45" transform="translate(-7580.26 -6662.37)" style="fill-rule: evenodd"/>
        <path id="b2e8ac5c-a524-4363-b755-2d99463a0a38" data-name="path3037" d="M7696,6673.33v146.38c31.3-18.19,64.55-16.4,99.28.44V6675c-34.44-16.4-67.38-15.5-99.28-1.64" transform="translate(-7580.26 -6662.37)" style="fill-rule: evenodd"/>
        <path id="a50fdff2-15d6-4796-85c7-e1198810aad9" data-name="path3039" d="M7674.57,6683.61v18.49l18.48-9.69v-17.74l-18.48,8.94" transform="translate(-7580.26 -6662.37)" style="fill-rule: evenodd"/>
        <path id="ffade696-0c2e-42a3-9114-263098d23d80" data-name="path3041" d="M7674.57,6704.78v18.48l18.48-9.68v-17.89l-18.48,9.09" transform="translate(-7580.26 -6662.37)" style="fill-rule: evenodd"/>
        <path id="eb4d98c4-a96e-448b-918d-9faa25109cd4" data-name="path3043" d="M7674.57,6725.65v18.48l18.48-9.54v-17.88l-18.48,8.94" transform="translate(-7580.26 -6662.37)" style="fill-rule: evenodd"/>
        <path id="aaf630a1-8f35-442c-9397-833827eb0a33" data-name="path3045" d="M7674.57,6746.82v18.48l18.48-9.69v-17.74l-18.48,8.95" transform="translate(-7580.26 -6662.37)" style="fill-rule: evenodd"/>
        <path id="f4b3d54e-553d-4ddd-859e-992f84efd493" data-name="path3047" d="M7674.57,6767.68V6786l18.48-9.54v-17.89l-18.48,9.09" transform="translate(-7580.26 -6662.37)" style="fill-rule: evenodd"/>
        <path id="f9a0d06a-58b7-44d5-84d1-184e2803188b" data-name="path3049" d="M7674.57,6789.15v18.48l18.48-9.54v-17.88l-18.48,8.94" transform="translate(-7580.26 -6662.37)" style="fill-rule: evenodd"/>
        <path id="bdae00af-b81d-4ee7-951b-bcc2768d19aa" data-name="path3051" d="M7674.57,6810.31v18.49l18.48-9.69v-17.74l-18.48,8.94" transform="translate(-7580.26 -6662.37)" style="fill-rule: evenodd"/>
        <path id="b77174b6-137d-48b8-9ea0-e0771fb90e68" data-name="path3053" d="M7653.7,6690l17.14-8.64v16.69l-17.14,8.65V6690" transform="translate(-7580.26 -6662.37)" style="fill-rule: evenodd"/>
        <path id="afbad9e9-e679-4f38-be5a-bfc88a64c10f" data-name="path3055" d="M7653.7,6711.34l17.14-8.65v16.7L7653.7,6728v-16.69" transform="translate(-7580.26 -6662.37)" style="fill: #fe0000;fill-rule: evenodd"/>
        <path id="a7796e8e-3c83-43cc-a609-422f00b348eb" data-name="path3057" d="M7653.7,6731.61l17.14-8.64v16.69l-17.14,8.65v-16.7" transform="translate(-7580.26 -6662.37)" style="fill: #fe0000;fill-rule: evenodd"/>
        <path id="b725bd51-5bbf-4a35-82cf-c462e8c2e62b" data-name="path3059" d="M7653.7,6752.78l17.14-8.65v16.7l-17.14,8.79v-16.84" transform="translate(-7580.26 -6662.37)" style="fill-rule: evenodd"/>
        <path id="bee0b676-f045-46b7-bcf6-4bd1bd0db1cd" data-name="path3061" d="M7653.7,6774.09l17.14-8.64v16.69l-17.14,8.8v-16.85" transform="translate(-7580.26 -6662.37)" style="fill: #0000fe;fill-rule: evenodd"/>
        <path id="fcb6b449-571d-42e5-b827-c5589fa39828" data-name="path3063" d="M7653.7,6794.52l17.14-8.65v16.69l-17.14,8.8v-16.84" transform="translate(-7580.26 -6662.37)" style="fill: #0000fe;fill-rule: evenodd"/>
        <path id="e49f27e8-c5bc-4a64-930a-ba0f96adea5b" data-name="path3065" d="M7653.7,6815.68l17.14-8.64v16.69l-17.14,8.64v-16.69" transform="translate(-7580.26 -6662.37)" style="fill-rule: evenodd"/>
        <path id="afebffb3-12f9-4fe9-bd3e-6e6654452e75" data-name="path3067" d="M7635.22,6689.28l14.6-6.86V6697l-14.6,7v-14.76" transform="translate(-7580.26 -6662.37)" style="fill-rule: evenodd"/>
        <path id="f21918d1-7575-4eb7-9160-bda0d350a77b" data-name="path3069" d="M7635.22,6710.74l14.6-7v14.75l-14.6,7v-14.76" transform="translate(-7580.26 -6662.37)" style="fill: #fe0000;fill-rule: evenodd"/>
        <path id="f2e889d6-66f3-42a4-83f8-af89d57e7521" data-name="path3071" d="M7635.22,6731l14.6-6.85v14.61l-14.6,7V6731" transform="translate(-7580.26 -6662.37)" style="fill: #fe0000;fill-rule: evenodd"/>
        <path id="b00f73f4-ffb4-4641-9db7-242d7005ed74" data-name="path3073" d="M7635.22,6752.18l14.6-6.85v14.6l-14.6,7v-14.76" transform="translate(-7580.26 -6662.37)" style="fill-rule: evenodd"/>
        <path id="eb50ceff-092e-498e-9fdf-9688c2d30482" data-name="path3075" d="M7635.22,6773.65l14.6-7v14.76l-14.6,7v-14.75" transform="translate(-7580.26 -6662.37)" style="fill: #0000fe;fill-rule: evenodd"/>
        <path id="a60ba110-baec-4e55-ac52-8f3bc827b4ff" data-name="path3077" d="M7635.22,6793.92l14.6-7v14.76l-14.6,6.86v-14.61" transform="translate(-7580.26 -6662.37)" style="fill: #0000fe;fill-rule: evenodd"/>
        <path id="f16d040a-b03d-496d-b4fc-337be5293db5" data-name="path3079" d="M7635.22,6814.94l14.6-6.86v14.61l-14.6,7v-14.75" transform="translate(-7580.26 -6662.37)" style="fill-rule: evenodd"/>
        <path id="a7a3a63e-6312-4e99-a323-86021390a96b" data-name="path3081" d="M7618.07,6700.61l11.93-5.37v-10.88l-11.93,5.66v10.59" transform="translate(-7580.26 -6662.37)" style="fill-rule: evenodd"/>
        <path id="e72d168b-2740-4832-a9b9-1cdbeb4e0e4b" data-name="path3083" d="M7618.07,6721.92l11.93-5.36v-10.88l-11.93,5.66v10.58" transform="translate(-7580.26 -6662.37)" style="fill: #fe0000;fill-rule: evenodd"/>
        <path id="a5303e90-e295-4d99-a22b-d1e1852bf606" data-name="path3085" d="M7618.07,6742.2l11.93-5.37v-11l-11.93,5.81v10.59" transform="translate(-7580.26 -6662.37)" style="fill: #fe0000;fill-rule: evenodd"/>
        <path id="b1aeaa3f-3977-4581-9e6a-9078630e9b3e" data-name="path3087" d="M7618.07,6763.36,7630,6758v-10.88l-11.93,5.67v10.58" transform="translate(-7580.26 -6662.37)" style="fill-rule: evenodd"/>
        <path id="ace5d504-1e54-476b-a398-7009c1fdbf70" data-name="path3089" d="M7618.07,6784.83l11.93-5.52v-10.88l-11.93,5.66v10.74" transform="translate(-7580.26 -6662.37)" style="fill: #0000fe;fill-rule: evenodd"/>
        <path id="a29660d3-1ad0-4a87-a406-57337c4a1c29" data-name="path3091" d="M7618.07,6805.25l11.93-5.52v-10.88l-11.93,5.67v10.73" transform="translate(-7580.26 -6662.37)" style="fill: #0000fe;fill-rule: evenodd"/>
        <path id="e56fbea4-45b7-4f20-85b0-81a059358405" data-name="path3093" d="M7618.07,6826.26l11.93-5.36V6810l-11.93,5.66v10.58" transform="translate(-7580.26 -6662.37)" style="fill-rule: evenodd"/>
        <path id="a0c9a5f1-023b-469e-a44c-074a93110380" data-name="path3095" d="M7602,6683l8.64-5.22v9.09l-8.64,4.92V6683" transform="translate(-7580.26 -6662.37)" style="fill-rule: evenodd"/>
        <path id="a2f0bef0-99fc-41b1-9de1-3985f172232c" data-name="path3097" d="M7602,6704.33l8.64-5.21v9.24l-8.64,4.77v-8.8" transform="translate(-7580.26 -6662.37)" style="fill: #fe0000;fill-rule: evenodd"/>
        <path id="b7f118e5-5e2b-46b2-b252-056ec14fca38" data-name="path3099" d="M7602,6724.61l8.64-5.22v9.24l-8.64,4.92v-8.94" transform="translate(-7580.26 -6662.37)" style="fill: #fe0000;fill-rule: evenodd"/>
        <path id="e299c0f4-75f3-4e89-aea8-86541d14b2c0" data-name="path3101" d="M7602,6745.77l8.64-5.22v9.25l-8.64,4.92v-8.95" transform="translate(-7580.26 -6662.37)" style="fill-rule: evenodd"/>
        <path id="b806acac-b599-49dc-b8fe-be8d84a35232" data-name="path3103" d="M7602,6767.23l8.64-5.21v9.09L7602,6776v-8.8" transform="translate(-7580.26 -6662.37)" style="fill: #0000fe;fill-rule: evenodd"/>
        <path id="bbcecda9-70fb-4f55-bfb7-a7f47e482640" data-name="path3105" d="M7602,6787.51l8.64-5.22v9.24l-8.64,4.92v-8.94" transform="translate(-7580.26 -6662.37)" style="fill: #0000fe;fill-rule: evenodd"/>
        <path id="af3f97cc-03b7-4f17-b6d0-17784bdafc65" data-name="path3107" d="M7602,6808.68l8.64-5.22v9.24l-8.64,4.77v-8.79" transform="translate(-7580.26 -6662.37)" style="fill-rule: evenodd"/>
        <path id="a633c8a8-842b-48ae-8d38-80342b72d65a" data-name="path3109" d="M7587.22,6678.1l6.71-3.43v6.56l-6.71,3v-6.11" transform="translate(-7580.26 -6662.37)" style="fill-rule: evenodd"/>
        <path id="eadbdd8c-4f87-4a4e-9012-f306e0322777" data-name="path3111" d="M7587.22,6699.27l6.71-3.28v6.55l-6.71,3v-6.26" transform="translate(-7580.26 -6662.37)" style="fill: #fe0000;fill-rule: evenodd"/>
        <path id="f3cef6d3-3a55-41d0-9065-02b5d7c8d8aa" data-name="path3113" d="M7587.22,6719.54l6.71-3.13V6723l-6.71,2.83v-6.26" transform="translate(-7580.26 -6662.37)" style="fill: #fe0000;fill-rule: evenodd"/>
        <path id="a775ecd2-5934-4a2d-9c64-e389568e370a" data-name="path3115" d="M7587.22,6740.7l6.71-3.28V6744l-6.71,3v-6.26" transform="translate(-7580.26 -6662.37)" style="fill-rule: evenodd"/>
        <path id="b2a3c6f8-55e7-4709-97cb-7c095bf0d05f" data-name="path3117" d="M7587.22,6762.17l6.71-3.28v6.41l-6.71,3v-6.11" transform="translate(-7580.26 -6662.37)" style="fill: #0000fe;fill-rule: evenodd"/>
        <path id="a6deca6a-fb28-4a0d-9dd0-c3c90c1a58a6" data-name="path3119" d="M7587.22,6782.59l6.71-3.28v6.41l-6.71,3v-6.11" transform="translate(-7580.26 -6662.37)" style="fill: #0000fe;fill-rule: evenodd"/>
        <path id="be850689-2224-4d30-b2d9-b2653d957094" data-name="path3121" d="M7587.22,6803.76l6.71-3.43v6.56l-6.71,3v-6.11" transform="translate(-7580.26 -6662.37)" style="fill-rule: evenodd"/>
        <path id="ee765b93-4ef9-4f51-a4e9-8f3f346dddbe" data-name="path3123" d="M7695.88,6693.75c13.12-5.81,23.85-8.94,33.24-9.54v46.21c-11.18.89-22.21,4.32-33.24,9.39v-46.06" transform="translate(-7580.26 -6662.37)" style="fill: #fe0000;fill-rule: evenodd"/>
        <path id="a0077a88-ef5d-4e7b-b537-bc3250dc4013" data-name="path3125" d="M7742.09,6682.12v47.26h13.12c5.81,0,15.35,3,19.68,4.62v-46.66a66.8,66.8,0,0,0-32.8-5.22" transform="translate(-7580.26 -6662.37)" style="fill: #007f00;fill-rule: evenodd"/>
        <path id="b9020648-4ce0-4950-839a-f9f5dc9215af" data-name="path3127" d="M7742.09,6742.94v45.46c12.67-.59,22.36,1.35,32.8,4.77v-45.91a66,66,0,0,0-32.8-4.32" transform="translate(-7580.26 -6662.37)" style="fill: #fefe00;fill-rule: evenodd"/>
        <path id="b44eb75e-79c1-4ff7-a026-92a80f32bd65" data-name="path3129" d="M7695.88,6754.27a90.38,90.38,0,0,1,33.24-9.39V6789c-11.77,2.09-23.1,5.22-33.24,10v-44.72" transform="translate(-7580.26 -6662.37)" style="fill: #0000fe;fill-rule: evenodd"/>
      </g>
    </g>
    <g id="b6876ac4-9708-4ad5-ac71-7dd6990e29cb" data-name="g3933">
      <g id="acddf30e-bc78-4383-9471-d50be61711da" data-name="g3793">
        <g id="b748a679-fac8-4634-9fa4-a204c18e7da2" data-name="g3692-6">
          <path id="a7adc7b4-2192-4805-b04b-13b99a440b6a" data-name="path3656-0" d="M7586.94,6852.61v24.46c0,1.61.28,2.64.85,3.1s1.82.73,3.77.82v.65H7580.3V6881c1.95-.09,3.21-.36,3.77-.82s.85-1.49.85-3.1v-24.55a4.7,4.7,0,0,0-1-3.39,4.89,4.89,0,0,0-3.48-1h-.18v-.66h9.45l11.79,26.15,11.43-26.15h9.19v.66c-1.76.09-2.93.42-3.51,1s-.88,1.67-.88,3.29v24.28c0,1.66.29,2.77.89,3.35s1.75.89,3.47.93l0,.65h-13.8l0-.65c1.77-.07,3-.4,3.56-1s.9-1.67.9-3.3v-24.05l-12.62,28.58h-.52Z" transform="translate(-7580.26 -6662.37)"/>
          <path id="abc32e7a-7f1c-42af-bacd-86d5757f8d9b" data-name="path3658-2" d="M7627.69,6859.74a3.48,3.48,0,0,0-.7-2.55,4.47,4.47,0,0,0-2.83-.68V6856h10.72v.49a4.64,4.64,0,0,0-2.83.71,3.4,3.4,0,0,0-.7,2.52V6878a3.46,3.46,0,0,0,.69,2.54,4.6,4.6,0,0,0,2.84.68v.47h-10.72v-.47a4.52,4.52,0,0,0,2.82-.72,3.38,3.38,0,0,0,.71-2.5Z" transform="translate(-7580.26 -6662.37)"/>
          <path id="aea1b0ab-dba6-4d17-8cac-88211e955136" data-name="path3660-4" d="M7657.54,6855.55h.44l.69,8h-.33a10.18,10.18,0,0,0-3-5,7.48,7.48,0,0,0-5-1.75,8,8,0,0,0-6.68,3.07q-2.4,3.08-2.4,8.59,0,5.81,2.42,9a8,8,0,0,0,6.78,3.18,9,9,0,0,0,4.57-1.22,11.69,11.69,0,0,0,3.75-3.56l.59.37a11.87,11.87,0,0,1-4.14,4.44,10.78,10.78,0,0,1-5.68,1.52,12.59,12.59,0,0,1-4.9-.95,11.47,11.47,0,0,1-3.95-2.79,12.86,12.86,0,0,1-2.62-4.21,13.91,13.91,0,0,1-.9-5,15.39,15.39,0,0,1,1-5.73,12.67,12.67,0,0,1,3-4.51,12.32,12.32,0,0,1,8.61-3.38,11.6,11.6,0,0,1,4.2.81,18.2,18.2,0,0,0,2.29.81,1.05,1.05,0,0,0,.91-.4,2.06,2.06,0,0,0,.34-1.22Z" transform="translate(-7580.26 -6662.37)"/>
          <path id="f9dd7899-1a77-472b-bdea-765548bc605e" data-name="path3662-8" d="M7670.76,6869.44h-2.08V6878a3.46,3.46,0,0,0,.69,2.54,4.6,4.6,0,0,0,2.84.68v.47h-10.72v-.47a4.48,4.48,0,0,0,2.82-.72,3.38,3.38,0,0,0,.71-2.5v-18.21a3.44,3.44,0,0,0-.7-2.55,4.47,4.47,0,0,0-2.83-.68V6856H7670q5.85,0,8.25,1.52t2.4,5.1a5.83,5.83,0,0,1-1.55,4.18,8.76,8.76,0,0,1-4.57,2.32l6.06,8.81a10.51,10.51,0,0,0,2.25,2.53,4.25,4.25,0,0,0,2.12.67v.49h-5.63Zm-2.08-1.1.44,0,1,.05a7.34,7.34,0,0,0,4.92-1.5,5.3,5.3,0,0,0,1.75-4.24,5.77,5.77,0,0,0-1.49-4.17,5.35,5.35,0,0,0-4-1.53,7.34,7.34,0,0,0-1.34.12,7.6,7.6,0,0,0-1.23.38Z" transform="translate(-7580.26 -6662.37)"/>
          <path id="a4c7369c-0dbd-444d-bb05-27a297606464" data-name="path3664-6" d="M7697.07,6880.92a6.63,6.63,0,0,0,5.82-3.22q2.13-3.21,2.13-8.88c0-3.77-.71-6.73-2.12-8.86a6.88,6.88,0,0,0-11.64,0c-1.41,2.13-2.11,5.09-2.11,8.86s.71,6.75,2.11,8.89a6.61,6.61,0,0,0,5.81,3.21Zm0,1.21a11.17,11.17,0,0,1-8.69-3.65,13.84,13.84,0,0,1-3.31-9.66q0-6,3.29-9.64a12.24,12.24,0,0,1,17.4,0q3.3,3.63,3.29,9.64a13.88,13.88,0,0,1-3.3,9.66,11.15,11.15,0,0,1-8.68,3.65Z" transform="translate(-7580.26 -6662.37)"/>
          <path id="bfcefa1c-e15c-4262-bf95-d5ac4841eaeb" data-name="path3666-5" d="M7713.59,6882.12h-.49v-8.86h.49a9.55,9.55,0,0,0,2.24,5.46,5.9,5.9,0,0,0,4.55,2,4.76,4.76,0,0,0,3.38-1.24,4.1,4.1,0,0,0,1.34-3.14,4.6,4.6,0,0,0-.76-2.64,11.61,11.61,0,0,0-3-2.66c-.38-.26-1-.64-1.75-1.13a30.37,30.37,0,0,1-4.34-3.19,6.29,6.29,0,0,1-1.44-2.11,6.36,6.36,0,0,1-.52-2.55,6.12,6.12,0,0,1,1.94-4.7,7.18,7.18,0,0,1,5.07-1.8,8.51,8.51,0,0,1,3,.58,9.29,9.29,0,0,0,1.85.58,1.24,1.24,0,0,0,.87-.29,1.37,1.37,0,0,0,.41-.87h.49v8.35h-.49a8.89,8.89,0,0,0-2-5.23,5.71,5.71,0,0,0-4.4-1.84,3.91,3.91,0,0,0-2.81,1.09,3.66,3.66,0,0,0-1.12,2.74q0,2.52,4.91,5.57c.49.3.85.53,1.1.7a18.06,18.06,0,0,1,4.95,4.06,6.89,6.89,0,0,1,1.31,4.16,6.6,6.6,0,0,1-2,5.06,7.57,7.57,0,0,1-5.39,1.92,10.73,10.73,0,0,1-3.74-.74,11.42,11.42,0,0,0-2.44-.74,1,1,0,0,0-.81.37,2.07,2.07,0,0,0-.34,1.1Z" transform="translate(-7580.26 -6662.37)"/>
          <path id="e83acae4-2f15-414e-be30-d6b7a08780c1" data-name="path3668-0" d="M7744.39,6880.92a6.63,6.63,0,0,0,5.83-3.22c1.42-2.14,2.12-5.1,2.12-8.88s-.7-6.73-2.11-8.86a6.89,6.89,0,0,0-11.65,0c-1.4,2.13-2.1,5.09-2.1,8.86s.7,6.75,2.11,8.89a6.6,6.6,0,0,0,5.8,3.21Zm0,1.21a11.2,11.2,0,0,1-8.69-3.65,13.88,13.88,0,0,1-3.31-9.66q0-6,3.3-9.64a12.24,12.24,0,0,1,17.4,0q3.28,3.63,3.29,9.64a13.88,13.88,0,0,1-3.3,9.66,11.17,11.17,0,0,1-8.69,3.65Z" transform="translate(-7580.26 -6662.37)"/>
          <path id="bbb6a097-915d-442f-b215-4a5192253fe2" data-name="path3670-9" d="M7777.64,6856l.26,5.54h-.39a6.09,6.09,0,0,0-1.4-3.49c-.65-.6-2.07-.9-4.24-.9h-5.94v10.33h3.6c2.07,0,3.4-.26,4-.79a4.11,4.11,0,0,0,.94-3h.52v8.84h-.52a4.4,4.4,0,0,0-.93-3.05c-.56-.52-1.9-.78-4-.78h-3.6V6878a3.36,3.36,0,0,0,.74,2.57,5.1,5.1,0,0,0,3.06.63v.49h-11v-.47a4.5,4.5,0,0,0,2.82-.68,3.46,3.46,0,0,0,.7-2.54v-18.21a3.4,3.4,0,0,0-.7-2.52,4.6,4.6,0,0,0-2.82-.71V6856Z" transform="translate(-7580.26 -6662.37)"/>
          <path id="b51d154c-d9c0-4513-b02c-ee736eb7d5ad" data-name="path3672-0" d="M7791.26,6878a3.53,3.53,0,0,0,.67,2.5,3.9,3.9,0,0,0,2.61.7v.49h-10.24l0-.49a4,4,0,0,0,2.6-.73,3.46,3.46,0,0,0,.67-2.47v-20.51h-2.34c-2.22,0-3.7.29-4.45.87a5,5,0,0,0-1.51,3.25h-.48l.56-5.54h20.32l.56,5.54h-.49a4,4,0,0,0-1.5-3.24q-1.32-.89-5.2-.88h-1.81Z" transform="translate(-7580.26 -6662.37)"/>
        </g>
        <g id="ba7ce2bd-a22e-41ee-9b76-9d5639d1c324" data-name="g3703-0">
          <path id="a5f9049b-4ac1-4491-a7ac-3bcda8e5d290" data-name="path3637-6" d="M7599.47,6899.06l-6.66,19.85h-.19l-8.86-25.75a9.08,9.08,0,0,0-1.48-3.06,2.32,2.32,0,0,0-1.79-.73h-.23v-.57h10.12v.57h-.31a3,3,0,0,0-1.84.46,1.7,1.7,0,0,0-.59,1.44,6.55,6.55,0,0,0,.44,1.91.2.2,0,0,1,0,.1l6,17.34,4.65-13.64-2.1-5.67a3.12,3.12,0,0,0-1-1.51,3.26,3.26,0,0,0-1.83-.43v-.57h10.2v.57a3.1,3.1,0,0,0-2,.6,2.12,2.12,0,0,0-.71,1.71,4.32,4.32,0,0,0,.15,1,13.64,13.64,0,0,0,.46,1.46l5.89,16.35,5.51-16.87a11.32,11.32,0,0,0,.35-1.35,5.16,5.16,0,0,0,.12-1,1.91,1.91,0,0,0-.55-1.5,2.61,2.61,0,0,0-1.73-.48l-.25,0-.29,0v-.57h7.61v.57h-.16a2.27,2.27,0,0,0-1.8.87,10.86,10.86,0,0,0-1.51,3.23l-8.4,25.44h-.37Z" transform="translate(-7580.26 -6662.37)"/>
          <path id="eda79cdf-b735-4858-97e3-e44bff311ad3" data-name="path3639-1" d="M7621.63,6899.19a3,3,0,0,0-.61-2.23,4,4,0,0,0-2.47-.59v-.43h9.37v.43a4.06,4.06,0,0,0-2.47.62,3,3,0,0,0-.61,2.2v15.93a3,3,0,0,0,.6,2.22,4,4,0,0,0,2.48.59v.42h-9.37v-.42a3.91,3.91,0,0,0,2.46-.62,2.92,2.92,0,0,0,.62-2.19Z" transform="translate(-7580.26 -6662.37)"/>
          <path id="b2252ba9-d66e-47c5-a850-8263b1c895ce" data-name="path3641-3" d="M7633.65,6900.09v15.26c0,1,.18,1.73.55,2a4.75,4.75,0,0,0,2.47.54v.43h-7.38v-.43a4.72,4.72,0,0,0,2.47-.54,2.64,2.64,0,0,0,.56-2v-17.19a2.82,2.82,0,0,0-1-1.39,3.13,3.13,0,0,0-1.75-.43l-.26,0H7629v-.43h5.56l12.06,15.88V6899a2.63,2.63,0,0,0-.58-2,4.71,4.71,0,0,0-2.48-.56v-.43H7651v.43a4.65,4.65,0,0,0-2.48.56,2.67,2.67,0,0,0-.57,2v19.55h-.28Z" transform="translate(-7580.26 -6662.37)"/>
          <path id="b0993480-f2c1-406d-adaa-e1bf5df80b8a" data-name="path3643-8" d="M7658.54,6897.38V6917c.48.09.93.17,1.37.21s.87.07,1.29.07a8.63,8.63,0,0,0,6.72-2.66q2.41-2.65,2.42-7.41a10.66,10.66,0,0,0-2.42-7.42,8.63,8.63,0,0,0-6.72-2.67,10.37,10.37,0,0,0-1.2.07c-.43,0-.91.13-1.46.24Zm3.06-1.44c3.88,0,6.89,1,9,2.9a10.3,10.3,0,0,1,3.24,8.08,12,12,0,0,1-1.07,5.17,10.61,10.61,0,0,1-3.18,3.93,9.93,9.93,0,0,1-3.61,1.78,20.86,20.86,0,0,1-5.32.55h-8.45v-.42a3.88,3.88,0,0,0,2.46-.59,3,3,0,0,0,.62-2.22v-15.93a3,3,0,0,0-.61-2.2,4.06,4.06,0,0,0-2.47-.62v-.43Z" transform="translate(-7580.26 -6662.37)"/>
          <path id="b4afeecb-52fd-494f-a97c-b3c403961311" data-name="path3645-9" d="M7687,6917.71a5.79,5.79,0,0,0,5.09-2.81q1.86-2.81,1.86-7.77a14,14,0,0,0-1.85-7.75,6,6,0,0,0-10.19,0,14.08,14.08,0,0,0-1.83,7.75q0,5,1.84,7.78a5.77,5.77,0,0,0,5.08,2.8Zm0,1.07a9.77,9.77,0,0,1-7.6-3.2,13.81,13.81,0,0,1,0-16.88,10.72,10.72,0,0,1,15.22,0,13.79,13.79,0,0,1,0,16.88,9.73,9.73,0,0,1-7.59,3.2Z" transform="translate(-7580.26 -6662.37)"/>
          <path id="fd1a7f5a-87cd-437c-85e7-2ef2b1e2eabd" data-name="path3647-3" d="M7712.78,6903.72l-5,15.06h-.15l-6.72-19.53a6.82,6.82,0,0,0-1.12-2.32,1.77,1.77,0,0,0-1.36-.56h-.17v-.43h7.67v.43h-.24a2.22,2.22,0,0,0-1.39.36,1.29,1.29,0,0,0-.45,1.09,4.66,4.66,0,0,0,.34,1.44.25.25,0,0,1,0,.08l4.52,13.15,3.53-10.35-1.6-4.29a2.39,2.39,0,0,0-.79-1.15,2.48,2.48,0,0,0-1.39-.33v-.43h7.73v.43a2.28,2.28,0,0,0-1.54.46,1.61,1.61,0,0,0-.54,1.3,3.71,3.71,0,0,0,.11.77c.08.3.19.67.35,1.1l4.47,12.4,4.18-12.8a9.59,9.59,0,0,0,.26-1,4,4,0,0,0,.09-.73,1.45,1.45,0,0,0-.42-1.14,2,2,0,0,0-1.3-.37l-.2,0h-.22v-.43h5.77v.43h-.11a1.69,1.69,0,0,0-1.37.67,7.92,7.92,0,0,0-1.14,2.45l-6.38,19.29h-.28Z" transform="translate(-7580.26 -6662.37)"/>
          <path id="babc7780-702e-4f7e-a122-01ef9c0651c2" data-name="path3649-4" d="M7729.34,6918.76l-.43,0V6911h.43a8.37,8.37,0,0,0,2,4.77,5.16,5.16,0,0,0,4,1.74,4.15,4.15,0,0,0,2.95-1.1,3.55,3.55,0,0,0,1.18-2.74,4.07,4.07,0,0,0-.67-2.31,10.13,10.13,0,0,0-2.59-2.33l-1.54-1a26.79,26.79,0,0,1-3.79-2.79,5.7,5.7,0,0,1-1.71-4.08,5.35,5.35,0,0,1,1.69-4.11,6.27,6.27,0,0,1,4.43-1.57,7.46,7.46,0,0,1,2.62.51,8.24,8.24,0,0,0,1.62.51,1.11,1.11,0,0,0,.76-.26,1.21,1.21,0,0,0,.36-.76h.43v7.31h-.43a7.83,7.83,0,0,0-1.78-4.58,5,5,0,0,0-3.84-1.61,3.4,3.4,0,0,0-2.46,1,3.2,3.2,0,0,0-1,2.4q0,2.2,4.29,4.87c.42.26.74.46,1,.61a15.9,15.9,0,0,1,4.33,3.55,6,6,0,0,1,1.15,3.64,5.76,5.76,0,0,1-1.8,4.42,6.6,6.6,0,0,1-4.71,1.69,9.53,9.53,0,0,1-3.27-.65,10,10,0,0,0-2.13-.65.86.86,0,0,0-.71.32,1.76,1.76,0,0,0-.3,1Z" transform="translate(-7580.26 -6662.37)"/>
          <path id="bee3ee2a-42f5-47c4-ac83-ee5231770490" data-name="path3651-4" d="M7751.15,6894.27v20.13c0,1.38.24,2.28.73,2.67a6.15,6.15,0,0,0,3.26.71v.57h-9.73v-.57a6.15,6.15,0,0,0,3.26-.71c.49-.39.73-1.29.73-2.67v-22.68a3.71,3.71,0,0,0-1.35-1.83,4.16,4.16,0,0,0-2.31-.56,2.37,2.37,0,0,0-.35,0l-.33,0v-.57h7.34l15.9,20.94v-16.95c0-1.37-.25-2.27-.76-2.68a6,6,0,0,0-3.27-.74v-.57H7774v.57a6,6,0,0,0-3.28.74c-.5.41-.75,1.31-.75,2.68v25.79h-.37Z" transform="translate(-7580.26 -6662.37)"/>
          <path id="ae7b1c26-d0c7-40eb-a5e0-afc4bfca8a18" data-name="path3653-6" d="M7789.89,6914.09a4.09,4.09,0,0,0,.76,2.89,4.62,4.62,0,0,0,3,.8l0,.57h-11.81l0-.57a4.57,4.57,0,0,0,3-.84,4,4,0,0,0,.78-2.85v-23.65H7783q-3.84,0-5.13,1a5.69,5.69,0,0,0-1.74,3.75h-.55l.64-6.39h23.44l.64,6.39h-.56c-.15-1.82-.73-3.07-1.74-3.74s-3-1-6-1h-2.08Z" transform="translate(-7580.26 -6662.37)"/>
        </g>
      </g>
      <g id="e7e4e533-5383-4b57-a76b-003b3ee8c80e" data-name="g3815">
        <g id="af9a6055-07d6-4d23-bc5c-632fefaa376b" data-name="g3692">
          <path id="a02ce6b4-67d0-45a0-8e47-f23ba72b65dc" data-name="path3656" d="M7587.8,6853v24.46c0,1.61.28,2.64.85,3.1s1.81.73,3.76.82v.65h-11.25v-.65c1.95-.09,3.21-.37,3.77-.82s.85-1.49.85-3.1v-24.55a4.68,4.68,0,0,0-1-3.4,4.84,4.84,0,0,0-3.47-1h-.18v-.65h9.45l11.79,26.15,11.43-26.15H7623v.65a5.62,5.62,0,0,0-3.51,1q-.87.87-.87,3.3v24.28c0,1.65.29,2.77.89,3.34s1.75.89,3.47.94l0,.65h-13.79l0-.65c1.77-.08,3-.4,3.56-1s.9-1.68.9-3.3v-24L7601,6881.64h-.51Z" transform="translate(-7580.26 -6662.37)"/>
          <path id="abe8c81b-a70e-4751-983d-077d2100de17" data-name="path3658" d="M7628.54,6860.13a3.46,3.46,0,0,0-.7-2.55,4.51,4.51,0,0,0-2.82-.67v-.49h10.71v.49a4.54,4.54,0,0,0-2.82.71,3.38,3.38,0,0,0-.7,2.51v18.21a3.44,3.44,0,0,0,.69,2.54,4.55,4.55,0,0,0,2.83.69v.47H7625v-.47a4.66,4.66,0,0,0,2.82-.72,3.39,3.39,0,0,0,.7-2.51Z" transform="translate(-7580.26 -6662.37)"/>
          <path id="a9c71bbf-f3f4-45a0-8a9f-8e1923f27c56" data-name="path3660" d="M7658.4,6856h.44l.69,8h-.34a10.12,10.12,0,0,0-3-5,7.48,7.48,0,0,0-5-1.74,8,8,0,0,0-6.68,3.07q-2.4,3.07-2.4,8.59c0,3.87.8,6.86,2.41,9a8,8,0,0,0,6.79,3.18,9,9,0,0,0,4.57-1.23,11.65,11.65,0,0,0,3.75-3.55l.59.37a11.83,11.83,0,0,1-4.14,4.43,10.69,10.69,0,0,1-5.68,1.53,12.59,12.59,0,0,1-4.9-.95,11.28,11.28,0,0,1-3.95-2.8,12.71,12.71,0,0,1-2.62-4.2,14,14,0,0,1-.9-5,15.31,15.31,0,0,1,1-5.73,12.35,12.35,0,0,1,7-7,12.51,12.51,0,0,1,4.62-.85,11.61,11.61,0,0,1,4.21.81,18.2,18.2,0,0,0,2.29.81,1.05,1.05,0,0,0,.91-.4,2.06,2.06,0,0,0,.34-1.22Z" transform="translate(-7580.26 -6662.37)"/>
          <path id="a0c9e8ab-1421-4894-a566-ce3246dd2f7c" data-name="path3662" d="M7671.62,6869.84h-2.08v8.5a3.44,3.44,0,0,0,.69,2.54,4.59,4.59,0,0,0,2.84.69v.47h-10.72v-.47a4.61,4.61,0,0,0,2.82-.72,3.39,3.39,0,0,0,.71-2.51v-18.21a3.5,3.5,0,0,0-.7-2.55,4.55,4.55,0,0,0-2.83-.67v-.49h8.47c3.9,0,6.64.51,8.25,1.52s2.4,2.71,2.4,5.1a5.85,5.85,0,0,1-1.55,4.17,8.73,8.73,0,0,1-4.57,2.32l6,8.81a10.6,10.6,0,0,0,2.26,2.54,4.32,4.32,0,0,0,2.12.67v.49h-5.63Zm-2.08-1.1.44,0,1,.05a7.34,7.34,0,0,0,4.92-1.5,5.32,5.32,0,0,0,1.74-4.24,5.73,5.73,0,0,0-1.48-4.17,5.37,5.37,0,0,0-4-1.53,7.26,7.26,0,0,0-1.34.12,6.28,6.28,0,0,0-1.23.38Z" transform="translate(-7580.26 -6662.37)"/>
          <path id="ac782129-0770-4b51-a75b-7f748ad50580" data-name="path3664" d="M7697.93,6881.31a6.64,6.64,0,0,0,5.82-3.21c1.42-2.14,2.13-5.11,2.13-8.89s-.71-6.72-2.12-8.86a6.9,6.9,0,0,0-11.65,0q-2.1,3.21-2.1,8.86c0,3.8.71,6.76,2.11,8.9a6.59,6.59,0,0,0,5.81,3.2Zm0,1.22a11.17,11.17,0,0,1-8.69-3.65q-3.32-3.66-3.31-9.67a13.81,13.81,0,0,1,3.29-9.63,12.24,12.24,0,0,1,17.4,0,15.78,15.78,0,0,1,0,19.3,11.15,11.15,0,0,1-8.68,3.65Z" transform="translate(-7580.26 -6662.37)"/>
          <path id="e93c4128-6cc1-40db-9fe1-f2758444efab" data-name="path3666" d="M7714.45,6882.51l-.49,0v-8.86h.49a9.55,9.55,0,0,0,2.24,5.46,5.9,5.9,0,0,0,4.55,2,4.73,4.73,0,0,0,3.38-1.25,4.12,4.12,0,0,0,1.34-3.14,4.55,4.55,0,0,0-.77-2.64,11.71,11.71,0,0,0-3-2.66l-1.75-1.13a28.37,28.37,0,0,1-4.34-3.19,6.19,6.19,0,0,1-1.44-2.11,6.34,6.34,0,0,1-.52-2.54,6.14,6.14,0,0,1,1.94-4.71,7.2,7.2,0,0,1,5.07-1.79,8.51,8.51,0,0,1,3,.58,9.29,9.29,0,0,0,1.85.58,1.29,1.29,0,0,0,.87-.29,1.37,1.37,0,0,0,.41-.87h.49v8.35h-.49a8.89,8.89,0,0,0-2-5.23,5.67,5.67,0,0,0-4.4-1.84,3.87,3.87,0,0,0-2.81,1.09,3.64,3.64,0,0,0-1.12,2.74c0,1.68,1.64,3.53,4.91,5.57.48.29.85.52,1.1.69a18.24,18.24,0,0,1,4.95,4.07,6.86,6.86,0,0,1,1.31,4.15,6.62,6.62,0,0,1-2.05,5.07,7.58,7.58,0,0,1-5.39,1.92,11,11,0,0,1-3.74-.74,11.75,11.75,0,0,0-2.44-.75,1,1,0,0,0-.81.38,2,2,0,0,0-.34,1.09Z" transform="translate(-7580.26 -6662.37)"/>
          <path id="be8d8f1f-0008-49cf-9e30-ec0d1433f2ae" data-name="path3668" d="M7745.25,6881.31a6.65,6.65,0,0,0,5.83-3.21c1.41-2.14,2.12-5.11,2.12-8.89s-.7-6.72-2.12-8.86a6.89,6.89,0,0,0-11.64,0q-2.1,3.21-2.1,8.86c0,3.8.7,6.76,2.11,8.9a6.58,6.58,0,0,0,5.8,3.2Zm0,1.22a11.19,11.19,0,0,1-8.69-3.65,15.76,15.76,0,0,1,0-19.3,12.24,12.24,0,0,1,17.4,0q3.3,3.63,3.3,9.63a13.89,13.89,0,0,1-3.3,9.67,11.17,11.17,0,0,1-8.69,3.65Z" transform="translate(-7580.26 -6662.37)"/>
          <path id="bdd7dfa5-62c5-46ea-b3d2-44825d4f5ca9" data-name="path3670" d="M7778.5,6856.42l.26,5.54h-.39a6.12,6.12,0,0,0-1.4-3.5c-.66-.59-2.07-.89-4.24-.89h-5.94v10.33h3.59c2.07,0,3.41-.26,4-.79a4.08,4.08,0,0,0,.95-3h.52v8.84h-.52a4.43,4.43,0,0,0-.93-3.06c-.56-.51-1.9-.77-4-.77h-3.59v9.26a3.38,3.38,0,0,0,.74,2.58,5.08,5.08,0,0,0,3.06.63v.49h-11v-.47a4.37,4.37,0,0,0,2.81-.69,3.4,3.4,0,0,0,.71-2.54v-18.21a3.38,3.38,0,0,0-.7-2.51,4.54,4.54,0,0,0-2.82-.71v-.49Z" transform="translate(-7580.26 -6662.37)"/>
          <path id="a4e54e7c-3e87-43ea-be4f-5c2bbf2f12ae" data-name="path3672" d="M7792.12,6878.34a3.5,3.5,0,0,0,.67,2.51,4,4,0,0,0,2.61.7v.49h-10.24l0-.49a3.93,3.93,0,0,0,2.59-.73,3.49,3.49,0,0,0,.68-2.48v-20.5h-2.35c-2.21,0-3.7.29-4.44.87a4.94,4.94,0,0,0-1.51,3.25h-.48l.56-5.54h20.32l.56,5.54h-.49a4,4,0,0,0-1.5-3.24q-1.32-.89-5.2-.88h-1.81Z" transform="translate(-7580.26 -6662.37)"/>
        </g>
        <g id="b6a43959-9a27-4a1a-b146-6e7cc948ebbc" data-name="g3703">
          <path id="f0aeb66c-f242-4a90-b5d4-98475e620513" data-name="path3637" d="M7600.33,6899.46l-6.66,19.85h-.19l-8.86-25.75a9.26,9.26,0,0,0-1.48-3.07,2.35,2.35,0,0,0-1.79-.73h-.23v-.56h10.12v.56h-.31a3,3,0,0,0-1.84.47,1.71,1.71,0,0,0-.6,1.44,6.38,6.38,0,0,0,.45,1.91.18.18,0,0,1,0,.09l6,17.35,4.65-13.65-2.1-5.66a3.14,3.14,0,0,0-1.05-1.51,3.25,3.25,0,0,0-1.83-.44v-.56h10.2v.56a3,3,0,0,0-2,.61,2.12,2.12,0,0,0-.71,1.71,4.32,4.32,0,0,0,.15,1,14.39,14.39,0,0,0,.46,1.46l5.89,16.35,5.51-16.87a13.08,13.08,0,0,0,.35-1.36,5,5,0,0,0,.12-1,1.88,1.88,0,0,0-.56-1.5,2.58,2.58,0,0,0-1.72-.49l-.25,0a1.8,1.8,0,0,1-.29,0v-.56h7.61v.56h-.16a2.25,2.25,0,0,0-1.8.88,10.49,10.49,0,0,0-1.51,3.23l-8.41,25.44h-.37Z" transform="translate(-7580.26 -6662.37)"/>
          <path id="aad6c756-8aee-48e0-ad61-e5cfc9df678f" data-name="path3639" d="M7622.49,6899.59a3,3,0,0,0-.61-2.23,4,4,0,0,0-2.47-.59v-.43h9.37v.43a4,4,0,0,0-2.47.62,3,3,0,0,0-.62,2.2v15.92a3,3,0,0,0,.61,2.22,4,4,0,0,0,2.48.6v.41h-9.37v-.41a4,4,0,0,0,2.46-.63,3,3,0,0,0,.62-2.19Z" transform="translate(-7580.26 -6662.37)"/>
          <path id="a08b19b8-7550-46ec-b7fa-fe55f50a1a01" data-name="path3641" d="M7634.5,6900.49v15.26a2.64,2.64,0,0,0,.56,2,4.75,4.75,0,0,0,2.47.54v.42h-7.38v-.42a4.75,4.75,0,0,0,2.47-.54,2.64,2.64,0,0,0,.56-2v-17.2a2.79,2.79,0,0,0-1-1.38,3.13,3.13,0,0,0-1.75-.43h-.26l-.25,0v-.43h5.56l12.06,15.88v-12.85a2.6,2.6,0,0,0-.58-2,4.61,4.61,0,0,0-2.48-.56v-.43h7.41v.43a4.63,4.63,0,0,0-2.49.56,2.68,2.68,0,0,0-.56,2v19.55h-.28Z" transform="translate(-7580.26 -6662.37)"/>
          <path id="f172f1de-9120-4852-b44c-8e16bfa56ff1" data-name="path3643" d="M7659.4,6897.77v19.57c.48.1.93.17,1.37.22s.87.06,1.29.06a8.62,8.62,0,0,0,6.72-2.65q2.42-2.66,2.42-7.41t-2.43-7.43a8.59,8.59,0,0,0-6.71-2.67,10.35,10.35,0,0,0-1.2.08c-.43.05-.92.12-1.46.23Zm3.06-1.43q5.8,0,9.05,2.9a10.28,10.28,0,0,1,3.24,8.08,12,12,0,0,1-1.07,5.17,10.58,10.58,0,0,1-3.18,3.92,10,10,0,0,1-3.61,1.79,21.39,21.39,0,0,1-5.32.54h-8.45v-.41a3.87,3.87,0,0,0,2.46-.6,3,3,0,0,0,.62-2.22v-15.92a3,3,0,0,0-.61-2.2,4,4,0,0,0-2.47-.62v-.43Z" transform="translate(-7580.26 -6662.37)"/>
          <path id="e5b7d4b3-f5b8-40f5-b840-4bae8bdb5fa8" data-name="path3645" d="M7687.89,6918.11a5.81,5.81,0,0,0,5.09-2.81,17.16,17.16,0,0,0,0-15.52,6,6,0,0,0-10.19,0,14.08,14.08,0,0,0-1.83,7.75c0,3.31.61,5.91,1.84,7.78a5.77,5.77,0,0,0,5.08,2.8Zm0,1.06a9.76,9.76,0,0,1-7.6-3.19,13.77,13.77,0,0,1,0-16.88,10.72,10.72,0,0,1,15.22,0,13.79,13.79,0,0,1,0,16.88,9.72,9.72,0,0,1-7.59,3.19Z" transform="translate(-7580.26 -6662.37)"/>
          <path id="a5b011c6-cdf0-46d1-93d4-09ed49bb6849" data-name="path3647" d="M7713.64,6904.12l-5.05,15.05h-.14l-6.72-19.52a7.21,7.21,0,0,0-1.12-2.33,1.76,1.76,0,0,0-1.36-.55h-.18v-.43h7.68v.43h-.24a2.27,2.27,0,0,0-1.39.35,1.32,1.32,0,0,0-.45,1.1,4.72,4.72,0,0,0,.34,1.44.25.25,0,0,1,0,.08l4.52,13.15,3.53-10.35-1.6-4.3a2.31,2.31,0,0,0-.79-1.14,2.48,2.48,0,0,0-1.39-.33v-.43H7717v.43a2.28,2.28,0,0,0-1.54.46,1.59,1.59,0,0,0-.54,1.3,3.55,3.55,0,0,0,.11.76,9,9,0,0,0,.35,1.11l4.47,12.4,4.18-12.8c.11-.38.2-.72.26-1a4,4,0,0,0,.09-.74,1.41,1.41,0,0,0-.42-1.13,1.93,1.93,0,0,0-1.31-.37h-.19l-.22,0v-.43H7728v.43h-.12a1.71,1.71,0,0,0-1.36.66,8.25,8.25,0,0,0-1.15,2.45l-6.37,19.29h-.28Z" transform="translate(-7580.26 -6662.37)"/>
          <path id="e12f425a-91d0-428e-9e27-bd32720ac81a" data-name="path3649" d="M7730.2,6919.16h-.43v-7.75h.43a8.4,8.4,0,0,0,2,4.78,5.13,5.13,0,0,0,4,1.73,4.16,4.16,0,0,0,3-1.09,3.57,3.57,0,0,0,1.18-2.74,4.07,4.07,0,0,0-.67-2.31,10.21,10.21,0,0,0-2.6-2.33l-1.53-1a24.77,24.77,0,0,1-3.79-2.79,5.71,5.71,0,0,1-1.72-4.07,5.35,5.35,0,0,1,1.7-4.11,6.25,6.25,0,0,1,4.43-1.57,7.46,7.46,0,0,1,2.62.51,8.24,8.24,0,0,0,1.62.51,1.13,1.13,0,0,0,.76-.26,1.24,1.24,0,0,0,.36-.76h.43v7.3h-.43a7.82,7.82,0,0,0-1.78-4.57,5,5,0,0,0-3.85-1.61,3.39,3.39,0,0,0-2.45.95,3.2,3.2,0,0,0-1,2.4q0,2.2,4.29,4.87c.42.26.74.46,1,.61a15.87,15.87,0,0,1,4.33,3.55,6,6,0,0,1,1.15,3.63,5.78,5.78,0,0,1-1.8,4.43,6.61,6.61,0,0,1-4.71,1.68,9.3,9.3,0,0,1-3.27-.65,10.48,10.48,0,0,0-2.14-.65.82.82,0,0,0-.7.33,1.76,1.76,0,0,0-.3,1Z" transform="translate(-7580.26 -6662.37)"/>
          <path id="aeb69624-fffe-4d2a-baca-6d149404ac18" data-name="path3651" d="M7752,6894.67v20.12c0,1.39.24,2.28.73,2.68a6.25,6.25,0,0,0,3.26.71v.56h-9.73v-.56a6.28,6.28,0,0,0,3.26-.71c.48-.4.73-1.29.73-2.68v-22.67a3.67,3.67,0,0,0-1.35-1.83,4.16,4.16,0,0,0-2.31-.57l-.35,0a2.19,2.19,0,0,1-.33,0v-.56h7.34l15.9,20.94v-17c0-1.38-.26-2.27-.76-2.69a6.24,6.24,0,0,0-3.27-.74v-.56h9.77v.56a6.2,6.2,0,0,0-3.28.74c-.5.42-.75,1.31-.75,2.69V6919h-.37Z" transform="translate(-7580.26 -6662.37)"/>
          <path id="be91fd3b-9ab3-4756-b658-da309a20691a" data-name="path3653" d="M7790.74,6914.48a4.07,4.07,0,0,0,.77,2.89,4.59,4.59,0,0,0,3,.81l0,.56h-11.82l0-.56a4.52,4.52,0,0,0,3-.85,4,4,0,0,0,.78-2.85v-23.65h-2.71q-3.82,0-5.12,1a5.69,5.69,0,0,0-1.75,3.74h-.54l.64-6.38h23.44l.64,6.38h-.57c-.14-1.81-.72-3.06-1.73-3.73s-3-1-6-1h-2.09Z" transform="translate(-7580.26 -6662.37)"/>
        </g>
      </g>
    </g>
  </g>
</svg>
