<?xml version="1.0" encoding="UTF-8" standalone="no"?>
<!-- Created with Inkscape (http://www.inkscape.org/) -->

<svg
   xmlns:dc="http://purl.org/dc/elements/1.1/"
   xmlns:cc="http://creativecommons.org/ns#"
   xmlns:rdf="http://www.w3.org/1999/02/22-rdf-syntax-ns#"
   xmlns:svg="http://www.w3.org/2000/svg"
   xmlns="http://www.w3.org/2000/svg"
   xmlns:xlink="http://www.w3.org/1999/xlink"
   xmlns:sodipodi="http://sodipodi.sourceforge.net/DTD/sodipodi-0.dtd"
   xmlns:inkscape="http://www.inkscape.org/namespaces/inkscape"
   width="56.382072mm"
   height="94.985916mm"
   viewBox="0 0 199.779 336.56427"
   id="svg15902"
   version="1.1"
   inkscape:version="0.91 r13725"
   sodipodi:docname="Windows 3.0 logo.svg">
  <defs
     id="defs15904">
    <linearGradient
       inkscape:collect="always"
       id="linearGradient18662">
      <stop
         style="stop-color:#242424;stop-opacity:1"
         offset="0"
         id="stop18664" />
      <stop
         style="stop-color:#ffffff;stop-opacity:1"
         offset="1"
         id="stop18666" />
    </linearGradient>
    <linearGradient
       inkscape:collect="always"
       id="linearGradient18656">
      <stop
         style="stop-color:#ffffff;stop-opacity:1"
         offset="0"
         id="stop18658" />
      <stop
         style="stop-color:#272727;stop-opacity:1"
         offset="1"
         id="stop18660" />
    </linearGradient>
    <linearGradient
       inkscape:collect="always"
       id="linearGradient18640">
      <stop
         style="stop-color:#4c4c4c;stop-opacity:1"
         offset="0"
         id="stop18642" />
      <stop
         style="stop-color:#ffffff;stop-opacity:1"
         offset="1"
         id="stop18644" />
    </linearGradient>
    <linearGradient
       inkscape:collect="always"
       id="linearGradient18624">
      <stop
         style="stop-color:#7b7b7b;stop-opacity:1"
         offset="0"
         id="stop18626" />
      <stop
         style="stop-color:#242424;stop-opacity:1"
         offset="1"
         id="stop18628" />
    </linearGradient>
    <filter
       inkscape:label="Greyscale"
       inkscape:menu="Color"
       inkscape:menu-tooltip="Oversaturate colors which can be fluorescent in real world"
       style="color-interpolation-filters:sRGB"
       id="filter17874">
      <feColorMatrix
         type="hueRotate"
         values="0"
         id="feColorMatrix17876" />
      <feColorMatrix
         type="saturate"
         values="1"
         id="feColorMatrix17878" />
      <feColorMatrix
         type="matrix"
         values="2 -1 0 0 0 0 2 -1 0 0 -1 0 2 0 0 0 0 0 1 0 "
         id="feColorMatrix17880"
         result="fbSourceGraphic" />
      <feColorMatrix
         result="fbSourceGraphicAlpha"
         in="fbSourceGraphic"
         values="0 0 0 -1 0 0 0 0 -1 0 0 0 0 -1 0 0 0 0 1 0"
         id="feColorMatrix17936" />
      <feColorMatrix
         id="feColorMatrix17938"
         type="hueRotate"
         values="180"
         result="color1"
         in="fbSourceGraphic" />
      <feColorMatrix
         id="feColorMatrix17940"
         values="1 0 0 0 0 0 1 0 0 0 0 0 1 0 0 -0.21 -0.72 -0.07 2 0 "
         result="fbSourceGraphic" />
      <feColorMatrix
         result="fbSourceGraphicAlpha"
         in="fbSourceGraphic"
         values="0 0 0 -1 0 0 0 0 -1 0 0 0 0 -1 0 0 0 0 1 0"
         id="feColorMatrix17978" />
      <feColorMatrix
         id="feColorMatrix17980"
         type="hueRotate"
         values="0"
         in="fbSourceGraphic" />
      <feColorMatrix
         id="feColorMatrix17982"
         type="saturate"
         values="1" />
      <feColorMatrix
         id="feColorMatrix17984"
         type="matrix"
         values="2 -1 0 0 0 0 2 -1 0 0 -1 0 2 0 0 0 0 0 1 0 "
         result="fbSourceGraphic" />
      <feColorMatrix
         result="fbSourceGraphicAlpha"
         in="fbSourceGraphic"
         values="0 0 0 -1 0 0 0 0 -1 0 0 0 0 -1 0 0 0 0 1 0"
         id="feColorMatrix17986" />
      <feColorMatrix
         id="feColorMatrix17988"
         type="hueRotate"
         values="0"
         in="fbSourceGraphic" />
      <feColorMatrix
         id="feColorMatrix17990"
         type="saturate"
         values="1" />
      <feColorMatrix
         id="feColorMatrix17992"
         type="matrix"
         values="2 -1 0 0 0 0 2 -1 0 0 -1 0 2 0 0 0 0 0 1 0 "
         result="fbSourceGraphic" />
      <feColorMatrix
         result="fbSourceGraphicAlpha"
         in="fbSourceGraphic"
         values="0 0 0 -1 0 0 0 0 -1 0 0 0 0 -1 0 0 0 0 1 0"
         id="feColorMatrix17994" />
      <feColorMatrix
         id="feColorMatrix17996"
         type="hueRotate"
         values="0"
         in="fbSourceGraphic" />
      <feColorMatrix
         id="feColorMatrix17998"
         type="saturate"
         values="1" />
      <feColorMatrix
         id="feColorMatrix18000"
         type="matrix"
         values="2 -1 0 0 0 0 2 -1 0 0 -1 0 2 0 0 0 0 0 1 0 "
         result="fbSourceGraphic" />
      <feColorMatrix
         result="fbSourceGraphicAlpha"
         in="fbSourceGraphic"
         values="0 0 0 -1 0 0 0 0 -1 0 0 0 0 -1 0 0 0 0 1 0"
         id="feColorMatrix18006" />
      <feColorMatrix
         id="feColorMatrix18008"
         values="0.21 0.72 0.072 0 0 0.21 0.72 0.072 0 0 0.21 0.72 0.072 0 0 0 0 0 1 0 "
         in="fbSourceGraphic"
         result="fbSourceGraphic" />
      <feColorMatrix
         result="fbSourceGraphicAlpha"
         in="fbSourceGraphic"
         values="0 0 0 -1 0 0 0 0 -1 0 0 0 0 -1 0 0 0 0 1 0"
         id="feColorMatrix18010" />
      <feColorMatrix
         id="feColorMatrix18012"
         values="0.21 0.72 0.072 0 0 0.21 0.72 0.072 0 0 0.21 0.72 0.072 0 0 0 0 0 1 0 "
         in="fbSourceGraphic" />
    </filter>
    <filter
       style="color-interpolation-filters:sRGB"
       inkscape:label="Channel Painting"
       id="filter18043">
      <feColorMatrix
         values="-1 0 0 0 1 0 -1 0 0 1 0 0 -1 0 1 -0.21 -0.72 -0.07 2 0 "
         result="fbSourceGraphic"
         id="feColorMatrix18045" />
      <feColorMatrix
         result="fbSourceGraphicAlpha"
         in="fbSourceGraphic"
         values="0 0 0 -1 0 0 0 0 -1 0 0 0 0 -1 0 0 0 0 1 0"
         id="feColorMatrix18591" />
      <feColorMatrix
         id="feColorMatrix18593"
         values="1"
         type="saturate"
         result="colormatrix1"
         in="fbSourceGraphic" />
      <feColorMatrix
         id="feColorMatrix18595"
         values="1 0 0 0 0 0 1 0 0 0 0 0 1 0 0 10 -10 -2.92 1 0 "
         in="fbSourceGraphic"
         result="colormatrix2" />
      <feFlood
         id="feFlood18597"
         flood-color="rgb(0,255,255)"
         flood-opacity="1"
         result="flood" />
      <feComposite
         id="feComposite18599"
         in2="colormatrix2"
         operator="in"
         result="composite1" />
      <feMerge
         id="feMerge18601"
         result="merge">
        <feMergeNode
           id="feMergeNode18603"
           in="colormatrix1" />
        <feMergeNode
           id="feMergeNode18605"
           in="composite1" />
      </feMerge>
      <feComposite
         id="feComposite18607"
         in2="fbSourceGraphic"
         in="merge"
         operator="in"
         result="composite2" />
    </filter>
    <linearGradient
       inkscape:collect="always"
       xlink:href="#linearGradient18624"
       id="linearGradient18630"
       x1="573.26154"
       y1="836.18958"
       x2="608.11182"
       y2="820.53217"
       gradientUnits="userSpaceOnUse"
       gradientTransform="matrix(1.3806372,0,0,1.4169762,-444.15264,-477.98756)" />
    <linearGradient
       inkscape:collect="always"
       xlink:href="#linearGradient18640"
       id="linearGradient18646"
       x1="589.42401"
       y1="870.53473"
       x2="588.91895"
       y2="903.36469"
       gradientUnits="userSpaceOnUse"
       gradientTransform="matrix(1.3806372,0,0,1.4169762,-444.15264,-477.98756)" />
    <linearGradient
       inkscape:collect="always"
       xlink:href="#linearGradient18656"
       id="linearGradient18654"
       x1="624.77936"
       y1="924.07288"
       x2="656.09406"
       y2="871.54486"
       gradientUnits="userSpaceOnUse"
       gradientTransform="matrix(1.3806372,0,0,1.4169762,-444.15264,-477.98756)" />
    <linearGradient
       inkscape:collect="always"
       xlink:href="#linearGradient18662"
       id="linearGradient18668"
       x1="618.21332"
       y1="845.78601"
       x2="664.68036"
       y2="786.69208"
       gradientUnits="userSpaceOnUse"
       gradientTransform="matrix(1.3806372,0,0,1.4169762,-444.15264,-477.98756)" />
  </defs>
  <sodipodi:namedview
     id="base"
     pagecolor="#ffffff"
     bordercolor="#666666"
     borderopacity="1.0"
     inkscape:pageopacity="0.0"
     inkscape:pageshadow="2"
     inkscape:zoom="0.98994949"
     inkscape:cx="276.70061"
     inkscape:cy="118.78225"
     inkscape:document-units="px"
     inkscape:current-layer="layer1"
     showgrid="false"
     inkscape:window-width="1366"
     inkscape:window-height="705"
     inkscape:window-x="-8"
     inkscape:window-y="-8"
     inkscape:window-maximized="1"
     fit-margin-top="0"
     fit-margin-left="0"
     fit-margin-right="0"
     fit-margin-bottom="0" />
  <metadata
     id="metadata15907">
    <rdf:RDF>
      <cc:Work
         rdf:about="">
        <dc:format>image/svg+xml</dc:format>
        <dc:type
           rdf:resource="http://purl.org/dc/dcmitype/StillImage" />
        <dc:title></dc:title>
      </cc:Work>
    </rdf:RDF>
  </metadata>
  <g
     inkscape:label="Layer 1"
     inkscape:groupmode="layer"
     id="layer1"
     transform="translate(-307.20198,-606.31055)">
    <path
       style="fill:#000000"
       d=""
       id="path18014"
       inkscape:connector-curvature="0" />
    <path
       style="fill:url(#linearGradient18668);fill-opacity:1;stroke:none"
       d="m 308.29492,606.31055 0,253.03125 193.78125,0 0,-253.03125 -193.78125,0 z"
       id="rect18620"
       inkscape:connector-curvature="0" />
    <path
       style="fill:url(#linearGradient18630);fill-opacity:1;stroke:none;stroke-width:0.32759553"
       d="m 337.11914,638.75586 0,86.51367 60.82227,0 0,-86.51367 -60.82227,0 z"
       id="rect18622"
       inkscape:connector-curvature="0" />
    <path
       style="fill:#242424;fill-opacity:1;stroke:none;stroke-width:0.32759553"
       d="m 414.57227,638.75586 0,86.51367 60.82226,0 0,-86.51367 -60.82226,0 z"
       id="rect18632"
       inkscape:connector-curvature="0" />
    <path
       style="fill:url(#linearGradient18646);fill-opacity:1;stroke:none;stroke-width:0.32759553"
       d="m 337.11914,742.61914 0,86.51563 60.82227,0 0,-86.51563 -60.82227,0 z"
       id="rect18634"
       inkscape:connector-curvature="0" />
    <path
       style="fill:url(#linearGradient18654);fill-opacity:1;stroke:none;stroke-width:0.32759553"
       d="m 414.57227,742.61914 0,86.51563 60.82226,0 0,-86.51563 -60.82226,0 z"
       id="rect18636"
       inkscape:connector-curvature="0" />
    <polygon
       style="fill:#000000"
       id="polygon11"
       points="220.361,237.401 219.821,237.401 219.821,235.122 219.022,237.401 218.482,237.401 217.542,235.122 217.542,237.401 217.142,237.401 217.142,234.441 217.812,234.441 218.752,236.731 219.562,234.441 220.361,234.441 "
       transform="translate(286.61998,705.47381)" />
    <path
       style="fill:#000000"
       inkscape:connector-curvature="0"
       id="path13"
       d="m 505.10198,876.37481 0.54,5.641 -0.939,0 c 0,-1.21 -0.271,-2.15 -0.54,-2.42 -0.271,-0.54 -0.811,-1.21 -1.48,-1.48 -0.53,-0.27 -1.34,-0.54 -2.55,-0.54 l -3.36,0 0,20.43 c 0,1.471 0,2.681 0.271,3.091 0.54,0.27 1.34,0.529 2.28,0.529 l 0.789,0 c 0.051,0.19 0.12,0.37 0.221,0.54 l -10.811,0 0,-0.54 0.94,0 c 0.8,0 1.61,-0.26 2.28,-0.939 0,-0.271 0.27,-1.21 0.27,-2.681 l 0,-20.43 -2.82,0 c -1.21,0 -2.02,0 -2.42,0.271 -0.54,0.27 -1.08,0.81 -1.609,1.21 -0.271,0.81 -0.67,1.75 -0.67,2.96 l -0.811,0 0.54,-5.641 19.879,0 z" />
    <path
       style="fill:#000000"
       inkscape:connector-curvature="0"
       id="path15"
       d="m 505.77198,900.95481 c 0,1.48 -1.34,2.82 -2.819,2.82 l 0,-0.53 c 1.21,0 2.29,-1.08 2.29,-2.29 0,-1.21 -1.08,-2.149 -2.29,-2.149 l 0,-0.13 0,-0.41 c 1.479,0 2.819,1.21 2.819,2.689 z" />
    <path
       style="fill:#000000"
       inkscape:connector-curvature="0"
       id="path17"
       d="m 503.35198,901.09581 0.95,1.34 -0.54,0 -0.81,-1.07 0,-0.27 0,-0.41 c 0.399,0 0.81,0 0.81,-0.53 0,-0.41 -0.41,-0.41 -0.67,-0.41 l -0.07,-0.2 0.07,-0.199 c 0.83,0.029 1.07,0.3 1.07,0.939 0,0.54 -0.27,0.81 -0.81,0.81 z" />
    <polygon
       style="fill:#000000"
       id="polygon21"
       points="214.052,234.852 214.052,234.441 216.472,234.441 216.472,234.852 215.531,234.852 215.531,237.401 215.122,237.401 215.122,234.852 "
       transform="translate(286.61998,705.47381)" />
    <polygon
       style="fill:#000000"
       id="polygon23"
       points="216.332,193.872 216.472,193.872 216.402,194.071 "
       transform="translate(286.61998,705.47381)" />
    <polygon
       style="fill:#000000"
       id="polygon25"
       points="215.792,194.271 215.792,195.212 216.332,195.212 216.332,195.622 215.792,195.622 215.792,196.962 215.262,196.962 215.262,193.872 216.332,193.872 216.402,194.071 216.332,194.271 "
       transform="translate(286.61998,705.47381)" />
    <path
       style="fill:#000000"
       inkscape:connector-curvature="0"
       id="path27"
       d="m 502.95198,903.24481 0,0.53 c -1.061,0 -2.11,-0.68 -2.62,-1.61 l 0.069,0 0,-0.54 -0.29,0 c -0.069,-0.22 -0.109,-0.439 -0.109,-0.67 0,-1.609 1.47,-2.819 2.95,-2.819 l 0,0.13 0,0.41 c -1.21,0 -2.28,0.939 -2.28,2.279 0,1.21 1.07,2.29 2.28,2.29 z" />
    <path
       style="fill:#000000"
       inkscape:connector-curvature="0"
       id="path31"
       d="m 502.41198,934.54481 c 0,2.15 -1.07,4.16 -2.551,5.641 -1.75,1.35 -4.159,2.42 -6.579,2.42 -1.08,0 -1.75,-0.4 -2.421,-0.4 -0.399,0 -1.34,-0.27 -2.819,-0.67 -1.351,-0.41 -2.42,-0.67 -2.82,-0.67 -0.27,0 -0.68,0 -0.68,0.26 0,0 -0.26,0.811 -0.26,1.48 l -0.811,0 0,-9.811 0.811,0 c 0.26,2.15 0.67,3.5 1.34,4.57 0.67,1.08 1.75,2.021 2.819,2.42 1.341,0.67 2.82,1.08 4.17,1.08 1.74,0 3.49,-0.68 4.561,-1.479 0.939,-0.681 1.35,-2.021 1.35,-3.091 0,-0.67 0,-1.35 -0.41,-2.149 -0.27,-0.67 -0.939,-1.351 -2.01,-2.021 -0.399,0 -2.149,-1.069 -4.569,-2.42 -2.421,-1.47 -4.16,-2.42 -5.24,-3.22 -1.07,-0.94 -1.75,-1.75 -2.42,-2.69 -0.67,-1.069 -0.67,-2.149 -0.67,-3.22 0,-2.02 0.67,-3.76 2.02,-5.51 1.74,-1.48 3.89,-2.15 6.311,-2.15 1.479,0 3.229,0.4 4.84,1.07 1.069,0.27 1.47,0.27 1.739,0.27 0.41,0 0.811,0 1.08,0 0,-0.27 0.4,-0.67 0.4,-1.34 l 0.67,0 0,9.811 -0.67,0 c 0,-1.75 -0.67,-3.5 -1.07,-4.57 -0.68,-1.08 -1.75,-2.15 -3.09,-2.42 -1.08,-0.67 -2.42,-1.48 -3.5,-1.48 -1.47,0 -2.82,0.811 -3.49,1.48 -1.069,1.08 -1.75,2.02 -1.75,3.09 0,0.67 0.271,1.75 1.08,2.42 0.67,1.08 2.69,2.55 5.91,4.3 2.69,1.341 4.84,2.42 5.51,3.091 1.07,0.67 1.75,1.75 2.42,2.819 0.399,1.07 0.799,2.02 0.799,3.089 z" />
    <path
       style="fill:#000000"
       inkscape:connector-curvature="0"
       id="path33"
       d="m 500.40098,901.62481 0,0.54 -0.069,0 c -0.101,-0.17 -0.17,-0.35 -0.221,-0.54 l 0.29,0 z" />
    <path
       style="fill:#000000"
       inkscape:connector-curvature="0"
       id="path41"
       d="m 483.87198,913.31581 -0.4,0.67 c -0.67,0 -1.07,0 -1.75,0.27 -0.399,0.41 -1.07,0.811 -1.07,1.75 -0.27,0.4 -1.079,1.48 -1.34,3.49 l -8.739,23.11 -1.07,0 -5.91,-18.141 -3.63,11.66 -1.61,-0.5 4.16,-13.569 -1.07,-2.83 -0.68,-2.15 c -0.4,-0.67 -0.67,-1.34 -1.07,-1.74 0,-0.27 -0.27,-0.67 -0.67,-0.67 0,-0.41 -0.67,-0.41 -1.08,-0.68 -0.27,0 -0.67,0 -0.939,0 l 0,-0.67 11.42,0 0,0.67 -1.07,0 c -0.67,0 -1.35,0.27 -1.75,0.27 -0.27,0.41 -0.27,1.08 -0.27,1.48 0,0.67 0.27,2.02 0.67,3.76 l 5.649,15.72 5.91,-15.989 c 0.271,-1.471 0.67,-2.82 0.67,-3.49 l 0,-0.67 c -0.399,-0.4 -0.67,-0.811 -1.069,-0.811 -0.271,-0.27 -1.351,-0.27 -2.021,-0.27 l 0,-0.67 8.729,0 z" />
    <path
       style="fill:#000000"
       inkscape:connector-curvature="0"
       id="path43"
       d="m 481.45198,876.10581 0.68,5.37 -1.21,0 c -0.271,-0.94 -0.811,-1.88 -1.08,-2.42 -0.4,-0.67 -0.94,-1.21 -1.48,-1.48 -0.529,-0.26 -1.47,-0.26 -2.819,-0.26 l -5.51,0 0,10.61 4.3,0 c 0.81,0 1.75,-0.271 2.29,-0.54 0.54,-0.671 0.8,-1.74 1.21,-3.221 l 0.529,0 0,8.601 -0.529,0 c 0,-0.94 -0.41,-1.88 -0.67,-2.15 -0.271,-0.54 -0.54,-0.81 -0.811,-1.21 -0.54,-0.27 -1.479,-0.27 -2.02,-0.27 l -4.3,0 0,8.6 c 0,1.21 0.27,2.15 0.27,2.42 0,0.26 0.271,0.67 0.54,0.94 0.67,0.27 1.48,0.27 2.02,0.27 l 0.94,0 0,0.53 -10.89,0 0,-0.53 0.81,0 c 0.811,0 1.75,-0.27 2.28,-0.95 0.27,-0.26 0.27,-1.2 0.27,-2.68 l 0,-17.2 c 0,-1.21 0,-2.149 0,-2.42 -0.27,-0.27 -0.529,-0.8 -0.8,-0.8 -0.54,-0.41 -1.21,-0.68 -1.75,-0.68 l -0.81,0 0,-0.53 18.54,0 z" />
    <path
       style="fill:#000000"
       inkscape:connector-curvature="0"
       id="path45"
       d="m 459.82198,879.32581 c 2.289,2.69 3.63,5.91 3.63,9.54 0,3.9 -1.341,7.39 -3.63,9.811 -2.41,2.42 -5.24,3.89 -8.33,3.89 l -0.061,-0.601 0.061,-0.6 c 2.02,0 4.029,-0.95 5.38,-2.689 1.479,-2.021 2.279,-5.11 2.279,-9.271 0,-4.44 -0.8,-7.93 -2.55,-10.08 -1.08,-1.75 -3.09,-2.689 -5.109,-2.689 l -0.061,-0.601 0.061,-0.609 0.27,0 c 3.09,-0.001 5.65,1.479 8.06,3.899 z" />
    <path
       style="fill:#000000"
       inkscape:connector-curvature="0"
       id="path47"
       d="m 459.96198,936.12481 -2.021,6.48 -1.34,0 -8.33,-24.05 c -0.81,-1.74 -1.08,-2.82 -1.479,-2.82 0,-0.67 -0.67,-1.07 -1.07,-1.48 -0.27,-0.27 -1.35,-0.27 -2.02,-0.27 l 0,-0.67 11.149,0 0,0.67 -0.67,0 c -0.67,0 -1.479,0.27 -1.75,0.27 -0.399,0.41 -0.399,1.08 -0.399,1.48 0,0.67 0.399,1.75 0.67,3.49 l 5.649,16.399 1.611,0.501 z" />
    <path
       style="fill:#000000"
       inkscape:connector-curvature="0"
       id="path49"
       d="m 451.49198,875.42581 -0.061,0.609 -0.07,-0.609 c 0.04,0 0.091,0 0.131,0 z" />
    <path
       style="fill:#000000"
       inkscape:connector-curvature="0"
       id="path51"
       d="m 451.49198,901.36581 -0.061,0.6 -0.07,-0.6 c 0.04,0 0.091,0 0.131,0 z" />
    <path
       style="fill:#000000"
       inkscape:connector-curvature="0"
       id="path53"
       d="m 451.43198,876.03481 -0.07,0.601 c -2.22,0.04 -3.93,0.97 -5.369,2.689 -1.48,2.15 -2.29,5.38 -2.29,9.54 0,4.43 0.81,7.79 2.29,10.08 1.439,1.44 3.149,2.38 5.369,2.42 l 0.07,0.6 -0.07,0.601 c -3.359,0 -6.18,-1.47 -8.46,-3.89 -2.29,-2.421 -3.5,-5.65 -3.5,-9.54 0,-4.171 1.48,-7.66 4.03,-10.08 2.26,-2.12 5.03,-3.591 7.93,-3.63 l 0.07,0.609 z" />
    <path
       style="fill:#000000"
       inkscape:connector-curvature="0"
       id="path55"
       d="m 443.30198,917.07581 c 2.82,2.83 4.16,6.32 4.16,10.48 0,4.17 -1.34,8.069 -4.16,10.479 -2.82,2.83 -6.18,4.57 -9.94,4.57 l 0,-1.74 c 2.681,0 4.7,-1.08 6.45,-3.229 2.15,-1.75 2.82,-5.11 2.82,-9.671 0,-4.569 -1.08,-8.47 -2.82,-10.479 -1.75,-2.021 -3.77,-3.09 -6.45,-3.09 l 0.131,-1.48 c 3.979,0.03 7.419,1.369 9.809,4.16 z" />
    <path
       style="fill:#000000"
       inkscape:connector-curvature="0"
       id="path61"
       d="m 437.66198,892.49481 c 0.529,0.8 0.8,2.01 0.8,2.95 0,1.75 -0.8,3.5 -2.28,4.97 -1.479,1.21 -3.09,2.15 -5.78,2.15 -0.54,0 -1.069,-0.26 -1.75,-0.26 -0.529,0 -1.34,-0.41 -2.279,-0.681 -1.07,-0.529 -2.28,-0.8 -2.55,-0.8 0,0 -0.271,0.271 -0.54,0.271 0,0.27 -0.271,0.8 -0.271,1.47 l -0.54,0 0,-8.59 0.54,0 c 0.271,1.739 0.54,3.489 1.08,4.16 0.67,1.079 1.47,1.75 2.68,2.279 1.08,0.681 2.29,0.95 3.63,0.95 1.48,0 2.96,-0.27 3.49,-1.21 0.811,-0.94 1.48,-2.02 1.48,-2.96 0,-0.94 -0.4,-1.48 -0.67,-2.15 -0.271,-0.54 -0.811,-1.479 -1.341,-1.75 -0.68,-0.27 -2.02,-1.21 -4.029,-2.409 -2.021,-1.48 -3.771,-2.29 -4.57,-2.96 -0.939,-0.811 -1.75,-1.75 -2.02,-2.69 -0.67,-0.53 -0.94,-1.74 -0.94,-2.68 0,-2.021 0.94,-3.5 2.021,-4.98 1.479,-1.2 3.489,-2.149 5.51,-2.149 1.069,0 2.819,0.68 4.3,1.479 0.53,0 1.07,0.41 1.34,0.41 0.4,0 0.67,-0.41 0.94,-0.41 0,0 0.27,-0.53 0.54,-1.479 l 0.529,0 0,8.739 -0.529,0 c -0.271,-1.609 -0.54,-3.09 -1.08,-3.899 -0.67,-1.21 -1.48,-2.15 -2.69,-2.69 -0.8,-0.67 -2.28,-0.939 -3.35,-0.939 -1.21,0 -2.29,0.27 -2.96,1.21 -0.811,0.939 -1.34,1.75 -1.34,2.96 0,0.939 0.27,1.75 0.8,2.149 0.54,0.8 2.29,2.28 5.24,4.16 2.289,1.21 3.899,2.29 4.84,2.96 0.539,0.54 1.479,1.48 1.749,2.419 z" />
    <path
       style="fill:#000000"
       inkscape:connector-curvature="0"
       id="path63"
       d="m 433.49198,912.91481 -0.131,1.48 0,-1.48 c 0.04,0 0.091,0 0.131,0 z" />
    <path
       style="fill:#000000"
       inkscape:connector-curvature="0"
       id="path65"
       d="m 433.36098,940.86581 0,1.74 -0.14,0 c -4.16,0 -7.39,-1.48 -10.07,-4.16 -2.819,-2.82 -3.899,-6.32 -3.899,-10.89 0,-4.561 1.34,-8.061 4.57,-10.74 2.789,-2.53 5.84,-3.87 9.539,-3.9 l 0,1.48 -0.14,-0.141 c -2.82,0 -4.83,1.08 -6.31,3.23 -1.75,2.01 -3.09,5.51 -3.09,10.07 0,4.569 1.34,8.069 3.09,10.479 1.739,1.75 3.89,2.83 6.31,2.83 l 0.14,0 z" />
    <path
       style="fill:#000000"
       inkscape:connector-curvature="0"
       id="path67"
       d="m 416.83198,879.32581 c 2.279,2.69 3.63,5.91 3.63,9.54 0,3.9 -1.351,7.39 -3.63,9.811 -2.42,2.42 -5.24,3.89 -8.33,3.89 l -0.061,-0.601 0.061,-0.6 c 2.02,0 4.03,-0.95 5.37,-2.689 1.479,-2.021 2.29,-5.11 2.29,-9.271 0,-4.44 -0.811,-7.93 -2.551,-10.08 -1.079,-1.75 -3.09,-2.689 -5.109,-2.689 l -0.061,-0.601 0.061,-0.609 0.27,0 c 3.089,-0.001 5.64,1.479 8.06,3.899 z" />
    <path
       style="fill:#000000"
       inkscape:connector-curvature="0"
       id="path69"
       d="m 418.44098,927.55581 c 0,3.899 -1.34,7.39 -3.76,9.81 -1.88,2.42 -5.1,3.9 -9,4.44 l 0,-2.021 c 1.88,-0.54 3.49,-1.479 4.84,-2.82 2.011,-2.02 3.09,-5.51 3.09,-9.409 0,-3.761 -1.079,-6.98 -3.09,-9 -1.35,-1.48 -2.959,-2.42 -4.84,-2.95 l 0,-1.88 c 2.15,0.26 3.9,0.8 5.101,1.34 2.149,0.67 4.17,2.42 5.649,4.43 1.341,2.56 2.01,4.969 2.01,8.06 z" />
    <path
       style="fill:#000000"
       inkscape:connector-curvature="0"
       id="path89"
       d="m 408.50198,875.42581 -0.061,0.609 -0.069,-0.609 c 0.04,0 0.09,0 0.13,0 z" />
    <path
       style="fill:#000000"
       inkscape:connector-curvature="0"
       id="path91"
       d="m 408.50198,901.36581 -0.061,0.6 -0.069,-0.6 c 0.04,0 0.09,0 0.13,0 z" />
    <path
       style="fill:#000000"
       inkscape:connector-curvature="0"
       id="path93"
       d="m 408.44098,876.03481 -0.069,0.601 c -2.22,0.04 -3.93,0.97 -5.38,2.689 -1.48,2.15 -2.28,5.38 -2.28,9.54 0,4.43 0.8,7.79 2.28,10.08 1.45,1.44 3.16,2.38 5.38,2.42 l 0.069,0.6 -0.069,0.601 c -3.36,0 -6.18,-1.47 -8.47,-3.89 -2.28,-2.421 -3.49,-5.65 -3.49,-9.54 0,-4.171 1.48,-7.66 4.03,-10.08 2.25,-2.12 5.03,-3.591 7.93,-3.63 l 0.069,0.609 z" />
    <path
       style="fill:#000000"
       inkscape:connector-curvature="0"
       id="path95"
       d="m 405.68198,939.78481 0,2.021 c -1.08,0.13 -2.42,0.13 -3.63,0.13 l -12.9,0 0,-0.811 1.08,0 c 1.07,0 2.15,-0.26 2.42,-0.939 0.4,-0.8 0.67,-1.74 0.67,-3.49 l 0,-17.87 c 0,-2.01 -0.27,-3.09 -0.67,-3.76 -0.67,-0.811 -1.35,-1.08 -2.42,-1.08 l -0.4,0 0,-0.67 10.88,0 c 1.88,0 3.49,0.14 4.97,0.41 l 0,1.88 c -1.08,-0.271 -2.42,-0.54 -3.9,-0.54 -1.07,0 -2.42,0.27 -4.16,0.67 l 0,24.05 c 1.74,0.4 3.49,0.4 4.43,0.4 1.35,0 2.55,-0.13 3.63,-0.401 z" />
    <path
       style="fill:#000000"
       inkscape:connector-curvature="0"
       id="path97"
       d="m 399.50198,901.36581 0,0.53 -6.85,0 -6.59,-9.13 0,-4.03 c 0.81,-0.41 1.48,-0.81 2.02,-1.35 1.48,-0.94 2.01,-2.681 2.01,-4.16 0,-1.75 -0.53,-3.23 -1.47,-4.44 -0.81,-0.53 -1.61,-0.939 -2.56,-1.21 l 0,-1.34 c 1.48,0.14 2.69,0.27 3.5,0.4 1.34,0.27 2.55,1.21 3.09,2.42 1.21,0.939 1.47,2.42 1.47,3.5 0,1.88 -0.26,3.09 -1.47,4.159 -1.08,1.211 -2.56,2.15 -4.84,2.69 l 5.37,7.25 c 0.94,1.75 2.29,3.23 2.96,3.76 0.81,0.411 2.02,0.951 3.36,0.951 z" />
    <rect
       style="fill:#000000"
       id="rect113"
       height="0.67000002"
       width="0.68000001"
       y="913.3158"
       x="389.15198" />
    <path
       style="fill:#000000"
       inkscape:connector-curvature="0"
       id="path115"
       d="m 389.15198,913.31581 0,0.67 -0.4,0 c -1.34,0 -2.01,0.27 -2.69,1.35 -0.4,0.4 -0.4,1.74 -0.4,3.49 l 0,23.78 -0.67,0 -19.21,-23.11 0,17.2 c 0,1.75 0.4,3.09 0.67,3.76 0.4,0.41 1.48,0.67 2.42,0.67 l 1.07,0 0,0.811 -5.5,0 0,-0.811 -1.08,0 c -0.45,0 -0.91,0 -1.37,-0.08 0.7,-0.109 1.17,-0.39 1.64,-0.859 0.4,-0.8 0.4,-1.74 0.4,-3.49 l 0,-18.94 c -0.67,-0.939 -1.34,-1.75 -1.75,-2.02 -0.32,-0.32 -0.81,-0.56 -1.55,-0.85 0.72,-0.671 1.39,-0.9 2.63,-0.9 l 1.08,0 0,-0.67 1.34,0 18.13,21.899 0,-16.39 c 0,-2.01 0,-3.09 -0.67,-3.76 -0.4,-0.811 -1.48,-1.08 -2.42,-1.08 l -1.07,0 0,-0.67 9.4,0 z" />
    <path
       style="fill:#000000"
       inkscape:connector-curvature="0"
       id="path117"
       d="m 386.06198,888.73581 0,4.03 -1.74,-2.69 c -0.54,0 -1.08,0.271 -1.48,0.271 -0.27,0 -0.54,0 -0.54,0 -0.27,0 -0.27,-0.271 -0.54,-0.271 l 0,7.66 c 0,1.479 0.27,2.68 0.54,2.68 0.27,0.681 1.21,0.95 2.02,0.95 l 1.21,0 0,0.53 -10.89,0 0,-0.53 0.81,0 c 1.21,0 1.75,-0.27 2.28,-0.95 0.27,-0.26 0.27,-1.47 0.27,-2.68 l 0,-1.08 0,-16.12 c 0,-1.479 0,-2.689 -0.27,-2.96 -0.35,-0.439 -0.88,-0.71 -1.43,-0.84 l -0.02,-0.63 7.5,0 c 0.81,0 1.61,0.13 2.28,0.13 l 0,1.34 c -0.4,-0.13 -0.94,-0.26 -1.47,-0.26 -0.54,0 -1.75,0.26 -2.83,0.53 l 0,11.29 c 0.27,0 0.27,0 0.54,0 0,0 0.27,0 0.54,0 1.34,0 2.42,-0.141 3.22,-0.4 z" />
    <path
       style="fill:#000000"
       inkscape:connector-curvature="0"
       id="path119"
       d="m 376.53198,895.98581 0.53,0.67 c -1.07,2.021 -2.55,3.5 -4.3,4.44 -1.34,0.8 -3.36,1.47 -5.64,1.47 -3.76,0 -7.26,-1.74 -9.27,-4.83 -1.34,-2.29 -2.55,-4.97 -2.55,-8.33 0,-2.29 0.54,-4.7 1.74,-6.85 0.81,-2.29 2.56,-4.17 4.57,-4.98 1.75,-1.2 4.03,-2.149 6.05,-2.149 2.01,0 3.76,0.68 5.37,1.479 0.27,0 0.94,0.41 0.94,0.41 0.27,0 0.81,-0.41 0.81,-0.41 0.07,-0.07 0.14,-0.16 0.21,-0.27 l 0.46,0 c 0.28,0 0.57,0.029 0.85,0.1 l 0.23,7.43 -0.27,0 c -0.94,-2.42 -2.02,-4.569 -3.5,-5.779 -1.07,-1.07 -2.82,-1.75 -4.83,-1.75 -1.48,0 -2.82,0.68 -4.3,1.479 -1.21,0.67 -2.29,2.15 -2.82,4.17 -0.95,1.88 -1.21,4.43 -1.21,7.12 0,2.42 0.26,4.57 0.8,6.04 0.94,1.75 2.02,3.23 3.23,4.17 1.48,0.8 3.09,1.21 4.83,1.21 1.48,0 2.96,-0.41 4.03,-0.939 1.48,-0.672 2.83,-2.151 4.04,-3.901 z" />
    <path
       style="fill:#000000"
       inkscape:connector-curvature="0"
       id="path121"
       d="m 376.28198,876.10581 0.02,0.63 c -0.28,-0.07 -0.57,-0.1 -0.85,-0.1 l -0.46,0 c 0.11,-0.15 0.22,-0.33 0.34,-0.53 l 0.95,0 z" />
    <path
       style="fill:#000000"
       inkscape:connector-curvature="0"
       id="path123"
       d="m 376.26198,875.42581 0.02,0.68 -0.95,0 c 0.12,-0.21 0.24,-0.43 0.39,-0.68 l 0.54,0 z" />
    <path
       style="fill:#000000"
       inkscape:connector-curvature="0"
       id="path125"
       d="m 374.64198,876.10581 0.69,0 c -0.12,0.2 -0.23,0.38 -0.34,0.53 l -0.35,0 0,-0.53 z" />
    <path
       style="fill:#000000"
       inkscape:connector-curvature="0"
       id="path141"
       d="m 364.44198,941.12481 0,0.811 -4.58,0 0,-0.811 1.08,0 c 0.4,0 0.75,-0.02 1.05,-0.08 0.46,0.08 0.92,0.08 1.37,0.08 l 1.08,0 z" />
    <path
       style="fill:#000000"
       inkscape:connector-curvature="0"
       id="path143"
       d="m 364.44198,913.31581 0,0.67 -1.08,0 c -1.24,0 -1.91,0.229 -2.63,0.9 -0.18,-0.07 -0.38,-0.141 -0.6,-0.221 -0.27,0 -0.93,-0.41 -1.74,-0.41 l 0,-0.939 6.05,0 z" />
    <path
       style="fill:#000000"
       inkscape:connector-curvature="0"
       id="path145"
       d="m 361.34198,940.86581 c 0.22,0.08 0.43,0.14 0.65,0.18 -0.3,0.061 -0.65,0.08 -1.05,0.08 l -1.08,0 0,0.811 -8.32,0 0,-0.811 1.07,0 c 0.94,0 2.02,-0.26 2.69,-0.939 0.4,-0.4 0.4,-1.74 0.4,-3.49 l 0,-17.87 c 0,-1.75 0,-2.82 -0.4,-3.09 0,-0.4 -0.27,-0.67 -0.67,-1.07 -0.68,-0.41 -1.35,-0.68 -2.02,-0.68 l -1.07,0 0,-0.67 6.85,0 0,0.939 c 0.81,0 1.47,0.41 1.74,0.41 0.22,0.08 0.42,0.15 0.6,0.221 -0.06,0.06 -0.13,0.119 -0.19,0.18 -0.27,0.67 -0.27,1.75 -0.27,3.76 l 0,17.87 c 0,1.34 0,2.69 0,3.09 0,0.399 0.67,0.668 1.07,1.079 z" />
    <path
       style="fill:#000000"
       inkscape:connector-curvature="0"
       id="path147"
       d="m 356.24198,901.36581 0,0.53 -8.87,0 0,-0.53 -0.94,0 c -0.05,0 -0.1,0 -0.15,0 0.78,-0.03 1.66,-0.3 2.16,-0.95 0.27,-0.26 0.27,-1.2 0.27,-2.68 l 0,-17.2 c 0,-1.21 0,-2.149 0,-2.42 -0.27,-0.27 -0.53,-0.8 -0.8,-0.8 -0.54,-0.41 -1.48,-0.68 -1.75,-0.68 l -0.8,0 0,-0.53 10.88,0 0,0.53 -1.21,0 c -0.81,0 -1.75,0.27 -2.29,0.939 0,0.54 -0.26,1.48 -0.26,2.96 l 0,17.2 c 0,1.21 0.26,2.15 0.26,2.42 0,0.26 0.27,0.67 0.54,0.94 0.67,0.27 1.21,0.27 1.75,0.27 l 1.21,0 z" />
    <path
       style="fill:#000000"
       inkscape:connector-curvature="0"
       id="path149"
       d="m 355.70198,906.33481 0,0.94 c -1.07,0 -1.75,0.4 -2.42,0.8 -0.67,0.271 -1.07,0.94 -1.74,1.75 0,0.67 -0.68,2.42 -1.35,4.43 l -10.48,28.351 -1.07,0 -7.66,-21.63 -4.45,13.77 -1.87,-0.6 5.24,-16.66 -1.47,-3.5 -0.68,-2.41 c -0.26,-0.81 -0.67,-1.75 -1.34,-2.56 0,0 -0.4,-0.271 -0.67,-0.67 -0.4,-0.271 -1.08,-0.67 -1.48,-0.67 0,0 -0.67,-0.4 -1.34,-0.4 l 0,-0.94 13.57,0 0,0.94 -1.08,0 c -0.67,0 -1.74,0.4 -2.01,0.8 -0.41,0.67 -0.67,0.94 -0.67,1.75 0,0.94 0.26,2.69 1.34,4.84 l 6.58,19.21 7.39,-19.62 c 0.67,-2.01 1.08,-3.76 1.08,-4.43 0,-0.399 0,-0.81 -0.41,-1.08 -0.27,-0.399 -0.67,-0.67 -1.07,-0.67 -0.27,-0.399 -1.34,-0.8 -2.42,-0.8 l 0,-0.94 10.48,0 z" />
    <path
       style="fill:#000000"
       inkscape:connector-curvature="0"
       id="path165"
       d="m 347.37198,901.36581 0,0.53 -2.01,0 0,-0.53 0.8,0 c 0.04,0 0.08,0 0.12,0 0.05,0 0.1,0 0.15,0 l 0.94,0 z" />
    <path
       style="fill:#000000"
       inkscape:connector-curvature="0"
       id="path167"
       d="m 347.37198,871.93581 0,0.54 -0.94,0 c -1.48,0 -2.28,0.27 -2.82,1.21 -0.21,0.41 -0.26,1.21 -0.26,2.41 -0.01,0.369 -0.01,0.779 -0.01,1.22 l 0,19.34 c 0,2.021 0.27,3.23 0.54,3.76 0.51,0.65 1.39,0.92 2.4,0.95 -0.04,0 -0.08,0 -0.12,0 l -0.8,0 0,0.53 -10.35,0 0,-0.53 1.08,0 c 1.2,0 2.01,-0.27 2.55,-1.21 0.4,-0.54 0.67,-1.75 0.67,-3.5 l 0,-20.02 -1.85,-0.91 1.85,-3.79 8.06,0 z" />
    <path
       style="fill:#000000"
       inkscape:connector-curvature="0"
       id="path169"
       d="m 339.31198,876.63581 -12.09,25.26 -0.54,0 -11.56,-25.26 0,20.02 c 0,2.021 0.41,3.23 0.68,3.76 0.53,0.681 1.34,0.95 2.55,0.95 l 1.07,0 0,0.53 -10.21,0 0,-0.53 0.81,0 c 1.21,0 2.28,-0.27 2.55,-1.21 0.27,-0.54 0.54,-1.75 0.54,-3.5 l 0,-19.34 c 0,-1.48 -0.27,-2.69 -0.54,-3.09 0,-0.54 -0.27,-1.08 -0.8,-1.48 -0.54,0 -1.75,-0.27 -2.56,-0.27 l 0,-0.54 8.6,0 10.21,23.109 9.44,-19.319 1.85,0.91 z" />
    <path
       style="fill:#000000"
       inkscape:connector-curvature="0"
       id="path185"
       d="m 326.53198,934.74481 -2.54,7.86 -1.48,0 -10.07,-29.29 c -0.67,-2.15 -1.35,-3.49 -1.35,-3.89 -0.4,-0.41 -1.07,-1.08 -1.47,-1.351 -0.68,-0.399 -1.35,-0.8 -2.42,-0.8 l 0,-0.94 12.9,0 0,0.94 -0.68,0 c -0.67,0 -1.74,0.4 -2.14,0.8 -0.27,0.67 -0.68,0.94 -0.68,1.75 0,0.67 0.41,2.01 1.08,4.43 l 6.98,19.891 1.87,0.6 z" />
  </g>
</svg>
