<?xml version="1.0" encoding="UTF-8" standalone="no"?>
<!-- Generator: Adobe Illustrator 13.0.0, SVG Export Plug-In . SVG Version: 6.00 Build 14948)  -->

<svg
   xmlns:dc="http://purl.org/dc/elements/1.1/"
   xmlns:cc="http://creativecommons.org/ns#"
   xmlns:rdf="http://www.w3.org/1999/02/22-rdf-syntax-ns#"
   xmlns:svg="http://www.w3.org/2000/svg"
   xmlns="http://www.w3.org/2000/svg"
   xmlns:sodipodi="http://sodipodi.sourceforge.net/DTD/sodipodi-0.dtd"
   xmlns:inkscape="http://www.inkscape.org/namespaces/inkscape"
   version="1.1"
   id="Layer_1"
   x="0px"
   y="0px"
   width="646.801px"
   height="88.853px"
   viewBox="0 0 646.801 88.853"
   enable-background="new 0 0 646.801 88.853"
   xml:space="preserve"
   inkscape:version="0.47 r22583"
   sodipodi:docname="Windows_Server_2008_R2_logo.svg"><metadata
   id="metadata843"><rdf:RDF><cc:Work
       rdf:about=""><dc:format>image/svg+xml</dc:format><dc:type
         rdf:resource="http://purl.org/dc/dcmitype/StillImage" /></cc:Work></rdf:RDF></metadata><defs
   id="defs841"><inkscape:perspective
     sodipodi:type="inkscape:persp3d"
     inkscape:vp_x="0 : 44.426498 : 1"
     inkscape:vp_y="0 : 1000 : 0"
     inkscape:vp_z="646.80103 : 44.426498 : 1"
     inkscape:persp3d-origin="323.40051 : 29.617666 : 1"
     id="perspective845" /></defs><sodipodi:namedview
   pagecolor="#ffffff"
   bordercolor="#666666"
   borderopacity="1"
   objecttolerance="10"
   gridtolerance="10"
   guidetolerance="10"
   inkscape:pageopacity="0"
   inkscape:pageshadow="2"
   inkscape:window-width="640"
   inkscape:window-height="481"
   id="namedview839"
   showgrid="false"
   inkscape:zoom="0.83487808"
   inkscape:cx="323.40051"
   inkscape:cy="44.426498"
   inkscape:window-x="0"
   inkscape:window-y="0"
   inkscape:window-maximized="0"
   inkscape:current-layer="g3" />
<g
   id="g3">
	<g
   id="g5">
		<g
   id="g7">
			<path
   fill="#000001"
   d="M143.953,64.555c-0.439,1.646-0.697,2.958-0.773,3.936h-0.115c-0.152-1.38-0.384-2.651-0.689-3.819     l-8.703-31.827h-4.653l-9.135,31.598c-0.498,1.742-0.784,3.121-0.861,4.138h-0.116c-0.114-1.456-0.353-2.835-0.718-4.138     l-8.761-31.598h-5.285l12.035,41.191h5.602l8.532-30.189c0.383-1.321,0.642-2.69,0.774-4.107h0.115     c0.057,1.477,0.269,2.862,0.631,4.164l8.476,30.135h5.657L157.6,32.844h-5.229L143.953,64.555z"
   id="path9" />
			<rect
   x="160.79"
   y="44.618"
   fill="#000001"
   width="4.711"
   height="29.415"
   id="rect11" />
			<path
   fill="#000001"
   d="M163.204,31.031c-0.843,0-1.565,0.293-2.168,0.877c-0.604,0.584-0.906,1.308-0.906,2.169     c0,0.898,0.303,1.638,0.906,2.211c0.603,0.574,1.325,0.861,2.168,0.861c0.862,0,1.594-0.297,2.197-0.891     c0.604-0.595,0.905-1.322,0.905-2.184c0-0.862-0.302-1.585-0.905-2.169C164.798,31.324,164.066,31.031,163.204,31.031z"
   id="path13" />
			<path
   fill="#000001"
   d="M187.046,43.9c-4.232,0-7.449,1.867-9.651,5.603h-0.114v-4.884h-4.711v29.416h4.711V57.258     c0-2.7,0.771-4.932,2.313-6.692c1.54-1.762,3.489-2.644,5.846-2.644c4.558,0,6.835,3.111,6.835,9.336v16.775h4.713V56.023     c0-3.869-0.848-6.855-2.544-8.963C192.748,44.953,190.282,43.9,187.046,43.9z"
   id="path15" />
			<path
   fill="#000001"
   d="M223.731,48.668h-0.115c-1.856-3.179-4.797-4.77-8.818-4.77c-4.078,0-7.344,1.466-9.795,4.396     c-2.45,2.93-3.676,6.846-3.676,11.749c0,4.596,1.147,8.215,3.446,10.855c2.202,2.566,5.112,3.851,8.731,3.851     c4.559,0,7.929-1.905,10.11-5.717h0.115v4.999h4.711V30.486h-4.711L223.731,48.668L223.731,48.668z M223.731,60.733     c0,2.834-0.785,5.189-2.355,7.066c-1.666,1.952-3.84,2.931-6.521,2.931c-2.526,0-4.576-0.9-6.147-2.699     c-1.705-1.954-2.557-4.701-2.557-8.244c0-3.717,0.824-6.622,2.473-8.72c1.646-2.097,3.905-3.146,6.777-3.146     c2.432,0,4.443,0.843,6.032,2.527c1.532,1.607,2.298,3.591,2.298,5.945V60.733z"
   id="path17" />
			<path
   fill="#000001"
   d="M248.615,43.9c-4.462,0-8.023,1.304-10.686,3.906c-2.872,2.796-4.309,6.751-4.309,11.864     c0,4.479,1.262,8.092,3.791,10.828c2.586,2.834,6.09,4.252,10.514,4.252c4.48,0,8.044-1.418,10.686-4.252     c2.645-2.834,3.965-6.598,3.965-11.287c0-4.771-1.23-8.516-3.691-11.232C256.424,45.26,253,43.9,248.615,43.9z M255.366,67.714     c-1.628,2.011-3.993,3.017-7.096,3.017c-2.987,0-5.371-0.991-7.151-2.973c-1.781-1.982-2.672-4.735-2.672-8.26     c0-3.754,0.93-6.654,2.786-8.705c1.763-1.913,4.106-2.871,7.037-2.871c2.969,0,5.276,0.947,6.923,2.845     c1.705,1.973,2.557,4.845,2.557,8.617C257.75,62.983,256.955,65.761,255.366,67.714z"
   id="path19" />
			<path
   fill="#000001"
   d="M293.802,66.795c-0.269,1.015-0.423,1.896-0.462,2.643h-0.229c-0.076-1.054-0.211-1.936-0.402-2.643     l-6.117-22.178h-4.311l-6.749,22.063c-0.307,0.979-0.489,1.877-0.546,2.7h-0.23c-0.075-0.996-0.211-1.878-0.401-2.646     l-6.062-22.117h-4.94l8.877,29.416h4.71l6.578-21.112c0.346-1.094,0.547-1.974,0.604-2.646h0.115     c0.096,1.034,0.249,1.937,0.459,2.7l6.063,21.058h4.883l8.817-29.416h-4.652L293.802,66.795z"
   id="path21" />
			<path
   fill="#000001"
   d="M316.125,57.517c-2.24-0.958-3.717-1.771-4.426-2.44c-0.783-0.729-1.178-1.743-1.178-3.047     c0-1.205,0.471-2.189,1.406-2.957c0.939-0.767,2.191-1.148,3.766-1.148c2.51,0,4.729,0.698,6.662,2.098v-4.739     c-1.855-0.92-3.953-1.38-6.289-1.38c-3.045,0-5.535,0.812-7.471,2.429c-1.934,1.618-2.9,3.651-2.9,6.104     c0,2.185,0.622,3.955,1.867,5.313c1.033,1.148,2.787,2.261,5.258,3.332c2.395,1.055,4.002,1.953,4.826,2.7     c0.822,0.746,1.232,1.694,1.232,2.845c0,2.736-1.867,4.106-5.602,4.106c-2.795,0-5.344-0.938-7.642-2.814v5.057     c2.067,1.188,4.501,1.781,7.296,1.781c3.41,0,6.102-0.862,8.072-2.586c1.801-1.591,2.699-3.591,2.699-6.004     c0-2.185-0.719-3.982-2.154-5.399C320.442,59.651,318.633,58.569,316.125,57.517z"
   id="path23" />
			<g
   id="g25">
				<g
   id="g27">
					
						<radialGradient
   id="SVGID_1_"
   cx="-430.9199"
   cy="287.7327"
   r="45.8655"
   gradientTransform="matrix(0.9732 0 0 0.9795 470.3442 -231.1332)"
   gradientUnits="userSpaceOnUse">
						<stop
   offset="0.25"
   style="stop-color:#FFFFFF"
   id="stop30" />
						<stop
   offset="1"
   style="stop-color:#000000"
   id="stop32" />
					</radialGradient>
					<path
   opacity="0.2"
   fill="url(#SVGID_1_)"
   enable-background="new    "
   d="M28.949,41.206c-1.623,0.04-3.335,0.208-5.091,0.499       c-1.841,0.306-3.793,0.758-5.799,1.342c-2.092,0.605-4.316,1.381-6.606,2.301l-0.016,0.003       c-0.078,0.034-0.133,0.099-0.159,0.182L2.156,76.436c-0.05,0.164,0.041,0.33,0.145,0.42l0.61,0.453       c0,0,0.011,0.007,0.019,0.017c0.147,0.098,0.296,0.093,0.355,0.084c0.002,0,0.018-0.006,0.018-0.006       c3.417-1.284,6.462-2.204,9.311-2.818c2.777-0.596,5.279-0.879,7.647-0.867c1.982,0.013,3.844,0.219,5.695,0.62       c1.672,0.366,3.298,0.89,4.968,1.602c2.342,1.02,4.49,2.304,6.098,3.304l0.015,0.008c0,0,0,0.007-0.001,0.007       c0.05,0.024,0.2,0.093,0.343,0.028c0,0,0.402-0.229,0.523-0.302l0,0l0.042-0.026c0.082-0.057,0.192-0.13,0.226-0.271       l0.006-0.029c0,0,0.003,0.005,0.004,0.007c0.018-0.06,9.079-30.095,9.079-30.095l0.312-1.032       c0.005-0.024,0.008-0.056,0.008-0.082c0-0.119-0.052-0.229-0.139-0.29c-0.003,0-0.01-0.002-0.01-0.002l-0.001-0.001       c-3.864-2.536-8.232-4.983-13.989-5.728C31.997,41.243,30.485,41.17,28.949,41.206z"
   id="path34" />
					
						<radialGradient
   id="SVGID_2_"
   cx="-430.9165"
   cy="287.7327"
   r="45.8681"
   gradientTransform="matrix(0.9732 0 0 0.9795 470.3442 -231.1332)"
   gradientUnits="userSpaceOnUse">
						<stop
   offset="0.25"
   style="stop-color:#FFFFFF"
   id="stop37" />
						<stop
   offset="1"
   style="stop-color:#000000"
   id="stop39" />
					</radialGradient>
					<path
   opacity="0.2"
   fill="url(#SVGID_2_)"
   enable-background="new    "
   d="M51.627,50.359L51.627,50.359       c-0.106,0.004-0.214,0.047-0.379,0.146c0,0.004-0.001,0.005-0.001,0.005l-0.004,0.001l-0.002,0.004       c-0.041,0.027-0.146,0.101-0.267,0.189c-0.244,0.187-0.395,0.337-0.438,0.439h-0.001c0,0,0,0-0.001,0       c-0.001,0.007-0.009,0.026-0.009,0.026l0.002-0.009l-0.002,0.011v0.004l-9.131,30.62c-0.158,0.459,0.263,0.71,0.311,0.736       c2.342,1.521,4.576,2.72,6.828,3.656c1.32,0.555,2.67,1.023,4.015,1.398c1.458,0.409,2.956,0.726,4.458,0.936       c1.61,0.224,3.271,0.335,4.938,0.331c1.771-0.009,3.606-0.146,5.45-0.413c1.949-0.28,3.968-0.713,6-1.286       c2.136-0.6,4.348-1.373,6.58-2.296c0.003,0,0.014-0.009,0.014-0.009c0.062-0.039,0.21-0.13,0.286-0.278       c0-0.003,8.917-30.123,8.92-30.133c0-0.002-0.003-0.006-0.003-0.006V54.43c0.012-0.045,0.014-0.088,0.014-0.129       c0-0.248-0.159-0.397-0.161-0.4c0,0.003-0.748-0.573-0.748-0.573l0,0l-0.002-0.005c-0.049-0.053-0.18-0.135-0.499-0.09       c-2.287,0.751-4.497,1.372-6.575,1.859c-2.002,0.466-3.943,0.815-5.772,1.037c-3.45,0.425-6.569,0.425-9.538,0       c-2.613-0.369-5.085-1.072-7.555-2.146c-1.995-0.864-4.028-1.984-6.398-3.531l-0.008-0.004l0.003,0.001       C51.809,50.385,51.716,50.359,51.627,50.359z"
   id="path41" />
					
						<radialGradient
   id="SVGID_3_"
   cx="-430.9199"
   cy="287.7346"
   r="45.871"
   gradientTransform="matrix(0.9732 0 0 0.9795 470.3442 -231.1332)"
   gradientUnits="userSpaceOnUse">
						<stop
   offset="0.25"
   style="stop-color:#FFFFFF"
   id="stop44" />
						<stop
   offset="1"
   style="stop-color:#000000"
   id="stop46" />
					</radialGradient>
					<path
   opacity="0.2"
   fill="url(#SVGID_3_)"
   enable-background="new    "
   d="M62.061,13.066c-0.002,0-0.157,0.109-0.157,0.109       c-0.314,0.227-0.5,0.402-0.552,0.522l-0.002,0.004c0,0,0,0.001-0.002,0.001c0,0.004-0.031,0.104-0.031,0.104       c0,0.005-9.16,30.691-9.16,30.691c-0.025,0.072-0.037,0.142-0.037,0.202c0,0.336,0.311,0.507,0.318,0.508l0,0h0.002       c0.726,0.473,1.476,0.926,2.229,1.346c3.515,2.121,6.99,3.53,10.622,4.309c2.103,0.454,4.291,0.694,6.502,0.716       c2.39,0.021,4.893-0.211,7.431-0.689c3.767-0.578,7.594-1.715,11.372-3.372c0-0.002,0.01-0.006,0.01-0.006       c0.072-0.033,0.227-0.134,0.306-0.282c0-0.006,9.316-30.973,9.316-30.973c0.017-0.056,0.027-0.107,0.027-0.158       c0-0.267-0.233-0.489-0.459-0.683c-0.125-0.115-0.298-0.265-0.417-0.313c-0.253-0.116-0.511-0.078-0.589-0.033       c-0.002,0-0.007,0.007-0.007,0.007l-0.002,0.002c-2.281,0.91-4.496,1.674-6.587,2.273c-2,0.572-3.95,1.009-5.792,1.299       c-1.754,0.276-3.469,0.428-5.099,0.45c-1.538,0.021-3.052-0.067-4.503-0.271c-2.604-0.365-5.097-1.092-7.614-2.22       c-2.502-1.118-4.744-2.514-6.42-3.604C62.478,12.876,62.352,12.886,62.061,13.066z"
   id="path48" />
					
						<radialGradient
   id="SVGID_4_"
   cx="-430.9204"
   cy="287.7356"
   r="45.8748"
   gradientTransform="matrix(0.9732 0 0 0.9795 470.3442 -231.1332)"
   gradientUnits="userSpaceOnUse">
						<stop
   offset="0.25"
   style="stop-color:#FFFFFF"
   id="stop51" />
						<stop
   offset="1"
   style="stop-color:#000000"
   id="stop53" />
					</radialGradient>
					<path
   opacity="0.2"
   fill="url(#SVGID_4_)"
   enable-background="new    "
   d="M32.409,4.48c-3.161,0.663-6.613,1.742-10.263,3.202       v0.001c-0.032,0.013-0.135,0.053-0.169,0.185l-0.474,1.581l-8.784,29.423c-0.01,0.029-0.014,0.064-0.014,0.104       c0,0.144,0.063,0.32,0.136,0.37c0.014,0.011,0.03,0.02,0.042,0.025l0.002,0.002l0.06,0.044l0.54,0.411l0.016,0.01       c0.018,0.014,0.038,0.025,0.05,0.034c0.111,0.044,0.139,0.044,0.168,0.041h0.01l0,0c0-0.002,0.004-0.002,0.004-0.002l0,0       v-0.002l0.017-0.005c0.08-0.007,0.268-0.088,0.269-0.09c8.001-3.071,14.4-4.188,20.138-3.509       c2.447,0.29,4.815,0.917,7.239,1.913c1.93,0.795,3.923,1.835,6.266,3.272l0.033,0.015h0.007l0.028,0.014l0.003,0.001h0.003       l0.008,0.005l0.009,0.007H47.75c0.001,0,0.185,0.089,0.338,0.05c0-0.002,0.576-0.254,0.576-0.254l0,0l0,0l0.027-0.018       c0.077-0.055,0.195-0.137,0.229-0.283l0,0h0.001c0-0.001,0-0.001,0-0.001l5.777-19.318l3.105-10.381l0.208-0.687       c0-0.002,0.001-0.016,0.001-0.016c0-0.001,0.15-0.504,0.15-0.504c0.004-0.017,0.006-0.033,0.009-0.054       c0-0.013,0.001-0.026,0.001-0.041c0-0.115-0.049-0.218-0.136-0.274c-1.835-1.203-3.292-2.071-4.722-2.813l-0.097-0.049       c-4.131-2.131-8.105-3.166-12.508-3.256C38.128,3.582,35.334,3.865,32.409,4.48z"
   id="path55" />
				</g>
				<g
   id="g57">
					<g
   id="g59">
						<g
   id="g61">
							<g
   id="g63">
								<g
   id="g65">
									
										<radialGradient
   id="SVGID_5_"
   cx="-456.5117"
   cy="254.5872"
   r="49.1256"
   gradientTransform="matrix(1 0 0 1 504 -211.1914)"
   gradientUnits="userSpaceOnUse">
										<stop
   offset="0.0011"
   style="stop-color:#D1E7EE"
   id="stop68" />
										<stop
   offset="0.0979"
   style="stop-color:#CDE4EC"
   id="stop70" />
										<stop
   offset="0.203"
   style="stop-color:#C0DCE8"
   id="stop72" />
										<stop
   offset="0.2985"
   style="stop-color:#ADD0E1"
   id="stop74" />
										<stop
   offset="0.6504"
   style="stop-color:#3982B1"
   id="stop76" />
										<stop
   offset="0.7203"
   style="stop-color:#3474AA"
   id="stop78" />
										<stop
   offset="0.899"
   style="stop-color:#285699"
   id="stop80" />
										<stop
   offset="1"
   style="stop-color:#244B93"
   id="stop82" />
									</radialGradient>
									<path
   fill="url(#SVGID_5_)"
   d="M9.308,42.13c18.623-7.672,27.637-3.579,35.71,1.902l-9.324,32.042           c-8.101-5.447-16.91-9.934-35.607-2.202L9.2,42.176L9.308,42.13z"
   id="path84" />
								</g>
							</g>
						</g>
						
							<radialGradient
   id="SVGID_6_"
   cx="-456.5737"
   cy="254.3792"
   r="49.3337"
   gradientTransform="matrix(1 0 0 1 504 -211.1914)"
   gradientUnits="userSpaceOnUse">
							<stop
   offset="0.0036"
   style="stop-color:#D8EEED"
   id="stop87" />
							<stop
   offset="0.1733"
   style="stop-color:#98D8D7"
   id="stop89" />
							<stop
   offset="0.2237"
   style="stop-color:#8ED3D3"
   id="stop91" />
							<stop
   offset="0.3088"
   style="stop-color:#74C6CA"
   id="stop93" />
							<stop
   offset="0.4176"
   style="stop-color:#49B1BA"
   id="stop95" />
							<stop
   offset="0.4477"
   style="stop-color:#3CAAB5"
   id="stop97" />
							<stop
   offset="0.56"
   style="stop-color:#2E81A4"
   id="stop99" />
							<stop
   offset="0.6836"
   style="stop-color:#215B94"
   id="stop101" />
							<stop
   offset="0.783"
   style="stop-color:#19448B"
   id="stop103" />
							<stop
   offset="0.8448"
   style="stop-color:#163B87"
   id="stop105" />
							<stop
   offset="1"
   style="stop-color:#0B317D"
   id="stop107" />
						</radialGradient>
						<path
   fill="url(#SVGID_6_)"
   d="M0.772,74.813c0.061,0.007,0.168-0.051,0.168-0.051c0.134,0.092,0.24,0.152,0.24,0.152        S0.97,74.965,0.772,74.813z"
   id="path109" />
						<path
   fill="#152469"
   d="M35.369,76.436c0,0,0.122,0.118,0.268,0.081l-0.558,0.332c-0.179,0.08-0.367-0.048-0.367-0.048        L35.369,76.436z"
   id="path111" />
						
							<radialGradient
   id="SVGID_7_"
   cx="-456.5317"
   cy="254.5305"
   r="49.2933"
   gradientTransform="matrix(1 0 0 1 504 -211.1914)"
   gradientUnits="userSpaceOnUse">
							<stop
   offset="0.0036"
   style="stop-color:#D8EEED"
   id="stop114" />
							<stop
   offset="0.1733"
   style="stop-color:#98D8D7"
   id="stop116" />
							<stop
   offset="0.2237"
   style="stop-color:#8ED3D3"
   id="stop118" />
							<stop
   offset="0.3088"
   style="stop-color:#74C6CA"
   id="stop120" />
							<stop
   offset="0.4176"
   style="stop-color:#49B1BA"
   id="stop122" />
							<stop
   offset="0.4477"
   style="stop-color:#3CAAB5"
   id="stop124" />
							<stop
   offset="0.56"
   style="stop-color:#2E81A4"
   id="stop126" />
							<stop
   offset="0.6836"
   style="stop-color:#215B94"
   id="stop128" />
							<stop
   offset="0.783"
   style="stop-color:#19448B"
   id="stop130" />
							<stop
   offset="0.8448"
   style="stop-color:#163B87"
   id="stop132" />
							<stop
   offset="1"
   style="stop-color:#152469"
   id="stop134" />
						</radialGradient>
						<path
   fill="url(#SVGID_7_)"
   d="M0.952,74.768c0,0-0.111,0.063-0.172,0.053l-0.615-0.474l-0.011-0.012        c0.089,0.022,0.188,0.012,0.224,0.007L0.952,74.768z"
   id="path136" />
						<path
   fill="#152469"
   d="M35.686,75.99c0.062,0.038,0.128,0.094,0.189,0.222c-0.033,0.169-0.167,0.251-0.254,0.312        c-0.113,0.023-0.272-0.078-0.272-0.078C35.44,76.369,35.588,76.261,35.686,75.99z"
   id="path138" />
						<path
   fill="#172E65"
   d="M0.165,74.347c-0.119-0.101-0.199-0.279-0.15-0.438l0.107-0.051c-0.042,0.24,0.125,0.406,0.252,0.486        C0.375,74.347,0.287,74.386,0.165,74.347z"
   id="path140" />
						
							<radialGradient
   id="SVGID_8_"
   cx="-456.5088"
   cy="254.4377"
   r="49.3462"
   gradientTransform="matrix(1 0 0 1 504 -211.1914)"
   gradientUnits="userSpaceOnUse">
							<stop
   offset="0.0036"
   style="stop-color:#D8EEED"
   id="stop143" />
							<stop
   offset="0.1733"
   style="stop-color:#98D8D7"
   id="stop145" />
							<stop
   offset="0.2237"
   style="stop-color:#8ED3D3"
   id="stop147" />
							<stop
   offset="0.3088"
   style="stop-color:#74C6CA"
   id="stop149" />
							<stop
   offset="0.4176"
   style="stop-color:#49B1BA"
   id="stop151" />
							<stop
   offset="0.4477"
   style="stop-color:#3CAAB5"
   id="stop153" />
							<stop
   offset="0.56"
   style="stop-color:#2E81A4"
   id="stop155" />
							<stop
   offset="0.6836"
   style="stop-color:#215B94"
   id="stop157" />
							<stop
   offset="0.783"
   style="stop-color:#19448B"
   id="stop159" />
							<stop
   offset="0.8448"
   style="stop-color:#163B87"
   id="stop161" />
							<stop
   offset="1"
   style="stop-color:#0B317D"
   id="stop163" />
						</radialGradient>
						<path
   fill="url(#SVGID_8_)"
   d="M0.915,74.738c17.786-6.946,25.751-3.159,33.857,2.049c-4.854-3.125-9.841-5.61-16.729-5.661        c-4.611-0.024-10.059,1.142-16.879,3.791C1.164,74.916,1.027,74.861,0.915,74.738z"
   id="path165" />
						<g
   id="g167">
							<path
   fill="#094B8F"
   d="M35.365,76.462c-8.104-5.453-16.498-9.612-34.977-2.106c-0.123-0.075-0.321-0.264-0.271-0.495         c18.756-7.979,27.475-3.32,35.576,2.131C35.61,76.282,35.457,76.389,35.365,76.462z"
   id="path169" />
							<path
   fill="#094B8F"
   d="M35.376,76.462l-0.658,0.339c-8.098-5.208-16.295-8.813-33.767-2.033l-0.58-0.421         C18.855,66.839,27.269,71.009,35.376,76.462z"
   id="path171" />
						</g>
						
							<linearGradient
   id="SVGID_9_"
   gradientUnits="userSpaceOnUse"
   x1="-459.2334"
   y1="256.1272"
   x2="-466.9164"
   y2="283.1525"
   gradientTransform="matrix(1 0 0 1 504 -211.1914)">
							<stop
   offset="0"
   style="stop-color:#98D8D7"
   id="stop174" />
							<stop
   offset="1"
   style="stop-color:#152469"
   id="stop176" />
						</linearGradient>
						<path
   fill="url(#SVGID_9_)"
   d="M35.682,75.998l9.336-31.968c0.102,0.064,0.157,0.12,0.21,0.18l-9.354,32.018        C35.82,76.083,35.682,75.998,35.682,75.998z"
   id="path178" />
						
							<radialGradient
   id="SVGID_10_"
   cx="-456.501"
   cy="254.4368"
   r="49.4024"
   gradientTransform="matrix(1 0 0 1 504 -211.1914)"
   gradientUnits="userSpaceOnUse">
							<stop
   offset="0.0036"
   style="stop-color:#D8EEED"
   id="stop181" />
							<stop
   offset="0.1733"
   style="stop-color:#98D8D7"
   id="stop183" />
							<stop
   offset="0.2237"
   style="stop-color:#8ED3D3"
   id="stop185" />
							<stop
   offset="0.3088"
   style="stop-color:#74C6CA"
   id="stop187" />
							<stop
   offset="0.4176"
   style="stop-color:#49B1BA"
   id="stop189" />
							<stop
   offset="0.4477"
   style="stop-color:#3CAAB5"
   id="stop191" />
							<stop
   offset="0.56"
   style="stop-color:#2E81A4"
   id="stop193" />
							<stop
   offset="0.6836"
   style="stop-color:#215B94"
   id="stop195" />
							<stop
   offset="0.783"
   style="stop-color:#19448B"
   id="stop197" />
							<stop
   offset="0.8448"
   style="stop-color:#163B87"
   id="stop199" />
							<stop
   offset="1"
   style="stop-color:#152469"
   id="stop201" />
						</radialGradient>
						<path
   fill="url(#SVGID_10_)"
   d="M45.076,43.811l0.016,0.002c0.118,0.085,0.166,0.248,0.137,0.396l-0.007,0.02        c-0.053-0.055-0.107-0.116-0.208-0.184L45.076,43.811z"
   id="path203" />
						<polygon
   opacity="0.66"
   fill="#063367"
   enable-background="new    "
   points="9.091,42.146 9.199,42.173 0.122,73.86         0.015,73.91       "
   id="polygon205" />
						
							<linearGradient
   id="SVGID_11_"
   gradientUnits="userSpaceOnUse"
   x1="-503.9995"
   y1="269.72"
   x2="-493.7988"
   y2="269.72"
   gradientTransform="matrix(1 0 0 1 504 -211.1914)">
							<stop
   offset="0"
   style="stop-color:#DEF3F1"
   id="stop208" />
							<stop
   offset="1"
   style="stop-color:#5085BC"
   id="stop210" />
						</linearGradient>
						<path
   opacity="0.42"
   fill="url(#SVGID_11_)"
   enable-background="new    "
   d="M9.091,42.146L8.66,43.667L0.015,73.91        c-0.048,0.156,0.031,0.337,0.15,0.438l0.615,0.475c0,0,0.002-0.003,0.002,0c0.08,0.053,0.155,0.074,0.221,0.09l9.198-31.878        l-0.02-0.023L9.2,42.176L9.091,42.146z M0.139,73.854V73.85c0.045-0.016,0.087-0.03,0.129-0.048        C0.222,73.819,0.184,73.834,0.139,73.854z M0.374,74.347c-0.06-0.041-0.132-0.101-0.183-0.175        c0.053,0.074,0.125,0.134,0.184,0.17C0.375,74.342,0.375,74.342,0.374,74.347z"
   id="path212" />
						
							<linearGradient
   id="SVGID_12_"
   gradientUnits="userSpaceOnUse"
   x1="-469.1499"
   y1="271.6018"
   x2="-458.7676"
   y2="271.6018"
   gradientTransform="matrix(1 0 0 1 504 -211.1914)">
							<stop
   offset="0"
   style="stop-color:#DEF3F1"
   id="stop215" />
							<stop
   offset="1"
   style="stop-color:#5085BC"
   id="stop217" />
						</linearGradient>
						<path
   opacity="0.42"
   fill="url(#SVGID_12_)"
   enable-background="new    "
   d="M45.189,43.95l-0.176,0.104l-0.773,0.764        c0.003,0,0.003,0,0.003,0.007c-1.258,4.298-8.322,28.42-9.393,32.03c0.067,0.02,0.147,0.025,0.228-0.007l0.558-0.332        c-0.002,0-0.005,0-0.007,0c0.084-0.063,0.208-0.143,0.245-0.302c0,0.007,0.001,0.007,0.001,0.012l9.044-30.956l0.31-1.062        c0.009-0.06,0-0.11-0.009-0.165C45.211,44.01,45.202,43.984,45.189,43.95z"
   id="path219" />
						
							<linearGradient
   id="SVGID_13_"
   gradientUnits="userSpaceOnUse"
   x1="-494.7998"
   y1="252.4426"
   x2="-458.9082"
   y2="252.4426"
   gradientTransform="matrix(1 0 0 1 504 -211.1914)">
							<stop
   offset="0"
   style="stop-color:#094992"
   id="stop222" />
							<stop
   offset="0.6685"
   style="stop-color:#8BCDE2"
   id="stop224" />
							<stop
   offset="1"
   style="stop-color:#E6F6F9"
   id="stop226" />
						</linearGradient>
						<path
   fill="url(#SVGID_13_)"
   d="M45.014,44.045l-0.773,0.772c-2.686-1.785-10.089-6.381-18.448-5.697        c-6.786,0.553-12.758,2.732-15.592,3.912L9.2,42.174l0.072-0.223c18.701-7.735,27.719-3.623,35.812,1.858l-0.006,0.002h0.014        L45.014,44.045z"
   id="path228" />
						
							<linearGradient
   id="SVGID_14_"
   gradientUnits="userSpaceOnUse"
   x1="-494.729"
   y1="253.1418"
   x2="-494.729"
   y2="253.1418"
   gradientTransform="matrix(1 0 0 1 504 -211.1914)">
							<stop
   offset="0"
   style="stop-color:#7E9EC4"
   id="stop231" />
							<stop
   offset="1"
   style="stop-color:#151D89"
   id="stop233" />
						</linearGradient>
						<path
   fill="url(#SVGID_14_)"
   d="M9.271,41.95"
   id="path235" />
						
							<linearGradient
   id="SVGID_15_"
   gradientUnits="userSpaceOnUse"
   x1="-493.9331"
   y1="253.0598"
   x2="-459.6172"
   y2="253.0598"
   gradientTransform="matrix(1 0 0 1 504 -211.1914)">
							<stop
   offset="0.0056"
   style="stop-color:#BBC7E1"
   id="stop238" />
							<stop
   offset="0.2247"
   style="stop-color:#7090C3"
   id="stop240" />
							<stop
   offset="0.5449"
   style="stop-color:#C8EAEF"
   id="stop242" />
							<stop
   offset="1"
   style="stop-color:#FFFFFF"
   id="stop244" />
						</linearGradient>
						<path
   opacity="0.33"
   fill="url(#SVGID_15_)"
   enable-background="new    "
   d="M10.067,42.916        c18.705-7.733,27.056-2.621,34.316,1.761l-0.143,0.141c-7.472-4.63-15.417-9.379-34.038-1.776L10.067,42.916z"
   id="path246" />
						
							<linearGradient
   id="SVGID_16_"
   gradientUnits="userSpaceOnUse"
   x1="-494.7192"
   y1="252.0188"
   x2="-458.9092"
   y2="252.0188"
   gradientTransform="matrix(1 0 0 1 504 -211.1914)">
							<stop
   offset="0.0056"
   style="stop-color:#7090C3"
   id="stop249" />
							<stop
   offset="0.5449"
   style="stop-color:#C1E7ED"
   id="stop251" />
							<stop
   offset="1"
   style="stop-color:#FFFFFF"
   id="stop253" />
						</linearGradient>
						<path
   opacity="0.33"
   fill="url(#SVGID_16_)"
   enable-background="new    "
   d="M9.281,41.925        c18.702-7.734,27.343-3.761,35.81,1.888l-0.073,0.221c-8.892-5.756-16.982-9.584-35.601-1.985L9.281,41.925z"
   id="path255" />
						
							<radialGradient
   id="SVGID_17_"
   cx="-494.8271"
   cy="253.2415"
   r="0.1209"
   gradientTransform="matrix(1 0 0 1 504 -211.1914)"
   gradientUnits="userSpaceOnUse">
							<stop
   offset="0"
   style="stop-color:#7E9EC4"
   id="stop258" />
							<stop
   offset="1"
   style="stop-color:#0A50A1"
   id="stop260" />
						</radialGradient>
						<path
   fill="url(#SVGID_17_)"
   d="M9.199,42.173l-0.108-0.027c0.04-0.131,0.137-0.183,0.167-0.189l0.013-0.005        C9.271,41.95,9.252,42.016,9.199,42.173z"
   id="path262" />
						
							<radialGradient
   id="SVGID_18_"
   cx="-518.4619"
   cy="283.8059"
   r="60.5967"
   gradientTransform="matrix(1 0 0 1 504 -211.1914)"
   gradientUnits="userSpaceOnUse">
							<stop
   offset="0.0036"
   style="stop-color:#D8EEED"
   id="stop265" />
							<stop
   offset="0.1733"
   style="stop-color:#98D8D7"
   id="stop267" />
							<stop
   offset="0.2237"
   style="stop-color:#8ED3D3"
   id="stop269" />
							<stop
   offset="0.3088"
   style="stop-color:#74C6CA"
   id="stop271" />
							<stop
   offset="0.4176"
   style="stop-color:#49B1BA"
   id="stop273" />
							<stop
   offset="0.4477"
   style="stop-color:#3CAAB5"
   id="stop275" />
							<stop
   offset="0.4987"
   style="stop-color:#369FB5"
   id="stop277" />
							<stop
   offset="0.6306"
   style="stop-color:#2A88B4"
   id="stop279" />
							<stop
   offset="0.7129"
   style="stop-color:#257FB4"
   id="stop281" />
							<stop
   offset="1"
   style="stop-color:#4161AB"
   id="stop283" />
						</radialGradient>
						<path
   opacity="0.5"
   fill="url(#SVGID_18_)"
   enable-background="new    "
   d="M35.387,76.453        c-8.101-5.446-16.497-9.607-34.974-2.105c-0.124-0.073-0.322-0.259-0.274-0.492c18.759-7.983,27.476-3.318,35.579,2.128        C35.634,76.281,35.48,76.38,35.387,76.453z"
   id="path285" />
					</g>
					<g
   id="g287">
						<g
   id="g289">
							
								<radialGradient
   id="SVGID_19_"
   cx="-456.5537"
   cy="255.6672"
   r="45.734"
   gradientTransform="matrix(1 0 0 1 504 -211.1914)"
   gradientUnits="userSpaceOnUse">
								<stop
   offset="0"
   style="stop-color:#FCF5B0"
   id="stop292" />
								<stop
   offset="0.1657"
   style="stop-color:#F7EDA0"
   id="stop294" />
								<stop
   offset="0.2849"
   style="stop-color:#F3E591"
   id="stop296" />
								<stop
   offset="0.65"
   style="stop-color:#FCD118"
   id="stop298" />
								<stop
   offset="0.8024"
   style="stop-color:#F7A50C"
   id="stop300" />
								<stop
   offset="0.9288"
   style="stop-color:#F38603"
   id="stop302" />
								<stop
   offset="1"
   style="stop-color:#F27B00"
   id="stop304" />
							</radialGradient>
							<path
   fill="url(#SVGID_19_)"
   d="M49.901,47.131c8.095,5.445,16.375,9.438,35.403,2.933L76.423,80.96         c-18.677,7.726-27.644,3.353-35.731-2.13L49.901,47.131z"
   id="path306" />
						</g>
						
							<linearGradient
   id="SVGID_20_"
   gradientUnits="userSpaceOnUse"
   x1="-426.1768"
   y1="292.8586"
   x2="-426.3666"
   y2="293.5675"
   gradientTransform="matrix(1 0 0 1 504 -211.1914)">
							<stop
   offset="0"
   style="stop-color:#DE980D"
   id="stop309" />
							<stop
   offset="1"
   style="stop-color:#A85D10"
   id="stop311" />
						</linearGradient>
						<path
   fill="url(#SVGID_20_)"
   d="M78,82.058c-0.084,0.171-0.251,0.268-0.303,0.3c-0.015,0-0.025,0.009-0.025,0.009        s-0.156,0.014-0.293-0.092c0.365-0.2,0.471-0.602,0.471-0.602S78.063,81.854,78,82.058z"
   id="path313" />
						
							<linearGradient
   id="SVGID_21_"
   gradientUnits="userSpaceOnUse"
   x1="-426.166"
   y1="277.6516"
   x2="-417.124"
   y2="277.6516"
   gradientTransform="matrix(1 0 0 1 504 -211.1914)">
							<stop
   offset="0"
   style="stop-color:#DEB150"
   id="stop316" />
							<stop
   offset="1"
   style="stop-color:#FFF8B3"
   id="stop318" />
						</linearGradient>
						<path
   fill="url(#SVGID_21_)"
   d="M78,82.058c0.032-0.177-0.166-0.337-0.166-0.337l8.856-30.858c0,0,0.142,0.124,0.186,0.227        L78,82.058z"
   id="path320" />
						
							<linearGradient
   id="SVGID_22_"
   gradientUnits="userSpaceOnUse"
   x1="-417.2119"
   y1="261.7043"
   x2="-417.2119"
   y2="262.2922"
   gradientTransform="matrix(1 0 0 1 504 -211.1914)">
							<stop
   offset="0.0056"
   style="stop-color:#C67C0C"
   id="stop323" />
							<stop
   offset="1"
   style="stop-color:#DE980D"
   id="stop325" />
						</linearGradient>
						<path
   fill="url(#SVGID_22_)"
   d="M86.872,51.101c0,0-0.027-0.095-0.186-0.224c0.072-0.298,0.018-0.364,0.018-0.364l0.023,0.014        C86.727,50.526,86.954,50.741,86.872,51.101z"
   id="path327" />
						
							<linearGradient
   id="SVGID_23_"
   gradientUnits="userSpaceOnUse"
   x1="-418.5122"
   y1="261.0129"
   x2="-418.1449"
   y2="261.624"
   gradientTransform="matrix(1 0 0 1 504 -211.1914)">
							<stop
   offset="0.0056"
   style="stop-color:#FED40F"
   id="stop330" />
							<stop
   offset="1"
   style="stop-color:#A85D10"
   id="stop332" />
						</linearGradient>
						<path
   fill="url(#SVGID_23_)"
   d="M85.989,50.354c0,0-0.242-0.296-0.743-0.207c0.025-0.11,0.068-0.247,0.229-0.313        c0.3-0.045,0.443,0.028,0.507,0.098c0.037,0.034,0.048,0.064,0.048,0.064C86.072,50.168,85.989,50.354,85.989,50.354z"
   id="path334" />
						
							<linearGradient
   id="SVGID_24_"
   gradientUnits="userSpaceOnUse"
   x1="-417.5527"
   y1="261.4846"
   x2="-417.7799"
   y2="261.7552"
   gradientTransform="matrix(1 0 0 1 504 -211.1914)">
							<stop
   offset="0.0056"
   style="stop-color:#FED40F"
   id="stop337" />
							<stop
   offset="1"
   style="stop-color:#A85D10"
   id="stop339" />
						</linearGradient>
						<path
   fill="url(#SVGID_24_)"
   d="M85.981,49.932l0.745,0.595c0.038,0.196-0.041,0.396-0.041,0.396l-0.733-0.586        C85.953,50.335,86.026,50.108,85.981,49.932z"
   id="path341" />
						<polygon
   opacity="0.66"
   fill="#B37E00"
   enable-background="new    "
   points="77.042,81.159 85.947,50.285 86.695,50.883         77.855,81.749 77.816,81.826       "
   id="polygon343" />
						
							<linearGradient
   id="SVGID_25_"
   gradientUnits="userSpaceOnUse"
   x1="-454.1899"
   y1="261.4407"
   x2="-418.5259"
   y2="261.4407"
   gradientTransform="matrix(1 0 0 1 504 -211.1914)">
							<stop
   offset="0"
   style="stop-color:#FFF8FB"
   id="stop346" />
							<stop
   offset="1"
   style="stop-color:#FEC236"
   id="stop348" />
						</linearGradient>
						<path
   fill="url(#SVGID_25_)"
   d="M85.277,50.177c-18.754,6.396-27.341,2.595-35.434-2.858c0.016-0.063,0.053-0.197-0.033-0.342        c8.094,5.449,17.048,9.163,35.664,2.857C85.33,49.932,85.314,50.063,85.277,50.177z"
   id="path350" />
						<polygon
   fill="#D9A200"
   points="48.392,47.699 49.016,47.276 39.999,78.713 39.294,79.271 39.294,79.198       "
   id="polygon352" />
						
							<linearGradient
   id="SVGID_26_"
   gradientUnits="userSpaceOnUse"
   x1="-422.4307"
   y1="276.9143"
   x2="-423.2267"
   y2="276.6861"
   gradientTransform="matrix(1 0 0 1 504 -211.1914)">
							<stop
   offset="0"
   style="stop-color:#B37E00"
   id="stop355" />
							<stop
   offset="1"
   style="stop-color:#FF9E00"
   id="stop357" />
						</linearGradient>
						<path
   opacity="0.66"
   fill="url(#SVGID_26_)"
   enable-background="new    "
   d="M76.331,80.985l8.916-30.849        c0.015,0,0.031-0.026,0.054-0.028c0.464-0.045,0.688,0.199,0.688,0.199l-8.884,30.81        C77.105,81.116,76.731,80.821,76.331,80.985z"
   id="path359" />
						<path
   fill="#A85D10"
   d="M77.697,82.357c-18.315,7.826-30.058,3.012-38.151-2.434l0.084-0.078        c8.088,5.446,20.547,9.985,37.746,2.393C77.517,82.352,77.697,82.357,77.697,82.357z"
   id="path361" />
						
							<linearGradient
   id="SVGID_27_"
   gradientUnits="userSpaceOnUse"
   x1="-426.5801"
   y1="292.4407"
   x2="-426.9772"
   y2="293.3328"
   gradientTransform="matrix(1 0 0 1 504 -211.1914)">
							<stop
   offset="0.0056"
   style="stop-color:#FFD100"
   id="stop364" />
							<stop
   offset="1"
   style="stop-color:#A8710A"
   id="stop366" />
						</linearGradient>
						<path
   opacity="0.66"
   fill="url(#SVGID_27_)"
   enable-background="new    "
   d="M77.098,81.105l0.758,0.645        c0,0-0.101,0.36-0.509,0.535l-0.769-0.634C76.983,81.477,77.098,81.105,77.098,81.105z"
   id="path368" />
						
							<linearGradient
   id="SVGID_28_"
   gradientUnits="userSpaceOnUse"
   x1="-463.6162"
   y1="293.3118"
   x2="-427.27"
   y2="293.3118"
   gradientTransform="matrix(1 0 0 1 504 -211.1914)">
							<stop
   offset="0"
   style="stop-color:#DE980D"
   id="stop371" />
							<stop
   offset="0.4"
   style="stop-color:#FDDA10"
   id="stop373" />
							<stop
   offset="1"
   style="stop-color:#DE980D"
   id="stop375" />
						</linearGradient>
						<path
   fill="url(#SVGID_28_)"
   d="M76.346,80.944c-0.07,0.479,0.384,0.771,0.384,0.771c-19.407,7.021-27.724,2.827-36.346-2.367        c0.138-0.109,0.214-0.191,0.298-0.523c0.017,0.007,0.126-0.013,0.145,0C49.164,83.955,58.796,88.206,76.346,80.944z"
   id="path377" />
						<path
   fill="#C67C0C"
   d="M39.634,79.887l0.749-0.54c7.415,4.623,17.803,9.68,36.241,2.281l0.758,0.64        C60.25,89.865,47.723,85.329,39.634,79.887z"
   id="path379" />
						<path
   fill="#DE980D"
   d="M39.697,79.907l-0.086,0.063c0,0-0.486-0.271-0.317-0.771C39.336,79.689,39.697,79.907,39.697,79.907z        "
   id="path381" />
						
							<linearGradient
   id="SVGID_29_"
   gradientUnits="userSpaceOnUse"
   x1="-463.8691"
   y1="290.8127"
   x2="-464.454"
   y2="290.1632"
   gradientTransform="matrix(1 0 0 1 504 -211.1914)">
							<stop
   offset="0"
   style="stop-color:#DE980D"
   id="stop384" />
							<stop
   offset="0.1"
   style="stop-color:#DE980D"
   id="stop386" />
							<stop
   offset="0.7"
   style="stop-color:#FDDA10"
   id="stop388" />
							<stop
   offset="1"
   style="stop-color:#DE980D"
   id="stop390" />
						</linearGradient>
						<path
   fill="url(#SVGID_29_)"
   d="M39.294,79.198l0.704-0.577c-0.039,0.515,0.458,0.707,0.458,0.707l-0.771,0.589        C39.686,79.916,39.256,79.708,39.294,79.198z"
   id="path392" />
						
							<linearGradient
   id="SVGID_30_"
   gradientUnits="userSpaceOnUse"
   x1="-463.853"
   y1="289.7229"
   x2="-463.4397"
   y2="290.4685"
   gradientTransform="matrix(1 0 0 1 504 -211.1914)">
							<stop
   offset="0"
   style="stop-color:#DE980D"
   id="stop395" />
							<stop
   offset="0.4"
   style="stop-color:#FEBF0F"
   id="stop397" />
							<stop
   offset="0.8"
   style="stop-color:#FED40F"
   id="stop399" />
							<stop
   offset="1"
   style="stop-color:#DE980D"
   id="stop401" />
						</linearGradient>
						<path
   fill="url(#SVGID_30_)"
   d="M39.947,78.642c0.251-0.097,0.482,0.019,0.75,0.174c-0.09,0.33-0.151,0.444-0.288,0.544        C40.238,79.262,39.906,79.064,39.947,78.642z"
   id="path403" />
						<path
   fill="#DE980D"
   d="M49.137,47.014L49,47.279l-0.626,0.449c0.044-0.209,0.558-0.581,0.718-0.688        C49.113,47.021,49.137,47.014,49.137,47.014z"
   id="path405" />
						
							<radialGradient
   id="SVGID_31_"
   cx="-454.6509"
   cy="258.0725"
   r="0.4486"
   gradientTransform="matrix(1 0 0 1 504 -211.1914)"
   gradientUnits="userSpaceOnUse">
							<stop
   offset="0"
   style="stop-color:#FEEB71"
   id="stop408" />
							<stop
   offset="1"
   style="stop-color:#DE980D"
   id="stop410" />
						</radialGradient>
						<path
   fill="url(#SVGID_31_)"
   d="M49.836,47.313c-0.372-0.21-0.704-0.104-0.837-0.034c0.021-0.069,0.099-0.247,0.099-0.247        c0.302-0.188,0.436-0.188,0.712-0.056C49.892,47.116,49.859,47.234,49.836,47.313z"
   id="path412" />
						
							<linearGradient
   id="SVGID_32_"
   gradientUnits="userSpaceOnUse"
   x1="-458.6831"
   y1="274.301"
   x2="-459.5204"
   y2="274.0609"
   gradientTransform="matrix(1 0 0 1 504 -211.1914)">
							<stop
   offset="0.0056"
   style="stop-color:#FFEFBB"
   id="stop415" />
							<stop
   offset="1"
   style="stop-color:#FFBF00"
   id="stop417" />
						</linearGradient>
						<path
   fill="url(#SVGID_32_)"
   d="M40.767,78.866c-0.266-0.157-0.569-0.274-0.825-0.174l9.074-31.417        c0.139-0.065,0.461-0.179,0.829,0.042L40.767,78.866z"
   id="path419" />
						
							<linearGradient
   id="SVGID_33_"
   gradientUnits="userSpaceOnUse"
   x1="-455.9355"
   y1="261.8264"
   x2="-417.1933"
   y2="261.8264"
   gradientTransform="matrix(1 0 0 1 504 -211.1914)">
							<stop
   offset="0.0056"
   style="stop-color:#FCA859"
   id="stop422" />
							<stop
   offset="0.2135"
   style="stop-color:#FDC30F"
   id="stop424" />
							<stop
   offset="1"
   style="stop-color:#B51C00"
   id="stop426" />
						</linearGradient>
						<path
   opacity="0.33"
   fill="url(#SVGID_33_)"
   enable-background="new    "
   d="M48.549,47.49        c2.77,2.403,14.798,12.237,38.177,3.036l-0.745-0.595c-0.064-0.066-0.207-0.143-0.507-0.098        c-18.616,6.306-27.57,2.592-35.664-2.857c0,0.007,0,0.007,0,0.007c-0.272-0.137-0.407-0.137-0.705,0.057        C48.731,47.299,48.731,47.297,48.549,47.49z"
   id="path428" />
						
							<linearGradient
   id="SVGID_34_"
   gradientUnits="userSpaceOnUse"
   x1="-455.6221"
   y1="262.3303"
   x2="-417.1221"
   y2="262.3303"
   gradientTransform="matrix(1 0 0 1 504 -211.1914)">
							<stop
   offset="0.0056"
   style="stop-color:#FFF6D8"
   id="stop431" />
							<stop
   offset="0.525"
   style="stop-color:#FDDA10"
   id="stop433" />
							<stop
   offset="1"
   style="stop-color:#F9BD0C"
   id="stop435" />
						</linearGradient>
						<path
   opacity="0.33"
   fill="url(#SVGID_34_)"
   enable-background="new    "
   d="M86.727,50.526L86.727,50.526        C63.348,59.727,51.32,49.893,48.55,47.49c-0.073,0.067-0.13,0.143-0.157,0.202l-0.001,0.008l-0.009,0.023        c0,0.001-0.004,0.005-0.004,0.006l0.004-0.001l-0.005,0.014c2.415,2.113,14.496,12.645,38.5,3.123        C86.854,50.654,86.727,50.526,86.727,50.526z"
   id="path437" />
						
							<linearGradient
   id="SVGID_35_"
   gradientUnits="userSpaceOnUse"
   x1="-427.2119"
   y1="292.4993"
   x2="-427.7507"
   y2="292.0334"
   gradientTransform="matrix(1 0 0 1 504 -211.1914)">
							<stop
   offset="0"
   style="stop-color:#EAB949"
   id="stop440" />
							<stop
   offset="0.0722"
   style="stop-color:#EDC25A"
   id="stop442" />
							<stop
   offset="0.2779"
   style="stop-color:#F3D883"
   id="stop444" />
							<stop
   offset="0.4784"
   style="stop-color:#F8E9A4"
   id="stop446" />
							<stop
   offset="0.6698"
   style="stop-color:#FCF5BC"
   id="stop448" />
							<stop
   offset="0.8479"
   style="stop-color:#FEFCCA"
   id="stop450" />
							<stop
   offset="1"
   style="stop-color:#FFFFCF"
   id="stop452" />
						</linearGradient>
						<path
   fill="url(#SVGID_35_)"
   d="M76.625,81.63c0,0-0.344-0.209-0.28-0.688c0.473-0.125,0.762,0.173,0.762,0.173        S77.032,81.455,76.625,81.63z"
   id="path454" />
					</g>
					<g
   id="g456">
						
							<radialGradient
   id="SVGID_36_"
   cx="-457.9487"
   cy="249.3752"
   r="43.414"
   gradientTransform="matrix(1 0 0 1 504 -211.1914)"
   gradientUnits="userSpaceOnUse">
							<stop
   offset="0.0036"
   style="stop-color:#EFD916"
   id="stop459" />
							<stop
   offset="0.1053"
   style="stop-color:#EFD516"
   id="stop461" />
							<stop
   offset="0.216"
   style="stop-color:#EDC715"
   id="stop463" />
							<stop
   offset="0.3308"
   style="stop-color:#EBB213"
   id="stop465" />
							<stop
   offset="0.4485"
   style="stop-color:#E89312"
   id="stop467" />
							<stop
   offset="0.5673"
   style="stop-color:#E36D0F"
   id="stop469" />
							<stop
   offset="0.65"
   style="stop-color:#E04D0D"
   id="stop471" />
							<stop
   offset="0.7851"
   style="stop-color:#CE2907"
   id="stop473" />
							<stop
   offset="0.9224"
   style="stop-color:#BF0B02"
   id="stop475" />
							<stop
   offset="1"
   style="stop-color:#B90000"
   id="stop477" />
						</radialGradient>
						<path
   fill="url(#SVGID_36_)"
   d="M46.569,38.256c-4.872-3.283-10.117-6.353-17.566-6.406        c-4.913-0.038-10.764,1.359-18.193,4.428l9.203-31.894c18.685-7.727,27.663-3.348,35.759,2.128L46.569,38.256z"
   id="path479" />
						<path
   fill="#BC1B00"
   d="M46.559,38.246l9.209-31.733c0.101,0.064,0.142,0.117,0.193,0.18l-9.204,31.778        C46.706,38.339,46.559,38.246,46.559,38.246z"
   id="path481" />
						<path
   fill="#BC1B00"
   d="M11.694,37.203c2.948-1.208,5.671-2.104,8.202-2.722c0.617-0.15,1.163-0.279,1.813-0.404        c0.594-0.121,1.185-0.237,1.758-0.322c0.899-0.133,1.774-0.249,2.633-0.317c0.725-0.058,1.435-0.099,2.128-0.104        c0.67-0.005,1.331,0,1.973,0.036c0.568,0.032,1.126,0.075,1.677,0.141c0.465,0.052,0.918,0.112,1.369,0.188        c0.948,0.162,1.866,0.364,2.751,0.613c3.58,1.014,6.761,2.739,9.685,4.687c-0.023,0.013-0.093-0.021-0.12-0.034        c-0.029-0.014-0.042-0.014-0.07-0.029c-3.951-2.504-8.192-4.688-13.434-5.331c-5.357-0.654-11.612,0.268-20.033,3.604        c0,0-0.189,0.088-0.269,0.096C11.694,37.319,11.708,37.269,11.694,37.203z"
   id="path483" />
						<path
   fill="#BC1B00"
   d="M46.243,38.714c0,0,0.121,0.084,0.262,0.054l-0.576,0.261c-0.158,0.042-0.345-0.054-0.345-0.054        L46.243,38.714z"
   id="path485" />
						<path
   fill="#B81A00"
   d="M11.698,37.207c0,0,0.038,0.063,0.061,0.103c-0.051,0.008-0.064,0.021-0.202-0.041        c-0.021-0.007-0.046-0.027-0.07-0.049l-0.6-0.468l-0.056-0.044c0.08-0.004,0.14,0.032,0.181,0.025L11.698,37.207z"
   id="path487" />
						<path
   fill="#E82E00"
   d="M46.568,38.252c0.061,0.04,0.14,0.063,0.195,0.196c-0.04,0.175-0.182,0.261-0.262,0.317        c-0.144,0.041-0.281-0.064-0.281-0.064C46.313,38.634,46.475,38.52,46.568,38.252z"
   id="path489" />
						<path
   fill="#F83603"
   d="M55.822,6.296l0.009,0.003c0.119,0.083,0.162,0.237,0.128,0.393l-0.007,0.015        c-0.049-0.058-0.085-0.115-0.186-0.193L55.822,6.296z"
   id="path491" />
						<path
   fill="#E32E00"
   d="M10.845,36.726c-0.091-0.064-0.175-0.336-0.125-0.497l0.119-0.037        c-0.048,0.23,0.094,0.499,0.222,0.572C11.061,36.764,10.972,36.815,10.845,36.726z"
   id="path493" />
						<g
   id="g495">
							<g
   id="g497">
								
									<linearGradient
   id="SVGID_38_"
   gradientUnits="userSpaceOnUse"
   x1="-484.0708"
   y1="215.4719"
   x2="-483.8921"
   y2="215.4719"
   gradientTransform="matrix(1 0 0 1 504 -211.1914)">
									<stop
   offset="0"
   style="stop-color:#FD7E36"
   id="stop500" />
									<stop
   offset="1"
   style="stop-color:#BD6F4F"
   id="stop502" />
								</linearGradient>
								<path
   id="SVGID_37_"
   fill="url(#SVGID_38_)"
   d="M20.017,4.391l-0.088-0.021c0.036-0.142,0.133-0.185,0.168-0.194          l0.011-0.004C20.107,4.168,20.064,4.235,20.017,4.391z" />
							</g>
						</g>
						<g
   id="g505">
							<path
   fill="#E82E00"
   d="M46.261,38.72c-8.71-6.042-19.376-9.834-35.219-1.964l0.648,0.458         c17.314-7.074,26.337-3.25,33.935,1.759L46.261,38.72z"
   id="path507" />
							<path
   fill="#E82E00"
   d="M46.243,38.714c-4.987-3.256-9.647-5.953-17.038-6.165c-5.394,0.109-9.539,0.799-18.146,4.214         c-0.128-0.068-0.289-0.251-0.248-0.485c7.458-3.174,13.375-4.549,18.286-4.5c7.445,0.072,12.601,3.19,17.473,6.467         C46.485,38.537,46.327,38.645,46.243,38.714z"
   id="path509" />
						</g>
						<path
   fill="#E32E00"
   d="M19.929,4.365l0.085,0.024l-9.182,31.873c-0.021-0.015-0.113-0.035-0.113-0.035L19.929,4.365z"
   id="path511" />
						
							<linearGradient
   id="SVGID_39_"
   gradientUnits="userSpaceOnUse"
   x1="-483.9819"
   y1="214.4475"
   x2="-448.1758"
   y2="214.4475"
   gradientTransform="matrix(1 0 0 1 504 -211.1914)">
							<stop
   offset="0"
   style="stop-color:#FC2B21"
   id="stop514" />
							<stop
   offset="0.236"
   style="stop-color:#FF590A"
   id="stop516" />
							<stop
   offset="0.2478"
   style="stop-color:#FB570B"
   id="stop518" />
							<stop
   offset="0.3274"
   style="stop-color:#E74C0E"
   id="stop520" />
							<stop
   offset="0.4172"
   style="stop-color:#D84511"
   id="stop522" />
							<stop
   offset="0.5247"
   style="stop-color:#D04013"
   id="stop524" />
							<stop
   offset="0.6966"
   style="stop-color:#CD3F13"
   id="stop526" />
							<stop
   offset="0.7958"
   style="stop-color:#D04213"
   id="stop528" />
							<stop
   offset="0.8688"
   style="stop-color:#D84B14"
   id="stop530" />
							<stop
   offset="0.9334"
   style="stop-color:#E65B16"
   id="stop532" />
							<stop
   offset="0.9927"
   style="stop-color:#F97219"
   id="stop534" />
							<stop
   offset="1"
   style="stop-color:#FC7519"
   id="stop536" />
						</linearGradient>
						<path
   opacity="0.66"
   fill="url(#SVGID_39_)"
   enable-background="new    "
   d="M55.771,6.513        c-8.1-5.479-17.156-9.72-35.753-2.123c0.04-0.163,0.08-0.217,0.08-0.217c18.688-7.729,27.635-3.357,35.726,2.123L55.771,6.513        z"
   id="path538" />
						<path
   opacity="0.33"
   fill="#FE8411"
   enable-background="new    "
   d="M54.701,7.563c-6.598-4.282-15.319-9.648-33.917-2.055        c0.041-0.16,0.089-0.242,0.089-0.242c18.685-7.727,27.492-1.84,33.894,2.064L54.701,7.563z"
   id="path540" />
						<g
   opacity="0.6"
   id="g542">
							
								<linearGradient
   id="SVGID_40_"
   gradientUnits="userSpaceOnUse"
   x1="-493.2012"
   y1="232.1477"
   x2="-483.1401"
   y2="232.1477"
   gradientTransform="matrix(1 0 0 1 504 -211.1914)">
								<stop
   offset="0"
   style="stop-color:#FD7E36"
   id="stop545" />
								<stop
   offset="1"
   style="stop-color:#BD6F4F"
   id="stop547" />
							</linearGradient>
							<path
   opacity="0.6"
   fill="url(#SVGID_40_)"
   enable-background="new    "
   d="M20.32,4.601         c-0.052,0.021-0.232-0.004-0.232-0.004L10.799,36.76l0.687,0.461c0.023,0.021,0.048,0.042,0.07,0.049         c0.117,0.051,0.142,0.051,0.179,0.043L20.832,5.37l0.028-0.097L20.32,4.601z"
   id="path549" />
						</g>
						
							<linearGradient
   id="SVGID_41_"
   gradientUnits="userSpaceOnUse"
   x1="-446.1118"
   y1="219.2473"
   x2="-481.6096"
   y2="211.335"
   gradientTransform="matrix(1 0 0 1 504 -211.1914)">
							<stop
   offset="0"
   style="stop-color:#FE560D"
   id="stop552" />
							<stop
   offset="1"
   style="stop-color:#8C1501"
   id="stop554" />
						</linearGradient>
						<path
   opacity="0.5"
   fill="url(#SVGID_41_)"
   enable-background="new    "
   d="M54.746,7.357        c0.003,0.005,0.006,0.006,0.011,0.013c0-0.013,0.002-0.017,0.002-0.021L54.746,7.357z"
   id="path556" />
						
							<linearGradient
   id="SVGID_42_"
   gradientUnits="userSpaceOnUse"
   x1="-466.1001"
   y1="218.8186"
   x2="-466.507"
   y2="207.7002"
   gradientTransform="matrix(1 0 0 1 504 -211.1914)">
							<stop
   offset="0"
   style="stop-color:#FE560D"
   id="stop559" />
							<stop
   offset="1"
   style="stop-color:#8C1501"
   id="stop561" />
						</linearGradient>
						<path
   opacity="0.5"
   fill="url(#SVGID_42_)"
   enable-background="new    "
   d="M54.973,6.625        c-3.071-2.058-8.185-5.396-15.664-5.922C31.375,0.146,21.323,4.184,20.32,4.6l0.54,0.674L20.832,5.37        c0.028-0.008,0.055-0.023,0.082-0.035C39.438-2.63,50.848,4.564,54.746,7.357l0.013-0.009l0.582-0.477        C55.224,6.791,55.101,6.709,54.973,6.625z"
   id="path563" />
						<path
   opacity="0.5"
   fill="#FFF4C5"
   enable-background="new    "
   d="M20.32,4.601c1.003-0.416,11.054-4.453,18.988-3.896        c7.48,0.523,12.592,3.863,15.665,5.921c0.128,0.084,0.251,0.166,0.368,0.246l0.575-0.463C55.891,6.37,55.874,6.326,55.833,6.3        c-7.915-5.362-16.659-9.653-34.518-2.616c-0.4,0.162-0.799,0.315-1.207,0.486l0,0L20.32,4.601z"
   id="path565" />
						
							<linearGradient
   id="SVGID_43_"
   gradientUnits="userSpaceOnUse"
   x1="-458.479"
   y1="233.8645"
   x2="-448.0303"
   y2="233.8645"
   gradientTransform="matrix(1 0 0 1 504 -211.1914)">
							<stop
   offset="0"
   style="stop-color:#FD7E36"
   id="stop568" />
							<stop
   offset="1"
   style="stop-color:#FC895B"
   id="stop570" />
						</linearGradient>
						<path
   opacity="0.6"
   fill="url(#SVGID_43_)"
   enable-background="new    "
   d="M55.822,6.308L55.77,6.513l-0.43,0.358        l-0.582,0.477c0,0.005-0.002,0.009-0.002,0.021c-1.929,6.615-7.958,27.269-9.235,31.574c0.015,0.007,0.025,0.009,0.042,0.021        c0.006,0.004,0.015,0.01,0.02,0.011l0,0c0,0,0.187,0.096,0.345,0.054l0.576-0.261c-0.002,0.004-0.006,0-0.016,0.004        c0.006-0.004,0.01,0,0.013-0.004c0.073-0.059,0.214-0.144,0.254-0.297l0,0l0.003-0.013c0-0.003,0.004-0.003,0.004-0.01l0,0        l8.824-30.476l0,0l0.219-0.751l0.007-0.032l0.147-0.499C55.986,6.588,55.969,6.372,55.822,6.308z"
   id="path572" />
						
							<linearGradient
   id="SVGID_44_"
   gradientUnits="userSpaceOnUse"
   x1="-493.1748"
   y1="246.4211"
   x2="-457.4082"
   y2="246.4211"
   gradientTransform="matrix(1 0 0 1 504 -211.1914)">
							<stop
   offset="0"
   style="stop-color:#FD9B20"
   id="stop575" />
							<stop
   offset="0.25"
   style="stop-color:#FD9B20"
   id="stop577" />
							<stop
   offset="0.3365"
   style="stop-color:#FDB830"
   id="stop579" />
							<stop
   offset="0.4292"
   style="stop-color:#FED23E"
   id="stop581" />
							<stop
   offset="0.4851"
   style="stop-color:#FEDB43"
   id="stop583" />
							<stop
   offset="0.75"
   style="stop-color:#FE8411"
   id="stop585" />
							<stop
   offset="1"
   style="stop-color:#FE560D"
   id="stop587" />
						</linearGradient>
						<path
   opacity="0.5"
   fill="url(#SVGID_44_)"
   enable-background="new    "
   d="M46.262,38.698        c-4.984-3.257-9.646-5.955-17.035-6.167c-5.396,0.108-9.54,0.798-18.146,4.214c-0.132-0.067-0.291-0.249-0.249-0.481        c7.457-3.177,13.376-4.552,18.289-4.501c7.442,0.076,12.598,3.188,17.471,6.466C46.506,38.52,46.348,38.631,46.262,38.698z"
   id="path589" />
						<path
   fill="none"
   d="M20.017,4.218c-0.035,0.03-0.069,0.074-0.088,0.146l-0.472,1.623l-8.737,30.24        c-0.05,0.161,0.034,0.433,0.125,0.497c0.009,0.006,0.015,0.006,0.024,0.01l0.019,0.019L10.8,36.759l9.289-32.163        c0,0,0.18,0.024,0.232,0.004L20.017,4.218z"
   id="path591" />
						<path
   fill="#F83603"
   d="M55.822,6.296l0.009,0.006c0.119,0.08,0.162,0.234,0.128,0.39l-0.007,0.015        c-0.049-0.058-0.085-0.112-0.186-0.193L55.822,6.296z"
   id="path593" />
						<g
   id="g595">
							<g
   id="g597">
								
									<linearGradient
   id="SVGID_45_"
   gradientUnits="userSpaceOnUse"
   x1="-484.0698"
   y1="215.4719"
   x2="-483.8906"
   y2="215.4719"
   gradientTransform="matrix(1 0 0 1 504 -211.1914)">
									<stop
   offset="0"
   style="stop-color:#FD7E36"
   id="stop600" />
									<stop
   offset="1"
   style="stop-color:#BD6F4F"
   id="stop602" />
								</linearGradient>
								<path
   id="SVGID_46_"
   fill="url(#SVGID_45_)"
   d="M20.017,4.391l-0.086-0.021c0.037-0.137,0.132-0.183,0.167-0.194L20.11,4.17          C20.109,4.168,20.064,4.235,20.017,4.391z" />
							</g>
						</g>
						
							<linearGradient
   id="SVGID_47_"
   gradientUnits="userSpaceOnUse"
   x1="-483.9829"
   y1="214.4485"
   x2="-448.1768"
   y2="214.4485"
   gradientTransform="matrix(1 0 0 1 504 -211.1914)">
							<stop
   offset="0"
   style="stop-color:#FC2B21"
   id="stop606" />
							<stop
   offset="0.236"
   style="stop-color:#FF590A"
   id="stop608" />
							<stop
   offset="0.2478"
   style="stop-color:#FB570B"
   id="stop610" />
							<stop
   offset="0.3274"
   style="stop-color:#E74C0E"
   id="stop612" />
							<stop
   offset="0.4172"
   style="stop-color:#D84511"
   id="stop614" />
							<stop
   offset="0.5247"
   style="stop-color:#D04013"
   id="stop616" />
							<stop
   offset="0.6966"
   style="stop-color:#CD3F13"
   id="stop618" />
							<stop
   offset="0.7958"
   style="stop-color:#D04213"
   id="stop620" />
							<stop
   offset="0.8688"
   style="stop-color:#D84B14"
   id="stop622" />
							<stop
   offset="0.9334"
   style="stop-color:#E65B16"
   id="stop624" />
							<stop
   offset="0.9927"
   style="stop-color:#F97219"
   id="stop626" />
							<stop
   offset="1"
   style="stop-color:#FC7519"
   id="stop628" />
						</linearGradient>
						<path
   opacity="0.66"
   fill="url(#SVGID_47_)"
   enable-background="new    "
   d="M55.771,6.513        c-8.095-5.479-17.156-9.717-35.754-2.122c0.04-0.158,0.08-0.217,0.08-0.217c18.688-7.729,27.635-3.357,35.726,2.123        L55.771,6.513z"
   id="path630" />
					</g>
					<g
   id="g632">
						
							<radialGradient
   id="SVGID_48_"
   cx="-456.7524"
   cy="254.1946"
   r="49.6777"
   gradientTransform="matrix(1 0 0 1 504 -211.1914)"
   gradientUnits="userSpaceOnUse">
							<stop
   offset="0.005"
   style="stop-color:#D1E787"
   id="stop635" />
							<stop
   offset="0.1227"
   style="stop-color:#CEE583"
   id="stop637" />
							<stop
   offset="0.2473"
   style="stop-color:#C4DE76"
   id="stop639" />
							<stop
   offset="0.3751"
   style="stop-color:#B3D361"
   id="stop641" />
							<stop
   offset="0.5051"
   style="stop-color:#9CC443"
   id="stop643" />
							<stop
   offset="0.6356"
   style="stop-color:#7FB01D"
   id="stop645" />
							<stop
   offset="0.6495"
   style="stop-color:#7BAE19"
   id="stop647" />
							<stop
   offset="0.7789"
   style="stop-color:#578D19"
   id="stop649" />
							<stop
   offset="0.922"
   style="stop-color:#366E1A"
   id="stop651" />
							<stop
   offset="1"
   style="stop-color:#29621A"
   id="stop653" />
						</radialGradient>
						<path
   fill="url(#SVGID_48_)"
   d="M96.332,11.923c-18.659,7.711-27.626,3.375-35.703-2.067l-9.205,31.921        c8.071,5.474,17.825,9.963,35.715,1.958L96.332,11.923z"
   id="path655" />
						
							<linearGradient
   id="SVGID_49_"
   gradientUnits="userSpaceOnUse"
   x1="-443.376"
   y1="224.0208"
   x2="-407.498"
   y2="224.0208"
   gradientTransform="matrix(1 0 0 1 504 -211.1914)">
							<stop
   offset="0"
   style="stop-color:#D3ED89"
   id="stop658" />
							<stop
   offset="1"
   style="stop-color:#5F821C"
   id="stop660" />
						</linearGradient>
						<path
   fill="url(#SVGID_49_)"
   d="M96.292,11.946c-18.659,7.711-27.59,3.371-35.668-2.063c0.02-0.072,0.05-0.209,0-0.344        c8.078,5.438,17.231,9.819,35.878,2.105C96.35,11.732,96.338,11.84,96.292,11.946z"
   id="path662" />
						<polygon
   fill="#8CAC42"
   points="59.197,10.264 59.866,9.786 50.754,41.428 50.053,41.985 50.053,41.915       "
   id="polygon664" />
						
							<linearGradient
   id="SVGID_50_"
   gradientUnits="userSpaceOnUse"
   x1="-447.9082"
   y1="237.009"
   x2="-448.7606"
   y2="236.7646"
   gradientTransform="matrix(1 0 0 1 504 -211.1914)">
							<stop
   offset="0.2822"
   style="stop-color:#D3ED89"
   id="stop667" />
							<stop
   offset="0.4045"
   style="stop-color:#D3ED89"
   id="stop669" />
							<stop
   offset="1"
   style="stop-color:#5F821C"
   id="stop671" />
						</linearGradient>
						<path
   fill="url(#SVGID_50_)"
   d="M51.441,41.788c-0.28-0.163-0.49-0.483-0.742-0.383l9.134-31.604        c0.14-0.063,0.491-0.181,0.827,0.079L51.441,41.788z"
   id="path673" />
						<path
   fill="#5F821C"
   d="M59.948,9.585l-0.092,0.226L59.19,10.29c0.059-0.217,0.571-0.575,0.721-0.688        C59.942,9.589,59.948,9.585,59.948,9.585z"
   id="path675" />
						
							<linearGradient
   id="SVGID_51_"
   gradientUnits="userSpaceOnUse"
   x1="-443.3389"
   y1="220.8616"
   x2="-444.1572"
   y2="220.8044"
   gradientTransform="matrix(1 0 0 1 504 -211.1914)">
							<stop
   offset="0"
   style="stop-color:#7AA922"
   id="stop678" />
							<stop
   offset="0.2"
   style="stop-color:#D3ED89"
   id="stop680" />
							<stop
   offset="0.525"
   style="stop-color:#D3ED89"
   id="stop682" />
							<stop
   offset="1"
   style="stop-color:#7AA922"
   id="stop684" />
						</linearGradient>
						<path
   fill="url(#SVGID_51_)"
   d="M60.629,9.855c-0.346-0.21-0.663-0.104-0.8-0.045c0.019-0.069,0.082-0.208,0.082-0.208        c0.301-0.188,0.427-0.194,0.713-0.063C60.661,9.646,60.674,9.75,60.629,9.855z"
   id="path686" />
						
							<linearGradient
   id="SVGID_52_"
   gradientUnits="userSpaceOnUse"
   x1="-416.249"
   y1="239.4875"
   x2="-406.2681"
   y2="239.4875"
   gradientTransform="matrix(1 0 0 1 504 -211.1914)">
							<stop
   offset="0.0056"
   style="stop-color:#7AA922"
   id="stop689" />
							<stop
   offset="0.1685"
   style="stop-color:#1D4A20"
   id="stop691" />
							<stop
   offset="0.382"
   style="stop-color:#26551B"
   id="stop693" />
							<stop
   offset="1"
   style="stop-color:#7AA922"
   id="stop695" />
						</linearGradient>
						<polygon
   opacity="0.81"
   fill="url(#SVGID_52_)"
   enable-background="new    "
   points="87.751,43.879 96.979,12.101         97.732,12.698 88.454,44.49       "
   id="polygon697" />
						<path
   fill="#476E32"
   d="M88.636,44.723c0.021-0.184-0.167-0.329-0.167-0.329l9.25-31.727c0,0,0.149,0.133,0.187,0.225        L88.636,44.723z"
   id="path699" />
						<path
   fill="#1D3419"
   d="M88.326,45.017c-4.985,2.269-9.699,3.437-14.079,3.815c-7.567,0.853-13.688-0.789-18.682-3.243        c-1.947-0.894-3.702-1.903-5.262-2.955l0.086-0.063c1.581,1.059,3.298,2.097,5.176,3.021        c5.08,2.331,11.417,3.873,18.682,3.243c4.136-0.474,8.708-1.692,13.759-3.931C88.147,45.011,88.326,45.017,88.326,45.017z"
   id="path701" />
						
							<linearGradient
   id="SVGID_53_"
   gradientUnits="userSpaceOnUse"
   x1="-416.1958"
   y1="255.2454"
   x2="-417.0015"
   y2="255.1892"
   gradientTransform="matrix(1 0 0 1 504 -211.1914)">
							<stop
   offset="0"
   style="stop-color:#7AA922"
   id="stop704" />
							<stop
   offset="1"
   style="stop-color:#D3ED89"
   id="stop706" />
						</linearGradient>
						<path
   fill="url(#SVGID_53_)"
   d="M87.316,44.426c0,0-0.353-0.318-0.292-0.782c0.488-0.128,0.795,0.174,0.795,0.174        S87.725,44.249,87.316,44.426z"
   id="path708" />
						
							<linearGradient
   id="SVGID_54_"
   gradientUnits="userSpaceOnUse"
   x1="-415.833"
   y1="255.3157"
   x2="-416.3437"
   y2="255.8829"
   gradientTransform="matrix(1 0 0 1 504 -211.1914)">
							<stop
   offset="0"
   style="stop-color:#5F821C"
   id="stop711" />
							<stop
   offset="1"
   style="stop-color:#26551B"
   id="stop713" />
						</linearGradient>
						<path
   fill="url(#SVGID_54_)"
   d="M87.82,43.817l0.661,0.591c0,0-0.099,0.365-0.502,0.542l-0.69-0.588        C87.701,44.188,87.82,43.817,87.82,43.817z"
   id="path715" />
						
							<linearGradient
   id="SVGID_55_"
   gradientUnits="userSpaceOnUse"
   x1="-452.9209"
   y1="256.3176"
   x2="-416.582"
   y2="256.3176"
   gradientTransform="matrix(1 0 0 1 504 -211.1914)">
							<stop
   offset="0"
   style="stop-color:#7AA922"
   id="stop718" />
							<stop
   offset="0.4"
   style="stop-color:#D3ED89"
   id="stop720" />
							<stop
   offset="1"
   style="stop-color:#7AA922"
   id="stop722" />
						</linearGradient>
						<path
   fill="url(#SVGID_55_)"
   d="M87.138,43.626c-0.065,0.469,0.28,0.811,0.28,0.811c-18.65,7.714-28.258,3.181-36.339-2.295        c0.142-0.099,0.163-0.099,0.256-0.434C59.41,47.181,71.615,51.014,87.138,43.626z"
   id="path724" />
						<path
   fill="#26551B"
   d="M50.389,42.601l0.695-0.462c8.079,5.203,17.622,9.699,36.26,2.208l0.668,0.585        C70.122,52.826,58.68,48.435,50.389,42.601z"
   id="path726" />
						<path
   fill="#5F821C"
   d="M88.636,44.723c-0.087,0.171-0.253,0.271-0.31,0.294c-0.012,0.009-0.019,0.009-0.019,0.009        s-0.124,0.022-0.3-0.094c0.372-0.192,0.475-0.604,0.475-0.604S88.691,44.516,88.636,44.723z"
   id="path728" />
						<path
   fill="#26551B"
   d="M50.417,42.594l-0.082,0.064c0,0-0.451-0.246-0.282-0.744C50.095,42.41,50.417,42.594,50.417,42.594z"
   id="path730" />
						
							<linearGradient
   id="SVGID_56_"
   gradientUnits="userSpaceOnUse"
   x1="-453.1431"
   y1="253.5344"
   x2="-453.716"
   y2="252.8979"
   gradientTransform="matrix(1 0 0 1 504 -211.1914)">
							<stop
   offset="0"
   style="stop-color:#1D3A19"
   id="stop733" />
							<stop
   offset="0.1"
   style="stop-color:#26551B"
   id="stop735" />
							<stop
   offset="0.65"
   style="stop-color:#7AA922"
   id="stop737" />
							<stop
   offset="1"
   style="stop-color:#D3ED89"
   id="stop739" />
						</linearGradient>
						<path
   fill="url(#SVGID_56_)"
   d="M50.053,41.915l0.674-0.53c-0.042,0.513,0.396,0.721,0.396,0.721l-0.68,0.527        C50.441,42.634,50.018,42.423,50.053,41.915z"
   id="path741" />
						
							<linearGradient
   id="SVGID_57_"
   gradientUnits="userSpaceOnUse"
   x1="-453.1611"
   y1="252.5061"
   x2="-452.7436"
   y2="253.2595"
   gradientTransform="matrix(1 0 0 1 504 -211.1914)">
							<stop
   offset="0"
   style="stop-color:#5F821C"
   id="stop744" />
							<stop
   offset="0.4045"
   style="stop-color:#7AA922"
   id="stop746" />
							<stop
   offset="0.8"
   style="stop-color:#5F821C"
   id="stop748" />
							<stop
   offset="1"
   style="stop-color:#5F821C"
   id="stop750" />
						</linearGradient>
						<path
   fill="url(#SVGID_57_)"
   d="M50.708,41.385c0.231-0.075,0.436,0.169,0.716,0.392c-0.094,0.327-0.169,0.271-0.313,0.369        C50.946,42.053,50.664,41.806,50.708,41.385z"
   id="path752" />
						
							<linearGradient
   id="SVGID_58_"
   gradientUnits="userSpaceOnUse"
   x1="-406.6787"
   y1="223.6008"
   x2="-406.5598"
   y2="223.1962"
   gradientTransform="matrix(1 0 0 1 504 -211.1914)">
							<stop
   offset="0"
   style="stop-color:#5B7F30"
   id="stop755" />
							<stop
   offset="1"
   style="stop-color:#D3ED89"
   id="stop757" />
						</linearGradient>
						<path
   opacity="0.72"
   fill="url(#SVGID_58_)"
   enable-background="new    "
   d="M97.793,12.369        c0.008,0.116-0.078,0.313-0.078,0.313l-0.717-0.576c0,0,0.104-0.235,0.052-0.415C97.292,11.793,97.753,12.3,97.793,12.369z"
   id="path759" />
						
							<linearGradient
   id="SVGID_59_"
   gradientUnits="userSpaceOnUse"
   x1="-407.4141"
   y1="228.6946"
   x2="-443.9446"
   y2="218.2197"
   gradientTransform="matrix(1 0 0 1 504 -211.1914)">
							<stop
   offset="0"
   style="stop-color:#1D3419"
   id="stop762" />
							<stop
   offset="0.2277"
   style="stop-color:#26551B"
   id="stop764" />
							<stop
   offset="1"
   style="stop-color:#7AA922"
   id="stop766" />
						</linearGradient>
						<path
   opacity="0.33"
   fill="url(#SVGID_59_)"
   enable-background="new    "
   d="M97.777,12.341        c-0.14-0.19-0.353-0.357-0.521-0.511c-0.316-0.288-0.706-0.226-0.799-0.17l-0.006,0.011        c-18.609,7.683-27.752,3.302-35.826-2.132c0.018,0.04,0.02,0.081,0.024,0.119c-0.004-0.038-0.006-0.079-0.024-0.119        c-0.286-0.131-0.412-0.125-0.713,0.063c-0.115,0.08-0.416,0.305-0.59,0.493C62.429,12.708,75.626,23.051,97.777,12.341z         M60.629,9.855L60.629,9.855l-0.005,0.007c0-0.007-0.002-0.007-0.004-0.008C60.623,9.855,60.625,9.855,60.629,9.855        c0.019-0.043,0.019-0.083,0.022-0.125C60.648,9.781,60.643,9.824,60.629,9.855z"
   id="path768" />
						
							<linearGradient
   id="SVGID_60_"
   gradientUnits="userSpaceOnUse"
   x1="-411.5273"
   y1="239.1877"
   x2="-412.3731"
   y2="238.9452"
   gradientTransform="matrix(1 0 0 1 504 -211.1914)">
							<stop
   offset="0"
   style="stop-color:#5F821C"
   id="stop771" />
							<stop
   offset="1"
   style="stop-color:#75C146"
   id="stop773" />
						</linearGradient>
						<path
   opacity="0.72"
   fill="url(#SVGID_60_)"
   enable-background="new    "
   d="M87.053,43.702l9.225-31.765        c0.504-0.093,0.744,0.194,0.744,0.194L87.82,43.817C87.82,43.817,87.443,43.533,87.053,43.702z"
   id="path775" />
						
							<linearGradient
   id="SVGID_61_"
   gradientUnits="userSpaceOnUse"
   x1="-407.708"
   y1="223.4446"
   x2="-406.0679"
   y2="223.4446"
   gradientTransform="matrix(1 0 0 1 504 -211.1914)">
							<stop
   offset="0"
   style="stop-color:#D3ED89"
   id="stop778" />
							<stop
   offset="1"
   style="stop-color:#5F821C"
   id="stop780" />
						</linearGradient>
						<path
   opacity="0.6"
   fill="url(#SVGID_61_)"
   enable-background="new    "
   d="M96.292,11.946        c0.026-0.12,0.042-0.175,0.164-0.285c0.094-0.056,0.483-0.118,0.799,0.17c0.315,0.284,0.799,0.613,0.649,1.063        c-0.038-0.092-0.179-0.208-0.179-0.208l-0.704-0.555C97.021,12.129,96.794,11.857,96.292,11.946z"
   id="path782" />
						
							<linearGradient
   id="SVGID_62_"
   gradientUnits="userSpaceOnUse"
   x1="-407.5708"
   y1="229.0793"
   x2="-443.9964"
   y2="218.6344"
   gradientTransform="matrix(1 0 0 1 504 -211.1914)">
							<stop
   offset="0"
   style="stop-color:#93BF81"
   id="stop785" />
							<stop
   offset="0.2277"
   style="stop-color:#26551B"
   id="stop787" />
							<stop
   offset="1"
   style="stop-color:#BDE256"
   id="stop789" />
						</linearGradient>
						<path
   opacity="0.3"
   fill="url(#SVGID_62_)"
   enable-background="new    "
   d="M59.321,10.096        c-0.047,0.058-0.093,0.108-0.116,0.159l-0.008,0.009l-0.034,0.109c2.81,2.376,16.134,13.318,38.76,2.305        c-0.015-0.122-0.067-0.236-0.146-0.337C75.626,23.051,62.429,12.708,59.321,10.096z"
   id="path791" />
						
							<linearGradient
   id="SVGID_63_"
   gradientUnits="userSpaceOnUse"
   x1="-406.6753"
   y1="223.5989"
   x2="-406.5564"
   y2="223.1943"
   gradientTransform="matrix(1 0 0 1 504 -211.1914)">
							<stop
   offset="0"
   style="stop-color:#5B7F30"
   id="stop794" />
							<stop
   offset="1"
   style="stop-color:#D3ED89"
   id="stop796" />
						</linearGradient>
						<path
   opacity="0.72"
   fill="url(#SVGID_63_)"
   enable-background="new    "
   d="M97.793,12.371        c0.008,0.116-0.078,0.313-0.078,0.313L97,12.107c0,0,0.105-0.233,0.055-0.415C97.292,11.796,97.753,12.304,97.793,12.371z"
   id="path798" />
						
							<linearGradient
   id="SVGID_64_"
   gradientUnits="userSpaceOnUse"
   x1="-407.708"
   y1="223.4456"
   x2="-406.0654"
   y2="223.4456"
   gradientTransform="matrix(1 0 0 1 504 -211.1914)">
							<stop
   offset="0"
   style="stop-color:#D3ED89"
   id="stop801" />
							<stop
   offset="1"
   style="stop-color:#5F821C"
   id="stop803" />
						</linearGradient>
						<path
   opacity="0.6"
   fill="url(#SVGID_64_)"
   enable-background="new    "
   d="M96.292,11.946        c0.026-0.12,0.042-0.175,0.166-0.285c0.092-0.056,0.484-0.118,0.797,0.173c0.315,0.284,0.8,0.61,0.652,1.062        c-0.041-0.094-0.181-0.208-0.181-0.208l-0.704-0.558C97.023,12.129,96.794,11.857,96.292,11.946z"
   id="path805" />
					</g>
					<path
   d="M85.18,81.004c0,0.411-0.143,0.762-0.429,1.045c-0.286,0.278-0.638,0.421-1.058,0.421       c-0.423,0-0.774-0.139-1.054-0.412c-0.279-0.273-0.419-0.623-0.419-1.042c0-0.412,0.143-0.76,0.426-1.045       c0.284-0.283,0.636-0.424,1.059-0.424c0.414,0,0.761,0.136,1.042,0.405C85.036,80.23,85.18,80.58,85.18,81.004z M85.002,81.01       c0-0.369-0.126-0.682-0.378-0.93c-0.252-0.247-0.56-0.372-0.922-0.372c-0.377,0-0.688,0.125-0.937,0.374       c-0.248,0.251-0.371,0.563-0.371,0.928c0,0.374,0.128,0.689,0.385,0.938c0.25,0.251,0.558,0.37,0.923,0.37       c0.359,0,0.666-0.121,0.92-0.373C84.875,81.694,85.002,81.384,85.002,81.01z M84.417,81.935h-0.319l-0.205-0.456       c-0.104-0.225-0.216-0.337-0.335-0.337h-0.173v0.793h-0.264v-1.884h0.53c0.233,0,0.411,0.051,0.532,0.158       c0.102,0.09,0.154,0.208,0.154,0.354c0,0.128-0.042,0.237-0.126,0.329c-0.083,0.09-0.2,0.151-0.352,0.185v0.007       c0.105,0.024,0.209,0.141,0.312,0.349L84.417,81.935z M84.055,80.595c0-0.104-0.031-0.187-0.09-0.233       c-0.069-0.056-0.185-0.084-0.348-0.084h-0.233v0.641h0.283C83.924,80.916,84.055,80.812,84.055,80.595z"
   id="path807" />
				</g>
			</g>
			<g
   id="g809">
				<path
   d="M341.555,73.809v-5.892c0.627,0.595,1.379,1.131,2.256,1.606c0.879,0.477,1.801,0.879,2.77,1.206      s1.941,0.578,2.92,0.757c0.979,0.18,1.883,0.27,2.713,0.27c2.861,0,4.998-0.57,6.41-1.712c1.412-1.139,2.117-2.781,2.117-4.923      c0-1.15-0.234-2.153-0.705-3.007s-1.121-1.631-1.953-2.334c-0.83-0.705-1.813-1.382-2.947-2.024      c-1.135-0.645-2.357-1.323-3.668-2.038c-1.385-0.753-2.678-1.517-3.877-2.292c-1.199-0.771-2.242-1.624-3.127-2.558      c-0.885-0.936-1.582-1.989-2.09-3.169c-0.51-1.182-0.762-2.564-0.762-4.151c0-1.944,0.396-3.635,1.189-5.073      c0.793-1.438,1.836-2.624,3.127-3.556c1.293-0.933,2.766-1.626,4.416-2.083c1.652-0.456,3.338-0.685,5.055-0.685      c3.91,0,6.764,0.507,8.555,1.519v5.624c-2.346-1.746-5.354-2.619-9.025-2.619c-1.016,0-2.029,0.115-3.047,0.343      c-1.014,0.229-1.918,0.601-2.713,1.115c-0.793,0.516-1.438,1.181-1.938,1.994c-0.498,0.813-0.748,1.805-0.748,2.976      c0,1.091,0.189,2.033,0.566,2.826c0.379,0.795,0.938,1.52,1.676,2.173c0.738,0.655,1.639,1.289,2.699,1.904      c1.063,0.615,2.285,1.289,3.668,2.024c1.422,0.753,2.77,1.547,4.043,2.379c1.273,0.835,2.391,1.756,3.35,2.768      c0.961,1.013,1.721,2.133,2.285,3.363c0.563,1.229,0.844,2.638,0.844,4.223c0,2.105-0.383,3.886-1.148,5.344      c-0.766,1.457-1.799,2.644-3.102,3.556c-1.301,0.913-2.801,1.57-4.498,1.979c-1.697,0.405-3.488,0.61-5.371,0.61      c-0.627,0-1.402-0.055-2.326-0.164s-1.863-0.269-2.822-0.476c-0.959-0.21-1.869-0.468-2.729-0.775      C342.76,74.529,342.073,74.188,341.555,73.809z"
   id="path811" />
				<path
   d="M395.708,61.52h-20.016c0.07,3.394,0.92,6.013,2.545,7.854c1.625,1.846,3.857,2.77,6.701,2.77      c3.191,0,6.127-1.131,8.805-3.393v4.582c-2.492,1.941-5.787,2.917-9.885,2.917c-4.008,0-7.152-1.384-9.441-4.153      c-2.287-2.765-3.434-6.659-3.434-11.679c0-4.738,1.252-8.603,3.752-11.588c2.502-2.986,5.607-4.479,9.316-4.479      s6.58,1.289,8.609,3.869c2.029,2.578,3.045,6.159,3.045,10.739v2.561H395.708z M391.055,57.385      c-0.018-2.818-0.648-5.009-1.895-6.578c-1.248-1.563-2.979-2.349-5.191-2.349c-2.143,0-3.959,0.822-5.455,2.471      c-1.494,1.646-2.418,3.799-2.768,6.456H391.055z"
   id="path813" />
				<path
   d="M417.356,50.005c-0.795-0.655-1.938-0.982-3.434-0.982c-1.938,0-3.557,0.982-4.857,2.945      c-1.303,1.966-1.951,4.642-1.951,8.035v15.53h-4.541V45.065h4.541v6.277h0.109c0.646-2.142,1.635-3.813,2.961-5.013      c1.33-1.199,2.816-1.802,4.459-1.802c1.182,0,2.086,0.141,2.713,0.418V50.005z"
   id="path815" />
				<path
   d="M446.84,45.065l-11.295,30.469h-4.457l-10.742-30.469h4.984l7.197,22.14c0.535,1.626,0.867,3.045,0.996,4.253h0.109      c0.186-1.526,0.48-2.905,0.889-4.135l7.527-22.258H446.84z"
   id="path817" />
				<path
   d="M474.167,61.52h-20.016c0.07,3.394,0.922,6.013,2.545,7.854c1.625,1.846,3.857,2.77,6.701,2.77      c3.191,0,6.127-1.131,8.805-3.393v4.582c-2.492,1.941-5.787,2.917-9.885,2.917c-4.008,0-7.152-1.384-9.441-4.153      c-2.287-2.765-3.434-6.659-3.434-11.679c0-4.738,1.252-8.603,3.752-11.588c2.502-2.986,5.607-4.479,9.314-4.479      c3.711,0,6.582,1.289,8.611,3.869c2.029,2.578,3.045,6.159,3.045,10.739v2.561H474.167z M469.516,57.385      c-0.02-2.818-0.65-5.009-1.896-6.578c-1.246-1.563-2.977-2.349-5.191-2.349c-2.141,0-3.959,0.822-5.453,2.471      c-1.494,1.646-2.418,3.799-2.77,6.456H469.516z"
   id="path819" />
				<path
   d="M495.815,50.005c-0.793-0.655-1.938-0.982-3.434-0.982c-1.938,0-3.557,0.982-4.857,2.945      c-1.303,1.966-1.951,4.642-1.951,8.035v15.53h-4.541V45.065h4.541v6.277h0.109c0.646-2.142,1.635-3.813,2.961-5.013      c1.33-1.199,2.816-1.802,4.459-1.802c1.182,0,2.086,0.141,2.713,0.418V50.005z"
   id="path821" />
			</g>
		</g>
		<g
   id="g823">
			<path
   d="M503.563,47.569c0,1.531-1.23,2.745-2.795,2.745s-2.813-1.214-2.813-2.745c0-1.528,1.248-2.728,2.828-2.728     C502.331,44.842,503.563,46.04,503.563,47.569z M498.655,47.569c0,1.216,0.914,2.181,2.129,2.181     c1.182,0.017,2.08-0.965,2.08-2.162c0-1.215-0.898-2.196-2.113-2.196C499.569,45.391,498.655,46.372,498.655,47.569z      M500.334,48.983h-0.633v-2.728c0.25-0.033,0.6-0.083,1.049-0.083c0.516,0,0.748,0.083,0.932,0.216     c0.166,0.116,0.283,0.316,0.283,0.582c0,0.333-0.25,0.549-0.564,0.648v0.033c0.266,0.083,0.398,0.3,0.48,0.665     c0.084,0.416,0.15,0.565,0.199,0.665h-0.664c-0.084-0.1-0.133-0.332-0.217-0.665c-0.051-0.282-0.217-0.416-0.566-0.416h-0.299     V48.983z M500.352,47.453h0.301c0.348,0,0.631-0.116,0.631-0.399c0-0.249-0.184-0.416-0.582-0.416     c-0.166,0-0.283,0.019-0.35,0.034V47.453L500.352,47.453z"
   id="path825" />
		</g>
		<g
   id="g827">
			<path
   d="M526.688,75.456h-16.215v-3.09l7.846-8.868c2-2.257,3.43-4.138,4.287-5.641c0.855-1.503,1.285-3.106,1.285-4.813     c0-1.75-0.443-3.104-1.332-4.063c-0.889-0.96-2.152-1.438-3.791-1.438c-2.402,0-4.703,1.157-6.906,3.471v-3.64     c2.102-1.85,4.549-2.772,7.338-2.772c2.402,0,4.291,0.733,5.668,2.201c1.377,1.467,2.064,3.437,2.064,5.904     c0,1.946-0.477,3.849-1.428,5.703s-2.658,4.158-5.123,6.909l-6.211,6.922v0.085h12.518V75.456L526.688,75.456z"
   id="path829" />
			<path
   d="M539.487,75.964c-2.664,0-4.744-1.291-6.24-3.873c-1.494-2.582-2.242-6.313-2.242-11.195     c0-5.36,0.779-9.418,2.336-12.169c1.559-2.752,3.809-4.127,6.748-4.127c5.629,0,8.445,5.186,8.445,15.556     c0,5.136-0.795,9.055-2.385,11.757C544.561,74.615,542.34,75.964,539.487,75.964z M539.918,47.541     c-3.84,0-5.762,4.396-5.762,13.185c0,8.212,1.883,12.317,5.648,12.317c3.717,0,5.574-4.176,5.574-12.528     C545.379,51.866,543.559,47.541,539.918,47.541z"
   id="path831" />
			<path
   d="M560.206,75.964c-2.664,0-4.744-1.291-6.24-3.873c-1.494-2.582-2.242-6.313-2.242-11.195     c0-5.36,0.779-9.418,2.336-12.169c1.559-2.752,3.809-4.127,6.748-4.127c5.631,0,8.445,5.186,8.445,15.556     c0,5.136-0.795,9.055-2.385,11.757C565.28,74.615,563.059,75.964,560.206,75.964z M560.637,47.541     c-3.84,0-5.762,4.396-5.762,13.185c0,8.212,1.883,12.317,5.65,12.317c3.715,0,5.572-4.176,5.572-12.528     C566.098,51.866,564.278,47.541,560.637,47.541z"
   id="path833" />
			<path
   d="M578.522,59.541v-0.085c-3.229-1.693-4.842-4.147-4.842-7.365c0-2.188,0.738-3.981,2.215-5.386     c1.477-1.403,3.379-2.105,5.705-2.105c2.102,0,3.828,0.655,5.18,1.968c1.352,1.313,2.025,2.998,2.025,5.06     c0,3.356-1.664,5.968-4.99,7.83v0.085c3.928,1.58,5.893,4.316,5.893,8.212c0,2.511-0.801,4.508-2.402,5.989     c-1.6,1.48-3.826,2.222-6.682,2.222c-2.301,0-4.197-0.733-5.686-2.201c-1.488-1.467-2.232-3.372-2.232-5.714     C572.706,64.154,574.643,61.318,578.522,59.541z M581,61.191c-3.43,1.538-5.143,3.769-5.143,6.688c0,1.51,0.498,2.747,1.49,3.714     c0.996,0.967,2.307,1.449,3.934,1.449c1.551,0,2.816-0.477,3.801-1.428c0.98-0.953,1.473-2.155,1.473-3.608     C586.555,64.959,584.704,62.688,581,61.191z M585.655,52.049c0-1.396-0.391-2.497-1.164-3.302     c-0.775-0.805-1.834-1.206-3.172-1.206c-1.252,0-2.313,0.42-3.182,1.259c-0.869,0.84-1.305,1.909-1.305,3.207     c0,2.639,1.457,4.628,4.373,5.968C584.172,56.592,585.655,54.617,585.655,52.049z"
   id="path835" />
		</g>
	</g>
	<text
   transform="scale(0.97279859,1.027962)"
   font-size="48"
   id="text837"
   x="609.9259"
   y="73.861679"
   style="font-size:41.83089447px;fill:#ffb31a;font-family:MyriadPro-Regular">R2</text>

</g>
</svg>