<?xml version="1.0" encoding="utf-8"?>
<!-- Generator: Adobe Illustrator 24.1.3, SVG Export Plug-In . SVG Version: 6.00 Build 0)  -->
<svg version="1.1" id="Layer_1" xmlns="http://www.w3.org/2000/svg" xmlns:xlink="http://www.w3.org/1999/xlink" x="0px" y="0px"
	 viewBox="0 0 649.85 193.94" style="enable-background:new 0 0 649.85 193.94;" xml:space="preserve">
<g>
	<path d="M104.29,77.95c-1.87,1.25-3.88,2.02-6.11,2.36c-2.22,0.35-4.37,0.28-6.59,0.28H46.35c-2.22,0-4.37,0.07-6.59-0.28
		c-2.22-0.35-4.23-1.11-6.11-2.36c-3.68-2.57-5.9-6.74-5.9-11.19c0-4.52,2.22-8.69,5.9-11.19c1.87-1.25,3.88-2.01,6.11-2.36
		c2.22-0.35,4.37-0.28,6.59-0.28H91.6c2.22,0,4.37-0.07,6.59,0.28c2.22,0.35,4.23,1.11,6.11,2.36c3.68,2.57,5.9,6.74,5.9,11.19
		C110.19,71.28,107.97,75.45,104.29,77.95 M122.47,34.5c-4.86-3.89-10.41-6.6-16.44-8.06c-3.47-0.83-6.94-1.18-10.48-1.32
		c-2.64-0.07-5.27-0.07-7.91-0.07H50.31c-2.64,0-5.27,0-7.91,0.07c-3.54,0.14-7.01,0.49-10.48,1.32
		c-6.04,1.46-11.59,4.17-16.45,8.06C5.69,42.36,0,54.24,0,66.76c0,12.58,5.69,24.4,15.47,32.25c4.86,3.89,10.41,6.61,16.44,8.06
		c3.47,0.83,6.94,1.18,10.48,1.32c2.64,0.07,5.27,0.07,7.91,0.07h37.33c2.64,0,5.28,0,7.91-0.07c3.54-0.14,7.01-0.49,10.48-1.32
		c6.04-1.46,11.59-4.17,16.44-8.06c9.79-7.86,15.47-19.74,15.48-32.26C137.95,54.17,132.26,42.36,122.47,34.5"/>
	<path d="M593.18,79.49L581.27,91.7c8.61,9.77,21.24,14.66,35.44,14.66c18.8,0,33.14-9.34,33.14-24.58
		c0-14.23-10.04-21.99-25.97-23.57l-8.9-0.86c-7.32-0.72-12.05-3.16-12.05-7.47c0-4.6,4.88-7.19,13.2-7.19
		c9.04,0,15.78,3.74,20.23,9.2l11.77-12.07c-7.32-8.77-18.51-12.94-31.14-12.94c-19.66,0-32.14,9.77-32.14,24.15
		c0,13.08,9.47,21.7,26.4,23.29l9.04,0.86c7.32,0.72,11.19,3.31,11.19,7.62c0,5.32-6.03,7.76-13.77,7.76
		C607.81,90.55,599.21,86.53,593.18,79.49 M548.41,105.07h18.51V28.03H547.7V72.3c0,10.06-7.17,16.67-16.5,16.67
		c-9.18,0-15.35-6.9-15.35-16.67V28.03h-19.23v47.29c0,18.83,14.06,30.9,30.13,30.9c9.04,0,16.79-4.17,21.67-9.49V105.07z M475.24,0
		h-19.23v105.07h19.23V0z M415.41,105.07h18.51V28.03h-19.23V72.3c0,10.06-7.17,16.67-16.5,16.67c-9.18,0-15.35-6.9-15.35-16.67
		V28.03h-19.23v47.29c0,18.83,14.06,30.9,30.13,30.9c9.04,0,16.79-4.17,21.67-9.49V105.07z M337.36,81.21
		c-3.73,4.31-9.18,7.33-16.36,7.33c-12.77,0-20.95-9.34-20.95-21.85c0-12.79,8.18-22.14,20.95-22.14c7.17,0,12.63,3.02,16.36,7.62
		l13.2-13.22c-6.89-7.47-17.22-12.22-29.41-12.22c-23.24,0-40.32,17.1-40.32,39.81s17.07,39.81,40.32,39.81
		c12.05,0,22.53-4.74,29.41-12.07L337.36,81.21z M228.31,88.54c-12.77,0-21.09-9.34-21.09-21.85c0-12.79,8.32-22.14,21.09-22.14
		c12.77,0,21.09,9.34,21.09,22.14C249.41,79.2,241.08,88.54,228.31,88.54 M228.31,106.36c23.24,0,40.32-17.1,40.32-39.81
		s-17.07-39.81-40.32-39.81S188,43.84,188,66.55S205.07,106.36,228.31,106.36"/>
</g>
<g>
	<g>
		<path d="M193.67,193.31v-20.14h-4.39v-3.22h4.39v-2.94c0-2.77,0.7-4.88,2.11-6.33c1.41-1.45,3.36-2.17,5.84-2.17
			c1.47,0,2.76,0.16,3.87,0.49v3.31c-0.64-0.17-1.23-0.29-1.77-0.35c-0.54-0.06-1.07-0.09-1.58-0.09c-3.18,0-4.76,1.63-4.76,4.88
			v3.2h7.96v3.22h-7.96v20.14H193.67z"/>
		<path d="M211.08,193.31v-23.35h3.71v4.06c0.74-1.47,1.67-2.6,2.82-3.39c1.14-0.79,2.46-1.19,3.97-1.19c0.72,0,1.41,0.07,2.07,0.21
			v3.71c-0.36-0.05-0.75-0.09-1.16-0.12c-0.42-0.03-0.82-0.05-1.21-0.05c-1.71,0-3.09,0.52-4.14,1.56
			c-1.06,1.04-1.84,2.43-2.34,4.17v14.39H211.08z"/>
		<path d="M240.19,193.82c-2.33,0-4.35-0.52-6.06-1.57c-1.71-1.05-3.02-2.49-3.95-4.32c-0.93-1.83-1.4-3.93-1.4-6.29
			c0-2.38,0.47-4.48,1.4-6.31c0.93-1.83,2.25-3.27,3.95-4.32c1.71-1.05,3.72-1.57,6.06-1.57h0.47c2.33,0,4.35,0.52,6.06,1.57
			c1.71,1.05,3.02,2.49,3.96,4.32c0.93,1.83,1.4,3.94,1.4,6.31c0,2.36-0.47,4.46-1.4,6.29c-0.93,1.83-2.25,3.27-3.96,4.32
			c-1.71,1.05-3.72,1.57-6.06,1.57H240.19z M240.22,190.4h0.42c2.33,0,4.18-0.8,5.54-2.39c1.36-1.6,2.04-3.72,2.04-6.36
			c0-2.66-0.68-4.78-2.04-6.37c-1.36-1.59-3.21-2.38-5.54-2.38h-0.42c-2.33,0-4.18,0.79-5.54,2.38c-1.36,1.59-2.04,3.71-2.04,6.37
			c0,2.64,0.68,4.76,2.04,6.36C236.04,189.6,237.89,190.4,240.22,190.4z"/>
		<path d="M259.65,193.31v-23.35h3.71v4.34c0.85-1.5,1.92-2.69,3.24-3.56c1.31-0.87,2.84-1.3,4.58-1.3h0.47
			c3.88,0,6.38,1.86,7.49,5.59c0.89-1.72,2.05-3.08,3.49-4.08c1.43-1,3.08-1.5,4.94-1.5h0.49c2.63,0,4.64,0.88,6.02,2.64
			c1.38,1.76,2.08,4.28,2.08,7.55v13.68h-3.71v-13.14c0-4.85-1.78-7.28-5.33-7.28h-0.42c-1.67,0-3.11,0.56-4.32,1.67
			c-1.21,1.11-2.08,2.52-2.63,4.22v14.53h-3.71v-13.14c0-4.85-1.77-7.28-5.3-7.28h-0.45c-1.67,0-3.11,0.56-4.31,1.67
			c-1.2,1.11-2.07,2.52-2.62,4.22v14.53H259.65z"/>
	</g>
	<g>
		<path d="M351.83,159.64v4.49c0,0.29-0.2,0.49-0.49,0.49h-19.28v9.17h15.91c0.29,0,0.49,0.2,0.49,0.49v4.49
			c0,0.29-0.2,0.49-0.49,0.49h-15.91v13.57c0,0.29-0.2,0.49-0.49,0.49h-4.83c-0.29,0-0.49-0.2-0.49-0.49v-33.18
			c0-0.29,0.2-0.49,0.49-0.49h24.59C351.63,159.15,351.83,159.34,351.83,159.64z"/>
		<path d="M391.16,193.31h-5.32c-0.29,0-0.49-0.15-0.56-0.44c-0.71-2.81-1.56-5.76-2.54-8.73h-16.32c-0.98,2.98-1.83,5.93-2.51,8.73
			c-0.07,0.29-0.27,0.44-0.56,0.44h-5.12c-0.34,0-0.54-0.2-0.44-0.54c3.07-10.88,7.76-22.89,12.49-32.99
			c0.22-0.46,0.49-0.63,0.95-0.63h6.93c0.46,0,0.73,0.17,0.95,0.63c4.78,10.08,9.39,22.11,12.49,32.99
			C391.7,193.11,391.5,193.31,391.16,193.31z M380.94,178.86c-1.78-4.93-3.76-9.86-5.78-14.35h-1.15
			c-2.03,4.49-4.03,9.42-5.81,14.35H380.94z"/>
		<path d="M399.89,176.52c0-10.59,6.98-18.01,16.93-18.01h0.73c6.25,0,11.08,3.17,13.64,7.76c0.17,0.29,0.12,0.54-0.17,0.68
			l-4.29,2.12c-0.29,0.15-0.66,0.15-0.85-0.22c-1.81-3.12-4.51-4.78-8.52-4.78h-0.73c-6.27,0-10.59,4.98-10.59,12.2
			c0,7.25,4.25,12.1,10.59,12.1h0.73c4.1,0,6.49-1.39,8.32-3.51c0.24-0.27,0.51-0.32,0.81-0.17l4.42,2.15
			c0.17,0.1,0.24,0.22,0.24,0.34c0,0.12-0.05,0.22-0.15,0.37c-2.71,3.95-7.59,6.39-13.54,6.39h-0.73
			C406.6,193.94,399.89,186.99,399.89,176.52z"/>
		<path d="M470.07,188.33v4.49c0,0.29-0.2,0.49-0.49,0.49h-25.62c-0.29,0-0.49-0.2-0.49-0.49v-33.18c0-0.29,0.2-0.49,0.49-0.49
			h25.18c0.29,0,0.49,0.2,0.49,0.49v4.49c0,0.29-0.2,0.49-0.49,0.49h-19.86v8.88h16.15c0.29,0,0.49,0.2,0.49,0.49v4.44
			c0,0.29-0.2,0.49-0.49,0.49h-16.15v8.93h20.3C469.87,187.84,470.07,188.04,470.07,188.33z"/>
		<path d="M514.18,183.94c0,5.98-4.59,9.37-12.69,9.37H484.7c-0.29,0-0.49-0.2-0.49-0.49v-33.18c0-0.29,0.2-0.49,0.49-0.49H500
			c7.88,0,12.18,3.12,12.18,8.83c0,3.76-1.9,6.22-5.76,7.37C511.84,176.5,514.18,179.74,514.18,183.94z M499.88,164.47h-9.86v9.17
			h9.86c4.42,0,6.44-1.44,6.44-4.59C506.32,165.91,504.3,164.47,499.88,164.47z M508.22,183.43c0-3.17-2.1-4.61-6.71-4.61h-11.49
			v9.17h11.49C506.2,187.99,508.22,186.62,508.22,183.43z"/>
		<path d="M524.4,176.23c0-10.3,6.83-17.71,17.57-17.71h0.73c10.74,0,17.57,7.42,17.57,17.71c0,10.3-6.83,17.71-17.57,17.71h-0.73
			C531.23,193.94,524.4,186.53,524.4,176.23z M542.7,188.38c7,0,11.42-4.81,11.42-12.15c0-7.34-4.42-12.15-11.42-12.15h-0.73
			c-7,0-11.42,4.81-11.42,12.15c0,7.34,4.42,12.15,11.42,12.15H542.7z"/>
		<path d="M570.17,176.23c0-10.3,6.83-17.71,17.57-17.71h0.73c10.74,0,17.57,7.42,17.57,17.71c0,10.3-6.83,17.71-17.57,17.71h-0.73
			C577,193.94,570.17,186.53,570.17,176.23z M588.47,188.38c7,0,11.42-4.81,11.42-12.15c0-7.34-4.42-12.15-11.42-12.15h-0.73
			c-7,0-11.42,4.81-11.42,12.15c0,7.34,4.42,12.15,11.42,12.15H588.47z"/>
		<path d="M648.13,193.31h-6.3c-0.41,0-0.59-0.1-0.85-0.41c-4.42-5.2-9.64-10.37-14.08-14.18h-2.83v14.1c0,0.29-0.2,0.49-0.49,0.49
			h-4.83c-0.29,0-0.49-0.2-0.49-0.49v-33.18c0-0.29,0.2-0.49,0.49-0.49h4.83c0.29,0,0.49,0.2,0.49,0.49v13.47h2.88
			c4.76-4.29,9.15-8.93,12.74-13.59c0.24-0.32,0.44-0.37,0.73-0.37h5.95c0.29,0,0.44,0.15,0.44,0.34c0,0.1-0.05,0.22-0.17,0.37
			c-5.25,6.47-10.44,11.76-15.25,15.86c6.05,5.12,11.78,10.83,17.01,16.98C648.66,193.02,648.52,193.31,648.13,193.31z"/>
	</g>
</g>
</svg>
