<svg id="Layer_1" xmlns="http://www.w3.org/2000/svg" viewBox="0 0 254 70"><style>.st0{fill:#030303}.st10{fill:#29282a}.st12{opacity:.5}.st13{fill:#5a5558}.st14{fill:#dfdbd5}.st15{fill:#010101}.st16{fill:#534c4b}.st17{fill:#d8d4ce}</style><path class="st0" d="M18.4 48.4L8.1 38.8l9.7-30.1h11.5l5.2 7.1.5-1.9h3.2l1.3-5.2h11.8l.5.8.2-.8 12-.1.4.9.1-.9h12.1l2.1 5.3h.2l.3.8.9-6.1h12.3l.2.7v-.7h25.1L119 20l-.3 6.8h-.5l.4 3.3-.3 7.2h-.6l.5 3.5-.3 7.6H93l-.3-.7v.7H80.6l-2.8-5.7-.8 5.7H65l-.5-.8-.1.8H52.6l-.6-.8-.2.8H40.1l-4.9-5.7h-3l-.7-.7-1.7 6.4zM155.5 47.9l-.1.4h-12.5l-1-28.4 1-11.4h25.2l.1.6.2-.6h24.9l.1.8.4-.8h24.7l.2.8.5-.9h24.5l2.3 7.3-4.8 5.8v.1c.3 1.1.7 2.3 1 3.4.2.8 1.1 3.5 1.1 3.5l.8 2.7.5 1.8c.2.8.5 1.5.7 2.3l.7 2.3.3 1-9.7 9.6h-11.7l-4.5-18.1-5.1 7h-3.6l.3 1.4-6.8 9.8h-11.9l-.1-.8-.5.8h-12l-.1-.8-.4.8H168l-.1-.7-.2.7h-12.3l.1-.4z"/><path class="st0" d="M116.6 38.4l1.1-29.8H143l.2 7-.8 11.2h-11.7l-.1 3.7 13.1-.1.2 8-1 10h-25.1z"/><linearGradient id="SVGID_1_" gradientUnits="userSpaceOnUse" x1="30.162" y1="38.072" x2="30.162" y2="10.531"><stop offset="0" stop-color="#d9cdc9"/><stop offset="1" stop-color="#a79d9a"/></linearGradient><path fill="url(#SVGID_1_)" d="M29.7 15.7l-1.6 5.4H35l1.5-5.4h3.1l1.3-5.2H50l-6.4 27.6h-9.8l3-11.7h-3.6l-1.5 5.7h-6.3l1.5-5.7h-3.5l-3.5 11.7h-9.6l8.8-27.5H28l-1.4 4.9z"/><linearGradient id="SVGID_2_" gradientUnits="userSpaceOnUse" x1="54.959" y1="38.129" x2="54.959" y2="10.586"><stop offset="0" stop-color="#d9cdc9"/><stop offset="1" stop-color="#a79d9a"/></linearGradient><path fill="url(#SVGID_2_)" d="M62.6 10.6l-5.4 27.5h-9.8l6.1-27.5z"/><linearGradient id="SVGID_3_" gradientUnits="userSpaceOnUse" x1="75.876" y1="38.056" x2="75.876" y2="10.492"><stop offset="0" stop-color="#d9cdc9"/><stop offset="1" stop-color="#a79d9a"/></linearGradient><path fill="url(#SVGID_3_)" d="M75.8 29.2l.8-5.7-3.5-.1-2.4 14.7h-9.8l5.2-27.6h9.1l-.8 5.1 3.1.1-.8 5.3 3.5.1 1.5-10.6h9.1L87.6 38l-9.8.1 1.2-8.8z"/><linearGradient id="SVGID_4_" gradientUnits="userSpaceOnUse" x1="103.692" y1="38.045" x2="103.692" y2="10.466"><stop offset="0" stop-color="#d9cdc9"/><stop offset="1" stop-color="#a79d9a"/></linearGradient><path fill="url(#SVGID_4_)" d="M115 32.4l-.2 5.6H91.4l2.9-27.5H116l-.2 4.8-12.8.1-.4 5.6h12.9l-.2 5.3h-13.2l-.4 6z"/><linearGradient id="SVGID_5_" gradientUnits="userSpaceOnUse" x1="232.312" y1="37.997" x2="232.312" y2="10.341"><stop offset="0" stop-color="#d9cdc9"/><stop offset="1" stop-color="#a79d9a"/></linearGradient><path d="M242.3 10.3l1.6 4.9h-6.3v.2c.3 1.1.5 2.2.9 3.3.3 1.1.6 2.3 1 3.4.3 1.2.7 2.3 1 3.5.4 1.2.7 2.4 1.1 3.5.2.7.4 1.4.7 2.2.2.7.5 1.5.7 2.2.2.7.4 1.5.7 2.2.2.8.4 1.5.7 2.3h-9.9l-6.2-22.8H222l-1.2-4.9h21.5z" fill="url(#SVGID_5_)"/><linearGradient id="SVGID_6_" gradientUnits="userSpaceOnUse" x1="208.023" y1="38.009" x2="208.023" y2="10.366"><stop offset="0" stop-color="#d9cdc9"/><stop offset="1" stop-color="#a79d9a"/></linearGradient><path fill="url(#SVGID_6_)" d="M219.5 20.8l1.4 5.5h-13.3l2.5 11.7h-9.9l-5-27.6H217l1.2 4.9h-12.9l1.2 5.5z"/><linearGradient id="SVGID_7_" gradientUnits="userSpaceOnUse" x1="183.182" y1="38.018" x2="183.182" y2="10.391"><stop offset="0" stop-color="#d9cdc9"/><stop offset="1" stop-color="#a79d9a"/></linearGradient><path d="M181.6 29.1l1.2 8.9h-9.9l-3.1-27.6h21.8l4.8 27.6h-9.9l-1.3-8.9h-3.6zm6.4-10.8l-.6-3.5h-4.3l.4 3.2h-3.4l-.4-3.2h-4.2l.4 3.5h3.8l.2 1.3H178l.7 5.4h2.3l-.2-1.8h3.4l.3 1.8h2.3l-.8-5.4h-1.9l-.2-1.3h4.1" fill="url(#SVGID_7_)"/><linearGradient id="SVGID_8_" gradientUnits="userSpaceOnUse" x1="156.94" y1="38.029" x2="156.94" y2="10.417"><stop offset="0" stop-color="#d9cdc9"/><stop offset="1" stop-color="#a79d9a"/></linearGradient><path d="M164.5 23.7h3.3l1.4 14.3h-9.8l-.9-11.6-3.6-.1.8 11.7h-9.8l-1.1-27.6h21.7l1 10.2h-3.2l.2 3.1zm-6.4-2.7l-.4-5.7h-3.5l.4 5.7h3.5" fill="url(#SVGID_8_)"/><linearGradient id="SVGID_9_" gradientUnits="userSpaceOnUse" x1="130.263" y1="38.037" x2="130.263" y2="10.441"><stop offset="0" stop-color="#d9cdc9"/><stop offset="1" stop-color="#a79d9a"/></linearGradient><path fill="url(#SVGID_9_)" d="M128.7 15.3h12.6l-.1-4.9-21.7.1-1 27.5H142l-.2-5.6h-13.4z"/><path class="st10" d="M11.8 38.1c-.8 0-1 .5-.4 1l6.7 6.4c.6.6 1.8 1 2.6 1h5.7c.8 0 1-.5.5-1.1L21 39.1c-.6-.6-1.7-1.1-2.5-1.1l-6.7.1zM35.3 38.1c-.8 0-1.1.5-.5 1.1l5.2 6.2c.5.6 1.6 1.1 2.5 1.1h6c.8 0 1.1-.5.6-1.2l-4.5-6.1c-.5-.7-1.6-1.2-2.4-1.2l-6.9.1z"/><path class="st10" d="M26.9 32.1c-.8 0-1.1.5-.5 1.1l5.8 6.5c.5.6 1.5 1.1 2 1.1.6 0 .7-.6.2-1.3l-.2-.3c-.5-.7-.7-1.9-.5-2.7.2-.8 0-2-.5-2.6l-.6-.7c-.5-.6-1.6-1.2-2.4-1.2l-3.3.1zM48.8 38.1c-.8 0-1.1.5-.6 1.2l4.4 6c.5.7 1.6 1.2 2.4 1.2h5.9c.8 0 1.1-.6.7-1.3l-3.7-5.9c-.4-.7-1.5-1.3-2.3-1.3l-6.8.1zM62.4 38.1c-.8 0-1.1.6-.7 1.3l3.6 5.8c.4.7 1.5 1.3 2.3 1.3h5.8c.8 0 1.2-.6.8-1.3l-2.8-5.7c-.4-.7-1.3-1.3-2.2-1.3l-6.8-.1zM79.3 38c-.8 0-1.2.6-.9 1.4l2.7 5.8c.3.7 1.3 1.4 2.1 1.4h6c.8 0 1.3-.6 1-1.4l-2.1-5.7c-.3-.8-1.2-1.4-2-1.4l-6.8-.1zM92.9 38c-.8 0-1.3.6-1 1.4l2 5.5c.3.8 1.2 1.4 2 1.4h18.6c.8 0 1.4-.7 1.3-1.5l-.8-5.3c-.1-.8-.9-1.5-1.7-1.5H92.9zM120 38c-.8 0-1.4.7-1.3 1.5l.6 5.5c.1.8.8 1.5 1.7 1.5h18.5c.8 0 1.6-.7 1.7-1.5l.7-5.5c.1-.8-.5-1.5-1.3-1.5H120zM147.2 38c-.8 0-1.6.7-1.7 1.5l-.7 5.4c-.1.8.5 1.5 1.3 1.5h5.9c.8 0 1.7-.7 1.8-1.5l1.3-5.5c.2-.8-.3-1.5-1.1-1.5l-6.8.1zM160.8 38c-.8 0-1.7.7-1.8 1.5l-1.3 5.4c-.2.8.3 1.5 1.2 1.5h5.9c.8 0 1.7-.6 2-1.4l1.9-5.5c.3-.8-.2-1.4-1-1.4l-6.9-.1zM174.5 38c-.8 0-1.7.6-2 1.4l-2 5.6c-.3.8.2 1.4 1 1.4h5.9c.8 0 1.8-.6 2.1-1.4l2.7-5.7c.3-.7 0-1.4-.9-1.4l-6.8.1zM188.1 38c-.8 0-1.8.6-2.2 1.3l-2.8 5.7c-.4.7 0 1.3.8 1.3h6.1c.8 0 1.8-.6 2.2-1.3l3.4-5.8c.4-.7.1-1.3-.7-1.3l-6.8.1zM201.7 38c-.8 0-1.8.6-2.3 1.3l-3.6 5.9c-.4.7-.1 1.3.7 1.3h6c.8 0 1.9-.5 2.4-1.2l4.3-6c.5-.7.2-1.2-.6-1.2l-6.9-.1zM235.8 38c-.8 0-1.9.5-2.5 1.1l-5.4 6.1c-.5.6-.3 1.1.5 1.1h5.7c.8 0 2-.5 2.6-1l6.4-6.2c.6-.6.4-1-.4-1l-6.9-.1z"/><g opacity=".44"><path class="st0" d="M17.5 15.1c-.1.2.6.3 1.4.3h6.3c.8 0 1.5-.1 1.5-.3 0-.2-.7-.3-1.5-.3h-6.1c-.8 0-1.5.2-1.6.3zM17 29.3c.3-.8-.2-1.4-1-1.4h-1.2c-.8 0-1.5.1-1.5.3 0 .2.7.3 1.5.3h.4c.8 0 1.3.6 1 1.4l-1.4 4.2c-.3.8.2 1.4 1 1.4h4.6c.8 0 1.5-.1 1.5-.3 0-.2-.7-.3-1.5-.3h-3.8c-.8 0-1.3-.6-1-1.4.3-.8 1.1-1.4 2-1.4H21c.8 0 1.5-.1 1.5-.3s-.7-.3-1.5-.3h-3.3c-.8 0-1.3-.6-1-1.4l.3-.8zM43.9 16.5c.1-.8-.5-1.5-1.3-1.5H41c-.8 0-1.5.1-1.6.3-.1.2.6.3 1.4.3h1.1c.8 0 1.4.7 1.3 1.5l-.2 1.6c-.1.8-.9 1.5-1.7 1.5h-5.8c-.8 0-1.5.1-1.5.3 0 .2.7.3 1.5.3h11.8c.8 0 1.5-.1 1.5-.3 0-.2-.7-.3-1.5-.3h-2.4c-.8 0-1.4-.7-1.3-1.5l.3-2.2zM52.3 34.9c.1-.8.1-1.2-.1-.8-.2.4-.5 1.3-.7 2.1l-.1.6c-.2.8.1 2 .6 2.7l.1.1c.5.7 1.2 1.5 1.5 1.7.4.3.3-.1-.1-.7l-.8-1.3c-.5-.7-.7-1.9-.6-2.7l.2-1.7zM62 16.1c0-.2-.7-.3-1.5-.3h-2.1c-.8 0-1.2.1-.8.3s1.3.3 2.1.3h.8c.9 0 1.5-.1 1.5-.3zM65.7 36.4c.2-.8.1-1.2-.1-.8-.2.4-.5 1.1-.7 1.6-.1.5 0 1.4.2 2 .2.6.6 1.4.9 1.7.3.3.3 0 0-.8l-.2-.6c-.3-.8-.3-2.1-.1-2.9v-.2zM63.5 29.2c-.8 0-1.5.1-1.5.2 0 .2.7.3 1.5.4l6.8.3c.8 0 1.7.4 1.9.7.2.3.5.6.7.5.1-.1 0-.5-.2-.9-.3-.4-1.2-.8-2-.8l-7.2-.4zM70.9 15.2c.3.2 1.2.3 2 .3h.1c.8 0 1.5-.1 1.5-.3 0-.2-.7-.3-1.5-.3h-1.1c-.8-.1-1.2.1-1 .3zM79.7 29.4c-.8 0-1.5.2-1.5.4s.7.3 1.5.2l3.8-.2c.8 0 1.4.6 1.3 1.4l-.8 5.4c-.1.8 0 2.1.2 2.9l.1.2c.2.8.7 1.8 1 2.2s.3.1.1-.7l-.5-1.8c-.2-.8-.3-2.1-.2-2.9l.9-5.9c.1-.8-.4-1.5-1.3-1.4l-4.6.2zM80.9 15c0 .2.6.4 1.4.5l6.7.8c.8.1 1.5 0 1.5-.1s-.7-.4-1.5-.5l-6.5-.7c-.8-.2-1.5-.1-1.6 0zM96.4 33.3c0-.8-.6-1.5-1.4-1.5h-2.1c-.8 0-1.5.1-1.5.3 0 .2.7.3 1.5.3h1.5c.8 0 1.5.7 1.4 1.5l-.1 2.5c0 .8.1 2.1.3 2.9l.4 1.4c.2.8.6 1.8.8 2.2.2.4.3.1.1-.7l-.7-3c-.2-.8-.3-2.1-.3-3l.1-2.9zM92.9 18.5c0 .2.7.3 1.5.3h2c.8 0 1.8-.2 2.1-.4.4-.2 0-.3-.8-.3l-3.3.1c-.9 0-1.5.2-1.5.3zM109.4 21.8c0-.8-.2-1.5-.3-1.5s-.3.7-.3 1.5v2.5c0 .8.2 1.2.4.7.2-.4.3-1.4.3-2.2l-.1-1zM112.3 32.5c0 .7-.7 1.3-1.5 1.3h-1.5c-.8 0-1.5.7-1.5 1.5v1.5c0 .8.1 1.5.3 1.5.2 0 .3-.7.3-1.5v-.9c0-.8.7-1.5 1.5-1.5h1.5c.8 0 1.5-.7 1.5-1.5v-.2c0-.8-.1-1.5-.2-1.5-.2 0-.4.6-.4 1.3zM136.9 33.9c-.1.3-.2 1.1-.1 2l.1.8c.1.8.1 2.2 0 3l-.8 5.7c-.1.8 0 1.5.2 1.5s.5-.7.6-1.5l.7-5.7c.1-.8.1-2.2 0-3l-.2-1.8c-.2-.8-.3-1.3-.5-1z"/><ellipse class="st0" cx="120.3" cy="43.3" rx="1.5" ry=".3"/><path class="st0" d="M121.2 19.3c.3.2 1.3.4 2.1.6l4.5.8c.8.3 1.4.5 1.5.3.1-.2-.5-.5-1.3-.7l-5.9-1c-.9-.2-1.3-.1-.9 0zM121.1 24.9c.3-.2-.1-.3-.9-.3s-1.4.2-1.4.4.4.3.9.3 1.1-.2 1.4-.4zM149 19.6c0 .4.8.7 1.6.7h.1c.8 0 1.6 0 1.7.1s.5.3.6.2c.1-.1 0-.3-.2-.5-.3-.2-1.1-.4-1.9-.4-.7 0-1.4-.7-1.5-1.5l-.7-6.7c-.1-.8-.3-1.5-.5-1.5s-.2.7-.1 1.5l.6 5.2c.1.8-.5 1.5-1.3 1.5h-1.6c-.8 0-1.5.1-1.5.3 0 .2.7.3 1.5.3h1.7c.8.1 1.5.4 1.5.8zM148.2 33.5c.1.8-.2 2-.6 2.7-.4.6-.7 1.8-.5 1.9.2 0 .5-.5.7-1.2.2-.7.9-1.3 1-1.3.1 0 .1-.7.1-1.5l-.2-2.8c-.1-.8.6-1.5 1.4-1.5h4.4c.8 0 1.5-.1 1.5-.3 0-.2-.7-.3-1.5-.3h-5c-.8 0-1.5.7-1.4 1.5l.1 2.8zM158.3 31.2c0 .2.7.3 1.5.3h2.8c.8 0 1.7-.1 2-.3s-.1-.3-.9-.3h-3.9c-.8 0-1.5.2-1.5.3zM161.1 22.7c.2.1 1 .3 1.8.3h.5c.8 0 1.5-.1 1.5-.3s-.7-.3-1.5-.3h-1.2c-.8.1-1.3.2-1.1.3zM144.6 43.8c0 .2.6.3 1.5.4l6.7.5c.8.1 1.5 0 1.5-.2s-.6-.3-1.5-.4l-6.7-.5c-.8 0-1.5.1-1.5.2zM186.5 31c-.8 0-1.5.2-1.5.3 0 .2.7.3 1.5.3l8.3 1c.8.1 1.5 0 1.6-.1.1-.2-.6-.3-1.4-.4l-8.5-1.1zM213.5 19.9c-.2.1-.2.8-.2 1.6 0 0 1.1 3.1.8 3.8s-.4 1.2-.3 1.3c.1.1.5-.4.9-1.1s-1-5.6-1.2-5.6zM208.9 12.4c-.6 0-1.3-.5-1.5-1.2-.2-.7-.5-1.2-.7-1.1-.2 0-.1.7.1 1.5s1 1.4 1.6 1.4c.6 0 1.4.6 1.6 1.4l.2.5c.3.8.6 1.4.8 1.3.2-.1.1-.7-.2-1.5l-.3-.9c-.3-.8-1-1.4-1.6-1.4zM232.8 29.8c-.8 0-1.5.1-1.5.3s.7.3 1.5.3h7.8c.8 0 1.5-.1 1.5-.3s-.7-.3-1.5-.3h-7.8zM238.8 15.7c.2 0 .1-.7-.1-1.5l-.7-2.6c-.2-.8-.5-1.4-.7-1.4-.2 0-.1.7.1 1.5l.7 2.6c.3.8.6 1.5.7 1.4z"/></g><path class="st0" d="M39.2 15.5h2.5c.8 0 .8-.1 0-.3l-.5-.1c-.8-.2-1.4-.1-1.4.2 0 .1 0 .1-.6.2zM24.1 42.2c-.3-.3-1.2-.5-2-.4l-1.1.1c-.8.1-.8.3 0 .4l2.1.3c.8 0 1.3-.1 1-.4zM49.6 45.5c-.2-.3-1-.5-1.8-.4l-2.9.2c-.8.1-.8.2 0 .3l3.6.3c.8.1 1.3-.1 1.1-.4zM80.4 44.2c-.1-.3.5-.5 1.3-.5h.4c.8 0 .8.2.1.5l-.2.1c-.8.2-1.5.2-1.6-.1zM115.7 42.3c-.1-.4-.8-.7-1.6-.5l-1.9.3c-.8.1-.8.3 0 .4l2.1.3c.8.1 1.4-.1 1.4-.5zM118.6 43.7c0-.4.5-.7 1.3-.6s.8.4.1.7c-.8.4-1.4.3-1.4-.1zM96.3 36.8c-.1-.6-.2-.7-.4-.1-.1.6 0 1.6.2 2.4v.1c.2.8.4.8.3 0s0-1.8-.1-2.4zM108 37.3c-.1-.2-.2.2-.2 1s.1 1 .2.4c.2-.5.1-1.2 0-1.4zM84.3 37c0-.6-.1-.6-.2 0s0 1.7.3 2.5l.1.2c.3.8.4.8.2-.1-.2-.8-.4-2-.4-2.6zM65.2 37.5c-.1-.2-.3-.2-.4.1-.1.3 0 .9.3 1.3.2.4.4.3.4-.1 0-.5-.2-1.1-.3-1.3zM51.9 37c-.1-.6-.4-.5-.6.1-.2.7.1 1.7.6 2.2.5.5.7.4.6-.1-.2-.6-.4-1.5-.6-2.2zM28 36.2c-.2-.2.3-.4 1.1-.3l1.6.1c.8.1.8.2 0 .3l-.9.1c-.8.1-1.6 0-1.8-.2zM137.1 36.7c.1-.8.3-.8.5 0s.1 2.1-.1 2.8l-.1.5c-.2.8-.4.8-.4 0v-.4c-.1-.8 0-2.1.1-2.9zM129.1 21.2c0 .3-.6.2-1.2-.3-.7-.5-.7-.7 0-.5.6.1 1.2.5 1.2.8zM168.1 41.5c.1-.3-.5-.5-1.3-.5h-.5c-.8 0-.8.2-.1.4l.3.1c.8.3 1.6.3 1.6 0zM163.1 37.3c-.2-.4-.3-.1-.3.6s.2 1.1.3.8.2-1 0-1.4zM180.9 42.8c.1-.3-.5-.5-1.3-.4l-2 .2c-.8.1-.8.2 0 .3l1.6.3c.8 0 1.6-.1 1.7-.4zM178.4 37.4c-.1-.3-.3-.4-.4 0-.1.3-.1 1 0 1.5s.3.5.4 0 .1-1.1 0-1.5zM213.9 26.8c-.2-.1-.2-.7 0-1.3s.5-.6.5.2c-.1.6-.3 1.2-.5 1.1zM197.1 42.1c.2-.3 1.1-.5 1.9-.3l3 .5c.8.1.8.2 0 .3l-3.9.1c-.8-.1-1.3-.3-1-.6zM229.9 42.1c.3-.4 1.2-.6 2-.5l2.8.5c.8.2.8.3 0 .4l-3.8.2c-.9.1-1.3-.2-1-.6zM231.2 30.1c-.1-.5.4-.8 1.2-.6l2.4.4c.8.1.8.3 0 .5l-2 .4c-.7 0-1.5-.3-1.6-.7z"/><g class="st12"><path class="st0" d="M227.8 16.2c-.2-.2-.4-1-.5-1.7 0-.7.1-.7.3.1l.1.5c.3.8.3 1.3.1 1.1z"/></g><path class="st0" d="M196 32.9l-1.6-.6c-.8-.3-.7-.5.1-.4l1.7.2"/><g class="st12"><path class="st0" d="M127.3 38.7c.1-.4.1-1 0-1.4-.1-.4-.9-.7-1.7-.7h-.3c-.8 0-1.7.3-1.9.8-.2.4.2.9 1 1.2l1.3.4c.7.2 1.5.1 1.6-.3z"/></g><path class="st0" d="M126.1 37.7c-.5-.5-.4-.9 0-.9s1.1.2 1.4.6c.2.3.1 1.1-.3 1.8s-.6.8-.5.4-.1-1.4-.6-1.9zM80.8 15.2c.1-.4.7-.5 1.5-.3s.7.5-.1.7h-.1c-.7.2-1.3 0-1.3-.4zM48.5 20.7c-.1.2-.9.3-1.7.1-.8-.2-.8-.4 0-.4h.4c.9-.1 1.4 0 1.3.3zM22.4 31.7c.1-.3-.5-.5-1.3-.3l-.7.1c-.8.2-.8.4 0 .5h.2c1 .2 1.7.1 1.8-.3z"/><path class="st10" d="M24.4 42.3c-.2-.2-.2-1.1 0-1.9l.2-.5c.2-.8.4-.8.4.1l-.1 1.3c-.1.8-.3 1.2-.5 1zM49.4 45.6c-.2-.1-.2-.7 0-1.4s.4-.5.4.3-.1 1.2-.4 1.1zM72 30.5c0-.4.2-.2.5.6s.3 1.1 0 .8c-.2-.3-.5-.9-.5-1.4zM197.4 42.5c.2-.2.3-1 0-1.8l-.2-.6c-.2-.8-.4-.8-.4.1v1.2c.1.8.3 1.3.6 1.1zM230.4 42.3c.4-.2.4-1 0-1.7l-1.1-2.5c-.3-.7-.5-.7-.4.1l.6 3c.1.8.5 1.3.9 1.1zM231.8 30c-.1-.3-.5.1-.9.8l-1.2 2.4c-.4.7-.3.8.2.1l1.2-1.7c.5-.5.8-1.3.7-1.6z"/><path class="st0" d="M210.3 16.3s0-.7.1-1.5c0-.8.2-.8.4 0l.4 1.7"/><path class="st13" d="M19.7 43c-.6-.2-.6-.3.1-.3.7.1 1.7.2 2.3.3s.5.2-.1.3c-.7 0-1.7-.1-2.3-.3zM51.4 39.5c-.5-.5-.6-.4-.1.3l.3.4c.5.7 1.2 1.4 1.6 1.7s.4 0 0-.5c-.5-.6-1.3-1.4-1.8-1.9zM64.2 38c-.2 0-.1.5.2 1.1.3.6.4.6.3 0-.1-.6-.3-1.1-.5-1.1zM82.6 44.4c-.6-.1-.3-.2.5-.4l.4-.1c.8-.1 1.2-.1.8.1-.4.3-1.1.5-1.7.4zM95.5 39.1c-.2-.4-.3-.1-.2.5.1.6.5 1.6.8 2.2.3.6.4.3.2-.5v-.1c-.2-.8-.6-1.8-.8-2.1zM138 40.2c-.1-.4-.3-.3-.4.1-.2.5-.3 1.4-.3 2.1 0 .7.2.6.4-.1.3-.8.4-1.7.3-2.1zM123.9 37.4c-.1-.4-.5-.4-.7.2-.2.5.1 1.2.7 1.5.6.3 1 .2.7-.2-.3-.4-.6-1.1-.7-1.5zM147.6 44.6c-.6-.2-.5-.3.3-.3s1.9.2 2.6.4c.6.2.5.4-.3.3-.8 0-1.9-.2-2.6-.4zM163.7 39.1c-.1-.2-.3 0-.5.5s-.1.7.1.5.4-.8.4-1zM179.1 38.5c-.1-.2-.3 0-.5.5s-.1.7.1.5c.3-.3.5-.7.4-1zM176.7 43.2c-.7-.1-.6-.3.2-.4h.1c.8-.1 1.8 0 2.1.3s.2.4-.3.4c-.4-.1-1.4-.2-2.1-.3zM199.4 43.1c-.6.1-.6-.1 0-.3.6-.2 1.8-.3 2.6-.2h.5c.8.1.8.2 0 .2h-.5c-.8.2-2 .3-2.6.3z"/><path class="st10" d="M214 27c-.3.1-.8.8-1.1 1.5-.3.7-.1.7.4 0l.4-.5c.5-.7.6-1.2.3-1z"/><path class="st0" d="M238.9 16c-.3 0-.6-.7-.7-1.5v-.1c-.1-.8.1-.9.5-.1l.2.4c.2.7.3 1.3 0 1.3zM144.3 18.9c0-.4.6-.6 1.4-.6.8 0 .9.3.1.6l-.1.1c-.7.3-1.3.2-1.4-.1zM109.2 20.2c-.3-.1-.4.4-.3 1.2v.1c.1.8.3.9.5.2.1-.7 0-1.4-.2-1.5zM77.7 29.9c-.1-.3.5-.5 1.3-.5h2.3c.8 0 .8.1 0 .3l-2.1.4c-.7.2-1.4.1-1.5-.2zM21.8 35.4c0-.2-.6-.4-1.4-.4h-.2c-.8 0-.8.2 0 .4h.2c.7.2 1.4.2 1.4 0z"/><path class="st14" d="M12.1 37.7c-.8 0-1.4.1-1.2.3.1.1.9.3 1.7.3h4.8c.8 0 1.6-.1 1.7-.3s-.4-.3-1.2-.3h-5.8zM35.8 37.7c-.8 0-1.4.1-1.2.3.1.1.9.3 1.7.3h4.8c.8 0 1.6-.1 1.7-.3.1-.2-.4-.3-1.2-.3h-5.8zM49.1 37.6c-.8 0-1.5.2-1.4.3 0 .1.7.3 1.4.3s1.4-.1 1.4-.3c.1-.2-.5-.3-1.4-.3zM25.4 26c-.8 0-1.5.2-1.4.3s.7.2 1.4.2 1.4-.1 1.4-.3c0-.1-.6-.3-1.4-.2zM35.2 26c-.8 0-1.5.2-1.4.3s.7.2 1.4.2 1.4-.1 1.4-.3c.1-.1-.6-.3-1.4-.2zM15.4 27.5c-.7 0-1.3.2-1.3.3 0 .1.6.2 1.3.2.7 0 1.2-.1 1.3-.3 0-.1-.6-.2-1.3-.2zM27.3 31.5c-.8 0-1.4.1-1.3.3.1.1.8.3 1.7.3h1.9c.8 0 1.6-.1 1.7-.3s-.5-.3-1.3-.3h-2.7zM21.9 14.4c-.8 0-1.4.1-1.3.3.1.1.8.2 1.7.2h1.9c.8 0 1.6-.1 1.7-.3.1-.2-.5-.3-1.3-.3l-2.7.1zM62.8 37.6c-.8 0-1.5.2-1.4.3 0 .1.7.3 1.4.3s1.4-.1 1.4-.3c.1-.2-.6-.3-1.4-.3zM86 37.6c-.7 0-1.3.2-1.3.3 0 .1.6.3 1.3.3.7 0 1.2-.1 1.3-.3 0-.2-.6-.3-1.3-.3zM67.2 37.6c-.8 0-1.4.1-1.4.3.1.1.8.3 1.6.3h1.3c.8 0 1.6-.1 1.6-.3.1-.2-.5-.3-1.4-.3h-1.7zM79.5 37.6c-.8 0-1.4.1-1.3.3.1.1.8.3 1.7.3h1.8c.8 0 1.6-.1 1.7-.3.1-.2-.5-.3-1.3-.3h-2.6zM93.2 37.6c-.8 0-1.4.2-1.4.3.1.1.8.3 1.6.3h.6c.8 0 1.5-.1 1.6-.3.1-.2-.6-.3-1.4-.3h-1zM120.3 37.6c-.8 0-1.4.2-1.4.3.1.1.8.3 1.6.3h.5c.8 0 1.5-.1 1.6-.3.1-.2-.6-.3-1.4-.3h-.9zM139.6 37.6c-.8 0-1.5.2-1.4.3.1.1.8.3 1.6.3h.1c.8 0 1.5-.1 1.6-.3.1-.2-.6-.3-1.4-.3h-.5zM149.2 37.6c-.8 0-1.4.1-1.3.3.1.1.9.3 1.7.3h3.8c.8 0 1.6-.1 1.7-.3.1-.2-.5-.3-1.3-.3h-4.6zM161 37.6c-.8 0-1.5.2-1.4.3 0 .1.7.3 1.5.3s1.4-.1 1.5-.3c0-.2-.6-.3-1.4-.3h-.2zM165.3 37.6c-.8 0-1.4.1-1.4.3.1.1.8.3 1.6.3h1.4c.8 0 1.6-.1 1.6-.3.1-.2-.5-.3-1.4-.3h-1.8zM174.8 37.6c-.8 0-1.4.1-1.4.3.1.1.8.3 1.6.3h.7c.8 0 1.6-.1 1.6-.3.1-.2-.6-.3-1.4-.3h-1.1zM180.4 37.6c-.8 0-1.5.2-1.4.3.1.1.8.3 1.6.3s1.5-.1 1.6-.3c.1-.2-.6-.3-1.4-.3h-.4zM188.3 37.6c-.8 0-1.4.1-1.2.3.1.1.9.3 1.8.3h5.4c.8 0 1.6-.1 1.8-.3.1-.2-.4-.3-1.2-.3h-6.6zM201.8 37.6c-.8 0-1.4.1-1.2.3.1.1.9.3 1.8.3h5.4c.8 0 1.6-.1 1.8-.3.1-.2-.4-.3-1.2-.3h-6.6zM236 37.6c-.8 0-1.4.1-1.2.3.1.1.9.3 1.8.3h5.4c.8 0 1.6-.1 1.8-.3.1-.2-.4-.3-1.2-.3H236zM223.5 14.9c-.8 0-1.4.1-1.3.3.1.1.8.2 1.6.2h1.7c.8 0 1.6-.1 1.6-.3.1-.2-.5-.3-1.3-.3l-2.3.1zM212.8 14.9c-.8 0-1.4.1-1.3.3.1.1.8.2 1.7.2h2.4c.8 0 1.6-.1 1.7-.3.1-.2-.5-.3-1.3-.3l-3.2.1zM207.4 14.9c-.8 0-1.4.1-1.4.3.1.1.8.2 1.6.2h.8c.8 0 1.6-.1 1.6-.3.1-.2-.6-.3-1.4-.3l-1.2.1zM209.2 25.9c-.8 0-1.4.1-1.3.3.1.1.8.2 1.7.2h1.8c.8 0 1.6-.1 1.7-.3.1-.2-.5-.3-1.3-.3l-2.6.1zM176.3 14.1c-.8 0-1.4.1-1.4.3.1.1.8.3 1.6.3h.8c.8 0 1.6-.1 1.6-.3s-.6-.3-1.4-.3h-1.2zM183.9 14.1c-.8 0-1.4.1-1.4.3.1.1.8.3 1.6.3h.8c.8 0 1.6-.1 1.6-.3.1-.2-.6-.3-1.4-.3h-1.2zM178.8 19c-.6 0-1 .2-1 .3s.5.3 1 .3.9-.1 1-.3c0-.2-.4-.3-1-.3zM181.5 17.4c-.7 0-1.3.2-1.2.3 0 .1.6.3 1.2.3s1.2-.1 1.2-.3c.1-.2-.4-.3-1.2-.3zM147.5 17.7c-.7 0-1.3.2-1.2.3 0 .1.6.3 1.2.3s1.2-.1 1.2-.3c0-.2-.5-.3-1.2-.3zM156.2 25.7c-.8 0-1.5.2-1.4.3 0 .1.7.2 1.5.2s1.4-.1 1.5-.3c0-.2-.6-.3-1.4-.3l-.2.1zM150.2 28.5c-.8 0-1.4.1-1.4.3s.8.2 1.6.2h1.3c.8 0 1.6-.1 1.6-.3.1-.2-.5-.3-1.4-.3l-1.7.1zM235.2 29.1c-.8 0-1.4.1-1.4.3.1.1.8.2 1.6.2h1.3c.8 0 1.6-.1 1.6-.3.1-.2-.5-.3-1.4-.3l-1.7.1zM93.9 31.4c-.8 0-1.4.2-1.4.3.1.1.8.3 1.6.3h.3c.8 0 1.5-.1 1.6-.3s-.6-.3-1.4-.3h-.7zM81.9 29c-.8 0-1.4.2-1.4.3.1.1.8.2 1.6.2h.3c.8 0 1.5-.1 1.6-.3s-.6-.3-1.4-.3l-.7.1z"/><g><path class="st14" d="M64.8 28.8c-.8 0-1.4.2-1.4.3s.8.2 1.6.2h.3c.8 0 1.5-.1 1.6-.3.1-.2-.6-.3-1.4-.3l-.7.1z"/></g><g><path class="st14" d="M38.9 19.6c-.8 0-1.4.1-1.4.3.1.1.8.3 1.6.3h1.5c.8 0 1.6-.1 1.6-.3.1-.2-.5-.3-1.4-.3h-1.9z"/></g><g><path class="st14" d="M87.5 15.3c-.8-.1-1.5 0-1.4.1 0 .1.7.4 1.6.5h.3c.8.1 1.5.1 1.6-.1.1-.2-.5-.4-1.3-.4l-.8-.1z"/></g><g><path class="st14" d="M161.1 30.4c-.8 0-1.4.2-1.4.3.1.1.8.2 1.6.2h.3c.8 0 1.5-.1 1.6-.3.1-.2-.6-.3-1.4-.3l-.7.1z"/></g><g><path class="st14" d="M182.7 28.3c-.8 0-1.4.2-1.4.3.1.1.8.2 1.6.2h.3c.8 0 1.5-.1 1.6-.3.1-.2-.6-.3-1.4-.3l-.7.1z"/></g><g><path class="st14" d="M130.8 14.7c-.8 0-1.3.1-1.2.3.2.1 1 .2 1.8.2h7.2c.8 0 1.6-.1 1.8-.3.2-.2-.3-.3-1.2-.3l-8.4.1z"/></g><g><path class="st14" d="M105.1 14.8c-.8 0-1.3.1-1.2.3.2.1 1 .2 1.8.2h7.5c.8 0 1.6-.1 1.8-.3.2-.2-.3-.3-1.2-.3l-8.7.1z"/></g><g><path class="st14" d="M103.7 25.7c-.8 0-1.4.1-1.3.3.1.1.9.2 1.7.2h2.7c.8 0 1.6-.1 1.7-.3s-.5-.3-1.3-.3l-3.5.1z"/></g><g><path class="st14" d="M110.6 25.7c-.8 0-1.4.1-1.3.3.1.1.8.2 1.7.2h2.4c.8 0 1.6-.1 1.7-.3.1-.2-.5-.3-1.3-.3l-3.2.1z"/></g><g><path class="st14" d="M125.4 36.2c-.8 0-1.4.2-1.4.3s.7.2 1.4.2 1.3-.1 1.4-.3c0-.1-.6-.3-1.4-.2z"/></g><g><path class="st14" d="M123.4 18.6c-.8-.1-1.4-.1-1.4.1 0 .1.8.4 1.6.5l.9.1c.8.1 1.6.1 1.6-.1.1-.2-.5-.4-1.3-.5l-1.4-.1z"/></g><g><path class="st14" d="M187.9 30.5c-.8-.1-1.4-.1-1.4.1 0 .1.8.4 1.6.5l.9.1c.8.1 1.6.1 1.6-.1.1-.2-.5-.4-1.3-.5l-1.4-.1z"/></g><g><path class="st14" d="M185.3 19c-.5 0-.9.2-.9.3 0 .1.4.3.9.3s.9-.1.9-.3-.3-.3-.9-.3z"/></g><g><path class="st14" d="M216 25.9c-.8 0-1.4.1-1.3.3.1.1.8.2 1.7.2h2.4c.8 0 1.6-.1 1.7-.3.1-.2-.5-.3-1.3-.3l-3.2.1z"/></g><g><path class="st14" d="M240.8 14.9c-.8 0-1.4.1-1.4.3.1.1.8.2 1.6.2h.9c.8 0 1.6-.1 1.6-.3.1-.2-.5-.3-1.4-.3l-1.3.1z"/></g><g><path class="st14" d="M129.7 37.6c-.8 0-1.4.1-1.3.3.1.1.9.3 1.7.3h4.4c.8 0 1.6-.1 1.7-.3.1-.2-.4-.3-1.3-.3h-5.2z"/></g><g><path class="st14" d="M98.2 37.6c-.8 0-1.4.1-1.2.3.2.1 1 .3 1.8.3h6.7c.8 0 1.6-.1 1.8-.3.2-.2-.4-.3-1.2-.3h-7.9z"/></g><g><path class="st14" d="M109.9 37.6c-.8 0-1.4.1-1.3.3.1.1.8.3 1.7.3h2.3c.8 0 1.6-.1 1.7-.3.1-.2-.5-.3-1.3-.3h-3.1z"/></g><g><path class="st14" d="M54.2 37.7c-.8 0-1.4.1-1.4.3.1.1.8.3 1.6.3h.7c.8 0 1.6-.1 1.6-.3.1-.2-.6-.3-1.4-.3h-1.1z"/></g><g><path class="st15" d="M106.9 47l-.3-1.6h-2.1l-.2-.7-.3-1.6H91.6l-.2 1.8v.5h-.1l-.3-.8-.4-1.5H83.7l-.2 1.8-.6 5.2h-1.8l.3-2.1.1-.6-.2-.4-1-2.6-.5-1.3h-6.7l-.3 1.7v.5l-.5-1-.5-1.2H59.9l-.3 1.7-.1.3-.5-.9-.6-1.1H44l-.3 1.6-.8 3.1-.2.8.5.8.5.7h-4l-.4 1.5-.8 3.2-.2.9.6.8 1.8 2.4.6.8h.4l1.1 1.6.6.8H55.2l.3-1.6.1-.4.6 1 .6 1h6.4l.3-1.7.2-.7h2.6l.6 1.3.6 1.1H74.1l.3-1.7.4-2.9.5 1 .5 1.2h1.3l.5 1.2.5 1.2h6.8l.2-1.8.1-.6h2.7v-.1l.4 1.1.5 1.4H95.7l.2-1.8v-.6h3l.2.8.4 1.6h7.1l.1-1.9.6-10.2.1-.2-.1-.2zM215.8 57.2l-3-12.5-.4-1.6H206.1l-.6.9-.8 1.4h-2.4l-.2-.7-.3-1.6H195.3l-.5 1.1-.5.9-.1-.3-.3-1.7H182l-.6 1.2-.4 1-.1-.5-.2-1.7H141.7l-.2 1.8-.1.5h-.2v-.3l-.1-2h-31.4l-.1 1.9-.6 12.6v.4l.4 2.4.2 1.7h31.5l.2-1.8.1-.6h.3v.5l.1 1.9h12.6l.3-1.6.6-2.4.1-.2-.1-.4-.2-3.2-.1-1.5h2.2l.7 7.5.1 1.8h7l.4-1.4.8-2.4.2-.4-.1-.4-.5-4.7H169.6l-.3.9-1 2.4-.1.5v.5l.4 3.2.2 1.8H181l.5-1.2.5-1 .1.5.3 1.7H194.3l.6-1 .6-1 .1.4.3 1.6h6.4l.6-.9 1-1.5h2.3l.2.8.4 1.6h6.2l.6-.8 1.8-2.4.6-.7z"/></g><g><path class="st16" d="M72.8 47.4h-1.3l-1-2.3h-9l-.4 2.3h-2.6l-1.3-2.3H45.6l-.7 3.1 1.7 2.5h5.9l-.8 3.7h-5.1L45 52.1h-3.7l-.8 3.2 1.8 2.4h.4l1.8 2.4h9.1l.5-2.4h2.4l1.5 2.4h3.7l.4-2.4h5.5l1.2 2.4h3.7L74 49.9l-1.2-2.5zm-4.4 4.7H63l.2-1.3h5.4l-.2 1.3zM89.1 45.1h-3.6l-.8 7h-2.8l-.3 2.3h-.5l-.9-2.3h-1.4l.6-4.4-1-2.6h-3.6l-1.2 7.8 1.1 2.5H76l1.1 2.3h1.3l1.1 2.4h3.6l.3-2.4h2.7l.3-2.3h2.7l.8-7.7zM102.8 47.4l-.4-2.3h-9l-.2 2.3h-2.7l-1.1 10.3.8 2.4h3.7l.2-2.4h6.4l.6 2.4h3.7l.6-10.2-.5-2.5h-2.1zm-8.2 4.7l.1-1.3h6.2l-.1 1.3h-6.2zM111.6 45.1l-.6 12.6.3 2.4h14.6v-3.3l-.1-2.4h-5.3l.1-2.2-.1-1.4h5.4v-5.7zM139.2 47.4l-.1-2.3h-11.6v15h11.8l.3-2.4h2.3l.3-2.4-.3-7.9h-2.7zm-1.1 3.4l.1 3.7h-6.9v-3.7h6.8zM150.4 54.4l-.3-3.6h2l.5-2.6-.2-3.1h-9l-.3 2.6.1 3.1h2.7l.2 3.6h-2.2l-.4 2.4.2 3.3h9.1l.5-2.4-.2-3.3zM154 45.1l-.5 2.6.2 3.1h5.3l.8 9.3h3.7l.8-2.4-.7-6.9h4.3l.8-2.6-.4-3.1zM177.6 54.4l-.5-3.6h1.2l1.1-2.6-.5-3.1H170l-.9 2.6.4 3.1h2.6l.5 3.6h-1.5l-.9 2.4.4 3.3h9.1l1.1-2.4-.5-3.3zM210.8 45.1h-3.6l-1.6 2.6.5 2h-2.2l-.5-2.3h-2.7l-.5-2.3h-3.6l-1.3 2.3h-2.6l-.4-2.3h-9l-1 2.3H181l-1.1 2.5 1.2 7.8h2.7l.4 2.4h9.1l1.4-2.4h.8l1.2-2 .9 4.4h3.7l1.6-2.4-.5-2.3h2.3l.5 2.4h2.7l.5 2.4h3.7l1.8-2.4-3.1-12.7zm-19.6 9.3h-5.4l-.6-3.7h5.4l.6 3.7z"/></g><g><path class="st17" d="M45.6 45.1l-.7 3.1H53l-1.4 6.2h-7.2l.6-2.3h-3.8l-.7 3.2h2.7l-.5 2.4h9.2l.6-2.4h2.7l2-10.2zM70.1 47.4l.4-2.3h-9l-.4 2.3h-2.7l-2 10.3h3.8l.4-2.4h7.3l-.4 2.4h3.8l1.6-10.3h-2.8zm-1.7 4.7h-7.2l.7-3.8H69l-.6 3.8zM74.8 45.1h3.6l-.9 7h2.7l-.3 2.3h1.7l.3-2.3h2.8l.8-7h3.6l-.8 7.8h-2.8l-.2 2.4h-2.8l-.3 2.4h-3.8l.4-2.4H76l.4-2.4h-2.8zM102.2 47.4l.2-2.3h-9l-.2 2.3h-2.7l-1.1 10.3h3.8l.2-2.4h7.3l-.2 2.4h3.8l.6-10.3h-2.7zm-1.3 4.7h-7.2l.4-3.8h7.1l-.3 3.8zM111.6 45.1l-.6 12.6h14.8v-3.3h-10.9v-1.5h5.5l.1-3.2H115l.1-1.5h10.8v-3.1zM142.2 55.3l-.3-7.9h-2.7l-.1-2.3h-11.6v12.6h12.1l-.1-2.4h2.7zm-10.9-.9l-.1-6.2h7.1l.2 6.2h-7.2zM143.4 45.1l.2 3.1h2.7l.3 6.2h-2.7l.1 3.3h9.3l-.2-3.3h-2.7l-.4-6.2h2.6l-.2-3.1zM154 45.1l.3 3.1h5.4l.9 9.5h3.7l-1-9.5h5.4l-.4-3.1zM170 45.1l.4 3.1h2.7l.8 6.2h-2.8l.4 3.3h9.3l-.5-3.3h-2.7l-.9-6.2h2.7l-.5-3.1zM196.5 45.1l2.5 12.6h3.8l-1.5-7.2h1.7l.5 2.4h2.8l.5 2.4h2.8l.5 2.4h3.8l-3.1-12.6h-3.6l1.6 7h-1.7l-.6-2.4h-2.7l-.5-2.3h-2.7l-.4-2.3zM196.9 55.3l-1.5-7.9h-2.7l-.4-2.3h-9l.4 2.3H181l1.2 7.9h2.8l.4 2.4h9.3l-.5-2.4h2.7zm-11.1-.9l-1-6.2h7.1l1.1 6.2h-7.2z"/></g></svg>